<?xml version="1.0" encoding="UTF-8" standalone="no"?>
<!DOCTYPE svg PUBLIC "-//W3C//DTD SVG 1.1//EN"
 "http://www.w3.org/Graphics/SVG/1.1/DTD/svg11.dtd">
<!-- Generated by graphviz version 2.43.0 (0)
 -->
<!-- Title: %3 Pages: 1 -->
<svg width="1090pt" height="719pt"
 viewBox="0.00 0.00 1090.00 719.00" xmlns="http://www.w3.org/2000/svg" xmlns:xlink="http://www.w3.org/1999/xlink">
<g id="graph0" class="graph" transform="scale(1 1) rotate(0) translate(4 715)">
<title>%3</title>
<polygon fill="white" stroke="transparent" points="-4,4 -4,-715 1086,-715 1086,4 -4,4"/>
<!-- node1 -->
<g id="node1" class="node">
<title>node1</title>
<path fill="peachpuff" stroke="black" d="M424.5,-664.5C424.5,-664.5 538.5,-664.5 538.5,-664.5 544.5,-664.5 550.5,-670.5 550.5,-676.5 550.5,-676.5 550.5,-698.5 550.5,-698.5 550.5,-704.5 544.5,-710.5 538.5,-710.5 538.5,-710.5 424.5,-710.5 424.5,-710.5 418.5,-710.5 412.5,-704.5 412.5,-698.5 412.5,-698.5 412.5,-676.5 412.5,-676.5 412.5,-670.5 418.5,-664.5 424.5,-664.5"/>
<text text-anchor="middle" x="425.5" y="-695.3" font-family="Times,serif" font-size="14.00">1</text>
<polyline fill="none" stroke="black" points="438.5,-687.5 438.5,-710.5 "/>
<text text-anchor="middle" x="457.5" y="-695.3" font-family="Times,serif" font-size="14.00">OP</text>
<polyline fill="none" stroke="black" points="476.5,-687.5 476.5,-710.5 "/>
<text text-anchor="middle" x="513.5" y="-695.3" font-family="Times,serif" font-size="14.00">size=30</text>
<polyline fill="none" stroke="black" points="412.5,-687.5 550.5,-687.5 "/>
<text text-anchor="middle" x="481.5" y="-672.3" font-family="Times,serif" font-size="14.00">+</text>
</g>
<!-- node1&#45;&gt;node1 -->
<g id="edge1" class="edge">
<title>node1&#45;&gt;node1</title>
<path fill="none" stroke="blue" d="M550.77,-701.52C561.33,-699.38 568.5,-694.71 568.5,-687.5 568.5,-682.77 565.41,-679.13 560.31,-676.58"/>
<polygon fill="blue" stroke="blue" points="561.37,-673.25 550.77,-673.48 559.2,-679.9 561.37,-673.25"/>
</g>
<!-- node2 -->
<g id="node2" class="node">
<title>node2</title>
<path fill="peachpuff" stroke="black" d="M344.5,-581.5C344.5,-581.5 458.5,-581.5 458.5,-581.5 464.5,-581.5 470.5,-587.5 470.5,-593.5 470.5,-593.5 470.5,-615.5 470.5,-615.5 470.5,-621.5 464.5,-627.5 458.5,-627.5 458.5,-627.5 344.5,-627.5 344.5,-627.5 338.5,-627.5 332.5,-621.5 332.5,-615.5 332.5,-615.5 332.5,-593.5 332.5,-593.5 332.5,-587.5 338.5,-581.5 344.5,-581.5"/>
<text text-anchor="middle" x="345.5" y="-612.3" font-family="Times,serif" font-size="14.00">2</text>
<polyline fill="none" stroke="black" points="358.5,-604.5 358.5,-627.5 "/>
<text text-anchor="middle" x="377.5" y="-612.3" font-family="Times,serif" font-size="14.00">OP</text>
<polyline fill="none" stroke="black" points="396.5,-604.5 396.5,-627.5 "/>
<text text-anchor="middle" x="433.5" y="-612.3" font-family="Times,serif" font-size="14.00">size=28</text>
<polyline fill="none" stroke="black" points="332.5,-604.5 470.5,-604.5 "/>
<text text-anchor="middle" x="401.5" y="-589.3" font-family="Times,serif" font-size="14.00">&#45;</text>
</g>
<!-- node1&#45;&gt;node2 -->
<g id="edge2" class="edge">
<title>node1&#45;&gt;node2</title>
<path fill="none" stroke="red" d="M453.55,-664.37C443.95,-655.35 433.37,-644.79 424.23,-635.12"/>
<polygon fill="red" stroke="red" points="426.62,-632.55 417.25,-627.61 421.49,-637.32 426.62,-632.55"/>
</g>
<!-- node30 -->
<g id="node30" class="node">
<title>node30</title>
<path fill="lightyellow" stroke="black" d="M500.5,-581.5C500.5,-581.5 622.5,-581.5 622.5,-581.5 628.5,-581.5 634.5,-587.5 634.5,-593.5 634.5,-593.5 634.5,-615.5 634.5,-615.5 634.5,-621.5 628.5,-627.5 622.5,-627.5 622.5,-627.5 500.5,-627.5 500.5,-627.5 494.5,-627.5 488.5,-621.5 488.5,-615.5 488.5,-615.5 488.5,-593.5 488.5,-593.5 488.5,-587.5 494.5,-581.5 500.5,-581.5"/>
<text text-anchor="middle" x="506" y="-612.3" font-family="Times,serif" font-size="14.00">30</text>
<polyline fill="none" stroke="black" points="523.5,-604.5 523.5,-627.5 "/>
<text text-anchor="middle" x="546.5" y="-612.3" font-family="Times,serif" font-size="14.00">VAR</text>
<polyline fill="none" stroke="black" points="569.5,-604.5 569.5,-627.5 "/>
<text text-anchor="middle" x="602" y="-612.3" font-family="Times,serif" font-size="14.00">size=1</text>
<polyline fill="none" stroke="black" points="488.5,-604.5 634.5,-604.5 "/>
<text text-anchor="middle" x="561.5" y="-589.3" font-family="Times,serif" font-size="14.00">x</text>
</g>
<!-- node1&#45;&gt;node30 -->
<g id="edge58" class="edge">
<title>node1&#45;&gt;node30</title>
<path fill="none" stroke="green" d="M497.27,-664.37C505.65,-655.17 516.17,-644.37 526.31,-634.55"/>
<polygon fill="green" stroke="green" points="528.76,-637.04 533.58,-627.61 523.93,-631.98 528.76,-637.04"/>
</g>
<!-- node2&#45;&gt;node1 -->
<g id="edge3" class="edge">
<title>node2&#45;&gt;node1</title>
<path fill="none" stroke="blue" d="M429.42,-627.61C439.02,-636.62 449.6,-647.18 458.75,-656.85"/>
<polygon fill="blue" stroke="blue" points="456.36,-659.42 465.73,-664.37 461.49,-654.66 456.36,-659.42"/>
</g>
<!-- node3 -->
<g id="node3" class="node">
<title>node3</title>
<path fill="peachpuff" stroke="black" d="M264.5,-498.5C264.5,-498.5 378.5,-498.5 378.5,-498.5 384.5,-498.5 390.5,-504.5 390.5,-510.5 390.5,-510.5 390.5,-532.5 390.5,-532.5 390.5,-538.5 384.5,-544.5 378.5,-544.5 378.5,-544.5 264.5,-544.5 264.5,-544.5 258.5,-544.5 252.5,-538.5 252.5,-532.5 252.5,-532.5 252.5,-510.5 252.5,-510.5 252.5,-504.5 258.5,-498.5 264.5,-498.5"/>
<text text-anchor="middle" x="265.5" y="-529.3" font-family="Times,serif" font-size="14.00">3</text>
<polyline fill="none" stroke="black" points="278.5,-521.5 278.5,-544.5 "/>
<text text-anchor="middle" x="297.5" y="-529.3" font-family="Times,serif" font-size="14.00">OP</text>
<polyline fill="none" stroke="black" points="316.5,-521.5 316.5,-544.5 "/>
<text text-anchor="middle" x="353.5" y="-529.3" font-family="Times,serif" font-size="14.00">size=26</text>
<polyline fill="none" stroke="black" points="252.5,-521.5 390.5,-521.5 "/>
<text text-anchor="middle" x="321.5" y="-506.3" font-family="Times,serif" font-size="14.00">*</text>
</g>
<!-- node2&#45;&gt;node3 -->
<g id="edge4" class="edge">
<title>node2&#45;&gt;node3</title>
<path fill="none" stroke="red" d="M373.55,-581.37C363.95,-572.35 353.37,-561.79 344.23,-552.12"/>
<polygon fill="red" stroke="red" points="346.62,-549.55 337.25,-544.61 341.49,-554.32 346.62,-549.55"/>
</g>
<!-- node29 -->
<g id="node29" class="node">
<title>node29</title>
<path fill="lightyellow" stroke="black" d="M420.5,-498.5C420.5,-498.5 542.5,-498.5 542.5,-498.5 548.5,-498.5 554.5,-504.5 554.5,-510.5 554.5,-510.5 554.5,-532.5 554.5,-532.5 554.5,-538.5 548.5,-544.5 542.5,-544.5 542.5,-544.5 420.5,-544.5 420.5,-544.5 414.5,-544.5 408.5,-538.5 408.5,-532.5 408.5,-532.5 408.5,-510.5 408.5,-510.5 408.5,-504.5 414.5,-498.5 420.5,-498.5"/>
<text text-anchor="middle" x="426" y="-529.3" font-family="Times,serif" font-size="14.00">29</text>
<polyline fill="none" stroke="black" points="443.5,-521.5 443.5,-544.5 "/>
<text text-anchor="middle" x="466.5" y="-529.3" font-family="Times,serif" font-size="14.00">VAR</text>
<polyline fill="none" stroke="black" points="489.5,-521.5 489.5,-544.5 "/>
<text text-anchor="middle" x="522" y="-529.3" font-family="Times,serif" font-size="14.00">size=1</text>
<polyline fill="none" stroke="black" points="408.5,-521.5 554.5,-521.5 "/>
<text text-anchor="middle" x="481.5" y="-506.3" font-family="Times,serif" font-size="14.00">x</text>
</g>
<!-- node2&#45;&gt;node29 -->
<g id="edge56" class="edge">
<title>node2&#45;&gt;node29</title>
<path fill="none" stroke="green" d="M417.27,-581.37C425.65,-572.17 436.17,-561.37 446.31,-551.55"/>
<polygon fill="green" stroke="green" points="448.76,-554.04 453.58,-544.61 443.93,-548.98 448.76,-554.04"/>
</g>
<!-- node3&#45;&gt;node2 -->
<g id="edge5" class="edge">
<title>node3&#45;&gt;node2</title>
<path fill="none" stroke="blue" d="M349.42,-544.61C359.02,-553.62 369.6,-564.18 378.75,-573.85"/>
<polygon fill="blue" stroke="blue" points="376.36,-576.42 385.73,-581.37 381.49,-571.66 376.36,-576.42"/>
</g>
<!-- node4 -->
<g id="node4" class="node">
<title>node4</title>
<path fill="peachpuff" stroke="black" d="M191,-415.5C191,-415.5 296,-415.5 296,-415.5 302,-415.5 308,-421.5 308,-427.5 308,-427.5 308,-449.5 308,-449.5 308,-455.5 302,-461.5 296,-461.5 296,-461.5 191,-461.5 191,-461.5 185,-461.5 179,-455.5 179,-449.5 179,-449.5 179,-427.5 179,-427.5 179,-421.5 185,-415.5 191,-415.5"/>
<text text-anchor="middle" x="192" y="-446.3" font-family="Times,serif" font-size="14.00">4</text>
<polyline fill="none" stroke="black" points="205,-438.5 205,-461.5 "/>
<text text-anchor="middle" x="224" y="-446.3" font-family="Times,serif" font-size="14.00">OP</text>
<polyline fill="none" stroke="black" points="243,-438.5 243,-461.5 "/>
<text text-anchor="middle" x="275.5" y="-446.3" font-family="Times,serif" font-size="14.00">size=4</text>
<polyline fill="none" stroke="black" points="179,-438.5 308,-438.5 "/>
<text text-anchor="middle" x="243.5" y="-423.3" font-family="Times,serif" font-size="14.00">/</text>
</g>
<!-- node3&#45;&gt;node4 -->
<g id="edge6" class="edge">
<title>node3&#45;&gt;node4</title>
<path fill="none" stroke="red" d="M294.1,-498.37C284.72,-489.35 274.4,-478.79 265.5,-469.12"/>
<polygon fill="red" stroke="red" points="268,-466.68 258.7,-461.61 262.81,-471.37 268,-466.68"/>
</g>
<!-- node8 -->
<g id="node8" class="node">
<title>node8</title>
<path fill="peachpuff" stroke="black" d="M344.5,-415.5C344.5,-415.5 458.5,-415.5 458.5,-415.5 464.5,-415.5 470.5,-421.5 470.5,-427.5 470.5,-427.5 470.5,-449.5 470.5,-449.5 470.5,-455.5 464.5,-461.5 458.5,-461.5 458.5,-461.5 344.5,-461.5 344.5,-461.5 338.5,-461.5 332.5,-455.5 332.5,-449.5 332.5,-449.5 332.5,-427.5 332.5,-427.5 332.5,-421.5 338.5,-415.5 344.5,-415.5"/>
<text text-anchor="middle" x="345.5" y="-446.3" font-family="Times,serif" font-size="14.00">8</text>
<polyline fill="none" stroke="black" points="358.5,-438.5 358.5,-461.5 "/>
<text text-anchor="middle" x="377.5" y="-446.3" font-family="Times,serif" font-size="14.00">OP</text>
<polyline fill="none" stroke="black" points="396.5,-438.5 396.5,-461.5 "/>
<text text-anchor="middle" x="433.5" y="-446.3" font-family="Times,serif" font-size="14.00">size=21</text>
<polyline fill="none" stroke="black" points="332.5,-438.5 470.5,-438.5 "/>
<text text-anchor="middle" x="401.5" y="-423.3" font-family="Times,serif" font-size="14.00">^</text>
</g>
<!-- node3&#45;&gt;node8 -->
<g id="edge14" class="edge">
<title>node3&#45;&gt;node8</title>
<path fill="none" stroke="green" d="M337.27,-498.37C345.65,-489.17 356.17,-478.37 366.31,-468.55"/>
<polygon fill="green" stroke="green" points="368.76,-471.04 373.58,-461.61 363.93,-465.98 368.76,-471.04"/>
</g>
<!-- node4&#45;&gt;node3 -->
<g id="edge7" class="edge">
<title>node4&#45;&gt;node3</title>
<path fill="none" stroke="blue" d="M270.88,-461.61C280.25,-470.62 290.57,-481.18 299.48,-490.85"/>
<polygon fill="blue" stroke="blue" points="296.97,-493.3 306.28,-498.37 302.16,-488.6 296.97,-493.3"/>
</g>
<!-- node5 -->
<g id="node5" class="node">
<title>node5</title>
<path fill="peachpuff" stroke="black" d="M32,-332.5C32,-332.5 137,-332.5 137,-332.5 143,-332.5 149,-338.5 149,-344.5 149,-344.5 149,-366.5 149,-366.5 149,-372.5 143,-378.5 137,-378.5 137,-378.5 32,-378.5 32,-378.5 26,-378.5 20,-372.5 20,-366.5 20,-366.5 20,-344.5 20,-344.5 20,-338.5 26,-332.5 32,-332.5"/>
<text text-anchor="middle" x="33" y="-363.3" font-family="Times,serif" font-size="14.00">5</text>
<polyline fill="none" stroke="black" points="46,-355.5 46,-378.5 "/>
<text text-anchor="middle" x="65" y="-363.3" font-family="Times,serif" font-size="14.00">OP</text>
<polyline fill="none" stroke="black" points="84,-355.5 84,-378.5 "/>
<text text-anchor="middle" x="116.5" y="-363.3" font-family="Times,serif" font-size="14.00">size=2</text>
<polyline fill="none" stroke="black" points="20,-355.5 149,-355.5 "/>
<text text-anchor="middle" x="84.5" y="-340.3" font-family="Times,serif" font-size="14.00">cos</text>
</g>
<!-- node4&#45;&gt;node5 -->
<g id="edge8" class="edge">
<title>node4&#45;&gt;node5</title>
<path fill="none" stroke="red" d="M193.96,-415.37C173.74,-405.46 150.53,-393.68 130.67,-383.28"/>
<polygon fill="red" stroke="red" points="132.28,-380.17 121.81,-378.61 129.02,-386.37 132.28,-380.17"/>
</g>
<!-- node7 -->
<g id="node7" class="node">
<title>node7</title>
<path fill="pink" stroke="black" d="M182.5,-332.5C182.5,-332.5 304.5,-332.5 304.5,-332.5 310.5,-332.5 316.5,-338.5 316.5,-344.5 316.5,-344.5 316.5,-366.5 316.5,-366.5 316.5,-372.5 310.5,-378.5 304.5,-378.5 304.5,-378.5 182.5,-378.5 182.5,-378.5 176.5,-378.5 170.5,-372.5 170.5,-366.5 170.5,-366.5 170.5,-344.5 170.5,-344.5 170.5,-338.5 176.5,-332.5 182.5,-332.5"/>
<text text-anchor="middle" x="183.5" y="-363.3" font-family="Times,serif" font-size="14.00">7</text>
<polyline fill="none" stroke="black" points="196.5,-355.5 196.5,-378.5 "/>
<text text-anchor="middle" x="224" y="-363.3" font-family="Times,serif" font-size="14.00">NUM</text>
<polyline fill="none" stroke="black" points="251.5,-355.5 251.5,-378.5 "/>
<text text-anchor="middle" x="284" y="-363.3" font-family="Times,serif" font-size="14.00">size=1</text>
<polyline fill="none" stroke="black" points="170.5,-355.5 316.5,-355.5 "/>
<text text-anchor="middle" x="243.5" y="-340.3" font-family="Times,serif" font-size="14.00">10</text>
</g>
<!-- node4&#45;&gt;node7 -->
<g id="edge12" class="edge">
<title>node4&#45;&gt;node7</title>
<path fill="none" stroke="green" d="M237.41,-415.37C236.78,-407.15 236.6,-397.66 236.88,-388.73"/>
<polygon fill="green" stroke="green" points="240.38,-388.78 237.41,-378.61 233.39,-388.41 240.38,-388.78"/>
</g>
<!-- node5&#45;&gt;node4 -->
<g id="edge9" class="edge">
<title>node5&#45;&gt;node4</title>
<path fill="none" stroke="blue" d="M133.98,-378.61C154.2,-388.51 177.41,-400.29 197.27,-410.69"/>
<polygon fill="blue" stroke="blue" points="195.66,-413.8 206.14,-415.37 198.93,-407.61 195.66,-413.8"/>
</g>
<!-- node6 -->
<g id="node6" class="node">
<title>node6</title>
<path fill="pink" stroke="black" d="M21.5,-249.5C21.5,-249.5 143.5,-249.5 143.5,-249.5 149.5,-249.5 155.5,-255.5 155.5,-261.5 155.5,-261.5 155.5,-283.5 155.5,-283.5 155.5,-289.5 149.5,-295.5 143.5,-295.5 143.5,-295.5 21.5,-295.5 21.5,-295.5 15.5,-295.5 9.5,-289.5 9.5,-283.5 9.5,-283.5 9.5,-261.5 9.5,-261.5 9.5,-255.5 15.5,-249.5 21.5,-249.5"/>
<text text-anchor="middle" x="22.5" y="-280.3" font-family="Times,serif" font-size="14.00">6</text>
<polyline fill="none" stroke="black" points="35.5,-272.5 35.5,-295.5 "/>
<text text-anchor="middle" x="63" y="-280.3" font-family="Times,serif" font-size="14.00">NUM</text>
<polyline fill="none" stroke="black" points="90.5,-272.5 90.5,-295.5 "/>
<text text-anchor="middle" x="123" y="-280.3" font-family="Times,serif" font-size="14.00">size=1</text>
<polyline fill="none" stroke="black" points="9.5,-272.5 155.5,-272.5 "/>
<text text-anchor="middle" x="82.5" y="-257.3" font-family="Times,serif" font-size="14.00">25</text>
</g>
<!-- node5&#45;&gt;node6 -->
<g id="edge10" class="edge">
<title>node5&#45;&gt;node6</title>
<path fill="none" stroke="red" d="M77.86,-332.37C77.03,-324.15 76.62,-314.66 76.67,-305.73"/>
<polygon fill="red" stroke="red" points="80.17,-305.7 76.96,-295.61 73.18,-305.5 80.17,-305.7"/>
</g>
<!-- node6&#45;&gt;node5 -->
<g id="edge11" class="edge">
<title>node6&#45;&gt;node5</title>
<path fill="none" stroke="blue" d="M89.13,-295.61C89.97,-303.82 90.38,-313.31 90.33,-322.25"/>
<polygon fill="blue" stroke="blue" points="86.83,-322.27 90.04,-332.37 93.82,-322.47 86.83,-322.27"/>
</g>
<!-- node7&#45;&gt;node4 -->
<g id="edge13" class="edge">
<title>node7&#45;&gt;node4</title>
<path fill="none" stroke="blue" d="M249.59,-378.61C250.22,-386.82 250.4,-396.31 250.12,-405.25"/>
<polygon fill="blue" stroke="blue" points="246.62,-405.2 249.59,-415.37 253.61,-405.56 246.62,-405.2"/>
</g>
<!-- node8&#45;&gt;node3 -->
<g id="edge15" class="edge">
<title>node8&#45;&gt;node3</title>
<path fill="none" stroke="blue" d="M385.75,-461.61C377.38,-470.8 366.86,-481.6 356.72,-491.42"/>
<polygon fill="blue" stroke="blue" points="354.27,-488.93 349.45,-498.37 359.1,-493.99 354.27,-488.93"/>
</g>
<!-- node9 -->
<g id="node9" class="node">
<title>node9</title>
<path fill="peachpuff" stroke="black" d="M349,-332.5C349,-332.5 454,-332.5 454,-332.5 460,-332.5 466,-338.5 466,-344.5 466,-344.5 466,-366.5 466,-366.5 466,-372.5 460,-378.5 454,-378.5 454,-378.5 349,-378.5 349,-378.5 343,-378.5 337,-372.5 337,-366.5 337,-366.5 337,-344.5 337,-344.5 337,-338.5 343,-332.5 349,-332.5"/>
<text text-anchor="middle" x="350" y="-363.3" font-family="Times,serif" font-size="14.00">9</text>
<polyline fill="none" stroke="black" points="363,-355.5 363,-378.5 "/>
<text text-anchor="middle" x="382" y="-363.3" font-family="Times,serif" font-size="14.00">OP</text>
<polyline fill="none" stroke="black" points="401,-355.5 401,-378.5 "/>
<text text-anchor="middle" x="433.5" y="-363.3" font-family="Times,serif" font-size="14.00">size=9</text>
<polyline fill="none" stroke="black" points="337,-355.5 466,-355.5 "/>
<text text-anchor="middle" x="401.5" y="-340.3" font-family="Times,serif" font-size="14.00">+</text>
</g>
<!-- node8&#45;&gt;node9 -->
<g id="edge16" class="edge">
<title>node8&#45;&gt;node9</title>
<path fill="none" stroke="red" d="M395.41,-415.37C394.78,-407.15 394.6,-397.66 394.88,-388.73"/>
<polygon fill="red" stroke="red" points="398.38,-388.78 395.41,-378.61 391.39,-388.41 398.38,-388.78"/>
</g>
<!-- node18 -->
<g id="node18" class="node">
<title>node18</title>
<path fill="peachpuff" stroke="black" d="M511,-332.5C511,-332.5 634,-332.5 634,-332.5 640,-332.5 646,-338.5 646,-344.5 646,-344.5 646,-366.5 646,-366.5 646,-372.5 640,-378.5 634,-378.5 634,-378.5 511,-378.5 511,-378.5 505,-378.5 499,-372.5 499,-366.5 499,-366.5 499,-344.5 499,-344.5 499,-338.5 505,-332.5 511,-332.5"/>
<text text-anchor="middle" x="516.5" y="-363.3" font-family="Times,serif" font-size="14.00">18</text>
<polyline fill="none" stroke="black" points="534,-355.5 534,-378.5 "/>
<text text-anchor="middle" x="553" y="-363.3" font-family="Times,serif" font-size="14.00">OP</text>
<polyline fill="none" stroke="black" points="572,-355.5 572,-378.5 "/>
<text text-anchor="middle" x="609" y="-363.3" font-family="Times,serif" font-size="14.00">size=11</text>
<polyline fill="none" stroke="black" points="499,-355.5 646,-355.5 "/>
<text text-anchor="middle" x="572.5" y="-340.3" font-family="Times,serif" font-size="14.00">^</text>
</g>
<!-- node8&#45;&gt;node18 -->
<g id="edge34" class="edge">
<title>node8&#45;&gt;node18</title>
<path fill="none" stroke="green" d="M442.14,-415.37C462.57,-405.32 487.72,-393.36 510.49,-382.86"/>
<polygon fill="green" stroke="green" points="512.11,-385.96 519.74,-378.61 509.19,-379.6 512.11,-385.96"/>
</g>
<!-- node9&#45;&gt;node8 -->
<g id="edge17" class="edge">
<title>node9&#45;&gt;node8</title>
<path fill="none" stroke="blue" d="M407.59,-378.61C408.22,-386.82 408.4,-396.31 408.12,-405.25"/>
<polygon fill="blue" stroke="blue" points="404.62,-405.2 407.59,-415.37 411.61,-405.56 404.62,-405.2"/>
</g>
<!-- node10 -->
<g id="node10" class="node">
<title>node10</title>
<path fill="peachpuff" stroke="black" d="M185.5,-249.5C185.5,-249.5 299.5,-249.5 299.5,-249.5 305.5,-249.5 311.5,-255.5 311.5,-261.5 311.5,-261.5 311.5,-283.5 311.5,-283.5 311.5,-289.5 305.5,-295.5 299.5,-295.5 299.5,-295.5 185.5,-295.5 185.5,-295.5 179.5,-295.5 173.5,-289.5 173.5,-283.5 173.5,-283.5 173.5,-261.5 173.5,-261.5 173.5,-255.5 179.5,-249.5 185.5,-249.5"/>
<text text-anchor="middle" x="191" y="-280.3" font-family="Times,serif" font-size="14.00">10</text>
<polyline fill="none" stroke="black" points="208.5,-272.5 208.5,-295.5 "/>
<text text-anchor="middle" x="227.5" y="-280.3" font-family="Times,serif" font-size="14.00">OP</text>
<polyline fill="none" stroke="black" points="246.5,-272.5 246.5,-295.5 "/>
<text text-anchor="middle" x="279" y="-280.3" font-family="Times,serif" font-size="14.00">size=7</text>
<polyline fill="none" stroke="black" points="173.5,-272.5 311.5,-272.5 "/>
<text text-anchor="middle" x="242.5" y="-257.3" font-family="Times,serif" font-size="14.00">*</text>
</g>
<!-- node9&#45;&gt;node10 -->
<g id="edge18" class="edge">
<title>node9&#45;&gt;node10</title>
<path fill="none" stroke="red" d="M351.96,-332.37C331.74,-322.46 308.53,-310.68 288.67,-300.28"/>
<polygon fill="red" stroke="red" points="290.28,-297.17 279.81,-295.61 287.02,-303.37 290.28,-297.17"/>
</g>
<!-- node17 -->
<g id="node17" class="node">
<title>node17</title>
<path fill="pink" stroke="black" d="M342,-249.5C342,-249.5 473,-249.5 473,-249.5 479,-249.5 485,-255.5 485,-261.5 485,-261.5 485,-283.5 485,-283.5 485,-289.5 479,-295.5 473,-295.5 473,-295.5 342,-295.5 342,-295.5 336,-295.5 330,-289.5 330,-283.5 330,-283.5 330,-261.5 330,-261.5 330,-255.5 336,-249.5 342,-249.5"/>
<text text-anchor="middle" x="347.5" y="-280.3" font-family="Times,serif" font-size="14.00">17</text>
<polyline fill="none" stroke="black" points="365,-272.5 365,-295.5 "/>
<text text-anchor="middle" x="392.5" y="-280.3" font-family="Times,serif" font-size="14.00">NUM</text>
<polyline fill="none" stroke="black" points="420,-272.5 420,-295.5 "/>
<text text-anchor="middle" x="452.5" y="-280.3" font-family="Times,serif" font-size="14.00">size=1</text>
<polyline fill="none" stroke="black" points="330,-272.5 485,-272.5 "/>
<text text-anchor="middle" x="407.5" y="-257.3" font-family="Times,serif" font-size="14.00">1</text>
</g>
<!-- node9&#45;&gt;node17 -->
<g id="edge32" class="edge">
<title>node9&#45;&gt;node17</title>
<path fill="none" stroke="green" d="M397.05,-332.37C397.02,-324.15 397.55,-314.66 398.49,-305.73"/>
<polygon fill="green" stroke="green" points="401.99,-305.97 399.77,-295.61 395.04,-305.09 401.99,-305.97"/>
</g>
<!-- node10&#45;&gt;node9 -->
<g id="edge19" class="edge">
<title>node10&#45;&gt;node9</title>
<path fill="none" stroke="blue" d="M291.98,-295.61C312.2,-305.51 335.41,-317.29 355.27,-327.69"/>
<polygon fill="blue" stroke="blue" points="353.66,-330.8 364.14,-332.37 356.93,-324.61 353.66,-330.8"/>
</g>
<!-- node11 -->
<g id="node11" class="node">
<title>node11</title>
<path fill="pink" stroke="black" d="M12,-166.5C12,-166.5 143,-166.5 143,-166.5 149,-166.5 155,-172.5 155,-178.5 155,-178.5 155,-200.5 155,-200.5 155,-206.5 149,-212.5 143,-212.5 143,-212.5 12,-212.5 12,-212.5 6,-212.5 0,-206.5 0,-200.5 0,-200.5 0,-178.5 0,-178.5 0,-172.5 6,-166.5 12,-166.5"/>
<text text-anchor="middle" x="17.5" y="-197.3" font-family="Times,serif" font-size="14.00">11</text>
<polyline fill="none" stroke="black" points="35,-189.5 35,-212.5 "/>
<text text-anchor="middle" x="62.5" y="-197.3" font-family="Times,serif" font-size="14.00">NUM</text>
<polyline fill="none" stroke="black" points="90,-189.5 90,-212.5 "/>
<text text-anchor="middle" x="122.5" y="-197.3" font-family="Times,serif" font-size="14.00">size=1</text>
<polyline fill="none" stroke="black" points="0,-189.5 155,-189.5 "/>
<text text-anchor="middle" x="77.5" y="-174.3" font-family="Times,serif" font-size="14.00">3</text>
</g>
<!-- node10&#45;&gt;node11 -->
<g id="edge20" class="edge">
<title>node10&#45;&gt;node11</title>
<path fill="none" stroke="red" d="M191.32,-249.37C170.28,-239.41 146.07,-227.58 125.38,-217.14"/>
<polygon fill="red" stroke="red" points="126.95,-214.01 116.44,-212.61 123.78,-220.25 126.95,-214.01"/>
</g>
<!-- node12 -->
<g id="node12" class="node">
<title>node12</title>
<path fill="peachpuff" stroke="black" d="M185.5,-166.5C185.5,-166.5 299.5,-166.5 299.5,-166.5 305.5,-166.5 311.5,-172.5 311.5,-178.5 311.5,-178.5 311.5,-200.5 311.5,-200.5 311.5,-206.5 305.5,-212.5 299.5,-212.5 299.5,-212.5 185.5,-212.5 185.5,-212.5 179.5,-212.5 173.5,-206.5 173.5,-200.5 173.5,-200.5 173.5,-178.5 173.5,-178.5 173.5,-172.5 179.5,-166.5 185.5,-166.5"/>
<text text-anchor="middle" x="191" y="-197.3" font-family="Times,serif" font-size="14.00">12</text>
<polyline fill="none" stroke="black" points="208.5,-189.5 208.5,-212.5 "/>
<text text-anchor="middle" x="227.5" y="-197.3" font-family="Times,serif" font-size="14.00">OP</text>
<polyline fill="none" stroke="black" points="246.5,-189.5 246.5,-212.5 "/>
<text text-anchor="middle" x="279" y="-197.3" font-family="Times,serif" font-size="14.00">size=5</text>
<polyline fill="none" stroke="black" points="173.5,-189.5 311.5,-189.5 "/>
<text text-anchor="middle" x="242.5" y="-174.3" font-family="Times,serif" font-size="14.00">&#45;</text>
</g>
<!-- node10&#45;&gt;node12 -->
<g id="edge22" class="edge">
<title>node10&#45;&gt;node12</title>
<path fill="none" stroke="green" d="M236.41,-249.37C235.78,-241.15 235.6,-231.66 235.88,-222.73"/>
<polygon fill="green" stroke="green" points="239.38,-222.78 236.41,-212.61 232.39,-222.41 239.38,-222.78"/>
</g>
<!-- node11&#45;&gt;node10 -->
<g id="edge21" class="edge">
<title>node11&#45;&gt;node10</title>
<path fill="none" stroke="blue" d="M128.62,-212.61C149.66,-222.56 173.87,-234.39 194.57,-244.83"/>
<polygon fill="blue" stroke="blue" points="193,-247.96 203.5,-249.37 196.17,-241.72 193,-247.96"/>
</g>
<!-- node12&#45;&gt;node10 -->
<g id="edge23" class="edge">
<title>node12&#45;&gt;node10</title>
<path fill="none" stroke="blue" d="M248.59,-212.61C249.22,-220.82 249.4,-230.31 249.12,-239.25"/>
<polygon fill="blue" stroke="blue" points="245.62,-239.2 248.59,-249.37 252.61,-239.56 245.62,-239.2"/>
</g>
<!-- node13 -->
<g id="node13" class="node">
<title>node13</title>
<path fill="pink" stroke="black" d="M12,-83.5C12,-83.5 143,-83.5 143,-83.5 149,-83.5 155,-89.5 155,-95.5 155,-95.5 155,-117.5 155,-117.5 155,-123.5 149,-129.5 143,-129.5 143,-129.5 12,-129.5 12,-129.5 6,-129.5 0,-123.5 0,-117.5 0,-117.5 0,-95.5 0,-95.5 0,-89.5 6,-83.5 12,-83.5"/>
<text text-anchor="middle" x="17.5" y="-114.3" font-family="Times,serif" font-size="14.00">13</text>
<polyline fill="none" stroke="black" points="35,-106.5 35,-129.5 "/>
<text text-anchor="middle" x="62.5" y="-114.3" font-family="Times,serif" font-size="14.00">NUM</text>
<polyline fill="none" stroke="black" points="90,-106.5 90,-129.5 "/>
<text text-anchor="middle" x="122.5" y="-114.3" font-family="Times,serif" font-size="14.00">size=1</text>
<polyline fill="none" stroke="black" points="0,-106.5 155,-106.5 "/>
<text text-anchor="middle" x="77.5" y="-91.3" font-family="Times,serif" font-size="14.00">2,5</text>
</g>
<!-- node12&#45;&gt;node13 -->
<g id="edge24" class="edge">
<title>node12&#45;&gt;node13</title>
<path fill="none" stroke="red" d="M191.32,-166.37C170.28,-156.41 146.07,-144.58 125.38,-134.14"/>
<polygon fill="red" stroke="red" points="126.95,-131.01 116.44,-129.61 123.78,-137.25 126.95,-131.01"/>
</g>
<!-- node14 -->
<g id="node14" class="node">
<title>node14</title>
<path fill="peachpuff" stroke="black" d="M185.5,-83.5C185.5,-83.5 299.5,-83.5 299.5,-83.5 305.5,-83.5 311.5,-89.5 311.5,-95.5 311.5,-95.5 311.5,-117.5 311.5,-117.5 311.5,-123.5 305.5,-129.5 299.5,-129.5 299.5,-129.5 185.5,-129.5 185.5,-129.5 179.5,-129.5 173.5,-123.5 173.5,-117.5 173.5,-117.5 173.5,-95.5 173.5,-95.5 173.5,-89.5 179.5,-83.5 185.5,-83.5"/>
<text text-anchor="middle" x="191" y="-114.3" font-family="Times,serif" font-size="14.00">14</text>
<polyline fill="none" stroke="black" points="208.5,-106.5 208.5,-129.5 "/>
<text text-anchor="middle" x="227.5" y="-114.3" font-family="Times,serif" font-size="14.00">OP</text>
<polyline fill="none" stroke="black" points="246.5,-106.5 246.5,-129.5 "/>
<text text-anchor="middle" x="279" y="-114.3" font-family="Times,serif" font-size="14.00">size=3</text>
<polyline fill="none" stroke="black" points="173.5,-106.5 311.5,-106.5 "/>
<text text-anchor="middle" x="242.5" y="-91.3" font-family="Times,serif" font-size="14.00">/</text>
</g>
<!-- node12&#45;&gt;node14 -->
<g id="edge26" class="edge">
<title>node12&#45;&gt;node14</title>
<path fill="none" stroke="green" d="M236.41,-166.37C235.78,-158.15 235.6,-148.66 235.88,-139.73"/>
<polygon fill="green" stroke="green" points="239.38,-139.78 236.41,-129.61 232.39,-139.41 239.38,-139.78"/>
</g>
<!-- node13&#45;&gt;node12 -->
<g id="edge25" class="edge">
<title>node13&#45;&gt;node12</title>
<path fill="none" stroke="blue" d="M128.62,-129.61C149.66,-139.56 173.87,-151.39 194.57,-161.83"/>
<polygon fill="blue" stroke="blue" points="193,-164.96 203.5,-166.37 196.17,-158.72 193,-164.96"/>
</g>
<!-- node14&#45;&gt;node12 -->
<g id="edge27" class="edge">
<title>node14&#45;&gt;node12</title>
<path fill="none" stroke="blue" d="M248.59,-129.61C249.22,-137.82 249.4,-147.31 249.12,-156.25"/>
<polygon fill="blue" stroke="blue" points="245.62,-156.2 248.59,-166.37 252.61,-156.56 245.62,-156.2"/>
</g>
<!-- node15 -->
<g id="node15" class="node">
<title>node15</title>
<path fill="pink" stroke="black" d="M91,-0.5C91,-0.5 222,-0.5 222,-0.5 228,-0.5 234,-6.5 234,-12.5 234,-12.5 234,-34.5 234,-34.5 234,-40.5 228,-46.5 222,-46.5 222,-46.5 91,-46.5 91,-46.5 85,-46.5 79,-40.5 79,-34.5 79,-34.5 79,-12.5 79,-12.5 79,-6.5 85,-0.5 91,-0.5"/>
<text text-anchor="middle" x="96.5" y="-31.3" font-family="Times,serif" font-size="14.00">15</text>
<polyline fill="none" stroke="black" points="114,-23.5 114,-46.5 "/>
<text text-anchor="middle" x="141.5" y="-31.3" font-family="Times,serif" font-size="14.00">NUM</text>
<polyline fill="none" stroke="black" points="169,-23.5 169,-46.5 "/>
<text text-anchor="middle" x="201.5" y="-31.3" font-family="Times,serif" font-size="14.00">size=1</text>
<polyline fill="none" stroke="black" points="79,-23.5 234,-23.5 "/>
<text text-anchor="middle" x="156.5" y="-8.3" font-family="Times,serif" font-size="14.00">0,1</text>
</g>
<!-- node14&#45;&gt;node15 -->
<g id="edge28" class="edge">
<title>node14&#45;&gt;node15</title>
<path fill="none" stroke="red" d="M212.91,-83.37C202.54,-74.26 191.06,-63.58 181.13,-53.83"/>
<polygon fill="red" stroke="red" points="183.43,-51.19 173.88,-46.61 178.49,-56.15 183.43,-51.19"/>
</g>
<!-- node16 -->
<g id="node16" class="node">
<title>node16</title>
<path fill="pink" stroke="black" d="M264,-0.5C264,-0.5 395,-0.5 395,-0.5 401,-0.5 407,-6.5 407,-12.5 407,-12.5 407,-34.5 407,-34.5 407,-40.5 401,-46.5 395,-46.5 395,-46.5 264,-46.5 264,-46.5 258,-46.5 252,-40.5 252,-34.5 252,-34.5 252,-12.5 252,-12.5 252,-6.5 258,-0.5 264,-0.5"/>
<text text-anchor="middle" x="269.5" y="-31.3" font-family="Times,serif" font-size="14.00">16</text>
<polyline fill="none" stroke="black" points="287,-23.5 287,-46.5 "/>
<text text-anchor="middle" x="314.5" y="-31.3" font-family="Times,serif" font-size="14.00">NUM</text>
<polyline fill="none" stroke="black" points="342,-23.5 342,-46.5 "/>
<text text-anchor="middle" x="374.5" y="-31.3" font-family="Times,serif" font-size="14.00">size=1</text>
<polyline fill="none" stroke="black" points="252,-23.5 407,-23.5 "/>
<text text-anchor="middle" x="329.5" y="-8.3" font-family="Times,serif" font-size="14.00">2</text>
</g>
<!-- node14&#45;&gt;node16 -->
<g id="edge30" class="edge">
<title>node14&#45;&gt;node16</title>
<path fill="none" stroke="green" d="M260.18,-83.37C269.44,-74.08 281.04,-63.16 292.12,-53.26"/>
<polygon fill="green" stroke="green" points="294.48,-55.84 299.67,-46.61 289.85,-50.59 294.48,-55.84"/>
</g>
<!-- node15&#45;&gt;node14 -->
<g id="edge29" class="edge">
<title>node15&#45;&gt;node14</title>
<path fill="none" stroke="blue" d="M186.06,-46.61C196.43,-55.71 207.91,-66.39 217.84,-76.14"/>
<polygon fill="blue" stroke="blue" points="215.54,-78.78 225.09,-83.37 220.48,-73.83 215.54,-78.78"/>
</g>
<!-- node16&#45;&gt;node14 -->
<g id="edge31" class="edge">
<title>node16&#45;&gt;node14</title>
<path fill="none" stroke="blue" d="M311.84,-46.61C302.59,-55.89 291,-66.81 279.92,-76.71"/>
<polygon fill="blue" stroke="blue" points="277.55,-74.13 272.36,-83.37 282.18,-79.38 277.55,-74.13"/>
</g>
<!-- node17&#45;&gt;node9 -->
<g id="edge33" class="edge">
<title>node17&#45;&gt;node9</title>
<path fill="none" stroke="blue" d="M411.95,-295.61C411.98,-303.82 411.45,-313.31 410.51,-322.25"/>
<polygon fill="blue" stroke="blue" points="407.02,-322.01 409.23,-332.37 413.96,-322.89 407.02,-322.01"/>
</g>
<!-- node18&#45;&gt;node8 -->
<g id="edge35" class="edge">
<title>node18&#45;&gt;node8</title>
<path fill="none" stroke="blue" d="M531.92,-378.61C511.49,-388.65 486.34,-400.61 463.57,-411.11"/>
<polygon fill="blue" stroke="blue" points="461.94,-408.01 454.32,-415.37 464.87,-414.37 461.94,-408.01"/>
</g>
<!-- node19 -->
<g id="node19" class="node">
<title>node19</title>
<path fill="peachpuff" stroke="black" d="M515.5,-249.5C515.5,-249.5 629.5,-249.5 629.5,-249.5 635.5,-249.5 641.5,-255.5 641.5,-261.5 641.5,-261.5 641.5,-283.5 641.5,-283.5 641.5,-289.5 635.5,-295.5 629.5,-295.5 629.5,-295.5 515.5,-295.5 515.5,-295.5 509.5,-295.5 503.5,-289.5 503.5,-283.5 503.5,-283.5 503.5,-261.5 503.5,-261.5 503.5,-255.5 509.5,-249.5 515.5,-249.5"/>
<text text-anchor="middle" x="521" y="-280.3" font-family="Times,serif" font-size="14.00">19</text>
<polyline fill="none" stroke="black" points="538.5,-272.5 538.5,-295.5 "/>
<text text-anchor="middle" x="557.5" y="-280.3" font-family="Times,serif" font-size="14.00">OP</text>
<polyline fill="none" stroke="black" points="576.5,-272.5 576.5,-295.5 "/>
<text text-anchor="middle" x="609" y="-280.3" font-family="Times,serif" font-size="14.00">size=5</text>
<polyline fill="none" stroke="black" points="503.5,-272.5 641.5,-272.5 "/>
<text text-anchor="middle" x="572.5" y="-257.3" font-family="Times,serif" font-size="14.00">/</text>
</g>
<!-- node18&#45;&gt;node19 -->
<g id="edge36" class="edge">
<title>node18&#45;&gt;node19</title>
<path fill="none" stroke="red" d="M566.41,-332.37C565.78,-324.15 565.6,-314.66 565.88,-305.73"/>
<polygon fill="red" stroke="red" points="569.38,-305.78 566.41,-295.61 562.39,-305.41 569.38,-305.78"/>
</g>
<!-- node24 -->
<g id="node24" class="node">
<title>node24</title>
<path fill="peachpuff" stroke="black" d="M688.5,-249.5C688.5,-249.5 802.5,-249.5 802.5,-249.5 808.5,-249.5 814.5,-255.5 814.5,-261.5 814.5,-261.5 814.5,-283.5 814.5,-283.5 814.5,-289.5 808.5,-295.5 802.5,-295.5 802.5,-295.5 688.5,-295.5 688.5,-295.5 682.5,-295.5 676.5,-289.5 676.5,-283.5 676.5,-283.5 676.5,-261.5 676.5,-261.5 676.5,-255.5 682.5,-249.5 688.5,-249.5"/>
<text text-anchor="middle" x="694" y="-280.3" font-family="Times,serif" font-size="14.00">24</text>
<polyline fill="none" stroke="black" points="711.5,-272.5 711.5,-295.5 "/>
<text text-anchor="middle" x="730.5" y="-280.3" font-family="Times,serif" font-size="14.00">OP</text>
<polyline fill="none" stroke="black" points="749.5,-272.5 749.5,-295.5 "/>
<text text-anchor="middle" x="782" y="-280.3" font-family="Times,serif" font-size="14.00">size=5</text>
<polyline fill="none" stroke="black" points="676.5,-272.5 814.5,-272.5 "/>
<text text-anchor="middle" x="745.5" y="-257.3" font-family="Times,serif" font-size="14.00">^</text>
</g>
<!-- node18&#45;&gt;node24 -->
<g id="edge46" class="edge">
<title>node18&#45;&gt;node24</title>
<path fill="none" stroke="green" d="M613.68,-332.37C634.36,-322.32 659.81,-310.36 682.84,-299.86"/>
<polygon fill="green" stroke="green" points="684.54,-302.93 692.2,-295.61 681.64,-296.56 684.54,-302.93"/>
</g>
<!-- node19&#45;&gt;node18 -->
<g id="edge37" class="edge">
<title>node19&#45;&gt;node18</title>
<path fill="none" stroke="blue" d="M578.59,-295.61C579.22,-303.82 579.4,-313.31 579.12,-322.25"/>
<polygon fill="blue" stroke="blue" points="575.62,-322.2 578.59,-332.37 582.61,-322.56 575.62,-322.2"/>
</g>
<!-- node20 -->
<g id="node20" class="node">
<title>node20</title>
<path fill="peachpuff" stroke="black" d="M350.5,-166.5C350.5,-166.5 464.5,-166.5 464.5,-166.5 470.5,-166.5 476.5,-172.5 476.5,-178.5 476.5,-178.5 476.5,-200.5 476.5,-200.5 476.5,-206.5 470.5,-212.5 464.5,-212.5 464.5,-212.5 350.5,-212.5 350.5,-212.5 344.5,-212.5 338.5,-206.5 338.5,-200.5 338.5,-200.5 338.5,-178.5 338.5,-178.5 338.5,-172.5 344.5,-166.5 350.5,-166.5"/>
<text text-anchor="middle" x="356" y="-197.3" font-family="Times,serif" font-size="14.00">20</text>
<polyline fill="none" stroke="black" points="373.5,-189.5 373.5,-212.5 "/>
<text text-anchor="middle" x="392.5" y="-197.3" font-family="Times,serif" font-size="14.00">OP</text>
<polyline fill="none" stroke="black" points="411.5,-189.5 411.5,-212.5 "/>
<text text-anchor="middle" x="444" y="-197.3" font-family="Times,serif" font-size="14.00">size=3</text>
<polyline fill="none" stroke="black" points="338.5,-189.5 476.5,-189.5 "/>
<text text-anchor="middle" x="407.5" y="-174.3" font-family="Times,serif" font-size="14.00">*</text>
</g>
<!-- node19&#45;&gt;node20 -->
<g id="edge38" class="edge">
<title>node19&#45;&gt;node20</title>
<path fill="none" stroke="red" d="M521.32,-249.37C500.28,-239.41 476.07,-227.58 455.38,-217.14"/>
<polygon fill="red" stroke="red" points="456.95,-214.01 446.44,-212.61 453.78,-220.25 456.95,-214.01"/>
</g>
<!-- node23 -->
<g id="node23" class="node">
<title>node23</title>
<path fill="pink" stroke="black" d="M507,-166.5C507,-166.5 638,-166.5 638,-166.5 644,-166.5 650,-172.5 650,-178.5 650,-178.5 650,-200.5 650,-200.5 650,-206.5 644,-212.5 638,-212.5 638,-212.5 507,-212.5 507,-212.5 501,-212.5 495,-206.5 495,-200.5 495,-200.5 495,-178.5 495,-178.5 495,-172.5 501,-166.5 507,-166.5"/>
<text text-anchor="middle" x="512.5" y="-197.3" font-family="Times,serif" font-size="14.00">23</text>
<polyline fill="none" stroke="black" points="530,-189.5 530,-212.5 "/>
<text text-anchor="middle" x="557.5" y="-197.3" font-family="Times,serif" font-size="14.00">NUM</text>
<polyline fill="none" stroke="black" points="585,-189.5 585,-212.5 "/>
<text text-anchor="middle" x="617.5" y="-197.3" font-family="Times,serif" font-size="14.00">size=1</text>
<polyline fill="none" stroke="black" points="495,-189.5 650,-189.5 "/>
<text text-anchor="middle" x="572.5" y="-174.3" font-family="Times,serif" font-size="14.00">7</text>
</g>
<!-- node19&#45;&gt;node23 -->
<g id="edge44" class="edge">
<title>node19&#45;&gt;node23</title>
<path fill="none" stroke="green" d="M566.41,-249.37C565.78,-241.15 565.6,-231.66 565.88,-222.73"/>
<polygon fill="green" stroke="green" points="569.38,-222.78 566.41,-212.61 562.39,-222.41 569.38,-222.78"/>
</g>
<!-- node20&#45;&gt;node19 -->
<g id="edge39" class="edge">
<title>node20&#45;&gt;node19</title>
<path fill="none" stroke="blue" d="M458.62,-212.61C479.66,-222.56 503.87,-234.39 524.57,-244.83"/>
<polygon fill="blue" stroke="blue" points="523,-247.96 533.5,-249.37 526.17,-241.72 523,-247.96"/>
</g>
<!-- node21 -->
<g id="node21" class="node">
<title>node21</title>
<path fill="pink" stroke="black" d="M342,-83.5C342,-83.5 473,-83.5 473,-83.5 479,-83.5 485,-89.5 485,-95.5 485,-95.5 485,-117.5 485,-117.5 485,-123.5 479,-129.5 473,-129.5 473,-129.5 342,-129.5 342,-129.5 336,-129.5 330,-123.5 330,-117.5 330,-117.5 330,-95.5 330,-95.5 330,-89.5 336,-83.5 342,-83.5"/>
<text text-anchor="middle" x="347.5" y="-114.3" font-family="Times,serif" font-size="14.00">21</text>
<polyline fill="none" stroke="black" points="365,-106.5 365,-129.5 "/>
<text text-anchor="middle" x="392.5" y="-114.3" font-family="Times,serif" font-size="14.00">NUM</text>
<polyline fill="none" stroke="black" points="420,-106.5 420,-129.5 "/>
<text text-anchor="middle" x="452.5" y="-114.3" font-family="Times,serif" font-size="14.00">size=1</text>
<polyline fill="none" stroke="black" points="330,-106.5 485,-106.5 "/>
<text text-anchor="middle" x="407.5" y="-91.3" font-family="Times,serif" font-size="14.00">2</text>
</g>
<!-- node20&#45;&gt;node21 -->
<g id="edge40" class="edge">
<title>node20&#45;&gt;node21</title>
<path fill="none" stroke="red" d="M401.41,-166.37C400.78,-158.15 400.6,-148.66 400.88,-139.73"/>
<polygon fill="red" stroke="red" points="404.38,-139.78 401.41,-129.61 397.39,-139.41 404.38,-139.78"/>
</g>
<!-- node22 -->
<g id="node22" class="node">
<title>node22</title>
<path fill="pink" stroke="black" d="M515,-83.5C515,-83.5 646,-83.5 646,-83.5 652,-83.5 658,-89.5 658,-95.5 658,-95.5 658,-117.5 658,-117.5 658,-123.5 652,-129.5 646,-129.5 646,-129.5 515,-129.5 515,-129.5 509,-129.5 503,-123.5 503,-117.5 503,-117.5 503,-95.5 503,-95.5 503,-89.5 509,-83.5 515,-83.5"/>
<text text-anchor="middle" x="520.5" y="-114.3" font-family="Times,serif" font-size="14.00">22</text>
<polyline fill="none" stroke="black" points="538,-106.5 538,-129.5 "/>
<text text-anchor="middle" x="565.5" y="-114.3" font-family="Times,serif" font-size="14.00">NUM</text>
<polyline fill="none" stroke="black" points="593,-106.5 593,-129.5 "/>
<text text-anchor="middle" x="625.5" y="-114.3" font-family="Times,serif" font-size="14.00">size=1</text>
<polyline fill="none" stroke="black" points="503,-106.5 658,-106.5 "/>
<text text-anchor="middle" x="580.5" y="-91.3" font-family="Times,serif" font-size="14.00">16</text>
</g>
<!-- node20&#45;&gt;node22 -->
<g id="edge42" class="edge">
<title>node20&#45;&gt;node22</title>
<path fill="none" stroke="green" d="M448.68,-166.37C469.36,-156.32 494.81,-144.36 517.84,-133.86"/>
<polygon fill="green" stroke="green" points="519.54,-136.93 527.2,-129.61 516.64,-130.56 519.54,-136.93"/>
</g>
<!-- node21&#45;&gt;node20 -->
<g id="edge41" class="edge">
<title>node21&#45;&gt;node20</title>
<path fill="none" stroke="blue" d="M413.59,-129.61C414.22,-137.82 414.4,-147.31 414.12,-156.25"/>
<polygon fill="blue" stroke="blue" points="410.62,-156.2 413.59,-166.37 417.61,-156.56 410.62,-156.2"/>
</g>
<!-- node22&#45;&gt;node20 -->
<g id="edge43" class="edge">
<title>node22&#45;&gt;node20</title>
<path fill="none" stroke="blue" d="M539.37,-129.61C518.7,-139.65 493.26,-151.61 470.23,-162.11"/>
<polygon fill="blue" stroke="blue" points="468.52,-159.04 460.86,-166.37 471.42,-165.42 468.52,-159.04"/>
</g>
<!-- node23&#45;&gt;node19 -->
<g id="edge45" class="edge">
<title>node23&#45;&gt;node19</title>
<path fill="none" stroke="blue" d="M578.59,-212.61C579.22,-220.82 579.4,-230.31 579.12,-239.25"/>
<polygon fill="blue" stroke="blue" points="575.62,-239.2 578.59,-249.37 582.61,-239.56 575.62,-239.2"/>
</g>
<!-- node24&#45;&gt;node18 -->
<g id="edge47" class="edge">
<title>node24&#45;&gt;node18</title>
<path fill="none" stroke="blue" d="M704.37,-295.61C683.7,-305.65 658.26,-317.61 635.23,-328.11"/>
<polygon fill="blue" stroke="blue" points="633.52,-325.04 625.86,-332.37 636.42,-331.42 633.52,-325.04"/>
</g>
<!-- node25 -->
<g id="node25" class="node">
<title>node25</title>
<path fill="pink" stroke="black" d="M680,-166.5C680,-166.5 811,-166.5 811,-166.5 817,-166.5 823,-172.5 823,-178.5 823,-178.5 823,-200.5 823,-200.5 823,-206.5 817,-212.5 811,-212.5 811,-212.5 680,-212.5 680,-212.5 674,-212.5 668,-206.5 668,-200.5 668,-200.5 668,-178.5 668,-178.5 668,-172.5 674,-166.5 680,-166.5"/>
<text text-anchor="middle" x="685.5" y="-197.3" font-family="Times,serif" font-size="14.00">25</text>
<polyline fill="none" stroke="black" points="703,-189.5 703,-212.5 "/>
<text text-anchor="middle" x="730.5" y="-197.3" font-family="Times,serif" font-size="14.00">NUM</text>
<polyline fill="none" stroke="black" points="758,-189.5 758,-212.5 "/>
<text text-anchor="middle" x="790.5" y="-197.3" font-family="Times,serif" font-size="14.00">size=1</text>
<polyline fill="none" stroke="black" points="668,-189.5 823,-189.5 "/>
<text text-anchor="middle" x="745.5" y="-174.3" font-family="Times,serif" font-size="14.00">4</text>
</g>
<!-- node24&#45;&gt;node25 -->
<g id="edge48" class="edge">
<title>node24&#45;&gt;node25</title>
<path fill="none" stroke="red" d="M739.41,-249.37C738.78,-241.15 738.6,-231.66 738.88,-222.73"/>
<polygon fill="red" stroke="red" points="742.38,-222.78 739.41,-212.61 735.39,-222.41 742.38,-222.78"/>
</g>
<!-- node26 -->
<g id="node26" class="node">
<title>node26</title>
<path fill="peachpuff" stroke="black" d="M853.5,-166.5C853.5,-166.5 967.5,-166.5 967.5,-166.5 973.5,-166.5 979.5,-172.5 979.5,-178.5 979.5,-178.5 979.5,-200.5 979.5,-200.5 979.5,-206.5 973.5,-212.5 967.5,-212.5 967.5,-212.5 853.5,-212.5 853.5,-212.5 847.5,-212.5 841.5,-206.5 841.5,-200.5 841.5,-200.5 841.5,-178.5 841.5,-178.5 841.5,-172.5 847.5,-166.5 853.5,-166.5"/>
<text text-anchor="middle" x="859" y="-197.3" font-family="Times,serif" font-size="14.00">26</text>
<polyline fill="none" stroke="black" points="876.5,-189.5 876.5,-212.5 "/>
<text text-anchor="middle" x="895.5" y="-197.3" font-family="Times,serif" font-size="14.00">OP</text>
<polyline fill="none" stroke="black" points="914.5,-189.5 914.5,-212.5 "/>
<text text-anchor="middle" x="947" y="-197.3" font-family="Times,serif" font-size="14.00">size=3</text>
<polyline fill="none" stroke="black" points="841.5,-189.5 979.5,-189.5 "/>
<text text-anchor="middle" x="910.5" y="-174.3" font-family="Times,serif" font-size="14.00">^</text>
</g>
<!-- node24&#45;&gt;node26 -->
<g id="edge50" class="edge">
<title>node24&#45;&gt;node26</title>
<path fill="none" stroke="green" d="M784.5,-249.37C804.1,-239.37 828.24,-227.47 850.14,-217"/>
<polygon fill="green" stroke="green" points="851.85,-220.06 859.38,-212.61 848.84,-213.74 851.85,-220.06"/>
</g>
<!-- node25&#45;&gt;node24 -->
<g id="edge49" class="edge">
<title>node25&#45;&gt;node24</title>
<path fill="none" stroke="blue" d="M751.59,-212.61C752.22,-220.82 752.4,-230.31 752.12,-239.25"/>
<polygon fill="blue" stroke="blue" points="748.62,-239.2 751.59,-249.37 755.61,-239.56 748.62,-239.2"/>
</g>
<!-- node26&#45;&gt;node24 -->
<g id="edge51" class="edge">
<title>node26&#45;&gt;node24</title>
<path fill="none" stroke="blue" d="M871.56,-212.61C851.96,-222.6 827.83,-234.5 805.91,-244.97"/>
<polygon fill="blue" stroke="blue" points="804.21,-241.91 796.68,-249.37 807.21,-248.23 804.21,-241.91"/>
</g>
<!-- node27 -->
<g id="node27" class="node">
<title>node27</title>
<path fill="pink" stroke="black" d="M766,-83.5C766,-83.5 897,-83.5 897,-83.5 903,-83.5 909,-89.5 909,-95.5 909,-95.5 909,-117.5 909,-117.5 909,-123.5 903,-129.5 897,-129.5 897,-129.5 766,-129.5 766,-129.5 760,-129.5 754,-123.5 754,-117.5 754,-117.5 754,-95.5 754,-95.5 754,-89.5 760,-83.5 766,-83.5"/>
<text text-anchor="middle" x="771.5" y="-114.3" font-family="Times,serif" font-size="14.00">27</text>
<polyline fill="none" stroke="black" points="789,-106.5 789,-129.5 "/>
<text text-anchor="middle" x="816.5" y="-114.3" font-family="Times,serif" font-size="14.00">NUM</text>
<polyline fill="none" stroke="black" points="844,-106.5 844,-129.5 "/>
<text text-anchor="middle" x="876.5" y="-114.3" font-family="Times,serif" font-size="14.00">size=1</text>
<polyline fill="none" stroke="black" points="754,-106.5 909,-106.5 "/>
<text text-anchor="middle" x="831.5" y="-91.3" font-family="Times,serif" font-size="14.00">1</text>
</g>
<!-- node26&#45;&gt;node27 -->
<g id="edge52" class="edge">
<title>node26&#45;&gt;node27</title>
<path fill="none" stroke="red" d="M882.82,-166.37C873.33,-157.35 862.89,-146.79 853.86,-137.12"/>
<polygon fill="red" stroke="red" points="856.31,-134.61 846.97,-129.61 851.15,-139.34 856.31,-134.61"/>
</g>
<!-- node28 -->
<g id="node28" class="node">
<title>node28</title>
<path fill="pink" stroke="black" d="M939,-83.5C939,-83.5 1070,-83.5 1070,-83.5 1076,-83.5 1082,-89.5 1082,-95.5 1082,-95.5 1082,-117.5 1082,-117.5 1082,-123.5 1076,-129.5 1070,-129.5 1070,-129.5 939,-129.5 939,-129.5 933,-129.5 927,-123.5 927,-117.5 927,-117.5 927,-95.5 927,-95.5 927,-89.5 933,-83.5 939,-83.5"/>
<text text-anchor="middle" x="944.5" y="-114.3" font-family="Times,serif" font-size="14.00">28</text>
<polyline fill="none" stroke="black" points="962,-106.5 962,-129.5 "/>
<text text-anchor="middle" x="989.5" y="-114.3" font-family="Times,serif" font-size="14.00">NUM</text>
<polyline fill="none" stroke="black" points="1017,-106.5 1017,-129.5 "/>
<text text-anchor="middle" x="1049.5" y="-114.3" font-family="Times,serif" font-size="14.00">size=1</text>
<polyline fill="none" stroke="black" points="927,-106.5 1082,-106.5 "/>
<text text-anchor="middle" x="1004.5" y="-91.3" font-family="Times,serif" font-size="14.00">1,512</text>
</g>
<!-- node26&#45;&gt;node28 -->
<g id="edge54" class="edge">
<title>node26&#45;&gt;node28</title>
<path fill="none" stroke="green" d="M930.1,-166.37C940.25,-156.99 952.94,-145.95 964.97,-135.98"/>
<polygon fill="green" stroke="green" points="967.24,-138.65 972.76,-129.61 962.8,-133.23 967.24,-138.65"/>
</g>
<!-- node27&#45;&gt;node26 -->
<g id="edge53" class="edge">
<title>node27&#45;&gt;node26</title>
<path fill="none" stroke="blue" d="M859.15,-129.61C868.64,-138.62 879.08,-149.18 888.11,-158.85"/>
<polygon fill="blue" stroke="blue" points="885.67,-161.36 895,-166.37 890.83,-156.63 885.67,-161.36"/>
</g>
<!-- node28&#45;&gt;node26 -->
<g id="edge55" class="edge">
<title>node28&#45;&gt;node26</title>
<path fill="none" stroke="blue" d="M984.93,-129.61C974.78,-138.98 962.1,-150.02 950.06,-159.99"/>
<polygon fill="blue" stroke="blue" points="947.8,-157.32 942.28,-166.37 952.23,-162.74 947.8,-157.32"/>
</g>
<!-- node29&#45;&gt;node2 -->
<g id="edge57" class="edge">
<title>node29&#45;&gt;node2</title>
<path fill="none" stroke="blue" d="M465.75,-544.61C457.38,-553.8 446.86,-564.6 436.72,-574.42"/>
<polygon fill="blue" stroke="blue" points="434.27,-571.93 429.45,-581.37 439.1,-576.99 434.27,-571.93"/>
</g>
<!-- node30&#45;&gt;node1 -->
<g id="edge59" class="edge">
<title>node30&#45;&gt;node1</title>
<path fill="none" stroke="blue" d="M545.75,-627.61C537.38,-636.8 526.86,-647.6 516.72,-657.42"/>
<polygon fill="blue" stroke="blue" points="514.27,-654.93 509.45,-664.37 519.1,-659.99 514.27,-654.93"/>
</g>
</g>
</svg>
