<?xml version="1.0" encoding="UTF-8" standalone="no"?>
<!DOCTYPE svg PUBLIC "-//W3C//DTD SVG 1.1//EN"
 "http://www.w3.org/Graphics/SVG/1.1/DTD/svg11.dtd">
<!-- Generated by graphviz version 2.43.0 (0)
 -->
<!-- Title: %3 Pages: 1 -->
<svg width="1486pt" height="387pt"
 viewBox="0.00 0.00 1485.50 387.00" xmlns="http://www.w3.org/2000/svg" xmlns:xlink="http://www.w3.org/1999/xlink">
<g id="graph0" class="graph" transform="scale(1 1) rotate(0) translate(4 383)">
<title>%3</title>
<polygon fill="white" stroke="transparent" points="-4,4 -4,-383 1481.5,-383 1481.5,4 -4,4"/>
<!-- node1 -->
<g id="node1" class="node">
<title>node1</title>
<path fill="peachpuff" stroke="black" d="M1083,-332.5C1083,-332.5 1197,-332.5 1197,-332.5 1203,-332.5 1209,-338.5 1209,-344.5 1209,-344.5 1209,-366.5 1209,-366.5 1209,-372.5 1203,-378.5 1197,-378.5 1197,-378.5 1083,-378.5 1083,-378.5 1077,-378.5 1071,-372.5 1071,-366.5 1071,-366.5 1071,-344.5 1071,-344.5 1071,-338.5 1077,-332.5 1083,-332.5"/>
<text text-anchor="middle" x="1084" y="-363.3" font-family="Times,serif" font-size="14.00">1</text>
<polyline fill="none" stroke="black" points="1097,-355.5 1097,-378.5 "/>
<text text-anchor="middle" x="1116" y="-363.3" font-family="Times,serif" font-size="14.00">OP</text>
<polyline fill="none" stroke="black" points="1135,-355.5 1135,-378.5 "/>
<text text-anchor="middle" x="1172" y="-363.3" font-family="Times,serif" font-size="14.00">size=21</text>
<polyline fill="none" stroke="black" points="1071,-355.5 1209,-355.5 "/>
<text text-anchor="middle" x="1140" y="-340.3" font-family="Times,serif" font-size="14.00">/</text>
</g>
<!-- node1&#45;&gt;node1 -->
<g id="edge1" class="edge">
<title>node1&#45;&gt;node1</title>
<path fill="none" stroke="blue" d="M1209.27,-369.52C1219.83,-367.38 1227,-362.71 1227,-355.5 1227,-350.77 1223.91,-347.13 1218.81,-344.58"/>
<polygon fill="blue" stroke="blue" points="1219.87,-341.25 1209.27,-341.48 1217.7,-347.9 1219.87,-341.25"/>
</g>
<!-- node2 -->
<g id="node2" class="node">
<title>node2</title>
<path fill="peachpuff" stroke="black" d="M923,-249.5C923,-249.5 1037,-249.5 1037,-249.5 1043,-249.5 1049,-255.5 1049,-261.5 1049,-261.5 1049,-283.5 1049,-283.5 1049,-289.5 1043,-295.5 1037,-295.5 1037,-295.5 923,-295.5 923,-295.5 917,-295.5 911,-289.5 911,-283.5 911,-283.5 911,-261.5 911,-261.5 911,-255.5 917,-249.5 923,-249.5"/>
<text text-anchor="middle" x="924" y="-280.3" font-family="Times,serif" font-size="14.00">2</text>
<polyline fill="none" stroke="black" points="937,-272.5 937,-295.5 "/>
<text text-anchor="middle" x="956" y="-280.3" font-family="Times,serif" font-size="14.00">OP</text>
<polyline fill="none" stroke="black" points="975,-272.5 975,-295.5 "/>
<text text-anchor="middle" x="1012" y="-280.3" font-family="Times,serif" font-size="14.00">size=15</text>
<polyline fill="none" stroke="black" points="911,-272.5 1049,-272.5 "/>
<text text-anchor="middle" x="980" y="-257.3" font-family="Times,serif" font-size="14.00">&#45;</text>
</g>
<!-- node1&#45;&gt;node2 -->
<g id="edge2" class="edge">
<title>node1&#45;&gt;node2</title>
<path fill="none" stroke="red" d="M1090.19,-332.37C1069.85,-322.46 1046.49,-310.68 1026.5,-300.28"/>
<polygon fill="red" stroke="red" points="1028.06,-297.14 1017.58,-295.61 1024.82,-303.35 1028.06,-297.14"/>
</g>
<!-- node17 -->
<g id="node17" class="node">
<title>node17</title>
<path fill="peachpuff" stroke="black" d="M1170,-249.5C1170,-249.5 1284,-249.5 1284,-249.5 1290,-249.5 1296,-255.5 1296,-261.5 1296,-261.5 1296,-283.5 1296,-283.5 1296,-289.5 1290,-295.5 1284,-295.5 1284,-295.5 1170,-295.5 1170,-295.5 1164,-295.5 1158,-289.5 1158,-283.5 1158,-283.5 1158,-261.5 1158,-261.5 1158,-255.5 1164,-249.5 1170,-249.5"/>
<text text-anchor="middle" x="1175.5" y="-280.3" font-family="Times,serif" font-size="14.00">17</text>
<polyline fill="none" stroke="black" points="1193,-272.5 1193,-295.5 "/>
<text text-anchor="middle" x="1212" y="-280.3" font-family="Times,serif" font-size="14.00">OP</text>
<polyline fill="none" stroke="black" points="1231,-272.5 1231,-295.5 "/>
<text text-anchor="middle" x="1263.5" y="-280.3" font-family="Times,serif" font-size="14.00">size=5</text>
<polyline fill="none" stroke="black" points="1158,-272.5 1296,-272.5 "/>
<text text-anchor="middle" x="1227" y="-257.3" font-family="Times,serif" font-size="14.00">^</text>
</g>
<!-- node1&#45;&gt;node17 -->
<g id="edge32" class="edge">
<title>node1&#45;&gt;node17</title>
<path fill="none" stroke="green" d="M1157.68,-332.37C1166.94,-323.08 1178.54,-312.16 1189.62,-302.26"/>
<polygon fill="green" stroke="green" points="1191.98,-304.84 1197.17,-295.61 1187.35,-299.59 1191.98,-304.84"/>
</g>
<!-- node2&#45;&gt;node1 -->
<g id="edge3" class="edge">
<title>node2&#45;&gt;node1</title>
<path fill="none" stroke="blue" d="M1029.76,-295.61C1050.09,-305.51 1073.45,-317.29 1093.44,-327.69"/>
<polygon fill="blue" stroke="blue" points="1091.89,-330.83 1102.37,-332.37 1095.13,-324.63 1091.89,-330.83"/>
</g>
<!-- node3 -->
<g id="node3" class="node">
<title>node3</title>
<path fill="peachpuff" stroke="black" d="M430.5,-166.5C430.5,-166.5 535.5,-166.5 535.5,-166.5 541.5,-166.5 547.5,-172.5 547.5,-178.5 547.5,-178.5 547.5,-200.5 547.5,-200.5 547.5,-206.5 541.5,-212.5 535.5,-212.5 535.5,-212.5 430.5,-212.5 430.5,-212.5 424.5,-212.5 418.5,-206.5 418.5,-200.5 418.5,-200.5 418.5,-178.5 418.5,-178.5 418.5,-172.5 424.5,-166.5 430.5,-166.5"/>
<text text-anchor="middle" x="431.5" y="-197.3" font-family="Times,serif" font-size="14.00">3</text>
<polyline fill="none" stroke="black" points="444.5,-189.5 444.5,-212.5 "/>
<text text-anchor="middle" x="463.5" y="-197.3" font-family="Times,serif" font-size="14.00">OP</text>
<polyline fill="none" stroke="black" points="482.5,-189.5 482.5,-212.5 "/>
<text text-anchor="middle" x="515" y="-197.3" font-family="Times,serif" font-size="14.00">size=7</text>
<polyline fill="none" stroke="black" points="418.5,-189.5 547.5,-189.5 "/>
<text text-anchor="middle" x="483" y="-174.3" font-family="Times,serif" font-size="14.00">*</text>
</g>
<!-- node2&#45;&gt;node3 -->
<g id="edge4" class="edge">
<title>node2&#45;&gt;node3</title>
<path fill="none" stroke="red" d="M910.82,-260.99C817.81,-246.25 653.27,-219.46 557.58,-203.49"/>
<polygon fill="red" stroke="red" points="558.13,-200.03 547.69,-201.83 556.98,-206.94 558.13,-200.03"/>
</g>
<!-- node10 -->
<g id="node10" class="node">
<title>node10</title>
<path fill="peachpuff" stroke="black" d="M923,-166.5C923,-166.5 1037,-166.5 1037,-166.5 1043,-166.5 1049,-172.5 1049,-178.5 1049,-178.5 1049,-200.5 1049,-200.5 1049,-206.5 1043,-212.5 1037,-212.5 1037,-212.5 923,-212.5 923,-212.5 917,-212.5 911,-206.5 911,-200.5 911,-200.5 911,-178.5 911,-178.5 911,-172.5 917,-166.5 923,-166.5"/>
<text text-anchor="middle" x="928.5" y="-197.3" font-family="Times,serif" font-size="14.00">10</text>
<polyline fill="none" stroke="black" points="946,-189.5 946,-212.5 "/>
<text text-anchor="middle" x="965" y="-197.3" font-family="Times,serif" font-size="14.00">OP</text>
<polyline fill="none" stroke="black" points="984,-189.5 984,-212.5 "/>
<text text-anchor="middle" x="1016.5" y="-197.3" font-family="Times,serif" font-size="14.00">size=7</text>
<polyline fill="none" stroke="black" points="911,-189.5 1049,-189.5 "/>
<text text-anchor="middle" x="980" y="-174.3" font-family="Times,serif" font-size="14.00">*</text>
</g>
<!-- node2&#45;&gt;node10 -->
<g id="edge18" class="edge">
<title>node2&#45;&gt;node10</title>
<path fill="none" stroke="green" d="M973.91,-249.37C973.28,-241.15 973.1,-231.66 973.38,-222.73"/>
<polygon fill="green" stroke="green" points="976.88,-222.78 973.91,-212.61 969.89,-222.41 976.88,-222.78"/>
</g>
<!-- node3&#45;&gt;node2 -->
<g id="edge5" class="edge">
<title>node3&#45;&gt;node2</title>
<path fill="none" stroke="blue" d="M547.72,-200.3C638.37,-214.64 802.82,-241.41 900.7,-257.73"/>
<polygon fill="blue" stroke="blue" points="900.4,-261.22 910.84,-259.42 901.55,-254.32 900.4,-261.22"/>
</g>
<!-- node4 -->
<g id="node4" class="node">
<title>node4</title>
<path fill="peachpuff" stroke="black" d="M184.5,-83.5C184.5,-83.5 289.5,-83.5 289.5,-83.5 295.5,-83.5 301.5,-89.5 301.5,-95.5 301.5,-95.5 301.5,-117.5 301.5,-117.5 301.5,-123.5 295.5,-129.5 289.5,-129.5 289.5,-129.5 184.5,-129.5 184.5,-129.5 178.5,-129.5 172.5,-123.5 172.5,-117.5 172.5,-117.5 172.5,-95.5 172.5,-95.5 172.5,-89.5 178.5,-83.5 184.5,-83.5"/>
<text text-anchor="middle" x="185.5" y="-114.3" font-family="Times,serif" font-size="14.00">4</text>
<polyline fill="none" stroke="black" points="198.5,-106.5 198.5,-129.5 "/>
<text text-anchor="middle" x="217.5" y="-114.3" font-family="Times,serif" font-size="14.00">OP</text>
<polyline fill="none" stroke="black" points="236.5,-106.5 236.5,-129.5 "/>
<text text-anchor="middle" x="269" y="-114.3" font-family="Times,serif" font-size="14.00">size=3</text>
<polyline fill="none" stroke="black" points="172.5,-106.5 301.5,-106.5 "/>
<text text-anchor="middle" x="237" y="-91.3" font-family="Times,serif" font-size="14.00">+</text>
</g>
<!-- node3&#45;&gt;node4 -->
<g id="edge6" class="edge">
<title>node3&#45;&gt;node4</title>
<path fill="none" stroke="red" d="M418.22,-169.1C384.21,-158.23 342.52,-144.55 307.68,-132.85"/>
<polygon fill="red" stroke="red" points="308.64,-129.48 298.04,-129.6 306.4,-136.11 308.64,-129.48"/>
</g>
<!-- node7 -->
<g id="node7" class="node">
<title>node7</title>
<path fill="peachpuff" stroke="black" d="M430.5,-83.5C430.5,-83.5 535.5,-83.5 535.5,-83.5 541.5,-83.5 547.5,-89.5 547.5,-95.5 547.5,-95.5 547.5,-117.5 547.5,-117.5 547.5,-123.5 541.5,-129.5 535.5,-129.5 535.5,-129.5 430.5,-129.5 430.5,-129.5 424.5,-129.5 418.5,-123.5 418.5,-117.5 418.5,-117.5 418.5,-95.5 418.5,-95.5 418.5,-89.5 424.5,-83.5 430.5,-83.5"/>
<text text-anchor="middle" x="431.5" y="-114.3" font-family="Times,serif" font-size="14.00">7</text>
<polyline fill="none" stroke="black" points="444.5,-106.5 444.5,-129.5 "/>
<text text-anchor="middle" x="463.5" y="-114.3" font-family="Times,serif" font-size="14.00">OP</text>
<polyline fill="none" stroke="black" points="482.5,-106.5 482.5,-129.5 "/>
<text text-anchor="middle" x="515" y="-114.3" font-family="Times,serif" font-size="14.00">size=3</text>
<polyline fill="none" stroke="black" points="418.5,-106.5 547.5,-106.5 "/>
<text text-anchor="middle" x="483" y="-91.3" font-family="Times,serif" font-size="14.00">&#45;</text>
</g>
<!-- node3&#45;&gt;node7 -->
<g id="edge12" class="edge">
<title>node3&#45;&gt;node7</title>
<path fill="none" stroke="green" d="M476.91,-166.37C476.28,-158.15 476.1,-148.66 476.38,-139.73"/>
<polygon fill="green" stroke="green" points="479.88,-139.78 476.91,-129.61 472.89,-139.41 479.88,-139.78"/>
</g>
<!-- node4&#45;&gt;node3 -->
<g id="edge7" class="edge">
<title>node4&#45;&gt;node3</title>
<path fill="none" stroke="blue" d="M301.78,-126.9C335.86,-137.79 377.66,-151.5 412.54,-163.22"/>
<polygon fill="blue" stroke="blue" points="411.59,-166.6 422.19,-166.47 413.83,-159.96 411.59,-166.6"/>
</g>
<!-- node5 -->
<g id="node5" class="node">
<title>node5</title>
<path fill="pink" stroke="black" d="M12,-0.5C12,-0.5 134,-0.5 134,-0.5 140,-0.5 146,-6.5 146,-12.5 146,-12.5 146,-34.5 146,-34.5 146,-40.5 140,-46.5 134,-46.5 134,-46.5 12,-46.5 12,-46.5 6,-46.5 0,-40.5 0,-34.5 0,-34.5 0,-12.5 0,-12.5 0,-6.5 6,-0.5 12,-0.5"/>
<text text-anchor="middle" x="13" y="-31.3" font-family="Times,serif" font-size="14.00">5</text>
<polyline fill="none" stroke="black" points="26,-23.5 26,-46.5 "/>
<text text-anchor="middle" x="53.5" y="-31.3" font-family="Times,serif" font-size="14.00">NUM</text>
<polyline fill="none" stroke="black" points="81,-23.5 81,-46.5 "/>
<text text-anchor="middle" x="113.5" y="-31.3" font-family="Times,serif" font-size="14.00">size=1</text>
<polyline fill="none" stroke="black" points="0,-23.5 146,-23.5 "/>
<text text-anchor="middle" x="73" y="-8.3" font-family="Times,serif" font-size="14.00">1</text>
</g>
<!-- node4&#45;&gt;node5 -->
<g id="edge8" class="edge">
<title>node4&#45;&gt;node5</title>
<path fill="none" stroke="red" d="M186.1,-83.37C165.27,-73.46 141.33,-61.68 120.83,-51.28"/>
<polygon fill="red" stroke="red" points="122.17,-48.03 111.67,-46.61 118.99,-54.27 122.17,-48.03"/>
</g>
<!-- node6 -->
<g id="node6" class="node">
<title>node6</title>
<path fill="pink" stroke="black" d="M176,-0.5C176,-0.5 298,-0.5 298,-0.5 304,-0.5 310,-6.5 310,-12.5 310,-12.5 310,-34.5 310,-34.5 310,-40.5 304,-46.5 298,-46.5 298,-46.5 176,-46.5 176,-46.5 170,-46.5 164,-40.5 164,-34.5 164,-34.5 164,-12.5 164,-12.5 164,-6.5 170,-0.5 176,-0.5"/>
<text text-anchor="middle" x="177" y="-31.3" font-family="Times,serif" font-size="14.00">6</text>
<polyline fill="none" stroke="black" points="190,-23.5 190,-46.5 "/>
<text text-anchor="middle" x="217.5" y="-31.3" font-family="Times,serif" font-size="14.00">NUM</text>
<polyline fill="none" stroke="black" points="245,-23.5 245,-46.5 "/>
<text text-anchor="middle" x="277.5" y="-31.3" font-family="Times,serif" font-size="14.00">size=1</text>
<polyline fill="none" stroke="black" points="164,-23.5 310,-23.5 "/>
<text text-anchor="middle" x="237" y="-8.3" font-family="Times,serif" font-size="14.00">0</text>
</g>
<!-- node4&#45;&gt;node6 -->
<g id="edge10" class="edge">
<title>node4&#45;&gt;node6</title>
<path fill="none" stroke="green" d="M230.91,-83.37C230.28,-75.15 230.1,-65.66 230.38,-56.73"/>
<polygon fill="green" stroke="green" points="233.88,-56.78 230.91,-46.61 226.89,-56.41 233.88,-56.78"/>
</g>
<!-- node5&#45;&gt;node4 -->
<g id="edge9" class="edge">
<title>node5&#45;&gt;node4</title>
<path fill="none" stroke="blue" d="M123.85,-46.61C144.67,-56.51 168.61,-68.29 189.12,-78.69"/>
<polygon fill="blue" stroke="blue" points="187.78,-81.94 198.28,-83.37 190.96,-75.7 187.78,-81.94"/>
</g>
<!-- node6&#45;&gt;node4 -->
<g id="edge11" class="edge">
<title>node6&#45;&gt;node4</title>
<path fill="none" stroke="blue" d="M243.09,-46.61C243.72,-54.82 243.9,-64.31 243.62,-73.25"/>
<polygon fill="blue" stroke="blue" points="240.12,-73.2 243.09,-83.37 247.11,-73.56 240.12,-73.2"/>
</g>
<!-- node7&#45;&gt;node3 -->
<g id="edge13" class="edge">
<title>node7&#45;&gt;node3</title>
<path fill="none" stroke="blue" d="M489.09,-129.61C489.72,-137.82 489.9,-147.31 489.62,-156.25"/>
<polygon fill="blue" stroke="blue" points="486.12,-156.2 489.09,-166.37 493.11,-156.56 486.12,-156.2"/>
</g>
<!-- node8 -->
<g id="node8" class="node">
<title>node8</title>
<path fill="pink" stroke="black" d="M340,-0.5C340,-0.5 462,-0.5 462,-0.5 468,-0.5 474,-6.5 474,-12.5 474,-12.5 474,-34.5 474,-34.5 474,-40.5 468,-46.5 462,-46.5 462,-46.5 340,-46.5 340,-46.5 334,-46.5 328,-40.5 328,-34.5 328,-34.5 328,-12.5 328,-12.5 328,-6.5 334,-0.5 340,-0.5"/>
<text text-anchor="middle" x="341" y="-31.3" font-family="Times,serif" font-size="14.00">8</text>
<polyline fill="none" stroke="black" points="354,-23.5 354,-46.5 "/>
<text text-anchor="middle" x="381.5" y="-31.3" font-family="Times,serif" font-size="14.00">NUM</text>
<polyline fill="none" stroke="black" points="409,-23.5 409,-46.5 "/>
<text text-anchor="middle" x="441.5" y="-31.3" font-family="Times,serif" font-size="14.00">size=1</text>
<polyline fill="none" stroke="black" points="328,-23.5 474,-23.5 "/>
<text text-anchor="middle" x="401" y="-8.3" font-family="Times,serif" font-size="14.00">1000</text>
</g>
<!-- node7&#45;&gt;node8 -->
<g id="edge14" class="edge">
<title>node7&#45;&gt;node8</title>
<path fill="none" stroke="red" d="M454.5,-83.37C444.68,-74.35 433.84,-63.79 424.46,-54.12"/>
<polygon fill="red" stroke="red" points="426.73,-51.43 417.29,-46.61 421.66,-56.26 426.73,-51.43"/>
</g>
<!-- node9 -->
<g id="node9" class="node">
<title>node9</title>
<path fill="pink" stroke="black" d="M504,-0.5C504,-0.5 626,-0.5 626,-0.5 632,-0.5 638,-6.5 638,-12.5 638,-12.5 638,-34.5 638,-34.5 638,-40.5 632,-46.5 626,-46.5 626,-46.5 504,-46.5 504,-46.5 498,-46.5 492,-40.5 492,-34.5 492,-34.5 492,-12.5 492,-12.5 492,-6.5 498,-0.5 504,-0.5"/>
<text text-anchor="middle" x="505" y="-31.3" font-family="Times,serif" font-size="14.00">9</text>
<polyline fill="none" stroke="black" points="518,-23.5 518,-46.5 "/>
<text text-anchor="middle" x="545.5" y="-31.3" font-family="Times,serif" font-size="14.00">NUM</text>
<polyline fill="none" stroke="black" points="573,-23.5 573,-46.5 "/>
<text text-anchor="middle" x="605.5" y="-31.3" font-family="Times,serif" font-size="14.00">size=1</text>
<polyline fill="none" stroke="black" points="492,-23.5 638,-23.5 "/>
<text text-anchor="middle" x="565" y="-8.3" font-family="Times,serif" font-size="14.00">7</text>
</g>
<!-- node7&#45;&gt;node9 -->
<g id="edge16" class="edge">
<title>node7&#45;&gt;node9</title>
<path fill="none" stroke="green" d="M499.32,-83.37C507.92,-74.17 518.71,-63.37 529.09,-53.55"/>
<polygon fill="green" stroke="green" points="531.61,-55.99 536.53,-46.61 526.83,-50.87 531.61,-55.99"/>
</g>
<!-- node8&#45;&gt;node7 -->
<g id="edge15" class="edge">
<title>node8&#45;&gt;node7</title>
<path fill="none" stroke="blue" d="M429.47,-46.61C439.29,-55.62 450.13,-66.18 459.51,-75.85"/>
<polygon fill="blue" stroke="blue" points="457.25,-78.55 466.68,-83.37 462.31,-73.71 457.25,-78.55"/>
</g>
<!-- node9&#45;&gt;node7 -->
<g id="edge17" class="edge">
<title>node9&#45;&gt;node7</title>
<path fill="none" stroke="blue" d="M548.71,-46.61C540.11,-55.8 529.32,-66.6 518.94,-76.42"/>
<polygon fill="blue" stroke="blue" points="516.42,-73.99 511.5,-83.37 521.2,-79.1 516.42,-73.99"/>
</g>
<!-- node10&#45;&gt;node2 -->
<g id="edge19" class="edge">
<title>node10&#45;&gt;node2</title>
<path fill="none" stroke="blue" d="M986.09,-212.61C986.72,-220.82 986.9,-230.31 986.62,-239.25"/>
<polygon fill="blue" stroke="blue" points="983.12,-239.2 986.09,-249.37 990.11,-239.56 983.12,-239.2"/>
</g>
<!-- node11 -->
<g id="node11" class="node">
<title>node11</title>
<path fill="peachpuff" stroke="black" d="M841,-83.5C841,-83.5 955,-83.5 955,-83.5 961,-83.5 967,-89.5 967,-95.5 967,-95.5 967,-117.5 967,-117.5 967,-123.5 961,-129.5 955,-129.5 955,-129.5 841,-129.5 841,-129.5 835,-129.5 829,-123.5 829,-117.5 829,-117.5 829,-95.5 829,-95.5 829,-89.5 835,-83.5 841,-83.5"/>
<text text-anchor="middle" x="846.5" y="-114.3" font-family="Times,serif" font-size="14.00">11</text>
<polyline fill="none" stroke="black" points="864,-106.5 864,-129.5 "/>
<text text-anchor="middle" x="883" y="-114.3" font-family="Times,serif" font-size="14.00">OP</text>
<polyline fill="none" stroke="black" points="902,-106.5 902,-129.5 "/>
<text text-anchor="middle" x="934.5" y="-114.3" font-family="Times,serif" font-size="14.00">size=3</text>
<polyline fill="none" stroke="black" points="829,-106.5 967,-106.5 "/>
<text text-anchor="middle" x="898" y="-91.3" font-family="Times,serif" font-size="14.00">+</text>
</g>
<!-- node10&#45;&gt;node11 -->
<g id="edge20" class="edge">
<title>node10&#45;&gt;node11</title>
<path fill="none" stroke="red" d="M951.5,-166.37C941.68,-157.35 930.84,-146.79 921.46,-137.12"/>
<polygon fill="red" stroke="red" points="923.73,-134.43 914.29,-129.61 918.66,-139.26 923.73,-134.43"/>
</g>
<!-- node14 -->
<g id="node14" class="node">
<title>node14</title>
<path fill="peachpuff" stroke="black" d="M1005,-83.5C1005,-83.5 1119,-83.5 1119,-83.5 1125,-83.5 1131,-89.5 1131,-95.5 1131,-95.5 1131,-117.5 1131,-117.5 1131,-123.5 1125,-129.5 1119,-129.5 1119,-129.5 1005,-129.5 1005,-129.5 999,-129.5 993,-123.5 993,-117.5 993,-117.5 993,-95.5 993,-95.5 993,-89.5 999,-83.5 1005,-83.5"/>
<text text-anchor="middle" x="1010.5" y="-114.3" font-family="Times,serif" font-size="14.00">14</text>
<polyline fill="none" stroke="black" points="1028,-106.5 1028,-129.5 "/>
<text text-anchor="middle" x="1047" y="-114.3" font-family="Times,serif" font-size="14.00">OP</text>
<polyline fill="none" stroke="black" points="1066,-106.5 1066,-129.5 "/>
<text text-anchor="middle" x="1098.5" y="-114.3" font-family="Times,serif" font-size="14.00">size=3</text>
<polyline fill="none" stroke="black" points="993,-106.5 1131,-106.5 "/>
<text text-anchor="middle" x="1062" y="-91.3" font-family="Times,serif" font-size="14.00">&#45;</text>
</g>
<!-- node10&#45;&gt;node14 -->
<g id="edge26" class="edge">
<title>node10&#45;&gt;node14</title>
<path fill="none" stroke="green" d="M996.32,-166.37C1004.92,-157.17 1015.71,-146.37 1026.09,-136.55"/>
<polygon fill="green" stroke="green" points="1028.61,-138.99 1033.53,-129.61 1023.83,-133.87 1028.61,-138.99"/>
</g>
<!-- node11&#45;&gt;node10 -->
<g id="edge21" class="edge">
<title>node11&#45;&gt;node10</title>
<path fill="none" stroke="blue" d="M926.47,-129.61C936.29,-138.62 947.13,-149.18 956.51,-158.85"/>
<polygon fill="blue" stroke="blue" points="954.25,-161.55 963.68,-166.37 959.31,-156.71 954.25,-161.55"/>
</g>
<!-- node12 -->
<g id="node12" class="node">
<title>node12</title>
<path fill="lightyellow" stroke="black" d="M668,-0.5C668,-0.5 790,-0.5 790,-0.5 796,-0.5 802,-6.5 802,-12.5 802,-12.5 802,-34.5 802,-34.5 802,-40.5 796,-46.5 790,-46.5 790,-46.5 668,-46.5 668,-46.5 662,-46.5 656,-40.5 656,-34.5 656,-34.5 656,-12.5 656,-12.5 656,-6.5 662,-0.5 668,-0.5"/>
<text text-anchor="middle" x="673.5" y="-31.3" font-family="Times,serif" font-size="14.00">12</text>
<polyline fill="none" stroke="black" points="691,-23.5 691,-46.5 "/>
<text text-anchor="middle" x="714" y="-31.3" font-family="Times,serif" font-size="14.00">VAR</text>
<polyline fill="none" stroke="black" points="737,-23.5 737,-46.5 "/>
<text text-anchor="middle" x="769.5" y="-31.3" font-family="Times,serif" font-size="14.00">size=1</text>
<polyline fill="none" stroke="black" points="656,-23.5 802,-23.5 "/>
<text text-anchor="middle" x="729" y="-8.3" font-family="Times,serif" font-size="14.00">x</text>
</g>
<!-- node11&#45;&gt;node12 -->
<g id="edge22" class="edge">
<title>node11&#45;&gt;node12</title>
<path fill="none" stroke="red" d="M845.73,-83.37C824.19,-73.41 799.4,-61.58 778.19,-51.14"/>
<polygon fill="red" stroke="red" points="779.55,-47.9 769.04,-46.61 776.45,-54.18 779.55,-47.9"/>
</g>
<!-- node13 -->
<g id="node13" class="node">
<title>node13</title>
<path fill="pink" stroke="black" d="M832.5,-0.5C832.5,-0.5 963.5,-0.5 963.5,-0.5 969.5,-0.5 975.5,-6.5 975.5,-12.5 975.5,-12.5 975.5,-34.5 975.5,-34.5 975.5,-40.5 969.5,-46.5 963.5,-46.5 963.5,-46.5 832.5,-46.5 832.5,-46.5 826.5,-46.5 820.5,-40.5 820.5,-34.5 820.5,-34.5 820.5,-12.5 820.5,-12.5 820.5,-6.5 826.5,-0.5 832.5,-0.5"/>
<text text-anchor="middle" x="838" y="-31.3" font-family="Times,serif" font-size="14.00">13</text>
<polyline fill="none" stroke="black" points="855.5,-23.5 855.5,-46.5 "/>
<text text-anchor="middle" x="883" y="-31.3" font-family="Times,serif" font-size="14.00">NUM</text>
<polyline fill="none" stroke="black" points="910.5,-23.5 910.5,-46.5 "/>
<text text-anchor="middle" x="943" y="-31.3" font-family="Times,serif" font-size="14.00">size=1</text>
<polyline fill="none" stroke="black" points="820.5,-23.5 975.5,-23.5 "/>
<text text-anchor="middle" x="898" y="-8.3" font-family="Times,serif" font-size="14.00">3</text>
</g>
<!-- node11&#45;&gt;node13 -->
<g id="edge24" class="edge">
<title>node11&#45;&gt;node13</title>
<path fill="none" stroke="green" d="M891.91,-83.37C891.28,-75.15 891.1,-65.66 891.38,-56.73"/>
<polygon fill="green" stroke="green" points="894.88,-56.78 891.91,-46.61 887.89,-56.41 894.88,-56.78"/>
</g>
<!-- node12&#45;&gt;node11 -->
<g id="edge23" class="edge">
<title>node12&#45;&gt;node11</title>
<path fill="none" stroke="blue" d="M781.21,-46.61C802.75,-56.56 827.54,-68.39 848.75,-78.83"/>
<polygon fill="blue" stroke="blue" points="847.4,-82.07 857.91,-83.37 850.5,-75.79 847.4,-82.07"/>
</g>
<!-- node13&#45;&gt;node11 -->
<g id="edge25" class="edge">
<title>node13&#45;&gt;node11</title>
<path fill="none" stroke="blue" d="M904.09,-46.61C904.72,-54.82 904.9,-64.31 904.62,-73.25"/>
<polygon fill="blue" stroke="blue" points="901.12,-73.2 904.09,-83.37 908.11,-73.56 901.12,-73.2"/>
</g>
<!-- node14&#45;&gt;node10 -->
<g id="edge27" class="edge">
<title>node14&#45;&gt;node10</title>
<path fill="none" stroke="blue" d="M1045.71,-129.61C1037.11,-138.8 1026.32,-149.6 1015.94,-159.42"/>
<polygon fill="blue" stroke="blue" points="1013.42,-156.99 1008.5,-166.37 1018.2,-162.1 1013.42,-156.99"/>
</g>
<!-- node15 -->
<g id="node15" class="node">
<title>node15</title>
<path fill="pink" stroke="black" d="M1005.5,-0.5C1005.5,-0.5 1136.5,-0.5 1136.5,-0.5 1142.5,-0.5 1148.5,-6.5 1148.5,-12.5 1148.5,-12.5 1148.5,-34.5 1148.5,-34.5 1148.5,-40.5 1142.5,-46.5 1136.5,-46.5 1136.5,-46.5 1005.5,-46.5 1005.5,-46.5 999.5,-46.5 993.5,-40.5 993.5,-34.5 993.5,-34.5 993.5,-12.5 993.5,-12.5 993.5,-6.5 999.5,-0.5 1005.5,-0.5"/>
<text text-anchor="middle" x="1011" y="-31.3" font-family="Times,serif" font-size="14.00">15</text>
<polyline fill="none" stroke="black" points="1028.5,-23.5 1028.5,-46.5 "/>
<text text-anchor="middle" x="1056" y="-31.3" font-family="Times,serif" font-size="14.00">NUM</text>
<polyline fill="none" stroke="black" points="1083.5,-23.5 1083.5,-46.5 "/>
<text text-anchor="middle" x="1116" y="-31.3" font-family="Times,serif" font-size="14.00">size=1</text>
<polyline fill="none" stroke="black" points="993.5,-23.5 1148.5,-23.5 "/>
<text text-anchor="middle" x="1071" y="-8.3" font-family="Times,serif" font-size="14.00">0</text>
</g>
<!-- node14&#45;&gt;node15 -->
<g id="edge28" class="edge">
<title>node14&#45;&gt;node15</title>
<path fill="none" stroke="red" d="M1058.37,-83.37C1058.65,-75.15 1059.53,-65.66 1060.8,-56.73"/>
<polygon fill="red" stroke="red" points="1064.29,-57.04 1062.45,-46.61 1057.38,-55.91 1064.29,-57.04"/>
</g>
<!-- node16 -->
<g id="node16" class="node">
<title>node16</title>
<path fill="pink" stroke="black" d="M1178.5,-0.5C1178.5,-0.5 1309.5,-0.5 1309.5,-0.5 1315.5,-0.5 1321.5,-6.5 1321.5,-12.5 1321.5,-12.5 1321.5,-34.5 1321.5,-34.5 1321.5,-40.5 1315.5,-46.5 1309.5,-46.5 1309.5,-46.5 1178.5,-46.5 1178.5,-46.5 1172.5,-46.5 1166.5,-40.5 1166.5,-34.5 1166.5,-34.5 1166.5,-12.5 1166.5,-12.5 1166.5,-6.5 1172.5,-0.5 1178.5,-0.5"/>
<text text-anchor="middle" x="1184" y="-31.3" font-family="Times,serif" font-size="14.00">16</text>
<polyline fill="none" stroke="black" points="1201.5,-23.5 1201.5,-46.5 "/>
<text text-anchor="middle" x="1229" y="-31.3" font-family="Times,serif" font-size="14.00">NUM</text>
<polyline fill="none" stroke="black" points="1256.5,-23.5 1256.5,-46.5 "/>
<text text-anchor="middle" x="1289" y="-31.3" font-family="Times,serif" font-size="14.00">size=1</text>
<polyline fill="none" stroke="black" points="1166.5,-23.5 1321.5,-23.5 "/>
<text text-anchor="middle" x="1244" y="-8.3" font-family="Times,serif" font-size="14.00">0</text>
</g>
<!-- node14&#45;&gt;node16 -->
<g id="edge30" class="edge">
<title>node14&#45;&gt;node16</title>
<path fill="none" stroke="green" d="M1105.64,-83.37C1127.63,-73.23 1154.69,-61.15 1179.05,-50.58"/>
<polygon fill="green" stroke="green" points="1180.45,-53.79 1188.24,-46.61 1177.67,-47.36 1180.45,-53.79"/>
</g>
<!-- node15&#45;&gt;node14 -->
<g id="edge29" class="edge">
<title>node15&#45;&gt;node14</title>
<path fill="none" stroke="blue" d="M1074.63,-46.61C1074.35,-54.82 1073.48,-64.31 1072.21,-73.25"/>
<polygon fill="blue" stroke="blue" points="1068.71,-72.93 1070.55,-83.37 1075.62,-74.06 1068.71,-72.93"/>
</g>
<!-- node16&#45;&gt;node14 -->
<g id="edge31" class="edge">
<title>node16&#45;&gt;node14</title>
<path fill="none" stroke="blue" d="M1200.42,-46.61C1178.43,-56.74 1151.38,-68.82 1127.01,-79.39"/>
<polygon fill="blue" stroke="blue" points="1125.61,-76.19 1117.82,-83.37 1128.39,-82.61 1125.61,-76.19"/>
</g>
<!-- node17&#45;&gt;node1 -->
<g id="edge33" class="edge">
<title>node17&#45;&gt;node1</title>
<path fill="none" stroke="blue" d="M1209.34,-295.61C1200.09,-304.89 1188.5,-315.81 1177.42,-325.71"/>
<polygon fill="blue" stroke="blue" points="1175.05,-323.13 1169.86,-332.37 1179.68,-328.38 1175.05,-323.13"/>
</g>
<!-- node18 -->
<g id="node18" class="node">
<title>node18</title>
<path fill="peachpuff" stroke="black" d="M1170,-166.5C1170,-166.5 1284,-166.5 1284,-166.5 1290,-166.5 1296,-172.5 1296,-178.5 1296,-178.5 1296,-200.5 1296,-200.5 1296,-206.5 1290,-212.5 1284,-212.5 1284,-212.5 1170,-212.5 1170,-212.5 1164,-212.5 1158,-206.5 1158,-200.5 1158,-200.5 1158,-178.5 1158,-178.5 1158,-172.5 1164,-166.5 1170,-166.5"/>
<text text-anchor="middle" x="1175.5" y="-197.3" font-family="Times,serif" font-size="14.00">18</text>
<polyline fill="none" stroke="black" points="1193,-189.5 1193,-212.5 "/>
<text text-anchor="middle" x="1212" y="-197.3" font-family="Times,serif" font-size="14.00">OP</text>
<polyline fill="none" stroke="black" points="1231,-189.5 1231,-212.5 "/>
<text text-anchor="middle" x="1263.5" y="-197.3" font-family="Times,serif" font-size="14.00">size=3</text>
<polyline fill="none" stroke="black" points="1158,-189.5 1296,-189.5 "/>
<text text-anchor="middle" x="1227" y="-174.3" font-family="Times,serif" font-size="14.00">&#45;</text>
</g>
<!-- node17&#45;&gt;node18 -->
<g id="edge34" class="edge">
<title>node17&#45;&gt;node18</title>
<path fill="none" stroke="red" d="M1220.91,-249.37C1220.28,-241.15 1220.1,-231.66 1220.38,-222.73"/>
<polygon fill="red" stroke="red" points="1223.88,-222.78 1220.91,-212.61 1216.89,-222.41 1223.88,-222.78"/>
</g>
<!-- node21 -->
<g id="node21" class="node">
<title>node21</title>
<path fill="pink" stroke="black" d="M1326.5,-166.5C1326.5,-166.5 1457.5,-166.5 1457.5,-166.5 1463.5,-166.5 1469.5,-172.5 1469.5,-178.5 1469.5,-178.5 1469.5,-200.5 1469.5,-200.5 1469.5,-206.5 1463.5,-212.5 1457.5,-212.5 1457.5,-212.5 1326.5,-212.5 1326.5,-212.5 1320.5,-212.5 1314.5,-206.5 1314.5,-200.5 1314.5,-200.5 1314.5,-178.5 1314.5,-178.5 1314.5,-172.5 1320.5,-166.5 1326.5,-166.5"/>
<text text-anchor="middle" x="1332" y="-197.3" font-family="Times,serif" font-size="14.00">21</text>
<polyline fill="none" stroke="black" points="1349.5,-189.5 1349.5,-212.5 "/>
<text text-anchor="middle" x="1377" y="-197.3" font-family="Times,serif" font-size="14.00">NUM</text>
<polyline fill="none" stroke="black" points="1404.5,-189.5 1404.5,-212.5 "/>
<text text-anchor="middle" x="1437" y="-197.3" font-family="Times,serif" font-size="14.00">size=1</text>
<polyline fill="none" stroke="black" points="1314.5,-189.5 1469.5,-189.5 "/>
<text text-anchor="middle" x="1392" y="-174.3" font-family="Times,serif" font-size="14.00">2</text>
</g>
<!-- node17&#45;&gt;node21 -->
<g id="edge40" class="edge">
<title>node17&#45;&gt;node21</title>
<path fill="none" stroke="green" d="M1266,-249.37C1285.6,-239.37 1309.74,-227.47 1331.64,-217"/>
<polygon fill="green" stroke="green" points="1333.35,-220.06 1340.88,-212.61 1330.34,-213.74 1333.35,-220.06"/>
</g>
<!-- node18&#45;&gt;node17 -->
<g id="edge35" class="edge">
<title>node18&#45;&gt;node17</title>
<path fill="none" stroke="blue" d="M1233.09,-212.61C1233.72,-220.82 1233.9,-230.31 1233.62,-239.25"/>
<polygon fill="blue" stroke="blue" points="1230.12,-239.2 1233.09,-249.37 1237.11,-239.56 1230.12,-239.2"/>
</g>
<!-- node19 -->
<g id="node19" class="node">
<title>node19</title>
<path fill="pink" stroke="black" d="M1161.5,-83.5C1161.5,-83.5 1292.5,-83.5 1292.5,-83.5 1298.5,-83.5 1304.5,-89.5 1304.5,-95.5 1304.5,-95.5 1304.5,-117.5 1304.5,-117.5 1304.5,-123.5 1298.5,-129.5 1292.5,-129.5 1292.5,-129.5 1161.5,-129.5 1161.5,-129.5 1155.5,-129.5 1149.5,-123.5 1149.5,-117.5 1149.5,-117.5 1149.5,-95.5 1149.5,-95.5 1149.5,-89.5 1155.5,-83.5 1161.5,-83.5"/>
<text text-anchor="middle" x="1167" y="-114.3" font-family="Times,serif" font-size="14.00">19</text>
<polyline fill="none" stroke="black" points="1184.5,-106.5 1184.5,-129.5 "/>
<text text-anchor="middle" x="1212" y="-114.3" font-family="Times,serif" font-size="14.00">NUM</text>
<polyline fill="none" stroke="black" points="1239.5,-106.5 1239.5,-129.5 "/>
<text text-anchor="middle" x="1272" y="-114.3" font-family="Times,serif" font-size="14.00">size=1</text>
<polyline fill="none" stroke="black" points="1149.5,-106.5 1304.5,-106.5 "/>
<text text-anchor="middle" x="1227" y="-91.3" font-family="Times,serif" font-size="14.00">1000</text>
</g>
<!-- node18&#45;&gt;node19 -->
<g id="edge36" class="edge">
<title>node18&#45;&gt;node19</title>
<path fill="none" stroke="red" d="M1220.91,-166.37C1220.28,-158.15 1220.1,-148.66 1220.38,-139.73"/>
<polygon fill="red" stroke="red" points="1223.88,-139.78 1220.91,-129.61 1216.89,-139.41 1223.88,-139.78"/>
</g>
<!-- node20 -->
<g id="node20" class="node">
<title>node20</title>
<path fill="pink" stroke="black" d="M1334.5,-83.5C1334.5,-83.5 1465.5,-83.5 1465.5,-83.5 1471.5,-83.5 1477.5,-89.5 1477.5,-95.5 1477.5,-95.5 1477.5,-117.5 1477.5,-117.5 1477.5,-123.5 1471.5,-129.5 1465.5,-129.5 1465.5,-129.5 1334.5,-129.5 1334.5,-129.5 1328.5,-129.5 1322.5,-123.5 1322.5,-117.5 1322.5,-117.5 1322.5,-95.5 1322.5,-95.5 1322.5,-89.5 1328.5,-83.5 1334.5,-83.5"/>
<text text-anchor="middle" x="1340" y="-114.3" font-family="Times,serif" font-size="14.00">20</text>
<polyline fill="none" stroke="black" points="1357.5,-106.5 1357.5,-129.5 "/>
<text text-anchor="middle" x="1385" y="-114.3" font-family="Times,serif" font-size="14.00">NUM</text>
<polyline fill="none" stroke="black" points="1412.5,-106.5 1412.5,-129.5 "/>
<text text-anchor="middle" x="1445" y="-114.3" font-family="Times,serif" font-size="14.00">size=1</text>
<polyline fill="none" stroke="black" points="1322.5,-106.5 1477.5,-106.5 "/>
<text text-anchor="middle" x="1400" y="-91.3" font-family="Times,serif" font-size="14.00">7</text>
</g>
<!-- node18&#45;&gt;node20 -->
<g id="edge38" class="edge">
<title>node18&#45;&gt;node20</title>
<path fill="none" stroke="green" d="M1268.18,-166.37C1288.86,-156.32 1314.31,-144.36 1337.34,-133.86"/>
<polygon fill="green" stroke="green" points="1339.04,-136.93 1346.7,-129.61 1336.14,-130.56 1339.04,-136.93"/>
</g>
<!-- node19&#45;&gt;node18 -->
<g id="edge37" class="edge">
<title>node19&#45;&gt;node18</title>
<path fill="none" stroke="blue" d="M1233.09,-129.61C1233.72,-137.82 1233.9,-147.31 1233.62,-156.25"/>
<polygon fill="blue" stroke="blue" points="1230.12,-156.2 1233.09,-166.37 1237.11,-156.56 1230.12,-156.2"/>
</g>
<!-- node20&#45;&gt;node18 -->
<g id="edge39" class="edge">
<title>node20&#45;&gt;node18</title>
<path fill="none" stroke="blue" d="M1358.87,-129.61C1338.2,-139.65 1312.76,-151.61 1289.73,-162.11"/>
<polygon fill="blue" stroke="blue" points="1288.02,-159.04 1280.36,-166.37 1290.92,-165.42 1288.02,-159.04"/>
</g>
<!-- node21&#45;&gt;node17 -->
<g id="edge41" class="edge">
<title>node21&#45;&gt;node17</title>
<path fill="none" stroke="blue" d="M1353.06,-212.61C1333.46,-222.6 1309.33,-234.5 1287.41,-244.97"/>
<polygon fill="blue" stroke="blue" points="1285.71,-241.91 1278.18,-249.37 1288.71,-248.23 1285.71,-241.91"/>
</g>
</g>
</svg>
