<?xml version="1.0" encoding="UTF-8" standalone="no"?>
<!DOCTYPE svg PUBLIC "-//W3C//DTD SVG 1.1//EN"
 "http://www.w3.org/Graphics/SVG/1.1/DTD/svg11.dtd">
<!-- Generated by graphviz version 2.43.0 (0)
 -->
<!-- Title: %3 Pages: 1 -->
<svg width="1769pt" height="885pt"
 viewBox="0.00 0.00 1769.00 885.00" xmlns="http://www.w3.org/2000/svg" xmlns:xlink="http://www.w3.org/1999/xlink">
<g id="graph0" class="graph" transform="scale(1 1) rotate(0) translate(4 881)">
<title>%3</title>
<polygon fill="white" stroke="transparent" points="-4,4 -4,-881 1765,-881 1765,4 -4,4"/>
<!-- node1 -->
<g id="node1" class="node">
<title>node1</title>
<path fill="peachpuff" stroke="black" d="M802.5,-830.5C802.5,-830.5 916.5,-830.5 916.5,-830.5 922.5,-830.5 928.5,-836.5 928.5,-842.5 928.5,-842.5 928.5,-864.5 928.5,-864.5 928.5,-870.5 922.5,-876.5 916.5,-876.5 916.5,-876.5 802.5,-876.5 802.5,-876.5 796.5,-876.5 790.5,-870.5 790.5,-864.5 790.5,-864.5 790.5,-842.5 790.5,-842.5 790.5,-836.5 796.5,-830.5 802.5,-830.5"/>
<text text-anchor="middle" x="803.5" y="-861.3" font-family="Times,serif" font-size="14.00">1</text>
<polyline fill="none" stroke="black" points="816.5,-853.5 816.5,-876.5 "/>
<text text-anchor="middle" x="835.5" y="-861.3" font-family="Times,serif" font-size="14.00">OP</text>
<polyline fill="none" stroke="black" points="854.5,-853.5 854.5,-876.5 "/>
<text text-anchor="middle" x="891.5" y="-861.3" font-family="Times,serif" font-size="14.00">size=46</text>
<polyline fill="none" stroke="black" points="790.5,-853.5 928.5,-853.5 "/>
<text text-anchor="middle" x="859.5" y="-838.3" font-family="Times,serif" font-size="14.00">+</text>
</g>
<!-- node1&#45;&gt;node1 -->
<g id="edge1" class="edge">
<title>node1&#45;&gt;node1</title>
<path fill="none" stroke="blue" d="M928.77,-867.52C939.33,-865.38 946.5,-860.71 946.5,-853.5 946.5,-848.77 943.41,-845.13 938.31,-842.58"/>
<polygon fill="blue" stroke="blue" points="939.37,-839.25 928.77,-839.48 937.2,-845.9 939.37,-839.25"/>
</g>
<!-- node2 -->
<g id="node2" class="node">
<title>node2</title>
<path fill="peachpuff" stroke="black" d="M722.5,-747.5C722.5,-747.5 836.5,-747.5 836.5,-747.5 842.5,-747.5 848.5,-753.5 848.5,-759.5 848.5,-759.5 848.5,-781.5 848.5,-781.5 848.5,-787.5 842.5,-793.5 836.5,-793.5 836.5,-793.5 722.5,-793.5 722.5,-793.5 716.5,-793.5 710.5,-787.5 710.5,-781.5 710.5,-781.5 710.5,-759.5 710.5,-759.5 710.5,-753.5 716.5,-747.5 722.5,-747.5"/>
<text text-anchor="middle" x="723.5" y="-778.3" font-family="Times,serif" font-size="14.00">2</text>
<polyline fill="none" stroke="black" points="736.5,-770.5 736.5,-793.5 "/>
<text text-anchor="middle" x="755.5" y="-778.3" font-family="Times,serif" font-size="14.00">OP</text>
<polyline fill="none" stroke="black" points="774.5,-770.5 774.5,-793.5 "/>
<text text-anchor="middle" x="811.5" y="-778.3" font-family="Times,serif" font-size="14.00">size=39</text>
<polyline fill="none" stroke="black" points="710.5,-770.5 848.5,-770.5 "/>
<text text-anchor="middle" x="779.5" y="-755.3" font-family="Times,serif" font-size="14.00">+</text>
</g>
<!-- node1&#45;&gt;node2 -->
<g id="edge2" class="edge">
<title>node1&#45;&gt;node2</title>
<path fill="none" stroke="red" d="M831.55,-830.37C821.95,-821.35 811.37,-810.79 802.23,-801.12"/>
<polygon fill="red" stroke="red" points="804.62,-798.55 795.25,-793.61 799.49,-803.32 804.62,-798.55"/>
</g>
<!-- node41 -->
<g id="node41" class="node">
<title>node41</title>
<path fill="peachpuff" stroke="black" d="M882.5,-747.5C882.5,-747.5 996.5,-747.5 996.5,-747.5 1002.5,-747.5 1008.5,-753.5 1008.5,-759.5 1008.5,-759.5 1008.5,-781.5 1008.5,-781.5 1008.5,-787.5 1002.5,-793.5 996.5,-793.5 996.5,-793.5 882.5,-793.5 882.5,-793.5 876.5,-793.5 870.5,-787.5 870.5,-781.5 870.5,-781.5 870.5,-759.5 870.5,-759.5 870.5,-753.5 876.5,-747.5 882.5,-747.5"/>
<text text-anchor="middle" x="888" y="-778.3" font-family="Times,serif" font-size="14.00">41</text>
<polyline fill="none" stroke="black" points="905.5,-770.5 905.5,-793.5 "/>
<text text-anchor="middle" x="924.5" y="-778.3" font-family="Times,serif" font-size="14.00">OP</text>
<polyline fill="none" stroke="black" points="943.5,-770.5 943.5,-793.5 "/>
<text text-anchor="middle" x="976" y="-778.3" font-family="Times,serif" font-size="14.00">size=6</text>
<polyline fill="none" stroke="black" points="870.5,-770.5 1008.5,-770.5 "/>
<text text-anchor="middle" x="939.5" y="-755.3" font-family="Times,serif" font-size="14.00">^</text>
</g>
<!-- node1&#45;&gt;node41 -->
<g id="edge80" class="edge">
<title>node1&#45;&gt;node41</title>
<path fill="none" stroke="green" d="M875.27,-830.37C883.65,-821.17 894.17,-810.37 904.31,-800.55"/>
<polygon fill="green" stroke="green" points="906.76,-803.04 911.58,-793.61 901.93,-797.98 906.76,-803.04"/>
</g>
<!-- node2&#45;&gt;node1 -->
<g id="edge3" class="edge">
<title>node2&#45;&gt;node1</title>
<path fill="none" stroke="blue" d="M807.42,-793.61C817.02,-802.62 827.6,-813.18 836.75,-822.85"/>
<polygon fill="blue" stroke="blue" points="834.36,-825.42 843.73,-830.37 839.49,-820.66 834.36,-825.42"/>
</g>
<!-- node3 -->
<g id="node3" class="node">
<title>node3</title>
<path fill="peachpuff" stroke="black" d="M562.5,-664.5C562.5,-664.5 676.5,-664.5 676.5,-664.5 682.5,-664.5 688.5,-670.5 688.5,-676.5 688.5,-676.5 688.5,-698.5 688.5,-698.5 688.5,-704.5 682.5,-710.5 676.5,-710.5 676.5,-710.5 562.5,-710.5 562.5,-710.5 556.5,-710.5 550.5,-704.5 550.5,-698.5 550.5,-698.5 550.5,-676.5 550.5,-676.5 550.5,-670.5 556.5,-664.5 562.5,-664.5"/>
<text text-anchor="middle" x="563.5" y="-695.3" font-family="Times,serif" font-size="14.00">3</text>
<polyline fill="none" stroke="black" points="576.5,-687.5 576.5,-710.5 "/>
<text text-anchor="middle" x="595.5" y="-695.3" font-family="Times,serif" font-size="14.00">OP</text>
<polyline fill="none" stroke="black" points="614.5,-687.5 614.5,-710.5 "/>
<text text-anchor="middle" x="651.5" y="-695.3" font-family="Times,serif" font-size="14.00">size=37</text>
<polyline fill="none" stroke="black" points="550.5,-687.5 688.5,-687.5 "/>
<text text-anchor="middle" x="619.5" y="-672.3" font-family="Times,serif" font-size="14.00">&#45;</text>
</g>
<!-- node2&#45;&gt;node3 -->
<g id="edge4" class="edge">
<title>node2&#45;&gt;node3</title>
<path fill="none" stroke="red" d="M729.69,-747.37C709.35,-737.46 685.99,-725.68 666,-715.28"/>
<polygon fill="red" stroke="red" points="667.56,-712.14 657.08,-710.61 664.32,-718.35 667.56,-712.14"/>
</g>
<!-- node40 -->
<g id="node40" class="node">
<title>node40</title>
<path fill="lightyellow" stroke="black" d="M718.5,-664.5C718.5,-664.5 840.5,-664.5 840.5,-664.5 846.5,-664.5 852.5,-670.5 852.5,-676.5 852.5,-676.5 852.5,-698.5 852.5,-698.5 852.5,-704.5 846.5,-710.5 840.5,-710.5 840.5,-710.5 718.5,-710.5 718.5,-710.5 712.5,-710.5 706.5,-704.5 706.5,-698.5 706.5,-698.5 706.5,-676.5 706.5,-676.5 706.5,-670.5 712.5,-664.5 718.5,-664.5"/>
<text text-anchor="middle" x="724" y="-695.3" font-family="Times,serif" font-size="14.00">40</text>
<polyline fill="none" stroke="black" points="741.5,-687.5 741.5,-710.5 "/>
<text text-anchor="middle" x="764.5" y="-695.3" font-family="Times,serif" font-size="14.00">VAR</text>
<polyline fill="none" stroke="black" points="787.5,-687.5 787.5,-710.5 "/>
<text text-anchor="middle" x="820" y="-695.3" font-family="Times,serif" font-size="14.00">size=1</text>
<polyline fill="none" stroke="black" points="706.5,-687.5 852.5,-687.5 "/>
<text text-anchor="middle" x="779.5" y="-672.3" font-family="Times,serif" font-size="14.00">x</text>
</g>
<!-- node2&#45;&gt;node40 -->
<g id="edge78" class="edge">
<title>node2&#45;&gt;node40</title>
<path fill="none" stroke="green" d="M773.41,-747.37C772.78,-739.15 772.6,-729.66 772.88,-720.73"/>
<polygon fill="green" stroke="green" points="776.38,-720.78 773.41,-710.61 769.39,-720.41 776.38,-720.78"/>
</g>
<!-- node3&#45;&gt;node2 -->
<g id="edge5" class="edge">
<title>node3&#45;&gt;node2</title>
<path fill="none" stroke="blue" d="M669.26,-710.61C689.59,-720.51 712.95,-732.29 732.94,-742.69"/>
<polygon fill="blue" stroke="blue" points="731.39,-745.83 741.87,-747.37 734.63,-739.63 731.39,-745.83"/>
</g>
<!-- node4 -->
<g id="node4" class="node">
<title>node4</title>
<path fill="peachpuff" stroke="black" d="M420.5,-581.5C420.5,-581.5 534.5,-581.5 534.5,-581.5 540.5,-581.5 546.5,-587.5 546.5,-593.5 546.5,-593.5 546.5,-615.5 546.5,-615.5 546.5,-621.5 540.5,-627.5 534.5,-627.5 534.5,-627.5 420.5,-627.5 420.5,-627.5 414.5,-627.5 408.5,-621.5 408.5,-615.5 408.5,-615.5 408.5,-593.5 408.5,-593.5 408.5,-587.5 414.5,-581.5 420.5,-581.5"/>
<text text-anchor="middle" x="421.5" y="-612.3" font-family="Times,serif" font-size="14.00">4</text>
<polyline fill="none" stroke="black" points="434.5,-604.5 434.5,-627.5 "/>
<text text-anchor="middle" x="453.5" y="-612.3" font-family="Times,serif" font-size="14.00">OP</text>
<polyline fill="none" stroke="black" points="472.5,-604.5 472.5,-627.5 "/>
<text text-anchor="middle" x="509.5" y="-612.3" font-family="Times,serif" font-size="14.00">size=35</text>
<polyline fill="none" stroke="black" points="408.5,-604.5 546.5,-604.5 "/>
<text text-anchor="middle" x="477.5" y="-589.3" font-family="Times,serif" font-size="14.00">&#45;</text>
</g>
<!-- node3&#45;&gt;node4 -->
<g id="edge6" class="edge">
<title>node3&#45;&gt;node4</title>
<path fill="none" stroke="red" d="M574.61,-664.37C556.8,-654.63 536.48,-643.11 519.01,-632.84"/>
<polygon fill="red" stroke="red" points="520.55,-629.69 510.17,-627.61 516.99,-635.71 520.55,-629.69"/>
</g>
<!-- node39 -->
<g id="node39" class="node">
<title>node39</title>
<path fill="lightyellow" stroke="black" d="M576.5,-581.5C576.5,-581.5 698.5,-581.5 698.5,-581.5 704.5,-581.5 710.5,-587.5 710.5,-593.5 710.5,-593.5 710.5,-615.5 710.5,-615.5 710.5,-621.5 704.5,-627.5 698.5,-627.5 698.5,-627.5 576.5,-627.5 576.5,-627.5 570.5,-627.5 564.5,-621.5 564.5,-615.5 564.5,-615.5 564.5,-593.5 564.5,-593.5 564.5,-587.5 570.5,-581.5 576.5,-581.5"/>
<text text-anchor="middle" x="582" y="-612.3" font-family="Times,serif" font-size="14.00">39</text>
<polyline fill="none" stroke="black" points="599.5,-604.5 599.5,-627.5 "/>
<text text-anchor="middle" x="622.5" y="-612.3" font-family="Times,serif" font-size="14.00">VAR</text>
<polyline fill="none" stroke="black" points="645.5,-604.5 645.5,-627.5 "/>
<text text-anchor="middle" x="678" y="-612.3" font-family="Times,serif" font-size="14.00">size=1</text>
<polyline fill="none" stroke="black" points="564.5,-604.5 710.5,-604.5 "/>
<text text-anchor="middle" x="637.5" y="-589.3" font-family="Times,serif" font-size="14.00">x</text>
</g>
<!-- node3&#45;&gt;node39 -->
<g id="edge76" class="edge">
<title>node3&#45;&gt;node39</title>
<path fill="none" stroke="green" d="M618.33,-664.37C619.53,-656.06 621.5,-646.45 623.79,-637.43"/>
<polygon fill="green" stroke="green" points="627.22,-638.18 626.5,-627.61 620.47,-636.32 627.22,-638.18"/>
</g>
<!-- node4&#45;&gt;node3 -->
<g id="edge7" class="edge">
<title>node4&#45;&gt;node3</title>
<path fill="none" stroke="blue" d="M522.34,-627.61C540.15,-637.34 560.47,-648.86 577.94,-659.13"/>
<polygon fill="blue" stroke="blue" points="576.4,-662.28 586.79,-664.37 579.97,-656.26 576.4,-662.28"/>
</g>
<!-- node5 -->
<g id="node5" class="node">
<title>node5</title>
<path fill="peachpuff" stroke="black" d="M308,-498.5C308,-498.5 413,-498.5 413,-498.5 419,-498.5 425,-504.5 425,-510.5 425,-510.5 425,-532.5 425,-532.5 425,-538.5 419,-544.5 413,-544.5 413,-544.5 308,-544.5 308,-544.5 302,-544.5 296,-538.5 296,-532.5 296,-532.5 296,-510.5 296,-510.5 296,-504.5 302,-498.5 308,-498.5"/>
<text text-anchor="middle" x="309" y="-529.3" font-family="Times,serif" font-size="14.00">5</text>
<polyline fill="none" stroke="black" points="322,-521.5 322,-544.5 "/>
<text text-anchor="middle" x="341" y="-529.3" font-family="Times,serif" font-size="14.00">OP</text>
<polyline fill="none" stroke="black" points="360,-521.5 360,-544.5 "/>
<text text-anchor="middle" x="392.5" y="-529.3" font-family="Times,serif" font-size="14.00">size=2</text>
<polyline fill="none" stroke="black" points="296,-521.5 425,-521.5 "/>
<text text-anchor="middle" x="360.5" y="-506.3" font-family="Times,serif" font-size="14.00">cos</text>
</g>
<!-- node4&#45;&gt;node5 -->
<g id="edge8" class="edge">
<title>node4&#45;&gt;node5</title>
<path fill="none" stroke="red" d="M439.44,-581.37C425.04,-571.9 408.79,-560.74 394.76,-550.69"/>
<polygon fill="red" stroke="red" points="396.5,-547.63 386.34,-544.61 392.39,-553.3 396.5,-547.63"/>
</g>
<!-- node7 -->
<g id="node7" class="node">
<title>node7</title>
<path fill="peachpuff" stroke="black" d="M457.5,-498.5C457.5,-498.5 571.5,-498.5 571.5,-498.5 577.5,-498.5 583.5,-504.5 583.5,-510.5 583.5,-510.5 583.5,-532.5 583.5,-532.5 583.5,-538.5 577.5,-544.5 571.5,-544.5 571.5,-544.5 457.5,-544.5 457.5,-544.5 451.5,-544.5 445.5,-538.5 445.5,-532.5 445.5,-532.5 445.5,-510.5 445.5,-510.5 445.5,-504.5 451.5,-498.5 457.5,-498.5"/>
<text text-anchor="middle" x="458.5" y="-529.3" font-family="Times,serif" font-size="14.00">7</text>
<polyline fill="none" stroke="black" points="471.5,-521.5 471.5,-544.5 "/>
<text text-anchor="middle" x="490.5" y="-529.3" font-family="Times,serif" font-size="14.00">OP</text>
<polyline fill="none" stroke="black" points="509.5,-521.5 509.5,-544.5 "/>
<text text-anchor="middle" x="546.5" y="-529.3" font-family="Times,serif" font-size="14.00">size=32</text>
<polyline fill="none" stroke="black" points="445.5,-521.5 583.5,-521.5 "/>
<text text-anchor="middle" x="514.5" y="-506.3" font-family="Times,serif" font-size="14.00">*</text>
</g>
<!-- node4&#45;&gt;node7 -->
<g id="edge12" class="edge">
<title>node4&#45;&gt;node7</title>
<path fill="none" stroke="green" d="M481.52,-581.37C484.78,-572.79 489.16,-562.83 493.73,-553.56"/>
<polygon fill="green" stroke="green" points="496.87,-555.1 498.31,-544.61 490.64,-551.91 496.87,-555.1"/>
</g>
<!-- node5&#45;&gt;node4 -->
<g id="edge9" class="edge">
<title>node5&#45;&gt;node4</title>
<path fill="none" stroke="blue" d="M398.52,-544.61C412.92,-554.07 429.17,-565.23 443.2,-575.28"/>
<polygon fill="blue" stroke="blue" points="441.47,-578.34 451.62,-581.37 445.57,-572.67 441.47,-578.34"/>
</g>
<!-- node6 -->
<g id="node6" class="node">
<title>node6</title>
<path fill="lightyellow" stroke="black" d="M302,-415.5C302,-415.5 415,-415.5 415,-415.5 421,-415.5 427,-421.5 427,-427.5 427,-427.5 427,-449.5 427,-449.5 427,-455.5 421,-461.5 415,-461.5 415,-461.5 302,-461.5 302,-461.5 296,-461.5 290,-455.5 290,-449.5 290,-449.5 290,-427.5 290,-427.5 290,-421.5 296,-415.5 302,-415.5"/>
<text text-anchor="middle" x="303" y="-446.3" font-family="Times,serif" font-size="14.00">6</text>
<polyline fill="none" stroke="black" points="316,-438.5 316,-461.5 "/>
<text text-anchor="middle" x="339" y="-446.3" font-family="Times,serif" font-size="14.00">VAR</text>
<polyline fill="none" stroke="black" points="362,-438.5 362,-461.5 "/>
<text text-anchor="middle" x="394.5" y="-446.3" font-family="Times,serif" font-size="14.00">size=1</text>
<polyline fill="none" stroke="black" points="290,-438.5 427,-438.5 "/>
<text text-anchor="middle" x="358.5" y="-423.3" font-family="Times,serif" font-size="14.00">x</text>
</g>
<!-- node5&#45;&gt;node6 -->
<g id="edge10" class="edge">
<title>node5&#45;&gt;node6</title>
<path fill="none" stroke="red" d="M353.86,-498.37C353.03,-490.15 352.62,-480.66 352.67,-471.73"/>
<polygon fill="red" stroke="red" points="356.17,-471.7 352.96,-461.61 349.18,-471.5 356.17,-471.7"/>
</g>
<!-- node6&#45;&gt;node5 -->
<g id="edge11" class="edge">
<title>node6&#45;&gt;node5</title>
<path fill="none" stroke="blue" d="M365.13,-461.61C365.97,-469.82 366.38,-479.31 366.33,-488.25"/>
<polygon fill="blue" stroke="blue" points="362.83,-488.27 366.04,-498.37 369.82,-488.47 362.83,-488.27"/>
</g>
<!-- node7&#45;&gt;node4 -->
<g id="edge13" class="edge">
<title>node7&#45;&gt;node4</title>
<path fill="none" stroke="blue" d="M510.49,-544.61C507.24,-553.18 502.85,-563.14 498.29,-572.41"/>
<polygon fill="blue" stroke="blue" points="495.14,-570.87 493.7,-581.37 501.37,-574.06 495.14,-570.87"/>
</g>
<!-- node8 -->
<g id="node8" class="node">
<title>node8</title>
<path fill="peachpuff" stroke="black" d="M457.5,-415.5C457.5,-415.5 571.5,-415.5 571.5,-415.5 577.5,-415.5 583.5,-421.5 583.5,-427.5 583.5,-427.5 583.5,-449.5 583.5,-449.5 583.5,-455.5 577.5,-461.5 571.5,-461.5 571.5,-461.5 457.5,-461.5 457.5,-461.5 451.5,-461.5 445.5,-455.5 445.5,-449.5 445.5,-449.5 445.5,-427.5 445.5,-427.5 445.5,-421.5 451.5,-415.5 457.5,-415.5"/>
<text text-anchor="middle" x="458.5" y="-446.3" font-family="Times,serif" font-size="14.00">8</text>
<polyline fill="none" stroke="black" points="471.5,-438.5 471.5,-461.5 "/>
<text text-anchor="middle" x="490.5" y="-446.3" font-family="Times,serif" font-size="14.00">OP</text>
<polyline fill="none" stroke="black" points="509.5,-438.5 509.5,-461.5 "/>
<text text-anchor="middle" x="546.5" y="-446.3" font-family="Times,serif" font-size="14.00">size=10</text>
<polyline fill="none" stroke="black" points="445.5,-438.5 583.5,-438.5 "/>
<text text-anchor="middle" x="514.5" y="-423.3" font-family="Times,serif" font-size="14.00">/</text>
</g>
<!-- node7&#45;&gt;node8 -->
<g id="edge14" class="edge">
<title>node7&#45;&gt;node8</title>
<path fill="none" stroke="red" d="M508.41,-498.37C507.78,-490.15 507.6,-480.66 507.88,-471.73"/>
<polygon fill="red" stroke="red" points="511.38,-471.78 508.41,-461.61 504.39,-471.41 511.38,-471.78"/>
</g>
<!-- node18 -->
<g id="node18" class="node">
<title>node18</title>
<path fill="peachpuff" stroke="black" d="M704,-415.5C704,-415.5 827,-415.5 827,-415.5 833,-415.5 839,-421.5 839,-427.5 839,-427.5 839,-449.5 839,-449.5 839,-455.5 833,-461.5 827,-461.5 827,-461.5 704,-461.5 704,-461.5 698,-461.5 692,-455.5 692,-449.5 692,-449.5 692,-427.5 692,-427.5 692,-421.5 698,-415.5 704,-415.5"/>
<text text-anchor="middle" x="709.5" y="-446.3" font-family="Times,serif" font-size="14.00">18</text>
<polyline fill="none" stroke="black" points="727,-438.5 727,-461.5 "/>
<text text-anchor="middle" x="746" y="-446.3" font-family="Times,serif" font-size="14.00">OP</text>
<polyline fill="none" stroke="black" points="765,-438.5 765,-461.5 "/>
<text text-anchor="middle" x="802" y="-446.3" font-family="Times,serif" font-size="14.00">size=21</text>
<polyline fill="none" stroke="black" points="692,-438.5 839,-438.5 "/>
<text text-anchor="middle" x="765.5" y="-423.3" font-family="Times,serif" font-size="14.00">^</text>
</g>
<!-- node7&#45;&gt;node18 -->
<g id="edge34" class="edge">
<title>node7&#45;&gt;node18</title>
<path fill="none" stroke="green" d="M576.67,-498.47C608.5,-487.94 647.65,-475.28 682.05,-464.4"/>
<polygon fill="green" stroke="green" points="683.14,-467.73 691.62,-461.38 681.03,-461.05 683.14,-467.73"/>
</g>
<!-- node8&#45;&gt;node7 -->
<g id="edge15" class="edge">
<title>node8&#45;&gt;node7</title>
<path fill="none" stroke="blue" d="M520.59,-461.61C521.22,-469.82 521.4,-479.31 521.12,-488.25"/>
<polygon fill="blue" stroke="blue" points="517.62,-488.2 520.59,-498.37 524.61,-488.56 517.62,-488.2"/>
</g>
<!-- node9 -->
<g id="node9" class="node">
<title>node9</title>
<path fill="peachpuff" stroke="black" d="M198,-332.5C198,-332.5 303,-332.5 303,-332.5 309,-332.5 315,-338.5 315,-344.5 315,-344.5 315,-366.5 315,-366.5 315,-372.5 309,-378.5 303,-378.5 303,-378.5 198,-378.5 198,-378.5 192,-378.5 186,-372.5 186,-366.5 186,-366.5 186,-344.5 186,-344.5 186,-338.5 192,-332.5 198,-332.5"/>
<text text-anchor="middle" x="199" y="-363.3" font-family="Times,serif" font-size="14.00">9</text>
<polyline fill="none" stroke="black" points="212,-355.5 212,-378.5 "/>
<text text-anchor="middle" x="231" y="-363.3" font-family="Times,serif" font-size="14.00">OP</text>
<polyline fill="none" stroke="black" points="250,-355.5 250,-378.5 "/>
<text text-anchor="middle" x="282.5" y="-363.3" font-family="Times,serif" font-size="14.00">size=3</text>
<polyline fill="none" stroke="black" points="186,-355.5 315,-355.5 "/>
<text text-anchor="middle" x="250.5" y="-340.3" font-family="Times,serif" font-size="14.00">*</text>
</g>
<!-- node8&#45;&gt;node9 -->
<g id="edge16" class="edge">
<title>node8&#45;&gt;node9</title>
<path fill="none" stroke="red" d="M445.41,-418.1C408.39,-407.06 362.8,-393.11 325,-381.28"/>
<polygon fill="red" stroke="red" points="325.66,-377.82 315.07,-378.17 323.56,-384.5 325.66,-377.82"/>
</g>
<!-- node12 -->
<g id="node12" class="node">
<title>node12</title>
<path fill="peachpuff" stroke="black" d="M457.5,-332.5C457.5,-332.5 571.5,-332.5 571.5,-332.5 577.5,-332.5 583.5,-338.5 583.5,-344.5 583.5,-344.5 583.5,-366.5 583.5,-366.5 583.5,-372.5 577.5,-378.5 571.5,-378.5 571.5,-378.5 457.5,-378.5 457.5,-378.5 451.5,-378.5 445.5,-372.5 445.5,-366.5 445.5,-366.5 445.5,-344.5 445.5,-344.5 445.5,-338.5 451.5,-332.5 457.5,-332.5"/>
<text text-anchor="middle" x="463" y="-363.3" font-family="Times,serif" font-size="14.00">12</text>
<polyline fill="none" stroke="black" points="480.5,-355.5 480.5,-378.5 "/>
<text text-anchor="middle" x="499.5" y="-363.3" font-family="Times,serif" font-size="14.00">OP</text>
<polyline fill="none" stroke="black" points="518.5,-355.5 518.5,-378.5 "/>
<text text-anchor="middle" x="551" y="-363.3" font-family="Times,serif" font-size="14.00">size=6</text>
<polyline fill="none" stroke="black" points="445.5,-355.5 583.5,-355.5 "/>
<text text-anchor="middle" x="514.5" y="-340.3" font-family="Times,serif" font-size="14.00">log</text>
</g>
<!-- node8&#45;&gt;node12 -->
<g id="edge22" class="edge">
<title>node8&#45;&gt;node12</title>
<path fill="none" stroke="green" d="M508.41,-415.37C507.78,-407.15 507.6,-397.66 507.88,-388.73"/>
<polygon fill="green" stroke="green" points="511.38,-388.78 508.41,-378.61 504.39,-388.41 511.38,-388.78"/>
</g>
<!-- node9&#45;&gt;node8 -->
<g id="edge17" class="edge">
<title>node9&#45;&gt;node8</title>
<path fill="none" stroke="blue" d="M315.09,-374.56C352.55,-385.71 399.86,-400.16 439.02,-412.41"/>
<polygon fill="blue" stroke="blue" points="438.2,-415.82 448.79,-415.47 440.3,-409.14 438.2,-415.82"/>
</g>
<!-- node10 -->
<g id="node10" class="node">
<title>node10</title>
<path fill="pink" stroke="black" d="M12,-249.5C12,-249.5 143,-249.5 143,-249.5 149,-249.5 155,-255.5 155,-261.5 155,-261.5 155,-283.5 155,-283.5 155,-289.5 149,-295.5 143,-295.5 143,-295.5 12,-295.5 12,-295.5 6,-295.5 0,-289.5 0,-283.5 0,-283.5 0,-261.5 0,-261.5 0,-255.5 6,-249.5 12,-249.5"/>
<text text-anchor="middle" x="17.5" y="-280.3" font-family="Times,serif" font-size="14.00">10</text>
<polyline fill="none" stroke="black" points="35,-272.5 35,-295.5 "/>
<text text-anchor="middle" x="62.5" y="-280.3" font-family="Times,serif" font-size="14.00">NUM</text>
<polyline fill="none" stroke="black" points="90,-272.5 90,-295.5 "/>
<text text-anchor="middle" x="122.5" y="-280.3" font-family="Times,serif" font-size="14.00">size=1</text>
<polyline fill="none" stroke="black" points="0,-272.5 155,-272.5 "/>
<text text-anchor="middle" x="77.5" y="-257.3" font-family="Times,serif" font-size="14.00">5</text>
</g>
<!-- node9&#45;&gt;node10 -->
<g id="edge18" class="edge">
<title>node9&#45;&gt;node10</title>
<path fill="none" stroke="red" d="M197.14,-332.37C175.01,-322.37 149.5,-310.47 127.72,-300"/>
<polygon fill="red" stroke="red" points="129.15,-296.81 118.63,-295.61 126.11,-303.11 129.15,-296.81"/>
</g>
<!-- node11 -->
<g id="node11" class="node">
<title>node11</title>
<path fill="pink" stroke="black" d="M185,-249.5C185,-249.5 316,-249.5 316,-249.5 322,-249.5 328,-255.5 328,-261.5 328,-261.5 328,-283.5 328,-283.5 328,-289.5 322,-295.5 316,-295.5 316,-295.5 185,-295.5 185,-295.5 179,-295.5 173,-289.5 173,-283.5 173,-283.5 173,-261.5 173,-261.5 173,-255.5 179,-249.5 185,-249.5"/>
<text text-anchor="middle" x="190.5" y="-280.3" font-family="Times,serif" font-size="14.00">11</text>
<polyline fill="none" stroke="black" points="208,-272.5 208,-295.5 "/>
<text text-anchor="middle" x="235.5" y="-280.3" font-family="Times,serif" font-size="14.00">NUM</text>
<polyline fill="none" stroke="black" points="263,-272.5 263,-295.5 "/>
<text text-anchor="middle" x="295.5" y="-280.3" font-family="Times,serif" font-size="14.00">size=1</text>
<polyline fill="none" stroke="black" points="173,-272.5 328,-272.5 "/>
<text text-anchor="middle" x="250.5" y="-257.3" font-family="Times,serif" font-size="14.00">10</text>
</g>
<!-- node9&#45;&gt;node11 -->
<g id="edge20" class="edge">
<title>node9&#45;&gt;node11</title>
<path fill="none" stroke="green" d="M244.41,-332.37C243.78,-324.15 243.6,-314.66 243.88,-305.73"/>
<polygon fill="green" stroke="green" points="247.38,-305.78 244.41,-295.61 240.39,-305.41 247.38,-305.78"/>
</g>
<!-- node10&#45;&gt;node9 -->
<g id="edge19" class="edge">
<title>node10&#45;&gt;node9</title>
<path fill="none" stroke="blue" d="M130.8,-295.61C152.93,-305.6 178.43,-317.5 200.23,-327.97"/>
<polygon fill="blue" stroke="blue" points="198.79,-331.17 209.32,-332.37 201.84,-324.87 198.79,-331.17"/>
</g>
<!-- node11&#45;&gt;node9 -->
<g id="edge21" class="edge">
<title>node11&#45;&gt;node9</title>
<path fill="none" stroke="blue" d="M256.59,-295.61C257.22,-303.82 257.4,-313.31 257.12,-322.25"/>
<polygon fill="blue" stroke="blue" points="253.62,-322.2 256.59,-332.37 260.61,-322.56 253.62,-322.2"/>
</g>
<!-- node12&#45;&gt;node8 -->
<g id="edge23" class="edge">
<title>node12&#45;&gt;node8</title>
<path fill="none" stroke="blue" d="M520.59,-378.61C521.22,-386.82 521.4,-396.31 521.12,-405.25"/>
<polygon fill="blue" stroke="blue" points="517.62,-405.2 520.59,-415.37 524.61,-405.56 517.62,-405.2"/>
</g>
<!-- node13 -->
<g id="node13" class="node">
<title>node13</title>
<path fill="pink" stroke="black" d="M358,-249.5C358,-249.5 489,-249.5 489,-249.5 495,-249.5 501,-255.5 501,-261.5 501,-261.5 501,-283.5 501,-283.5 501,-289.5 495,-295.5 489,-295.5 489,-295.5 358,-295.5 358,-295.5 352,-295.5 346,-289.5 346,-283.5 346,-283.5 346,-261.5 346,-261.5 346,-255.5 352,-249.5 358,-249.5"/>
<text text-anchor="middle" x="363.5" y="-280.3" font-family="Times,serif" font-size="14.00">13</text>
<polyline fill="none" stroke="black" points="381,-272.5 381,-295.5 "/>
<text text-anchor="middle" x="408.5" y="-280.3" font-family="Times,serif" font-size="14.00">NUM</text>
<polyline fill="none" stroke="black" points="436,-272.5 436,-295.5 "/>
<text text-anchor="middle" x="468.5" y="-280.3" font-family="Times,serif" font-size="14.00">size=1</text>
<polyline fill="none" stroke="black" points="346,-272.5 501,-272.5 "/>
<text text-anchor="middle" x="423.5" y="-257.3" font-family="Times,serif" font-size="14.00">10</text>
</g>
<!-- node12&#45;&gt;node13 -->
<g id="edge24" class="edge">
<title>node12&#45;&gt;node13</title>
<path fill="none" stroke="red" d="M483.54,-332.37C472.5,-323.17 460.23,-312.37 449.63,-302.55"/>
<polygon fill="red" stroke="red" points="451.93,-299.91 442.25,-295.61 447.14,-305.01 451.93,-299.91"/>
</g>
<!-- node14 -->
<g id="node14" class="node">
<title>node14</title>
<path fill="peachpuff" stroke="black" d="M531.5,-249.5C531.5,-249.5 645.5,-249.5 645.5,-249.5 651.5,-249.5 657.5,-255.5 657.5,-261.5 657.5,-261.5 657.5,-283.5 657.5,-283.5 657.5,-289.5 651.5,-295.5 645.5,-295.5 645.5,-295.5 531.5,-295.5 531.5,-295.5 525.5,-295.5 519.5,-289.5 519.5,-283.5 519.5,-283.5 519.5,-261.5 519.5,-261.5 519.5,-255.5 525.5,-249.5 531.5,-249.5"/>
<text text-anchor="middle" x="537" y="-280.3" font-family="Times,serif" font-size="14.00">14</text>
<polyline fill="none" stroke="black" points="554.5,-272.5 554.5,-295.5 "/>
<text text-anchor="middle" x="573.5" y="-280.3" font-family="Times,serif" font-size="14.00">OP</text>
<polyline fill="none" stroke="black" points="592.5,-272.5 592.5,-295.5 "/>
<text text-anchor="middle" x="625" y="-280.3" font-family="Times,serif" font-size="14.00">size=4</text>
<polyline fill="none" stroke="black" points="519.5,-272.5 657.5,-272.5 "/>
<text text-anchor="middle" x="588.5" y="-257.3" font-family="Times,serif" font-size="14.00">*</text>
</g>
<!-- node12&#45;&gt;node14 -->
<g id="edge26" class="edge">
<title>node12&#45;&gt;node14</title>
<path fill="none" stroke="green" d="M528.63,-332.37C536.25,-323.26 545.86,-312.58 555.18,-302.83"/>
<polygon fill="green" stroke="green" points="557.75,-305.22 562.21,-295.61 552.73,-300.33 557.75,-305.22"/>
</g>
<!-- node13&#45;&gt;node12 -->
<g id="edge25" class="edge">
<title>node13&#45;&gt;node12</title>
<path fill="none" stroke="blue" d="M454.42,-295.61C465.46,-304.8 477.73,-315.6 488.34,-325.42"/>
<polygon fill="blue" stroke="blue" points="486.04,-328.07 495.72,-332.37 490.84,-322.97 486.04,-328.07"/>
</g>
<!-- node14&#45;&gt;node12 -->
<g id="edge27" class="edge">
<title>node14&#45;&gt;node12</title>
<path fill="none" stroke="blue" d="M574.39,-295.61C566.78,-304.71 557.16,-315.39 547.84,-325.14"/>
<polygon fill="blue" stroke="blue" points="545.28,-322.76 540.81,-332.37 550.29,-327.64 545.28,-322.76"/>
</g>
<!-- node15 -->
<g id="node15" class="node">
<title>node15</title>
<path fill="pink" stroke="black" d="M358,-166.5C358,-166.5 489,-166.5 489,-166.5 495,-166.5 501,-172.5 501,-178.5 501,-178.5 501,-200.5 501,-200.5 501,-206.5 495,-212.5 489,-212.5 489,-212.5 358,-212.5 358,-212.5 352,-212.5 346,-206.5 346,-200.5 346,-200.5 346,-178.5 346,-178.5 346,-172.5 352,-166.5 358,-166.5"/>
<text text-anchor="middle" x="363.5" y="-197.3" font-family="Times,serif" font-size="14.00">15</text>
<polyline fill="none" stroke="black" points="381,-189.5 381,-212.5 "/>
<text text-anchor="middle" x="408.5" y="-197.3" font-family="Times,serif" font-size="14.00">NUM</text>
<polyline fill="none" stroke="black" points="436,-189.5 436,-212.5 "/>
<text text-anchor="middle" x="468.5" y="-197.3" font-family="Times,serif" font-size="14.00">size=1</text>
<polyline fill="none" stroke="black" points="346,-189.5 501,-189.5 "/>
<text text-anchor="middle" x="423.5" y="-174.3" font-family="Times,serif" font-size="14.00">2</text>
</g>
<!-- node14&#45;&gt;node15 -->
<g id="edge28" class="edge">
<title>node14&#45;&gt;node15</title>
<path fill="none" stroke="red" d="M537.32,-249.37C516.28,-239.41 492.07,-227.58 471.38,-217.14"/>
<polygon fill="red" stroke="red" points="472.95,-214.01 462.44,-212.61 469.78,-220.25 472.95,-214.01"/>
</g>
<!-- node16 -->
<g id="node16" class="node">
<title>node16</title>
<path fill="peachpuff" stroke="black" d="M531.5,-166.5C531.5,-166.5 645.5,-166.5 645.5,-166.5 651.5,-166.5 657.5,-172.5 657.5,-178.5 657.5,-178.5 657.5,-200.5 657.5,-200.5 657.5,-206.5 651.5,-212.5 645.5,-212.5 645.5,-212.5 531.5,-212.5 531.5,-212.5 525.5,-212.5 519.5,-206.5 519.5,-200.5 519.5,-200.5 519.5,-178.5 519.5,-178.5 519.5,-172.5 525.5,-166.5 531.5,-166.5"/>
<text text-anchor="middle" x="537" y="-197.3" font-family="Times,serif" font-size="14.00">16</text>
<polyline fill="none" stroke="black" points="554.5,-189.5 554.5,-212.5 "/>
<text text-anchor="middle" x="573.5" y="-197.3" font-family="Times,serif" font-size="14.00">OP</text>
<polyline fill="none" stroke="black" points="592.5,-189.5 592.5,-212.5 "/>
<text text-anchor="middle" x="625" y="-197.3" font-family="Times,serif" font-size="14.00">size=2</text>
<polyline fill="none" stroke="black" points="519.5,-189.5 657.5,-189.5 "/>
<text text-anchor="middle" x="588.5" y="-174.3" font-family="Times,serif" font-size="14.00">arccos</text>
</g>
<!-- node14&#45;&gt;node16 -->
<g id="edge30" class="edge">
<title>node14&#45;&gt;node16</title>
<path fill="none" stroke="green" d="M582.41,-249.37C581.78,-241.15 581.6,-231.66 581.88,-222.73"/>
<polygon fill="green" stroke="green" points="585.38,-222.78 582.41,-212.61 578.39,-222.41 585.38,-222.78"/>
</g>
<!-- node15&#45;&gt;node14 -->
<g id="edge29" class="edge">
<title>node15&#45;&gt;node14</title>
<path fill="none" stroke="blue" d="M474.62,-212.61C495.66,-222.56 519.87,-234.39 540.57,-244.83"/>
<polygon fill="blue" stroke="blue" points="539,-247.96 549.5,-249.37 542.17,-241.72 539,-247.96"/>
</g>
<!-- node16&#45;&gt;node14 -->
<g id="edge31" class="edge">
<title>node16&#45;&gt;node14</title>
<path fill="none" stroke="blue" d="M594.59,-212.61C595.22,-220.82 595.4,-230.31 595.12,-239.25"/>
<polygon fill="blue" stroke="blue" points="591.62,-239.2 594.59,-249.37 598.61,-239.56 591.62,-239.2"/>
</g>
<!-- node17 -->
<g id="node17" class="node">
<title>node17</title>
<path fill="lightyellow" stroke="black" d="M526.5,-83.5C526.5,-83.5 648.5,-83.5 648.5,-83.5 654.5,-83.5 660.5,-89.5 660.5,-95.5 660.5,-95.5 660.5,-117.5 660.5,-117.5 660.5,-123.5 654.5,-129.5 648.5,-129.5 648.5,-129.5 526.5,-129.5 526.5,-129.5 520.5,-129.5 514.5,-123.5 514.5,-117.5 514.5,-117.5 514.5,-95.5 514.5,-95.5 514.5,-89.5 520.5,-83.5 526.5,-83.5"/>
<text text-anchor="middle" x="532" y="-114.3" font-family="Times,serif" font-size="14.00">17</text>
<polyline fill="none" stroke="black" points="549.5,-106.5 549.5,-129.5 "/>
<text text-anchor="middle" x="572.5" y="-114.3" font-family="Times,serif" font-size="14.00">VAR</text>
<polyline fill="none" stroke="black" points="595.5,-106.5 595.5,-129.5 "/>
<text text-anchor="middle" x="628" y="-114.3" font-family="Times,serif" font-size="14.00">size=1</text>
<polyline fill="none" stroke="black" points="514.5,-106.5 660.5,-106.5 "/>
<text text-anchor="middle" x="587.5" y="-91.3" font-family="Times,serif" font-size="14.00">x</text>
</g>
<!-- node16&#45;&gt;node17 -->
<g id="edge32" class="edge">
<title>node16&#45;&gt;node17</title>
<path fill="none" stroke="red" d="M582.14,-166.37C581.4,-158.15 581.11,-148.66 581.27,-139.73"/>
<polygon fill="red" stroke="red" points="584.78,-139.74 581.68,-129.61 577.78,-139.46 584.78,-139.74"/>
</g>
<!-- node17&#45;&gt;node16 -->
<g id="edge33" class="edge">
<title>node17&#45;&gt;node16</title>
<path fill="none" stroke="blue" d="M593.86,-129.61C594.6,-137.82 594.89,-147.31 594.73,-156.25"/>
<polygon fill="blue" stroke="blue" points="591.22,-156.23 594.32,-166.37 598.22,-156.52 591.22,-156.23"/>
</g>
<!-- node18&#45;&gt;node7 -->
<g id="edge35" class="edge">
<title>node18&#45;&gt;node7</title>
<path fill="none" stroke="blue" d="M702.98,-461.64C669.87,-472.6 628.89,-485.83 593.59,-496.98"/>
<polygon fill="blue" stroke="blue" points="592.28,-493.72 583.79,-500.06 594.38,-500.4 592.28,-493.72"/>
</g>
<!-- node19 -->
<g id="node19" class="node">
<title>node19</title>
<path fill="peachpuff" stroke="black" d="M708.5,-332.5C708.5,-332.5 822.5,-332.5 822.5,-332.5 828.5,-332.5 834.5,-338.5 834.5,-344.5 834.5,-344.5 834.5,-366.5 834.5,-366.5 834.5,-372.5 828.5,-378.5 822.5,-378.5 822.5,-378.5 708.5,-378.5 708.5,-378.5 702.5,-378.5 696.5,-372.5 696.5,-366.5 696.5,-366.5 696.5,-344.5 696.5,-344.5 696.5,-338.5 702.5,-332.5 708.5,-332.5"/>
<text text-anchor="middle" x="714" y="-363.3" font-family="Times,serif" font-size="14.00">19</text>
<polyline fill="none" stroke="black" points="731.5,-355.5 731.5,-378.5 "/>
<text text-anchor="middle" x="750.5" y="-363.3" font-family="Times,serif" font-size="14.00">OP</text>
<polyline fill="none" stroke="black" points="769.5,-355.5 769.5,-378.5 "/>
<text text-anchor="middle" x="802" y="-363.3" font-family="Times,serif" font-size="14.00">size=9</text>
<polyline fill="none" stroke="black" points="696.5,-355.5 834.5,-355.5 "/>
<text text-anchor="middle" x="765.5" y="-340.3" font-family="Times,serif" font-size="14.00">+</text>
</g>
<!-- node18&#45;&gt;node19 -->
<g id="edge36" class="edge">
<title>node18&#45;&gt;node19</title>
<path fill="none" stroke="red" d="M759.41,-415.37C758.78,-407.15 758.6,-397.66 758.88,-388.73"/>
<polygon fill="red" stroke="red" points="762.38,-388.78 759.41,-378.61 755.39,-388.41 762.38,-388.78"/>
</g>
<!-- node28 -->
<g id="node28" class="node">
<title>node28</title>
<path fill="peachpuff" stroke="black" d="M1110,-332.5C1110,-332.5 1233,-332.5 1233,-332.5 1239,-332.5 1245,-338.5 1245,-344.5 1245,-344.5 1245,-366.5 1245,-366.5 1245,-372.5 1239,-378.5 1233,-378.5 1233,-378.5 1110,-378.5 1110,-378.5 1104,-378.5 1098,-372.5 1098,-366.5 1098,-366.5 1098,-344.5 1098,-344.5 1098,-338.5 1104,-332.5 1110,-332.5"/>
<text text-anchor="middle" x="1115.5" y="-363.3" font-family="Times,serif" font-size="14.00">28</text>
<polyline fill="none" stroke="black" points="1133,-355.5 1133,-378.5 "/>
<text text-anchor="middle" x="1152" y="-363.3" font-family="Times,serif" font-size="14.00">OP</text>
<polyline fill="none" stroke="black" points="1171,-355.5 1171,-378.5 "/>
<text text-anchor="middle" x="1208" y="-363.3" font-family="Times,serif" font-size="14.00">size=11</text>
<polyline fill="none" stroke="black" points="1098,-355.5 1245,-355.5 "/>
<text text-anchor="middle" x="1171.5" y="-340.3" font-family="Times,serif" font-size="14.00">^</text>
</g>
<!-- node18&#45;&gt;node28 -->
<g id="edge54" class="edge">
<title>node18&#45;&gt;node28</title>
<path fill="none" stroke="green" d="M839.21,-417.04C842.34,-416.34 845.45,-415.66 848.5,-415 929.33,-397.6 1022.51,-380.63 1088.02,-369.48"/>
<polygon fill="green" stroke="green" points="1088.61,-372.93 1097.89,-367.81 1087.45,-366.03 1088.61,-372.93"/>
</g>
<!-- node19&#45;&gt;node18 -->
<g id="edge37" class="edge">
<title>node19&#45;&gt;node18</title>
<path fill="none" stroke="blue" d="M771.59,-378.61C772.22,-386.82 772.4,-396.31 772.12,-405.25"/>
<polygon fill="blue" stroke="blue" points="768.62,-405.2 771.59,-415.37 775.61,-405.56 768.62,-405.2"/>
</g>
<!-- node20 -->
<g id="node20" class="node">
<title>node20</title>
<path fill="peachpuff" stroke="black" d="M703.5,-249.5C703.5,-249.5 817.5,-249.5 817.5,-249.5 823.5,-249.5 829.5,-255.5 829.5,-261.5 829.5,-261.5 829.5,-283.5 829.5,-283.5 829.5,-289.5 823.5,-295.5 817.5,-295.5 817.5,-295.5 703.5,-295.5 703.5,-295.5 697.5,-295.5 691.5,-289.5 691.5,-283.5 691.5,-283.5 691.5,-261.5 691.5,-261.5 691.5,-255.5 697.5,-249.5 703.5,-249.5"/>
<text text-anchor="middle" x="709" y="-280.3" font-family="Times,serif" font-size="14.00">20</text>
<polyline fill="none" stroke="black" points="726.5,-272.5 726.5,-295.5 "/>
<text text-anchor="middle" x="745.5" y="-280.3" font-family="Times,serif" font-size="14.00">OP</text>
<polyline fill="none" stroke="black" points="764.5,-272.5 764.5,-295.5 "/>
<text text-anchor="middle" x="797" y="-280.3" font-family="Times,serif" font-size="14.00">size=7</text>
<polyline fill="none" stroke="black" points="691.5,-272.5 829.5,-272.5 "/>
<text text-anchor="middle" x="760.5" y="-257.3" font-family="Times,serif" font-size="14.00">*</text>
</g>
<!-- node19&#45;&gt;node20 -->
<g id="edge38" class="edge">
<title>node19&#45;&gt;node20</title>
<path fill="none" stroke="red" d="M758.04,-332.37C756.9,-324.15 756.14,-314.66 755.87,-305.73"/>
<polygon fill="red" stroke="red" points="759.36,-305.58 755.78,-295.61 752.37,-305.64 759.36,-305.58"/>
</g>
<!-- node27 -->
<g id="node27" class="node">
<title>node27</title>
<path fill="pink" stroke="black" d="M860,-249.5C860,-249.5 991,-249.5 991,-249.5 997,-249.5 1003,-255.5 1003,-261.5 1003,-261.5 1003,-283.5 1003,-283.5 1003,-289.5 997,-295.5 991,-295.5 991,-295.5 860,-295.5 860,-295.5 854,-295.5 848,-289.5 848,-283.5 848,-283.5 848,-261.5 848,-261.5 848,-255.5 854,-249.5 860,-249.5"/>
<text text-anchor="middle" x="865.5" y="-280.3" font-family="Times,serif" font-size="14.00">27</text>
<polyline fill="none" stroke="black" points="883,-272.5 883,-295.5 "/>
<text text-anchor="middle" x="910.5" y="-280.3" font-family="Times,serif" font-size="14.00">NUM</text>
<polyline fill="none" stroke="black" points="938,-272.5 938,-295.5 "/>
<text text-anchor="middle" x="970.5" y="-280.3" font-family="Times,serif" font-size="14.00">size=1</text>
<polyline fill="none" stroke="black" points="848,-272.5 1003,-272.5 "/>
<text text-anchor="middle" x="925.5" y="-257.3" font-family="Times,serif" font-size="14.00">1</text>
</g>
<!-- node19&#45;&gt;node27 -->
<g id="edge52" class="edge">
<title>node19&#45;&gt;node27</title>
<path fill="none" stroke="green" d="M803.13,-332.37C822.03,-322.41 845.31,-310.58 866.5,-300.14"/>
<polygon fill="green" stroke="green" points="868.3,-303.15 875.74,-295.61 865.22,-296.86 868.3,-303.15"/>
</g>
<!-- node20&#45;&gt;node19 -->
<g id="edge39" class="edge">
<title>node20&#45;&gt;node19</title>
<path fill="none" stroke="blue" d="M767.95,-295.61C769.09,-303.82 769.86,-313.31 770.13,-322.25"/>
<polygon fill="blue" stroke="blue" points="766.63,-322.4 770.22,-332.37 773.63,-322.34 766.63,-322.4"/>
</g>
<!-- node21 -->
<g id="node21" class="node">
<title>node21</title>
<path fill="pink" stroke="black" d="M690,-166.5C690,-166.5 821,-166.5 821,-166.5 827,-166.5 833,-172.5 833,-178.5 833,-178.5 833,-200.5 833,-200.5 833,-206.5 827,-212.5 821,-212.5 821,-212.5 690,-212.5 690,-212.5 684,-212.5 678,-206.5 678,-200.5 678,-200.5 678,-178.5 678,-178.5 678,-172.5 684,-166.5 690,-166.5"/>
<text text-anchor="middle" x="695.5" y="-197.3" font-family="Times,serif" font-size="14.00">21</text>
<polyline fill="none" stroke="black" points="713,-189.5 713,-212.5 "/>
<text text-anchor="middle" x="740.5" y="-197.3" font-family="Times,serif" font-size="14.00">NUM</text>
<polyline fill="none" stroke="black" points="768,-189.5 768,-212.5 "/>
<text text-anchor="middle" x="800.5" y="-197.3" font-family="Times,serif" font-size="14.00">size=1</text>
<polyline fill="none" stroke="black" points="678,-189.5 833,-189.5 "/>
<text text-anchor="middle" x="755.5" y="-174.3" font-family="Times,serif" font-size="14.00">3</text>
</g>
<!-- node20&#45;&gt;node21 -->
<g id="edge40" class="edge">
<title>node20&#45;&gt;node21</title>
<path fill="none" stroke="red" d="M753.04,-249.37C751.9,-241.15 751.14,-231.66 750.87,-222.73"/>
<polygon fill="red" stroke="red" points="754.36,-222.58 750.78,-212.61 747.37,-222.64 754.36,-222.58"/>
</g>
<!-- node22 -->
<g id="node22" class="node">
<title>node22</title>
<path fill="peachpuff" stroke="black" d="M863.5,-166.5C863.5,-166.5 977.5,-166.5 977.5,-166.5 983.5,-166.5 989.5,-172.5 989.5,-178.5 989.5,-178.5 989.5,-200.5 989.5,-200.5 989.5,-206.5 983.5,-212.5 977.5,-212.5 977.5,-212.5 863.5,-212.5 863.5,-212.5 857.5,-212.5 851.5,-206.5 851.5,-200.5 851.5,-200.5 851.5,-178.5 851.5,-178.5 851.5,-172.5 857.5,-166.5 863.5,-166.5"/>
<text text-anchor="middle" x="869" y="-197.3" font-family="Times,serif" font-size="14.00">22</text>
<polyline fill="none" stroke="black" points="886.5,-189.5 886.5,-212.5 "/>
<text text-anchor="middle" x="905.5" y="-197.3" font-family="Times,serif" font-size="14.00">OP</text>
<polyline fill="none" stroke="black" points="924.5,-189.5 924.5,-212.5 "/>
<text text-anchor="middle" x="957" y="-197.3" font-family="Times,serif" font-size="14.00">size=5</text>
<polyline fill="none" stroke="black" points="851.5,-189.5 989.5,-189.5 "/>
<text text-anchor="middle" x="920.5" y="-174.3" font-family="Times,serif" font-size="14.00">&#45;</text>
</g>
<!-- node20&#45;&gt;node22 -->
<g id="edge42" class="edge">
<title>node20&#45;&gt;node22</title>
<path fill="none" stroke="green" d="M798.13,-249.37C817.03,-239.41 840.31,-227.58 861.5,-217.14"/>
<polygon fill="green" stroke="green" points="863.3,-220.15 870.74,-212.61 860.22,-213.86 863.3,-220.15"/>
</g>
<!-- node21&#45;&gt;node20 -->
<g id="edge41" class="edge">
<title>node21&#45;&gt;node20</title>
<path fill="none" stroke="blue" d="M762.95,-212.61C764.09,-220.82 764.86,-230.31 765.13,-239.25"/>
<polygon fill="blue" stroke="blue" points="761.63,-239.4 765.22,-249.37 768.63,-239.34 761.63,-239.4"/>
</g>
<!-- node22&#45;&gt;node20 -->
<g id="edge43" class="edge">
<title>node22&#45;&gt;node20</title>
<path fill="none" stroke="blue" d="M882.92,-212.61C864.03,-222.56 840.75,-234.39 819.56,-244.83"/>
<polygon fill="blue" stroke="blue" points="817.75,-241.82 810.31,-249.37 820.83,-248.11 817.75,-241.82"/>
</g>
<!-- node23 -->
<g id="node23" class="node">
<title>node23</title>
<path fill="pink" stroke="black" d="M691,-83.5C691,-83.5 822,-83.5 822,-83.5 828,-83.5 834,-89.5 834,-95.5 834,-95.5 834,-117.5 834,-117.5 834,-123.5 828,-129.5 822,-129.5 822,-129.5 691,-129.5 691,-129.5 685,-129.5 679,-123.5 679,-117.5 679,-117.5 679,-95.5 679,-95.5 679,-89.5 685,-83.5 691,-83.5"/>
<text text-anchor="middle" x="696.5" y="-114.3" font-family="Times,serif" font-size="14.00">23</text>
<polyline fill="none" stroke="black" points="714,-106.5 714,-129.5 "/>
<text text-anchor="middle" x="741.5" y="-114.3" font-family="Times,serif" font-size="14.00">NUM</text>
<polyline fill="none" stroke="black" points="769,-106.5 769,-129.5 "/>
<text text-anchor="middle" x="801.5" y="-114.3" font-family="Times,serif" font-size="14.00">size=1</text>
<polyline fill="none" stroke="black" points="679,-106.5 834,-106.5 "/>
<text text-anchor="middle" x="756.5" y="-91.3" font-family="Times,serif" font-size="14.00">2,5</text>
</g>
<!-- node22&#45;&gt;node23 -->
<g id="edge44" class="edge">
<title>node22&#45;&gt;node23</title>
<path fill="none" stroke="red" d="M869.6,-166.37C848.77,-156.46 824.83,-144.68 804.33,-134.28"/>
<polygon fill="red" stroke="red" points="805.67,-131.03 795.17,-129.61 802.49,-137.27 805.67,-131.03"/>
</g>
<!-- node24 -->
<g id="node24" class="node">
<title>node24</title>
<path fill="peachpuff" stroke="black" d="M864.5,-83.5C864.5,-83.5 978.5,-83.5 978.5,-83.5 984.5,-83.5 990.5,-89.5 990.5,-95.5 990.5,-95.5 990.5,-117.5 990.5,-117.5 990.5,-123.5 984.5,-129.5 978.5,-129.5 978.5,-129.5 864.5,-129.5 864.5,-129.5 858.5,-129.5 852.5,-123.5 852.5,-117.5 852.5,-117.5 852.5,-95.5 852.5,-95.5 852.5,-89.5 858.5,-83.5 864.5,-83.5"/>
<text text-anchor="middle" x="870" y="-114.3" font-family="Times,serif" font-size="14.00">24</text>
<polyline fill="none" stroke="black" points="887.5,-106.5 887.5,-129.5 "/>
<text text-anchor="middle" x="906.5" y="-114.3" font-family="Times,serif" font-size="14.00">OP</text>
<polyline fill="none" stroke="black" points="925.5,-106.5 925.5,-129.5 "/>
<text text-anchor="middle" x="958" y="-114.3" font-family="Times,serif" font-size="14.00">size=3</text>
<polyline fill="none" stroke="black" points="852.5,-106.5 990.5,-106.5 "/>
<text text-anchor="middle" x="921.5" y="-91.3" font-family="Times,serif" font-size="14.00">/</text>
</g>
<!-- node22&#45;&gt;node24 -->
<g id="edge46" class="edge">
<title>node22&#45;&gt;node24</title>
<path fill="none" stroke="green" d="M914.68,-166.37C914.15,-158.15 914.09,-148.66 914.48,-139.73"/>
<polygon fill="green" stroke="green" points="917.98,-139.81 915.14,-129.61 911,-139.36 917.98,-139.81"/>
</g>
<!-- node23&#45;&gt;node22 -->
<g id="edge45" class="edge">
<title>node23&#45;&gt;node22</title>
<path fill="none" stroke="blue" d="M807.35,-129.61C828.17,-139.51 852.11,-151.29 872.62,-161.69"/>
<polygon fill="blue" stroke="blue" points="871.28,-164.94 881.78,-166.37 874.46,-158.7 871.28,-164.94"/>
</g>
<!-- node24&#45;&gt;node22 -->
<g id="edge47" class="edge">
<title>node24&#45;&gt;node22</title>
<path fill="none" stroke="blue" d="M927.32,-129.61C927.85,-137.82 927.91,-147.31 927.52,-156.25"/>
<polygon fill="blue" stroke="blue" points="924.02,-156.16 926.86,-166.37 931.01,-156.61 924.02,-156.16"/>
</g>
<!-- node25 -->
<g id="node25" class="node">
<title>node25</title>
<path fill="pink" stroke="black" d="M770,-0.5C770,-0.5 901,-0.5 901,-0.5 907,-0.5 913,-6.5 913,-12.5 913,-12.5 913,-34.5 913,-34.5 913,-40.5 907,-46.5 901,-46.5 901,-46.5 770,-46.5 770,-46.5 764,-46.5 758,-40.5 758,-34.5 758,-34.5 758,-12.5 758,-12.5 758,-6.5 764,-0.5 770,-0.5"/>
<text text-anchor="middle" x="775.5" y="-31.3" font-family="Times,serif" font-size="14.00">25</text>
<polyline fill="none" stroke="black" points="793,-23.5 793,-46.5 "/>
<text text-anchor="middle" x="820.5" y="-31.3" font-family="Times,serif" font-size="14.00">NUM</text>
<polyline fill="none" stroke="black" points="848,-23.5 848,-46.5 "/>
<text text-anchor="middle" x="880.5" y="-31.3" font-family="Times,serif" font-size="14.00">size=1</text>
<polyline fill="none" stroke="black" points="758,-23.5 913,-23.5 "/>
<text text-anchor="middle" x="835.5" y="-8.3" font-family="Times,serif" font-size="14.00">0,1</text>
</g>
<!-- node24&#45;&gt;node25 -->
<g id="edge48" class="edge">
<title>node24&#45;&gt;node25</title>
<path fill="none" stroke="red" d="M891.91,-83.37C881.54,-74.26 870.06,-63.58 860.13,-53.83"/>
<polygon fill="red" stroke="red" points="862.43,-51.19 852.88,-46.61 857.49,-56.15 862.43,-51.19"/>
</g>
<!-- node26 -->
<g id="node26" class="node">
<title>node26</title>
<path fill="pink" stroke="black" d="M943,-0.5C943,-0.5 1074,-0.5 1074,-0.5 1080,-0.5 1086,-6.5 1086,-12.5 1086,-12.5 1086,-34.5 1086,-34.5 1086,-40.5 1080,-46.5 1074,-46.5 1074,-46.5 943,-46.5 943,-46.5 937,-46.5 931,-40.5 931,-34.5 931,-34.5 931,-12.5 931,-12.5 931,-6.5 937,-0.5 943,-0.5"/>
<text text-anchor="middle" x="948.5" y="-31.3" font-family="Times,serif" font-size="14.00">26</text>
<polyline fill="none" stroke="black" points="966,-23.5 966,-46.5 "/>
<text text-anchor="middle" x="993.5" y="-31.3" font-family="Times,serif" font-size="14.00">NUM</text>
<polyline fill="none" stroke="black" points="1021,-23.5 1021,-46.5 "/>
<text text-anchor="middle" x="1053.5" y="-31.3" font-family="Times,serif" font-size="14.00">size=1</text>
<polyline fill="none" stroke="black" points="931,-23.5 1086,-23.5 "/>
<text text-anchor="middle" x="1008.5" y="-8.3" font-family="Times,serif" font-size="14.00">2</text>
</g>
<!-- node24&#45;&gt;node26 -->
<g id="edge50" class="edge">
<title>node24&#45;&gt;node26</title>
<path fill="none" stroke="green" d="M939.18,-83.37C948.44,-74.08 960.04,-63.16 971.12,-53.26"/>
<polygon fill="green" stroke="green" points="973.48,-55.84 978.67,-46.61 968.85,-50.59 973.48,-55.84"/>
</g>
<!-- node25&#45;&gt;node24 -->
<g id="edge49" class="edge">
<title>node25&#45;&gt;node24</title>
<path fill="none" stroke="blue" d="M865.06,-46.61C875.43,-55.71 886.91,-66.39 896.84,-76.14"/>
<polygon fill="blue" stroke="blue" points="894.54,-78.78 904.09,-83.37 899.48,-73.83 894.54,-78.78"/>
</g>
<!-- node26&#45;&gt;node24 -->
<g id="edge51" class="edge">
<title>node26&#45;&gt;node24</title>
<path fill="none" stroke="blue" d="M990.84,-46.61C981.59,-55.89 970,-66.81 958.92,-76.71"/>
<polygon fill="blue" stroke="blue" points="956.55,-74.13 951.36,-83.37 961.18,-79.38 956.55,-74.13"/>
</g>
<!-- node27&#45;&gt;node19 -->
<g id="edge53" class="edge">
<title>node27&#45;&gt;node19</title>
<path fill="none" stroke="blue" d="M887.92,-295.61C869.03,-305.56 845.75,-317.39 824.56,-327.83"/>
<polygon fill="blue" stroke="blue" points="822.75,-324.82 815.31,-332.37 825.83,-331.11 822.75,-324.82"/>
</g>
<!-- node28&#45;&gt;node18 -->
<g id="edge55" class="edge">
<title>node28&#45;&gt;node18</title>
<path fill="none" stroke="blue" d="M1097.93,-370.3C1036.02,-381.45 945.38,-398.02 866.5,-415 860.84,-416.22 854.99,-417.53 849.09,-418.88"/>
<polygon fill="blue" stroke="blue" points="848.1,-415.52 839.15,-421.19 849.68,-422.34 848.1,-415.52"/>
</g>
<!-- node29 -->
<g id="node29" class="node">
<title>node29</title>
<path fill="peachpuff" stroke="black" d="M1114.5,-249.5C1114.5,-249.5 1228.5,-249.5 1228.5,-249.5 1234.5,-249.5 1240.5,-255.5 1240.5,-261.5 1240.5,-261.5 1240.5,-283.5 1240.5,-283.5 1240.5,-289.5 1234.5,-295.5 1228.5,-295.5 1228.5,-295.5 1114.5,-295.5 1114.5,-295.5 1108.5,-295.5 1102.5,-289.5 1102.5,-283.5 1102.5,-283.5 1102.5,-261.5 1102.5,-261.5 1102.5,-255.5 1108.5,-249.5 1114.5,-249.5"/>
<text text-anchor="middle" x="1120" y="-280.3" font-family="Times,serif" font-size="14.00">29</text>
<polyline fill="none" stroke="black" points="1137.5,-272.5 1137.5,-295.5 "/>
<text text-anchor="middle" x="1156.5" y="-280.3" font-family="Times,serif" font-size="14.00">OP</text>
<polyline fill="none" stroke="black" points="1175.5,-272.5 1175.5,-295.5 "/>
<text text-anchor="middle" x="1208" y="-280.3" font-family="Times,serif" font-size="14.00">size=5</text>
<polyline fill="none" stroke="black" points="1102.5,-272.5 1240.5,-272.5 "/>
<text text-anchor="middle" x="1171.5" y="-257.3" font-family="Times,serif" font-size="14.00">/</text>
</g>
<!-- node28&#45;&gt;node29 -->
<g id="edge56" class="edge">
<title>node28&#45;&gt;node29</title>
<path fill="none" stroke="red" d="M1165.41,-332.37C1164.78,-324.15 1164.6,-314.66 1164.88,-305.73"/>
<polygon fill="red" stroke="red" points="1168.38,-305.78 1165.41,-295.61 1161.39,-305.41 1168.38,-305.78"/>
</g>
<!-- node34 -->
<g id="node34" class="node">
<title>node34</title>
<path fill="peachpuff" stroke="black" d="M1367.5,-249.5C1367.5,-249.5 1481.5,-249.5 1481.5,-249.5 1487.5,-249.5 1493.5,-255.5 1493.5,-261.5 1493.5,-261.5 1493.5,-283.5 1493.5,-283.5 1493.5,-289.5 1487.5,-295.5 1481.5,-295.5 1481.5,-295.5 1367.5,-295.5 1367.5,-295.5 1361.5,-295.5 1355.5,-289.5 1355.5,-283.5 1355.5,-283.5 1355.5,-261.5 1355.5,-261.5 1355.5,-255.5 1361.5,-249.5 1367.5,-249.5"/>
<text text-anchor="middle" x="1373" y="-280.3" font-family="Times,serif" font-size="14.00">34</text>
<polyline fill="none" stroke="black" points="1390.5,-272.5 1390.5,-295.5 "/>
<text text-anchor="middle" x="1409.5" y="-280.3" font-family="Times,serif" font-size="14.00">OP</text>
<polyline fill="none" stroke="black" points="1428.5,-272.5 1428.5,-295.5 "/>
<text text-anchor="middle" x="1461" y="-280.3" font-family="Times,serif" font-size="14.00">size=5</text>
<polyline fill="none" stroke="black" points="1355.5,-272.5 1493.5,-272.5 "/>
<text text-anchor="middle" x="1424.5" y="-257.3" font-family="Times,serif" font-size="14.00">^</text>
</g>
<!-- node28&#45;&gt;node34 -->
<g id="edge66" class="edge">
<title>node28&#45;&gt;node34</title>
<path fill="none" stroke="green" d="M1234.22,-332.47C1267.87,-321.43 1309.63,-308.04 1345.48,-296.82"/>
<polygon fill="green" stroke="green" points="1346.92,-300.04 1355.42,-293.72 1344.83,-293.36 1346.92,-300.04"/>
</g>
<!-- node29&#45;&gt;node28 -->
<g id="edge57" class="edge">
<title>node29&#45;&gt;node28</title>
<path fill="none" stroke="blue" d="M1177.59,-295.61C1178.22,-303.82 1178.4,-313.31 1178.12,-322.25"/>
<polygon fill="blue" stroke="blue" points="1174.62,-322.2 1177.59,-332.37 1181.61,-322.56 1174.62,-322.2"/>
</g>
<!-- node30 -->
<g id="node30" class="node">
<title>node30</title>
<path fill="peachpuff" stroke="black" d="M1029.5,-166.5C1029.5,-166.5 1143.5,-166.5 1143.5,-166.5 1149.5,-166.5 1155.5,-172.5 1155.5,-178.5 1155.5,-178.5 1155.5,-200.5 1155.5,-200.5 1155.5,-206.5 1149.5,-212.5 1143.5,-212.5 1143.5,-212.5 1029.5,-212.5 1029.5,-212.5 1023.5,-212.5 1017.5,-206.5 1017.5,-200.5 1017.5,-200.5 1017.5,-178.5 1017.5,-178.5 1017.5,-172.5 1023.5,-166.5 1029.5,-166.5"/>
<text text-anchor="middle" x="1035" y="-197.3" font-family="Times,serif" font-size="14.00">30</text>
<polyline fill="none" stroke="black" points="1052.5,-189.5 1052.5,-212.5 "/>
<text text-anchor="middle" x="1071.5" y="-197.3" font-family="Times,serif" font-size="14.00">OP</text>
<polyline fill="none" stroke="black" points="1090.5,-189.5 1090.5,-212.5 "/>
<text text-anchor="middle" x="1123" y="-197.3" font-family="Times,serif" font-size="14.00">size=3</text>
<polyline fill="none" stroke="black" points="1017.5,-189.5 1155.5,-189.5 "/>
<text text-anchor="middle" x="1086.5" y="-174.3" font-family="Times,serif" font-size="14.00">*</text>
</g>
<!-- node29&#45;&gt;node30 -->
<g id="edge58" class="edge">
<title>node29&#45;&gt;node30</title>
<path fill="none" stroke="red" d="M1142.18,-249.37C1131.92,-240.26 1120.58,-229.58 1110.77,-219.83"/>
<polygon fill="red" stroke="red" points="1113.13,-217.25 1103.61,-212.61 1108.16,-222.18 1113.13,-217.25"/>
</g>
<!-- node33 -->
<g id="node33" class="node">
<title>node33</title>
<path fill="pink" stroke="black" d="M1186,-166.5C1186,-166.5 1317,-166.5 1317,-166.5 1323,-166.5 1329,-172.5 1329,-178.5 1329,-178.5 1329,-200.5 1329,-200.5 1329,-206.5 1323,-212.5 1317,-212.5 1317,-212.5 1186,-212.5 1186,-212.5 1180,-212.5 1174,-206.5 1174,-200.5 1174,-200.5 1174,-178.5 1174,-178.5 1174,-172.5 1180,-166.5 1186,-166.5"/>
<text text-anchor="middle" x="1191.5" y="-197.3" font-family="Times,serif" font-size="14.00">33</text>
<polyline fill="none" stroke="black" points="1209,-189.5 1209,-212.5 "/>
<text text-anchor="middle" x="1236.5" y="-197.3" font-family="Times,serif" font-size="14.00">NUM</text>
<polyline fill="none" stroke="black" points="1264,-189.5 1264,-212.5 "/>
<text text-anchor="middle" x="1296.5" y="-197.3" font-family="Times,serif" font-size="14.00">size=1</text>
<polyline fill="none" stroke="black" points="1174,-189.5 1329,-189.5 "/>
<text text-anchor="middle" x="1251.5" y="-174.3" font-family="Times,serif" font-size="14.00">7</text>
</g>
<!-- node29&#45;&gt;node33 -->
<g id="edge64" class="edge">
<title>node29&#45;&gt;node33</title>
<path fill="none" stroke="green" d="M1187.27,-249.37C1195.65,-240.17 1206.17,-229.37 1216.31,-219.55"/>
<polygon fill="green" stroke="green" points="1218.76,-222.04 1223.58,-212.61 1213.93,-216.98 1218.76,-222.04"/>
</g>
<!-- node30&#45;&gt;node29 -->
<g id="edge59" class="edge">
<title>node30&#45;&gt;node29</title>
<path fill="none" stroke="blue" d="M1115.79,-212.61C1126.04,-221.71 1137.39,-232.39 1147.2,-242.14"/>
<polygon fill="blue" stroke="blue" points="1144.84,-244.72 1154.36,-249.37 1149.81,-239.8 1144.84,-244.72"/>
</g>
<!-- node31 -->
<g id="node31" class="node">
<title>node31</title>
<path fill="pink" stroke="black" d="M1021,-83.5C1021,-83.5 1152,-83.5 1152,-83.5 1158,-83.5 1164,-89.5 1164,-95.5 1164,-95.5 1164,-117.5 1164,-117.5 1164,-123.5 1158,-129.5 1152,-129.5 1152,-129.5 1021,-129.5 1021,-129.5 1015,-129.5 1009,-123.5 1009,-117.5 1009,-117.5 1009,-95.5 1009,-95.5 1009,-89.5 1015,-83.5 1021,-83.5"/>
<text text-anchor="middle" x="1026.5" y="-114.3" font-family="Times,serif" font-size="14.00">31</text>
<polyline fill="none" stroke="black" points="1044,-106.5 1044,-129.5 "/>
<text text-anchor="middle" x="1071.5" y="-114.3" font-family="Times,serif" font-size="14.00">NUM</text>
<polyline fill="none" stroke="black" points="1099,-106.5 1099,-129.5 "/>
<text text-anchor="middle" x="1131.5" y="-114.3" font-family="Times,serif" font-size="14.00">size=1</text>
<polyline fill="none" stroke="black" points="1009,-106.5 1164,-106.5 "/>
<text text-anchor="middle" x="1086.5" y="-91.3" font-family="Times,serif" font-size="14.00">2</text>
</g>
<!-- node30&#45;&gt;node31 -->
<g id="edge60" class="edge">
<title>node30&#45;&gt;node31</title>
<path fill="none" stroke="red" d="M1080.41,-166.37C1079.78,-158.15 1079.6,-148.66 1079.88,-139.73"/>
<polygon fill="red" stroke="red" points="1083.38,-139.78 1080.41,-129.61 1076.39,-139.41 1083.38,-139.78"/>
</g>
<!-- node32 -->
<g id="node32" class="node">
<title>node32</title>
<path fill="pink" stroke="black" d="M1194,-83.5C1194,-83.5 1325,-83.5 1325,-83.5 1331,-83.5 1337,-89.5 1337,-95.5 1337,-95.5 1337,-117.5 1337,-117.5 1337,-123.5 1331,-129.5 1325,-129.5 1325,-129.5 1194,-129.5 1194,-129.5 1188,-129.5 1182,-123.5 1182,-117.5 1182,-117.5 1182,-95.5 1182,-95.5 1182,-89.5 1188,-83.5 1194,-83.5"/>
<text text-anchor="middle" x="1199.5" y="-114.3" font-family="Times,serif" font-size="14.00">32</text>
<polyline fill="none" stroke="black" points="1217,-106.5 1217,-129.5 "/>
<text text-anchor="middle" x="1244.5" y="-114.3" font-family="Times,serif" font-size="14.00">NUM</text>
<polyline fill="none" stroke="black" points="1272,-106.5 1272,-129.5 "/>
<text text-anchor="middle" x="1304.5" y="-114.3" font-family="Times,serif" font-size="14.00">size=1</text>
<polyline fill="none" stroke="black" points="1182,-106.5 1337,-106.5 "/>
<text text-anchor="middle" x="1259.5" y="-91.3" font-family="Times,serif" font-size="14.00">16</text>
</g>
<!-- node30&#45;&gt;node32 -->
<g id="edge62" class="edge">
<title>node30&#45;&gt;node32</title>
<path fill="none" stroke="green" d="M1127.68,-166.37C1148.36,-156.32 1173.81,-144.36 1196.84,-133.86"/>
<polygon fill="green" stroke="green" points="1198.54,-136.93 1206.2,-129.61 1195.64,-130.56 1198.54,-136.93"/>
</g>
<!-- node31&#45;&gt;node30 -->
<g id="edge61" class="edge">
<title>node31&#45;&gt;node30</title>
<path fill="none" stroke="blue" d="M1092.59,-129.61C1093.22,-137.82 1093.4,-147.31 1093.12,-156.25"/>
<polygon fill="blue" stroke="blue" points="1089.62,-156.2 1092.59,-166.37 1096.61,-156.56 1089.62,-156.2"/>
</g>
<!-- node32&#45;&gt;node30 -->
<g id="edge63" class="edge">
<title>node32&#45;&gt;node30</title>
<path fill="none" stroke="blue" d="M1218.37,-129.61C1197.7,-139.65 1172.26,-151.61 1149.23,-162.11"/>
<polygon fill="blue" stroke="blue" points="1147.52,-159.04 1139.86,-166.37 1150.42,-165.42 1147.52,-159.04"/>
</g>
<!-- node33&#45;&gt;node29 -->
<g id="edge65" class="edge">
<title>node33&#45;&gt;node29</title>
<path fill="none" stroke="blue" d="M1235.75,-212.61C1227.38,-221.8 1216.86,-232.6 1206.72,-242.42"/>
<polygon fill="blue" stroke="blue" points="1204.27,-239.93 1199.45,-249.37 1209.1,-244.99 1204.27,-239.93"/>
</g>
<!-- node34&#45;&gt;node28 -->
<g id="edge67" class="edge">
<title>node34&#45;&gt;node28</title>
<path fill="none" stroke="blue" d="M1361.55,-295.6C1329.24,-306.21 1289.49,-318.96 1254.69,-329.87"/>
<polygon fill="blue" stroke="blue" points="1253.51,-326.57 1245.02,-332.9 1255.6,-333.25 1253.51,-326.57"/>
</g>
<!-- node35 -->
<g id="node35" class="node">
<title>node35</title>
<path fill="pink" stroke="black" d="M1359,-166.5C1359,-166.5 1490,-166.5 1490,-166.5 1496,-166.5 1502,-172.5 1502,-178.5 1502,-178.5 1502,-200.5 1502,-200.5 1502,-206.5 1496,-212.5 1490,-212.5 1490,-212.5 1359,-212.5 1359,-212.5 1353,-212.5 1347,-206.5 1347,-200.5 1347,-200.5 1347,-178.5 1347,-178.5 1347,-172.5 1353,-166.5 1359,-166.5"/>
<text text-anchor="middle" x="1364.5" y="-197.3" font-family="Times,serif" font-size="14.00">35</text>
<polyline fill="none" stroke="black" points="1382,-189.5 1382,-212.5 "/>
<text text-anchor="middle" x="1409.5" y="-197.3" font-family="Times,serif" font-size="14.00">NUM</text>
<polyline fill="none" stroke="black" points="1437,-189.5 1437,-212.5 "/>
<text text-anchor="middle" x="1469.5" y="-197.3" font-family="Times,serif" font-size="14.00">size=1</text>
<polyline fill="none" stroke="black" points="1347,-189.5 1502,-189.5 "/>
<text text-anchor="middle" x="1424.5" y="-174.3" font-family="Times,serif" font-size="14.00">4</text>
</g>
<!-- node34&#45;&gt;node35 -->
<g id="edge68" class="edge">
<title>node34&#45;&gt;node35</title>
<path fill="none" stroke="red" d="M1418.41,-249.37C1417.78,-241.15 1417.6,-231.66 1417.88,-222.73"/>
<polygon fill="red" stroke="red" points="1421.38,-222.78 1418.41,-212.61 1414.39,-222.41 1421.38,-222.78"/>
</g>
<!-- node36 -->
<g id="node36" class="node">
<title>node36</title>
<path fill="peachpuff" stroke="black" d="M1532.5,-166.5C1532.5,-166.5 1646.5,-166.5 1646.5,-166.5 1652.5,-166.5 1658.5,-172.5 1658.5,-178.5 1658.5,-178.5 1658.5,-200.5 1658.5,-200.5 1658.5,-206.5 1652.5,-212.5 1646.5,-212.5 1646.5,-212.5 1532.5,-212.5 1532.5,-212.5 1526.5,-212.5 1520.5,-206.5 1520.5,-200.5 1520.5,-200.5 1520.5,-178.5 1520.5,-178.5 1520.5,-172.5 1526.5,-166.5 1532.5,-166.5"/>
<text text-anchor="middle" x="1538" y="-197.3" font-family="Times,serif" font-size="14.00">36</text>
<polyline fill="none" stroke="black" points="1555.5,-189.5 1555.5,-212.5 "/>
<text text-anchor="middle" x="1574.5" y="-197.3" font-family="Times,serif" font-size="14.00">OP</text>
<polyline fill="none" stroke="black" points="1593.5,-189.5 1593.5,-212.5 "/>
<text text-anchor="middle" x="1626" y="-197.3" font-family="Times,serif" font-size="14.00">size=3</text>
<polyline fill="none" stroke="black" points="1520.5,-189.5 1658.5,-189.5 "/>
<text text-anchor="middle" x="1589.5" y="-174.3" font-family="Times,serif" font-size="14.00">^</text>
</g>
<!-- node34&#45;&gt;node36 -->
<g id="edge70" class="edge">
<title>node34&#45;&gt;node36</title>
<path fill="none" stroke="green" d="M1463.5,-249.37C1483.1,-239.37 1507.24,-227.47 1529.14,-217"/>
<polygon fill="green" stroke="green" points="1530.85,-220.06 1538.38,-212.61 1527.84,-213.74 1530.85,-220.06"/>
</g>
<!-- node35&#45;&gt;node34 -->
<g id="edge69" class="edge">
<title>node35&#45;&gt;node34</title>
<path fill="none" stroke="blue" d="M1430.59,-212.61C1431.22,-220.82 1431.4,-230.31 1431.12,-239.25"/>
<polygon fill="blue" stroke="blue" points="1427.62,-239.2 1430.59,-249.37 1434.61,-239.56 1427.62,-239.2"/>
</g>
<!-- node36&#45;&gt;node34 -->
<g id="edge71" class="edge">
<title>node36&#45;&gt;node34</title>
<path fill="none" stroke="blue" d="M1550.56,-212.61C1530.96,-222.6 1506.83,-234.5 1484.91,-244.97"/>
<polygon fill="blue" stroke="blue" points="1483.21,-241.91 1475.68,-249.37 1486.21,-248.23 1483.21,-241.91"/>
</g>
<!-- node37 -->
<g id="node37" class="node">
<title>node37</title>
<path fill="pink" stroke="black" d="M1445,-83.5C1445,-83.5 1576,-83.5 1576,-83.5 1582,-83.5 1588,-89.5 1588,-95.5 1588,-95.5 1588,-117.5 1588,-117.5 1588,-123.5 1582,-129.5 1576,-129.5 1576,-129.5 1445,-129.5 1445,-129.5 1439,-129.5 1433,-123.5 1433,-117.5 1433,-117.5 1433,-95.5 1433,-95.5 1433,-89.5 1439,-83.5 1445,-83.5"/>
<text text-anchor="middle" x="1450.5" y="-114.3" font-family="Times,serif" font-size="14.00">37</text>
<polyline fill="none" stroke="black" points="1468,-106.5 1468,-129.5 "/>
<text text-anchor="middle" x="1495.5" y="-114.3" font-family="Times,serif" font-size="14.00">NUM</text>
<polyline fill="none" stroke="black" points="1523,-106.5 1523,-129.5 "/>
<text text-anchor="middle" x="1555.5" y="-114.3" font-family="Times,serif" font-size="14.00">size=1</text>
<polyline fill="none" stroke="black" points="1433,-106.5 1588,-106.5 "/>
<text text-anchor="middle" x="1510.5" y="-91.3" font-family="Times,serif" font-size="14.00">1</text>
</g>
<!-- node36&#45;&gt;node37 -->
<g id="edge72" class="edge">
<title>node36&#45;&gt;node37</title>
<path fill="none" stroke="red" d="M1561.82,-166.37C1552.33,-157.35 1541.89,-146.79 1532.86,-137.12"/>
<polygon fill="red" stroke="red" points="1535.31,-134.61 1525.97,-129.61 1530.15,-139.34 1535.31,-134.61"/>
</g>
<!-- node38 -->
<g id="node38" class="node">
<title>node38</title>
<path fill="pink" stroke="black" d="M1618,-83.5C1618,-83.5 1749,-83.5 1749,-83.5 1755,-83.5 1761,-89.5 1761,-95.5 1761,-95.5 1761,-117.5 1761,-117.5 1761,-123.5 1755,-129.5 1749,-129.5 1749,-129.5 1618,-129.5 1618,-129.5 1612,-129.5 1606,-123.5 1606,-117.5 1606,-117.5 1606,-95.5 1606,-95.5 1606,-89.5 1612,-83.5 1618,-83.5"/>
<text text-anchor="middle" x="1623.5" y="-114.3" font-family="Times,serif" font-size="14.00">38</text>
<polyline fill="none" stroke="black" points="1641,-106.5 1641,-129.5 "/>
<text text-anchor="middle" x="1668.5" y="-114.3" font-family="Times,serif" font-size="14.00">NUM</text>
<polyline fill="none" stroke="black" points="1696,-106.5 1696,-129.5 "/>
<text text-anchor="middle" x="1728.5" y="-114.3" font-family="Times,serif" font-size="14.00">size=1</text>
<polyline fill="none" stroke="black" points="1606,-106.5 1761,-106.5 "/>
<text text-anchor="middle" x="1683.5" y="-91.3" font-family="Times,serif" font-size="14.00">1,512</text>
</g>
<!-- node36&#45;&gt;node38 -->
<g id="edge74" class="edge">
<title>node36&#45;&gt;node38</title>
<path fill="none" stroke="green" d="M1609.1,-166.37C1619.25,-156.99 1631.94,-145.95 1643.97,-135.98"/>
<polygon fill="green" stroke="green" points="1646.24,-138.65 1651.76,-129.61 1641.8,-133.23 1646.24,-138.65"/>
</g>
<!-- node37&#45;&gt;node36 -->
<g id="edge73" class="edge">
<title>node37&#45;&gt;node36</title>
<path fill="none" stroke="blue" d="M1538.15,-129.61C1547.64,-138.62 1558.08,-149.18 1567.11,-158.85"/>
<polygon fill="blue" stroke="blue" points="1564.67,-161.36 1574,-166.37 1569.83,-156.63 1564.67,-161.36"/>
</g>
<!-- node38&#45;&gt;node36 -->
<g id="edge75" class="edge">
<title>node38&#45;&gt;node36</title>
<path fill="none" stroke="blue" d="M1663.93,-129.61C1653.78,-138.98 1641.1,-150.02 1629.06,-159.99"/>
<polygon fill="blue" stroke="blue" points="1626.8,-157.32 1621.28,-166.37 1631.23,-162.74 1626.8,-157.32"/>
</g>
<!-- node39&#45;&gt;node3 -->
<g id="edge77" class="edge">
<title>node39&#45;&gt;node3</title>
<path fill="none" stroke="blue" d="M638.68,-627.61C637.47,-635.91 635.51,-645.52 633.22,-654.54"/>
<polygon fill="blue" stroke="blue" points="629.79,-653.8 630.51,-664.37 636.54,-655.66 629.79,-653.8"/>
</g>
<!-- node40&#45;&gt;node2 -->
<g id="edge79" class="edge">
<title>node40&#45;&gt;node2</title>
<path fill="none" stroke="blue" d="M785.59,-710.61C786.22,-718.82 786.4,-728.31 786.12,-737.25"/>
<polygon fill="blue" stroke="blue" points="782.62,-737.2 785.59,-747.37 789.61,-737.56 782.62,-737.2"/>
</g>
<!-- node41&#45;&gt;node1 -->
<g id="edge81" class="edge">
<title>node41&#45;&gt;node1</title>
<path fill="none" stroke="blue" d="M923.75,-793.61C915.38,-802.8 904.86,-813.6 894.72,-823.42"/>
<polygon fill="blue" stroke="blue" points="892.27,-820.93 887.45,-830.37 897.1,-825.99 892.27,-820.93"/>
</g>
<!-- node42 -->
<g id="node42" class="node">
<title>node42</title>
<path fill="peachpuff" stroke="black" d="M882.5,-664.5C882.5,-664.5 996.5,-664.5 996.5,-664.5 1002.5,-664.5 1008.5,-670.5 1008.5,-676.5 1008.5,-676.5 1008.5,-698.5 1008.5,-698.5 1008.5,-704.5 1002.5,-710.5 996.5,-710.5 996.5,-710.5 882.5,-710.5 882.5,-710.5 876.5,-710.5 870.5,-704.5 870.5,-698.5 870.5,-698.5 870.5,-676.5 870.5,-676.5 870.5,-670.5 876.5,-664.5 882.5,-664.5"/>
<text text-anchor="middle" x="888" y="-695.3" font-family="Times,serif" font-size="14.00">42</text>
<polyline fill="none" stroke="black" points="905.5,-687.5 905.5,-710.5 "/>
<text text-anchor="middle" x="924.5" y="-695.3" font-family="Times,serif" font-size="14.00">OP</text>
<polyline fill="none" stroke="black" points="943.5,-687.5 943.5,-710.5 "/>
<text text-anchor="middle" x="976" y="-695.3" font-family="Times,serif" font-size="14.00">size=4</text>
<polyline fill="none" stroke="black" points="870.5,-687.5 1008.5,-687.5 "/>
<text text-anchor="middle" x="939.5" y="-672.3" font-family="Times,serif" font-size="14.00">arccos</text>
</g>
<!-- node41&#45;&gt;node42 -->
<g id="edge82" class="edge">
<title>node41&#45;&gt;node42</title>
<path fill="none" stroke="red" d="M933.41,-747.37C932.78,-739.15 932.6,-729.66 932.88,-720.73"/>
<polygon fill="red" stroke="red" points="936.38,-720.78 933.41,-710.61 929.39,-720.41 936.38,-720.78"/>
</g>
<!-- node46 -->
<g id="node46" class="node">
<title>node46</title>
<path fill="lightyellow" stroke="black" d="M1038.5,-664.5C1038.5,-664.5 1160.5,-664.5 1160.5,-664.5 1166.5,-664.5 1172.5,-670.5 1172.5,-676.5 1172.5,-676.5 1172.5,-698.5 1172.5,-698.5 1172.5,-704.5 1166.5,-710.5 1160.5,-710.5 1160.5,-710.5 1038.5,-710.5 1038.5,-710.5 1032.5,-710.5 1026.5,-704.5 1026.5,-698.5 1026.5,-698.5 1026.5,-676.5 1026.5,-676.5 1026.5,-670.5 1032.5,-664.5 1038.5,-664.5"/>
<text text-anchor="middle" x="1044" y="-695.3" font-family="Times,serif" font-size="14.00">46</text>
<polyline fill="none" stroke="black" points="1061.5,-687.5 1061.5,-710.5 "/>
<text text-anchor="middle" x="1084.5" y="-695.3" font-family="Times,serif" font-size="14.00">VAR</text>
<polyline fill="none" stroke="black" points="1107.5,-687.5 1107.5,-710.5 "/>
<text text-anchor="middle" x="1140" y="-695.3" font-family="Times,serif" font-size="14.00">size=1</text>
<polyline fill="none" stroke="black" points="1026.5,-687.5 1172.5,-687.5 "/>
<text text-anchor="middle" x="1099.5" y="-672.3" font-family="Times,serif" font-size="14.00">x</text>
</g>
<!-- node41&#45;&gt;node46 -->
<g id="edge90" class="edge">
<title>node41&#45;&gt;node46</title>
<path fill="none" stroke="green" d="M977.13,-747.37C996.03,-737.41 1019.31,-725.58 1040.5,-715.14"/>
<polygon fill="green" stroke="green" points="1042.3,-718.15 1049.74,-710.61 1039.22,-711.86 1042.3,-718.15"/>
</g>
<!-- node42&#45;&gt;node41 -->
<g id="edge83" class="edge">
<title>node42&#45;&gt;node41</title>
<path fill="none" stroke="blue" d="M945.59,-710.61C946.22,-718.82 946.4,-728.31 946.12,-737.25"/>
<polygon fill="blue" stroke="blue" points="942.62,-737.2 945.59,-747.37 949.61,-737.56 942.62,-737.2"/>
</g>
<!-- node43 -->
<g id="node43" class="node">
<title>node43</title>
<path fill="peachpuff" stroke="black" d="M882.5,-581.5C882.5,-581.5 996.5,-581.5 996.5,-581.5 1002.5,-581.5 1008.5,-587.5 1008.5,-593.5 1008.5,-593.5 1008.5,-615.5 1008.5,-615.5 1008.5,-621.5 1002.5,-627.5 996.5,-627.5 996.5,-627.5 882.5,-627.5 882.5,-627.5 876.5,-627.5 870.5,-621.5 870.5,-615.5 870.5,-615.5 870.5,-593.5 870.5,-593.5 870.5,-587.5 876.5,-581.5 882.5,-581.5"/>
<text text-anchor="middle" x="888" y="-612.3" font-family="Times,serif" font-size="14.00">43</text>
<polyline fill="none" stroke="black" points="905.5,-604.5 905.5,-627.5 "/>
<text text-anchor="middle" x="924.5" y="-612.3" font-family="Times,serif" font-size="14.00">OP</text>
<polyline fill="none" stroke="black" points="943.5,-604.5 943.5,-627.5 "/>
<text text-anchor="middle" x="976" y="-612.3" font-family="Times,serif" font-size="14.00">size=3</text>
<polyline fill="none" stroke="black" points="870.5,-604.5 1008.5,-604.5 "/>
<text text-anchor="middle" x="939.5" y="-589.3" font-family="Times,serif" font-size="14.00">cos</text>
</g>
<!-- node42&#45;&gt;node43 -->
<g id="edge84" class="edge">
<title>node42&#45;&gt;node43</title>
<path fill="none" stroke="red" d="M933.41,-664.37C932.78,-656.15 932.6,-646.66 932.88,-637.73"/>
<polygon fill="red" stroke="red" points="936.38,-637.78 933.41,-627.61 929.39,-637.41 936.38,-637.78"/>
</g>
<!-- node43&#45;&gt;node42 -->
<g id="edge85" class="edge">
<title>node43&#45;&gt;node42</title>
<path fill="none" stroke="blue" d="M945.59,-627.61C946.22,-635.82 946.4,-645.31 946.12,-654.25"/>
<polygon fill="blue" stroke="blue" points="942.62,-654.2 945.59,-664.37 949.61,-654.56 942.62,-654.2"/>
</g>
<!-- node44 -->
<g id="node44" class="node">
<title>node44</title>
<path fill="peachpuff" stroke="black" d="M882.5,-498.5C882.5,-498.5 996.5,-498.5 996.5,-498.5 1002.5,-498.5 1008.5,-504.5 1008.5,-510.5 1008.5,-510.5 1008.5,-532.5 1008.5,-532.5 1008.5,-538.5 1002.5,-544.5 996.5,-544.5 996.5,-544.5 882.5,-544.5 882.5,-544.5 876.5,-544.5 870.5,-538.5 870.5,-532.5 870.5,-532.5 870.5,-510.5 870.5,-510.5 870.5,-504.5 876.5,-498.5 882.5,-498.5"/>
<text text-anchor="middle" x="888" y="-529.3" font-family="Times,serif" font-size="14.00">44</text>
<polyline fill="none" stroke="black" points="905.5,-521.5 905.5,-544.5 "/>
<text text-anchor="middle" x="924.5" y="-529.3" font-family="Times,serif" font-size="14.00">OP</text>
<polyline fill="none" stroke="black" points="943.5,-521.5 943.5,-544.5 "/>
<text text-anchor="middle" x="976" y="-529.3" font-family="Times,serif" font-size="14.00">size=2</text>
<polyline fill="none" stroke="black" points="870.5,-521.5 1008.5,-521.5 "/>
<text text-anchor="middle" x="939.5" y="-506.3" font-family="Times,serif" font-size="14.00">sh</text>
</g>
<!-- node43&#45;&gt;node44 -->
<g id="edge86" class="edge">
<title>node43&#45;&gt;node44</title>
<path fill="none" stroke="red" d="M933.41,-581.37C932.78,-573.15 932.6,-563.66 932.88,-554.73"/>
<polygon fill="red" stroke="red" points="936.38,-554.78 933.41,-544.61 929.39,-554.41 936.38,-554.78"/>
</g>
<!-- node44&#45;&gt;node43 -->
<g id="edge87" class="edge">
<title>node44&#45;&gt;node43</title>
<path fill="none" stroke="blue" d="M945.59,-544.61C946.22,-552.82 946.4,-562.31 946.12,-571.25"/>
<polygon fill="blue" stroke="blue" points="942.62,-571.2 945.59,-581.37 949.61,-571.56 942.62,-571.2"/>
</g>
<!-- node45 -->
<g id="node45" class="node">
<title>node45</title>
<path fill="lightyellow" stroke="black" d="M878.5,-415.5C878.5,-415.5 1000.5,-415.5 1000.5,-415.5 1006.5,-415.5 1012.5,-421.5 1012.5,-427.5 1012.5,-427.5 1012.5,-449.5 1012.5,-449.5 1012.5,-455.5 1006.5,-461.5 1000.5,-461.5 1000.5,-461.5 878.5,-461.5 878.5,-461.5 872.5,-461.5 866.5,-455.5 866.5,-449.5 866.5,-449.5 866.5,-427.5 866.5,-427.5 866.5,-421.5 872.5,-415.5 878.5,-415.5"/>
<text text-anchor="middle" x="884" y="-446.3" font-family="Times,serif" font-size="14.00">45</text>
<polyline fill="none" stroke="black" points="901.5,-438.5 901.5,-461.5 "/>
<text text-anchor="middle" x="924.5" y="-446.3" font-family="Times,serif" font-size="14.00">VAR</text>
<polyline fill="none" stroke="black" points="947.5,-438.5 947.5,-461.5 "/>
<text text-anchor="middle" x="980" y="-446.3" font-family="Times,serif" font-size="14.00">size=1</text>
<polyline fill="none" stroke="black" points="866.5,-438.5 1012.5,-438.5 "/>
<text text-anchor="middle" x="939.5" y="-423.3" font-family="Times,serif" font-size="14.00">x</text>
</g>
<!-- node44&#45;&gt;node45 -->
<g id="edge88" class="edge">
<title>node44&#45;&gt;node45</title>
<path fill="none" stroke="red" d="M933.41,-498.37C932.78,-490.15 932.6,-480.66 932.88,-471.73"/>
<polygon fill="red" stroke="red" points="936.38,-471.78 933.41,-461.61 929.39,-471.41 936.38,-471.78"/>
</g>
<!-- node45&#45;&gt;node44 -->
<g id="edge89" class="edge">
<title>node45&#45;&gt;node44</title>
<path fill="none" stroke="blue" d="M945.59,-461.61C946.22,-469.82 946.4,-479.31 946.12,-488.25"/>
<polygon fill="blue" stroke="blue" points="942.62,-488.2 945.59,-498.37 949.61,-488.56 942.62,-488.2"/>
</g>
<!-- node46&#45;&gt;node41 -->
<g id="edge91" class="edge">
<title>node46&#45;&gt;node41</title>
<path fill="none" stroke="blue" d="M1061.92,-710.61C1043.03,-720.56 1019.75,-732.39 998.56,-742.83"/>
<polygon fill="blue" stroke="blue" points="996.75,-739.82 989.31,-747.37 999.83,-746.11 996.75,-739.82"/>
</g>
</g>
</svg>
