<?xml version="1.0" encoding="UTF-8" standalone="no"?>
<!DOCTYPE svg PUBLIC "-//W3C//DTD SVG 1.1//EN"
 "http://www.w3.org/Graphics/SVG/1.1/DTD/svg11.dtd">
<!-- Generated by graphviz version 2.43.0 (0)
 -->
<!-- Title: %3 Pages: 1 -->
<svg width="727pt" height="470pt"
 viewBox="0.00 0.00 726.50 470.00" xmlns="http://www.w3.org/2000/svg" xmlns:xlink="http://www.w3.org/1999/xlink">
<g id="graph0" class="graph" transform="scale(1 1) rotate(0) translate(4 466)">
<title>%3</title>
<polygon fill="white" stroke="transparent" points="-4,4 -4,-466 722.5,-466 722.5,4 -4,4"/>
<!-- node1 -->
<g id="node1" class="node">
<title>node1</title>
<path fill="peachpuff" stroke="black" d="M336,-415.5C336,-415.5 450,-415.5 450,-415.5 456,-415.5 462,-421.5 462,-427.5 462,-427.5 462,-449.5 462,-449.5 462,-455.5 456,-461.5 450,-461.5 450,-461.5 336,-461.5 336,-461.5 330,-461.5 324,-455.5 324,-449.5 324,-449.5 324,-427.5 324,-427.5 324,-421.5 330,-415.5 336,-415.5"/>
<text text-anchor="middle" x="337" y="-446.3" font-family="Times,serif" font-size="14.00">1</text>
<polyline fill="none" stroke="black" points="350,-438.5 350,-461.5 "/>
<text text-anchor="middle" x="369" y="-446.3" font-family="Times,serif" font-size="14.00">OP</text>
<polyline fill="none" stroke="black" points="388,-438.5 388,-461.5 "/>
<text text-anchor="middle" x="425" y="-446.3" font-family="Times,serif" font-size="14.00">size=15</text>
<polyline fill="none" stroke="black" points="324,-438.5 462,-438.5 "/>
<text text-anchor="middle" x="393" y="-423.3" font-family="Times,serif" font-size="14.00">^</text>
</g>
<!-- node1&#45;&gt;node1 -->
<g id="edge1" class="edge">
<title>node1&#45;&gt;node1</title>
<path fill="none" stroke="blue" d="M462.27,-452.52C472.83,-450.38 480,-445.71 480,-438.5 480,-433.77 476.91,-430.13 471.81,-427.58"/>
<polygon fill="blue" stroke="blue" points="472.87,-424.25 462.27,-424.48 470.7,-430.9 472.87,-424.25"/>
</g>
<!-- node2 -->
<g id="node2" class="node">
<title>node2</title>
<path fill="peachpuff" stroke="black" d="M258.5,-332.5C258.5,-332.5 363.5,-332.5 363.5,-332.5 369.5,-332.5 375.5,-338.5 375.5,-344.5 375.5,-344.5 375.5,-366.5 375.5,-366.5 375.5,-372.5 369.5,-378.5 363.5,-378.5 363.5,-378.5 258.5,-378.5 258.5,-378.5 252.5,-378.5 246.5,-372.5 246.5,-366.5 246.5,-366.5 246.5,-344.5 246.5,-344.5 246.5,-338.5 252.5,-332.5 258.5,-332.5"/>
<text text-anchor="middle" x="259.5" y="-363.3" font-family="Times,serif" font-size="14.00">2</text>
<polyline fill="none" stroke="black" points="272.5,-355.5 272.5,-378.5 "/>
<text text-anchor="middle" x="291.5" y="-363.3" font-family="Times,serif" font-size="14.00">OP</text>
<polyline fill="none" stroke="black" points="310.5,-355.5 310.5,-378.5 "/>
<text text-anchor="middle" x="343" y="-363.3" font-family="Times,serif" font-size="14.00">size=9</text>
<polyline fill="none" stroke="black" points="246.5,-355.5 375.5,-355.5 "/>
<text text-anchor="middle" x="311" y="-340.3" font-family="Times,serif" font-size="14.00">+</text>
</g>
<!-- node1&#45;&gt;node2 -->
<g id="edge2" class="edge">
<title>node1&#45;&gt;node2</title>
<path fill="none" stroke="red" d="M364.5,-415.37C354.68,-406.35 343.84,-395.79 334.46,-386.12"/>
<polygon fill="red" stroke="red" points="336.73,-383.43 327.29,-378.61 331.66,-388.26 336.73,-383.43"/>
</g>
<!-- node11 -->
<g id="node11" class="node">
<title>node11</title>
<path fill="peachpuff" stroke="black" d="M419,-332.5C419,-332.5 533,-332.5 533,-332.5 539,-332.5 545,-338.5 545,-344.5 545,-344.5 545,-366.5 545,-366.5 545,-372.5 539,-378.5 533,-378.5 533,-378.5 419,-378.5 419,-378.5 413,-378.5 407,-372.5 407,-366.5 407,-366.5 407,-344.5 407,-344.5 407,-338.5 413,-332.5 419,-332.5"/>
<text text-anchor="middle" x="424.5" y="-363.3" font-family="Times,serif" font-size="14.00">11</text>
<polyline fill="none" stroke="black" points="442,-355.5 442,-378.5 "/>
<text text-anchor="middle" x="461" y="-363.3" font-family="Times,serif" font-size="14.00">OP</text>
<polyline fill="none" stroke="black" points="480,-355.5 480,-378.5 "/>
<text text-anchor="middle" x="512.5" y="-363.3" font-family="Times,serif" font-size="14.00">size=5</text>
<polyline fill="none" stroke="black" points="407,-355.5 545,-355.5 "/>
<text text-anchor="middle" x="476" y="-340.3" font-family="Times,serif" font-size="14.00">/</text>
</g>
<!-- node1&#45;&gt;node11 -->
<g id="edge20" class="edge">
<title>node1&#45;&gt;node11</title>
<path fill="none" stroke="green" d="M409.59,-415.37C418.31,-406.17 429.23,-395.37 439.73,-385.55"/>
<polygon fill="green" stroke="green" points="442.28,-387.96 447.26,-378.61 437.53,-382.81 442.28,-387.96"/>
</g>
<!-- node2&#45;&gt;node1 -->
<g id="edge3" class="edge">
<title>node2&#45;&gt;node1</title>
<path fill="none" stroke="blue" d="M339.47,-378.61C349.29,-387.62 360.13,-398.18 369.51,-407.85"/>
<polygon fill="blue" stroke="blue" points="367.25,-410.55 376.68,-415.37 372.31,-405.71 367.25,-410.55"/>
</g>
<!-- node3 -->
<g id="node3" class="node">
<title>node3</title>
<path fill="peachpuff" stroke="black" d="M98.5,-249.5C98.5,-249.5 203.5,-249.5 203.5,-249.5 209.5,-249.5 215.5,-255.5 215.5,-261.5 215.5,-261.5 215.5,-283.5 215.5,-283.5 215.5,-289.5 209.5,-295.5 203.5,-295.5 203.5,-295.5 98.5,-295.5 98.5,-295.5 92.5,-295.5 86.5,-289.5 86.5,-283.5 86.5,-283.5 86.5,-261.5 86.5,-261.5 86.5,-255.5 92.5,-249.5 98.5,-249.5"/>
<text text-anchor="middle" x="99.5" y="-280.3" font-family="Times,serif" font-size="14.00">3</text>
<polyline fill="none" stroke="black" points="112.5,-272.5 112.5,-295.5 "/>
<text text-anchor="middle" x="131.5" y="-280.3" font-family="Times,serif" font-size="14.00">OP</text>
<polyline fill="none" stroke="black" points="150.5,-272.5 150.5,-295.5 "/>
<text text-anchor="middle" x="183" y="-280.3" font-family="Times,serif" font-size="14.00">size=7</text>
<polyline fill="none" stroke="black" points="86.5,-272.5 215.5,-272.5 "/>
<text text-anchor="middle" x="151" y="-257.3" font-family="Times,serif" font-size="14.00">*</text>
</g>
<!-- node2&#45;&gt;node3 -->
<g id="edge4" class="edge">
<title>node2&#45;&gt;node3</title>
<path fill="none" stroke="red" d="M261.19,-332.37C240.85,-322.46 217.49,-310.68 197.5,-300.28"/>
<polygon fill="red" stroke="red" points="199.06,-297.14 188.58,-295.61 195.82,-303.35 199.06,-297.14"/>
</g>
<!-- node10 -->
<g id="node10" class="node">
<title>node10</title>
<path fill="pink" stroke="black" d="M245.5,-249.5C245.5,-249.5 376.5,-249.5 376.5,-249.5 382.5,-249.5 388.5,-255.5 388.5,-261.5 388.5,-261.5 388.5,-283.5 388.5,-283.5 388.5,-289.5 382.5,-295.5 376.5,-295.5 376.5,-295.5 245.5,-295.5 245.5,-295.5 239.5,-295.5 233.5,-289.5 233.5,-283.5 233.5,-283.5 233.5,-261.5 233.5,-261.5 233.5,-255.5 239.5,-249.5 245.5,-249.5"/>
<text text-anchor="middle" x="251" y="-280.3" font-family="Times,serif" font-size="14.00">10</text>
<polyline fill="none" stroke="black" points="268.5,-272.5 268.5,-295.5 "/>
<text text-anchor="middle" x="296" y="-280.3" font-family="Times,serif" font-size="14.00">NUM</text>
<polyline fill="none" stroke="black" points="323.5,-272.5 323.5,-295.5 "/>
<text text-anchor="middle" x="356" y="-280.3" font-family="Times,serif" font-size="14.00">size=1</text>
<polyline fill="none" stroke="black" points="233.5,-272.5 388.5,-272.5 "/>
<text text-anchor="middle" x="311" y="-257.3" font-family="Times,serif" font-size="14.00">1</text>
</g>
<!-- node2&#45;&gt;node10 -->
<g id="edge18" class="edge">
<title>node2&#45;&gt;node10</title>
<path fill="none" stroke="green" d="M304.91,-332.37C304.28,-324.15 304.1,-314.66 304.38,-305.73"/>
<polygon fill="green" stroke="green" points="307.88,-305.78 304.91,-295.61 300.89,-305.41 307.88,-305.78"/>
</g>
<!-- node3&#45;&gt;node2 -->
<g id="edge5" class="edge">
<title>node3&#45;&gt;node2</title>
<path fill="none" stroke="blue" d="M200.76,-295.61C221.09,-305.51 244.45,-317.29 264.44,-327.69"/>
<polygon fill="blue" stroke="blue" points="262.89,-330.83 273.37,-332.37 266.13,-324.63 262.89,-330.83"/>
</g>
<!-- node4 -->
<g id="node4" class="node">
<title>node4</title>
<path fill="pink" stroke="black" d="M12,-166.5C12,-166.5 134,-166.5 134,-166.5 140,-166.5 146,-172.5 146,-178.5 146,-178.5 146,-200.5 146,-200.5 146,-206.5 140,-212.5 134,-212.5 134,-212.5 12,-212.5 12,-212.5 6,-212.5 0,-206.5 0,-200.5 0,-200.5 0,-178.5 0,-178.5 0,-172.5 6,-166.5 12,-166.5"/>
<text text-anchor="middle" x="13" y="-197.3" font-family="Times,serif" font-size="14.00">4</text>
<polyline fill="none" stroke="black" points="26,-189.5 26,-212.5 "/>
<text text-anchor="middle" x="53.5" y="-197.3" font-family="Times,serif" font-size="14.00">NUM</text>
<polyline fill="none" stroke="black" points="81,-189.5 81,-212.5 "/>
<text text-anchor="middle" x="113.5" y="-197.3" font-family="Times,serif" font-size="14.00">size=1</text>
<polyline fill="none" stroke="black" points="0,-189.5 146,-189.5 "/>
<text text-anchor="middle" x="73" y="-174.3" font-family="Times,serif" font-size="14.00">3</text>
</g>
<!-- node3&#45;&gt;node4 -->
<g id="edge6" class="edge">
<title>node3&#45;&gt;node4</title>
<path fill="none" stroke="red" d="M123.6,-249.37C114.22,-240.35 103.9,-229.79 95,-220.12"/>
<polygon fill="red" stroke="red" points="97.5,-217.68 88.2,-212.61 92.31,-222.37 97.5,-217.68"/>
</g>
<!-- node5 -->
<g id="node5" class="node">
<title>node5</title>
<path fill="peachpuff" stroke="black" d="M176.5,-166.5C176.5,-166.5 281.5,-166.5 281.5,-166.5 287.5,-166.5 293.5,-172.5 293.5,-178.5 293.5,-178.5 293.5,-200.5 293.5,-200.5 293.5,-206.5 287.5,-212.5 281.5,-212.5 281.5,-212.5 176.5,-212.5 176.5,-212.5 170.5,-212.5 164.5,-206.5 164.5,-200.5 164.5,-200.5 164.5,-178.5 164.5,-178.5 164.5,-172.5 170.5,-166.5 176.5,-166.5"/>
<text text-anchor="middle" x="177.5" y="-197.3" font-family="Times,serif" font-size="14.00">5</text>
<polyline fill="none" stroke="black" points="190.5,-189.5 190.5,-212.5 "/>
<text text-anchor="middle" x="209.5" y="-197.3" font-family="Times,serif" font-size="14.00">OP</text>
<polyline fill="none" stroke="black" points="228.5,-189.5 228.5,-212.5 "/>
<text text-anchor="middle" x="261" y="-197.3" font-family="Times,serif" font-size="14.00">size=5</text>
<polyline fill="none" stroke="black" points="164.5,-189.5 293.5,-189.5 "/>
<text text-anchor="middle" x="229" y="-174.3" font-family="Times,serif" font-size="14.00">&#45;</text>
</g>
<!-- node3&#45;&gt;node5 -->
<g id="edge8" class="edge">
<title>node3&#45;&gt;node5</title>
<path fill="none" stroke="green" d="M166.22,-249.37C174.29,-240.26 184.43,-229.58 194.24,-219.83"/>
<polygon fill="green" stroke="green" points="196.92,-222.1 201.62,-212.61 192.03,-217.1 196.92,-222.1"/>
</g>
<!-- node4&#45;&gt;node3 -->
<g id="edge7" class="edge">
<title>node4&#45;&gt;node3</title>
<path fill="none" stroke="blue" d="M100.38,-212.61C109.75,-221.62 120.07,-232.18 128.98,-241.85"/>
<polygon fill="blue" stroke="blue" points="126.47,-244.3 135.78,-249.37 131.66,-239.6 126.47,-244.3"/>
</g>
<!-- node5&#45;&gt;node3 -->
<g id="edge9" class="edge">
<title>node5&#45;&gt;node3</title>
<path fill="none" stroke="blue" d="M213.8,-212.61C205.74,-221.71 195.59,-232.39 185.79,-242.14"/>
<polygon fill="blue" stroke="blue" points="183.1,-239.87 178.4,-249.37 188,-244.87 183.1,-239.87"/>
</g>
<!-- node6 -->
<g id="node6" class="node">
<title>node6</title>
<path fill="pink" stroke="black" d="M90,-83.5C90,-83.5 212,-83.5 212,-83.5 218,-83.5 224,-89.5 224,-95.5 224,-95.5 224,-117.5 224,-117.5 224,-123.5 218,-129.5 212,-129.5 212,-129.5 90,-129.5 90,-129.5 84,-129.5 78,-123.5 78,-117.5 78,-117.5 78,-95.5 78,-95.5 78,-89.5 84,-83.5 90,-83.5"/>
<text text-anchor="middle" x="91" y="-114.3" font-family="Times,serif" font-size="14.00">6</text>
<polyline fill="none" stroke="black" points="104,-106.5 104,-129.5 "/>
<text text-anchor="middle" x="131.5" y="-114.3" font-family="Times,serif" font-size="14.00">NUM</text>
<polyline fill="none" stroke="black" points="159,-106.5 159,-129.5 "/>
<text text-anchor="middle" x="191.5" y="-114.3" font-family="Times,serif" font-size="14.00">size=1</text>
<polyline fill="none" stroke="black" points="78,-106.5 224,-106.5 "/>
<text text-anchor="middle" x="151" y="-91.3" font-family="Times,serif" font-size="14.00">2,5</text>
</g>
<!-- node5&#45;&gt;node6 -->
<g id="edge10" class="edge">
<title>node5&#45;&gt;node6</title>
<path fill="none" stroke="red" d="M201.6,-166.37C192.22,-157.35 181.9,-146.79 173,-137.12"/>
<polygon fill="red" stroke="red" points="175.5,-134.68 166.2,-129.61 170.31,-139.37 175.5,-134.68"/>
</g>
<!-- node7 -->
<g id="node7" class="node">
<title>node7</title>
<path fill="peachpuff" stroke="black" d="M254.5,-83.5C254.5,-83.5 359.5,-83.5 359.5,-83.5 365.5,-83.5 371.5,-89.5 371.5,-95.5 371.5,-95.5 371.5,-117.5 371.5,-117.5 371.5,-123.5 365.5,-129.5 359.5,-129.5 359.5,-129.5 254.5,-129.5 254.5,-129.5 248.5,-129.5 242.5,-123.5 242.5,-117.5 242.5,-117.5 242.5,-95.5 242.5,-95.5 242.5,-89.5 248.5,-83.5 254.5,-83.5"/>
<text text-anchor="middle" x="255.5" y="-114.3" font-family="Times,serif" font-size="14.00">7</text>
<polyline fill="none" stroke="black" points="268.5,-106.5 268.5,-129.5 "/>
<text text-anchor="middle" x="287.5" y="-114.3" font-family="Times,serif" font-size="14.00">OP</text>
<polyline fill="none" stroke="black" points="306.5,-106.5 306.5,-129.5 "/>
<text text-anchor="middle" x="339" y="-114.3" font-family="Times,serif" font-size="14.00">size=3</text>
<polyline fill="none" stroke="black" points="242.5,-106.5 371.5,-106.5 "/>
<text text-anchor="middle" x="307" y="-91.3" font-family="Times,serif" font-size="14.00">/</text>
</g>
<!-- node5&#45;&gt;node7 -->
<g id="edge12" class="edge">
<title>node5&#45;&gt;node7</title>
<path fill="none" stroke="green" d="M244.22,-166.37C252.29,-157.26 262.43,-146.58 272.24,-136.83"/>
<polygon fill="green" stroke="green" points="274.92,-139.1 279.62,-129.61 270.03,-134.1 274.92,-139.1"/>
</g>
<!-- node6&#45;&gt;node5 -->
<g id="edge11" class="edge">
<title>node6&#45;&gt;node5</title>
<path fill="none" stroke="blue" d="M178.38,-129.61C187.75,-138.62 198.07,-149.18 206.98,-158.85"/>
<polygon fill="blue" stroke="blue" points="204.47,-161.3 213.78,-166.37 209.66,-156.6 204.47,-161.3"/>
</g>
<!-- node7&#45;&gt;node5 -->
<g id="edge13" class="edge">
<title>node7&#45;&gt;node5</title>
<path fill="none" stroke="blue" d="M291.8,-129.61C283.74,-138.71 273.59,-149.39 263.79,-159.14"/>
<polygon fill="blue" stroke="blue" points="261.1,-156.87 256.4,-166.37 266,-161.87 261.1,-156.87"/>
</g>
<!-- node8 -->
<g id="node8" class="node">
<title>node8</title>
<path fill="pink" stroke="black" d="M164,-0.5C164,-0.5 286,-0.5 286,-0.5 292,-0.5 298,-6.5 298,-12.5 298,-12.5 298,-34.5 298,-34.5 298,-40.5 292,-46.5 286,-46.5 286,-46.5 164,-46.5 164,-46.5 158,-46.5 152,-40.5 152,-34.5 152,-34.5 152,-12.5 152,-12.5 152,-6.5 158,-0.5 164,-0.5"/>
<text text-anchor="middle" x="165" y="-31.3" font-family="Times,serif" font-size="14.00">8</text>
<polyline fill="none" stroke="black" points="178,-23.5 178,-46.5 "/>
<text text-anchor="middle" x="205.5" y="-31.3" font-family="Times,serif" font-size="14.00">NUM</text>
<polyline fill="none" stroke="black" points="233,-23.5 233,-46.5 "/>
<text text-anchor="middle" x="265.5" y="-31.3" font-family="Times,serif" font-size="14.00">size=1</text>
<polyline fill="none" stroke="black" points="152,-23.5 298,-23.5 "/>
<text text-anchor="middle" x="225" y="-8.3" font-family="Times,serif" font-size="14.00">0,1</text>
</g>
<!-- node7&#45;&gt;node8 -->
<g id="edge14" class="edge">
<title>node7&#45;&gt;node8</title>
<path fill="none" stroke="red" d="M278.5,-83.37C268.68,-74.35 257.84,-63.79 248.46,-54.12"/>
<polygon fill="red" stroke="red" points="250.73,-51.43 241.29,-46.61 245.66,-56.26 250.73,-51.43"/>
</g>
<!-- node9 -->
<g id="node9" class="node">
<title>node9</title>
<path fill="pink" stroke="black" d="M328,-0.5C328,-0.5 450,-0.5 450,-0.5 456,-0.5 462,-6.5 462,-12.5 462,-12.5 462,-34.5 462,-34.5 462,-40.5 456,-46.5 450,-46.5 450,-46.5 328,-46.5 328,-46.5 322,-46.5 316,-40.5 316,-34.5 316,-34.5 316,-12.5 316,-12.5 316,-6.5 322,-0.5 328,-0.5"/>
<text text-anchor="middle" x="329" y="-31.3" font-family="Times,serif" font-size="14.00">9</text>
<polyline fill="none" stroke="black" points="342,-23.5 342,-46.5 "/>
<text text-anchor="middle" x="369.5" y="-31.3" font-family="Times,serif" font-size="14.00">NUM</text>
<polyline fill="none" stroke="black" points="397,-23.5 397,-46.5 "/>
<text text-anchor="middle" x="429.5" y="-31.3" font-family="Times,serif" font-size="14.00">size=1</text>
<polyline fill="none" stroke="black" points="316,-23.5 462,-23.5 "/>
<text text-anchor="middle" x="389" y="-8.3" font-family="Times,serif" font-size="14.00">2</text>
</g>
<!-- node7&#45;&gt;node9 -->
<g id="edge16" class="edge">
<title>node7&#45;&gt;node9</title>
<path fill="none" stroke="green" d="M323.32,-83.37C331.92,-74.17 342.71,-63.37 353.09,-53.55"/>
<polygon fill="green" stroke="green" points="355.61,-55.99 360.53,-46.61 350.83,-50.87 355.61,-55.99"/>
</g>
<!-- node8&#45;&gt;node7 -->
<g id="edge15" class="edge">
<title>node8&#45;&gt;node7</title>
<path fill="none" stroke="blue" d="M253.47,-46.61C263.29,-55.62 274.13,-66.18 283.51,-75.85"/>
<polygon fill="blue" stroke="blue" points="281.25,-78.55 290.68,-83.37 286.31,-73.71 281.25,-78.55"/>
</g>
<!-- node9&#45;&gt;node7 -->
<g id="edge17" class="edge">
<title>node9&#45;&gt;node7</title>
<path fill="none" stroke="blue" d="M372.71,-46.61C364.11,-55.8 353.32,-66.6 342.94,-76.42"/>
<polygon fill="blue" stroke="blue" points="340.42,-73.99 335.5,-83.37 345.2,-79.1 340.42,-73.99"/>
</g>
<!-- node10&#45;&gt;node2 -->
<g id="edge19" class="edge">
<title>node10&#45;&gt;node2</title>
<path fill="none" stroke="blue" d="M317.09,-295.61C317.72,-303.82 317.9,-313.31 317.62,-322.25"/>
<polygon fill="blue" stroke="blue" points="314.12,-322.2 317.09,-332.37 321.11,-322.56 314.12,-322.2"/>
</g>
<!-- node11&#45;&gt;node1 -->
<g id="edge21" class="edge">
<title>node11&#45;&gt;node1</title>
<path fill="none" stroke="blue" d="M459.44,-378.61C450.72,-387.8 439.8,-398.6 429.3,-408.42"/>
<polygon fill="blue" stroke="blue" points="426.75,-406.01 421.77,-415.37 431.5,-411.16 426.75,-406.01"/>
</g>
<!-- node12 -->
<g id="node12" class="node">
<title>node12</title>
<path fill="peachpuff" stroke="black" d="M419,-249.5C419,-249.5 533,-249.5 533,-249.5 539,-249.5 545,-255.5 545,-261.5 545,-261.5 545,-283.5 545,-283.5 545,-289.5 539,-295.5 533,-295.5 533,-295.5 419,-295.5 419,-295.5 413,-295.5 407,-289.5 407,-283.5 407,-283.5 407,-261.5 407,-261.5 407,-255.5 413,-249.5 419,-249.5"/>
<text text-anchor="middle" x="424.5" y="-280.3" font-family="Times,serif" font-size="14.00">12</text>
<polyline fill="none" stroke="black" points="442,-272.5 442,-295.5 "/>
<text text-anchor="middle" x="461" y="-280.3" font-family="Times,serif" font-size="14.00">OP</text>
<polyline fill="none" stroke="black" points="480,-272.5 480,-295.5 "/>
<text text-anchor="middle" x="512.5" y="-280.3" font-family="Times,serif" font-size="14.00">size=3</text>
<polyline fill="none" stroke="black" points="407,-272.5 545,-272.5 "/>
<text text-anchor="middle" x="476" y="-257.3" font-family="Times,serif" font-size="14.00">*</text>
</g>
<!-- node11&#45;&gt;node12 -->
<g id="edge22" class="edge">
<title>node11&#45;&gt;node12</title>
<path fill="none" stroke="red" d="M469.91,-332.37C469.28,-324.15 469.1,-314.66 469.38,-305.73"/>
<polygon fill="red" stroke="red" points="472.88,-305.78 469.91,-295.61 465.89,-305.41 472.88,-305.78"/>
</g>
<!-- node15 -->
<g id="node15" class="node">
<title>node15</title>
<path fill="pink" stroke="black" d="M575.5,-249.5C575.5,-249.5 706.5,-249.5 706.5,-249.5 712.5,-249.5 718.5,-255.5 718.5,-261.5 718.5,-261.5 718.5,-283.5 718.5,-283.5 718.5,-289.5 712.5,-295.5 706.5,-295.5 706.5,-295.5 575.5,-295.5 575.5,-295.5 569.5,-295.5 563.5,-289.5 563.5,-283.5 563.5,-283.5 563.5,-261.5 563.5,-261.5 563.5,-255.5 569.5,-249.5 575.5,-249.5"/>
<text text-anchor="middle" x="581" y="-280.3" font-family="Times,serif" font-size="14.00">15</text>
<polyline fill="none" stroke="black" points="598.5,-272.5 598.5,-295.5 "/>
<text text-anchor="middle" x="626" y="-280.3" font-family="Times,serif" font-size="14.00">NUM</text>
<polyline fill="none" stroke="black" points="653.5,-272.5 653.5,-295.5 "/>
<text text-anchor="middle" x="686" y="-280.3" font-family="Times,serif" font-size="14.00">size=1</text>
<polyline fill="none" stroke="black" points="563.5,-272.5 718.5,-272.5 "/>
<text text-anchor="middle" x="641" y="-257.3" font-family="Times,serif" font-size="14.00">7</text>
</g>
<!-- node11&#45;&gt;node15 -->
<g id="edge28" class="edge">
<title>node11&#45;&gt;node15</title>
<path fill="none" stroke="green" d="M515,-332.37C534.6,-322.37 558.74,-310.47 580.64,-300"/>
<polygon fill="green" stroke="green" points="582.35,-303.06 589.88,-295.61 579.34,-296.74 582.35,-303.06"/>
</g>
<!-- node12&#45;&gt;node11 -->
<g id="edge23" class="edge">
<title>node12&#45;&gt;node11</title>
<path fill="none" stroke="blue" d="M482.09,-295.61C482.72,-303.82 482.9,-313.31 482.62,-322.25"/>
<polygon fill="blue" stroke="blue" points="479.12,-322.2 482.09,-332.37 486.11,-322.56 479.12,-322.2"/>
</g>
<!-- node13 -->
<g id="node13" class="node">
<title>node13</title>
<path fill="pink" stroke="black" d="M366.5,-166.5C366.5,-166.5 497.5,-166.5 497.5,-166.5 503.5,-166.5 509.5,-172.5 509.5,-178.5 509.5,-178.5 509.5,-200.5 509.5,-200.5 509.5,-206.5 503.5,-212.5 497.5,-212.5 497.5,-212.5 366.5,-212.5 366.5,-212.5 360.5,-212.5 354.5,-206.5 354.5,-200.5 354.5,-200.5 354.5,-178.5 354.5,-178.5 354.5,-172.5 360.5,-166.5 366.5,-166.5"/>
<text text-anchor="middle" x="372" y="-197.3" font-family="Times,serif" font-size="14.00">13</text>
<polyline fill="none" stroke="black" points="389.5,-189.5 389.5,-212.5 "/>
<text text-anchor="middle" x="417" y="-197.3" font-family="Times,serif" font-size="14.00">NUM</text>
<polyline fill="none" stroke="black" points="444.5,-189.5 444.5,-212.5 "/>
<text text-anchor="middle" x="477" y="-197.3" font-family="Times,serif" font-size="14.00">size=1</text>
<polyline fill="none" stroke="black" points="354.5,-189.5 509.5,-189.5 "/>
<text text-anchor="middle" x="432" y="-174.3" font-family="Times,serif" font-size="14.00">2</text>
</g>
<!-- node12&#45;&gt;node13 -->
<g id="edge24" class="edge">
<title>node12&#45;&gt;node13</title>
<path fill="none" stroke="red" d="M457.89,-249.37C452.63,-240.88 447.11,-231.04 442.44,-221.85"/>
<polygon fill="red" stroke="red" points="445.45,-220.06 437.92,-212.61 439.16,-223.13 445.45,-220.06"/>
</g>
<!-- node14 -->
<g id="node14" class="node">
<title>node14</title>
<path fill="pink" stroke="black" d="M539.5,-166.5C539.5,-166.5 670.5,-166.5 670.5,-166.5 676.5,-166.5 682.5,-172.5 682.5,-178.5 682.5,-178.5 682.5,-200.5 682.5,-200.5 682.5,-206.5 676.5,-212.5 670.5,-212.5 670.5,-212.5 539.5,-212.5 539.5,-212.5 533.5,-212.5 527.5,-206.5 527.5,-200.5 527.5,-200.5 527.5,-178.5 527.5,-178.5 527.5,-172.5 533.5,-166.5 539.5,-166.5"/>
<text text-anchor="middle" x="545" y="-197.3" font-family="Times,serif" font-size="14.00">14</text>
<polyline fill="none" stroke="black" points="562.5,-189.5 562.5,-212.5 "/>
<text text-anchor="middle" x="590" y="-197.3" font-family="Times,serif" font-size="14.00">NUM</text>
<polyline fill="none" stroke="black" points="617.5,-189.5 617.5,-212.5 "/>
<text text-anchor="middle" x="650" y="-197.3" font-family="Times,serif" font-size="14.00">size=1</text>
<polyline fill="none" stroke="black" points="527.5,-189.5 682.5,-189.5 "/>
<text text-anchor="middle" x="605" y="-174.3" font-family="Times,serif" font-size="14.00">16</text>
</g>
<!-- node12&#45;&gt;node14 -->
<g id="edge26" class="edge">
<title>node12&#45;&gt;node14</title>
<path fill="none" stroke="green" d="M505.16,-249.37C519.91,-239.63 538.16,-228.11 555.03,-217.84"/>
<polygon fill="green" stroke="green" points="556.95,-220.77 563.7,-212.61 553.33,-214.78 556.95,-220.77"/>
</g>
<!-- node13&#45;&gt;node12 -->
<g id="edge25" class="edge">
<title>node13&#45;&gt;node12</title>
<path fill="none" stroke="blue" d="M450.1,-212.61C455.36,-221.09 460.87,-230.93 465.55,-240.12"/>
<polygon fill="blue" stroke="blue" points="462.53,-241.92 470.07,-249.37 468.82,-238.85 462.53,-241.92"/>
</g>
<!-- node14&#45;&gt;node12 -->
<g id="edge27" class="edge">
<title>node14&#45;&gt;node12</title>
<path fill="none" stroke="blue" d="M575.88,-212.61C561.14,-222.34 542.89,-233.86 526.01,-244.13"/>
<polygon fill="blue" stroke="blue" points="524.09,-241.2 517.34,-249.37 527.71,-247.19 524.09,-241.2"/>
</g>
<!-- node15&#45;&gt;node11 -->
<g id="edge29" class="edge">
<title>node15&#45;&gt;node11</title>
<path fill="none" stroke="blue" d="M602.06,-295.61C582.46,-305.6 558.33,-317.5 536.41,-327.97"/>
<polygon fill="blue" stroke="blue" points="534.71,-324.91 527.18,-332.37 537.71,-331.23 534.71,-324.91"/>
</g>
</g>
</svg>
