<?xml version="1.0" encoding="UTF-8" standalone="no"?>
<!DOCTYPE svg PUBLIC "-//W3C//DTD SVG 1.1//EN"
 "http://www.w3.org/Graphics/SVG/1.1/DTD/svg11.dtd">
<!-- Generated by graphviz version 2.43.0 (0)
 -->
<!-- Title: %3 Pages: 1 -->
<svg width="648pt" height="719pt"
 viewBox="0.00 0.00 647.50 719.00" xmlns="http://www.w3.org/2000/svg" xmlns:xlink="http://www.w3.org/1999/xlink">
<g id="graph0" class="graph" transform="scale(1 1) rotate(0) translate(4 715)">
<title>%3</title>
<polygon fill="white" stroke="transparent" points="-4,4 -4,-715 643.5,-715 643.5,4 -4,4"/>
<!-- node1 -->
<g id="node1" class="node">
<title>node1</title>
<path fill="peachpuff" stroke="black" d="M260,-664.5C260,-664.5 374,-664.5 374,-664.5 380,-664.5 386,-670.5 386,-676.5 386,-676.5 386,-698.5 386,-698.5 386,-704.5 380,-710.5 374,-710.5 374,-710.5 260,-710.5 260,-710.5 254,-710.5 248,-704.5 248,-698.5 248,-698.5 248,-676.5 248,-676.5 248,-670.5 254,-664.5 260,-664.5"/>
<text text-anchor="middle" x="261" y="-695.3" font-family="Times,serif" font-size="14.00">1</text>
<polyline fill="none" stroke="black" points="274,-687.5 274,-710.5 "/>
<text text-anchor="middle" x="293" y="-695.3" font-family="Times,serif" font-size="14.00">OP</text>
<polyline fill="none" stroke="black" points="312,-687.5 312,-710.5 "/>
<text text-anchor="middle" x="349" y="-695.3" font-family="Times,serif" font-size="14.00">size=18</text>
<polyline fill="none" stroke="black" points="248,-687.5 386,-687.5 "/>
<text text-anchor="middle" x="317" y="-672.3" font-family="Times,serif" font-size="14.00">&#45;</text>
</g>
<!-- node1&#45;&gt;node1 -->
<g id="edge1" class="edge">
<title>node1&#45;&gt;node1</title>
<path fill="none" stroke="blue" d="M386.27,-701.52C396.83,-699.38 404,-694.71 404,-687.5 404,-682.77 400.91,-679.13 395.81,-676.58"/>
<polygon fill="blue" stroke="blue" points="396.87,-673.25 386.27,-673.48 394.7,-679.9 396.87,-673.25"/>
</g>
<!-- node2 -->
<g id="node2" class="node">
<title>node2</title>
<path fill="peachpuff" stroke="black" d="M260,-581.5C260,-581.5 374,-581.5 374,-581.5 380,-581.5 386,-587.5 386,-593.5 386,-593.5 386,-615.5 386,-615.5 386,-621.5 380,-627.5 374,-627.5 374,-627.5 260,-627.5 260,-627.5 254,-627.5 248,-621.5 248,-615.5 248,-615.5 248,-593.5 248,-593.5 248,-587.5 254,-581.5 260,-581.5"/>
<text text-anchor="middle" x="261" y="-612.3" font-family="Times,serif" font-size="14.00">2</text>
<polyline fill="none" stroke="black" points="274,-604.5 274,-627.5 "/>
<text text-anchor="middle" x="293" y="-612.3" font-family="Times,serif" font-size="14.00">OP</text>
<polyline fill="none" stroke="black" points="312,-604.5 312,-627.5 "/>
<text text-anchor="middle" x="349" y="-612.3" font-family="Times,serif" font-size="14.00">size=17</text>
<polyline fill="none" stroke="black" points="248,-604.5 386,-604.5 "/>
<text text-anchor="middle" x="317" y="-589.3" font-family="Times,serif" font-size="14.00">*</text>
</g>
<!-- node1&#45;&gt;node2 -->
<g id="edge2" class="edge">
<title>node1&#45;&gt;node2</title>
<path fill="none" stroke="red" d="M310.91,-664.37C310.28,-656.15 310.1,-646.66 310.38,-637.73"/>
<polygon fill="red" stroke="red" points="313.88,-637.78 310.91,-627.61 306.89,-637.41 313.88,-637.78"/>
</g>
<!-- node2&#45;&gt;node1 -->
<g id="edge3" class="edge">
<title>node2&#45;&gt;node1</title>
<path fill="none" stroke="blue" d="M323.09,-627.61C323.72,-635.82 323.9,-645.31 323.62,-654.25"/>
<polygon fill="blue" stroke="blue" points="320.12,-654.2 323.09,-664.37 327.11,-654.56 320.12,-654.2"/>
</g>
<!-- node3 -->
<g id="node3" class="node">
<title>node3</title>
<path fill="peachpuff" stroke="black" d="M184.5,-498.5C184.5,-498.5 289.5,-498.5 289.5,-498.5 295.5,-498.5 301.5,-504.5 301.5,-510.5 301.5,-510.5 301.5,-532.5 301.5,-532.5 301.5,-538.5 295.5,-544.5 289.5,-544.5 289.5,-544.5 184.5,-544.5 184.5,-544.5 178.5,-544.5 172.5,-538.5 172.5,-532.5 172.5,-532.5 172.5,-510.5 172.5,-510.5 172.5,-504.5 178.5,-498.5 184.5,-498.5"/>
<text text-anchor="middle" x="185.5" y="-529.3" font-family="Times,serif" font-size="14.00">3</text>
<polyline fill="none" stroke="black" points="198.5,-521.5 198.5,-544.5 "/>
<text text-anchor="middle" x="217.5" y="-529.3" font-family="Times,serif" font-size="14.00">OP</text>
<polyline fill="none" stroke="black" points="236.5,-521.5 236.5,-544.5 "/>
<text text-anchor="middle" x="269" y="-529.3" font-family="Times,serif" font-size="14.00">size=3</text>
<polyline fill="none" stroke="black" points="172.5,-521.5 301.5,-521.5 "/>
<text text-anchor="middle" x="237" y="-506.3" font-family="Times,serif" font-size="14.00">*</text>
</g>
<!-- node2&#45;&gt;node3 -->
<g id="edge4" class="edge">
<title>node2&#45;&gt;node3</title>
<path fill="none" stroke="red" d="M289.05,-581.37C279.45,-572.35 268.87,-561.79 259.73,-552.12"/>
<polygon fill="red" stroke="red" points="262.12,-549.55 252.75,-544.61 256.99,-554.32 262.12,-549.55"/>
</g>
<!-- node6 -->
<g id="node6" class="node">
<title>node6</title>
<path fill="peachpuff" stroke="black" d="M340,-498.5C340,-498.5 454,-498.5 454,-498.5 460,-498.5 466,-504.5 466,-510.5 466,-510.5 466,-532.5 466,-532.5 466,-538.5 460,-544.5 454,-544.5 454,-544.5 340,-544.5 340,-544.5 334,-544.5 328,-538.5 328,-532.5 328,-532.5 328,-510.5 328,-510.5 328,-504.5 334,-498.5 340,-498.5"/>
<text text-anchor="middle" x="341" y="-529.3" font-family="Times,serif" font-size="14.00">6</text>
<polyline fill="none" stroke="black" points="354,-521.5 354,-544.5 "/>
<text text-anchor="middle" x="373" y="-529.3" font-family="Times,serif" font-size="14.00">OP</text>
<polyline fill="none" stroke="black" points="392,-521.5 392,-544.5 "/>
<text text-anchor="middle" x="429" y="-529.3" font-family="Times,serif" font-size="14.00">size=13</text>
<polyline fill="none" stroke="black" points="328,-521.5 466,-521.5 "/>
<text text-anchor="middle" x="397" y="-506.3" font-family="Times,serif" font-size="14.00">^</text>
</g>
<!-- node2&#45;&gt;node6 -->
<g id="edge10" class="edge">
<title>node2&#45;&gt;node6</title>
<path fill="none" stroke="green" d="M332.77,-581.37C341.15,-572.17 351.67,-561.37 361.81,-551.55"/>
<polygon fill="green" stroke="green" points="364.26,-554.04 369.08,-544.61 359.43,-548.98 364.26,-554.04"/>
</g>
<!-- node3&#45;&gt;node2 -->
<g id="edge5" class="edge">
<title>node3&#45;&gt;node2</title>
<path fill="none" stroke="blue" d="M264.92,-544.61C274.52,-553.62 285.1,-564.18 294.25,-573.85"/>
<polygon fill="blue" stroke="blue" points="291.86,-576.42 301.23,-581.37 296.99,-571.66 291.86,-576.42"/>
</g>
<!-- node4 -->
<g id="node4" class="node">
<title>node4</title>
<path fill="pink" stroke="black" d="M12,-415.5C12,-415.5 134,-415.5 134,-415.5 140,-415.5 146,-421.5 146,-427.5 146,-427.5 146,-449.5 146,-449.5 146,-455.5 140,-461.5 134,-461.5 134,-461.5 12,-461.5 12,-461.5 6,-461.5 0,-455.5 0,-449.5 0,-449.5 0,-427.5 0,-427.5 0,-421.5 6,-415.5 12,-415.5"/>
<text text-anchor="middle" x="13" y="-446.3" font-family="Times,serif" font-size="14.00">4</text>
<polyline fill="none" stroke="black" points="26,-438.5 26,-461.5 "/>
<text text-anchor="middle" x="53.5" y="-446.3" font-family="Times,serif" font-size="14.00">NUM</text>
<polyline fill="none" stroke="black" points="81,-438.5 81,-461.5 "/>
<text text-anchor="middle" x="113.5" y="-446.3" font-family="Times,serif" font-size="14.00">size=1</text>
<polyline fill="none" stroke="black" points="0,-438.5 146,-438.5 "/>
<text text-anchor="middle" x="73" y="-423.3" font-family="Times,serif" font-size="14.00">25</text>
</g>
<!-- node3&#45;&gt;node4 -->
<g id="edge6" class="edge">
<title>node3&#45;&gt;node4</title>
<path fill="none" stroke="red" d="M186.1,-498.37C165.27,-488.46 141.33,-476.68 120.83,-466.28"/>
<polygon fill="red" stroke="red" points="122.17,-463.03 111.67,-461.61 118.99,-469.27 122.17,-463.03"/>
</g>
<!-- node5 -->
<g id="node5" class="node">
<title>node5</title>
<path fill="pink" stroke="black" d="M176,-415.5C176,-415.5 298,-415.5 298,-415.5 304,-415.5 310,-421.5 310,-427.5 310,-427.5 310,-449.5 310,-449.5 310,-455.5 304,-461.5 298,-461.5 298,-461.5 176,-461.5 176,-461.5 170,-461.5 164,-455.5 164,-449.5 164,-449.5 164,-427.5 164,-427.5 164,-421.5 170,-415.5 176,-415.5"/>
<text text-anchor="middle" x="177" y="-446.3" font-family="Times,serif" font-size="14.00">5</text>
<polyline fill="none" stroke="black" points="190,-438.5 190,-461.5 "/>
<text text-anchor="middle" x="217.5" y="-446.3" font-family="Times,serif" font-size="14.00">NUM</text>
<polyline fill="none" stroke="black" points="245,-438.5 245,-461.5 "/>
<text text-anchor="middle" x="277.5" y="-446.3" font-family="Times,serif" font-size="14.00">size=1</text>
<polyline fill="none" stroke="black" points="164,-438.5 310,-438.5 "/>
<text text-anchor="middle" x="237" y="-423.3" font-family="Times,serif" font-size="14.00">10</text>
</g>
<!-- node3&#45;&gt;node5 -->
<g id="edge8" class="edge">
<title>node3&#45;&gt;node5</title>
<path fill="none" stroke="green" d="M230.91,-498.37C230.28,-490.15 230.1,-480.66 230.38,-471.73"/>
<polygon fill="green" stroke="green" points="233.88,-471.78 230.91,-461.61 226.89,-471.41 233.88,-471.78"/>
</g>
<!-- node4&#45;&gt;node3 -->
<g id="edge7" class="edge">
<title>node4&#45;&gt;node3</title>
<path fill="none" stroke="blue" d="M123.85,-461.61C144.67,-471.51 168.61,-483.29 189.12,-493.69"/>
<polygon fill="blue" stroke="blue" points="187.78,-496.94 198.28,-498.37 190.96,-490.7 187.78,-496.94"/>
</g>
<!-- node5&#45;&gt;node3 -->
<g id="edge9" class="edge">
<title>node5&#45;&gt;node3</title>
<path fill="none" stroke="blue" d="M243.09,-461.61C243.72,-469.82 243.9,-479.31 243.62,-488.25"/>
<polygon fill="blue" stroke="blue" points="240.12,-488.2 243.09,-498.37 247.11,-488.56 240.12,-488.2"/>
</g>
<!-- node6&#45;&gt;node2 -->
<g id="edge11" class="edge">
<title>node6&#45;&gt;node2</title>
<path fill="none" stroke="blue" d="M381.25,-544.61C372.88,-553.8 362.36,-564.6 352.22,-574.42"/>
<polygon fill="blue" stroke="blue" points="349.77,-571.93 344.95,-581.37 354.6,-576.99 349.77,-571.93"/>
</g>
<!-- node7 -->
<g id="node7" class="node">
<title>node7</title>
<path fill="peachpuff" stroke="black" d="M340,-415.5C340,-415.5 454,-415.5 454,-415.5 460,-415.5 466,-421.5 466,-427.5 466,-427.5 466,-449.5 466,-449.5 466,-455.5 460,-461.5 454,-461.5 454,-461.5 340,-461.5 340,-461.5 334,-461.5 328,-455.5 328,-449.5 328,-449.5 328,-427.5 328,-427.5 328,-421.5 334,-415.5 340,-415.5"/>
<text text-anchor="middle" x="341" y="-446.3" font-family="Times,serif" font-size="14.00">7</text>
<polyline fill="none" stroke="black" points="354,-438.5 354,-461.5 "/>
<text text-anchor="middle" x="373" y="-446.3" font-family="Times,serif" font-size="14.00">OP</text>
<polyline fill="none" stroke="black" points="392,-438.5 392,-461.5 "/>
<text text-anchor="middle" x="429" y="-446.3" font-family="Times,serif" font-size="14.00">size=11</text>
<polyline fill="none" stroke="black" points="328,-438.5 466,-438.5 "/>
<text text-anchor="middle" x="397" y="-423.3" font-family="Times,serif" font-size="14.00">^</text>
</g>
<!-- node6&#45;&gt;node7 -->
<g id="edge12" class="edge">
<title>node6&#45;&gt;node7</title>
<path fill="none" stroke="red" d="M390.91,-498.37C390.28,-490.15 390.1,-480.66 390.38,-471.73"/>
<polygon fill="red" stroke="red" points="393.88,-471.78 390.91,-461.61 386.89,-471.41 393.88,-471.78"/>
</g>
<!-- node18 -->
<g id="node18" class="node">
<title>node18</title>
<path fill="pink" stroke="black" d="M496.5,-415.5C496.5,-415.5 627.5,-415.5 627.5,-415.5 633.5,-415.5 639.5,-421.5 639.5,-427.5 639.5,-427.5 639.5,-449.5 639.5,-449.5 639.5,-455.5 633.5,-461.5 627.5,-461.5 627.5,-461.5 496.5,-461.5 496.5,-461.5 490.5,-461.5 484.5,-455.5 484.5,-449.5 484.5,-449.5 484.5,-427.5 484.5,-427.5 484.5,-421.5 490.5,-415.5 496.5,-415.5"/>
<text text-anchor="middle" x="502" y="-446.3" font-family="Times,serif" font-size="14.00">18</text>
<polyline fill="none" stroke="black" points="519.5,-438.5 519.5,-461.5 "/>
<text text-anchor="middle" x="547" y="-446.3" font-family="Times,serif" font-size="14.00">NUM</text>
<polyline fill="none" stroke="black" points="574.5,-438.5 574.5,-461.5 "/>
<text text-anchor="middle" x="607" y="-446.3" font-family="Times,serif" font-size="14.00">size=1</text>
<polyline fill="none" stroke="black" points="484.5,-438.5 639.5,-438.5 "/>
<text text-anchor="middle" x="562" y="-423.3" font-family="Times,serif" font-size="14.00">4</text>
</g>
<!-- node6&#45;&gt;node18 -->
<g id="edge34" class="edge">
<title>node6&#45;&gt;node18</title>
<path fill="none" stroke="green" d="M436,-498.37C455.6,-488.37 479.74,-476.47 501.64,-466"/>
<polygon fill="green" stroke="green" points="503.35,-469.06 510.88,-461.61 500.34,-462.74 503.35,-469.06"/>
</g>
<!-- node7&#45;&gt;node6 -->
<g id="edge13" class="edge">
<title>node7&#45;&gt;node6</title>
<path fill="none" stroke="blue" d="M403.09,-461.61C403.72,-469.82 403.9,-479.31 403.62,-488.25"/>
<polygon fill="blue" stroke="blue" points="400.12,-488.2 403.09,-498.37 407.11,-488.56 400.12,-488.2"/>
</g>
<!-- node8 -->
<g id="node8" class="node">
<title>node8</title>
<path fill="peachpuff" stroke="black" d="M264.5,-332.5C264.5,-332.5 369.5,-332.5 369.5,-332.5 375.5,-332.5 381.5,-338.5 381.5,-344.5 381.5,-344.5 381.5,-366.5 381.5,-366.5 381.5,-372.5 375.5,-378.5 369.5,-378.5 369.5,-378.5 264.5,-378.5 264.5,-378.5 258.5,-378.5 252.5,-372.5 252.5,-366.5 252.5,-366.5 252.5,-344.5 252.5,-344.5 252.5,-338.5 258.5,-332.5 264.5,-332.5"/>
<text text-anchor="middle" x="265.5" y="-363.3" font-family="Times,serif" font-size="14.00">8</text>
<polyline fill="none" stroke="black" points="278.5,-355.5 278.5,-378.5 "/>
<text text-anchor="middle" x="297.5" y="-363.3" font-family="Times,serif" font-size="14.00">OP</text>
<polyline fill="none" stroke="black" points="316.5,-355.5 316.5,-378.5 "/>
<text text-anchor="middle" x="349" y="-363.3" font-family="Times,serif" font-size="14.00">size=9</text>
<polyline fill="none" stroke="black" points="252.5,-355.5 381.5,-355.5 "/>
<text text-anchor="middle" x="317" y="-340.3" font-family="Times,serif" font-size="14.00">+</text>
</g>
<!-- node7&#45;&gt;node8 -->
<g id="edge14" class="edge">
<title>node7&#45;&gt;node8</title>
<path fill="none" stroke="red" d="M369.05,-415.37C359.45,-406.35 348.87,-395.79 339.73,-386.12"/>
<polygon fill="red" stroke="red" points="342.12,-383.55 332.75,-378.61 336.99,-388.32 342.12,-383.55"/>
</g>
<!-- node17 -->
<g id="node17" class="node">
<title>node17</title>
<path fill="pink" stroke="black" d="M411.5,-332.5C411.5,-332.5 542.5,-332.5 542.5,-332.5 548.5,-332.5 554.5,-338.5 554.5,-344.5 554.5,-344.5 554.5,-366.5 554.5,-366.5 554.5,-372.5 548.5,-378.5 542.5,-378.5 542.5,-378.5 411.5,-378.5 411.5,-378.5 405.5,-378.5 399.5,-372.5 399.5,-366.5 399.5,-366.5 399.5,-344.5 399.5,-344.5 399.5,-338.5 405.5,-332.5 411.5,-332.5"/>
<text text-anchor="middle" x="417" y="-363.3" font-family="Times,serif" font-size="14.00">17</text>
<polyline fill="none" stroke="black" points="434.5,-355.5 434.5,-378.5 "/>
<text text-anchor="middle" x="462" y="-363.3" font-family="Times,serif" font-size="14.00">NUM</text>
<polyline fill="none" stroke="black" points="489.5,-355.5 489.5,-378.5 "/>
<text text-anchor="middle" x="522" y="-363.3" font-family="Times,serif" font-size="14.00">size=1</text>
<polyline fill="none" stroke="black" points="399.5,-355.5 554.5,-355.5 "/>
<text text-anchor="middle" x="477" y="-340.3" font-family="Times,serif" font-size="14.00">2</text>
</g>
<!-- node7&#45;&gt;node17 -->
<g id="edge32" class="edge">
<title>node7&#45;&gt;node17</title>
<path fill="none" stroke="green" d="M412.77,-415.37C421.15,-406.17 431.67,-395.37 441.81,-385.55"/>
<polygon fill="green" stroke="green" points="444.26,-388.04 449.08,-378.61 439.43,-382.98 444.26,-388.04"/>
</g>
<!-- node8&#45;&gt;node7 -->
<g id="edge15" class="edge">
<title>node8&#45;&gt;node7</title>
<path fill="none" stroke="blue" d="M344.92,-378.61C354.52,-387.62 365.1,-398.18 374.25,-407.85"/>
<polygon fill="blue" stroke="blue" points="371.86,-410.42 381.23,-415.37 376.99,-405.66 371.86,-410.42"/>
</g>
<!-- node9 -->
<g id="node9" class="node">
<title>node9</title>
<path fill="peachpuff" stroke="black" d="M184.5,-249.5C184.5,-249.5 289.5,-249.5 289.5,-249.5 295.5,-249.5 301.5,-255.5 301.5,-261.5 301.5,-261.5 301.5,-283.5 301.5,-283.5 301.5,-289.5 295.5,-295.5 289.5,-295.5 289.5,-295.5 184.5,-295.5 184.5,-295.5 178.5,-295.5 172.5,-289.5 172.5,-283.5 172.5,-283.5 172.5,-261.5 172.5,-261.5 172.5,-255.5 178.5,-249.5 184.5,-249.5"/>
<text text-anchor="middle" x="185.5" y="-280.3" font-family="Times,serif" font-size="14.00">9</text>
<polyline fill="none" stroke="black" points="198.5,-272.5 198.5,-295.5 "/>
<text text-anchor="middle" x="217.5" y="-280.3" font-family="Times,serif" font-size="14.00">OP</text>
<polyline fill="none" stroke="black" points="236.5,-272.5 236.5,-295.5 "/>
<text text-anchor="middle" x="269" y="-280.3" font-family="Times,serif" font-size="14.00">size=7</text>
<polyline fill="none" stroke="black" points="172.5,-272.5 301.5,-272.5 "/>
<text text-anchor="middle" x="237" y="-257.3" font-family="Times,serif" font-size="14.00">*</text>
</g>
<!-- node8&#45;&gt;node9 -->
<g id="edge16" class="edge">
<title>node8&#45;&gt;node9</title>
<path fill="none" stroke="red" d="M289.05,-332.37C279.45,-323.35 268.87,-312.79 259.73,-303.12"/>
<polygon fill="red" stroke="red" points="262.12,-300.55 252.75,-295.61 256.99,-305.32 262.12,-300.55"/>
</g>
<!-- node16 -->
<g id="node16" class="node">
<title>node16</title>
<path fill="pink" stroke="black" d="M331.5,-249.5C331.5,-249.5 462.5,-249.5 462.5,-249.5 468.5,-249.5 474.5,-255.5 474.5,-261.5 474.5,-261.5 474.5,-283.5 474.5,-283.5 474.5,-289.5 468.5,-295.5 462.5,-295.5 462.5,-295.5 331.5,-295.5 331.5,-295.5 325.5,-295.5 319.5,-289.5 319.5,-283.5 319.5,-283.5 319.5,-261.5 319.5,-261.5 319.5,-255.5 325.5,-249.5 331.5,-249.5"/>
<text text-anchor="middle" x="337" y="-280.3" font-family="Times,serif" font-size="14.00">16</text>
<polyline fill="none" stroke="black" points="354.5,-272.5 354.5,-295.5 "/>
<text text-anchor="middle" x="382" y="-280.3" font-family="Times,serif" font-size="14.00">NUM</text>
<polyline fill="none" stroke="black" points="409.5,-272.5 409.5,-295.5 "/>
<text text-anchor="middle" x="442" y="-280.3" font-family="Times,serif" font-size="14.00">size=1</text>
<polyline fill="none" stroke="black" points="319.5,-272.5 474.5,-272.5 "/>
<text text-anchor="middle" x="397" y="-257.3" font-family="Times,serif" font-size="14.00">1</text>
</g>
<!-- node8&#45;&gt;node16 -->
<g id="edge30" class="edge">
<title>node8&#45;&gt;node16</title>
<path fill="none" stroke="green" d="M332.77,-332.37C341.15,-323.17 351.67,-312.37 361.81,-302.55"/>
<polygon fill="green" stroke="green" points="364.26,-305.04 369.08,-295.61 359.43,-299.98 364.26,-305.04"/>
</g>
<!-- node9&#45;&gt;node8 -->
<g id="edge17" class="edge">
<title>node9&#45;&gt;node8</title>
<path fill="none" stroke="blue" d="M264.92,-295.61C274.52,-304.62 285.1,-315.18 294.25,-324.85"/>
<polygon fill="blue" stroke="blue" points="291.86,-327.42 301.23,-332.37 296.99,-322.66 291.86,-327.42"/>
</g>
<!-- node10 -->
<g id="node10" class="node">
<title>node10</title>
<path fill="pink" stroke="black" d="M89.5,-166.5C89.5,-166.5 220.5,-166.5 220.5,-166.5 226.5,-166.5 232.5,-172.5 232.5,-178.5 232.5,-178.5 232.5,-200.5 232.5,-200.5 232.5,-206.5 226.5,-212.5 220.5,-212.5 220.5,-212.5 89.5,-212.5 89.5,-212.5 83.5,-212.5 77.5,-206.5 77.5,-200.5 77.5,-200.5 77.5,-178.5 77.5,-178.5 77.5,-172.5 83.5,-166.5 89.5,-166.5"/>
<text text-anchor="middle" x="95" y="-197.3" font-family="Times,serif" font-size="14.00">10</text>
<polyline fill="none" stroke="black" points="112.5,-189.5 112.5,-212.5 "/>
<text text-anchor="middle" x="140" y="-197.3" font-family="Times,serif" font-size="14.00">NUM</text>
<polyline fill="none" stroke="black" points="167.5,-189.5 167.5,-212.5 "/>
<text text-anchor="middle" x="200" y="-197.3" font-family="Times,serif" font-size="14.00">size=1</text>
<polyline fill="none" stroke="black" points="77.5,-189.5 232.5,-189.5 "/>
<text text-anchor="middle" x="155" y="-174.3" font-family="Times,serif" font-size="14.00">3</text>
</g>
<!-- node9&#45;&gt;node10 -->
<g id="edge18" class="edge">
<title>node9&#45;&gt;node10</title>
<path fill="none" stroke="red" d="M208.5,-249.37C198.68,-240.35 187.84,-229.79 178.46,-220.12"/>
<polygon fill="red" stroke="red" points="180.73,-217.43 171.29,-212.61 175.66,-222.26 180.73,-217.43"/>
</g>
<!-- node11 -->
<g id="node11" class="node">
<title>node11</title>
<path fill="peachpuff" stroke="black" d="M263,-166.5C263,-166.5 377,-166.5 377,-166.5 383,-166.5 389,-172.5 389,-178.5 389,-178.5 389,-200.5 389,-200.5 389,-206.5 383,-212.5 377,-212.5 377,-212.5 263,-212.5 263,-212.5 257,-212.5 251,-206.5 251,-200.5 251,-200.5 251,-178.5 251,-178.5 251,-172.5 257,-166.5 263,-166.5"/>
<text text-anchor="middle" x="268.5" y="-197.3" font-family="Times,serif" font-size="14.00">11</text>
<polyline fill="none" stroke="black" points="286,-189.5 286,-212.5 "/>
<text text-anchor="middle" x="305" y="-197.3" font-family="Times,serif" font-size="14.00">OP</text>
<polyline fill="none" stroke="black" points="324,-189.5 324,-212.5 "/>
<text text-anchor="middle" x="356.5" y="-197.3" font-family="Times,serif" font-size="14.00">size=5</text>
<polyline fill="none" stroke="black" points="251,-189.5 389,-189.5 "/>
<text text-anchor="middle" x="320" y="-174.3" font-family="Times,serif" font-size="14.00">&#45;</text>
</g>
<!-- node9&#45;&gt;node11 -->
<g id="edge20" class="edge">
<title>node9&#45;&gt;node11</title>
<path fill="none" stroke="green" d="M253.59,-249.37C262.31,-240.17 273.23,-229.37 283.73,-219.55"/>
<polygon fill="green" stroke="green" points="286.28,-221.96 291.26,-212.61 281.53,-216.81 286.28,-221.96"/>
</g>
<!-- node10&#45;&gt;node9 -->
<g id="edge19" class="edge">
<title>node10&#45;&gt;node9</title>
<path fill="none" stroke="blue" d="M183.47,-212.61C193.29,-221.62 204.13,-232.18 213.51,-241.85"/>
<polygon fill="blue" stroke="blue" points="211.25,-244.55 220.68,-249.37 216.31,-239.71 211.25,-244.55"/>
</g>
<!-- node11&#45;&gt;node9 -->
<g id="edge21" class="edge">
<title>node11&#45;&gt;node9</title>
<path fill="none" stroke="blue" d="M303.44,-212.61C294.72,-221.8 283.8,-232.6 273.3,-242.42"/>
<polygon fill="blue" stroke="blue" points="270.75,-240.01 265.77,-249.37 275.5,-245.16 270.75,-240.01"/>
</g>
<!-- node12 -->
<g id="node12" class="node">
<title>node12</title>
<path fill="pink" stroke="black" d="M171.5,-83.5C171.5,-83.5 302.5,-83.5 302.5,-83.5 308.5,-83.5 314.5,-89.5 314.5,-95.5 314.5,-95.5 314.5,-117.5 314.5,-117.5 314.5,-123.5 308.5,-129.5 302.5,-129.5 302.5,-129.5 171.5,-129.5 171.5,-129.5 165.5,-129.5 159.5,-123.5 159.5,-117.5 159.5,-117.5 159.5,-95.5 159.5,-95.5 159.5,-89.5 165.5,-83.5 171.5,-83.5"/>
<text text-anchor="middle" x="177" y="-114.3" font-family="Times,serif" font-size="14.00">12</text>
<polyline fill="none" stroke="black" points="194.5,-106.5 194.5,-129.5 "/>
<text text-anchor="middle" x="222" y="-114.3" font-family="Times,serif" font-size="14.00">NUM</text>
<polyline fill="none" stroke="black" points="249.5,-106.5 249.5,-129.5 "/>
<text text-anchor="middle" x="282" y="-114.3" font-family="Times,serif" font-size="14.00">size=1</text>
<polyline fill="none" stroke="black" points="159.5,-106.5 314.5,-106.5 "/>
<text text-anchor="middle" x="237" y="-91.3" font-family="Times,serif" font-size="14.00">25</text>
</g>
<!-- node11&#45;&gt;node12 -->
<g id="edge22" class="edge">
<title>node11&#45;&gt;node12</title>
<path fill="none" stroke="red" d="M291.23,-166.37C281.2,-157.26 270.11,-146.58 260.54,-136.83"/>
<polygon fill="red" stroke="red" points="263.03,-134.37 253.56,-129.61 257.99,-139.23 263.03,-134.37"/>
</g>
<!-- node13 -->
<g id="node13" class="node">
<title>node13</title>
<path fill="peachpuff" stroke="black" d="M345,-83.5C345,-83.5 459,-83.5 459,-83.5 465,-83.5 471,-89.5 471,-95.5 471,-95.5 471,-117.5 471,-117.5 471,-123.5 465,-129.5 459,-129.5 459,-129.5 345,-129.5 345,-129.5 339,-129.5 333,-123.5 333,-117.5 333,-117.5 333,-95.5 333,-95.5 333,-89.5 339,-83.5 345,-83.5"/>
<text text-anchor="middle" x="350.5" y="-114.3" font-family="Times,serif" font-size="14.00">13</text>
<polyline fill="none" stroke="black" points="368,-106.5 368,-129.5 "/>
<text text-anchor="middle" x="387" y="-114.3" font-family="Times,serif" font-size="14.00">OP</text>
<polyline fill="none" stroke="black" points="406,-106.5 406,-129.5 "/>
<text text-anchor="middle" x="438.5" y="-114.3" font-family="Times,serif" font-size="14.00">size=3</text>
<polyline fill="none" stroke="black" points="333,-106.5 471,-106.5 "/>
<text text-anchor="middle" x="402" y="-91.3" font-family="Times,serif" font-size="14.00">*</text>
</g>
<!-- node11&#45;&gt;node13 -->
<g id="edge24" class="edge">
<title>node11&#45;&gt;node13</title>
<path fill="none" stroke="green" d="M336.32,-166.37C344.92,-157.17 355.71,-146.37 366.09,-136.55"/>
<polygon fill="green" stroke="green" points="368.61,-138.99 373.53,-129.61 363.83,-133.87 368.61,-138.99"/>
</g>
<!-- node12&#45;&gt;node11 -->
<g id="edge23" class="edge">
<title>node12&#45;&gt;node11</title>
<path fill="none" stroke="blue" d="M265.74,-129.61C275.77,-138.71 286.86,-149.39 296.43,-159.14"/>
<polygon fill="blue" stroke="blue" points="293.95,-161.6 303.41,-166.37 298.98,-156.74 293.95,-161.6"/>
</g>
<!-- node13&#45;&gt;node11 -->
<g id="edge25" class="edge">
<title>node13&#45;&gt;node11</title>
<path fill="none" stroke="blue" d="M385.71,-129.61C377.11,-138.8 366.32,-149.6 355.94,-159.42"/>
<polygon fill="blue" stroke="blue" points="353.42,-156.99 348.5,-166.37 358.2,-162.1 353.42,-156.99"/>
</g>
<!-- node14 -->
<g id="node14" class="node">
<title>node14</title>
<path fill="pink" stroke="black" d="M249.5,-0.5C249.5,-0.5 380.5,-0.5 380.5,-0.5 386.5,-0.5 392.5,-6.5 392.5,-12.5 392.5,-12.5 392.5,-34.5 392.5,-34.5 392.5,-40.5 386.5,-46.5 380.5,-46.5 380.5,-46.5 249.5,-46.5 249.5,-46.5 243.5,-46.5 237.5,-40.5 237.5,-34.5 237.5,-34.5 237.5,-12.5 237.5,-12.5 237.5,-6.5 243.5,-0.5 249.5,-0.5"/>
<text text-anchor="middle" x="255" y="-31.3" font-family="Times,serif" font-size="14.00">14</text>
<polyline fill="none" stroke="black" points="272.5,-23.5 272.5,-46.5 "/>
<text text-anchor="middle" x="300" y="-31.3" font-family="Times,serif" font-size="14.00">NUM</text>
<polyline fill="none" stroke="black" points="327.5,-23.5 327.5,-46.5 "/>
<text text-anchor="middle" x="360" y="-31.3" font-family="Times,serif" font-size="14.00">size=1</text>
<polyline fill="none" stroke="black" points="237.5,-23.5 392.5,-23.5 "/>
<text text-anchor="middle" x="315" y="-8.3" font-family="Times,serif" font-size="14.00">10</text>
</g>
<!-- node13&#45;&gt;node14 -->
<g id="edge26" class="edge">
<title>node13&#45;&gt;node14</title>
<path fill="none" stroke="red" d="M372.14,-83.37C361.65,-74.26 350.04,-63.58 339.99,-53.83"/>
<polygon fill="red" stroke="red" points="342.24,-51.13 332.66,-46.61 337.32,-56.12 342.24,-51.13"/>
</g>
<!-- node15 -->
<g id="node15" class="node">
<title>node15</title>
<path fill="pink" stroke="black" d="M422.5,-0.5C422.5,-0.5 553.5,-0.5 553.5,-0.5 559.5,-0.5 565.5,-6.5 565.5,-12.5 565.5,-12.5 565.5,-34.5 565.5,-34.5 565.5,-40.5 559.5,-46.5 553.5,-46.5 553.5,-46.5 422.5,-46.5 422.5,-46.5 416.5,-46.5 410.5,-40.5 410.5,-34.5 410.5,-34.5 410.5,-12.5 410.5,-12.5 410.5,-6.5 416.5,-0.5 422.5,-0.5"/>
<text text-anchor="middle" x="428" y="-31.3" font-family="Times,serif" font-size="14.00">15</text>
<polyline fill="none" stroke="black" points="445.5,-23.5 445.5,-46.5 "/>
<text text-anchor="middle" x="473" y="-31.3" font-family="Times,serif" font-size="14.00">NUM</text>
<polyline fill="none" stroke="black" points="500.5,-23.5 500.5,-46.5 "/>
<text text-anchor="middle" x="533" y="-31.3" font-family="Times,serif" font-size="14.00">size=1</text>
<polyline fill="none" stroke="black" points="410.5,-23.5 565.5,-23.5 "/>
<text text-anchor="middle" x="488" y="-8.3" font-family="Times,serif" font-size="14.00">2</text>
</g>
<!-- node13&#45;&gt;node15 -->
<g id="edge28" class="edge">
<title>node13&#45;&gt;node15</title>
<path fill="none" stroke="green" d="M419.41,-83.37C428.55,-74.08 440.02,-63.16 450.97,-53.26"/>
<polygon fill="green" stroke="green" points="453.3,-55.87 458.44,-46.61 448.65,-50.65 453.3,-55.87"/>
</g>
<!-- node14&#45;&gt;node13 -->
<g id="edge27" class="edge">
<title>node14&#45;&gt;node13</title>
<path fill="none" stroke="blue" d="M344.83,-46.61C355.31,-55.71 366.93,-66.39 376.98,-76.14"/>
<polygon fill="blue" stroke="blue" points="374.74,-78.84 384.32,-83.37 379.65,-73.85 374.74,-78.84"/>
</g>
<!-- node15&#45;&gt;node13 -->
<g id="edge29" class="edge">
<title>node15&#45;&gt;node13</title>
<path fill="none" stroke="blue" d="M470.62,-46.61C461.48,-55.89 450.02,-66.81 439.06,-76.71"/>
<polygon fill="blue" stroke="blue" points="436.73,-74.1 431.59,-83.37 441.38,-79.33 436.73,-74.1"/>
</g>
<!-- node16&#45;&gt;node8 -->
<g id="edge31" class="edge">
<title>node16&#45;&gt;node8</title>
<path fill="none" stroke="blue" d="M381.25,-295.61C372.88,-304.8 362.36,-315.6 352.22,-325.42"/>
<polygon fill="blue" stroke="blue" points="349.77,-322.93 344.95,-332.37 354.6,-327.99 349.77,-322.93"/>
</g>
<!-- node17&#45;&gt;node7 -->
<g id="edge33" class="edge">
<title>node17&#45;&gt;node7</title>
<path fill="none" stroke="blue" d="M461.25,-378.61C452.88,-387.8 442.36,-398.6 432.22,-408.42"/>
<polygon fill="blue" stroke="blue" points="429.77,-405.93 424.95,-415.37 434.6,-410.99 429.77,-405.93"/>
</g>
<!-- node18&#45;&gt;node6 -->
<g id="edge35" class="edge">
<title>node18&#45;&gt;node6</title>
<path fill="none" stroke="blue" d="M523.06,-461.61C503.46,-471.6 479.33,-483.5 457.41,-493.97"/>
<polygon fill="blue" stroke="blue" points="455.71,-490.91 448.18,-498.37 458.71,-497.23 455.71,-490.91"/>
</g>
</g>
</svg>
