<?xml version="1.0" encoding="UTF-8" standalone="no"?>
<!DOCTYPE svg PUBLIC "-//W3C//DTD SVG 1.1//EN"
 "http://www.w3.org/Graphics/SVG/1.1/DTD/svg11.dtd">
<!-- Generated by graphviz version 2.43.0 (0)
 -->
<!-- Title: %3 Pages: 1 -->
<svg width="306pt" height="221pt"
 viewBox="0.00 0.00 305.50 221.00" xmlns="http://www.w3.org/2000/svg" xmlns:xlink="http://www.w3.org/1999/xlink">
<g id="graph0" class="graph" transform="scale(1 1) rotate(0) translate(4 217)">
<title>%3</title>
<polygon fill="white" stroke="transparent" points="-4,4 -4,-217 301.5,-217 301.5,4 -4,4"/>
<!-- node1 -->
<g id="node1" class="node">
<title>node1</title>
<path fill="peachpuff" stroke="black" d="M94,-166.5C94,-166.5 199,-166.5 199,-166.5 205,-166.5 211,-172.5 211,-178.5 211,-178.5 211,-200.5 211,-200.5 211,-206.5 205,-212.5 199,-212.5 199,-212.5 94,-212.5 94,-212.5 88,-212.5 82,-206.5 82,-200.5 82,-200.5 82,-178.5 82,-178.5 82,-172.5 88,-166.5 94,-166.5"/>
<text text-anchor="middle" x="95" y="-197.3" font-family="Times,serif" font-size="14.00">1</text>
<polyline fill="none" stroke="black" points="108,-189.5 108,-212.5 "/>
<text text-anchor="middle" x="127" y="-197.3" font-family="Times,serif" font-size="14.00">OP</text>
<polyline fill="none" stroke="black" points="146,-189.5 146,-212.5 "/>
<text text-anchor="middle" x="178.5" y="-197.3" font-family="Times,serif" font-size="14.00">size=3</text>
<polyline fill="none" stroke="black" points="82,-189.5 211,-189.5 "/>
<text text-anchor="middle" x="146.5" y="-174.3" font-family="Times,serif" font-size="14.00">*</text>
</g>
<!-- node1&#45;&gt;node1 -->
<g id="edge1" class="edge">
<title>node1&#45;&gt;node1</title>
<path fill="none" stroke="blue" d="M211.18,-203.73C221.74,-201.69 229,-196.95 229,-189.5 229,-184.61 225.87,-180.89 220.74,-178.33"/>
<polygon fill="blue" stroke="blue" points="221.77,-174.99 211.18,-175.27 219.64,-181.66 221.77,-174.99"/>
</g>
<!-- node2 -->
<g id="node2" class="node">
<title>node2</title>
<path fill="peachpuff" stroke="black" d="M16,-83.5C16,-83.5 121,-83.5 121,-83.5 127,-83.5 133,-89.5 133,-95.5 133,-95.5 133,-117.5 133,-117.5 133,-123.5 127,-129.5 121,-129.5 121,-129.5 16,-129.5 16,-129.5 10,-129.5 4,-123.5 4,-117.5 4,-117.5 4,-95.5 4,-95.5 4,-89.5 10,-83.5 16,-83.5"/>
<text text-anchor="middle" x="17" y="-114.3" font-family="Times,serif" font-size="14.00">2</text>
<polyline fill="none" stroke="black" points="30,-106.5 30,-129.5 "/>
<text text-anchor="middle" x="49" y="-114.3" font-family="Times,serif" font-size="14.00">OP</text>
<polyline fill="none" stroke="black" points="68,-106.5 68,-129.5 "/>
<text text-anchor="middle" x="100.5" y="-114.3" font-family="Times,serif" font-size="14.00">size=1</text>
<polyline fill="none" stroke="black" points="4,-106.5 133,-106.5 "/>
<text text-anchor="middle" x="68.5" y="-91.3" font-family="Times,serif" font-size="14.00">cos</text>
</g>
<!-- node1&#45;&gt;node2 -->
<g id="edge2" class="edge">
<title>node1&#45;&gt;node2</title>
<path fill="none" stroke="red" d="M119.1,-166.37C109.72,-157.35 99.4,-146.79 90.5,-137.12"/>
<polygon fill="red" stroke="red" points="93,-134.68 83.7,-129.61 87.81,-139.37 93,-134.68"/>
</g>
<!-- node4 -->
<g id="node4" class="node">
<title>node4</title>
<path fill="pink" stroke="black" d="M163.5,-83.5C163.5,-83.5 285.5,-83.5 285.5,-83.5 291.5,-83.5 297.5,-89.5 297.5,-95.5 297.5,-95.5 297.5,-117.5 297.5,-117.5 297.5,-123.5 291.5,-129.5 285.5,-129.5 285.5,-129.5 163.5,-129.5 163.5,-129.5 157.5,-129.5 151.5,-123.5 151.5,-117.5 151.5,-117.5 151.5,-95.5 151.5,-95.5 151.5,-89.5 157.5,-83.5 163.5,-83.5"/>
<text text-anchor="middle" x="164.5" y="-114.3" font-family="Times,serif" font-size="14.00">4</text>
<polyline fill="none" stroke="black" points="177.5,-106.5 177.5,-129.5 "/>
<text text-anchor="middle" x="205" y="-114.3" font-family="Times,serif" font-size="14.00">NUM</text>
<polyline fill="none" stroke="black" points="232.5,-106.5 232.5,-129.5 "/>
<text text-anchor="middle" x="265" y="-114.3" font-family="Times,serif" font-size="14.00">size=1</text>
<polyline fill="none" stroke="black" points="151.5,-106.5 297.5,-106.5 "/>
<text text-anchor="middle" x="224.5" y="-91.3" font-family="Times,serif" font-size="14.00">1</text>
</g>
<!-- node1&#45;&gt;node4 -->
<g id="edge6" class="edge">
<title>node1&#45;&gt;node4</title>
<path fill="none" stroke="green" d="M161.72,-166.37C169.79,-157.26 179.93,-146.58 189.74,-136.83"/>
<polygon fill="green" stroke="green" points="192.42,-139.1 197.12,-129.61 187.53,-134.1 192.42,-139.1"/>
</g>
<!-- node2&#45;&gt;node1 -->
<g id="edge3" class="edge">
<title>node2&#45;&gt;node1</title>
<path fill="none" stroke="blue" d="M95.88,-129.61C105.25,-138.62 115.57,-149.18 124.48,-158.85"/>
<polygon fill="blue" stroke="blue" points="121.97,-161.3 131.28,-166.37 127.16,-156.6 121.97,-161.3"/>
</g>
<!-- node3 -->
<g id="node3" class="node">
<title>node3</title>
<path fill="lightyellow" stroke="black" d="M12,-0.5C12,-0.5 125,-0.5 125,-0.5 131,-0.5 137,-6.5 137,-12.5 137,-12.5 137,-34.5 137,-34.5 137,-40.5 131,-46.5 125,-46.5 125,-46.5 12,-46.5 12,-46.5 6,-46.5 0,-40.5 0,-34.5 0,-34.5 0,-12.5 0,-12.5 0,-6.5 6,-0.5 12,-0.5"/>
<text text-anchor="middle" x="13" y="-31.3" font-family="Times,serif" font-size="14.00">3</text>
<polyline fill="none" stroke="black" points="26,-23.5 26,-46.5 "/>
<text text-anchor="middle" x="49" y="-31.3" font-family="Times,serif" font-size="14.00">VAR</text>
<polyline fill="none" stroke="black" points="72,-23.5 72,-46.5 "/>
<text text-anchor="middle" x="104.5" y="-31.3" font-family="Times,serif" font-size="14.00">size=1</text>
<polyline fill="none" stroke="black" points="0,-23.5 137,-23.5 "/>
<text text-anchor="middle" x="68.5" y="-8.3" font-family="Times,serif" font-size="14.00">x</text>
</g>
<!-- node2&#45;&gt;node3 -->
<g id="edge4" class="edge">
<title>node2&#45;&gt;node3</title>
<path fill="none" stroke="green" d="M62.41,-83.37C61.78,-75.15 61.6,-65.66 61.88,-56.73"/>
<polygon fill="green" stroke="green" points="65.38,-56.78 62.41,-46.61 58.39,-56.41 65.38,-56.78"/>
</g>
<!-- node3&#45;&gt;node2 -->
<g id="edge5" class="edge">
<title>node3&#45;&gt;node2</title>
<path fill="none" stroke="blue" d="M74.59,-46.61C75.22,-54.82 75.4,-64.31 75.12,-73.25"/>
<polygon fill="blue" stroke="blue" points="71.62,-73.2 74.59,-83.37 78.61,-73.56 71.62,-73.2"/>
</g>
<!-- node4&#45;&gt;node1 -->
<g id="edge7" class="edge">
<title>node4&#45;&gt;node1</title>
<path fill="none" stroke="blue" d="M209.3,-129.61C201.24,-138.71 191.09,-149.39 181.29,-159.14"/>
<polygon fill="blue" stroke="blue" points="178.6,-156.87 173.9,-166.37 183.5,-161.87 178.6,-156.87"/>
</g>
</g>
</svg>
