<?xml version="1.0" encoding="UTF-8" standalone="no"?>
<!DOCTYPE svg PUBLIC "-//W3C//DTD SVG 1.1//EN"
 "http://www.w3.org/Graphics/SVG/1.1/DTD/svg11.dtd">
<!-- Generated by graphviz version 2.43.0 (0)
 -->
<!-- Title: %3 Pages: 1 -->
<svg width="484pt" height="304pt"
 viewBox="0.00 0.00 484.00 304.00" xmlns="http://www.w3.org/2000/svg" xmlns:xlink="http://www.w3.org/1999/xlink">
<g id="graph0" class="graph" transform="scale(1 1) rotate(0) translate(4 300)">
<title>%3</title>
<polygon fill="white" stroke="transparent" points="-4,4 -4,-300 480,-300 480,4 -4,4"/>
<!-- node1 -->
<g id="node1" class="node">
<title>node1</title>
<path fill="peachpuff" stroke="black" d="M98.5,-249.5C98.5,-249.5 203.5,-249.5 203.5,-249.5 209.5,-249.5 215.5,-255.5 215.5,-261.5 215.5,-261.5 215.5,-283.5 215.5,-283.5 215.5,-289.5 209.5,-295.5 203.5,-295.5 203.5,-295.5 98.5,-295.5 98.5,-295.5 92.5,-295.5 86.5,-289.5 86.5,-283.5 86.5,-283.5 86.5,-261.5 86.5,-261.5 86.5,-255.5 92.5,-249.5 98.5,-249.5"/>
<text text-anchor="middle" x="99.5" y="-280.3" font-family="Times,serif" font-size="14.00">1</text>
<polyline fill="none" stroke="black" points="112.5,-272.5 112.5,-295.5 "/>
<text text-anchor="middle" x="131.5" y="-280.3" font-family="Times,serif" font-size="14.00">OP</text>
<polyline fill="none" stroke="black" points="150.5,-272.5 150.5,-295.5 "/>
<text text-anchor="middle" x="183" y="-280.3" font-family="Times,serif" font-size="14.00">size=5</text>
<polyline fill="none" stroke="black" points="86.5,-272.5 215.5,-272.5 "/>
<text text-anchor="middle" x="151" y="-257.3" font-family="Times,serif" font-size="14.00">^</text>
</g>
<!-- node1&#45;&gt;node1 -->
<g id="edge1" class="edge">
<title>node1&#45;&gt;node1</title>
<path fill="none" stroke="blue" d="M215.68,-286.73C226.24,-284.69 233.5,-279.95 233.5,-272.5 233.5,-267.61 230.37,-263.89 225.24,-261.33"/>
<polygon fill="blue" stroke="blue" points="226.27,-257.99 215.68,-258.27 224.14,-264.66 226.27,-257.99"/>
</g>
<!-- node2 -->
<g id="node2" class="node">
<title>node2</title>
<path fill="pink" stroke="black" d="M12,-166.5C12,-166.5 134,-166.5 134,-166.5 140,-166.5 146,-172.5 146,-178.5 146,-178.5 146,-200.5 146,-200.5 146,-206.5 140,-212.5 134,-212.5 134,-212.5 12,-212.5 12,-212.5 6,-212.5 0,-206.5 0,-200.5 0,-200.5 0,-178.5 0,-178.5 0,-172.5 6,-166.5 12,-166.5"/>
<text text-anchor="middle" x="13" y="-197.3" font-family="Times,serif" font-size="14.00">2</text>
<polyline fill="none" stroke="black" points="26,-189.5 26,-212.5 "/>
<text text-anchor="middle" x="53.5" y="-197.3" font-family="Times,serif" font-size="14.00">NUM</text>
<polyline fill="none" stroke="black" points="81,-189.5 81,-212.5 "/>
<text text-anchor="middle" x="113.5" y="-197.3" font-family="Times,serif" font-size="14.00">size=1</text>
<polyline fill="none" stroke="black" points="0,-189.5 146,-189.5 "/>
<text text-anchor="middle" x="73" y="-174.3" font-family="Times,serif" font-size="14.00">1</text>
</g>
<!-- node1&#45;&gt;node2 -->
<g id="edge2" class="edge">
<title>node1&#45;&gt;node2</title>
<path fill="none" stroke="red" d="M123.6,-249.37C114.22,-240.35 103.9,-229.79 95,-220.12"/>
<polygon fill="red" stroke="red" points="97.5,-217.68 88.2,-212.61 92.31,-222.37 97.5,-217.68"/>
</g>
<!-- node3 -->
<g id="node3" class="node">
<title>node3</title>
<path fill="peachpuff" stroke="black" d="M176.5,-166.5C176.5,-166.5 281.5,-166.5 281.5,-166.5 287.5,-166.5 293.5,-172.5 293.5,-178.5 293.5,-178.5 293.5,-200.5 293.5,-200.5 293.5,-206.5 287.5,-212.5 281.5,-212.5 281.5,-212.5 176.5,-212.5 176.5,-212.5 170.5,-212.5 164.5,-206.5 164.5,-200.5 164.5,-200.5 164.5,-178.5 164.5,-178.5 164.5,-172.5 170.5,-166.5 176.5,-166.5"/>
<text text-anchor="middle" x="177.5" y="-197.3" font-family="Times,serif" font-size="14.00">3</text>
<polyline fill="none" stroke="black" points="190.5,-189.5 190.5,-212.5 "/>
<text text-anchor="middle" x="209.5" y="-197.3" font-family="Times,serif" font-size="14.00">OP</text>
<polyline fill="none" stroke="black" points="228.5,-189.5 228.5,-212.5 "/>
<text text-anchor="middle" x="261" y="-197.3" font-family="Times,serif" font-size="14.00">size=7</text>
<polyline fill="none" stroke="black" points="164.5,-189.5 293.5,-189.5 "/>
<text text-anchor="middle" x="229" y="-174.3" font-family="Times,serif" font-size="14.00">^</text>
</g>
<!-- node1&#45;&gt;node3 -->
<g id="edge4" class="edge">
<title>node1&#45;&gt;node3</title>
<path fill="none" stroke="green" d="M166.22,-249.37C174.29,-240.26 184.43,-229.58 194.24,-219.83"/>
<polygon fill="green" stroke="green" points="196.92,-222.1 201.62,-212.61 192.03,-217.1 196.92,-222.1"/>
</g>
<!-- node2&#45;&gt;node1 -->
<g id="edge3" class="edge">
<title>node2&#45;&gt;node1</title>
<path fill="none" stroke="blue" d="M100.38,-212.61C109.75,-221.62 120.07,-232.18 128.98,-241.85"/>
<polygon fill="blue" stroke="blue" points="126.47,-244.3 135.78,-249.37 131.66,-239.6 126.47,-244.3"/>
</g>
<!-- node3&#45;&gt;node1 -->
<g id="edge5" class="edge">
<title>node3&#45;&gt;node1</title>
<path fill="none" stroke="blue" d="M213.8,-212.61C205.74,-221.71 195.59,-232.39 185.79,-242.14"/>
<polygon fill="blue" stroke="blue" points="183.1,-239.87 178.4,-249.37 188,-244.87 183.1,-239.87"/>
</g>
<!-- node4 -->
<g id="node4" class="node">
<title>node4</title>
<path fill="pink" stroke="black" d="M90,-83.5C90,-83.5 212,-83.5 212,-83.5 218,-83.5 224,-89.5 224,-95.5 224,-95.5 224,-117.5 224,-117.5 224,-123.5 218,-129.5 212,-129.5 212,-129.5 90,-129.5 90,-129.5 84,-129.5 78,-123.5 78,-117.5 78,-117.5 78,-95.5 78,-95.5 78,-89.5 84,-83.5 90,-83.5"/>
<text text-anchor="middle" x="91" y="-114.3" font-family="Times,serif" font-size="14.00">4</text>
<polyline fill="none" stroke="black" points="104,-106.5 104,-129.5 "/>
<text text-anchor="middle" x="131.5" y="-114.3" font-family="Times,serif" font-size="14.00">NUM</text>
<polyline fill="none" stroke="black" points="159,-106.5 159,-129.5 "/>
<text text-anchor="middle" x="191.5" y="-114.3" font-family="Times,serif" font-size="14.00">size=1</text>
<polyline fill="none" stroke="black" points="78,-106.5 224,-106.5 "/>
<text text-anchor="middle" x="151" y="-91.3" font-family="Times,serif" font-size="14.00">2</text>
</g>
<!-- node3&#45;&gt;node4 -->
<g id="edge6" class="edge">
<title>node3&#45;&gt;node4</title>
<path fill="none" stroke="red" d="M201.6,-166.37C192.22,-157.35 181.9,-146.79 173,-137.12"/>
<polygon fill="red" stroke="red" points="175.5,-134.68 166.2,-129.61 170.31,-139.37 175.5,-134.68"/>
</g>
<!-- node5 -->
<g id="node5" class="node">
<title>node5</title>
<path fill="peachpuff" stroke="black" d="M254.5,-83.5C254.5,-83.5 359.5,-83.5 359.5,-83.5 365.5,-83.5 371.5,-89.5 371.5,-95.5 371.5,-95.5 371.5,-117.5 371.5,-117.5 371.5,-123.5 365.5,-129.5 359.5,-129.5 359.5,-129.5 254.5,-129.5 254.5,-129.5 248.5,-129.5 242.5,-123.5 242.5,-117.5 242.5,-117.5 242.5,-95.5 242.5,-95.5 242.5,-89.5 248.5,-83.5 254.5,-83.5"/>
<text text-anchor="middle" x="255.5" y="-114.3" font-family="Times,serif" font-size="14.00">5</text>
<polyline fill="none" stroke="black" points="268.5,-106.5 268.5,-129.5 "/>
<text text-anchor="middle" x="287.5" y="-114.3" font-family="Times,serif" font-size="14.00">OP</text>
<polyline fill="none" stroke="black" points="306.5,-106.5 306.5,-129.5 "/>
<text text-anchor="middle" x="339" y="-114.3" font-family="Times,serif" font-size="14.00">size=5</text>
<polyline fill="none" stroke="black" points="242.5,-106.5 371.5,-106.5 "/>
<text text-anchor="middle" x="307" y="-91.3" font-family="Times,serif" font-size="14.00">^</text>
</g>
<!-- node3&#45;&gt;node5 -->
<g id="edge8" class="edge">
<title>node3&#45;&gt;node5</title>
<path fill="none" stroke="green" d="M244.22,-166.37C252.29,-157.26 262.43,-146.58 272.24,-136.83"/>
<polygon fill="green" stroke="green" points="274.92,-139.1 279.62,-129.61 270.03,-134.1 274.92,-139.1"/>
</g>
<!-- node4&#45;&gt;node3 -->
<g id="edge7" class="edge">
<title>node4&#45;&gt;node3</title>
<path fill="none" stroke="blue" d="M178.38,-129.61C187.75,-138.62 198.07,-149.18 206.98,-158.85"/>
<polygon fill="blue" stroke="blue" points="204.47,-161.3 213.78,-166.37 209.66,-156.6 204.47,-161.3"/>
</g>
<!-- node5&#45;&gt;node3 -->
<g id="edge9" class="edge">
<title>node5&#45;&gt;node3</title>
<path fill="none" stroke="blue" d="M291.8,-129.61C283.74,-138.71 273.59,-149.39 263.79,-159.14"/>
<polygon fill="blue" stroke="blue" points="261.1,-156.87 256.4,-166.37 266,-161.87 261.1,-156.87"/>
</g>
<!-- node6 -->
<g id="node6" class="node">
<title>node6</title>
<path fill="pink" stroke="black" d="M246,-0.5C246,-0.5 368,-0.5 368,-0.5 374,-0.5 380,-6.5 380,-12.5 380,-12.5 380,-34.5 380,-34.5 380,-40.5 374,-46.5 368,-46.5 368,-46.5 246,-46.5 246,-46.5 240,-46.5 234,-40.5 234,-34.5 234,-34.5 234,-12.5 234,-12.5 234,-6.5 240,-0.5 246,-0.5"/>
<text text-anchor="middle" x="247" y="-31.3" font-family="Times,serif" font-size="14.00">6</text>
<polyline fill="none" stroke="black" points="260,-23.5 260,-46.5 "/>
<text text-anchor="middle" x="287.5" y="-31.3" font-family="Times,serif" font-size="14.00">NUM</text>
<polyline fill="none" stroke="black" points="315,-23.5 315,-46.5 "/>
<text text-anchor="middle" x="347.5" y="-31.3" font-family="Times,serif" font-size="14.00">size=1</text>
<polyline fill="none" stroke="black" points="234,-23.5 380,-23.5 "/>
<text text-anchor="middle" x="307" y="-8.3" font-family="Times,serif" font-size="14.00">3</text>
</g>
<!-- node5&#45;&gt;node6 -->
<g id="edge10" class="edge">
<title>node5&#45;&gt;node6</title>
<path fill="none" stroke="red" d="M300.91,-83.37C300.28,-75.15 300.1,-65.66 300.38,-56.73"/>
<polygon fill="red" stroke="red" points="303.88,-56.78 300.91,-46.61 296.89,-56.41 303.88,-56.78"/>
</g>
<!-- node7 -->
<g id="node7" class="node">
<title>node7</title>
<ellipse fill="lightgrey" stroke="black" cx="437" cy="-23.5" rx="38.99" ry="18"/>
<text text-anchor="middle" x="437" y="-19.8" font-family="Times,serif" font-size="14.00">node7</text>
</g>
<!-- node5&#45;&gt;node7 -->
<g id="edge12" class="edge">
<title>node5&#45;&gt;node7</title>
<path fill="none" stroke="green" d="M342.52,-83.37C362.38,-70.99 386.9,-55.72 405.98,-43.83"/>
<polygon fill="green" stroke="green" points="407.96,-46.72 414.6,-38.46 404.26,-40.78 407.96,-46.72"/>
</g>
<!-- node6&#45;&gt;node5 -->
<g id="edge11" class="edge">
<title>node6&#45;&gt;node5</title>
<path fill="none" stroke="blue" d="M313.09,-46.61C313.72,-54.82 313.9,-64.31 313.62,-73.25"/>
<polygon fill="blue" stroke="blue" points="310.12,-73.2 313.09,-83.37 317.11,-73.56 310.12,-73.2"/>
</g>
</g>
</svg>
