<?xml version="1.0" encoding="UTF-8" standalone="no"?>
<!DOCTYPE svg PUBLIC "-//W3C//DTD SVG 1.1//EN"
 "http://www.w3.org/Graphics/SVG/1.1/DTD/svg11.dtd">
<!-- Generated by graphviz version 2.43.0 (0)
 -->
<!-- Title: %3 Pages: 1 -->
<svg width="164pt" height="138pt"
 viewBox="0.00 0.00 163.50 138.00" xmlns="http://www.w3.org/2000/svg" xmlns:xlink="http://www.w3.org/1999/xlink">
<g id="graph0" class="graph" transform="scale(1 1) rotate(0) translate(4 134)">
<title>%3</title>
<polygon fill="white" stroke="transparent" points="-4,4 -4,-134 159.5,-134 159.5,4 -4,4"/>
<!-- node1 -->
<g id="node1" class="node">
<title>node1</title>
<path fill="peachpuff" stroke="black" d="M20.5,-83.5C20.5,-83.5 125.5,-83.5 125.5,-83.5 131.5,-83.5 137.5,-89.5 137.5,-95.5 137.5,-95.5 137.5,-117.5 137.5,-117.5 137.5,-123.5 131.5,-129.5 125.5,-129.5 125.5,-129.5 20.5,-129.5 20.5,-129.5 14.5,-129.5 8.5,-123.5 8.5,-117.5 8.5,-117.5 8.5,-95.5 8.5,-95.5 8.5,-89.5 14.5,-83.5 20.5,-83.5"/>
<text text-anchor="middle" x="21.5" y="-114.3" font-family="Times,serif" font-size="14.00">1</text>
<polyline fill="none" stroke="black" points="34.5,-106.5 34.5,-129.5 "/>
<text text-anchor="middle" x="53.5" y="-114.3" font-family="Times,serif" font-size="14.00">OP</text>
<polyline fill="none" stroke="black" points="72.5,-106.5 72.5,-129.5 "/>
<text text-anchor="middle" x="105" y="-114.3" font-family="Times,serif" font-size="14.00">size=2</text>
<polyline fill="none" stroke="black" points="8.5,-106.5 137.5,-106.5 "/>
<text text-anchor="middle" x="73" y="-91.3" font-family="Times,serif" font-size="14.00">cos</text>
</g>
<!-- node1&#45;&gt;node1 -->
<g id="edge1" class="edge">
<title>node1&#45;&gt;node1</title>
<path fill="none" stroke="blue" d="M137.68,-120.73C148.24,-118.69 155.5,-113.95 155.5,-106.5 155.5,-101.61 152.37,-97.89 147.24,-95.33"/>
<polygon fill="blue" stroke="blue" points="148.27,-91.99 137.68,-92.27 146.14,-98.66 148.27,-91.99"/>
</g>
<!-- node2 -->
<g id="node2" class="node">
<title>node2</title>
<path fill="pink" stroke="black" d="M12,-0.5C12,-0.5 134,-0.5 134,-0.5 140,-0.5 146,-6.5 146,-12.5 146,-12.5 146,-34.5 146,-34.5 146,-40.5 140,-46.5 134,-46.5 134,-46.5 12,-46.5 12,-46.5 6,-46.5 0,-40.5 0,-34.5 0,-34.5 0,-12.5 0,-12.5 0,-6.5 6,-0.5 12,-0.5"/>
<text text-anchor="middle" x="13" y="-31.3" font-family="Times,serif" font-size="14.00">2</text>
<polyline fill="none" stroke="black" points="26,-23.5 26,-46.5 "/>
<text text-anchor="middle" x="53.5" y="-31.3" font-family="Times,serif" font-size="14.00">NUM</text>
<polyline fill="none" stroke="black" points="81,-23.5 81,-46.5 "/>
<text text-anchor="middle" x="113.5" y="-31.3" font-family="Times,serif" font-size="14.00">size=1</text>
<polyline fill="none" stroke="black" points="0,-23.5 146,-23.5 "/>
<text text-anchor="middle" x="73" y="-8.3" font-family="Times,serif" font-size="14.00">2</text>
</g>
<!-- node1&#45;&gt;node2 -->
<g id="edge2" class="edge">
<title>node1&#45;&gt;node2</title>
<path fill="none" stroke="red" d="M66.91,-83.37C66.28,-75.15 66.1,-65.66 66.38,-56.73"/>
<polygon fill="red" stroke="red" points="69.88,-56.78 66.91,-46.61 62.89,-56.41 69.88,-56.78"/>
</g>
<!-- node2&#45;&gt;node1 -->
<g id="edge3" class="edge">
<title>node2&#45;&gt;node1</title>
<path fill="none" stroke="blue" d="M79.09,-46.61C79.72,-54.82 79.9,-64.31 79.62,-73.25"/>
<polygon fill="blue" stroke="blue" points="76.12,-73.2 79.09,-83.37 83.11,-73.56 76.12,-73.2"/>
</g>
</g>
</svg>
