<?xml version="1.0" encoding="UTF-8" standalone="no"?>
<!DOCTYPE svg PUBLIC "-//W3C//DTD SVG 1.1//EN"
 "http://www.w3.org/Graphics/SVG/1.1/DTD/svg11.dtd">
<!-- Generated by graphviz version 2.43.0 (0)
 -->
<!-- Title: %3 Pages: 1 -->
<svg width="172pt" height="210pt"
 viewBox="0.00 0.00 172.00 210.00" xmlns="http://www.w3.org/2000/svg" xmlns:xlink="http://www.w3.org/1999/xlink">
<g id="graph0" class="graph" transform="scale(1 1) rotate(0) translate(4 206)">
<title>%3</title>
<polygon fill="white" stroke="transparent" points="-4,4 -4,-206 168,-206 168,4 -4,4"/>
<!-- node1 -->
<g id="node1" class="node">
<title>node1</title>
<path fill="pink" stroke="black" d="M12,-155.5C12,-155.5 134,-155.5 134,-155.5 140,-155.5 146,-161.5 146,-167.5 146,-167.5 146,-189.5 146,-189.5 146,-195.5 140,-201.5 134,-201.5 134,-201.5 12,-201.5 12,-201.5 6,-201.5 0,-195.5 0,-189.5 0,-189.5 0,-167.5 0,-167.5 0,-161.5 6,-155.5 12,-155.5"/>
<text text-anchor="middle" x="13" y="-186.3" font-family="Times,serif" font-size="14.00">1</text>
<polyline fill="none" stroke="black" points="26,-178.5 26,-201.5 "/>
<text text-anchor="middle" x="53.5" y="-186.3" font-family="Times,serif" font-size="14.00">NUM</text>
<polyline fill="none" stroke="black" points="81,-178.5 81,-201.5 "/>
<text text-anchor="middle" x="113.5" y="-186.3" font-family="Times,serif" font-size="14.00">size=1</text>
<polyline fill="none" stroke="black" points="0,-178.5 146,-178.5 "/>
<text text-anchor="middle" x="73" y="-163.3" font-family="Times,serif" font-size="14.00">0</text>
</g>
<!-- node1&#45;&gt;node1 -->
<g id="edge1" class="edge">
<title>node1&#45;&gt;node1</title>
<path fill="none" stroke="blue" d="M146.19,-192.37C156.83,-190.17 164,-185.55 164,-178.5 164,-173.88 160.91,-170.29 155.78,-167.76"/>
<polygon fill="blue" stroke="blue" points="156.78,-164.4 146.19,-164.63 154.61,-171.06 156.78,-164.4"/>
</g>
<!-- node2 -->
<g id="node2" class="node">
<title>node2</title>
<path fill="peachpuff" stroke="black" d="M16,-72.5C16,-72.5 130,-72.5 130,-72.5 136,-72.5 142,-78.5 142,-84.5 142,-84.5 142,-106.5 142,-106.5 142,-112.5 136,-118.5 130,-118.5 130,-118.5 16,-118.5 16,-118.5 10,-118.5 4,-112.5 4,-106.5 4,-106.5 4,-84.5 4,-84.5 4,-78.5 10,-72.5 16,-72.5"/>
<text text-anchor="middle" x="17" y="-103.3" font-family="Times,serif" font-size="14.00">2</text>
<polyline fill="none" stroke="black" points="30,-95.5 30,-118.5 "/>
<text text-anchor="middle" x="49" y="-103.3" font-family="Times,serif" font-size="14.00">OP</text>
<polyline fill="none" stroke="black" points="68,-95.5 68,-118.5 "/>
<text text-anchor="middle" x="105" y="-103.3" font-family="Times,serif" font-size="14.00">size=23</text>
<polyline fill="none" stroke="black" points="4,-95.5 142,-95.5 "/>
<text text-anchor="middle" x="73" y="-80.3" font-family="Times,serif" font-size="14.00">+</text>
</g>
<!-- node1&#45;&gt;node2 -->
<g id="edge2" class="edge">
<title>node1&#45;&gt;node2</title>
<path fill="none" stroke="red" d="M66.91,-155.37C66.28,-147.15 66.1,-137.66 66.38,-128.73"/>
<polygon fill="red" stroke="red" points="69.88,-128.78 66.91,-118.61 62.89,-128.41 69.88,-128.78"/>
</g>
<!-- node2&#45;&gt;node1 -->
<g id="edge3" class="edge">
<title>node2&#45;&gt;node1</title>
<path fill="none" stroke="blue" d="M79.09,-118.61C79.72,-126.82 79.9,-136.31 79.62,-145.25"/>
<polygon fill="blue" stroke="blue" points="76.12,-145.2 79.09,-155.37 83.11,-145.56 76.12,-145.2"/>
</g>
<!-- node3 -->
<g id="node3" class="node">
<title>node3</title>
<ellipse fill="lightgrey" stroke="black" cx="73" cy="-18" rx="38.99" ry="18"/>
<text text-anchor="middle" x="73" y="-14.3" font-family="Times,serif" font-size="14.00">node3</text>
</g>
<!-- node2&#45;&gt;node3 -->
<g id="edge4" class="edge">
<title>node2&#45;&gt;node3</title>
<path fill="none" stroke="red" d="M66.78,-72.26C66.18,-63.97 66.09,-54.47 66.51,-45.82"/>
<polygon fill="red" stroke="red" points="70,-46.05 67.27,-35.81 63.02,-45.52 70,-46.05"/>
</g>
<!-- node2&#45;&gt;node3 -->
<g id="edge5" class="edge">
<title>node2&#45;&gt;node3</title>
<path fill="none" stroke="green" d="M79.22,-72.26C79.82,-63.97 79.91,-54.47 79.49,-45.82"/>
<polygon fill="green" stroke="green" points="82.98,-45.52 78.73,-35.81 76,-46.05 82.98,-45.52"/>
</g>
</g>
</svg>
