<?xml version="1.0" encoding="UTF-8" standalone="no"?>
<!DOCTYPE svg PUBLIC "-//W3C//DTD SVG 1.1//EN"
 "http://www.w3.org/Graphics/SVG/1.1/DTD/svg11.dtd">
<!-- Generated by graphviz version 2.43.0 (0)
 -->
<!-- Title: %3 Pages: 1 -->
<svg width="392pt" height="304pt"
 viewBox="0.00 0.00 392.00 304.00" xmlns="http://www.w3.org/2000/svg" xmlns:xlink="http://www.w3.org/1999/xlink">
<g id="graph0" class="graph" transform="scale(1 1) rotate(0) translate(4 300)">
<title>%3</title>
<polygon fill="white" stroke="transparent" points="-4,4 -4,-300 388,-300 388,4 -4,4"/>
<!-- node1 -->
<g id="node1" class="node">
<title>node1</title>
<path fill="peachpuff" stroke="black" d="M102.5,-249.5C102.5,-249.5 207.5,-249.5 207.5,-249.5 213.5,-249.5 219.5,-255.5 219.5,-261.5 219.5,-261.5 219.5,-283.5 219.5,-283.5 219.5,-289.5 213.5,-295.5 207.5,-295.5 207.5,-295.5 102.5,-295.5 102.5,-295.5 96.5,-295.5 90.5,-289.5 90.5,-283.5 90.5,-283.5 90.5,-261.5 90.5,-261.5 90.5,-255.5 96.5,-249.5 102.5,-249.5"/>
<text text-anchor="middle" x="103.5" y="-280.3" font-family="Times,serif" font-size="14.00">1</text>
<polyline fill="none" stroke="black" points="116.5,-272.5 116.5,-295.5 "/>
<text text-anchor="middle" x="135.5" y="-280.3" font-family="Times,serif" font-size="14.00">OP</text>
<polyline fill="none" stroke="black" points="154.5,-272.5 154.5,-295.5 "/>
<text text-anchor="middle" x="187" y="-280.3" font-family="Times,serif" font-size="14.00">size=7</text>
<polyline fill="none" stroke="black" points="90.5,-272.5 219.5,-272.5 "/>
<text text-anchor="middle" x="155" y="-257.3" font-family="Times,serif" font-size="14.00">^</text>
</g>
<!-- node1&#45;&gt;node1 -->
<g id="edge1" class="edge">
<title>node1&#45;&gt;node1</title>
<path fill="none" stroke="blue" d="M219.68,-286.73C230.24,-284.69 237.5,-279.95 237.5,-272.5 237.5,-267.61 234.37,-263.89 229.24,-261.33"/>
<polygon fill="blue" stroke="blue" points="230.27,-257.99 219.68,-258.27 228.14,-264.66 230.27,-257.99"/>
</g>
<!-- node2 -->
<g id="node2" class="node">
<title>node2</title>
<path fill="pink" stroke="black" d="M16,-166.5C16,-166.5 138,-166.5 138,-166.5 144,-166.5 150,-172.5 150,-178.5 150,-178.5 150,-200.5 150,-200.5 150,-206.5 144,-212.5 138,-212.5 138,-212.5 16,-212.5 16,-212.5 10,-212.5 4,-206.5 4,-200.5 4,-200.5 4,-178.5 4,-178.5 4,-172.5 10,-166.5 16,-166.5"/>
<text text-anchor="middle" x="17" y="-197.3" font-family="Times,serif" font-size="14.00">2</text>
<polyline fill="none" stroke="black" points="30,-189.5 30,-212.5 "/>
<text text-anchor="middle" x="57.5" y="-197.3" font-family="Times,serif" font-size="14.00">NUM</text>
<polyline fill="none" stroke="black" points="85,-189.5 85,-212.5 "/>
<text text-anchor="middle" x="117.5" y="-197.3" font-family="Times,serif" font-size="14.00">size=1</text>
<polyline fill="none" stroke="black" points="4,-189.5 150,-189.5 "/>
<text text-anchor="middle" x="77" y="-174.3" font-family="Times,serif" font-size="14.00">1</text>
</g>
<!-- node1&#45;&gt;node2 -->
<g id="edge2" class="edge">
<title>node1&#45;&gt;node2</title>
<path fill="none" stroke="red" d="M127.6,-249.37C118.22,-240.35 107.9,-229.79 99,-220.12"/>
<polygon fill="red" stroke="red" points="101.5,-217.68 92.2,-212.61 96.31,-222.37 101.5,-217.68"/>
</g>
<!-- node3 -->
<g id="node3" class="node">
<title>node3</title>
<path fill="peachpuff" stroke="black" d="M180.5,-166.5C180.5,-166.5 285.5,-166.5 285.5,-166.5 291.5,-166.5 297.5,-172.5 297.5,-178.5 297.5,-178.5 297.5,-200.5 297.5,-200.5 297.5,-206.5 291.5,-212.5 285.5,-212.5 285.5,-212.5 180.5,-212.5 180.5,-212.5 174.5,-212.5 168.5,-206.5 168.5,-200.5 168.5,-200.5 168.5,-178.5 168.5,-178.5 168.5,-172.5 174.5,-166.5 180.5,-166.5"/>
<text text-anchor="middle" x="181.5" y="-197.3" font-family="Times,serif" font-size="14.00">3</text>
<polyline fill="none" stroke="black" points="194.5,-189.5 194.5,-212.5 "/>
<text text-anchor="middle" x="213.5" y="-197.3" font-family="Times,serif" font-size="14.00">OP</text>
<polyline fill="none" stroke="black" points="232.5,-189.5 232.5,-212.5 "/>
<text text-anchor="middle" x="265" y="-197.3" font-family="Times,serif" font-size="14.00">size=5</text>
<polyline fill="none" stroke="black" points="168.5,-189.5 297.5,-189.5 "/>
<text text-anchor="middle" x="233" y="-174.3" font-family="Times,serif" font-size="14.00">^</text>
</g>
<!-- node1&#45;&gt;node3 -->
<g id="edge4" class="edge">
<title>node1&#45;&gt;node3</title>
<path fill="none" stroke="green" d="M170.22,-249.37C178.29,-240.26 188.43,-229.58 198.24,-219.83"/>
<polygon fill="green" stroke="green" points="200.92,-222.1 205.62,-212.61 196.03,-217.1 200.92,-222.1"/>
</g>
<!-- node2&#45;&gt;node1 -->
<g id="edge3" class="edge">
<title>node2&#45;&gt;node1</title>
<path fill="none" stroke="blue" d="M104.38,-212.61C113.75,-221.62 124.07,-232.18 132.98,-241.85"/>
<polygon fill="blue" stroke="blue" points="130.47,-244.3 139.78,-249.37 135.66,-239.6 130.47,-244.3"/>
</g>
<!-- node3&#45;&gt;node1 -->
<g id="edge5" class="edge">
<title>node3&#45;&gt;node1</title>
<path fill="none" stroke="blue" d="M217.8,-212.61C209.74,-221.71 199.59,-232.39 189.79,-242.14"/>
<polygon fill="blue" stroke="blue" points="187.1,-239.87 182.4,-249.37 192,-244.87 187.1,-239.87"/>
</g>
<!-- node4 -->
<g id="node4" class="node">
<title>node4</title>
<path fill="peachpuff" stroke="black" d="M102.5,-83.5C102.5,-83.5 207.5,-83.5 207.5,-83.5 213.5,-83.5 219.5,-89.5 219.5,-95.5 219.5,-95.5 219.5,-117.5 219.5,-117.5 219.5,-123.5 213.5,-129.5 207.5,-129.5 207.5,-129.5 102.5,-129.5 102.5,-129.5 96.5,-129.5 90.5,-123.5 90.5,-117.5 90.5,-117.5 90.5,-95.5 90.5,-95.5 90.5,-89.5 96.5,-83.5 102.5,-83.5"/>
<text text-anchor="middle" x="103.5" y="-114.3" font-family="Times,serif" font-size="14.00">4</text>
<polyline fill="none" stroke="black" points="116.5,-106.5 116.5,-129.5 "/>
<text text-anchor="middle" x="135.5" y="-114.3" font-family="Times,serif" font-size="14.00">OP</text>
<polyline fill="none" stroke="black" points="154.5,-106.5 154.5,-129.5 "/>
<text text-anchor="middle" x="187" y="-114.3" font-family="Times,serif" font-size="14.00">size=3</text>
<polyline fill="none" stroke="black" points="90.5,-106.5 219.5,-106.5 "/>
<text text-anchor="middle" x="155" y="-91.3" font-family="Times,serif" font-size="14.00">^</text>
</g>
<!-- node3&#45;&gt;node4 -->
<g id="edge6" class="edge">
<title>node3&#45;&gt;node4</title>
<path fill="none" stroke="red" d="M205.6,-166.37C196.22,-157.35 185.9,-146.79 177,-137.12"/>
<polygon fill="red" stroke="red" points="179.5,-134.68 170.2,-129.61 174.31,-139.37 179.5,-134.68"/>
</g>
<!-- node7 -->
<g id="node7" class="node">
<title>node7</title>
<path fill="pink" stroke="black" d="M250,-83.5C250,-83.5 372,-83.5 372,-83.5 378,-83.5 384,-89.5 384,-95.5 384,-95.5 384,-117.5 384,-117.5 384,-123.5 378,-129.5 372,-129.5 372,-129.5 250,-129.5 250,-129.5 244,-129.5 238,-123.5 238,-117.5 238,-117.5 238,-95.5 238,-95.5 238,-89.5 244,-83.5 250,-83.5"/>
<text text-anchor="middle" x="251" y="-114.3" font-family="Times,serif" font-size="14.00">7</text>
<polyline fill="none" stroke="black" points="264,-106.5 264,-129.5 "/>
<text text-anchor="middle" x="291.5" y="-114.3" font-family="Times,serif" font-size="14.00">NUM</text>
<polyline fill="none" stroke="black" points="319,-106.5 319,-129.5 "/>
<text text-anchor="middle" x="351.5" y="-114.3" font-family="Times,serif" font-size="14.00">size=1</text>
<polyline fill="none" stroke="black" points="238,-106.5 384,-106.5 "/>
<text text-anchor="middle" x="311" y="-91.3" font-family="Times,serif" font-size="14.00">4</text>
</g>
<!-- node3&#45;&gt;node7 -->
<g id="edge12" class="edge">
<title>node3&#45;&gt;node7</title>
<path fill="none" stroke="green" d="M248.22,-166.37C256.29,-157.26 266.43,-146.58 276.24,-136.83"/>
<polygon fill="green" stroke="green" points="278.92,-139.1 283.62,-129.61 274.03,-134.1 278.92,-139.1"/>
</g>
<!-- node4&#45;&gt;node3 -->
<g id="edge7" class="edge">
<title>node4&#45;&gt;node3</title>
<path fill="none" stroke="blue" d="M182.38,-129.61C191.75,-138.62 202.07,-149.18 210.98,-158.85"/>
<polygon fill="blue" stroke="blue" points="208.47,-161.3 217.78,-166.37 213.66,-156.6 208.47,-161.3"/>
</g>
<!-- node5 -->
<g id="node5" class="node">
<title>node5</title>
<path fill="pink" stroke="black" d="M12,-0.5C12,-0.5 134,-0.5 134,-0.5 140,-0.5 146,-6.5 146,-12.5 146,-12.5 146,-34.5 146,-34.5 146,-40.5 140,-46.5 134,-46.5 134,-46.5 12,-46.5 12,-46.5 6,-46.5 0,-40.5 0,-34.5 0,-34.5 0,-12.5 0,-12.5 0,-6.5 6,-0.5 12,-0.5"/>
<text text-anchor="middle" x="13" y="-31.3" font-family="Times,serif" font-size="14.00">5</text>
<polyline fill="none" stroke="black" points="26,-23.5 26,-46.5 "/>
<text text-anchor="middle" x="53.5" y="-31.3" font-family="Times,serif" font-size="14.00">NUM</text>
<polyline fill="none" stroke="black" points="81,-23.5 81,-46.5 "/>
<text text-anchor="middle" x="113.5" y="-31.3" font-family="Times,serif" font-size="14.00">size=1</text>
<polyline fill="none" stroke="black" points="0,-23.5 146,-23.5 "/>
<text text-anchor="middle" x="73" y="-8.3" font-family="Times,serif" font-size="14.00">2</text>
</g>
<!-- node4&#45;&gt;node5 -->
<g id="edge8" class="edge">
<title>node4&#45;&gt;node5</title>
<path fill="none" stroke="red" d="M126.5,-83.37C116.68,-74.35 105.84,-63.79 96.46,-54.12"/>
<polygon fill="red" stroke="red" points="98.73,-51.43 89.29,-46.61 93.66,-56.26 98.73,-51.43"/>
</g>
<!-- node6 -->
<g id="node6" class="node">
<title>node6</title>
<path fill="pink" stroke="black" d="M176,-0.5C176,-0.5 298,-0.5 298,-0.5 304,-0.5 310,-6.5 310,-12.5 310,-12.5 310,-34.5 310,-34.5 310,-40.5 304,-46.5 298,-46.5 298,-46.5 176,-46.5 176,-46.5 170,-46.5 164,-40.5 164,-34.5 164,-34.5 164,-12.5 164,-12.5 164,-6.5 170,-0.5 176,-0.5"/>
<text text-anchor="middle" x="177" y="-31.3" font-family="Times,serif" font-size="14.00">6</text>
<polyline fill="none" stroke="black" points="190,-23.5 190,-46.5 "/>
<text text-anchor="middle" x="217.5" y="-31.3" font-family="Times,serif" font-size="14.00">NUM</text>
<polyline fill="none" stroke="black" points="245,-23.5 245,-46.5 "/>
<text text-anchor="middle" x="277.5" y="-31.3" font-family="Times,serif" font-size="14.00">size=1</text>
<polyline fill="none" stroke="black" points="164,-23.5 310,-23.5 "/>
<text text-anchor="middle" x="237" y="-8.3" font-family="Times,serif" font-size="14.00">3</text>
</g>
<!-- node4&#45;&gt;node6 -->
<g id="edge10" class="edge">
<title>node4&#45;&gt;node6</title>
<path fill="none" stroke="green" d="M171.32,-83.37C179.92,-74.17 190.71,-63.37 201.09,-53.55"/>
<polygon fill="green" stroke="green" points="203.61,-55.99 208.53,-46.61 198.83,-50.87 203.61,-55.99"/>
</g>
<!-- node5&#45;&gt;node4 -->
<g id="edge9" class="edge">
<title>node5&#45;&gt;node4</title>
<path fill="none" stroke="blue" d="M101.47,-46.61C111.29,-55.62 122.13,-66.18 131.51,-75.85"/>
<polygon fill="blue" stroke="blue" points="129.25,-78.55 138.68,-83.37 134.31,-73.71 129.25,-78.55"/>
</g>
<!-- node6&#45;&gt;node4 -->
<g id="edge11" class="edge">
<title>node6&#45;&gt;node4</title>
<path fill="none" stroke="blue" d="M220.71,-46.61C212.11,-55.8 201.32,-66.6 190.94,-76.42"/>
<polygon fill="blue" stroke="blue" points="188.42,-73.99 183.5,-83.37 193.2,-79.1 188.42,-73.99"/>
</g>
<!-- node7&#45;&gt;node3 -->
<g id="edge13" class="edge">
<title>node7&#45;&gt;node3</title>
<path fill="none" stroke="blue" d="M295.8,-129.61C287.74,-138.71 277.59,-149.39 267.79,-159.14"/>
<polygon fill="blue" stroke="blue" points="265.1,-156.87 260.4,-166.37 270,-161.87 265.1,-156.87"/>
</g>
</g>
</svg>
