<?xml version="1.0" encoding="UTF-8" standalone="no"?>
<!DOCTYPE svg PUBLIC "-//W3C//DTD SVG 1.1//EN"
 "http://www.w3.org/Graphics/SVG/1.1/DTD/svg11.dtd">
<!-- Generated by graphviz version 2.43.0 (0)
 -->
<!-- Title: %3 Pages: 1 -->
<svg width="392pt" height="221pt"
 viewBox="0.00 0.00 392.00 221.00" xmlns="http://www.w3.org/2000/svg" xmlns:xlink="http://www.w3.org/1999/xlink">
<g id="graph0" class="graph" transform="scale(1 1) rotate(0) translate(4 217)">
<title>%3</title>
<polygon fill="white" stroke="transparent" points="-4,4 -4,-217 388,-217 388,4 -4,4"/>
<!-- node1 -->
<g id="node1" class="node">
<title>node1</title>
<path fill="peachpuff" stroke="black" d="M98.5,-166.5C98.5,-166.5 203.5,-166.5 203.5,-166.5 209.5,-166.5 215.5,-172.5 215.5,-178.5 215.5,-178.5 215.5,-200.5 215.5,-200.5 215.5,-206.5 209.5,-212.5 203.5,-212.5 203.5,-212.5 98.5,-212.5 98.5,-212.5 92.5,-212.5 86.5,-206.5 86.5,-200.5 86.5,-200.5 86.5,-178.5 86.5,-178.5 86.5,-172.5 92.5,-166.5 98.5,-166.5"/>
<text text-anchor="middle" x="99.5" y="-197.3" font-family="Times,serif" font-size="14.00">1</text>
<polyline fill="none" stroke="black" points="112.5,-189.5 112.5,-212.5 "/>
<text text-anchor="middle" x="131.5" y="-197.3" font-family="Times,serif" font-size="14.00">OP</text>
<polyline fill="none" stroke="black" points="150.5,-189.5 150.5,-212.5 "/>
<text text-anchor="middle" x="183" y="-197.3" font-family="Times,serif" font-size="14.00">size=5</text>
<polyline fill="none" stroke="black" points="86.5,-189.5 215.5,-189.5 "/>
<text text-anchor="middle" x="151" y="-174.3" font-family="Times,serif" font-size="14.00">^</text>
</g>
<!-- node1&#45;&gt;node1 -->
<g id="edge1" class="edge">
<title>node1&#45;&gt;node1</title>
<path fill="none" stroke="blue" d="M215.68,-203.73C226.24,-201.69 233.5,-196.95 233.5,-189.5 233.5,-184.61 230.37,-180.89 225.24,-178.33"/>
<polygon fill="blue" stroke="blue" points="226.27,-174.99 215.68,-175.27 224.14,-181.66 226.27,-174.99"/>
</g>
<!-- node2 -->
<g id="node2" class="node">
<title>node2</title>
<path fill="pink" stroke="black" d="M12,-83.5C12,-83.5 134,-83.5 134,-83.5 140,-83.5 146,-89.5 146,-95.5 146,-95.5 146,-117.5 146,-117.5 146,-123.5 140,-129.5 134,-129.5 134,-129.5 12,-129.5 12,-129.5 6,-129.5 0,-123.5 0,-117.5 0,-117.5 0,-95.5 0,-95.5 0,-89.5 6,-83.5 12,-83.5"/>
<text text-anchor="middle" x="13" y="-114.3" font-family="Times,serif" font-size="14.00">2</text>
<polyline fill="none" stroke="black" points="26,-106.5 26,-129.5 "/>
<text text-anchor="middle" x="53.5" y="-114.3" font-family="Times,serif" font-size="14.00">NUM</text>
<polyline fill="none" stroke="black" points="81,-106.5 81,-129.5 "/>
<text text-anchor="middle" x="113.5" y="-114.3" font-family="Times,serif" font-size="14.00">size=1</text>
<polyline fill="none" stroke="black" points="0,-106.5 146,-106.5 "/>
<text text-anchor="middle" x="73" y="-91.3" font-family="Times,serif" font-size="14.00">1</text>
</g>
<!-- node1&#45;&gt;node2 -->
<g id="edge2" class="edge">
<title>node1&#45;&gt;node2</title>
<path fill="none" stroke="red" d="M123.6,-166.37C114.22,-157.35 103.9,-146.79 95,-137.12"/>
<polygon fill="red" stroke="red" points="97.5,-134.68 88.2,-129.61 92.31,-139.37 97.5,-134.68"/>
</g>
<!-- node3 -->
<g id="node3" class="node">
<title>node3</title>
<path fill="peachpuff" stroke="black" d="M176.5,-83.5C176.5,-83.5 281.5,-83.5 281.5,-83.5 287.5,-83.5 293.5,-89.5 293.5,-95.5 293.5,-95.5 293.5,-117.5 293.5,-117.5 293.5,-123.5 287.5,-129.5 281.5,-129.5 281.5,-129.5 176.5,-129.5 176.5,-129.5 170.5,-129.5 164.5,-123.5 164.5,-117.5 164.5,-117.5 164.5,-95.5 164.5,-95.5 164.5,-89.5 170.5,-83.5 176.5,-83.5"/>
<text text-anchor="middle" x="177.5" y="-114.3" font-family="Times,serif" font-size="14.00">3</text>
<polyline fill="none" stroke="black" points="190.5,-106.5 190.5,-129.5 "/>
<text text-anchor="middle" x="209.5" y="-114.3" font-family="Times,serif" font-size="14.00">OP</text>
<polyline fill="none" stroke="black" points="228.5,-106.5 228.5,-129.5 "/>
<text text-anchor="middle" x="261" y="-114.3" font-family="Times,serif" font-size="14.00">size=3</text>
<polyline fill="none" stroke="black" points="164.5,-106.5 293.5,-106.5 "/>
<text text-anchor="middle" x="229" y="-91.3" font-family="Times,serif" font-size="14.00">^</text>
</g>
<!-- node1&#45;&gt;node3 -->
<g id="edge4" class="edge">
<title>node1&#45;&gt;node3</title>
<path fill="none" stroke="green" d="M166.22,-166.37C174.29,-157.26 184.43,-146.58 194.24,-136.83"/>
<polygon fill="green" stroke="green" points="196.92,-139.1 201.62,-129.61 192.03,-134.1 196.92,-139.1"/>
</g>
<!-- node2&#45;&gt;node1 -->
<g id="edge3" class="edge">
<title>node2&#45;&gt;node1</title>
<path fill="none" stroke="blue" d="M100.38,-129.61C109.75,-138.62 120.07,-149.18 128.98,-158.85"/>
<polygon fill="blue" stroke="blue" points="126.47,-161.3 135.78,-166.37 131.66,-156.6 126.47,-161.3"/>
</g>
<!-- node3&#45;&gt;node1 -->
<g id="edge5" class="edge">
<title>node3&#45;&gt;node1</title>
<path fill="none" stroke="blue" d="M213.8,-129.61C205.74,-138.71 195.59,-149.39 185.79,-159.14"/>
<polygon fill="blue" stroke="blue" points="183.1,-156.87 178.4,-166.37 188,-161.87 183.1,-156.87"/>
</g>
<!-- node4 -->
<g id="node4" class="node">
<title>node4</title>
<path fill="pink" stroke="black" d="M86,-0.5C86,-0.5 208,-0.5 208,-0.5 214,-0.5 220,-6.5 220,-12.5 220,-12.5 220,-34.5 220,-34.5 220,-40.5 214,-46.5 208,-46.5 208,-46.5 86,-46.5 86,-46.5 80,-46.5 74,-40.5 74,-34.5 74,-34.5 74,-12.5 74,-12.5 74,-6.5 80,-0.5 86,-0.5"/>
<text text-anchor="middle" x="87" y="-31.3" font-family="Times,serif" font-size="14.00">4</text>
<polyline fill="none" stroke="black" points="100,-23.5 100,-46.5 "/>
<text text-anchor="middle" x="127.5" y="-31.3" font-family="Times,serif" font-size="14.00">NUM</text>
<polyline fill="none" stroke="black" points="155,-23.5 155,-46.5 "/>
<text text-anchor="middle" x="187.5" y="-31.3" font-family="Times,serif" font-size="14.00">size=1</text>
<polyline fill="none" stroke="black" points="74,-23.5 220,-23.5 "/>
<text text-anchor="middle" x="147" y="-8.3" font-family="Times,serif" font-size="14.00">2</text>
</g>
<!-- node3&#45;&gt;node4 -->
<g id="edge6" class="edge">
<title>node3&#45;&gt;node4</title>
<path fill="none" stroke="red" d="M200.5,-83.37C190.68,-74.35 179.84,-63.79 170.46,-54.12"/>
<polygon fill="red" stroke="red" points="172.73,-51.43 163.29,-46.61 167.66,-56.26 172.73,-51.43"/>
</g>
<!-- node5 -->
<g id="node5" class="node">
<title>node5</title>
<path fill="pink" stroke="black" d="M250,-0.5C250,-0.5 372,-0.5 372,-0.5 378,-0.5 384,-6.5 384,-12.5 384,-12.5 384,-34.5 384,-34.5 384,-40.5 378,-46.5 372,-46.5 372,-46.5 250,-46.5 250,-46.5 244,-46.5 238,-40.5 238,-34.5 238,-34.5 238,-12.5 238,-12.5 238,-6.5 244,-0.5 250,-0.5"/>
<text text-anchor="middle" x="251" y="-31.3" font-family="Times,serif" font-size="14.00">5</text>
<polyline fill="none" stroke="black" points="264,-23.5 264,-46.5 "/>
<text text-anchor="middle" x="291.5" y="-31.3" font-family="Times,serif" font-size="14.00">NUM</text>
<polyline fill="none" stroke="black" points="319,-23.5 319,-46.5 "/>
<text text-anchor="middle" x="351.5" y="-31.3" font-family="Times,serif" font-size="14.00">size=1</text>
<polyline fill="none" stroke="black" points="238,-23.5 384,-23.5 "/>
<text text-anchor="middle" x="311" y="-8.3" font-family="Times,serif" font-size="14.00">3</text>
</g>
<!-- node3&#45;&gt;node5 -->
<g id="edge8" class="edge">
<title>node3&#45;&gt;node5</title>
<path fill="none" stroke="green" d="M245.32,-83.37C253.92,-74.17 264.71,-63.37 275.09,-53.55"/>
<polygon fill="green" stroke="green" points="277.61,-55.99 282.53,-46.61 272.83,-50.87 277.61,-55.99"/>
</g>
<!-- node4&#45;&gt;node3 -->
<g id="edge7" class="edge">
<title>node4&#45;&gt;node3</title>
<path fill="none" stroke="blue" d="M175.47,-46.61C185.29,-55.62 196.13,-66.18 205.51,-75.85"/>
<polygon fill="blue" stroke="blue" points="203.25,-78.55 212.68,-83.37 208.31,-73.71 203.25,-78.55"/>
</g>
<!-- node5&#45;&gt;node3 -->
<g id="edge9" class="edge">
<title>node5&#45;&gt;node3</title>
<path fill="none" stroke="blue" d="M294.71,-46.61C286.11,-55.8 275.32,-66.6 264.94,-76.42"/>
<polygon fill="blue" stroke="blue" points="262.42,-73.99 257.5,-83.37 267.2,-79.1 262.42,-73.99"/>
</g>
</g>
</svg>
