<?xml version="1.0" encoding="UTF-8" standalone="no"?>
<!DOCTYPE svg PUBLIC "-//W3C//DTD SVG 1.1//EN"
 "http://www.w3.org/Graphics/SVG/1.1/DTD/svg11.dtd">
<!-- Generated by graphviz version 2.43.0 (0)
 -->
<!-- Title: %3 Pages: 1 -->
<svg width="406pt" height="221pt"
 viewBox="0.00 0.00 406.00 221.00" xmlns="http://www.w3.org/2000/svg" xmlns:xlink="http://www.w3.org/1999/xlink">
<g id="graph0" class="graph" transform="scale(1 1) rotate(0) translate(4 217)">
<title>%3</title>
<polygon fill="white" stroke="transparent" points="-4,4 -4,-217 402,-217 402,4 -4,4"/>
<!-- node1 -->
<g id="node1" class="node">
<title>node1</title>
<path fill="peachpuff" stroke="black" d="M98.5,-166.5C98.5,-166.5 203.5,-166.5 203.5,-166.5 209.5,-166.5 215.5,-172.5 215.5,-178.5 215.5,-178.5 215.5,-200.5 215.5,-200.5 215.5,-206.5 209.5,-212.5 203.5,-212.5 203.5,-212.5 98.5,-212.5 98.5,-212.5 92.5,-212.5 86.5,-206.5 86.5,-200.5 86.5,-200.5 86.5,-178.5 86.5,-178.5 86.5,-172.5 92.5,-166.5 98.5,-166.5"/>
<text text-anchor="middle" x="99.5" y="-197.3" font-family="Times,serif" font-size="14.00">1</text>
<polyline fill="none" stroke="black" points="112.5,-189.5 112.5,-212.5 "/>
<text text-anchor="middle" x="131.5" y="-197.3" font-family="Times,serif" font-size="14.00">OP</text>
<polyline fill="none" stroke="black" points="150.5,-189.5 150.5,-212.5 "/>
<text text-anchor="middle" x="183" y="-197.3" font-family="Times,serif" font-size="14.00">size=3</text>
<polyline fill="none" stroke="black" points="86.5,-189.5 215.5,-189.5 "/>
<text text-anchor="middle" x="151" y="-174.3" font-family="Times,serif" font-size="14.00">^</text>
</g>
<!-- node1&#45;&gt;node1 -->
<g id="edge1" class="edge">
<title>node1&#45;&gt;node1</title>
<path fill="none" stroke="blue" d="M215.68,-203.73C226.24,-201.69 233.5,-196.95 233.5,-189.5 233.5,-184.61 230.37,-180.89 225.24,-178.33"/>
<polygon fill="blue" stroke="blue" points="226.27,-174.99 215.68,-175.27 224.14,-181.66 226.27,-174.99"/>
</g>
<!-- node2 -->
<g id="node2" class="node">
<title>node2</title>
<path fill="pink" stroke="black" d="M12,-83.5C12,-83.5 134,-83.5 134,-83.5 140,-83.5 146,-89.5 146,-95.5 146,-95.5 146,-117.5 146,-117.5 146,-123.5 140,-129.5 134,-129.5 134,-129.5 12,-129.5 12,-129.5 6,-129.5 0,-123.5 0,-117.5 0,-117.5 0,-95.5 0,-95.5 0,-89.5 6,-83.5 12,-83.5"/>
<text text-anchor="middle" x="13" y="-114.3" font-family="Times,serif" font-size="14.00">2</text>
<polyline fill="none" stroke="black" points="26,-106.5 26,-129.5 "/>
<text text-anchor="middle" x="53.5" y="-114.3" font-family="Times,serif" font-size="14.00">NUM</text>
<polyline fill="none" stroke="black" points="81,-106.5 81,-129.5 "/>
<text text-anchor="middle" x="113.5" y="-114.3" font-family="Times,serif" font-size="14.00">size=1</text>
<polyline fill="none" stroke="black" points="0,-106.5 146,-106.5 "/>
<text text-anchor="middle" x="73" y="-91.3" font-family="Times,serif" font-size="14.00">1</text>
</g>
<!-- node1&#45;&gt;node2 -->
<g id="edge2" class="edge">
<title>node1&#45;&gt;node2</title>
<path fill="none" stroke="red" d="M123.6,-166.37C114.22,-157.35 103.9,-146.79 95,-137.12"/>
<polygon fill="red" stroke="red" points="97.5,-134.68 88.2,-129.61 92.31,-139.37 97.5,-134.68"/>
</g>
<!-- node3 -->
<g id="node3" class="node">
<title>node3</title>
<path fill="peachpuff" stroke="black" d="M176.5,-83.5C176.5,-83.5 281.5,-83.5 281.5,-83.5 287.5,-83.5 293.5,-89.5 293.5,-95.5 293.5,-95.5 293.5,-117.5 293.5,-117.5 293.5,-123.5 287.5,-129.5 281.5,-129.5 281.5,-129.5 176.5,-129.5 176.5,-129.5 170.5,-129.5 164.5,-123.5 164.5,-117.5 164.5,-117.5 164.5,-95.5 164.5,-95.5 164.5,-89.5 170.5,-83.5 176.5,-83.5"/>
<text text-anchor="middle" x="177.5" y="-114.3" font-family="Times,serif" font-size="14.00">3</text>
<polyline fill="none" stroke="black" points="190.5,-106.5 190.5,-129.5 "/>
<text text-anchor="middle" x="209.5" y="-114.3" font-family="Times,serif" font-size="14.00">OP</text>
<polyline fill="none" stroke="black" points="228.5,-106.5 228.5,-129.5 "/>
<text text-anchor="middle" x="261" y="-114.3" font-family="Times,serif" font-size="14.00">size=3</text>
<polyline fill="none" stroke="black" points="164.5,-106.5 293.5,-106.5 "/>
<text text-anchor="middle" x="229" y="-91.3" font-family="Times,serif" font-size="14.00">^</text>
</g>
<!-- node1&#45;&gt;node3 -->
<g id="edge4" class="edge">
<title>node1&#45;&gt;node3</title>
<path fill="none" stroke="green" d="M166.22,-166.37C174.29,-157.26 184.43,-146.58 194.24,-136.83"/>
<polygon fill="green" stroke="green" points="196.92,-139.1 201.62,-129.61 192.03,-134.1 196.92,-139.1"/>
</g>
<!-- node2&#45;&gt;node1 -->
<g id="edge3" class="edge">
<title>node2&#45;&gt;node1</title>
<path fill="none" stroke="blue" d="M100.38,-129.61C109.75,-138.62 120.07,-149.18 128.98,-158.85"/>
<polygon fill="blue" stroke="blue" points="126.47,-161.3 135.78,-166.37 131.66,-156.6 126.47,-161.3"/>
</g>
<!-- node3&#45;&gt;node1 -->
<g id="edge5" class="edge">
<title>node3&#45;&gt;node1</title>
<path fill="none" stroke="blue" d="M213.8,-129.61C205.74,-138.71 195.59,-149.39 185.79,-159.14"/>
<polygon fill="blue" stroke="blue" points="183.1,-156.87 178.4,-166.37 188,-161.87 183.1,-156.87"/>
</g>
<!-- node4 -->
<g id="node4" class="node">
<title>node4</title>
<path fill="pink" stroke="black" d="M168,-0.5C168,-0.5 290,-0.5 290,-0.5 296,-0.5 302,-6.5 302,-12.5 302,-12.5 302,-34.5 302,-34.5 302,-40.5 296,-46.5 290,-46.5 290,-46.5 168,-46.5 168,-46.5 162,-46.5 156,-40.5 156,-34.5 156,-34.5 156,-12.5 156,-12.5 156,-6.5 162,-0.5 168,-0.5"/>
<text text-anchor="middle" x="169" y="-31.3" font-family="Times,serif" font-size="14.00">4</text>
<polyline fill="none" stroke="black" points="182,-23.5 182,-46.5 "/>
<text text-anchor="middle" x="209.5" y="-31.3" font-family="Times,serif" font-size="14.00">NUM</text>
<polyline fill="none" stroke="black" points="237,-23.5 237,-46.5 "/>
<text text-anchor="middle" x="269.5" y="-31.3" font-family="Times,serif" font-size="14.00">size=1</text>
<polyline fill="none" stroke="black" points="156,-23.5 302,-23.5 "/>
<text text-anchor="middle" x="229" y="-8.3" font-family="Times,serif" font-size="14.00">2</text>
</g>
<!-- node3&#45;&gt;node4 -->
<g id="edge6" class="edge">
<title>node3&#45;&gt;node4</title>
<path fill="none" stroke="red" d="M222.91,-83.37C222.28,-75.15 222.1,-65.66 222.38,-56.73"/>
<polygon fill="red" stroke="red" points="225.88,-56.78 222.91,-46.61 218.89,-56.41 225.88,-56.78"/>
</g>
<!-- node5 -->
<g id="node5" class="node">
<title>node5</title>
<ellipse fill="lightgrey" stroke="black" cx="359" cy="-23.5" rx="38.99" ry="18"/>
<text text-anchor="middle" x="359" y="-19.8" font-family="Times,serif" font-size="14.00">node5</text>
</g>
<!-- node3&#45;&gt;node5 -->
<g id="edge8" class="edge">
<title>node3&#45;&gt;node5</title>
<path fill="none" stroke="green" d="M264.52,-83.37C284.38,-70.99 308.9,-55.72 327.98,-43.83"/>
<polygon fill="green" stroke="green" points="329.96,-46.72 336.6,-38.46 326.26,-40.78 329.96,-46.72"/>
</g>
<!-- node4&#45;&gt;node3 -->
<g id="edge7" class="edge">
<title>node4&#45;&gt;node3</title>
<path fill="none" stroke="blue" d="M235.09,-46.61C235.72,-54.82 235.9,-64.31 235.62,-73.25"/>
<polygon fill="blue" stroke="blue" points="232.12,-73.2 235.09,-83.37 239.11,-73.56 232.12,-73.2"/>
</g>
</g>
</svg>
