<?xml version="1.0" encoding="UTF-8" standalone="no"?>
<!DOCTYPE svg PUBLIC "-//W3C//DTD SVG 1.1//EN"
 "http://www.w3.org/Graphics/SVG/1.1/DTD/svg11.dtd">
<!-- Generated by graphviz version 2.43.0 (0)
 -->
<!-- Title: %3 Pages: 1 -->
<svg width="419pt" height="304pt"
 viewBox="0.00 0.00 418.50 304.00" xmlns="http://www.w3.org/2000/svg" xmlns:xlink="http://www.w3.org/1999/xlink">
<g id="graph0" class="graph" transform="scale(1 1) rotate(0) translate(4 300)">
<title>%3</title>
<polygon fill="white" stroke="transparent" points="-4,4 -4,-300 414.5,-300 414.5,4 -4,4"/>
<!-- node1 -->
<g id="node1" class="node">
<title>node1</title>
<path fill="peachpuff" stroke="black" d="M160,-249.5C160,-249.5 200,-249.5 200,-249.5 206,-249.5 212,-255.5 212,-261.5 212,-261.5 212,-283.5 212,-283.5 212,-289.5 206,-295.5 200,-295.5 200,-295.5 160,-295.5 160,-295.5 154,-295.5 148,-289.5 148,-283.5 148,-283.5 148,-261.5 148,-261.5 148,-255.5 154,-249.5 160,-249.5"/>
<text text-anchor="middle" x="161" y="-280.3" font-family="Times,serif" font-size="14.00">1</text>
<polyline fill="none" stroke="black" points="174,-272.5 174,-295.5 "/>
<text text-anchor="middle" x="193" y="-280.3" font-family="Times,serif" font-size="14.00">OP</text>
<polyline fill="none" stroke="black" points="148,-272.5 212,-272.5 "/>
<text text-anchor="middle" x="180" y="-257.3" font-family="Times,serif" font-size="14.00">/</text>
</g>
<!-- node1&#45;&gt;node1 -->
<g id="edge1" class="edge">
<title>node1&#45;&gt;node1</title>
<path fill="none" stroke="blue" d="M212.22,-287.86C222.18,-287.55 230,-282.43 230,-272.5 230,-266.29 226.95,-261.97 222.22,-259.52"/>
<polygon fill="blue" stroke="blue" points="222.76,-256.05 212.22,-257.14 221.14,-262.86 222.76,-256.05"/>
</g>
<!-- node2 -->
<g id="node2" class="node">
<title>node2</title>
<path fill="peachpuff" stroke="black" d="M111,-166.5C111,-166.5 151,-166.5 151,-166.5 157,-166.5 163,-172.5 163,-178.5 163,-178.5 163,-200.5 163,-200.5 163,-206.5 157,-212.5 151,-212.5 151,-212.5 111,-212.5 111,-212.5 105,-212.5 99,-206.5 99,-200.5 99,-200.5 99,-178.5 99,-178.5 99,-172.5 105,-166.5 111,-166.5"/>
<text text-anchor="middle" x="112" y="-197.3" font-family="Times,serif" font-size="14.00">2</text>
<polyline fill="none" stroke="black" points="125,-189.5 125,-212.5 "/>
<text text-anchor="middle" x="144" y="-197.3" font-family="Times,serif" font-size="14.00">OP</text>
<polyline fill="none" stroke="black" points="99,-189.5 163,-189.5 "/>
<text text-anchor="middle" x="131" y="-174.3" font-family="Times,serif" font-size="14.00">*</text>
</g>
<!-- node1&#45;&gt;node2 -->
<g id="edge2" class="edge">
<title>node1&#45;&gt;node2</title>
<path fill="none" stroke="red" d="M160.52,-249.37C154.67,-240.79 148.48,-230.83 143.21,-221.56"/>
<polygon fill="red" stroke="red" points="146.17,-219.68 138.28,-212.61 140.03,-223.06 146.17,-219.68"/>
</g>
<!-- node5 -->
<g id="node5" class="node">
<title>node5</title>
<path fill="peachpuff" stroke="black" d="M210,-166.5C210,-166.5 250,-166.5 250,-166.5 256,-166.5 262,-172.5 262,-178.5 262,-178.5 262,-200.5 262,-200.5 262,-206.5 256,-212.5 250,-212.5 250,-212.5 210,-212.5 210,-212.5 204,-212.5 198,-206.5 198,-200.5 198,-200.5 198,-178.5 198,-178.5 198,-172.5 204,-166.5 210,-166.5"/>
<text text-anchor="middle" x="211" y="-197.3" font-family="Times,serif" font-size="14.00">5</text>
<polyline fill="none" stroke="black" points="224,-189.5 224,-212.5 "/>
<text text-anchor="middle" x="243" y="-197.3" font-family="Times,serif" font-size="14.00">OP</text>
<polyline fill="none" stroke="black" points="198,-189.5 262,-189.5 "/>
<text text-anchor="middle" x="230" y="-174.3" font-family="Times,serif" font-size="14.00">&#45;</text>
</g>
<!-- node1&#45;&gt;node5 -->
<g id="edge8" class="edge">
<title>node1&#45;&gt;node5</title>
<path fill="none" stroke="green" d="M187.57,-249.37C192.3,-240.62 198.44,-230.41 204.62,-220.99"/>
<polygon fill="green" stroke="green" points="207.58,-222.86 210.27,-212.61 201.77,-218.94 207.58,-222.86"/>
</g>
<!-- node2&#45;&gt;node1 -->
<g id="edge3" class="edge">
<title>node2&#45;&gt;node1</title>
<path fill="none" stroke="blue" d="M150.46,-212.61C156.31,-221.18 162.5,-231.14 167.78,-240.41"/>
<polygon fill="blue" stroke="blue" points="164.82,-242.29 172.7,-249.37 170.95,-238.92 164.82,-242.29"/>
</g>
<!-- node3 -->
<g id="node3" class="node">
<title>node3</title>
<path fill="lightyellow" stroke="black" d="M12,-83.5C12,-83.5 60,-83.5 60,-83.5 66,-83.5 72,-89.5 72,-95.5 72,-95.5 72,-117.5 72,-117.5 72,-123.5 66,-129.5 60,-129.5 60,-129.5 12,-129.5 12,-129.5 6,-129.5 0,-123.5 0,-117.5 0,-117.5 0,-95.5 0,-95.5 0,-89.5 6,-83.5 12,-83.5"/>
<text text-anchor="middle" x="13" y="-114.3" font-family="Times,serif" font-size="14.00">3</text>
<polyline fill="none" stroke="black" points="26,-106.5 26,-129.5 "/>
<text text-anchor="middle" x="49" y="-114.3" font-family="Times,serif" font-size="14.00">VAR</text>
<polyline fill="none" stroke="black" points="0,-106.5 72,-106.5 "/>
<text text-anchor="middle" x="36" y="-91.3" font-family="Times,serif" font-size="14.00">x</text>
</g>
<!-- node2&#45;&gt;node3 -->
<g id="edge4" class="edge">
<title>node2&#45;&gt;node3</title>
<path fill="none" stroke="red" d="M98.95,-166.37C87.46,-157.17 74.65,-146.37 63.56,-136.55"/>
<polygon fill="red" stroke="red" points="65.62,-133.69 55.84,-129.61 60.94,-138.89 65.62,-133.69"/>
</g>
<!-- node4 -->
<g id="node4" class="node">
<title>node4</title>
<path fill="pink" stroke="black" d="M102.5,-83.5C102.5,-83.5 159.5,-83.5 159.5,-83.5 165.5,-83.5 171.5,-89.5 171.5,-95.5 171.5,-95.5 171.5,-117.5 171.5,-117.5 171.5,-123.5 165.5,-129.5 159.5,-129.5 159.5,-129.5 102.5,-129.5 102.5,-129.5 96.5,-129.5 90.5,-123.5 90.5,-117.5 90.5,-117.5 90.5,-95.5 90.5,-95.5 90.5,-89.5 96.5,-83.5 102.5,-83.5"/>
<text text-anchor="middle" x="103.5" y="-114.3" font-family="Times,serif" font-size="14.00">4</text>
<polyline fill="none" stroke="black" points="116.5,-106.5 116.5,-129.5 "/>
<text text-anchor="middle" x="144" y="-114.3" font-family="Times,serif" font-size="14.00">NUM</text>
<polyline fill="none" stroke="black" points="90.5,-106.5 171.5,-106.5 "/>
<text text-anchor="middle" x="131" y="-91.3" font-family="Times,serif" font-size="14.00">3</text>
</g>
<!-- node2&#45;&gt;node4 -->
<g id="edge6" class="edge">
<title>node2&#45;&gt;node4</title>
<path fill="none" stroke="green" d="M124.91,-166.37C124.28,-158.15 124.1,-148.66 124.38,-139.73"/>
<polygon fill="green" stroke="green" points="127.88,-139.78 124.91,-129.61 120.89,-139.41 127.88,-139.78"/>
</g>
<!-- node3&#45;&gt;node2 -->
<g id="edge5" class="edge">
<title>node3&#45;&gt;node2</title>
<path fill="none" stroke="blue" d="M68.02,-129.61C79.51,-138.8 92.31,-149.6 103.4,-159.42"/>
<polygon fill="blue" stroke="blue" points="101.35,-162.29 111.13,-166.37 106.03,-157.08 101.35,-162.29"/>
</g>
<!-- node4&#45;&gt;node2 -->
<g id="edge7" class="edge">
<title>node4&#45;&gt;node2</title>
<path fill="none" stroke="blue" d="M137.09,-129.61C137.72,-137.82 137.9,-147.31 137.62,-156.25"/>
<polygon fill="blue" stroke="blue" points="134.12,-156.2 137.09,-166.37 141.11,-156.56 134.12,-156.2"/>
</g>
<!-- node5&#45;&gt;node1 -->
<g id="edge9" class="edge">
<title>node5&#45;&gt;node1</title>
<path fill="none" stroke="blue" d="M222.44,-212.61C217.72,-221.35 211.58,-231.56 205.4,-240.99"/>
<polygon fill="blue" stroke="blue" points="202.44,-239.12 199.75,-249.37 208.24,-243.03 202.44,-239.12"/>
</g>
<!-- node6 -->
<g id="node6" class="node">
<title>node6</title>
<path fill="pink" stroke="black" d="M201.5,-83.5C201.5,-83.5 258.5,-83.5 258.5,-83.5 264.5,-83.5 270.5,-89.5 270.5,-95.5 270.5,-95.5 270.5,-117.5 270.5,-117.5 270.5,-123.5 264.5,-129.5 258.5,-129.5 258.5,-129.5 201.5,-129.5 201.5,-129.5 195.5,-129.5 189.5,-123.5 189.5,-117.5 189.5,-117.5 189.5,-95.5 189.5,-95.5 189.5,-89.5 195.5,-83.5 201.5,-83.5"/>
<text text-anchor="middle" x="202.5" y="-114.3" font-family="Times,serif" font-size="14.00">6</text>
<polyline fill="none" stroke="black" points="215.5,-106.5 215.5,-129.5 "/>
<text text-anchor="middle" x="243" y="-114.3" font-family="Times,serif" font-size="14.00">NUM</text>
<polyline fill="none" stroke="black" points="189.5,-106.5 270.5,-106.5 "/>
<text text-anchor="middle" x="230" y="-91.3" font-family="Times,serif" font-size="14.00">1000</text>
</g>
<!-- node5&#45;&gt;node6 -->
<g id="edge10" class="edge">
<title>node5&#45;&gt;node6</title>
<path fill="none" stroke="red" d="M223.91,-166.37C223.28,-158.15 223.1,-148.66 223.38,-139.73"/>
<polygon fill="red" stroke="red" points="226.88,-139.78 223.91,-129.61 219.89,-139.41 226.88,-139.78"/>
</g>
<!-- node7 -->
<g id="node7" class="node">
<title>node7</title>
<path fill="peachpuff" stroke="black" d="M301,-83.5C301,-83.5 341,-83.5 341,-83.5 347,-83.5 353,-89.5 353,-95.5 353,-95.5 353,-117.5 353,-117.5 353,-123.5 347,-129.5 341,-129.5 341,-129.5 301,-129.5 301,-129.5 295,-129.5 289,-123.5 289,-117.5 289,-117.5 289,-95.5 289,-95.5 289,-89.5 295,-83.5 301,-83.5"/>
<text text-anchor="middle" x="302" y="-114.3" font-family="Times,serif" font-size="14.00">7</text>
<polyline fill="none" stroke="black" points="315,-106.5 315,-129.5 "/>
<text text-anchor="middle" x="334" y="-114.3" font-family="Times,serif" font-size="14.00">OP</text>
<polyline fill="none" stroke="black" points="289,-106.5 353,-106.5 "/>
<text text-anchor="middle" x="321" y="-91.3" font-family="Times,serif" font-size="14.00">&#45;</text>
</g>
<!-- node5&#45;&gt;node7 -->
<g id="edge12" class="edge">
<title>node5&#45;&gt;node7</title>
<path fill="none" stroke="green" d="M248.78,-166.37C258.49,-157.08 270.63,-146.16 282.2,-136.26"/>
<polygon fill="green" stroke="green" points="284.69,-138.73 290.08,-129.61 280.18,-133.39 284.69,-138.73"/>
</g>
<!-- node6&#45;&gt;node5 -->
<g id="edge11" class="edge">
<title>node6&#45;&gt;node5</title>
<path fill="none" stroke="blue" d="M236.09,-129.61C236.72,-137.82 236.9,-147.31 236.62,-156.25"/>
<polygon fill="blue" stroke="blue" points="233.12,-156.2 236.09,-166.37 240.11,-156.56 233.12,-156.2"/>
</g>
<!-- node7&#45;&gt;node5 -->
<g id="edge13" class="edge">
<title>node7&#45;&gt;node5</title>
<path fill="none" stroke="blue" d="M302.25,-129.61C292.54,-138.89 280.41,-149.81 268.84,-159.71"/>
<polygon fill="blue" stroke="blue" points="266.34,-157.24 260.96,-166.37 270.85,-162.59 266.34,-157.24"/>
</g>
<!-- node8 -->
<g id="node8" class="node">
<title>node8</title>
<path fill="pink" stroke="black" d="M242.5,-0.5C242.5,-0.5 299.5,-0.5 299.5,-0.5 305.5,-0.5 311.5,-6.5 311.5,-12.5 311.5,-12.5 311.5,-34.5 311.5,-34.5 311.5,-40.5 305.5,-46.5 299.5,-46.5 299.5,-46.5 242.5,-46.5 242.5,-46.5 236.5,-46.5 230.5,-40.5 230.5,-34.5 230.5,-34.5 230.5,-12.5 230.5,-12.5 230.5,-6.5 236.5,-0.5 242.5,-0.5"/>
<text text-anchor="middle" x="243.5" y="-31.3" font-family="Times,serif" font-size="14.00">8</text>
<polyline fill="none" stroke="black" points="256.5,-23.5 256.5,-46.5 "/>
<text text-anchor="middle" x="284" y="-31.3" font-family="Times,serif" font-size="14.00">NUM</text>
<polyline fill="none" stroke="black" points="230.5,-23.5 311.5,-23.5 "/>
<text text-anchor="middle" x="271" y="-8.3" font-family="Times,serif" font-size="14.00">7</text>
</g>
<!-- node7&#45;&gt;node8 -->
<g id="edge14" class="edge">
<title>node7&#45;&gt;node8</title>
<path fill="none" stroke="red" d="M301.25,-83.37C295.3,-74.79 288.98,-64.83 283.59,-55.56"/>
<polygon fill="red" stroke="red" points="286.51,-53.61 278.56,-46.61 280.41,-57.04 286.51,-53.61"/>
</g>
<!-- node9 -->
<g id="node9" class="node">
<title>node9</title>
<path fill="pink" stroke="black" d="M341.5,-0.5C341.5,-0.5 398.5,-0.5 398.5,-0.5 404.5,-0.5 410.5,-6.5 410.5,-12.5 410.5,-12.5 410.5,-34.5 410.5,-34.5 410.5,-40.5 404.5,-46.5 398.5,-46.5 398.5,-46.5 341.5,-46.5 341.5,-46.5 335.5,-46.5 329.5,-40.5 329.5,-34.5 329.5,-34.5 329.5,-12.5 329.5,-12.5 329.5,-6.5 335.5,-0.5 341.5,-0.5"/>
<text text-anchor="middle" x="342.5" y="-31.3" font-family="Times,serif" font-size="14.00">9</text>
<polyline fill="none" stroke="black" points="355.5,-23.5 355.5,-46.5 "/>
<text text-anchor="middle" x="383" y="-31.3" font-family="Times,serif" font-size="14.00">NUM</text>
<polyline fill="none" stroke="black" points="329.5,-23.5 410.5,-23.5 "/>
<text text-anchor="middle" x="370" y="-8.3" font-family="Times,serif" font-size="14.00">1</text>
</g>
<!-- node7&#45;&gt;node9 -->
<g id="edge16" class="edge">
<title>node7&#45;&gt;node9</title>
<path fill="none" stroke="green" d="M328.3,-83.37C332.92,-74.62 338.93,-64.41 345,-54.99"/>
<polygon fill="green" stroke="green" points="347.94,-56.88 350.54,-46.61 342.1,-53.02 347.94,-56.88"/>
</g>
<!-- node8&#45;&gt;node7 -->
<g id="edge15" class="edge">
<title>node8&#45;&gt;node7</title>
<path fill="none" stroke="blue" d="M290.73,-46.61C296.69,-55.18 303,-65.14 308.39,-74.41"/>
<polygon fill="blue" stroke="blue" points="305.48,-76.36 313.43,-83.37 311.58,-72.93 305.48,-76.36"/>
</g>
<!-- node9&#45;&gt;node7 -->
<g id="edge17" class="edge">
<title>node9&#45;&gt;node7</title>
<path fill="none" stroke="blue" d="M362.72,-46.61C358.1,-55.35 352.09,-65.56 346.02,-74.99"/>
<polygon fill="blue" stroke="blue" points="343.08,-73.09 340.48,-83.37 348.92,-76.96 343.08,-73.09"/>
</g>
</g>
</svg>
