<?xml version="1.0" encoding="UTF-8" standalone="no"?>
<!DOCTYPE svg PUBLIC "-//W3C//DTD SVG 1.1//EN"
 "http://www.w3.org/Graphics/SVG/1.1/DTD/svg11.dtd">
<!-- Generated by graphviz version 2.43.0 (0)
 -->
<!-- Title: %3 Pages: 1 -->
<svg width="466pt" height="387pt"
 viewBox="0.00 0.00 466.00 387.00" xmlns="http://www.w3.org/2000/svg" xmlns:xlink="http://www.w3.org/1999/xlink">
<g id="graph0" class="graph" transform="scale(1 1) rotate(0) translate(4 383)">
<title>%3</title>
<polygon fill="white" stroke="transparent" points="-4,4 -4,-383 462,-383 462,4 -4,4"/>
<!-- node1 -->
<g id="node1" class="node">
<title>node1</title>
<path fill="peachpuff" stroke="black" d="M98.5,-332.5C98.5,-332.5 203.5,-332.5 203.5,-332.5 209.5,-332.5 215.5,-338.5 215.5,-344.5 215.5,-344.5 215.5,-366.5 215.5,-366.5 215.5,-372.5 209.5,-378.5 203.5,-378.5 203.5,-378.5 98.5,-378.5 98.5,-378.5 92.5,-378.5 86.5,-372.5 86.5,-366.5 86.5,-366.5 86.5,-344.5 86.5,-344.5 86.5,-338.5 92.5,-332.5 98.5,-332.5"/>
<text text-anchor="middle" x="99.5" y="-363.3" font-family="Times,serif" font-size="14.00">1</text>
<polyline fill="none" stroke="black" points="112.5,-355.5 112.5,-378.5 "/>
<text text-anchor="middle" x="131.5" y="-363.3" font-family="Times,serif" font-size="14.00">OP</text>
<polyline fill="none" stroke="black" points="150.5,-355.5 150.5,-378.5 "/>
<text text-anchor="middle" x="183" y="-363.3" font-family="Times,serif" font-size="14.00">size=9</text>
<polyline fill="none" stroke="black" points="86.5,-355.5 215.5,-355.5 "/>
<text text-anchor="middle" x="151" y="-340.3" font-family="Times,serif" font-size="14.00">^</text>
</g>
<!-- node1&#45;&gt;node1 -->
<g id="edge1" class="edge">
<title>node1&#45;&gt;node1</title>
<path fill="none" stroke="blue" d="M215.68,-369.73C226.24,-367.69 233.5,-362.95 233.5,-355.5 233.5,-350.61 230.37,-346.89 225.24,-344.33"/>
<polygon fill="blue" stroke="blue" points="226.27,-340.99 215.68,-341.27 224.14,-347.66 226.27,-340.99"/>
</g>
<!-- node2 -->
<g id="node2" class="node">
<title>node2</title>
<path fill="pink" stroke="black" d="M12,-249.5C12,-249.5 134,-249.5 134,-249.5 140,-249.5 146,-255.5 146,-261.5 146,-261.5 146,-283.5 146,-283.5 146,-289.5 140,-295.5 134,-295.5 134,-295.5 12,-295.5 12,-295.5 6,-295.5 0,-289.5 0,-283.5 0,-283.5 0,-261.5 0,-261.5 0,-255.5 6,-249.5 12,-249.5"/>
<text text-anchor="middle" x="13" y="-280.3" font-family="Times,serif" font-size="14.00">2</text>
<polyline fill="none" stroke="black" points="26,-272.5 26,-295.5 "/>
<text text-anchor="middle" x="53.5" y="-280.3" font-family="Times,serif" font-size="14.00">NUM</text>
<polyline fill="none" stroke="black" points="81,-272.5 81,-295.5 "/>
<text text-anchor="middle" x="113.5" y="-280.3" font-family="Times,serif" font-size="14.00">size=1</text>
<polyline fill="none" stroke="black" points="0,-272.5 146,-272.5 "/>
<text text-anchor="middle" x="73" y="-257.3" font-family="Times,serif" font-size="14.00">1</text>
</g>
<!-- node1&#45;&gt;node2 -->
<g id="edge2" class="edge">
<title>node1&#45;&gt;node2</title>
<path fill="none" stroke="red" d="M123.6,-332.37C114.22,-323.35 103.9,-312.79 95,-303.12"/>
<polygon fill="red" stroke="red" points="97.5,-300.68 88.2,-295.61 92.31,-305.37 97.5,-300.68"/>
</g>
<!-- node3 -->
<g id="node3" class="node">
<title>node3</title>
<path fill="peachpuff" stroke="black" d="M176.5,-249.5C176.5,-249.5 281.5,-249.5 281.5,-249.5 287.5,-249.5 293.5,-255.5 293.5,-261.5 293.5,-261.5 293.5,-283.5 293.5,-283.5 293.5,-289.5 287.5,-295.5 281.5,-295.5 281.5,-295.5 176.5,-295.5 176.5,-295.5 170.5,-295.5 164.5,-289.5 164.5,-283.5 164.5,-283.5 164.5,-261.5 164.5,-261.5 164.5,-255.5 170.5,-249.5 176.5,-249.5"/>
<text text-anchor="middle" x="177.5" y="-280.3" font-family="Times,serif" font-size="14.00">3</text>
<polyline fill="none" stroke="black" points="190.5,-272.5 190.5,-295.5 "/>
<text text-anchor="middle" x="209.5" y="-280.3" font-family="Times,serif" font-size="14.00">OP</text>
<polyline fill="none" stroke="black" points="228.5,-272.5 228.5,-295.5 "/>
<text text-anchor="middle" x="261" y="-280.3" font-family="Times,serif" font-size="14.00">size=7</text>
<polyline fill="none" stroke="black" points="164.5,-272.5 293.5,-272.5 "/>
<text text-anchor="middle" x="229" y="-257.3" font-family="Times,serif" font-size="14.00">^</text>
</g>
<!-- node1&#45;&gt;node3 -->
<g id="edge4" class="edge">
<title>node1&#45;&gt;node3</title>
<path fill="none" stroke="green" d="M166.22,-332.37C174.29,-323.26 184.43,-312.58 194.24,-302.83"/>
<polygon fill="green" stroke="green" points="196.92,-305.1 201.62,-295.61 192.03,-300.1 196.92,-305.1"/>
</g>
<!-- node2&#45;&gt;node1 -->
<g id="edge3" class="edge">
<title>node2&#45;&gt;node1</title>
<path fill="none" stroke="blue" d="M100.38,-295.61C109.75,-304.62 120.07,-315.18 128.98,-324.85"/>
<polygon fill="blue" stroke="blue" points="126.47,-327.3 135.78,-332.37 131.66,-322.6 126.47,-327.3"/>
</g>
<!-- node3&#45;&gt;node1 -->
<g id="edge5" class="edge">
<title>node3&#45;&gt;node1</title>
<path fill="none" stroke="blue" d="M213.8,-295.61C205.74,-304.71 195.59,-315.39 185.79,-325.14"/>
<polygon fill="blue" stroke="blue" points="183.1,-322.87 178.4,-332.37 188,-327.87 183.1,-322.87"/>
</g>
<!-- node4 -->
<g id="node4" class="node">
<title>node4</title>
<path fill="pink" stroke="black" d="M90,-166.5C90,-166.5 212,-166.5 212,-166.5 218,-166.5 224,-172.5 224,-178.5 224,-178.5 224,-200.5 224,-200.5 224,-206.5 218,-212.5 212,-212.5 212,-212.5 90,-212.5 90,-212.5 84,-212.5 78,-206.5 78,-200.5 78,-200.5 78,-178.5 78,-178.5 78,-172.5 84,-166.5 90,-166.5"/>
<text text-anchor="middle" x="91" y="-197.3" font-family="Times,serif" font-size="14.00">4</text>
<polyline fill="none" stroke="black" points="104,-189.5 104,-212.5 "/>
<text text-anchor="middle" x="131.5" y="-197.3" font-family="Times,serif" font-size="14.00">NUM</text>
<polyline fill="none" stroke="black" points="159,-189.5 159,-212.5 "/>
<text text-anchor="middle" x="191.5" y="-197.3" font-family="Times,serif" font-size="14.00">size=1</text>
<polyline fill="none" stroke="black" points="78,-189.5 224,-189.5 "/>
<text text-anchor="middle" x="151" y="-174.3" font-family="Times,serif" font-size="14.00">2</text>
</g>
<!-- node3&#45;&gt;node4 -->
<g id="edge6" class="edge">
<title>node3&#45;&gt;node4</title>
<path fill="none" stroke="red" d="M201.6,-249.37C192.22,-240.35 181.9,-229.79 173,-220.12"/>
<polygon fill="red" stroke="red" points="175.5,-217.68 166.2,-212.61 170.31,-222.37 175.5,-217.68"/>
</g>
<!-- node5 -->
<g id="node5" class="node">
<title>node5</title>
<path fill="peachpuff" stroke="black" d="M254.5,-166.5C254.5,-166.5 359.5,-166.5 359.5,-166.5 365.5,-166.5 371.5,-172.5 371.5,-178.5 371.5,-178.5 371.5,-200.5 371.5,-200.5 371.5,-206.5 365.5,-212.5 359.5,-212.5 359.5,-212.5 254.5,-212.5 254.5,-212.5 248.5,-212.5 242.5,-206.5 242.5,-200.5 242.5,-200.5 242.5,-178.5 242.5,-178.5 242.5,-172.5 248.5,-166.5 254.5,-166.5"/>
<text text-anchor="middle" x="255.5" y="-197.3" font-family="Times,serif" font-size="14.00">5</text>
<polyline fill="none" stroke="black" points="268.5,-189.5 268.5,-212.5 "/>
<text text-anchor="middle" x="287.5" y="-197.3" font-family="Times,serif" font-size="14.00">OP</text>
<polyline fill="none" stroke="black" points="306.5,-189.5 306.5,-212.5 "/>
<text text-anchor="middle" x="339" y="-197.3" font-family="Times,serif" font-size="14.00">size=5</text>
<polyline fill="none" stroke="black" points="242.5,-189.5 371.5,-189.5 "/>
<text text-anchor="middle" x="307" y="-174.3" font-family="Times,serif" font-size="14.00">^</text>
</g>
<!-- node3&#45;&gt;node5 -->
<g id="edge8" class="edge">
<title>node3&#45;&gt;node5</title>
<path fill="none" stroke="green" d="M244.22,-249.37C252.29,-240.26 262.43,-229.58 272.24,-219.83"/>
<polygon fill="green" stroke="green" points="274.92,-222.1 279.62,-212.61 270.03,-217.1 274.92,-222.1"/>
</g>
<!-- node4&#45;&gt;node3 -->
<g id="edge7" class="edge">
<title>node4&#45;&gt;node3</title>
<path fill="none" stroke="blue" d="M178.38,-212.61C187.75,-221.62 198.07,-232.18 206.98,-241.85"/>
<polygon fill="blue" stroke="blue" points="204.47,-244.3 213.78,-249.37 209.66,-239.6 204.47,-244.3"/>
</g>
<!-- node5&#45;&gt;node3 -->
<g id="edge9" class="edge">
<title>node5&#45;&gt;node3</title>
<path fill="none" stroke="blue" d="M291.8,-212.61C283.74,-221.71 273.59,-232.39 263.79,-242.14"/>
<polygon fill="blue" stroke="blue" points="261.1,-239.87 256.4,-249.37 266,-244.87 261.1,-239.87"/>
</g>
<!-- node6 -->
<g id="node6" class="node">
<title>node6</title>
<path fill="peachpuff" stroke="black" d="M176.5,-83.5C176.5,-83.5 281.5,-83.5 281.5,-83.5 287.5,-83.5 293.5,-89.5 293.5,-95.5 293.5,-95.5 293.5,-117.5 293.5,-117.5 293.5,-123.5 287.5,-129.5 281.5,-129.5 281.5,-129.5 176.5,-129.5 176.5,-129.5 170.5,-129.5 164.5,-123.5 164.5,-117.5 164.5,-117.5 164.5,-95.5 164.5,-95.5 164.5,-89.5 170.5,-83.5 176.5,-83.5"/>
<text text-anchor="middle" x="177.5" y="-114.3" font-family="Times,serif" font-size="14.00">6</text>
<polyline fill="none" stroke="black" points="190.5,-106.5 190.5,-129.5 "/>
<text text-anchor="middle" x="209.5" y="-114.3" font-family="Times,serif" font-size="14.00">OP</text>
<polyline fill="none" stroke="black" points="228.5,-106.5 228.5,-129.5 "/>
<text text-anchor="middle" x="261" y="-114.3" font-family="Times,serif" font-size="14.00">size=3</text>
<polyline fill="none" stroke="black" points="164.5,-106.5 293.5,-106.5 "/>
<text text-anchor="middle" x="229" y="-91.3" font-family="Times,serif" font-size="14.00">^</text>
</g>
<!-- node5&#45;&gt;node6 -->
<g id="edge10" class="edge">
<title>node5&#45;&gt;node6</title>
<path fill="none" stroke="red" d="M279.6,-166.37C270.22,-157.35 259.9,-146.79 251,-137.12"/>
<polygon fill="red" stroke="red" points="253.5,-134.68 244.2,-129.61 248.31,-139.37 253.5,-134.68"/>
</g>
<!-- node9 -->
<g id="node9" class="node">
<title>node9</title>
<path fill="pink" stroke="black" d="M324,-83.5C324,-83.5 446,-83.5 446,-83.5 452,-83.5 458,-89.5 458,-95.5 458,-95.5 458,-117.5 458,-117.5 458,-123.5 452,-129.5 446,-129.5 446,-129.5 324,-129.5 324,-129.5 318,-129.5 312,-123.5 312,-117.5 312,-117.5 312,-95.5 312,-95.5 312,-89.5 318,-83.5 324,-83.5"/>
<text text-anchor="middle" x="325" y="-114.3" font-family="Times,serif" font-size="14.00">9</text>
<polyline fill="none" stroke="black" points="338,-106.5 338,-129.5 "/>
<text text-anchor="middle" x="365.5" y="-114.3" font-family="Times,serif" font-size="14.00">NUM</text>
<polyline fill="none" stroke="black" points="393,-106.5 393,-129.5 "/>
<text text-anchor="middle" x="425.5" y="-114.3" font-family="Times,serif" font-size="14.00">size=1</text>
<polyline fill="none" stroke="black" points="312,-106.5 458,-106.5 "/>
<text text-anchor="middle" x="385" y="-91.3" font-family="Times,serif" font-size="14.00">5</text>
</g>
<!-- node5&#45;&gt;node9 -->
<g id="edge16" class="edge">
<title>node5&#45;&gt;node9</title>
<path fill="none" stroke="green" d="M322.22,-166.37C330.29,-157.26 340.43,-146.58 350.24,-136.83"/>
<polygon fill="green" stroke="green" points="352.92,-139.1 357.62,-129.61 348.03,-134.1 352.92,-139.1"/>
</g>
<!-- node6&#45;&gt;node5 -->
<g id="edge11" class="edge">
<title>node6&#45;&gt;node5</title>
<path fill="none" stroke="blue" d="M256.38,-129.61C265.75,-138.62 276.07,-149.18 284.98,-158.85"/>
<polygon fill="blue" stroke="blue" points="282.47,-161.3 291.78,-166.37 287.66,-156.6 282.47,-161.3"/>
</g>
<!-- node7 -->
<g id="node7" class="node">
<title>node7</title>
<path fill="pink" stroke="black" d="M86,-0.5C86,-0.5 208,-0.5 208,-0.5 214,-0.5 220,-6.5 220,-12.5 220,-12.5 220,-34.5 220,-34.5 220,-40.5 214,-46.5 208,-46.5 208,-46.5 86,-46.5 86,-46.5 80,-46.5 74,-40.5 74,-34.5 74,-34.5 74,-12.5 74,-12.5 74,-6.5 80,-0.5 86,-0.5"/>
<text text-anchor="middle" x="87" y="-31.3" font-family="Times,serif" font-size="14.00">7</text>
<polyline fill="none" stroke="black" points="100,-23.5 100,-46.5 "/>
<text text-anchor="middle" x="127.5" y="-31.3" font-family="Times,serif" font-size="14.00">NUM</text>
<polyline fill="none" stroke="black" points="155,-23.5 155,-46.5 "/>
<text text-anchor="middle" x="187.5" y="-31.3" font-family="Times,serif" font-size="14.00">size=1</text>
<polyline fill="none" stroke="black" points="74,-23.5 220,-23.5 "/>
<text text-anchor="middle" x="147" y="-8.3" font-family="Times,serif" font-size="14.00">3</text>
</g>
<!-- node6&#45;&gt;node7 -->
<g id="edge12" class="edge">
<title>node6&#45;&gt;node7</title>
<path fill="none" stroke="red" d="M200.5,-83.37C190.68,-74.35 179.84,-63.79 170.46,-54.12"/>
<polygon fill="red" stroke="red" points="172.73,-51.43 163.29,-46.61 167.66,-56.26 172.73,-51.43"/>
</g>
<!-- node8 -->
<g id="node8" class="node">
<title>node8</title>
<path fill="pink" stroke="black" d="M250,-0.5C250,-0.5 372,-0.5 372,-0.5 378,-0.5 384,-6.5 384,-12.5 384,-12.5 384,-34.5 384,-34.5 384,-40.5 378,-46.5 372,-46.5 372,-46.5 250,-46.5 250,-46.5 244,-46.5 238,-40.5 238,-34.5 238,-34.5 238,-12.5 238,-12.5 238,-6.5 244,-0.5 250,-0.5"/>
<text text-anchor="middle" x="251" y="-31.3" font-family="Times,serif" font-size="14.00">8</text>
<polyline fill="none" stroke="black" points="264,-23.5 264,-46.5 "/>
<text text-anchor="middle" x="291.5" y="-31.3" font-family="Times,serif" font-size="14.00">NUM</text>
<polyline fill="none" stroke="black" points="319,-23.5 319,-46.5 "/>
<text text-anchor="middle" x="351.5" y="-31.3" font-family="Times,serif" font-size="14.00">size=1</text>
<polyline fill="none" stroke="black" points="238,-23.5 384,-23.5 "/>
<text text-anchor="middle" x="311" y="-8.3" font-family="Times,serif" font-size="14.00">4</text>
</g>
<!-- node6&#45;&gt;node8 -->
<g id="edge14" class="edge">
<title>node6&#45;&gt;node8</title>
<path fill="none" stroke="green" d="M245.32,-83.37C253.92,-74.17 264.71,-63.37 275.09,-53.55"/>
<polygon fill="green" stroke="green" points="277.61,-55.99 282.53,-46.61 272.83,-50.87 277.61,-55.99"/>
</g>
<!-- node7&#45;&gt;node6 -->
<g id="edge13" class="edge">
<title>node7&#45;&gt;node6</title>
<path fill="none" stroke="blue" d="M175.47,-46.61C185.29,-55.62 196.13,-66.18 205.51,-75.85"/>
<polygon fill="blue" stroke="blue" points="203.25,-78.55 212.68,-83.37 208.31,-73.71 203.25,-78.55"/>
</g>
<!-- node8&#45;&gt;node6 -->
<g id="edge15" class="edge">
<title>node8&#45;&gt;node6</title>
<path fill="none" stroke="blue" d="M294.71,-46.61C286.11,-55.8 275.32,-66.6 264.94,-76.42"/>
<polygon fill="blue" stroke="blue" points="262.42,-73.99 257.5,-83.37 267.2,-79.1 262.42,-73.99"/>
</g>
<!-- node9&#45;&gt;node5 -->
<g id="edge17" class="edge">
<title>node9&#45;&gt;node5</title>
<path fill="none" stroke="blue" d="M369.8,-129.61C361.74,-138.71 351.59,-149.39 341.79,-159.14"/>
<polygon fill="blue" stroke="blue" points="339.1,-156.87 334.4,-166.37 344,-161.87 339.1,-156.87"/>
</g>
</g>
</svg>
