<?xml version="1.0" encoding="UTF-8" standalone="no"?>
<!DOCTYPE svg PUBLIC "-//W3C//DTD SVG 1.1//EN"
 "http://www.w3.org/Graphics/SVG/1.1/DTD/svg11.dtd">
<!-- Generated by graphviz version 2.43.0 (0)
 -->
<!-- Title: %3 Pages: 1 -->
<svg width="1825pt" height="470pt"
 viewBox="0.00 0.00 1824.50 470.00" xmlns="http://www.w3.org/2000/svg" xmlns:xlink="http://www.w3.org/1999/xlink">
<g id="graph0" class="graph" transform="scale(1 1) rotate(0) translate(4 466)">
<title>%3</title>
<polygon fill="white" stroke="transparent" points="-4,4 -4,-466 1820.5,-466 1820.5,4 -4,4"/>
<!-- node1 -->
<g id="node1" class="node">
<title>node1</title>
<path fill="peachpuff" stroke="black" d="M1259,-415.5C1259,-415.5 1373,-415.5 1373,-415.5 1379,-415.5 1385,-421.5 1385,-427.5 1385,-427.5 1385,-449.5 1385,-449.5 1385,-455.5 1379,-461.5 1373,-461.5 1373,-461.5 1259,-461.5 1259,-461.5 1253,-461.5 1247,-455.5 1247,-449.5 1247,-449.5 1247,-427.5 1247,-427.5 1247,-421.5 1253,-415.5 1259,-415.5"/>
<text text-anchor="middle" x="1260" y="-446.3" font-family="Times,serif" font-size="14.00">1</text>
<polyline fill="none" stroke="black" points="1273,-438.5 1273,-461.5 "/>
<text text-anchor="middle" x="1292" y="-446.3" font-family="Times,serif" font-size="14.00">OP</text>
<polyline fill="none" stroke="black" points="1311,-438.5 1311,-461.5 "/>
<text text-anchor="middle" x="1348" y="-446.3" font-family="Times,serif" font-size="14.00">size=31</text>
<polyline fill="none" stroke="black" points="1247,-438.5 1385,-438.5 "/>
<text text-anchor="middle" x="1316" y="-423.3" font-family="Times,serif" font-size="14.00">/</text>
</g>
<!-- node1&#45;&gt;node1 -->
<g id="edge1" class="edge">
<title>node1&#45;&gt;node1</title>
<path fill="none" stroke="blue" d="M1385.27,-452.52C1395.83,-450.38 1403,-445.71 1403,-438.5 1403,-433.77 1399.91,-430.13 1394.81,-427.58"/>
<polygon fill="blue" stroke="blue" points="1395.87,-424.25 1385.27,-424.48 1393.7,-430.9 1395.87,-424.25"/>
</g>
<!-- node2 -->
<g id="node2" class="node">
<title>node2</title>
<path fill="peachpuff" stroke="black" d="M1090,-332.5C1090,-332.5 1204,-332.5 1204,-332.5 1210,-332.5 1216,-338.5 1216,-344.5 1216,-344.5 1216,-366.5 1216,-366.5 1216,-372.5 1210,-378.5 1204,-378.5 1204,-378.5 1090,-378.5 1090,-378.5 1084,-378.5 1078,-372.5 1078,-366.5 1078,-366.5 1078,-344.5 1078,-344.5 1078,-338.5 1084,-332.5 1090,-332.5"/>
<text text-anchor="middle" x="1091" y="-363.3" font-family="Times,serif" font-size="14.00">2</text>
<polyline fill="none" stroke="black" points="1104,-355.5 1104,-378.5 "/>
<text text-anchor="middle" x="1123" y="-363.3" font-family="Times,serif" font-size="14.00">OP</text>
<polyline fill="none" stroke="black" points="1142,-355.5 1142,-378.5 "/>
<text text-anchor="middle" x="1179" y="-363.3" font-family="Times,serif" font-size="14.00">size=23</text>
<polyline fill="none" stroke="black" points="1078,-355.5 1216,-355.5 "/>
<text text-anchor="middle" x="1147" y="-340.3" font-family="Times,serif" font-size="14.00">&#45;</text>
</g>
<!-- node1&#45;&gt;node2 -->
<g id="edge2" class="edge">
<title>node1&#45;&gt;node2</title>
<path fill="none" stroke="red" d="M1263.73,-415.37C1242.19,-405.41 1217.4,-393.58 1196.19,-383.14"/>
<polygon fill="red" stroke="red" points="1197.55,-379.9 1187.04,-378.61 1194.45,-386.18 1197.55,-379.9"/>
</g>
<!-- node25 -->
<g id="node25" class="node">
<title>node25</title>
<path fill="peachpuff" stroke="black" d="M1344,-332.5C1344,-332.5 1458,-332.5 1458,-332.5 1464,-332.5 1470,-338.5 1470,-344.5 1470,-344.5 1470,-366.5 1470,-366.5 1470,-372.5 1464,-378.5 1458,-378.5 1458,-378.5 1344,-378.5 1344,-378.5 1338,-378.5 1332,-372.5 1332,-366.5 1332,-366.5 1332,-344.5 1332,-344.5 1332,-338.5 1338,-332.5 1344,-332.5"/>
<text text-anchor="middle" x="1349.5" y="-363.3" font-family="Times,serif" font-size="14.00">25</text>
<polyline fill="none" stroke="black" points="1367,-355.5 1367,-378.5 "/>
<text text-anchor="middle" x="1386" y="-363.3" font-family="Times,serif" font-size="14.00">OP</text>
<polyline fill="none" stroke="black" points="1405,-355.5 1405,-378.5 "/>
<text text-anchor="middle" x="1437.5" y="-363.3" font-family="Times,serif" font-size="14.00">size=7</text>
<polyline fill="none" stroke="black" points="1332,-355.5 1470,-355.5 "/>
<text text-anchor="middle" x="1401" y="-340.3" font-family="Times,serif" font-size="14.00">^</text>
</g>
<!-- node1&#45;&gt;node25 -->
<g id="edge48" class="edge">
<title>node1&#45;&gt;node25</title>
<path fill="none" stroke="green" d="M1333.14,-415.37C1342.08,-406.17 1353.27,-395.37 1364.01,-385.55"/>
<polygon fill="green" stroke="green" points="1366.63,-387.9 1371.71,-378.61 1361.94,-382.7 1366.63,-387.9"/>
</g>
<!-- node2&#45;&gt;node1 -->
<g id="edge3" class="edge">
<title>node2&#45;&gt;node1</title>
<path fill="none" stroke="blue" d="M1199.21,-378.61C1220.75,-388.56 1245.54,-400.39 1266.75,-410.83"/>
<polygon fill="blue" stroke="blue" points="1265.4,-414.07 1275.91,-415.37 1268.5,-407.79 1265.4,-414.07"/>
</g>
<!-- node3 -->
<g id="node3" class="node">
<title>node3</title>
<path fill="peachpuff" stroke="black" d="M594,-249.5C594,-249.5 708,-249.5 708,-249.5 714,-249.5 720,-255.5 720,-261.5 720,-261.5 720,-283.5 720,-283.5 720,-289.5 714,-295.5 708,-295.5 708,-295.5 594,-295.5 594,-295.5 588,-295.5 582,-289.5 582,-283.5 582,-283.5 582,-261.5 582,-261.5 582,-255.5 588,-249.5 594,-249.5"/>
<text text-anchor="middle" x="595" y="-280.3" font-family="Times,serif" font-size="14.00">3</text>
<polyline fill="none" stroke="black" points="608,-272.5 608,-295.5 "/>
<text text-anchor="middle" x="627" y="-280.3" font-family="Times,serif" font-size="14.00">OP</text>
<polyline fill="none" stroke="black" points="646,-272.5 646,-295.5 "/>
<text text-anchor="middle" x="683" y="-280.3" font-family="Times,serif" font-size="14.00">size=13</text>
<polyline fill="none" stroke="black" points="582,-272.5 720,-272.5 "/>
<text text-anchor="middle" x="651" y="-257.3" font-family="Times,serif" font-size="14.00">*</text>
</g>
<!-- node2&#45;&gt;node3 -->
<g id="edge4" class="edge">
<title>node2&#45;&gt;node3</title>
<path fill="none" stroke="red" d="M1077.95,-343.99C986.69,-329.5 826.42,-303.36 730.3,-287.3"/>
<polygon fill="red" stroke="red" points="730.79,-283.84 720.34,-285.64 729.63,-290.74 730.79,-283.84"/>
</g>
<!-- node16 -->
<g id="node16" class="node">
<title>node16</title>
<path fill="peachpuff" stroke="black" d="M1090,-249.5C1090,-249.5 1204,-249.5 1204,-249.5 1210,-249.5 1216,-255.5 1216,-261.5 1216,-261.5 1216,-283.5 1216,-283.5 1216,-289.5 1210,-295.5 1204,-295.5 1204,-295.5 1090,-295.5 1090,-295.5 1084,-295.5 1078,-289.5 1078,-283.5 1078,-283.5 1078,-261.5 1078,-261.5 1078,-255.5 1084,-249.5 1090,-249.5"/>
<text text-anchor="middle" x="1095.5" y="-280.3" font-family="Times,serif" font-size="14.00">16</text>
<polyline fill="none" stroke="black" points="1113,-272.5 1113,-295.5 "/>
<text text-anchor="middle" x="1132" y="-280.3" font-family="Times,serif" font-size="14.00">OP</text>
<polyline fill="none" stroke="black" points="1151,-272.5 1151,-295.5 "/>
<text text-anchor="middle" x="1183.5" y="-280.3" font-family="Times,serif" font-size="14.00">size=9</text>
<polyline fill="none" stroke="black" points="1078,-272.5 1216,-272.5 "/>
<text text-anchor="middle" x="1147" y="-257.3" font-family="Times,serif" font-size="14.00">*</text>
</g>
<!-- node2&#45;&gt;node16 -->
<g id="edge30" class="edge">
<title>node2&#45;&gt;node16</title>
<path fill="none" stroke="green" d="M1140.91,-332.37C1140.28,-324.15 1140.1,-314.66 1140.38,-305.73"/>
<polygon fill="green" stroke="green" points="1143.88,-305.78 1140.91,-295.61 1136.89,-305.41 1143.88,-305.78"/>
</g>
<!-- node3&#45;&gt;node2 -->
<g id="edge5" class="edge">
<title>node3&#45;&gt;node2</title>
<path fill="none" stroke="blue" d="M720.28,-284.04C811.69,-298.56 972.05,-324.72 1068.04,-340.75"/>
<polygon fill="blue" stroke="blue" points="1067.55,-344.22 1077.99,-342.42 1068.7,-337.32 1067.55,-344.22"/>
</g>
<!-- node4 -->
<g id="node4" class="node">
<title>node4</title>
<path fill="peachpuff" stroke="black" d="M350.5,-166.5C350.5,-166.5 455.5,-166.5 455.5,-166.5 461.5,-166.5 467.5,-172.5 467.5,-178.5 467.5,-178.5 467.5,-200.5 467.5,-200.5 467.5,-206.5 461.5,-212.5 455.5,-212.5 455.5,-212.5 350.5,-212.5 350.5,-212.5 344.5,-212.5 338.5,-206.5 338.5,-200.5 338.5,-200.5 338.5,-178.5 338.5,-178.5 338.5,-172.5 344.5,-166.5 350.5,-166.5"/>
<text text-anchor="middle" x="351.5" y="-197.3" font-family="Times,serif" font-size="14.00">4</text>
<polyline fill="none" stroke="black" points="364.5,-189.5 364.5,-212.5 "/>
<text text-anchor="middle" x="383.5" y="-197.3" font-family="Times,serif" font-size="14.00">OP</text>
<polyline fill="none" stroke="black" points="402.5,-189.5 402.5,-212.5 "/>
<text text-anchor="middle" x="435" y="-197.3" font-family="Times,serif" font-size="14.00">size=7</text>
<polyline fill="none" stroke="black" points="338.5,-189.5 467.5,-189.5 "/>
<text text-anchor="middle" x="403" y="-174.3" font-family="Times,serif" font-size="14.00">+</text>
</g>
<!-- node3&#45;&gt;node4 -->
<g id="edge6" class="edge">
<title>node3&#45;&gt;node4</title>
<path fill="none" stroke="red" d="M581.81,-250.85C548.24,-240.19 508.01,-227.08 474.18,-215.81"/>
<polygon fill="red" stroke="red" points="474.96,-212.38 464.37,-212.53 472.74,-219.02 474.96,-212.38"/>
</g>
<!-- node11 -->
<g id="node11" class="node">
<title>node11</title>
<path fill="peachpuff" stroke="black" d="M594,-166.5C594,-166.5 708,-166.5 708,-166.5 714,-166.5 720,-172.5 720,-178.5 720,-178.5 720,-200.5 720,-200.5 720,-206.5 714,-212.5 708,-212.5 708,-212.5 594,-212.5 594,-212.5 588,-212.5 582,-206.5 582,-200.5 582,-200.5 582,-178.5 582,-178.5 582,-172.5 588,-166.5 594,-166.5"/>
<text text-anchor="middle" x="599.5" y="-197.3" font-family="Times,serif" font-size="14.00">11</text>
<polyline fill="none" stroke="black" points="617,-189.5 617,-212.5 "/>
<text text-anchor="middle" x="636" y="-197.3" font-family="Times,serif" font-size="14.00">OP</text>
<polyline fill="none" stroke="black" points="655,-189.5 655,-212.5 "/>
<text text-anchor="middle" x="687.5" y="-197.3" font-family="Times,serif" font-size="14.00">size=5</text>
<polyline fill="none" stroke="black" points="582,-189.5 720,-189.5 "/>
<text text-anchor="middle" x="651" y="-174.3" font-family="Times,serif" font-size="14.00">&#45;</text>
</g>
<!-- node3&#45;&gt;node11 -->
<g id="edge20" class="edge">
<title>node3&#45;&gt;node11</title>
<path fill="none" stroke="green" d="M644.91,-249.37C644.28,-241.15 644.1,-231.66 644.38,-222.73"/>
<polygon fill="green" stroke="green" points="647.88,-222.78 644.91,-212.61 640.89,-222.41 647.88,-222.78"/>
</g>
<!-- node4&#45;&gt;node3 -->
<g id="edge7" class="edge">
<title>node4&#45;&gt;node3</title>
<path fill="none" stroke="blue" d="M467.83,-209.76C502.25,-220.67 544.57,-234.44 579.88,-246.21"/>
<polygon fill="blue" stroke="blue" points="579.05,-249.62 589.64,-249.47 581.27,-242.98 579.05,-249.62"/>
</g>
<!-- node5 -->
<g id="node5" class="node">
<title>node5</title>
<path fill="peachpuff" stroke="black" d="M184.5,-83.5C184.5,-83.5 289.5,-83.5 289.5,-83.5 295.5,-83.5 301.5,-89.5 301.5,-95.5 301.5,-95.5 301.5,-117.5 301.5,-117.5 301.5,-123.5 295.5,-129.5 289.5,-129.5 289.5,-129.5 184.5,-129.5 184.5,-129.5 178.5,-129.5 172.5,-123.5 172.5,-117.5 172.5,-117.5 172.5,-95.5 172.5,-95.5 172.5,-89.5 178.5,-83.5 184.5,-83.5"/>
<text text-anchor="middle" x="185.5" y="-114.3" font-family="Times,serif" font-size="14.00">5</text>
<polyline fill="none" stroke="black" points="198.5,-106.5 198.5,-129.5 "/>
<text text-anchor="middle" x="217.5" y="-114.3" font-family="Times,serif" font-size="14.00">OP</text>
<polyline fill="none" stroke="black" points="236.5,-106.5 236.5,-129.5 "/>
<text text-anchor="middle" x="269" y="-114.3" font-family="Times,serif" font-size="14.00">size=3</text>
<polyline fill="none" stroke="black" points="172.5,-106.5 301.5,-106.5 "/>
<text text-anchor="middle" x="237" y="-91.3" font-family="Times,serif" font-size="14.00">*</text>
</g>
<!-- node4&#45;&gt;node5 -->
<g id="edge8" class="edge">
<title>node4&#45;&gt;node5</title>
<path fill="none" stroke="red" d="M351.55,-166.37C330.38,-156.41 306.03,-144.58 285.21,-134.14"/>
<polygon fill="red" stroke="red" points="286.72,-130.98 276.22,-129.61 283.57,-137.23 286.72,-130.98"/>
</g>
<!-- node8 -->
<g id="node8" class="node">
<title>node8</title>
<path fill="peachpuff" stroke="black" d="M350.5,-83.5C350.5,-83.5 455.5,-83.5 455.5,-83.5 461.5,-83.5 467.5,-89.5 467.5,-95.5 467.5,-95.5 467.5,-117.5 467.5,-117.5 467.5,-123.5 461.5,-129.5 455.5,-129.5 455.5,-129.5 350.5,-129.5 350.5,-129.5 344.5,-129.5 338.5,-123.5 338.5,-117.5 338.5,-117.5 338.5,-95.5 338.5,-95.5 338.5,-89.5 344.5,-83.5 350.5,-83.5"/>
<text text-anchor="middle" x="351.5" y="-114.3" font-family="Times,serif" font-size="14.00">8</text>
<polyline fill="none" stroke="black" points="364.5,-106.5 364.5,-129.5 "/>
<text text-anchor="middle" x="383.5" y="-114.3" font-family="Times,serif" font-size="14.00">OP</text>
<polyline fill="none" stroke="black" points="402.5,-106.5 402.5,-129.5 "/>
<text text-anchor="middle" x="435" y="-114.3" font-family="Times,serif" font-size="14.00">size=3</text>
<polyline fill="none" stroke="black" points="338.5,-106.5 467.5,-106.5 "/>
<text text-anchor="middle" x="403" y="-91.3" font-family="Times,serif" font-size="14.00">*</text>
</g>
<!-- node4&#45;&gt;node8 -->
<g id="edge14" class="edge">
<title>node4&#45;&gt;node8</title>
<path fill="none" stroke="green" d="M396.91,-166.37C396.28,-158.15 396.1,-148.66 396.38,-139.73"/>
<polygon fill="green" stroke="green" points="399.88,-139.78 396.91,-129.61 392.89,-139.41 399.88,-139.78"/>
</g>
<!-- node5&#45;&gt;node4 -->
<g id="edge9" class="edge">
<title>node5&#45;&gt;node4</title>
<path fill="none" stroke="blue" d="M288.39,-129.61C309.56,-139.56 333.91,-151.39 354.74,-161.83"/>
<polygon fill="blue" stroke="blue" points="353.23,-164.99 363.73,-166.37 356.38,-158.74 353.23,-164.99"/>
</g>
<!-- node6 -->
<g id="node6" class="node">
<title>node6</title>
<path fill="pink" stroke="black" d="M12,-0.5C12,-0.5 134,-0.5 134,-0.5 140,-0.5 146,-6.5 146,-12.5 146,-12.5 146,-34.5 146,-34.5 146,-40.5 140,-46.5 134,-46.5 134,-46.5 12,-46.5 12,-46.5 6,-46.5 0,-40.5 0,-34.5 0,-34.5 0,-12.5 0,-12.5 0,-6.5 6,-0.5 12,-0.5"/>
<text text-anchor="middle" x="13" y="-31.3" font-family="Times,serif" font-size="14.00">6</text>
<polyline fill="none" stroke="black" points="26,-23.5 26,-46.5 "/>
<text text-anchor="middle" x="53.5" y="-31.3" font-family="Times,serif" font-size="14.00">NUM</text>
<polyline fill="none" stroke="black" points="81,-23.5 81,-46.5 "/>
<text text-anchor="middle" x="113.5" y="-31.3" font-family="Times,serif" font-size="14.00">size=1</text>
<polyline fill="none" stroke="black" points="0,-23.5 146,-23.5 "/>
<text text-anchor="middle" x="73" y="-8.3" font-family="Times,serif" font-size="14.00">1</text>
</g>
<!-- node5&#45;&gt;node6 -->
<g id="edge10" class="edge">
<title>node5&#45;&gt;node6</title>
<path fill="none" stroke="red" d="M186.1,-83.37C165.27,-73.46 141.33,-61.68 120.83,-51.28"/>
<polygon fill="red" stroke="red" points="122.17,-48.03 111.67,-46.61 118.99,-54.27 122.17,-48.03"/>
</g>
<!-- node7 -->
<g id="node7" class="node">
<title>node7</title>
<path fill="pink" stroke="black" d="M176,-0.5C176,-0.5 298,-0.5 298,-0.5 304,-0.5 310,-6.5 310,-12.5 310,-12.5 310,-34.5 310,-34.5 310,-40.5 304,-46.5 298,-46.5 298,-46.5 176,-46.5 176,-46.5 170,-46.5 164,-40.5 164,-34.5 164,-34.5 164,-12.5 164,-12.5 164,-6.5 170,-0.5 176,-0.5"/>
<text text-anchor="middle" x="177" y="-31.3" font-family="Times,serif" font-size="14.00">7</text>
<polyline fill="none" stroke="black" points="190,-23.5 190,-46.5 "/>
<text text-anchor="middle" x="217.5" y="-31.3" font-family="Times,serif" font-size="14.00">NUM</text>
<polyline fill="none" stroke="black" points="245,-23.5 245,-46.5 "/>
<text text-anchor="middle" x="277.5" y="-31.3" font-family="Times,serif" font-size="14.00">size=1</text>
<polyline fill="none" stroke="black" points="164,-23.5 310,-23.5 "/>
<text text-anchor="middle" x="237" y="-8.3" font-family="Times,serif" font-size="14.00">3</text>
</g>
<!-- node5&#45;&gt;node7 -->
<g id="edge12" class="edge">
<title>node5&#45;&gt;node7</title>
<path fill="none" stroke="green" d="M230.91,-83.37C230.28,-75.15 230.1,-65.66 230.38,-56.73"/>
<polygon fill="green" stroke="green" points="233.88,-56.78 230.91,-46.61 226.89,-56.41 233.88,-56.78"/>
</g>
<!-- node6&#45;&gt;node5 -->
<g id="edge11" class="edge">
<title>node6&#45;&gt;node5</title>
<path fill="none" stroke="blue" d="M123.85,-46.61C144.67,-56.51 168.61,-68.29 189.12,-78.69"/>
<polygon fill="blue" stroke="blue" points="187.78,-81.94 198.28,-83.37 190.96,-75.7 187.78,-81.94"/>
</g>
<!-- node7&#45;&gt;node5 -->
<g id="edge13" class="edge">
<title>node7&#45;&gt;node5</title>
<path fill="none" stroke="blue" d="M243.09,-46.61C243.72,-54.82 243.9,-64.31 243.62,-73.25"/>
<polygon fill="blue" stroke="blue" points="240.12,-73.2 243.09,-83.37 247.11,-73.56 240.12,-73.2"/>
</g>
<!-- node8&#45;&gt;node4 -->
<g id="edge15" class="edge">
<title>node8&#45;&gt;node4</title>
<path fill="none" stroke="blue" d="M409.09,-129.61C409.72,-137.82 409.9,-147.31 409.62,-156.25"/>
<polygon fill="blue" stroke="blue" points="406.12,-156.2 409.09,-166.37 413.11,-156.56 406.12,-156.2"/>
</g>
<!-- node9 -->
<g id="node9" class="node">
<title>node9</title>
<path fill="lightyellow" stroke="black" d="M340.5,-0.5C340.5,-0.5 453.5,-0.5 453.5,-0.5 459.5,-0.5 465.5,-6.5 465.5,-12.5 465.5,-12.5 465.5,-34.5 465.5,-34.5 465.5,-40.5 459.5,-46.5 453.5,-46.5 453.5,-46.5 340.5,-46.5 340.5,-46.5 334.5,-46.5 328.5,-40.5 328.5,-34.5 328.5,-34.5 328.5,-12.5 328.5,-12.5 328.5,-6.5 334.5,-0.5 340.5,-0.5"/>
<text text-anchor="middle" x="341.5" y="-31.3" font-family="Times,serif" font-size="14.00">9</text>
<polyline fill="none" stroke="black" points="354.5,-23.5 354.5,-46.5 "/>
<text text-anchor="middle" x="377.5" y="-31.3" font-family="Times,serif" font-size="14.00">VAR</text>
<polyline fill="none" stroke="black" points="400.5,-23.5 400.5,-46.5 "/>
<text text-anchor="middle" x="433" y="-31.3" font-family="Times,serif" font-size="14.00">size=1</text>
<polyline fill="none" stroke="black" points="328.5,-23.5 465.5,-23.5 "/>
<text text-anchor="middle" x="397" y="-8.3" font-family="Times,serif" font-size="14.00">x</text>
</g>
<!-- node8&#45;&gt;node9 -->
<g id="edge16" class="edge">
<title>node8&#45;&gt;node9</title>
<path fill="none" stroke="red" d="M395.27,-83.37C394.03,-75.15 393.15,-65.66 392.76,-56.73"/>
<polygon fill="red" stroke="red" points="396.26,-56.53 392.55,-46.61 389.26,-56.68 396.26,-56.53"/>
</g>
<!-- node10 -->
<g id="node10" class="node">
<title>node10</title>
<path fill="pink" stroke="black" d="M495.5,-0.5C495.5,-0.5 626.5,-0.5 626.5,-0.5 632.5,-0.5 638.5,-6.5 638.5,-12.5 638.5,-12.5 638.5,-34.5 638.5,-34.5 638.5,-40.5 632.5,-46.5 626.5,-46.5 626.5,-46.5 495.5,-46.5 495.5,-46.5 489.5,-46.5 483.5,-40.5 483.5,-34.5 483.5,-34.5 483.5,-12.5 483.5,-12.5 483.5,-6.5 489.5,-0.5 495.5,-0.5"/>
<text text-anchor="middle" x="501" y="-31.3" font-family="Times,serif" font-size="14.00">10</text>
<polyline fill="none" stroke="black" points="518.5,-23.5 518.5,-46.5 "/>
<text text-anchor="middle" x="546" y="-31.3" font-family="Times,serif" font-size="14.00">NUM</text>
<polyline fill="none" stroke="black" points="573.5,-23.5 573.5,-46.5 "/>
<text text-anchor="middle" x="606" y="-31.3" font-family="Times,serif" font-size="14.00">size=1</text>
<polyline fill="none" stroke="black" points="483.5,-23.5 638.5,-23.5 "/>
<text text-anchor="middle" x="561" y="-8.3" font-family="Times,serif" font-size="14.00">0</text>
</g>
<!-- node8&#45;&gt;node10 -->
<g id="edge18" class="edge">
<title>node8&#45;&gt;node10</title>
<path fill="none" stroke="green" d="M440.08,-83.37C458.74,-73.41 481.72,-61.58 502.65,-51.14"/>
<polygon fill="green" stroke="green" points="504.39,-54.19 511.79,-46.61 501.28,-47.91 504.39,-54.19"/>
</g>
<!-- node9&#45;&gt;node8 -->
<g id="edge17" class="edge">
<title>node9&#45;&gt;node8</title>
<path fill="none" stroke="blue" d="M404.73,-46.61C405.97,-54.82 406.85,-64.31 407.23,-73.25"/>
<polygon fill="blue" stroke="blue" points="403.74,-73.44 407.45,-83.37 410.74,-73.29 403.74,-73.44"/>
</g>
<!-- node10&#45;&gt;node8 -->
<g id="edge19" class="edge">
<title>node10&#45;&gt;node8</title>
<path fill="none" stroke="blue" d="M523.97,-46.61C505.32,-56.56 482.34,-68.39 461.4,-78.83"/>
<polygon fill="blue" stroke="blue" points="459.67,-75.79 452.27,-83.37 462.78,-82.06 459.67,-75.79"/>
</g>
<!-- node11&#45;&gt;node3 -->
<g id="edge21" class="edge">
<title>node11&#45;&gt;node3</title>
<path fill="none" stroke="blue" d="M657.09,-212.61C657.72,-220.82 657.9,-230.31 657.62,-239.25"/>
<polygon fill="blue" stroke="blue" points="654.12,-239.2 657.09,-249.37 661.11,-239.56 654.12,-239.2"/>
</g>
<!-- node12 -->
<g id="node12" class="node">
<title>node12</title>
<path fill="pink" stroke="black" d="M503.5,-83.5C503.5,-83.5 634.5,-83.5 634.5,-83.5 640.5,-83.5 646.5,-89.5 646.5,-95.5 646.5,-95.5 646.5,-117.5 646.5,-117.5 646.5,-123.5 640.5,-129.5 634.5,-129.5 634.5,-129.5 503.5,-129.5 503.5,-129.5 497.5,-129.5 491.5,-123.5 491.5,-117.5 491.5,-117.5 491.5,-95.5 491.5,-95.5 491.5,-89.5 497.5,-83.5 503.5,-83.5"/>
<text text-anchor="middle" x="509" y="-114.3" font-family="Times,serif" font-size="14.00">12</text>
<polyline fill="none" stroke="black" points="526.5,-106.5 526.5,-129.5 "/>
<text text-anchor="middle" x="554" y="-114.3" font-family="Times,serif" font-size="14.00">NUM</text>
<polyline fill="none" stroke="black" points="581.5,-106.5 581.5,-129.5 "/>
<text text-anchor="middle" x="614" y="-114.3" font-family="Times,serif" font-size="14.00">size=1</text>
<polyline fill="none" stroke="black" points="491.5,-106.5 646.5,-106.5 "/>
<text text-anchor="middle" x="569" y="-91.3" font-family="Times,serif" font-size="14.00">1000</text>
</g>
<!-- node11&#45;&gt;node12 -->
<g id="edge22" class="edge">
<title>node11&#45;&gt;node12</title>
<path fill="none" stroke="red" d="M622.5,-166.37C612.68,-157.35 601.84,-146.79 592.46,-137.12"/>
<polygon fill="red" stroke="red" points="594.73,-134.43 585.29,-129.61 589.66,-139.26 594.73,-134.43"/>
</g>
<!-- node13 -->
<g id="node13" class="node">
<title>node13</title>
<path fill="peachpuff" stroke="black" d="M677,-83.5C677,-83.5 791,-83.5 791,-83.5 797,-83.5 803,-89.5 803,-95.5 803,-95.5 803,-117.5 803,-117.5 803,-123.5 797,-129.5 791,-129.5 791,-129.5 677,-129.5 677,-129.5 671,-129.5 665,-123.5 665,-117.5 665,-117.5 665,-95.5 665,-95.5 665,-89.5 671,-83.5 677,-83.5"/>
<text text-anchor="middle" x="682.5" y="-114.3" font-family="Times,serif" font-size="14.00">13</text>
<polyline fill="none" stroke="black" points="700,-106.5 700,-129.5 "/>
<text text-anchor="middle" x="719" y="-114.3" font-family="Times,serif" font-size="14.00">OP</text>
<polyline fill="none" stroke="black" points="738,-106.5 738,-129.5 "/>
<text text-anchor="middle" x="770.5" y="-114.3" font-family="Times,serif" font-size="14.00">size=3</text>
<polyline fill="none" stroke="black" points="665,-106.5 803,-106.5 "/>
<text text-anchor="middle" x="734" y="-91.3" font-family="Times,serif" font-size="14.00">+</text>
</g>
<!-- node11&#45;&gt;node13 -->
<g id="edge24" class="edge">
<title>node11&#45;&gt;node13</title>
<path fill="none" stroke="green" d="M667.59,-166.37C676.31,-157.17 687.23,-146.37 697.73,-136.55"/>
<polygon fill="green" stroke="green" points="700.28,-138.96 705.26,-129.61 695.53,-133.81 700.28,-138.96"/>
</g>
<!-- node12&#45;&gt;node11 -->
<g id="edge23" class="edge">
<title>node12&#45;&gt;node11</title>
<path fill="none" stroke="blue" d="M597.47,-129.61C607.29,-138.62 618.13,-149.18 627.51,-158.85"/>
<polygon fill="blue" stroke="blue" points="625.25,-161.55 634.68,-166.37 630.31,-156.71 625.25,-161.55"/>
</g>
<!-- node13&#45;&gt;node11 -->
<g id="edge25" class="edge">
<title>node13&#45;&gt;node11</title>
<path fill="none" stroke="blue" d="M717.44,-129.61C708.72,-138.8 697.8,-149.6 687.3,-159.42"/>
<polygon fill="blue" stroke="blue" points="684.75,-157.01 679.77,-166.37 689.5,-162.16 684.75,-157.01"/>
</g>
<!-- node14 -->
<g id="node14" class="node">
<title>node14</title>
<path fill="pink" stroke="black" d="M668.5,-0.5C668.5,-0.5 799.5,-0.5 799.5,-0.5 805.5,-0.5 811.5,-6.5 811.5,-12.5 811.5,-12.5 811.5,-34.5 811.5,-34.5 811.5,-40.5 805.5,-46.5 799.5,-46.5 799.5,-46.5 668.5,-46.5 668.5,-46.5 662.5,-46.5 656.5,-40.5 656.5,-34.5 656.5,-34.5 656.5,-12.5 656.5,-12.5 656.5,-6.5 662.5,-0.5 668.5,-0.5"/>
<text text-anchor="middle" x="674" y="-31.3" font-family="Times,serif" font-size="14.00">14</text>
<polyline fill="none" stroke="black" points="691.5,-23.5 691.5,-46.5 "/>
<text text-anchor="middle" x="719" y="-31.3" font-family="Times,serif" font-size="14.00">NUM</text>
<polyline fill="none" stroke="black" points="746.5,-23.5 746.5,-46.5 "/>
<text text-anchor="middle" x="779" y="-31.3" font-family="Times,serif" font-size="14.00">size=1</text>
<polyline fill="none" stroke="black" points="656.5,-23.5 811.5,-23.5 "/>
<text text-anchor="middle" x="734" y="-8.3" font-family="Times,serif" font-size="14.00">7</text>
</g>
<!-- node13&#45;&gt;node14 -->
<g id="edge26" class="edge">
<title>node13&#45;&gt;node14</title>
<path fill="none" stroke="red" d="M727.91,-83.37C727.28,-75.15 727.1,-65.66 727.38,-56.73"/>
<polygon fill="red" stroke="red" points="730.88,-56.78 727.91,-46.61 723.89,-56.41 730.88,-56.78"/>
</g>
<!-- node15 -->
<g id="node15" class="node">
<title>node15</title>
<path fill="pink" stroke="black" d="M841.5,-0.5C841.5,-0.5 972.5,-0.5 972.5,-0.5 978.5,-0.5 984.5,-6.5 984.5,-12.5 984.5,-12.5 984.5,-34.5 984.5,-34.5 984.5,-40.5 978.5,-46.5 972.5,-46.5 972.5,-46.5 841.5,-46.5 841.5,-46.5 835.5,-46.5 829.5,-40.5 829.5,-34.5 829.5,-34.5 829.5,-12.5 829.5,-12.5 829.5,-6.5 835.5,-0.5 841.5,-0.5"/>
<text text-anchor="middle" x="847" y="-31.3" font-family="Times,serif" font-size="14.00">15</text>
<polyline fill="none" stroke="black" points="864.5,-23.5 864.5,-46.5 "/>
<text text-anchor="middle" x="892" y="-31.3" font-family="Times,serif" font-size="14.00">NUM</text>
<polyline fill="none" stroke="black" points="919.5,-23.5 919.5,-46.5 "/>
<text text-anchor="middle" x="952" y="-31.3" font-family="Times,serif" font-size="14.00">size=1</text>
<polyline fill="none" stroke="black" points="829.5,-23.5 984.5,-23.5 "/>
<text text-anchor="middle" x="907" y="-8.3" font-family="Times,serif" font-size="14.00">1</text>
</g>
<!-- node13&#45;&gt;node15 -->
<g id="edge28" class="edge">
<title>node13&#45;&gt;node15</title>
<path fill="none" stroke="green" d="M775.18,-83.37C795.86,-73.32 821.31,-61.36 844.34,-50.86"/>
<polygon fill="green" stroke="green" points="846.04,-53.93 853.7,-46.61 843.14,-47.56 846.04,-53.93"/>
</g>
<!-- node14&#45;&gt;node13 -->
<g id="edge27" class="edge">
<title>node14&#45;&gt;node13</title>
<path fill="none" stroke="blue" d="M740.09,-46.61C740.72,-54.82 740.9,-64.31 740.62,-73.25"/>
<polygon fill="blue" stroke="blue" points="737.12,-73.2 740.09,-83.37 744.11,-73.56 737.12,-73.2"/>
</g>
<!-- node15&#45;&gt;node13 -->
<g id="edge29" class="edge">
<title>node15&#45;&gt;node13</title>
<path fill="none" stroke="blue" d="M865.87,-46.61C845.2,-56.65 819.76,-68.61 796.73,-79.11"/>
<polygon fill="blue" stroke="blue" points="795.02,-76.04 787.36,-83.37 797.92,-82.42 795.02,-76.04"/>
</g>
<!-- node16&#45;&gt;node2 -->
<g id="edge31" class="edge">
<title>node16&#45;&gt;node2</title>
<path fill="none" stroke="blue" d="M1153.09,-295.61C1153.72,-303.82 1153.9,-313.31 1153.62,-322.25"/>
<polygon fill="blue" stroke="blue" points="1150.12,-322.2 1153.09,-332.37 1157.11,-322.56 1150.12,-322.2"/>
</g>
<!-- node17 -->
<g id="node17" class="node">
<title>node17</title>
<path fill="peachpuff" stroke="black" d="M1006,-166.5C1006,-166.5 1120,-166.5 1120,-166.5 1126,-166.5 1132,-172.5 1132,-178.5 1132,-178.5 1132,-200.5 1132,-200.5 1132,-206.5 1126,-212.5 1120,-212.5 1120,-212.5 1006,-212.5 1006,-212.5 1000,-212.5 994,-206.5 994,-200.5 994,-200.5 994,-178.5 994,-178.5 994,-172.5 1000,-166.5 1006,-166.5"/>
<text text-anchor="middle" x="1011.5" y="-197.3" font-family="Times,serif" font-size="14.00">17</text>
<polyline fill="none" stroke="black" points="1029,-189.5 1029,-212.5 "/>
<text text-anchor="middle" x="1048" y="-197.3" font-family="Times,serif" font-size="14.00">OP</text>
<polyline fill="none" stroke="black" points="1067,-189.5 1067,-212.5 "/>
<text text-anchor="middle" x="1099.5" y="-197.3" font-family="Times,serif" font-size="14.00">size=3</text>
<polyline fill="none" stroke="black" points="994,-189.5 1132,-189.5 "/>
<text text-anchor="middle" x="1063" y="-174.3" font-family="Times,serif" font-size="14.00">*</text>
</g>
<!-- node16&#45;&gt;node17 -->
<g id="edge32" class="edge">
<title>node16&#45;&gt;node17</title>
<path fill="none" stroke="red" d="M1117.96,-249.37C1107.81,-240.26 1096.59,-229.58 1086.9,-219.83"/>
<polygon fill="red" stroke="red" points="1089.33,-217.31 1079.84,-212.61 1084.33,-222.2 1089.33,-217.31"/>
</g>
<!-- node20 -->
<g id="node20" class="node">
<title>node20</title>
<path fill="peachpuff" stroke="black" d="M1179,-166.5C1179,-166.5 1293,-166.5 1293,-166.5 1299,-166.5 1305,-172.5 1305,-178.5 1305,-178.5 1305,-200.5 1305,-200.5 1305,-206.5 1299,-212.5 1293,-212.5 1293,-212.5 1179,-212.5 1179,-212.5 1173,-212.5 1167,-206.5 1167,-200.5 1167,-200.5 1167,-178.5 1167,-178.5 1167,-172.5 1173,-166.5 1179,-166.5"/>
<text text-anchor="middle" x="1184.5" y="-197.3" font-family="Times,serif" font-size="14.00">20</text>
<polyline fill="none" stroke="black" points="1202,-189.5 1202,-212.5 "/>
<text text-anchor="middle" x="1221" y="-197.3" font-family="Times,serif" font-size="14.00">OP</text>
<polyline fill="none" stroke="black" points="1240,-189.5 1240,-212.5 "/>
<text text-anchor="middle" x="1272.5" y="-197.3" font-family="Times,serif" font-size="14.00">size=5</text>
<polyline fill="none" stroke="black" points="1167,-189.5 1305,-189.5 "/>
<text text-anchor="middle" x="1236" y="-174.3" font-family="Times,serif" font-size="14.00">&#45;</text>
</g>
<!-- node16&#45;&gt;node20 -->
<g id="edge38" class="edge">
<title>node16&#45;&gt;node20</title>
<path fill="none" stroke="green" d="M1165.23,-249.37C1174.72,-240.08 1186.58,-229.16 1197.91,-219.26"/>
<polygon fill="green" stroke="green" points="1200.34,-221.79 1205.62,-212.61 1195.76,-216.49 1200.34,-221.79"/>
</g>
<!-- node17&#45;&gt;node16 -->
<g id="edge33" class="edge">
<title>node17&#45;&gt;node16</title>
<path fill="none" stroke="blue" d="M1092.01,-212.61C1102.16,-221.71 1113.38,-232.39 1123.07,-242.14"/>
<polygon fill="blue" stroke="blue" points="1120.64,-244.66 1130.14,-249.37 1125.65,-239.77 1120.64,-244.66"/>
</g>
<!-- node18 -->
<g id="node18" class="node">
<title>node18</title>
<path fill="lightyellow" stroke="black" d="M833,-83.5C833,-83.5 955,-83.5 955,-83.5 961,-83.5 967,-89.5 967,-95.5 967,-95.5 967,-117.5 967,-117.5 967,-123.5 961,-129.5 955,-129.5 955,-129.5 833,-129.5 833,-129.5 827,-129.5 821,-123.5 821,-117.5 821,-117.5 821,-95.5 821,-95.5 821,-89.5 827,-83.5 833,-83.5"/>
<text text-anchor="middle" x="838.5" y="-114.3" font-family="Times,serif" font-size="14.00">18</text>
<polyline fill="none" stroke="black" points="856,-106.5 856,-129.5 "/>
<text text-anchor="middle" x="879" y="-114.3" font-family="Times,serif" font-size="14.00">VAR</text>
<polyline fill="none" stroke="black" points="902,-106.5 902,-129.5 "/>
<text text-anchor="middle" x="934.5" y="-114.3" font-family="Times,serif" font-size="14.00">size=1</text>
<polyline fill="none" stroke="black" points="821,-106.5 967,-106.5 "/>
<text text-anchor="middle" x="894" y="-91.3" font-family="Times,serif" font-size="14.00">x</text>
</g>
<!-- node17&#45;&gt;node18 -->
<g id="edge34" class="edge">
<title>node17&#45;&gt;node18</title>
<path fill="none" stroke="red" d="M1010.73,-166.37C989.19,-156.41 964.4,-144.58 943.19,-134.14"/>
<polygon fill="red" stroke="red" points="944.55,-130.9 934.04,-129.61 941.45,-137.18 944.55,-130.9"/>
</g>
<!-- node19 -->
<g id="node19" class="node">
<title>node19</title>
<path fill="pink" stroke="black" d="M997.5,-83.5C997.5,-83.5 1128.5,-83.5 1128.5,-83.5 1134.5,-83.5 1140.5,-89.5 1140.5,-95.5 1140.5,-95.5 1140.5,-117.5 1140.5,-117.5 1140.5,-123.5 1134.5,-129.5 1128.5,-129.5 1128.5,-129.5 997.5,-129.5 997.5,-129.5 991.5,-129.5 985.5,-123.5 985.5,-117.5 985.5,-117.5 985.5,-95.5 985.5,-95.5 985.5,-89.5 991.5,-83.5 997.5,-83.5"/>
<text text-anchor="middle" x="1003" y="-114.3" font-family="Times,serif" font-size="14.00">19</text>
<polyline fill="none" stroke="black" points="1020.5,-106.5 1020.5,-129.5 "/>
<text text-anchor="middle" x="1048" y="-114.3" font-family="Times,serif" font-size="14.00">NUM</text>
<polyline fill="none" stroke="black" points="1075.5,-106.5 1075.5,-129.5 "/>
<text text-anchor="middle" x="1108" y="-114.3" font-family="Times,serif" font-size="14.00">size=1</text>
<polyline fill="none" stroke="black" points="985.5,-106.5 1140.5,-106.5 "/>
<text text-anchor="middle" x="1063" y="-91.3" font-family="Times,serif" font-size="14.00">3</text>
</g>
<!-- node17&#45;&gt;node19 -->
<g id="edge36" class="edge">
<title>node17&#45;&gt;node19</title>
<path fill="none" stroke="green" d="M1056.91,-166.37C1056.28,-158.15 1056.1,-148.66 1056.38,-139.73"/>
<polygon fill="green" stroke="green" points="1059.88,-139.78 1056.91,-129.61 1052.89,-139.41 1059.88,-139.78"/>
</g>
<!-- node18&#45;&gt;node17 -->
<g id="edge35" class="edge">
<title>node18&#45;&gt;node17</title>
<path fill="none" stroke="blue" d="M946.21,-129.61C967.75,-139.56 992.54,-151.39 1013.75,-161.83"/>
<polygon fill="blue" stroke="blue" points="1012.4,-165.07 1022.91,-166.37 1015.5,-158.79 1012.4,-165.07"/>
</g>
<!-- node19&#45;&gt;node17 -->
<g id="edge37" class="edge">
<title>node19&#45;&gt;node17</title>
<path fill="none" stroke="blue" d="M1069.09,-129.61C1069.72,-137.82 1069.9,-147.31 1069.62,-156.25"/>
<polygon fill="blue" stroke="blue" points="1066.12,-156.2 1069.09,-166.37 1073.11,-156.56 1066.12,-156.2"/>
</g>
<!-- node20&#45;&gt;node16 -->
<g id="edge39" class="edge">
<title>node20&#45;&gt;node16</title>
<path fill="none" stroke="blue" d="M1217.8,-212.61C1208.31,-221.89 1196.45,-232.81 1185.13,-242.71"/>
<polygon fill="blue" stroke="blue" points="1182.7,-240.18 1177.41,-249.37 1187.27,-245.48 1182.7,-240.18"/>
</g>
<!-- node21 -->
<g id="node21" class="node">
<title>node21</title>
<path fill="pink" stroke="black" d="M1170.5,-83.5C1170.5,-83.5 1301.5,-83.5 1301.5,-83.5 1307.5,-83.5 1313.5,-89.5 1313.5,-95.5 1313.5,-95.5 1313.5,-117.5 1313.5,-117.5 1313.5,-123.5 1307.5,-129.5 1301.5,-129.5 1301.5,-129.5 1170.5,-129.5 1170.5,-129.5 1164.5,-129.5 1158.5,-123.5 1158.5,-117.5 1158.5,-117.5 1158.5,-95.5 1158.5,-95.5 1158.5,-89.5 1164.5,-83.5 1170.5,-83.5"/>
<text text-anchor="middle" x="1176" y="-114.3" font-family="Times,serif" font-size="14.00">21</text>
<polyline fill="none" stroke="black" points="1193.5,-106.5 1193.5,-129.5 "/>
<text text-anchor="middle" x="1221" y="-114.3" font-family="Times,serif" font-size="14.00">NUM</text>
<polyline fill="none" stroke="black" points="1248.5,-106.5 1248.5,-129.5 "/>
<text text-anchor="middle" x="1281" y="-114.3" font-family="Times,serif" font-size="14.00">size=1</text>
<polyline fill="none" stroke="black" points="1158.5,-106.5 1313.5,-106.5 "/>
<text text-anchor="middle" x="1236" y="-91.3" font-family="Times,serif" font-size="14.00">0</text>
</g>
<!-- node20&#45;&gt;node21 -->
<g id="edge40" class="edge">
<title>node20&#45;&gt;node21</title>
<path fill="none" stroke="red" d="M1229.91,-166.37C1229.28,-158.15 1229.1,-148.66 1229.38,-139.73"/>
<polygon fill="red" stroke="red" points="1232.88,-139.78 1229.91,-129.61 1225.89,-139.41 1232.88,-139.78"/>
</g>
<!-- node22 -->
<g id="node22" class="node">
<title>node22</title>
<path fill="peachpuff" stroke="black" d="M1344,-83.5C1344,-83.5 1458,-83.5 1458,-83.5 1464,-83.5 1470,-89.5 1470,-95.5 1470,-95.5 1470,-117.5 1470,-117.5 1470,-123.5 1464,-129.5 1458,-129.5 1458,-129.5 1344,-129.5 1344,-129.5 1338,-129.5 1332,-123.5 1332,-117.5 1332,-117.5 1332,-95.5 1332,-95.5 1332,-89.5 1338,-83.5 1344,-83.5"/>
<text text-anchor="middle" x="1349.5" y="-114.3" font-family="Times,serif" font-size="14.00">22</text>
<polyline fill="none" stroke="black" points="1367,-106.5 1367,-129.5 "/>
<text text-anchor="middle" x="1386" y="-114.3" font-family="Times,serif" font-size="14.00">OP</text>
<polyline fill="none" stroke="black" points="1405,-106.5 1405,-129.5 "/>
<text text-anchor="middle" x="1437.5" y="-114.3" font-family="Times,serif" font-size="14.00">size=3</text>
<polyline fill="none" stroke="black" points="1332,-106.5 1470,-106.5 "/>
<text text-anchor="middle" x="1401" y="-91.3" font-family="Times,serif" font-size="14.00">+</text>
</g>
<!-- node20&#45;&gt;node22 -->
<g id="edge42" class="edge">
<title>node20&#45;&gt;node22</title>
<path fill="none" stroke="green" d="M1275,-166.37C1294.6,-156.37 1318.74,-144.47 1340.64,-134"/>
<polygon fill="green" stroke="green" points="1342.35,-137.06 1349.88,-129.61 1339.34,-130.74 1342.35,-137.06"/>
</g>
<!-- node21&#45;&gt;node20 -->
<g id="edge41" class="edge">
<title>node21&#45;&gt;node20</title>
<path fill="none" stroke="blue" d="M1242.09,-129.61C1242.72,-137.82 1242.9,-147.31 1242.62,-156.25"/>
<polygon fill="blue" stroke="blue" points="1239.12,-156.2 1242.09,-166.37 1246.11,-156.56 1239.12,-156.2"/>
</g>
<!-- node22&#45;&gt;node20 -->
<g id="edge43" class="edge">
<title>node22&#45;&gt;node20</title>
<path fill="none" stroke="blue" d="M1362.06,-129.61C1342.46,-139.6 1318.33,-151.5 1296.41,-161.97"/>
<polygon fill="blue" stroke="blue" points="1294.71,-158.91 1287.18,-166.37 1297.71,-165.23 1294.71,-158.91"/>
</g>
<!-- node23 -->
<g id="node23" class="node">
<title>node23</title>
<path fill="pink" stroke="black" d="M1248.5,-0.5C1248.5,-0.5 1379.5,-0.5 1379.5,-0.5 1385.5,-0.5 1391.5,-6.5 1391.5,-12.5 1391.5,-12.5 1391.5,-34.5 1391.5,-34.5 1391.5,-40.5 1385.5,-46.5 1379.5,-46.5 1379.5,-46.5 1248.5,-46.5 1248.5,-46.5 1242.5,-46.5 1236.5,-40.5 1236.5,-34.5 1236.5,-34.5 1236.5,-12.5 1236.5,-12.5 1236.5,-6.5 1242.5,-0.5 1248.5,-0.5"/>
<text text-anchor="middle" x="1254" y="-31.3" font-family="Times,serif" font-size="14.00">23</text>
<polyline fill="none" stroke="black" points="1271.5,-23.5 1271.5,-46.5 "/>
<text text-anchor="middle" x="1299" y="-31.3" font-family="Times,serif" font-size="14.00">NUM</text>
<polyline fill="none" stroke="black" points="1326.5,-23.5 1326.5,-46.5 "/>
<text text-anchor="middle" x="1359" y="-31.3" font-family="Times,serif" font-size="14.00">size=1</text>
<polyline fill="none" stroke="black" points="1236.5,-23.5 1391.5,-23.5 "/>
<text text-anchor="middle" x="1314" y="-8.3" font-family="Times,serif" font-size="14.00">0</text>
</g>
<!-- node22&#45;&gt;node23 -->
<g id="edge44" class="edge">
<title>node22&#45;&gt;node23</title>
<path fill="none" stroke="red" d="M1371.14,-83.37C1360.65,-74.26 1349.04,-63.58 1338.99,-53.83"/>
<polygon fill="red" stroke="red" points="1341.24,-51.13 1331.66,-46.61 1336.32,-56.12 1341.24,-51.13"/>
</g>
<!-- node24 -->
<g id="node24" class="node">
<title>node24</title>
<path fill="pink" stroke="black" d="M1421.5,-0.5C1421.5,-0.5 1552.5,-0.5 1552.5,-0.5 1558.5,-0.5 1564.5,-6.5 1564.5,-12.5 1564.5,-12.5 1564.5,-34.5 1564.5,-34.5 1564.5,-40.5 1558.5,-46.5 1552.5,-46.5 1552.5,-46.5 1421.5,-46.5 1421.5,-46.5 1415.5,-46.5 1409.5,-40.5 1409.5,-34.5 1409.5,-34.5 1409.5,-12.5 1409.5,-12.5 1409.5,-6.5 1415.5,-0.5 1421.5,-0.5"/>
<text text-anchor="middle" x="1427" y="-31.3" font-family="Times,serif" font-size="14.00">24</text>
<polyline fill="none" stroke="black" points="1444.5,-23.5 1444.5,-46.5 "/>
<text text-anchor="middle" x="1472" y="-31.3" font-family="Times,serif" font-size="14.00">NUM</text>
<polyline fill="none" stroke="black" points="1499.5,-23.5 1499.5,-46.5 "/>
<text text-anchor="middle" x="1532" y="-31.3" font-family="Times,serif" font-size="14.00">size=1</text>
<polyline fill="none" stroke="black" points="1409.5,-23.5 1564.5,-23.5 "/>
<text text-anchor="middle" x="1487" y="-8.3" font-family="Times,serif" font-size="14.00">0</text>
</g>
<!-- node22&#45;&gt;node24 -->
<g id="edge46" class="edge">
<title>node22&#45;&gt;node24</title>
<path fill="none" stroke="green" d="M1418.41,-83.37C1427.55,-74.08 1439.02,-63.16 1449.97,-53.26"/>
<polygon fill="green" stroke="green" points="1452.3,-55.87 1457.44,-46.61 1447.65,-50.65 1452.3,-55.87"/>
</g>
<!-- node23&#45;&gt;node22 -->
<g id="edge45" class="edge">
<title>node23&#45;&gt;node22</title>
<path fill="none" stroke="blue" d="M1343.83,-46.61C1354.31,-55.71 1365.93,-66.39 1375.98,-76.14"/>
<polygon fill="blue" stroke="blue" points="1373.74,-78.84 1383.32,-83.37 1378.65,-73.85 1373.74,-78.84"/>
</g>
<!-- node24&#45;&gt;node22 -->
<g id="edge47" class="edge">
<title>node24&#45;&gt;node22</title>
<path fill="none" stroke="blue" d="M1469.62,-46.61C1460.48,-55.89 1449.02,-66.81 1438.06,-76.71"/>
<polygon fill="blue" stroke="blue" points="1435.73,-74.1 1430.59,-83.37 1440.38,-79.33 1435.73,-74.1"/>
</g>
<!-- node25&#45;&gt;node1 -->
<g id="edge49" class="edge">
<title>node25&#45;&gt;node1</title>
<path fill="none" stroke="blue" d="M1383.89,-378.61C1374.95,-387.8 1363.76,-398.6 1353.02,-408.42"/>
<polygon fill="blue" stroke="blue" points="1350.4,-406.07 1345.32,-415.37 1355.09,-411.27 1350.4,-406.07"/>
</g>
<!-- node26 -->
<g id="node26" class="node">
<title>node26</title>
<path fill="peachpuff" stroke="black" d="M1344,-249.5C1344,-249.5 1458,-249.5 1458,-249.5 1464,-249.5 1470,-255.5 1470,-261.5 1470,-261.5 1470,-283.5 1470,-283.5 1470,-289.5 1464,-295.5 1458,-295.5 1458,-295.5 1344,-295.5 1344,-295.5 1338,-295.5 1332,-289.5 1332,-283.5 1332,-283.5 1332,-261.5 1332,-261.5 1332,-255.5 1338,-249.5 1344,-249.5"/>
<text text-anchor="middle" x="1349.5" y="-280.3" font-family="Times,serif" font-size="14.00">26</text>
<polyline fill="none" stroke="black" points="1367,-272.5 1367,-295.5 "/>
<text text-anchor="middle" x="1386" y="-280.3" font-family="Times,serif" font-size="14.00">OP</text>
<polyline fill="none" stroke="black" points="1405,-272.5 1405,-295.5 "/>
<text text-anchor="middle" x="1437.5" y="-280.3" font-family="Times,serif" font-size="14.00">size=5</text>
<polyline fill="none" stroke="black" points="1332,-272.5 1470,-272.5 "/>
<text text-anchor="middle" x="1401" y="-257.3" font-family="Times,serif" font-size="14.00">&#45;</text>
</g>
<!-- node25&#45;&gt;node26 -->
<g id="edge50" class="edge">
<title>node25&#45;&gt;node26</title>
<path fill="none" stroke="red" d="M1394.91,-332.37C1394.28,-324.15 1394.1,-314.66 1394.38,-305.73"/>
<polygon fill="red" stroke="red" points="1397.88,-305.78 1394.91,-295.61 1390.89,-305.41 1397.88,-305.78"/>
</g>
<!-- node31 -->
<g id="node31" class="node">
<title>node31</title>
<path fill="pink" stroke="black" d="M1500.5,-249.5C1500.5,-249.5 1631.5,-249.5 1631.5,-249.5 1637.5,-249.5 1643.5,-255.5 1643.5,-261.5 1643.5,-261.5 1643.5,-283.5 1643.5,-283.5 1643.5,-289.5 1637.5,-295.5 1631.5,-295.5 1631.5,-295.5 1500.5,-295.5 1500.5,-295.5 1494.5,-295.5 1488.5,-289.5 1488.5,-283.5 1488.5,-283.5 1488.5,-261.5 1488.5,-261.5 1488.5,-255.5 1494.5,-249.5 1500.5,-249.5"/>
<text text-anchor="middle" x="1506" y="-280.3" font-family="Times,serif" font-size="14.00">31</text>
<polyline fill="none" stroke="black" points="1523.5,-272.5 1523.5,-295.5 "/>
<text text-anchor="middle" x="1551" y="-280.3" font-family="Times,serif" font-size="14.00">NUM</text>
<polyline fill="none" stroke="black" points="1578.5,-272.5 1578.5,-295.5 "/>
<text text-anchor="middle" x="1611" y="-280.3" font-family="Times,serif" font-size="14.00">size=1</text>
<polyline fill="none" stroke="black" points="1488.5,-272.5 1643.5,-272.5 "/>
<text text-anchor="middle" x="1566" y="-257.3" font-family="Times,serif" font-size="14.00">2</text>
</g>
<!-- node25&#45;&gt;node31 -->
<g id="edge60" class="edge">
<title>node25&#45;&gt;node31</title>
<path fill="none" stroke="green" d="M1440,-332.37C1459.6,-322.37 1483.74,-310.47 1505.64,-300"/>
<polygon fill="green" stroke="green" points="1507.35,-303.06 1514.88,-295.61 1504.34,-296.74 1507.35,-303.06"/>
</g>
<!-- node26&#45;&gt;node25 -->
<g id="edge51" class="edge">
<title>node26&#45;&gt;node25</title>
<path fill="none" stroke="blue" d="M1407.09,-295.61C1407.72,-303.82 1407.9,-313.31 1407.62,-322.25"/>
<polygon fill="blue" stroke="blue" points="1404.12,-322.2 1407.09,-332.37 1411.11,-322.56 1404.12,-322.2"/>
</g>
<!-- node27 -->
<g id="node27" class="node">
<title>node27</title>
<path fill="pink" stroke="black" d="M1335.5,-166.5C1335.5,-166.5 1466.5,-166.5 1466.5,-166.5 1472.5,-166.5 1478.5,-172.5 1478.5,-178.5 1478.5,-178.5 1478.5,-200.5 1478.5,-200.5 1478.5,-206.5 1472.5,-212.5 1466.5,-212.5 1466.5,-212.5 1335.5,-212.5 1335.5,-212.5 1329.5,-212.5 1323.5,-206.5 1323.5,-200.5 1323.5,-200.5 1323.5,-178.5 1323.5,-178.5 1323.5,-172.5 1329.5,-166.5 1335.5,-166.5"/>
<text text-anchor="middle" x="1341" y="-197.3" font-family="Times,serif" font-size="14.00">27</text>
<polyline fill="none" stroke="black" points="1358.5,-189.5 1358.5,-212.5 "/>
<text text-anchor="middle" x="1386" y="-197.3" font-family="Times,serif" font-size="14.00">NUM</text>
<polyline fill="none" stroke="black" points="1413.5,-189.5 1413.5,-212.5 "/>
<text text-anchor="middle" x="1446" y="-197.3" font-family="Times,serif" font-size="14.00">size=1</text>
<polyline fill="none" stroke="black" points="1323.5,-189.5 1478.5,-189.5 "/>
<text text-anchor="middle" x="1401" y="-174.3" font-family="Times,serif" font-size="14.00">1000</text>
</g>
<!-- node26&#45;&gt;node27 -->
<g id="edge52" class="edge">
<title>node26&#45;&gt;node27</title>
<path fill="none" stroke="red" d="M1394.91,-249.37C1394.28,-241.15 1394.1,-231.66 1394.38,-222.73"/>
<polygon fill="red" stroke="red" points="1397.88,-222.78 1394.91,-212.61 1390.89,-222.41 1397.88,-222.78"/>
</g>
<!-- node28 -->
<g id="node28" class="node">
<title>node28</title>
<path fill="peachpuff" stroke="black" d="M1509,-166.5C1509,-166.5 1623,-166.5 1623,-166.5 1629,-166.5 1635,-172.5 1635,-178.5 1635,-178.5 1635,-200.5 1635,-200.5 1635,-206.5 1629,-212.5 1623,-212.5 1623,-212.5 1509,-212.5 1509,-212.5 1503,-212.5 1497,-206.5 1497,-200.5 1497,-200.5 1497,-178.5 1497,-178.5 1497,-172.5 1503,-166.5 1509,-166.5"/>
<text text-anchor="middle" x="1514.5" y="-197.3" font-family="Times,serif" font-size="14.00">28</text>
<polyline fill="none" stroke="black" points="1532,-189.5 1532,-212.5 "/>
<text text-anchor="middle" x="1551" y="-197.3" font-family="Times,serif" font-size="14.00">OP</text>
<polyline fill="none" stroke="black" points="1570,-189.5 1570,-212.5 "/>
<text text-anchor="middle" x="1602.5" y="-197.3" font-family="Times,serif" font-size="14.00">size=3</text>
<polyline fill="none" stroke="black" points="1497,-189.5 1635,-189.5 "/>
<text text-anchor="middle" x="1566" y="-174.3" font-family="Times,serif" font-size="14.00">+</text>
</g>
<!-- node26&#45;&gt;node28 -->
<g id="edge54" class="edge">
<title>node26&#45;&gt;node28</title>
<path fill="none" stroke="green" d="M1440,-249.37C1459.6,-239.37 1483.74,-227.47 1505.64,-217"/>
<polygon fill="green" stroke="green" points="1507.35,-220.06 1514.88,-212.61 1504.34,-213.74 1507.35,-220.06"/>
</g>
<!-- node27&#45;&gt;node26 -->
<g id="edge53" class="edge">
<title>node27&#45;&gt;node26</title>
<path fill="none" stroke="blue" d="M1407.09,-212.61C1407.72,-220.82 1407.9,-230.31 1407.62,-239.25"/>
<polygon fill="blue" stroke="blue" points="1404.12,-239.2 1407.09,-249.37 1411.11,-239.56 1404.12,-239.2"/>
</g>
<!-- node28&#45;&gt;node26 -->
<g id="edge55" class="edge">
<title>node28&#45;&gt;node26</title>
<path fill="none" stroke="blue" d="M1527.06,-212.61C1507.46,-222.6 1483.33,-234.5 1461.41,-244.97"/>
<polygon fill="blue" stroke="blue" points="1459.71,-241.91 1452.18,-249.37 1462.71,-248.23 1459.71,-241.91"/>
</g>
<!-- node29 -->
<g id="node29" class="node">
<title>node29</title>
<path fill="pink" stroke="black" d="M1500.5,-83.5C1500.5,-83.5 1631.5,-83.5 1631.5,-83.5 1637.5,-83.5 1643.5,-89.5 1643.5,-95.5 1643.5,-95.5 1643.5,-117.5 1643.5,-117.5 1643.5,-123.5 1637.5,-129.5 1631.5,-129.5 1631.5,-129.5 1500.5,-129.5 1500.5,-129.5 1494.5,-129.5 1488.5,-123.5 1488.5,-117.5 1488.5,-117.5 1488.5,-95.5 1488.5,-95.5 1488.5,-89.5 1494.5,-83.5 1500.5,-83.5"/>
<text text-anchor="middle" x="1506" y="-114.3" font-family="Times,serif" font-size="14.00">29</text>
<polyline fill="none" stroke="black" points="1523.5,-106.5 1523.5,-129.5 "/>
<text text-anchor="middle" x="1551" y="-114.3" font-family="Times,serif" font-size="14.00">NUM</text>
<polyline fill="none" stroke="black" points="1578.5,-106.5 1578.5,-129.5 "/>
<text text-anchor="middle" x="1611" y="-114.3" font-family="Times,serif" font-size="14.00">size=1</text>
<polyline fill="none" stroke="black" points="1488.5,-106.5 1643.5,-106.5 "/>
<text text-anchor="middle" x="1566" y="-91.3" font-family="Times,serif" font-size="14.00">7</text>
</g>
<!-- node28&#45;&gt;node29 -->
<g id="edge56" class="edge">
<title>node28&#45;&gt;node29</title>
<path fill="none" stroke="red" d="M1559.91,-166.37C1559.28,-158.15 1559.1,-148.66 1559.38,-139.73"/>
<polygon fill="red" stroke="red" points="1562.88,-139.78 1559.91,-129.61 1555.89,-139.41 1562.88,-139.78"/>
</g>
<!-- node30 -->
<g id="node30" class="node">
<title>node30</title>
<path fill="pink" stroke="black" d="M1673.5,-83.5C1673.5,-83.5 1804.5,-83.5 1804.5,-83.5 1810.5,-83.5 1816.5,-89.5 1816.5,-95.5 1816.5,-95.5 1816.5,-117.5 1816.5,-117.5 1816.5,-123.5 1810.5,-129.5 1804.5,-129.5 1804.5,-129.5 1673.5,-129.5 1673.5,-129.5 1667.5,-129.5 1661.5,-123.5 1661.5,-117.5 1661.5,-117.5 1661.5,-95.5 1661.5,-95.5 1661.5,-89.5 1667.5,-83.5 1673.5,-83.5"/>
<text text-anchor="middle" x="1679" y="-114.3" font-family="Times,serif" font-size="14.00">30</text>
<polyline fill="none" stroke="black" points="1696.5,-106.5 1696.5,-129.5 "/>
<text text-anchor="middle" x="1724" y="-114.3" font-family="Times,serif" font-size="14.00">NUM</text>
<polyline fill="none" stroke="black" points="1751.5,-106.5 1751.5,-129.5 "/>
<text text-anchor="middle" x="1784" y="-114.3" font-family="Times,serif" font-size="14.00">size=1</text>
<polyline fill="none" stroke="black" points="1661.5,-106.5 1816.5,-106.5 "/>
<text text-anchor="middle" x="1739" y="-91.3" font-family="Times,serif" font-size="14.00">1</text>
</g>
<!-- node28&#45;&gt;node30 -->
<g id="edge58" class="edge">
<title>node28&#45;&gt;node30</title>
<path fill="none" stroke="green" d="M1607.18,-166.37C1627.86,-156.32 1653.31,-144.36 1676.34,-133.86"/>
<polygon fill="green" stroke="green" points="1678.04,-136.93 1685.7,-129.61 1675.14,-130.56 1678.04,-136.93"/>
</g>
<!-- node29&#45;&gt;node28 -->
<g id="edge57" class="edge">
<title>node29&#45;&gt;node28</title>
<path fill="none" stroke="blue" d="M1572.09,-129.61C1572.72,-137.82 1572.9,-147.31 1572.62,-156.25"/>
<polygon fill="blue" stroke="blue" points="1569.12,-156.2 1572.09,-166.37 1576.11,-156.56 1569.12,-156.2"/>
</g>
<!-- node30&#45;&gt;node28 -->
<g id="edge59" class="edge">
<title>node30&#45;&gt;node28</title>
<path fill="none" stroke="blue" d="M1697.87,-129.61C1677.2,-139.65 1651.76,-151.61 1628.73,-162.11"/>
<polygon fill="blue" stroke="blue" points="1627.02,-159.04 1619.36,-166.37 1629.92,-165.42 1627.02,-159.04"/>
</g>
<!-- node31&#45;&gt;node25 -->
<g id="edge61" class="edge">
<title>node31&#45;&gt;node25</title>
<path fill="none" stroke="blue" d="M1527.06,-295.61C1507.46,-305.6 1483.33,-317.5 1461.41,-327.97"/>
<polygon fill="blue" stroke="blue" points="1459.71,-324.91 1452.18,-332.37 1462.71,-331.23 1459.71,-324.91"/>
</g>
</g>
</svg>
