<?xml version="1.0" encoding="UTF-8" standalone="no"?>
<!DOCTYPE svg PUBLIC "-//W3C//DTD SVG 1.1//EN"
 "http://www.w3.org/Graphics/SVG/1.1/DTD/svg11.dtd">
<!-- Generated by graphviz version 2.43.0 (0)
 -->
<!-- Title: %3 Pages: 1 -->
<svg width="470pt" height="387pt"
 viewBox="0.00 0.00 470.00 387.00" xmlns="http://www.w3.org/2000/svg" xmlns:xlink="http://www.w3.org/1999/xlink">
<g id="graph0" class="graph" transform="scale(1 1) rotate(0) translate(4 383)">
<title>%3</title>
<polygon fill="white" stroke="transparent" points="-4,4 -4,-383 466,-383 466,4 -4,4"/>
<!-- node1 -->
<g id="node1" class="node">
<title>node1</title>
<path fill="peachpuff" stroke="black" d="M176.5,-332.5C176.5,-332.5 281.5,-332.5 281.5,-332.5 287.5,-332.5 293.5,-338.5 293.5,-344.5 293.5,-344.5 293.5,-366.5 293.5,-366.5 293.5,-372.5 287.5,-378.5 281.5,-378.5 281.5,-378.5 176.5,-378.5 176.5,-378.5 170.5,-378.5 164.5,-372.5 164.5,-366.5 164.5,-366.5 164.5,-344.5 164.5,-344.5 164.5,-338.5 170.5,-332.5 176.5,-332.5"/>
<text text-anchor="middle" x="177.5" y="-363.3" font-family="Times,serif" font-size="14.00">1</text>
<polyline fill="none" stroke="black" points="190.5,-355.5 190.5,-378.5 "/>
<text text-anchor="middle" x="209.5" y="-363.3" font-family="Times,serif" font-size="14.00">OP</text>
<polyline fill="none" stroke="black" points="228.5,-355.5 228.5,-378.5 "/>
<text text-anchor="middle" x="261" y="-363.3" font-family="Times,serif" font-size="14.00">size=9</text>
<polyline fill="none" stroke="black" points="164.5,-355.5 293.5,-355.5 "/>
<text text-anchor="middle" x="229" y="-340.3" font-family="Times,serif" font-size="14.00">+</text>
</g>
<!-- node1&#45;&gt;node1 -->
<g id="edge1" class="edge">
<title>node1&#45;&gt;node1</title>
<path fill="none" stroke="blue" d="M293.68,-369.73C304.24,-367.69 311.5,-362.95 311.5,-355.5 311.5,-350.61 308.37,-346.89 303.24,-344.33"/>
<polygon fill="blue" stroke="blue" points="304.27,-340.99 293.68,-341.27 302.14,-347.66 304.27,-340.99"/>
</g>
<!-- node2 -->
<g id="node2" class="node">
<title>node2</title>
<path fill="peachpuff" stroke="black" d="M98.5,-249.5C98.5,-249.5 203.5,-249.5 203.5,-249.5 209.5,-249.5 215.5,-255.5 215.5,-261.5 215.5,-261.5 215.5,-283.5 215.5,-283.5 215.5,-289.5 209.5,-295.5 203.5,-295.5 203.5,-295.5 98.5,-295.5 98.5,-295.5 92.5,-295.5 86.5,-289.5 86.5,-283.5 86.5,-283.5 86.5,-261.5 86.5,-261.5 86.5,-255.5 92.5,-249.5 98.5,-249.5"/>
<text text-anchor="middle" x="99.5" y="-280.3" font-family="Times,serif" font-size="14.00">2</text>
<polyline fill="none" stroke="black" points="112.5,-272.5 112.5,-295.5 "/>
<text text-anchor="middle" x="131.5" y="-280.3" font-family="Times,serif" font-size="14.00">OP</text>
<polyline fill="none" stroke="black" points="150.5,-272.5 150.5,-295.5 "/>
<text text-anchor="middle" x="183" y="-280.3" font-family="Times,serif" font-size="14.00">size=7</text>
<polyline fill="none" stroke="black" points="86.5,-272.5 215.5,-272.5 "/>
<text text-anchor="middle" x="151" y="-257.3" font-family="Times,serif" font-size="14.00">*</text>
</g>
<!-- node1&#45;&gt;node2 -->
<g id="edge2" class="edge">
<title>node1&#45;&gt;node2</title>
<path fill="none" stroke="red" d="M201.6,-332.37C192.22,-323.35 181.9,-312.79 173,-303.12"/>
<polygon fill="red" stroke="red" points="175.5,-300.68 166.2,-295.61 170.31,-305.37 175.5,-300.68"/>
</g>
<!-- node9 -->
<g id="node9" class="node">
<title>node9</title>
<path fill="pink" stroke="black" d="M246,-249.5C246,-249.5 368,-249.5 368,-249.5 374,-249.5 380,-255.5 380,-261.5 380,-261.5 380,-283.5 380,-283.5 380,-289.5 374,-295.5 368,-295.5 368,-295.5 246,-295.5 246,-295.5 240,-295.5 234,-289.5 234,-283.5 234,-283.5 234,-261.5 234,-261.5 234,-255.5 240,-249.5 246,-249.5"/>
<text text-anchor="middle" x="247" y="-280.3" font-family="Times,serif" font-size="14.00">9</text>
<polyline fill="none" stroke="black" points="260,-272.5 260,-295.5 "/>
<text text-anchor="middle" x="287.5" y="-280.3" font-family="Times,serif" font-size="14.00">NUM</text>
<polyline fill="none" stroke="black" points="315,-272.5 315,-295.5 "/>
<text text-anchor="middle" x="347.5" y="-280.3" font-family="Times,serif" font-size="14.00">size=1</text>
<polyline fill="none" stroke="black" points="234,-272.5 380,-272.5 "/>
<text text-anchor="middle" x="307" y="-257.3" font-family="Times,serif" font-size="14.00">1</text>
</g>
<!-- node1&#45;&gt;node9 -->
<g id="edge16" class="edge">
<title>node1&#45;&gt;node9</title>
<path fill="none" stroke="green" d="M244.22,-332.37C252.29,-323.26 262.43,-312.58 272.24,-302.83"/>
<polygon fill="green" stroke="green" points="274.92,-305.1 279.62,-295.61 270.03,-300.1 274.92,-305.1"/>
</g>
<!-- node2&#45;&gt;node1 -->
<g id="edge3" class="edge">
<title>node2&#45;&gt;node1</title>
<path fill="none" stroke="blue" d="M178.38,-295.61C187.75,-304.62 198.07,-315.18 206.98,-324.85"/>
<polygon fill="blue" stroke="blue" points="204.47,-327.3 213.78,-332.37 209.66,-322.6 204.47,-327.3"/>
</g>
<!-- node3 -->
<g id="node3" class="node">
<title>node3</title>
<path fill="pink" stroke="black" d="M12,-166.5C12,-166.5 134,-166.5 134,-166.5 140,-166.5 146,-172.5 146,-178.5 146,-178.5 146,-200.5 146,-200.5 146,-206.5 140,-212.5 134,-212.5 134,-212.5 12,-212.5 12,-212.5 6,-212.5 0,-206.5 0,-200.5 0,-200.5 0,-178.5 0,-178.5 0,-172.5 6,-166.5 12,-166.5"/>
<text text-anchor="middle" x="13" y="-197.3" font-family="Times,serif" font-size="14.00">3</text>
<polyline fill="none" stroke="black" points="26,-189.5 26,-212.5 "/>
<text text-anchor="middle" x="53.5" y="-197.3" font-family="Times,serif" font-size="14.00">NUM</text>
<polyline fill="none" stroke="black" points="81,-189.5 81,-212.5 "/>
<text text-anchor="middle" x="113.5" y="-197.3" font-family="Times,serif" font-size="14.00">size=1</text>
<polyline fill="none" stroke="black" points="0,-189.5 146,-189.5 "/>
<text text-anchor="middle" x="73" y="-174.3" font-family="Times,serif" font-size="14.00">3</text>
</g>
<!-- node2&#45;&gt;node3 -->
<g id="edge4" class="edge">
<title>node2&#45;&gt;node3</title>
<path fill="none" stroke="red" d="M123.6,-249.37C114.22,-240.35 103.9,-229.79 95,-220.12"/>
<polygon fill="red" stroke="red" points="97.5,-217.68 88.2,-212.61 92.31,-222.37 97.5,-217.68"/>
</g>
<!-- node4 -->
<g id="node4" class="node">
<title>node4</title>
<path fill="peachpuff" stroke="black" d="M176.5,-166.5C176.5,-166.5 281.5,-166.5 281.5,-166.5 287.5,-166.5 293.5,-172.5 293.5,-178.5 293.5,-178.5 293.5,-200.5 293.5,-200.5 293.5,-206.5 287.5,-212.5 281.5,-212.5 281.5,-212.5 176.5,-212.5 176.5,-212.5 170.5,-212.5 164.5,-206.5 164.5,-200.5 164.5,-200.5 164.5,-178.5 164.5,-178.5 164.5,-172.5 170.5,-166.5 176.5,-166.5"/>
<text text-anchor="middle" x="177.5" y="-197.3" font-family="Times,serif" font-size="14.00">4</text>
<polyline fill="none" stroke="black" points="190.5,-189.5 190.5,-212.5 "/>
<text text-anchor="middle" x="209.5" y="-197.3" font-family="Times,serif" font-size="14.00">OP</text>
<polyline fill="none" stroke="black" points="228.5,-189.5 228.5,-212.5 "/>
<text text-anchor="middle" x="261" y="-197.3" font-family="Times,serif" font-size="14.00">size=5</text>
<polyline fill="none" stroke="black" points="164.5,-189.5 293.5,-189.5 "/>
<text text-anchor="middle" x="229" y="-174.3" font-family="Times,serif" font-size="14.00">&#45;</text>
</g>
<!-- node2&#45;&gt;node4 -->
<g id="edge6" class="edge">
<title>node2&#45;&gt;node4</title>
<path fill="none" stroke="green" d="M166.22,-249.37C174.29,-240.26 184.43,-229.58 194.24,-219.83"/>
<polygon fill="green" stroke="green" points="196.92,-222.1 201.62,-212.61 192.03,-217.1 196.92,-222.1"/>
</g>
<!-- node3&#45;&gt;node2 -->
<g id="edge5" class="edge">
<title>node3&#45;&gt;node2</title>
<path fill="none" stroke="blue" d="M100.38,-212.61C109.75,-221.62 120.07,-232.18 128.98,-241.85"/>
<polygon fill="blue" stroke="blue" points="126.47,-244.3 135.78,-249.37 131.66,-239.6 126.47,-244.3"/>
</g>
<!-- node4&#45;&gt;node2 -->
<g id="edge7" class="edge">
<title>node4&#45;&gt;node2</title>
<path fill="none" stroke="blue" d="M213.8,-212.61C205.74,-221.71 195.59,-232.39 185.79,-242.14"/>
<polygon fill="blue" stroke="blue" points="183.1,-239.87 178.4,-249.37 188,-244.87 183.1,-239.87"/>
</g>
<!-- node5 -->
<g id="node5" class="node">
<title>node5</title>
<path fill="pink" stroke="black" d="M90,-83.5C90,-83.5 212,-83.5 212,-83.5 218,-83.5 224,-89.5 224,-95.5 224,-95.5 224,-117.5 224,-117.5 224,-123.5 218,-129.5 212,-129.5 212,-129.5 90,-129.5 90,-129.5 84,-129.5 78,-123.5 78,-117.5 78,-117.5 78,-95.5 78,-95.5 78,-89.5 84,-83.5 90,-83.5"/>
<text text-anchor="middle" x="91" y="-114.3" font-family="Times,serif" font-size="14.00">5</text>
<polyline fill="none" stroke="black" points="104,-106.5 104,-129.5 "/>
<text text-anchor="middle" x="131.5" y="-114.3" font-family="Times,serif" font-size="14.00">NUM</text>
<polyline fill="none" stroke="black" points="159,-106.5 159,-129.5 "/>
<text text-anchor="middle" x="191.5" y="-114.3" font-family="Times,serif" font-size="14.00">size=1</text>
<polyline fill="none" stroke="black" points="78,-106.5 224,-106.5 "/>
<text text-anchor="middle" x="151" y="-91.3" font-family="Times,serif" font-size="14.00">2,5</text>
</g>
<!-- node4&#45;&gt;node5 -->
<g id="edge8" class="edge">
<title>node4&#45;&gt;node5</title>
<path fill="none" stroke="red" d="M201.6,-166.37C192.22,-157.35 181.9,-146.79 173,-137.12"/>
<polygon fill="red" stroke="red" points="175.5,-134.68 166.2,-129.61 170.31,-139.37 175.5,-134.68"/>
</g>
<!-- node6 -->
<g id="node6" class="node">
<title>node6</title>
<path fill="peachpuff" stroke="black" d="M254.5,-83.5C254.5,-83.5 359.5,-83.5 359.5,-83.5 365.5,-83.5 371.5,-89.5 371.5,-95.5 371.5,-95.5 371.5,-117.5 371.5,-117.5 371.5,-123.5 365.5,-129.5 359.5,-129.5 359.5,-129.5 254.5,-129.5 254.5,-129.5 248.5,-129.5 242.5,-123.5 242.5,-117.5 242.5,-117.5 242.5,-95.5 242.5,-95.5 242.5,-89.5 248.5,-83.5 254.5,-83.5"/>
<text text-anchor="middle" x="255.5" y="-114.3" font-family="Times,serif" font-size="14.00">6</text>
<polyline fill="none" stroke="black" points="268.5,-106.5 268.5,-129.5 "/>
<text text-anchor="middle" x="287.5" y="-114.3" font-family="Times,serif" font-size="14.00">OP</text>
<polyline fill="none" stroke="black" points="306.5,-106.5 306.5,-129.5 "/>
<text text-anchor="middle" x="339" y="-114.3" font-family="Times,serif" font-size="14.00">size=3</text>
<polyline fill="none" stroke="black" points="242.5,-106.5 371.5,-106.5 "/>
<text text-anchor="middle" x="307" y="-91.3" font-family="Times,serif" font-size="14.00">/</text>
</g>
<!-- node4&#45;&gt;node6 -->
<g id="edge10" class="edge">
<title>node4&#45;&gt;node6</title>
<path fill="none" stroke="green" d="M244.22,-166.37C252.29,-157.26 262.43,-146.58 272.24,-136.83"/>
<polygon fill="green" stroke="green" points="274.92,-139.1 279.62,-129.61 270.03,-134.1 274.92,-139.1"/>
</g>
<!-- node5&#45;&gt;node4 -->
<g id="edge9" class="edge">
<title>node5&#45;&gt;node4</title>
<path fill="none" stroke="blue" d="M178.38,-129.61C187.75,-138.62 198.07,-149.18 206.98,-158.85"/>
<polygon fill="blue" stroke="blue" points="204.47,-161.3 213.78,-166.37 209.66,-156.6 204.47,-161.3"/>
</g>
<!-- node6&#45;&gt;node4 -->
<g id="edge11" class="edge">
<title>node6&#45;&gt;node4</title>
<path fill="none" stroke="blue" d="M291.8,-129.61C283.74,-138.71 273.59,-149.39 263.79,-159.14"/>
<polygon fill="blue" stroke="blue" points="261.1,-156.87 256.4,-166.37 266,-161.87 261.1,-156.87"/>
</g>
<!-- node7 -->
<g id="node7" class="node">
<title>node7</title>
<path fill="pink" stroke="black" d="M164,-0.5C164,-0.5 286,-0.5 286,-0.5 292,-0.5 298,-6.5 298,-12.5 298,-12.5 298,-34.5 298,-34.5 298,-40.5 292,-46.5 286,-46.5 286,-46.5 164,-46.5 164,-46.5 158,-46.5 152,-40.5 152,-34.5 152,-34.5 152,-12.5 152,-12.5 152,-6.5 158,-0.5 164,-0.5"/>
<text text-anchor="middle" x="165" y="-31.3" font-family="Times,serif" font-size="14.00">7</text>
<polyline fill="none" stroke="black" points="178,-23.5 178,-46.5 "/>
<text text-anchor="middle" x="205.5" y="-31.3" font-family="Times,serif" font-size="14.00">NUM</text>
<polyline fill="none" stroke="black" points="233,-23.5 233,-46.5 "/>
<text text-anchor="middle" x="265.5" y="-31.3" font-family="Times,serif" font-size="14.00">size=1</text>
<polyline fill="none" stroke="black" points="152,-23.5 298,-23.5 "/>
<text text-anchor="middle" x="225" y="-8.3" font-family="Times,serif" font-size="14.00">0,1</text>
</g>
<!-- node6&#45;&gt;node7 -->
<g id="edge12" class="edge">
<title>node6&#45;&gt;node7</title>
<path fill="none" stroke="red" d="M278.5,-83.37C268.68,-74.35 257.84,-63.79 248.46,-54.12"/>
<polygon fill="red" stroke="red" points="250.73,-51.43 241.29,-46.61 245.66,-56.26 250.73,-51.43"/>
</g>
<!-- node8 -->
<g id="node8" class="node">
<title>node8</title>
<path fill="pink" stroke="black" d="M328,-0.5C328,-0.5 450,-0.5 450,-0.5 456,-0.5 462,-6.5 462,-12.5 462,-12.5 462,-34.5 462,-34.5 462,-40.5 456,-46.5 450,-46.5 450,-46.5 328,-46.5 328,-46.5 322,-46.5 316,-40.5 316,-34.5 316,-34.5 316,-12.5 316,-12.5 316,-6.5 322,-0.5 328,-0.5"/>
<text text-anchor="middle" x="329" y="-31.3" font-family="Times,serif" font-size="14.00">8</text>
<polyline fill="none" stroke="black" points="342,-23.5 342,-46.5 "/>
<text text-anchor="middle" x="369.5" y="-31.3" font-family="Times,serif" font-size="14.00">NUM</text>
<polyline fill="none" stroke="black" points="397,-23.5 397,-46.5 "/>
<text text-anchor="middle" x="429.5" y="-31.3" font-family="Times,serif" font-size="14.00">size=1</text>
<polyline fill="none" stroke="black" points="316,-23.5 462,-23.5 "/>
<text text-anchor="middle" x="389" y="-8.3" font-family="Times,serif" font-size="14.00">2</text>
</g>
<!-- node6&#45;&gt;node8 -->
<g id="edge14" class="edge">
<title>node6&#45;&gt;node8</title>
<path fill="none" stroke="green" d="M323.32,-83.37C331.92,-74.17 342.71,-63.37 353.09,-53.55"/>
<polygon fill="green" stroke="green" points="355.61,-55.99 360.53,-46.61 350.83,-50.87 355.61,-55.99"/>
</g>
<!-- node7&#45;&gt;node6 -->
<g id="edge13" class="edge">
<title>node7&#45;&gt;node6</title>
<path fill="none" stroke="blue" d="M253.47,-46.61C263.29,-55.62 274.13,-66.18 283.51,-75.85"/>
<polygon fill="blue" stroke="blue" points="281.25,-78.55 290.68,-83.37 286.31,-73.71 281.25,-78.55"/>
</g>
<!-- node8&#45;&gt;node6 -->
<g id="edge15" class="edge">
<title>node8&#45;&gt;node6</title>
<path fill="none" stroke="blue" d="M372.71,-46.61C364.11,-55.8 353.32,-66.6 342.94,-76.42"/>
<polygon fill="blue" stroke="blue" points="340.42,-73.99 335.5,-83.37 345.2,-79.1 340.42,-73.99"/>
</g>
<!-- node9&#45;&gt;node1 -->
<g id="edge17" class="edge">
<title>node9&#45;&gt;node1</title>
<path fill="none" stroke="blue" d="M291.8,-295.61C283.74,-304.71 273.59,-315.39 263.79,-325.14"/>
<polygon fill="blue" stroke="blue" points="261.1,-322.87 256.4,-332.37 266,-327.87 261.1,-322.87"/>
</g>
</g>
</svg>
