<?xml version="1.0" encoding="UTF-8" standalone="no"?>
<!DOCTYPE svg PUBLIC "-//W3C//DTD SVG 1.1//EN"
 "http://www.w3.org/Graphics/SVG/1.1/DTD/svg11.dtd">
<!-- Generated by graphviz version 2.43.0 (0)
 -->
<!-- Title: %3 Pages: 1 -->
<svg width="172pt" height="210pt"
 viewBox="0.00 0.00 172.00 210.00" xmlns="http://www.w3.org/2000/svg" xmlns:xlink="http://www.w3.org/1999/xlink">
<g id="graph0" class="graph" transform="scale(1 1) rotate(0) translate(4 206)">
<title>%3</title>
<polygon fill="white" stroke="transparent" points="-4,4 -4,-206 168,-206 168,4 -4,4"/>
<!-- node1 -->
<g id="node1" class="node">
<title>node1</title>
<path fill="pink" stroke="black" d="M12,-155.5C12,-155.5 134,-155.5 134,-155.5 140,-155.5 146,-161.5 146,-167.5 146,-167.5 146,-189.5 146,-189.5 146,-195.5 140,-201.5 134,-201.5 134,-201.5 12,-201.5 12,-201.5 6,-201.5 0,-195.5 0,-189.5 0,-189.5 0,-167.5 0,-167.5 0,-161.5 6,-155.5 12,-155.5"/>
<text text-anchor="middle" x="13" y="-186.3" font-family="Times,serif" font-size="14.00">1</text>
<polyline fill="none" stroke="black" points="26,-178.5 26,-201.5 "/>
<text text-anchor="middle" x="53.5" y="-186.3" font-family="Times,serif" font-size="14.00">NUM</text>
<polyline fill="none" stroke="black" points="81,-178.5 81,-201.5 "/>
<text text-anchor="middle" x="113.5" y="-186.3" font-family="Times,serif" font-size="14.00">size=1</text>
<polyline fill="none" stroke="black" points="0,-178.5 146,-178.5 "/>
<text text-anchor="middle" x="73" y="-163.3" font-family="Times,serif" font-size="14.00">0</text>
</g>
<!-- node1&#45;&gt;node1 -->
<g id="edge1" class="edge">
<title>node1&#45;&gt;node1</title>
<path fill="none" stroke="blue" d="M146.19,-192.37C156.83,-190.17 164,-185.55 164,-178.5 164,-173.88 160.91,-170.29 155.78,-167.76"/>
<polygon fill="blue" stroke="blue" points="156.78,-164.4 146.19,-164.63 154.61,-171.06 156.78,-164.4"/>
</g>
<!-- node2 -->
<g id="node2" class="node">
<title>node2</title>
<path fill="pink" stroke="black" d="M12,-72.5C12,-72.5 134,-72.5 134,-72.5 140,-72.5 146,-78.5 146,-84.5 146,-84.5 146,-106.5 146,-106.5 146,-112.5 140,-118.5 134,-118.5 134,-118.5 12,-118.5 12,-118.5 6,-118.5 0,-112.5 0,-106.5 0,-106.5 0,-84.5 0,-84.5 0,-78.5 6,-72.5 12,-72.5"/>
<text text-anchor="middle" x="13" y="-103.3" font-family="Times,serif" font-size="14.00">2</text>
<polyline fill="none" stroke="black" points="26,-95.5 26,-118.5 "/>
<text text-anchor="middle" x="53.5" y="-103.3" font-family="Times,serif" font-size="14.00">NUM</text>
<polyline fill="none" stroke="black" points="81,-95.5 81,-118.5 "/>
<text text-anchor="middle" x="113.5" y="-103.3" font-family="Times,serif" font-size="14.00">size=1</text>
<polyline fill="none" stroke="black" points="0,-95.5 146,-95.5 "/>
<text text-anchor="middle" x="73" y="-80.3" font-family="Times,serif" font-size="14.00">0</text>
</g>
<!-- node1&#45;&gt;node2 -->
<g id="edge2" class="edge">
<title>node1&#45;&gt;node2</title>
<path fill="none" stroke="red" d="M66.91,-155.37C66.28,-147.15 66.1,-137.66 66.38,-128.73"/>
<polygon fill="red" stroke="red" points="69.88,-128.78 66.91,-118.61 62.89,-128.41 69.88,-128.78"/>
</g>
<!-- node2&#45;&gt;node1 -->
<g id="edge3" class="edge">
<title>node2&#45;&gt;node1</title>
<path fill="none" stroke="blue" d="M79.09,-118.61C79.72,-126.82 79.9,-136.31 79.62,-145.25"/>
<polygon fill="blue" stroke="blue" points="76.12,-145.2 79.09,-155.37 83.11,-145.56 76.12,-145.2"/>
</g>
<!-- node3 -->
<g id="node3" class="node">
<title>node3</title>
<ellipse fill="lightgrey" stroke="black" cx="73" cy="-18" rx="38.99" ry="18"/>
<text text-anchor="middle" x="73" y="-14.3" font-family="Times,serif" font-size="14.00">node3</text>
</g>
<!-- node2&#45;&gt;node3 -->
<g id="edge4" class="edge">
<title>node2&#45;&gt;node3</title>
<path fill="none" stroke="red" d="M73,-72.26C73,-64.18 73,-54.96 73,-46.49"/>
<polygon fill="red" stroke="red" points="76.5,-46.3 73,-36.3 69.5,-46.3 76.5,-46.3"/>
</g>
</g>
</svg>
