<?xml version="1.0" encoding="UTF-8" standalone="no"?>
<!DOCTYPE svg PUBLIC "-//W3C//DTD SVG 1.1//EN"
 "http://www.w3.org/Graphics/SVG/1.1/DTD/svg11.dtd">
<!-- Generated by graphviz version 2.43.0 (0)
 -->
<!-- Title: %3 Pages: 1 -->
<svg width="685pt" height="553pt"
 viewBox="0.00 0.00 684.50 553.00" xmlns="http://www.w3.org/2000/svg" xmlns:xlink="http://www.w3.org/1999/xlink">
<g id="graph0" class="graph" transform="scale(1 1) rotate(0) translate(4 549)">
<title>%3</title>
<polygon fill="white" stroke="transparent" points="-4,4 -4,-549 680.5,-549 680.5,4 -4,4"/>
<!-- node1 -->
<g id="node1" class="node">
<title>node1</title>
<path fill="peachpuff" stroke="black" d="M332,-498.5C332,-498.5 446,-498.5 446,-498.5 452,-498.5 458,-504.5 458,-510.5 458,-510.5 458,-532.5 458,-532.5 458,-538.5 452,-544.5 446,-544.5 446,-544.5 332,-544.5 332,-544.5 326,-544.5 320,-538.5 320,-532.5 320,-532.5 320,-510.5 320,-510.5 320,-504.5 326,-498.5 332,-498.5"/>
<text text-anchor="middle" x="333" y="-529.3" font-family="Times,serif" font-size="14.00">1</text>
<polyline fill="none" stroke="black" points="346,-521.5 346,-544.5 "/>
<text text-anchor="middle" x="365" y="-529.3" font-family="Times,serif" font-size="14.00">OP</text>
<polyline fill="none" stroke="black" points="384,-521.5 384,-544.5 "/>
<text text-anchor="middle" x="421" y="-529.3" font-family="Times,serif" font-size="14.00">size=17</text>
<polyline fill="none" stroke="black" points="320,-521.5 458,-521.5 "/>
<text text-anchor="middle" x="389" y="-506.3" font-family="Times,serif" font-size="14.00">^</text>
</g>
<!-- node1&#45;&gt;node1 -->
<g id="edge1" class="edge">
<title>node1&#45;&gt;node1</title>
<path fill="none" stroke="blue" d="M458.27,-535.52C468.83,-533.38 476,-528.71 476,-521.5 476,-516.77 472.91,-513.13 467.81,-510.58"/>
<polygon fill="blue" stroke="blue" points="468.87,-507.25 458.27,-507.48 466.7,-513.9 468.87,-507.25"/>
</g>
<!-- node2 -->
<g id="node2" class="node">
<title>node2</title>
<path fill="peachpuff" stroke="black" d="M254,-415.5C254,-415.5 368,-415.5 368,-415.5 374,-415.5 380,-421.5 380,-427.5 380,-427.5 380,-449.5 380,-449.5 380,-455.5 374,-461.5 368,-461.5 368,-461.5 254,-461.5 254,-461.5 248,-461.5 242,-455.5 242,-449.5 242,-449.5 242,-427.5 242,-427.5 242,-421.5 248,-415.5 254,-415.5"/>
<text text-anchor="middle" x="255" y="-446.3" font-family="Times,serif" font-size="14.00">2</text>
<polyline fill="none" stroke="black" points="268,-438.5 268,-461.5 "/>
<text text-anchor="middle" x="287" y="-446.3" font-family="Times,serif" font-size="14.00">OP</text>
<polyline fill="none" stroke="black" points="306,-438.5 306,-461.5 "/>
<text text-anchor="middle" x="343" y="-446.3" font-family="Times,serif" font-size="14.00">size=10</text>
<polyline fill="none" stroke="black" points="242,-438.5 380,-438.5 "/>
<text text-anchor="middle" x="311" y="-423.3" font-family="Times,serif" font-size="14.00">/</text>
</g>
<!-- node1&#45;&gt;node2 -->
<g id="edge2" class="edge">
<title>node1&#45;&gt;node2</title>
<path fill="none" stroke="red" d="M361.6,-498.37C352.22,-489.35 341.9,-478.79 333,-469.12"/>
<polygon fill="red" stroke="red" points="335.5,-466.68 326.2,-461.61 330.31,-471.37 335.5,-466.68"/>
</g>
<!-- node12 -->
<g id="node12" class="node">
<title>node12</title>
<path fill="peachpuff" stroke="black" d="M414,-415.5C414,-415.5 528,-415.5 528,-415.5 534,-415.5 540,-421.5 540,-427.5 540,-427.5 540,-449.5 540,-449.5 540,-455.5 534,-461.5 528,-461.5 528,-461.5 414,-461.5 414,-461.5 408,-461.5 402,-455.5 402,-449.5 402,-449.5 402,-427.5 402,-427.5 402,-421.5 408,-415.5 414,-415.5"/>
<text text-anchor="middle" x="419.5" y="-446.3" font-family="Times,serif" font-size="14.00">12</text>
<polyline fill="none" stroke="black" points="437,-438.5 437,-461.5 "/>
<text text-anchor="middle" x="456" y="-446.3" font-family="Times,serif" font-size="14.00">OP</text>
<polyline fill="none" stroke="black" points="475,-438.5 475,-461.5 "/>
<text text-anchor="middle" x="507.5" y="-446.3" font-family="Times,serif" font-size="14.00">size=6</text>
<polyline fill="none" stroke="black" points="402,-438.5 540,-438.5 "/>
<text text-anchor="middle" x="471" y="-423.3" font-family="Times,serif" font-size="14.00">arccos</text>
</g>
<!-- node1&#45;&gt;node12 -->
<g id="edge22" class="edge">
<title>node1&#45;&gt;node12</title>
<path fill="none" stroke="green" d="M405.32,-498.37C413.92,-489.17 424.71,-478.37 435.09,-468.55"/>
<polygon fill="green" stroke="green" points="437.61,-470.99 442.53,-461.61 432.83,-465.87 437.61,-470.99"/>
</g>
<!-- node2&#45;&gt;node1 -->
<g id="edge3" class="edge">
<title>node2&#45;&gt;node1</title>
<path fill="none" stroke="blue" d="M338.38,-461.61C347.75,-470.62 358.07,-481.18 366.98,-490.85"/>
<polygon fill="blue" stroke="blue" points="364.47,-493.3 373.78,-498.37 369.66,-488.6 364.47,-493.3"/>
</g>
<!-- node3 -->
<g id="node3" class="node">
<title>node3</title>
<path fill="peachpuff" stroke="black" d="M98.5,-332.5C98.5,-332.5 203.5,-332.5 203.5,-332.5 209.5,-332.5 215.5,-338.5 215.5,-344.5 215.5,-344.5 215.5,-366.5 215.5,-366.5 215.5,-372.5 209.5,-378.5 203.5,-378.5 203.5,-378.5 98.5,-378.5 98.5,-378.5 92.5,-378.5 86.5,-372.5 86.5,-366.5 86.5,-366.5 86.5,-344.5 86.5,-344.5 86.5,-338.5 92.5,-332.5 98.5,-332.5"/>
<text text-anchor="middle" x="99.5" y="-363.3" font-family="Times,serif" font-size="14.00">3</text>
<polyline fill="none" stroke="black" points="112.5,-355.5 112.5,-378.5 "/>
<text text-anchor="middle" x="131.5" y="-363.3" font-family="Times,serif" font-size="14.00">OP</text>
<polyline fill="none" stroke="black" points="150.5,-355.5 150.5,-378.5 "/>
<text text-anchor="middle" x="183" y="-363.3" font-family="Times,serif" font-size="14.00">size=8</text>
<polyline fill="none" stroke="black" points="86.5,-355.5 215.5,-355.5 "/>
<text text-anchor="middle" x="151" y="-340.3" font-family="Times,serif" font-size="14.00">tg</text>
</g>
<!-- node2&#45;&gt;node3 -->
<g id="edge4" class="edge">
<title>node2&#45;&gt;node3</title>
<path fill="none" stroke="red" d="M261.19,-415.37C240.85,-405.46 217.49,-393.68 197.5,-383.28"/>
<polygon fill="red" stroke="red" points="199.06,-380.14 188.58,-378.61 195.82,-386.35 199.06,-380.14"/>
</g>
<!-- node11 -->
<g id="node11" class="node">
<title>node11</title>
<path fill="pink" stroke="black" d="M245.5,-332.5C245.5,-332.5 376.5,-332.5 376.5,-332.5 382.5,-332.5 388.5,-338.5 388.5,-344.5 388.5,-344.5 388.5,-366.5 388.5,-366.5 388.5,-372.5 382.5,-378.5 376.5,-378.5 376.5,-378.5 245.5,-378.5 245.5,-378.5 239.5,-378.5 233.5,-372.5 233.5,-366.5 233.5,-366.5 233.5,-344.5 233.5,-344.5 233.5,-338.5 239.5,-332.5 245.5,-332.5"/>
<text text-anchor="middle" x="251" y="-363.3" font-family="Times,serif" font-size="14.00">11</text>
<polyline fill="none" stroke="black" points="268.5,-355.5 268.5,-378.5 "/>
<text text-anchor="middle" x="296" y="-363.3" font-family="Times,serif" font-size="14.00">NUM</text>
<polyline fill="none" stroke="black" points="323.5,-355.5 323.5,-378.5 "/>
<text text-anchor="middle" x="356" y="-363.3" font-family="Times,serif" font-size="14.00">size=1</text>
<polyline fill="none" stroke="black" points="233.5,-355.5 388.5,-355.5 "/>
<text text-anchor="middle" x="311" y="-340.3" font-family="Times,serif" font-size="14.00">7</text>
</g>
<!-- node2&#45;&gt;node11 -->
<g id="edge20" class="edge">
<title>node2&#45;&gt;node11</title>
<path fill="none" stroke="green" d="M304.91,-415.37C304.28,-407.15 304.1,-397.66 304.38,-388.73"/>
<polygon fill="green" stroke="green" points="307.88,-388.78 304.91,-378.61 300.89,-388.41 307.88,-388.78"/>
</g>
<!-- node3&#45;&gt;node2 -->
<g id="edge5" class="edge">
<title>node3&#45;&gt;node2</title>
<path fill="none" stroke="blue" d="M200.76,-378.61C221.09,-388.51 244.45,-400.29 264.44,-410.69"/>
<polygon fill="blue" stroke="blue" points="262.89,-413.83 273.37,-415.37 266.13,-407.63 262.89,-413.83"/>
</g>
<!-- node4 -->
<g id="node4" class="node">
<title>node4</title>
<path fill="peachpuff" stroke="black" d="M98.5,-249.5C98.5,-249.5 203.5,-249.5 203.5,-249.5 209.5,-249.5 215.5,-255.5 215.5,-261.5 215.5,-261.5 215.5,-283.5 215.5,-283.5 215.5,-289.5 209.5,-295.5 203.5,-295.5 203.5,-295.5 98.5,-295.5 98.5,-295.5 92.5,-295.5 86.5,-289.5 86.5,-283.5 86.5,-283.5 86.5,-261.5 86.5,-261.5 86.5,-255.5 92.5,-249.5 98.5,-249.5"/>
<text text-anchor="middle" x="99.5" y="-280.3" font-family="Times,serif" font-size="14.00">4</text>
<polyline fill="none" stroke="black" points="112.5,-272.5 112.5,-295.5 "/>
<text text-anchor="middle" x="131.5" y="-280.3" font-family="Times,serif" font-size="14.00">OP</text>
<polyline fill="none" stroke="black" points="150.5,-272.5 150.5,-295.5 "/>
<text text-anchor="middle" x="183" y="-280.3" font-family="Times,serif" font-size="14.00">size=7</text>
<polyline fill="none" stroke="black" points="86.5,-272.5 215.5,-272.5 "/>
<text text-anchor="middle" x="151" y="-257.3" font-family="Times,serif" font-size="14.00">&#45;</text>
</g>
<!-- node3&#45;&gt;node4 -->
<g id="edge6" class="edge">
<title>node3&#45;&gt;node4</title>
<path fill="none" stroke="green" d="M144.91,-332.37C144.28,-324.15 144.1,-314.66 144.38,-305.73"/>
<polygon fill="green" stroke="green" points="147.88,-305.78 144.91,-295.61 140.89,-305.41 147.88,-305.78"/>
</g>
<!-- node4&#45;&gt;node3 -->
<g id="edge7" class="edge">
<title>node4&#45;&gt;node3</title>
<path fill="none" stroke="blue" d="M157.09,-295.61C157.72,-303.82 157.9,-313.31 157.62,-322.25"/>
<polygon fill="blue" stroke="blue" points="154.12,-322.2 157.09,-332.37 161.11,-322.56 154.12,-322.2"/>
</g>
<!-- node5 -->
<g id="node5" class="node">
<title>node5</title>
<path fill="pink" stroke="black" d="M12,-166.5C12,-166.5 134,-166.5 134,-166.5 140,-166.5 146,-172.5 146,-178.5 146,-178.5 146,-200.5 146,-200.5 146,-206.5 140,-212.5 134,-212.5 134,-212.5 12,-212.5 12,-212.5 6,-212.5 0,-206.5 0,-200.5 0,-200.5 0,-178.5 0,-178.5 0,-172.5 6,-166.5 12,-166.5"/>
<text text-anchor="middle" x="13" y="-197.3" font-family="Times,serif" font-size="14.00">5</text>
<polyline fill="none" stroke="black" points="26,-189.5 26,-212.5 "/>
<text text-anchor="middle" x="53.5" y="-197.3" font-family="Times,serif" font-size="14.00">NUM</text>
<polyline fill="none" stroke="black" points="81,-189.5 81,-212.5 "/>
<text text-anchor="middle" x="113.5" y="-197.3" font-family="Times,serif" font-size="14.00">size=1</text>
<polyline fill="none" stroke="black" points="0,-189.5 146,-189.5 "/>
<text text-anchor="middle" x="73" y="-174.3" font-family="Times,serif" font-size="14.00">1</text>
</g>
<!-- node4&#45;&gt;node5 -->
<g id="edge8" class="edge">
<title>node4&#45;&gt;node5</title>
<path fill="none" stroke="red" d="M123.6,-249.37C114.22,-240.35 103.9,-229.79 95,-220.12"/>
<polygon fill="red" stroke="red" points="97.5,-217.68 88.2,-212.61 92.31,-222.37 97.5,-217.68"/>
</g>
<!-- node6 -->
<g id="node6" class="node">
<title>node6</title>
<path fill="peachpuff" stroke="black" d="M176.5,-166.5C176.5,-166.5 281.5,-166.5 281.5,-166.5 287.5,-166.5 293.5,-172.5 293.5,-178.5 293.5,-178.5 293.5,-200.5 293.5,-200.5 293.5,-206.5 287.5,-212.5 281.5,-212.5 281.5,-212.5 176.5,-212.5 176.5,-212.5 170.5,-212.5 164.5,-206.5 164.5,-200.5 164.5,-200.5 164.5,-178.5 164.5,-178.5 164.5,-172.5 170.5,-166.5 176.5,-166.5"/>
<text text-anchor="middle" x="177.5" y="-197.3" font-family="Times,serif" font-size="14.00">6</text>
<polyline fill="none" stroke="black" points="190.5,-189.5 190.5,-212.5 "/>
<text text-anchor="middle" x="209.5" y="-197.3" font-family="Times,serif" font-size="14.00">OP</text>
<polyline fill="none" stroke="black" points="228.5,-189.5 228.5,-212.5 "/>
<text text-anchor="middle" x="261" y="-197.3" font-family="Times,serif" font-size="14.00">size=5</text>
<polyline fill="none" stroke="black" points="164.5,-189.5 293.5,-189.5 "/>
<text text-anchor="middle" x="229" y="-174.3" font-family="Times,serif" font-size="14.00">log</text>
</g>
<!-- node4&#45;&gt;node6 -->
<g id="edge10" class="edge">
<title>node4&#45;&gt;node6</title>
<path fill="none" stroke="green" d="M166.22,-249.37C174.29,-240.26 184.43,-229.58 194.24,-219.83"/>
<polygon fill="green" stroke="green" points="196.92,-222.1 201.62,-212.61 192.03,-217.1 196.92,-222.1"/>
</g>
<!-- node5&#45;&gt;node4 -->
<g id="edge9" class="edge">
<title>node5&#45;&gt;node4</title>
<path fill="none" stroke="blue" d="M100.38,-212.61C109.75,-221.62 120.07,-232.18 128.98,-241.85"/>
<polygon fill="blue" stroke="blue" points="126.47,-244.3 135.78,-249.37 131.66,-239.6 126.47,-244.3"/>
</g>
<!-- node6&#45;&gt;node4 -->
<g id="edge11" class="edge">
<title>node6&#45;&gt;node4</title>
<path fill="none" stroke="blue" d="M213.8,-212.61C205.74,-221.71 195.59,-232.39 185.79,-242.14"/>
<polygon fill="blue" stroke="blue" points="183.1,-239.87 178.4,-249.37 188,-244.87 183.1,-239.87"/>
</g>
<!-- node7 -->
<g id="node7" class="node">
<title>node7</title>
<path fill="pink" stroke="black" d="M90,-83.5C90,-83.5 212,-83.5 212,-83.5 218,-83.5 224,-89.5 224,-95.5 224,-95.5 224,-117.5 224,-117.5 224,-123.5 218,-129.5 212,-129.5 212,-129.5 90,-129.5 90,-129.5 84,-129.5 78,-123.5 78,-117.5 78,-117.5 78,-95.5 78,-95.5 78,-89.5 84,-83.5 90,-83.5"/>
<text text-anchor="middle" x="91" y="-114.3" font-family="Times,serif" font-size="14.00">7</text>
<polyline fill="none" stroke="black" points="104,-106.5 104,-129.5 "/>
<text text-anchor="middle" x="131.5" y="-114.3" font-family="Times,serif" font-size="14.00">NUM</text>
<polyline fill="none" stroke="black" points="159,-106.5 159,-129.5 "/>
<text text-anchor="middle" x="191.5" y="-114.3" font-family="Times,serif" font-size="14.00">size=1</text>
<polyline fill="none" stroke="black" points="78,-106.5 224,-106.5 "/>
<text text-anchor="middle" x="151" y="-91.3" font-family="Times,serif" font-size="14.00">3</text>
</g>
<!-- node6&#45;&gt;node7 -->
<g id="edge12" class="edge">
<title>node6&#45;&gt;node7</title>
<path fill="none" stroke="red" d="M201.6,-166.37C192.22,-157.35 181.9,-146.79 173,-137.12"/>
<polygon fill="red" stroke="red" points="175.5,-134.68 166.2,-129.61 170.31,-139.37 175.5,-134.68"/>
</g>
<!-- node8 -->
<g id="node8" class="node">
<title>node8</title>
<path fill="peachpuff" stroke="black" d="M254.5,-83.5C254.5,-83.5 359.5,-83.5 359.5,-83.5 365.5,-83.5 371.5,-89.5 371.5,-95.5 371.5,-95.5 371.5,-117.5 371.5,-117.5 371.5,-123.5 365.5,-129.5 359.5,-129.5 359.5,-129.5 254.5,-129.5 254.5,-129.5 248.5,-129.5 242.5,-123.5 242.5,-117.5 242.5,-117.5 242.5,-95.5 242.5,-95.5 242.5,-89.5 248.5,-83.5 254.5,-83.5"/>
<text text-anchor="middle" x="255.5" y="-114.3" font-family="Times,serif" font-size="14.00">8</text>
<polyline fill="none" stroke="black" points="268.5,-106.5 268.5,-129.5 "/>
<text text-anchor="middle" x="287.5" y="-114.3" font-family="Times,serif" font-size="14.00">OP</text>
<polyline fill="none" stroke="black" points="306.5,-106.5 306.5,-129.5 "/>
<text text-anchor="middle" x="339" y="-114.3" font-family="Times,serif" font-size="14.00">size=3</text>
<polyline fill="none" stroke="black" points="242.5,-106.5 371.5,-106.5 "/>
<text text-anchor="middle" x="307" y="-91.3" font-family="Times,serif" font-size="14.00">*</text>
</g>
<!-- node6&#45;&gt;node8 -->
<g id="edge14" class="edge">
<title>node6&#45;&gt;node8</title>
<path fill="none" stroke="green" d="M244.22,-166.37C252.29,-157.26 262.43,-146.58 272.24,-136.83"/>
<polygon fill="green" stroke="green" points="274.92,-139.1 279.62,-129.61 270.03,-134.1 274.92,-139.1"/>
</g>
<!-- node7&#45;&gt;node6 -->
<g id="edge13" class="edge">
<title>node7&#45;&gt;node6</title>
<path fill="none" stroke="blue" d="M178.38,-129.61C187.75,-138.62 198.07,-149.18 206.98,-158.85"/>
<polygon fill="blue" stroke="blue" points="204.47,-161.3 213.78,-166.37 209.66,-156.6 204.47,-161.3"/>
</g>
<!-- node8&#45;&gt;node6 -->
<g id="edge15" class="edge">
<title>node8&#45;&gt;node6</title>
<path fill="none" stroke="blue" d="M291.8,-129.61C283.74,-138.71 273.59,-149.39 263.79,-159.14"/>
<polygon fill="blue" stroke="blue" points="261.1,-156.87 256.4,-166.37 266,-161.87 261.1,-156.87"/>
</g>
<!-- node9 -->
<g id="node9" class="node">
<title>node9</title>
<path fill="pink" stroke="black" d="M164,-0.5C164,-0.5 286,-0.5 286,-0.5 292,-0.5 298,-6.5 298,-12.5 298,-12.5 298,-34.5 298,-34.5 298,-40.5 292,-46.5 286,-46.5 286,-46.5 164,-46.5 164,-46.5 158,-46.5 152,-40.5 152,-34.5 152,-34.5 152,-12.5 152,-12.5 152,-6.5 158,-0.5 164,-0.5"/>
<text text-anchor="middle" x="165" y="-31.3" font-family="Times,serif" font-size="14.00">9</text>
<polyline fill="none" stroke="black" points="178,-23.5 178,-46.5 "/>
<text text-anchor="middle" x="205.5" y="-31.3" font-family="Times,serif" font-size="14.00">NUM</text>
<polyline fill="none" stroke="black" points="233,-23.5 233,-46.5 "/>
<text text-anchor="middle" x="265.5" y="-31.3" font-family="Times,serif" font-size="14.00">size=1</text>
<polyline fill="none" stroke="black" points="152,-23.5 298,-23.5 "/>
<text text-anchor="middle" x="225" y="-8.3" font-family="Times,serif" font-size="14.00">2</text>
</g>
<!-- node8&#45;&gt;node9 -->
<g id="edge16" class="edge">
<title>node8&#45;&gt;node9</title>
<path fill="none" stroke="red" d="M278.5,-83.37C268.68,-74.35 257.84,-63.79 248.46,-54.12"/>
<polygon fill="red" stroke="red" points="250.73,-51.43 241.29,-46.61 245.66,-56.26 250.73,-51.43"/>
</g>
<!-- node10 -->
<g id="node10" class="node">
<title>node10</title>
<path fill="lightyellow" stroke="black" d="M328,-0.5C328,-0.5 450,-0.5 450,-0.5 456,-0.5 462,-6.5 462,-12.5 462,-12.5 462,-34.5 462,-34.5 462,-40.5 456,-46.5 450,-46.5 450,-46.5 328,-46.5 328,-46.5 322,-46.5 316,-40.5 316,-34.5 316,-34.5 316,-12.5 316,-12.5 316,-6.5 322,-0.5 328,-0.5"/>
<text text-anchor="middle" x="333.5" y="-31.3" font-family="Times,serif" font-size="14.00">10</text>
<polyline fill="none" stroke="black" points="351,-23.5 351,-46.5 "/>
<text text-anchor="middle" x="374" y="-31.3" font-family="Times,serif" font-size="14.00">VAR</text>
<polyline fill="none" stroke="black" points="397,-23.5 397,-46.5 "/>
<text text-anchor="middle" x="429.5" y="-31.3" font-family="Times,serif" font-size="14.00">size=1</text>
<polyline fill="none" stroke="black" points="316,-23.5 462,-23.5 "/>
<text text-anchor="middle" x="389" y="-8.3" font-family="Times,serif" font-size="14.00">x</text>
</g>
<!-- node8&#45;&gt;node10 -->
<g id="edge18" class="edge">
<title>node8&#45;&gt;node10</title>
<path fill="none" stroke="green" d="M323.32,-83.37C331.92,-74.17 342.71,-63.37 353.09,-53.55"/>
<polygon fill="green" stroke="green" points="355.61,-55.99 360.53,-46.61 350.83,-50.87 355.61,-55.99"/>
</g>
<!-- node9&#45;&gt;node8 -->
<g id="edge17" class="edge">
<title>node9&#45;&gt;node8</title>
<path fill="none" stroke="blue" d="M253.47,-46.61C263.29,-55.62 274.13,-66.18 283.51,-75.85"/>
<polygon fill="blue" stroke="blue" points="281.25,-78.55 290.68,-83.37 286.31,-73.71 281.25,-78.55"/>
</g>
<!-- node10&#45;&gt;node8 -->
<g id="edge19" class="edge">
<title>node10&#45;&gt;node8</title>
<path fill="none" stroke="blue" d="M372.71,-46.61C364.11,-55.8 353.32,-66.6 342.94,-76.42"/>
<polygon fill="blue" stroke="blue" points="340.42,-73.99 335.5,-83.37 345.2,-79.1 340.42,-73.99"/>
</g>
<!-- node11&#45;&gt;node2 -->
<g id="edge21" class="edge">
<title>node11&#45;&gt;node2</title>
<path fill="none" stroke="blue" d="M317.09,-378.61C317.72,-386.82 317.9,-396.31 317.62,-405.25"/>
<polygon fill="blue" stroke="blue" points="314.12,-405.2 317.09,-415.37 321.11,-405.56 314.12,-405.2"/>
</g>
<!-- node12&#45;&gt;node1 -->
<g id="edge23" class="edge">
<title>node12&#45;&gt;node1</title>
<path fill="none" stroke="blue" d="M454.71,-461.61C446.11,-470.8 435.32,-481.6 424.94,-491.42"/>
<polygon fill="blue" stroke="blue" points="422.42,-488.99 417.5,-498.37 427.2,-494.1 422.42,-488.99"/>
</g>
<!-- node13 -->
<g id="node13" class="node">
<title>node13</title>
<path fill="peachpuff" stroke="black" d="M419,-332.5C419,-332.5 533,-332.5 533,-332.5 539,-332.5 545,-338.5 545,-344.5 545,-344.5 545,-366.5 545,-366.5 545,-372.5 539,-378.5 533,-378.5 533,-378.5 419,-378.5 419,-378.5 413,-378.5 407,-372.5 407,-366.5 407,-366.5 407,-344.5 407,-344.5 407,-338.5 413,-332.5 419,-332.5"/>
<text text-anchor="middle" x="424.5" y="-363.3" font-family="Times,serif" font-size="14.00">13</text>
<polyline fill="none" stroke="black" points="442,-355.5 442,-378.5 "/>
<text text-anchor="middle" x="461" y="-363.3" font-family="Times,serif" font-size="14.00">OP</text>
<polyline fill="none" stroke="black" points="480,-355.5 480,-378.5 "/>
<text text-anchor="middle" x="512.5" y="-363.3" font-family="Times,serif" font-size="14.00">size=5</text>
<polyline fill="none" stroke="black" points="407,-355.5 545,-355.5 "/>
<text text-anchor="middle" x="476" y="-340.3" font-family="Times,serif" font-size="14.00">*</text>
</g>
<!-- node12&#45;&gt;node13 -->
<g id="edge24" class="edge">
<title>node12&#45;&gt;node13</title>
<path fill="none" stroke="green" d="M466.28,-415.37C466.15,-407.15 466.56,-397.66 467.39,-388.73"/>
<polygon fill="green" stroke="green" points="470.89,-388.94 468.55,-378.61 463.93,-388.14 470.89,-388.94"/>
</g>
<!-- node13&#45;&gt;node12 -->
<g id="edge25" class="edge">
<title>node13&#45;&gt;node12</title>
<path fill="none" stroke="blue" d="M480.72,-378.61C480.85,-386.82 480.44,-396.31 479.62,-405.25"/>
<polygon fill="blue" stroke="blue" points="476.12,-405.03 478.46,-415.37 483.07,-405.83 476.12,-405.03"/>
</g>
<!-- node14 -->
<g id="node14" class="node">
<title>node14</title>
<path fill="pink" stroke="black" d="M306.5,-249.5C306.5,-249.5 437.5,-249.5 437.5,-249.5 443.5,-249.5 449.5,-255.5 449.5,-261.5 449.5,-261.5 449.5,-283.5 449.5,-283.5 449.5,-289.5 443.5,-295.5 437.5,-295.5 437.5,-295.5 306.5,-295.5 306.5,-295.5 300.5,-295.5 294.5,-289.5 294.5,-283.5 294.5,-283.5 294.5,-261.5 294.5,-261.5 294.5,-255.5 300.5,-249.5 306.5,-249.5"/>
<text text-anchor="middle" x="312" y="-280.3" font-family="Times,serif" font-size="14.00">14</text>
<polyline fill="none" stroke="black" points="329.5,-272.5 329.5,-295.5 "/>
<text text-anchor="middle" x="357" y="-280.3" font-family="Times,serif" font-size="14.00">NUM</text>
<polyline fill="none" stroke="black" points="384.5,-272.5 384.5,-295.5 "/>
<text text-anchor="middle" x="417" y="-280.3" font-family="Times,serif" font-size="14.00">size=1</text>
<polyline fill="none" stroke="black" points="294.5,-272.5 449.5,-272.5 "/>
<text text-anchor="middle" x="372" y="-257.3" font-family="Times,serif" font-size="14.00">2</text>
</g>
<!-- node13&#45;&gt;node14 -->
<g id="edge26" class="edge">
<title>node13&#45;&gt;node14</title>
<path fill="none" stroke="red" d="M441.49,-332.37C428.73,-322.99 414.43,-311.95 402.08,-301.98"/>
<polygon fill="red" stroke="red" points="404.25,-299.23 394.3,-295.61 399.82,-304.65 404.25,-299.23"/>
</g>
<!-- node15 -->
<g id="node15" class="node">
<title>node15</title>
<path fill="peachpuff" stroke="black" d="M480,-249.5C480,-249.5 594,-249.5 594,-249.5 600,-249.5 606,-255.5 606,-261.5 606,-261.5 606,-283.5 606,-283.5 606,-289.5 600,-295.5 594,-295.5 594,-295.5 480,-295.5 480,-295.5 474,-295.5 468,-289.5 468,-283.5 468,-283.5 468,-261.5 468,-261.5 468,-255.5 474,-249.5 480,-249.5"/>
<text text-anchor="middle" x="485.5" y="-280.3" font-family="Times,serif" font-size="14.00">15</text>
<polyline fill="none" stroke="black" points="503,-272.5 503,-295.5 "/>
<text text-anchor="middle" x="522" y="-280.3" font-family="Times,serif" font-size="14.00">OP</text>
<polyline fill="none" stroke="black" points="541,-272.5 541,-295.5 "/>
<text text-anchor="middle" x="573.5" y="-280.3" font-family="Times,serif" font-size="14.00">size=3</text>
<polyline fill="none" stroke="black" points="468,-272.5 606,-272.5 "/>
<text text-anchor="middle" x="537" y="-257.3" font-family="Times,serif" font-size="14.00">^</text>
</g>
<!-- node13&#45;&gt;node15 -->
<g id="edge28" class="edge">
<title>node13&#45;&gt;node15</title>
<path fill="none" stroke="green" d="M486.58,-332.37C492.61,-323.44 500.33,-313 507.94,-303.41"/>
<polygon fill="green" stroke="green" points="510.68,-305.58 514.26,-295.61 505.25,-301.17 510.68,-305.58"/>
</g>
<!-- node14&#45;&gt;node13 -->
<g id="edge27" class="edge">
<title>node14&#45;&gt;node13</title>
<path fill="none" stroke="blue" d="M406.47,-295.61C419.23,-304.98 433.54,-316.02 445.88,-325.99"/>
<polygon fill="blue" stroke="blue" points="443.72,-328.75 453.67,-332.37 448.15,-323.33 443.72,-328.75"/>
</g>
<!-- node15&#45;&gt;node13 -->
<g id="edge29" class="edge">
<title>node15&#45;&gt;node13</title>
<path fill="none" stroke="blue" d="M526.44,-295.61C520.41,-304.53 512.7,-314.97 505.09,-324.56"/>
<polygon fill="blue" stroke="blue" points="502.34,-322.39 498.76,-332.37 507.78,-326.8 502.34,-322.39"/>
</g>
<!-- node16 -->
<g id="node16" class="node">
<title>node16</title>
<path fill="lightyellow" stroke="black" d="M369,-166.5C369,-166.5 491,-166.5 491,-166.5 497,-166.5 503,-172.5 503,-178.5 503,-178.5 503,-200.5 503,-200.5 503,-206.5 497,-212.5 491,-212.5 491,-212.5 369,-212.5 369,-212.5 363,-212.5 357,-206.5 357,-200.5 357,-200.5 357,-178.5 357,-178.5 357,-172.5 363,-166.5 369,-166.5"/>
<text text-anchor="middle" x="374.5" y="-197.3" font-family="Times,serif" font-size="14.00">16</text>
<polyline fill="none" stroke="black" points="392,-189.5 392,-212.5 "/>
<text text-anchor="middle" x="415" y="-197.3" font-family="Times,serif" font-size="14.00">VAR</text>
<polyline fill="none" stroke="black" points="438,-189.5 438,-212.5 "/>
<text text-anchor="middle" x="470.5" y="-197.3" font-family="Times,serif" font-size="14.00">size=1</text>
<polyline fill="none" stroke="black" points="357,-189.5 503,-189.5 "/>
<text text-anchor="middle" x="430" y="-174.3" font-family="Times,serif" font-size="14.00">x</text>
</g>
<!-- node15&#45;&gt;node16 -->
<g id="edge30" class="edge">
<title>node15&#45;&gt;node16</title>
<path fill="none" stroke="red" d="M501.67,-249.37C488.56,-239.99 473.85,-228.95 461.14,-218.98"/>
<polygon fill="red" stroke="red" points="463.12,-216.08 453.11,-212.61 458.77,-221.57 463.12,-216.08"/>
</g>
<!-- node17 -->
<g id="node17" class="node">
<title>node17</title>
<path fill="pink" stroke="black" d="M533.5,-166.5C533.5,-166.5 664.5,-166.5 664.5,-166.5 670.5,-166.5 676.5,-172.5 676.5,-178.5 676.5,-178.5 676.5,-200.5 676.5,-200.5 676.5,-206.5 670.5,-212.5 664.5,-212.5 664.5,-212.5 533.5,-212.5 533.5,-212.5 527.5,-212.5 521.5,-206.5 521.5,-200.5 521.5,-200.5 521.5,-178.5 521.5,-178.5 521.5,-172.5 527.5,-166.5 533.5,-166.5"/>
<text text-anchor="middle" x="539" y="-197.3" font-family="Times,serif" font-size="14.00">17</text>
<polyline fill="none" stroke="black" points="556.5,-189.5 556.5,-212.5 "/>
<text text-anchor="middle" x="584" y="-197.3" font-family="Times,serif" font-size="14.00">NUM</text>
<polyline fill="none" stroke="black" points="611.5,-189.5 611.5,-212.5 "/>
<text text-anchor="middle" x="644" y="-197.3" font-family="Times,serif" font-size="14.00">size=1</text>
<polyline fill="none" stroke="black" points="521.5,-189.5 676.5,-189.5 "/>
<text text-anchor="middle" x="599" y="-174.3" font-family="Times,serif" font-size="14.00">2</text>
</g>
<!-- node15&#45;&gt;node17 -->
<g id="edge32" class="edge">
<title>node15&#45;&gt;node17</title>
<path fill="none" stroke="green" d="M547.85,-249.37C554,-240.44 561.84,-230 569.57,-220.41"/>
<polygon fill="green" stroke="green" points="572.34,-222.55 575.99,-212.61 566.93,-218.1 572.34,-222.55"/>
</g>
<!-- node16&#45;&gt;node15 -->
<g id="edge31" class="edge">
<title>node16&#45;&gt;node15</title>
<path fill="none" stroke="blue" d="M465.29,-212.61C478.4,-221.98 493.11,-233.02 505.82,-242.99"/>
<polygon fill="blue" stroke="blue" points="503.84,-245.89 513.85,-249.37 508.2,-240.41 503.84,-245.89"/>
</g>
<!-- node17&#45;&gt;node15 -->
<g id="edge33" class="edge">
<title>node17&#45;&gt;node15</title>
<path fill="none" stroke="blue" d="M588.17,-212.61C582.02,-221.53 574.18,-231.97 566.46,-241.56"/>
<polygon fill="blue" stroke="blue" points="563.69,-239.42 560.03,-249.37 569.09,-243.87 563.69,-239.42"/>
</g>
</g>
</svg>
