<?xml version="1.0" encoding="UTF-8" standalone="no"?>
<!DOCTYPE svg PUBLIC "-//W3C//DTD SVG 1.1//EN"
 "http://www.w3.org/Graphics/SVG/1.1/DTD/svg11.dtd">
<!-- Generated by graphviz version 2.43.0 (0)
 -->
<!-- Title: %3 Pages: 1 -->
<svg width="1654pt" height="719pt"
 viewBox="0.00 0.00 1653.50 719.00" xmlns="http://www.w3.org/2000/svg" xmlns:xlink="http://www.w3.org/1999/xlink">
<g id="graph0" class="graph" transform="scale(1 1) rotate(0) translate(4 715)">
<title>%3</title>
<polygon fill="white" stroke="transparent" points="-4,4 -4,-715 1649.5,-715 1649.5,4 -4,4"/>
<!-- node1 -->
<g id="node1" class="node">
<title>node1</title>
<path fill="peachpuff" stroke="black" d="M423,-664.5C423,-664.5 537,-664.5 537,-664.5 543,-664.5 549,-670.5 549,-676.5 549,-676.5 549,-698.5 549,-698.5 549,-704.5 543,-710.5 537,-710.5 537,-710.5 423,-710.5 423,-710.5 417,-710.5 411,-704.5 411,-698.5 411,-698.5 411,-676.5 411,-676.5 411,-670.5 417,-664.5 423,-664.5"/>
<text text-anchor="middle" x="424" y="-695.3" font-family="Times,serif" font-size="14.00">1</text>
<polyline fill="none" stroke="black" points="437,-687.5 437,-710.5 "/>
<text text-anchor="middle" x="456" y="-695.3" font-family="Times,serif" font-size="14.00">OP</text>
<polyline fill="none" stroke="black" points="475,-687.5 475,-710.5 "/>
<text text-anchor="middle" x="512" y="-695.3" font-family="Times,serif" font-size="14.00">size=39</text>
<polyline fill="none" stroke="black" points="411,-687.5 549,-687.5 "/>
<text text-anchor="middle" x="480" y="-672.3" font-family="Times,serif" font-size="14.00">+</text>
</g>
<!-- node1&#45;&gt;node1 -->
<g id="edge1" class="edge">
<title>node1&#45;&gt;node1</title>
<path fill="none" stroke="blue" d="M549.27,-701.52C559.83,-699.38 567,-694.71 567,-687.5 567,-682.77 563.91,-679.13 558.81,-676.58"/>
<polygon fill="blue" stroke="blue" points="559.87,-673.25 549.27,-673.48 557.7,-679.9 559.87,-673.25"/>
</g>
<!-- node2 -->
<g id="node2" class="node">
<title>node2</title>
<path fill="peachpuff" stroke="black" d="M345.5,-581.5C345.5,-581.5 450.5,-581.5 450.5,-581.5 456.5,-581.5 462.5,-587.5 462.5,-593.5 462.5,-593.5 462.5,-615.5 462.5,-615.5 462.5,-621.5 456.5,-627.5 450.5,-627.5 450.5,-627.5 345.5,-627.5 345.5,-627.5 339.5,-627.5 333.5,-621.5 333.5,-615.5 333.5,-615.5 333.5,-593.5 333.5,-593.5 333.5,-587.5 339.5,-581.5 345.5,-581.5"/>
<text text-anchor="middle" x="346.5" y="-612.3" font-family="Times,serif" font-size="14.00">2</text>
<polyline fill="none" stroke="black" points="359.5,-604.5 359.5,-627.5 "/>
<text text-anchor="middle" x="378.5" y="-612.3" font-family="Times,serif" font-size="14.00">OP</text>
<polyline fill="none" stroke="black" points="397.5,-604.5 397.5,-627.5 "/>
<text text-anchor="middle" x="430" y="-612.3" font-family="Times,serif" font-size="14.00">size=9</text>
<polyline fill="none" stroke="black" points="333.5,-604.5 462.5,-604.5 "/>
<text text-anchor="middle" x="398" y="-589.3" font-family="Times,serif" font-size="14.00">*</text>
</g>
<!-- node1&#45;&gt;node2 -->
<g id="edge2" class="edge">
<title>node1&#45;&gt;node2</title>
<path fill="none" stroke="red" d="M451.5,-664.37C441.68,-655.35 430.84,-644.79 421.46,-635.12"/>
<polygon fill="red" stroke="red" points="423.73,-632.43 414.29,-627.61 418.66,-637.26 423.73,-632.43"/>
</g>
<!-- node11 -->
<g id="node11" class="node">
<title>node11</title>
<path fill="peachpuff" stroke="black" d="M501.5,-581.5C501.5,-581.5 624.5,-581.5 624.5,-581.5 630.5,-581.5 636.5,-587.5 636.5,-593.5 636.5,-593.5 636.5,-615.5 636.5,-615.5 636.5,-621.5 630.5,-627.5 624.5,-627.5 624.5,-627.5 501.5,-627.5 501.5,-627.5 495.5,-627.5 489.5,-621.5 489.5,-615.5 489.5,-615.5 489.5,-593.5 489.5,-593.5 489.5,-587.5 495.5,-581.5 501.5,-581.5"/>
<text text-anchor="middle" x="507" y="-612.3" font-family="Times,serif" font-size="14.00">11</text>
<polyline fill="none" stroke="black" points="524.5,-604.5 524.5,-627.5 "/>
<text text-anchor="middle" x="543.5" y="-612.3" font-family="Times,serif" font-size="14.00">OP</text>
<polyline fill="none" stroke="black" points="562.5,-604.5 562.5,-627.5 "/>
<text text-anchor="middle" x="599.5" y="-612.3" font-family="Times,serif" font-size="14.00">size=29</text>
<polyline fill="none" stroke="black" points="489.5,-604.5 636.5,-604.5 "/>
<text text-anchor="middle" x="563" y="-589.3" font-family="Times,serif" font-size="14.00">+</text>
</g>
<!-- node1&#45;&gt;node11 -->
<g id="edge20" class="edge">
<title>node1&#45;&gt;node11</title>
<path fill="none" stroke="green" d="M496.59,-664.37C505.31,-655.17 516.23,-644.37 526.73,-634.55"/>
<polygon fill="green" stroke="green" points="529.28,-636.96 534.26,-627.61 524.53,-631.81 529.28,-636.96"/>
</g>
<!-- node2&#45;&gt;node1 -->
<g id="edge3" class="edge">
<title>node2&#45;&gt;node1</title>
<path fill="none" stroke="blue" d="M426.47,-627.61C436.29,-636.62 447.13,-647.18 456.51,-656.85"/>
<polygon fill="blue" stroke="blue" points="454.25,-659.55 463.68,-664.37 459.31,-654.71 454.25,-659.55"/>
</g>
<!-- node3 -->
<g id="node3" class="node">
<title>node3</title>
<path fill="peachpuff" stroke="black" d="M184.5,-498.5C184.5,-498.5 289.5,-498.5 289.5,-498.5 295.5,-498.5 301.5,-504.5 301.5,-510.5 301.5,-510.5 301.5,-532.5 301.5,-532.5 301.5,-538.5 295.5,-544.5 289.5,-544.5 289.5,-544.5 184.5,-544.5 184.5,-544.5 178.5,-544.5 172.5,-538.5 172.5,-532.5 172.5,-532.5 172.5,-510.5 172.5,-510.5 172.5,-504.5 178.5,-498.5 184.5,-498.5"/>
<text text-anchor="middle" x="185.5" y="-529.3" font-family="Times,serif" font-size="14.00">3</text>
<polyline fill="none" stroke="black" points="198.5,-521.5 198.5,-544.5 "/>
<text text-anchor="middle" x="217.5" y="-529.3" font-family="Times,serif" font-size="14.00">OP</text>
<polyline fill="none" stroke="black" points="236.5,-521.5 236.5,-544.5 "/>
<text text-anchor="middle" x="269" y="-529.3" font-family="Times,serif" font-size="14.00">size=7</text>
<polyline fill="none" stroke="black" points="172.5,-521.5 301.5,-521.5 "/>
<text text-anchor="middle" x="237" y="-506.3" font-family="Times,serif" font-size="14.00">*</text>
</g>
<!-- node2&#45;&gt;node3 -->
<g id="edge4" class="edge">
<title>node2&#45;&gt;node3</title>
<path fill="none" stroke="red" d="M347.92,-581.37C327.45,-571.46 303.95,-559.68 283.83,-549.28"/>
<polygon fill="red" stroke="red" points="285.34,-546.12 274.85,-544.61 282.11,-552.33 285.34,-546.12"/>
</g>
<!-- node10 -->
<g id="node10" class="node">
<title>node10</title>
<path fill="pink" stroke="black" d="M332.5,-498.5C332.5,-498.5 463.5,-498.5 463.5,-498.5 469.5,-498.5 475.5,-504.5 475.5,-510.5 475.5,-510.5 475.5,-532.5 475.5,-532.5 475.5,-538.5 469.5,-544.5 463.5,-544.5 463.5,-544.5 332.5,-544.5 332.5,-544.5 326.5,-544.5 320.5,-538.5 320.5,-532.5 320.5,-532.5 320.5,-510.5 320.5,-510.5 320.5,-504.5 326.5,-498.5 332.5,-498.5"/>
<text text-anchor="middle" x="338" y="-529.3" font-family="Times,serif" font-size="14.00">10</text>
<polyline fill="none" stroke="black" points="355.5,-521.5 355.5,-544.5 "/>
<text text-anchor="middle" x="383" y="-529.3" font-family="Times,serif" font-size="14.00">NUM</text>
<polyline fill="none" stroke="black" points="410.5,-521.5 410.5,-544.5 "/>
<text text-anchor="middle" x="443" y="-529.3" font-family="Times,serif" font-size="14.00">size=1</text>
<polyline fill="none" stroke="black" points="320.5,-521.5 475.5,-521.5 "/>
<text text-anchor="middle" x="398" y="-506.3" font-family="Times,serif" font-size="14.00">1</text>
</g>
<!-- node2&#45;&gt;node10 -->
<g id="edge18" class="edge">
<title>node2&#45;&gt;node10</title>
<path fill="none" stroke="green" d="M391.91,-581.37C391.28,-573.15 391.1,-563.66 391.38,-554.73"/>
<polygon fill="green" stroke="green" points="394.88,-554.78 391.91,-544.61 387.89,-554.41 394.88,-554.78"/>
</g>
<!-- node3&#45;&gt;node2 -->
<g id="edge5" class="edge">
<title>node3&#45;&gt;node2</title>
<path fill="none" stroke="blue" d="M287.03,-544.61C307.49,-554.51 330.99,-566.29 351.11,-576.69"/>
<polygon fill="blue" stroke="blue" points="349.61,-579.86 360.1,-581.37 352.84,-573.65 349.61,-579.86"/>
</g>
<!-- node4 -->
<g id="node4" class="node">
<title>node4</title>
<path fill="pink" stroke="black" d="M20,-415.5C20,-415.5 142,-415.5 142,-415.5 148,-415.5 154,-421.5 154,-427.5 154,-427.5 154,-449.5 154,-449.5 154,-455.5 148,-461.5 142,-461.5 142,-461.5 20,-461.5 20,-461.5 14,-461.5 8,-455.5 8,-449.5 8,-449.5 8,-427.5 8,-427.5 8,-421.5 14,-415.5 20,-415.5"/>
<text text-anchor="middle" x="21" y="-446.3" font-family="Times,serif" font-size="14.00">4</text>
<polyline fill="none" stroke="black" points="34,-438.5 34,-461.5 "/>
<text text-anchor="middle" x="61.5" y="-446.3" font-family="Times,serif" font-size="14.00">NUM</text>
<polyline fill="none" stroke="black" points="89,-438.5 89,-461.5 "/>
<text text-anchor="middle" x="121.5" y="-446.3" font-family="Times,serif" font-size="14.00">size=1</text>
<polyline fill="none" stroke="black" points="8,-438.5 154,-438.5 "/>
<text text-anchor="middle" x="81" y="-423.3" font-family="Times,serif" font-size="14.00">3</text>
</g>
<!-- node3&#45;&gt;node4 -->
<g id="edge6" class="edge">
<title>node3&#45;&gt;node4</title>
<path fill="none" stroke="red" d="M188.28,-498.37C168.52,-488.5 145.86,-476.79 126.44,-466.42"/>
<polygon fill="red" stroke="red" points="127.95,-463.26 117.49,-461.61 124.64,-469.42 127.95,-463.26"/>
</g>
<!-- node5 -->
<g id="node5" class="node">
<title>node5</title>
<path fill="peachpuff" stroke="black" d="M184.5,-415.5C184.5,-415.5 289.5,-415.5 289.5,-415.5 295.5,-415.5 301.5,-421.5 301.5,-427.5 301.5,-427.5 301.5,-449.5 301.5,-449.5 301.5,-455.5 295.5,-461.5 289.5,-461.5 289.5,-461.5 184.5,-461.5 184.5,-461.5 178.5,-461.5 172.5,-455.5 172.5,-449.5 172.5,-449.5 172.5,-427.5 172.5,-427.5 172.5,-421.5 178.5,-415.5 184.5,-415.5"/>
<text text-anchor="middle" x="185.5" y="-446.3" font-family="Times,serif" font-size="14.00">5</text>
<polyline fill="none" stroke="black" points="198.5,-438.5 198.5,-461.5 "/>
<text text-anchor="middle" x="217.5" y="-446.3" font-family="Times,serif" font-size="14.00">OP</text>
<polyline fill="none" stroke="black" points="236.5,-438.5 236.5,-461.5 "/>
<text text-anchor="middle" x="269" y="-446.3" font-family="Times,serif" font-size="14.00">size=5</text>
<polyline fill="none" stroke="black" points="172.5,-438.5 301.5,-438.5 "/>
<text text-anchor="middle" x="237" y="-423.3" font-family="Times,serif" font-size="14.00">^</text>
</g>
<!-- node3&#45;&gt;node5 -->
<g id="edge8" class="edge">
<title>node3&#45;&gt;node5</title>
<path fill="none" stroke="green" d="M230.91,-498.37C230.28,-490.15 230.1,-480.66 230.38,-471.73"/>
<polygon fill="green" stroke="green" points="233.88,-471.78 230.91,-461.61 226.89,-471.41 233.88,-471.78"/>
</g>
<!-- node4&#45;&gt;node3 -->
<g id="edge7" class="edge">
<title>node4&#45;&gt;node3</title>
<path fill="none" stroke="blue" d="M129.66,-461.61C149.42,-471.47 172.08,-483.18 191.5,-493.55"/>
<polygon fill="blue" stroke="blue" points="190,-496.72 200.46,-498.37 193.31,-490.55 190,-496.72"/>
</g>
<!-- node5&#45;&gt;node3 -->
<g id="edge9" class="edge">
<title>node5&#45;&gt;node3</title>
<path fill="none" stroke="blue" d="M243.09,-461.61C243.72,-469.82 243.9,-479.31 243.62,-488.25"/>
<polygon fill="blue" stroke="blue" points="240.12,-488.2 243.09,-498.37 247.11,-488.56 240.12,-488.2"/>
</g>
<!-- node6 -->
<g id="node6" class="node">
<title>node6</title>
<path fill="lightyellow" stroke="black" d="M29.5,-332.5C29.5,-332.5 142.5,-332.5 142.5,-332.5 148.5,-332.5 154.5,-338.5 154.5,-344.5 154.5,-344.5 154.5,-366.5 154.5,-366.5 154.5,-372.5 148.5,-378.5 142.5,-378.5 142.5,-378.5 29.5,-378.5 29.5,-378.5 23.5,-378.5 17.5,-372.5 17.5,-366.5 17.5,-366.5 17.5,-344.5 17.5,-344.5 17.5,-338.5 23.5,-332.5 29.5,-332.5"/>
<text text-anchor="middle" x="30.5" y="-363.3" font-family="Times,serif" font-size="14.00">6</text>
<polyline fill="none" stroke="black" points="43.5,-355.5 43.5,-378.5 "/>
<text text-anchor="middle" x="66.5" y="-363.3" font-family="Times,serif" font-size="14.00">VAR</text>
<polyline fill="none" stroke="black" points="89.5,-355.5 89.5,-378.5 "/>
<text text-anchor="middle" x="122" y="-363.3" font-family="Times,serif" font-size="14.00">size=1</text>
<polyline fill="none" stroke="black" points="17.5,-355.5 154.5,-355.5 "/>
<text text-anchor="middle" x="86" y="-340.3" font-family="Times,serif" font-size="14.00">x</text>
</g>
<!-- node5&#45;&gt;node6 -->
<g id="edge10" class="edge">
<title>node5&#45;&gt;node6</title>
<path fill="none" stroke="red" d="M189.65,-415.37C170.58,-405.54 148.76,-393.89 130.04,-383.56"/>
<polygon fill="red" stroke="red" points="131.56,-380.4 121.12,-378.61 128.16,-386.52 131.56,-380.4"/>
</g>
<!-- node7 -->
<g id="node7" class="node">
<title>node7</title>
<path fill="peachpuff" stroke="black" d="M184.5,-332.5C184.5,-332.5 289.5,-332.5 289.5,-332.5 295.5,-332.5 301.5,-338.5 301.5,-344.5 301.5,-344.5 301.5,-366.5 301.5,-366.5 301.5,-372.5 295.5,-378.5 289.5,-378.5 289.5,-378.5 184.5,-378.5 184.5,-378.5 178.5,-378.5 172.5,-372.5 172.5,-366.5 172.5,-366.5 172.5,-344.5 172.5,-344.5 172.5,-338.5 178.5,-332.5 184.5,-332.5"/>
<text text-anchor="middle" x="185.5" y="-363.3" font-family="Times,serif" font-size="14.00">7</text>
<polyline fill="none" stroke="black" points="198.5,-355.5 198.5,-378.5 "/>
<text text-anchor="middle" x="217.5" y="-363.3" font-family="Times,serif" font-size="14.00">OP</text>
<polyline fill="none" stroke="black" points="236.5,-355.5 236.5,-378.5 "/>
<text text-anchor="middle" x="269" y="-363.3" font-family="Times,serif" font-size="14.00">size=3</text>
<polyline fill="none" stroke="black" points="172.5,-355.5 301.5,-355.5 "/>
<text text-anchor="middle" x="237" y="-340.3" font-family="Times,serif" font-size="14.00">&#45;</text>
</g>
<!-- node5&#45;&gt;node7 -->
<g id="edge12" class="edge">
<title>node5&#45;&gt;node7</title>
<path fill="none" stroke="green" d="M230.91,-415.37C230.28,-407.15 230.1,-397.66 230.38,-388.73"/>
<polygon fill="green" stroke="green" points="233.88,-388.78 230.91,-378.61 226.89,-388.41 233.88,-388.78"/>
</g>
<!-- node6&#45;&gt;node5 -->
<g id="edge11" class="edge">
<title>node6&#45;&gt;node5</title>
<path fill="none" stroke="blue" d="M133.3,-378.61C152.36,-388.43 174.19,-400.08 192.91,-410.41"/>
<polygon fill="blue" stroke="blue" points="191.39,-413.57 201.83,-415.37 194.79,-407.45 191.39,-413.57"/>
</g>
<!-- node7&#45;&gt;node5 -->
<g id="edge13" class="edge">
<title>node7&#45;&gt;node5</title>
<path fill="none" stroke="blue" d="M243.09,-378.61C243.72,-386.82 243.9,-396.31 243.62,-405.25"/>
<polygon fill="blue" stroke="blue" points="240.12,-405.2 243.09,-415.37 247.11,-405.56 240.12,-405.2"/>
</g>
<!-- node8 -->
<g id="node8" class="node">
<title>node8</title>
<path fill="pink" stroke="black" d="M12,-249.5C12,-249.5 134,-249.5 134,-249.5 140,-249.5 146,-255.5 146,-261.5 146,-261.5 146,-283.5 146,-283.5 146,-289.5 140,-295.5 134,-295.5 134,-295.5 12,-295.5 12,-295.5 6,-295.5 0,-289.5 0,-283.5 0,-283.5 0,-261.5 0,-261.5 0,-255.5 6,-249.5 12,-249.5"/>
<text text-anchor="middle" x="13" y="-280.3" font-family="Times,serif" font-size="14.00">8</text>
<polyline fill="none" stroke="black" points="26,-272.5 26,-295.5 "/>
<text text-anchor="middle" x="53.5" y="-280.3" font-family="Times,serif" font-size="14.00">NUM</text>
<polyline fill="none" stroke="black" points="81,-272.5 81,-295.5 "/>
<text text-anchor="middle" x="113.5" y="-280.3" font-family="Times,serif" font-size="14.00">size=1</text>
<polyline fill="none" stroke="black" points="0,-272.5 146,-272.5 "/>
<text text-anchor="middle" x="73" y="-257.3" font-family="Times,serif" font-size="14.00">3</text>
</g>
<!-- node7&#45;&gt;node8 -->
<g id="edge14" class="edge">
<title>node7&#45;&gt;node8</title>
<path fill="none" stroke="red" d="M186.1,-332.37C165.27,-322.46 141.33,-310.68 120.83,-300.28"/>
<polygon fill="red" stroke="red" points="122.17,-297.03 111.67,-295.61 118.99,-303.27 122.17,-297.03"/>
</g>
<!-- node9 -->
<g id="node9" class="node">
<title>node9</title>
<path fill="pink" stroke="black" d="M176,-249.5C176,-249.5 298,-249.5 298,-249.5 304,-249.5 310,-255.5 310,-261.5 310,-261.5 310,-283.5 310,-283.5 310,-289.5 304,-295.5 298,-295.5 298,-295.5 176,-295.5 176,-295.5 170,-295.5 164,-289.5 164,-283.5 164,-283.5 164,-261.5 164,-261.5 164,-255.5 170,-249.5 176,-249.5"/>
<text text-anchor="middle" x="177" y="-280.3" font-family="Times,serif" font-size="14.00">9</text>
<polyline fill="none" stroke="black" points="190,-272.5 190,-295.5 "/>
<text text-anchor="middle" x="217.5" y="-280.3" font-family="Times,serif" font-size="14.00">NUM</text>
<polyline fill="none" stroke="black" points="245,-272.5 245,-295.5 "/>
<text text-anchor="middle" x="277.5" y="-280.3" font-family="Times,serif" font-size="14.00">size=1</text>
<polyline fill="none" stroke="black" points="164,-272.5 310,-272.5 "/>
<text text-anchor="middle" x="237" y="-257.3" font-family="Times,serif" font-size="14.00">1</text>
</g>
<!-- node7&#45;&gt;node9 -->
<g id="edge16" class="edge">
<title>node7&#45;&gt;node9</title>
<path fill="none" stroke="green" d="M230.91,-332.37C230.28,-324.15 230.1,-314.66 230.38,-305.73"/>
<polygon fill="green" stroke="green" points="233.88,-305.78 230.91,-295.61 226.89,-305.41 233.88,-305.78"/>
</g>
<!-- node8&#45;&gt;node7 -->
<g id="edge15" class="edge">
<title>node8&#45;&gt;node7</title>
<path fill="none" stroke="blue" d="M123.85,-295.61C144.67,-305.51 168.61,-317.29 189.12,-327.69"/>
<polygon fill="blue" stroke="blue" points="187.78,-330.94 198.28,-332.37 190.96,-324.7 187.78,-330.94"/>
</g>
<!-- node9&#45;&gt;node7 -->
<g id="edge17" class="edge">
<title>node9&#45;&gt;node7</title>
<path fill="none" stroke="blue" d="M243.09,-295.61C243.72,-303.82 243.9,-313.31 243.62,-322.25"/>
<polygon fill="blue" stroke="blue" points="240.12,-322.2 243.09,-332.37 247.11,-322.56 240.12,-322.2"/>
</g>
<!-- node10&#45;&gt;node2 -->
<g id="edge19" class="edge">
<title>node10&#45;&gt;node2</title>
<path fill="none" stroke="blue" d="M404.09,-544.61C404.72,-552.82 404.9,-562.31 404.62,-571.25"/>
<polygon fill="blue" stroke="blue" points="401.12,-571.2 404.09,-581.37 408.11,-571.56 401.12,-571.2"/>
</g>
<!-- node11&#45;&gt;node1 -->
<g id="edge21" class="edge">
<title>node11&#45;&gt;node1</title>
<path fill="none" stroke="blue" d="M546.44,-627.61C537.72,-636.8 526.8,-647.6 516.3,-657.42"/>
<polygon fill="blue" stroke="blue" points="513.75,-655.01 508.77,-664.37 518.5,-660.16 513.75,-655.01"/>
</g>
<!-- node12 -->
<g id="node12" class="node">
<title>node12</title>
<path fill="peachpuff" stroke="black" d="M506,-498.5C506,-498.5 620,-498.5 620,-498.5 626,-498.5 632,-504.5 632,-510.5 632,-510.5 632,-532.5 632,-532.5 632,-538.5 626,-544.5 620,-544.5 620,-544.5 506,-544.5 506,-544.5 500,-544.5 494,-538.5 494,-532.5 494,-532.5 494,-510.5 494,-510.5 494,-504.5 500,-498.5 506,-498.5"/>
<text text-anchor="middle" x="511.5" y="-529.3" font-family="Times,serif" font-size="14.00">12</text>
<polyline fill="none" stroke="black" points="529,-521.5 529,-544.5 "/>
<text text-anchor="middle" x="548" y="-529.3" font-family="Times,serif" font-size="14.00">OP</text>
<polyline fill="none" stroke="black" points="567,-521.5 567,-544.5 "/>
<text text-anchor="middle" x="599.5" y="-529.3" font-family="Times,serif" font-size="14.00">size=7</text>
<polyline fill="none" stroke="black" points="494,-521.5 632,-521.5 "/>
<text text-anchor="middle" x="563" y="-506.3" font-family="Times,serif" font-size="14.00">*</text>
</g>
<!-- node11&#45;&gt;node12 -->
<g id="edge22" class="edge">
<title>node11&#45;&gt;node12</title>
<path fill="none" stroke="red" d="M556.91,-581.37C556.28,-573.15 556.1,-563.66 556.38,-554.73"/>
<polygon fill="red" stroke="red" points="559.88,-554.78 556.91,-544.61 552.89,-554.41 559.88,-554.78"/>
</g>
<!-- node19 -->
<g id="node19" class="node">
<title>node19</title>
<path fill="peachpuff" stroke="black" d="M674.5,-498.5C674.5,-498.5 797.5,-498.5 797.5,-498.5 803.5,-498.5 809.5,-504.5 809.5,-510.5 809.5,-510.5 809.5,-532.5 809.5,-532.5 809.5,-538.5 803.5,-544.5 797.5,-544.5 797.5,-544.5 674.5,-544.5 674.5,-544.5 668.5,-544.5 662.5,-538.5 662.5,-532.5 662.5,-532.5 662.5,-510.5 662.5,-510.5 662.5,-504.5 668.5,-498.5 674.5,-498.5"/>
<text text-anchor="middle" x="680" y="-529.3" font-family="Times,serif" font-size="14.00">19</text>
<polyline fill="none" stroke="black" points="697.5,-521.5 697.5,-544.5 "/>
<text text-anchor="middle" x="716.5" y="-529.3" font-family="Times,serif" font-size="14.00">OP</text>
<polyline fill="none" stroke="black" points="735.5,-521.5 735.5,-544.5 "/>
<text text-anchor="middle" x="772.5" y="-529.3" font-family="Times,serif" font-size="14.00">size=21</text>
<polyline fill="none" stroke="black" points="662.5,-521.5 809.5,-521.5 "/>
<text text-anchor="middle" x="736" y="-506.3" font-family="Times,serif" font-size="14.00">*</text>
</g>
<!-- node11&#45;&gt;node19 -->
<g id="edge36" class="edge">
<title>node11&#45;&gt;node19</title>
<path fill="none" stroke="green" d="M604.18,-581.37C624.86,-571.32 650.31,-559.36 673.34,-548.86"/>
<polygon fill="green" stroke="green" points="675.04,-551.93 682.7,-544.61 672.14,-545.56 675.04,-551.93"/>
</g>
<!-- node12&#45;&gt;node11 -->
<g id="edge23" class="edge">
<title>node12&#45;&gt;node11</title>
<path fill="none" stroke="blue" d="M569.09,-544.61C569.72,-552.82 569.9,-562.31 569.62,-571.25"/>
<polygon fill="blue" stroke="blue" points="566.12,-571.2 569.09,-581.37 573.11,-571.56 566.12,-571.2"/>
</g>
<!-- node13 -->
<g id="node13" class="node">
<title>node13</title>
<path fill="pink" stroke="black" d="M336.5,-415.5C336.5,-415.5 467.5,-415.5 467.5,-415.5 473.5,-415.5 479.5,-421.5 479.5,-427.5 479.5,-427.5 479.5,-449.5 479.5,-449.5 479.5,-455.5 473.5,-461.5 467.5,-461.5 467.5,-461.5 336.5,-461.5 336.5,-461.5 330.5,-461.5 324.5,-455.5 324.5,-449.5 324.5,-449.5 324.5,-427.5 324.5,-427.5 324.5,-421.5 330.5,-415.5 336.5,-415.5"/>
<text text-anchor="middle" x="342" y="-446.3" font-family="Times,serif" font-size="14.00">13</text>
<polyline fill="none" stroke="black" points="359.5,-438.5 359.5,-461.5 "/>
<text text-anchor="middle" x="387" y="-446.3" font-family="Times,serif" font-size="14.00">NUM</text>
<polyline fill="none" stroke="black" points="414.5,-438.5 414.5,-461.5 "/>
<text text-anchor="middle" x="447" y="-446.3" font-family="Times,serif" font-size="14.00">size=1</text>
<polyline fill="none" stroke="black" points="324.5,-438.5 479.5,-438.5 "/>
<text text-anchor="middle" x="402" y="-423.3" font-family="Times,serif" font-size="14.00">0</text>
</g>
<!-- node12&#45;&gt;node13 -->
<g id="edge24" class="edge">
<title>node12&#45;&gt;node13</title>
<path fill="none" stroke="red" d="M512.92,-498.37C492.45,-488.46 468.95,-476.68 448.83,-466.28"/>
<polygon fill="red" stroke="red" points="450.34,-463.12 439.85,-461.61 447.11,-469.33 450.34,-463.12"/>
</g>
<!-- node14 -->
<g id="node14" class="node">
<title>node14</title>
<path fill="peachpuff" stroke="black" d="M510,-415.5C510,-415.5 624,-415.5 624,-415.5 630,-415.5 636,-421.5 636,-427.5 636,-427.5 636,-449.5 636,-449.5 636,-455.5 630,-461.5 624,-461.5 624,-461.5 510,-461.5 510,-461.5 504,-461.5 498,-455.5 498,-449.5 498,-449.5 498,-427.5 498,-427.5 498,-421.5 504,-415.5 510,-415.5"/>
<text text-anchor="middle" x="515.5" y="-446.3" font-family="Times,serif" font-size="14.00">14</text>
<polyline fill="none" stroke="black" points="533,-438.5 533,-461.5 "/>
<text text-anchor="middle" x="552" y="-446.3" font-family="Times,serif" font-size="14.00">OP</text>
<polyline fill="none" stroke="black" points="571,-438.5 571,-461.5 "/>
<text text-anchor="middle" x="603.5" y="-446.3" font-family="Times,serif" font-size="14.00">size=5</text>
<polyline fill="none" stroke="black" points="498,-438.5 636,-438.5 "/>
<text text-anchor="middle" x="567" y="-423.3" font-family="Times,serif" font-size="14.00">^</text>
</g>
<!-- node12&#45;&gt;node14 -->
<g id="edge26" class="edge">
<title>node12&#45;&gt;node14</title>
<path fill="none" stroke="green" d="M558,-498.37C557.78,-490.15 558.07,-480.66 558.79,-471.73"/>
<polygon fill="green" stroke="green" points="562.28,-471.91 559.82,-461.61 555.32,-471.2 562.28,-471.91"/>
</g>
<!-- node13&#45;&gt;node12 -->
<g id="edge25" class="edge">
<title>node13&#45;&gt;node12</title>
<path fill="none" stroke="blue" d="M452.03,-461.61C472.49,-471.51 495.99,-483.29 516.11,-493.69"/>
<polygon fill="blue" stroke="blue" points="514.61,-496.86 525.1,-498.37 517.84,-490.65 514.61,-496.86"/>
</g>
<!-- node14&#45;&gt;node12 -->
<g id="edge27" class="edge">
<title>node14&#45;&gt;node12</title>
<path fill="none" stroke="blue" d="M572,-461.61C572.22,-469.82 571.93,-479.31 571.22,-488.25"/>
<polygon fill="blue" stroke="blue" points="567.72,-488.06 570.18,-498.37 574.68,-488.77 567.72,-488.06"/>
</g>
<!-- node15 -->
<g id="node15" class="node">
<title>node15</title>
<path fill="pink" stroke="black" d="M338.5,-332.5C338.5,-332.5 469.5,-332.5 469.5,-332.5 475.5,-332.5 481.5,-338.5 481.5,-344.5 481.5,-344.5 481.5,-366.5 481.5,-366.5 481.5,-372.5 475.5,-378.5 469.5,-378.5 469.5,-378.5 338.5,-378.5 338.5,-378.5 332.5,-378.5 326.5,-372.5 326.5,-366.5 326.5,-366.5 326.5,-344.5 326.5,-344.5 326.5,-338.5 332.5,-332.5 338.5,-332.5"/>
<text text-anchor="middle" x="344" y="-363.3" font-family="Times,serif" font-size="14.00">15</text>
<polyline fill="none" stroke="black" points="361.5,-355.5 361.5,-378.5 "/>
<text text-anchor="middle" x="389" y="-363.3" font-family="Times,serif" font-size="14.00">NUM</text>
<polyline fill="none" stroke="black" points="416.5,-355.5 416.5,-378.5 "/>
<text text-anchor="middle" x="449" y="-363.3" font-family="Times,serif" font-size="14.00">size=1</text>
<polyline fill="none" stroke="black" points="326.5,-355.5 481.5,-355.5 "/>
<text text-anchor="middle" x="404" y="-340.3" font-family="Times,serif" font-size="14.00">233685185</text>
</g>
<!-- node14&#45;&gt;node15 -->
<g id="edge28" class="edge">
<title>node14&#45;&gt;node15</title>
<path fill="none" stroke="red" d="M516.37,-415.37C495.66,-405.46 471.87,-393.68 451.49,-383.28"/>
<polygon fill="red" stroke="red" points="452.89,-380.06 442.4,-378.61 449.69,-386.29 452.89,-380.06"/>
</g>
<!-- node16 -->
<g id="node16" class="node">
<title>node16</title>
<path fill="peachpuff" stroke="black" d="M512,-332.5C512,-332.5 626,-332.5 626,-332.5 632,-332.5 638,-338.5 638,-344.5 638,-344.5 638,-366.5 638,-366.5 638,-372.5 632,-378.5 626,-378.5 626,-378.5 512,-378.5 512,-378.5 506,-378.5 500,-372.5 500,-366.5 500,-366.5 500,-344.5 500,-344.5 500,-338.5 506,-332.5 512,-332.5"/>
<text text-anchor="middle" x="517.5" y="-363.3" font-family="Times,serif" font-size="14.00">16</text>
<polyline fill="none" stroke="black" points="535,-355.5 535,-378.5 "/>
<text text-anchor="middle" x="554" y="-363.3" font-family="Times,serif" font-size="14.00">OP</text>
<polyline fill="none" stroke="black" points="573,-355.5 573,-378.5 "/>
<text text-anchor="middle" x="605.5" y="-363.3" font-family="Times,serif" font-size="14.00">size=3</text>
<polyline fill="none" stroke="black" points="500,-355.5 638,-355.5 "/>
<text text-anchor="middle" x="569" y="-340.3" font-family="Times,serif" font-size="14.00">^</text>
</g>
<!-- node14&#45;&gt;node16 -->
<g id="edge30" class="edge">
<title>node14&#45;&gt;node16</title>
<path fill="none" stroke="green" d="M561.46,-415.37C561.03,-407.15 561.08,-397.66 561.58,-388.73"/>
<polygon fill="green" stroke="green" points="565.08,-388.85 562.37,-378.61 558.1,-388.31 565.08,-388.85"/>
</g>
<!-- node15&#45;&gt;node14 -->
<g id="edge29" class="edge">
<title>node15&#45;&gt;node14</title>
<path fill="none" stroke="blue" d="M454.58,-378.61C475.28,-388.51 499.07,-400.29 519.45,-410.69"/>
<polygon fill="blue" stroke="blue" points="518.06,-413.91 528.55,-415.37 521.25,-407.68 518.06,-413.91"/>
</g>
<!-- node16&#45;&gt;node14 -->
<g id="edge31" class="edge">
<title>node16&#45;&gt;node14</title>
<path fill="none" stroke="blue" d="M574.54,-378.61C574.97,-386.82 574.92,-396.31 574.42,-405.25"/>
<polygon fill="blue" stroke="blue" points="570.92,-405.13 573.64,-415.37 577.9,-405.67 570.92,-405.13"/>
</g>
<!-- node17 -->
<g id="node17" class="node">
<title>node17</title>
<path fill="lightyellow" stroke="black" d="M340,-249.5C340,-249.5 462,-249.5 462,-249.5 468,-249.5 474,-255.5 474,-261.5 474,-261.5 474,-283.5 474,-283.5 474,-289.5 468,-295.5 462,-295.5 462,-295.5 340,-295.5 340,-295.5 334,-295.5 328,-289.5 328,-283.5 328,-283.5 328,-261.5 328,-261.5 328,-255.5 334,-249.5 340,-249.5"/>
<text text-anchor="middle" x="345.5" y="-280.3" font-family="Times,serif" font-size="14.00">17</text>
<polyline fill="none" stroke="black" points="363,-272.5 363,-295.5 "/>
<text text-anchor="middle" x="386" y="-280.3" font-family="Times,serif" font-size="14.00">VAR</text>
<polyline fill="none" stroke="black" points="409,-272.5 409,-295.5 "/>
<text text-anchor="middle" x="441.5" y="-280.3" font-family="Times,serif" font-size="14.00">size=1</text>
<polyline fill="none" stroke="black" points="328,-272.5 474,-272.5 "/>
<text text-anchor="middle" x="401" y="-257.3" font-family="Times,serif" font-size="14.00">x</text>
</g>
<!-- node16&#45;&gt;node17 -->
<g id="edge32" class="edge">
<title>node16&#45;&gt;node17</title>
<path fill="none" stroke="red" d="M517,-332.37C495.59,-322.41 470.94,-310.58 449.86,-300.14"/>
<polygon fill="red" stroke="red" points="451.27,-296.93 440.76,-295.61 448.15,-303.2 451.27,-296.93"/>
</g>
<!-- node18 -->
<g id="node18" class="node">
<title>node18</title>
<path fill="pink" stroke="black" d="M504.5,-249.5C504.5,-249.5 635.5,-249.5 635.5,-249.5 641.5,-249.5 647.5,-255.5 647.5,-261.5 647.5,-261.5 647.5,-283.5 647.5,-283.5 647.5,-289.5 641.5,-295.5 635.5,-295.5 635.5,-295.5 504.5,-295.5 504.5,-295.5 498.5,-295.5 492.5,-289.5 492.5,-283.5 492.5,-283.5 492.5,-261.5 492.5,-261.5 492.5,-255.5 498.5,-249.5 504.5,-249.5"/>
<text text-anchor="middle" x="510" y="-280.3" font-family="Times,serif" font-size="14.00">18</text>
<polyline fill="none" stroke="black" points="527.5,-272.5 527.5,-295.5 "/>
<text text-anchor="middle" x="555" y="-280.3" font-family="Times,serif" font-size="14.00">NUM</text>
<polyline fill="none" stroke="black" points="582.5,-272.5 582.5,-295.5 "/>
<text text-anchor="middle" x="615" y="-280.3" font-family="Times,serif" font-size="14.00">size=1</text>
<polyline fill="none" stroke="black" points="492.5,-272.5 647.5,-272.5 "/>
<text text-anchor="middle" x="570" y="-257.3" font-family="Times,serif" font-size="14.00">4</text>
</g>
<!-- node16&#45;&gt;node18 -->
<g id="edge34" class="edge">
<title>node16&#45;&gt;node18</title>
<path fill="none" stroke="green" d="M563.18,-332.37C562.65,-324.15 562.59,-314.66 562.98,-305.73"/>
<polygon fill="green" stroke="green" points="566.48,-305.81 563.64,-295.61 559.5,-305.36 566.48,-305.81"/>
</g>
<!-- node17&#45;&gt;node16 -->
<g id="edge33" class="edge">
<title>node17&#45;&gt;node16</title>
<path fill="none" stroke="blue" d="M452.94,-295.61C474.35,-305.56 498.99,-317.39 520.08,-327.83"/>
<polygon fill="blue" stroke="blue" points="518.67,-331.04 529.18,-332.37 521.79,-324.78 518.67,-331.04"/>
</g>
<!-- node18&#45;&gt;node16 -->
<g id="edge35" class="edge">
<title>node18&#45;&gt;node16</title>
<path fill="none" stroke="blue" d="M575.82,-295.61C576.35,-303.82 576.41,-313.31 576.02,-322.25"/>
<polygon fill="blue" stroke="blue" points="572.52,-322.16 575.36,-332.37 579.51,-322.61 572.52,-322.16"/>
</g>
<!-- node19&#45;&gt;node11 -->
<g id="edge37" class="edge">
<title>node19&#45;&gt;node11</title>
<path fill="none" stroke="blue" d="M694.87,-544.61C674.2,-554.65 648.76,-566.61 625.73,-577.11"/>
<polygon fill="blue" stroke="blue" points="624.02,-574.04 616.36,-581.37 626.92,-580.42 624.02,-574.04"/>
</g>
<!-- node20 -->
<g id="node20" class="node">
<title>node20</title>
<path fill="pink" stroke="black" d="M670.5,-415.5C670.5,-415.5 801.5,-415.5 801.5,-415.5 807.5,-415.5 813.5,-421.5 813.5,-427.5 813.5,-427.5 813.5,-449.5 813.5,-449.5 813.5,-455.5 807.5,-461.5 801.5,-461.5 801.5,-461.5 670.5,-461.5 670.5,-461.5 664.5,-461.5 658.5,-455.5 658.5,-449.5 658.5,-449.5 658.5,-427.5 658.5,-427.5 658.5,-421.5 664.5,-415.5 670.5,-415.5"/>
<text text-anchor="middle" x="676" y="-446.3" font-family="Times,serif" font-size="14.00">20</text>
<polyline fill="none" stroke="black" points="693.5,-438.5 693.5,-461.5 "/>
<text text-anchor="middle" x="721" y="-446.3" font-family="Times,serif" font-size="14.00">NUM</text>
<polyline fill="none" stroke="black" points="748.5,-438.5 748.5,-461.5 "/>
<text text-anchor="middle" x="781" y="-446.3" font-family="Times,serif" font-size="14.00">size=1</text>
<polyline fill="none" stroke="black" points="658.5,-438.5 813.5,-438.5 "/>
<text text-anchor="middle" x="736" y="-423.3" font-family="Times,serif" font-size="14.00">3</text>
</g>
<!-- node19&#45;&gt;node20 -->
<g id="edge38" class="edge">
<title>node19&#45;&gt;node20</title>
<path fill="none" stroke="red" d="M729.91,-498.37C729.28,-490.15 729.1,-480.66 729.38,-471.73"/>
<polygon fill="red" stroke="red" points="732.88,-471.78 729.91,-461.61 725.89,-471.41 732.88,-471.78"/>
</g>
<!-- node21 -->
<g id="node21" class="node">
<title>node21</title>
<path fill="peachpuff" stroke="black" d="M845.5,-415.5C845.5,-415.5 968.5,-415.5 968.5,-415.5 974.5,-415.5 980.5,-421.5 980.5,-427.5 980.5,-427.5 980.5,-449.5 980.5,-449.5 980.5,-455.5 974.5,-461.5 968.5,-461.5 968.5,-461.5 845.5,-461.5 845.5,-461.5 839.5,-461.5 833.5,-455.5 833.5,-449.5 833.5,-449.5 833.5,-427.5 833.5,-427.5 833.5,-421.5 839.5,-415.5 845.5,-415.5"/>
<text text-anchor="middle" x="851" y="-446.3" font-family="Times,serif" font-size="14.00">21</text>
<polyline fill="none" stroke="black" points="868.5,-438.5 868.5,-461.5 "/>
<text text-anchor="middle" x="887.5" y="-446.3" font-family="Times,serif" font-size="14.00">OP</text>
<polyline fill="none" stroke="black" points="906.5,-438.5 906.5,-461.5 "/>
<text text-anchor="middle" x="943.5" y="-446.3" font-family="Times,serif" font-size="14.00">size=19</text>
<polyline fill="none" stroke="black" points="833.5,-438.5 980.5,-438.5 "/>
<text text-anchor="middle" x="907" y="-423.3" font-family="Times,serif" font-size="14.00">*</text>
</g>
<!-- node19&#45;&gt;node21 -->
<g id="edge40" class="edge">
<title>node19&#45;&gt;node21</title>
<path fill="none" stroke="green" d="M776.64,-498.37C797.07,-488.32 822.22,-476.36 844.99,-465.86"/>
<polygon fill="green" stroke="green" points="846.61,-468.96 854.24,-461.61 843.69,-462.6 846.61,-468.96"/>
</g>
<!-- node20&#45;&gt;node19 -->
<g id="edge39" class="edge">
<title>node20&#45;&gt;node19</title>
<path fill="none" stroke="blue" d="M742.09,-461.61C742.72,-469.82 742.9,-479.31 742.62,-488.25"/>
<polygon fill="blue" stroke="blue" points="739.12,-488.2 742.09,-498.37 746.11,-488.56 739.12,-488.2"/>
</g>
<!-- node21&#45;&gt;node19 -->
<g id="edge41" class="edge">
<title>node21&#45;&gt;node19</title>
<path fill="none" stroke="blue" d="M866.42,-461.61C845.99,-471.65 820.84,-483.61 798.07,-494.11"/>
<polygon fill="blue" stroke="blue" points="796.44,-491.01 788.82,-498.37 799.37,-497.37 796.44,-491.01"/>
</g>
<!-- node22 -->
<g id="node22" class="node">
<title>node22</title>
<path fill="peachpuff" stroke="black" d="M850,-332.5C850,-332.5 964,-332.5 964,-332.5 970,-332.5 976,-338.5 976,-344.5 976,-344.5 976,-366.5 976,-366.5 976,-372.5 970,-378.5 964,-378.5 964,-378.5 850,-378.5 850,-378.5 844,-378.5 838,-372.5 838,-366.5 838,-366.5 838,-344.5 838,-344.5 838,-338.5 844,-332.5 850,-332.5"/>
<text text-anchor="middle" x="855.5" y="-363.3" font-family="Times,serif" font-size="14.00">22</text>
<polyline fill="none" stroke="black" points="873,-355.5 873,-378.5 "/>
<text text-anchor="middle" x="892" y="-363.3" font-family="Times,serif" font-size="14.00">OP</text>
<polyline fill="none" stroke="black" points="911,-355.5 911,-378.5 "/>
<text text-anchor="middle" x="943.5" y="-363.3" font-family="Times,serif" font-size="14.00">size=9</text>
<polyline fill="none" stroke="black" points="838,-355.5 976,-355.5 "/>
<text text-anchor="middle" x="907" y="-340.3" font-family="Times,serif" font-size="14.00">*</text>
</g>
<!-- node21&#45;&gt;node22 -->
<g id="edge42" class="edge">
<title>node21&#45;&gt;node22</title>
<path fill="none" stroke="red" d="M900.91,-415.37C900.28,-407.15 900.1,-397.66 900.38,-388.73"/>
<polygon fill="red" stroke="red" points="903.88,-388.78 900.91,-378.61 896.89,-388.41 903.88,-388.78"/>
</g>
<!-- node31 -->
<g id="node31" class="node">
<title>node31</title>
<path fill="peachpuff" stroke="black" d="M1180,-332.5C1180,-332.5 1294,-332.5 1294,-332.5 1300,-332.5 1306,-338.5 1306,-344.5 1306,-344.5 1306,-366.5 1306,-366.5 1306,-372.5 1300,-378.5 1294,-378.5 1294,-378.5 1180,-378.5 1180,-378.5 1174,-378.5 1168,-372.5 1168,-366.5 1168,-366.5 1168,-344.5 1168,-344.5 1168,-338.5 1174,-332.5 1180,-332.5"/>
<text text-anchor="middle" x="1185.5" y="-363.3" font-family="Times,serif" font-size="14.00">31</text>
<polyline fill="none" stroke="black" points="1203,-355.5 1203,-378.5 "/>
<text text-anchor="middle" x="1222" y="-363.3" font-family="Times,serif" font-size="14.00">OP</text>
<polyline fill="none" stroke="black" points="1241,-355.5 1241,-378.5 "/>
<text text-anchor="middle" x="1273.5" y="-363.3" font-family="Times,serif" font-size="14.00">size=9</text>
<polyline fill="none" stroke="black" points="1168,-355.5 1306,-355.5 "/>
<text text-anchor="middle" x="1237" y="-340.3" font-family="Times,serif" font-size="14.00">*</text>
</g>
<!-- node21&#45;&gt;node31 -->
<g id="edge60" class="edge">
<title>node21&#45;&gt;node31</title>
<path fill="none" stroke="green" d="M980.59,-418C1033.32,-404.75 1104.19,-387.37 1158.09,-374.47"/>
<polygon fill="green" stroke="green" points="1159.03,-377.84 1167.95,-372.11 1157.41,-371.03 1159.03,-377.84"/>
</g>
<!-- node22&#45;&gt;node21 -->
<g id="edge43" class="edge">
<title>node22&#45;&gt;node21</title>
<path fill="none" stroke="blue" d="M913.09,-378.61C913.72,-386.82 913.9,-396.31 913.62,-405.25"/>
<polygon fill="blue" stroke="blue" points="910.12,-405.2 913.09,-415.37 917.11,-405.56 910.12,-405.2"/>
</g>
<!-- node23 -->
<g id="node23" class="node">
<title>node23</title>
<path fill="peachpuff" stroke="black" d="M678,-249.5C678,-249.5 792,-249.5 792,-249.5 798,-249.5 804,-255.5 804,-261.5 804,-261.5 804,-283.5 804,-283.5 804,-289.5 798,-295.5 792,-295.5 792,-295.5 678,-295.5 678,-295.5 672,-295.5 666,-289.5 666,-283.5 666,-283.5 666,-261.5 666,-261.5 666,-255.5 672,-249.5 678,-249.5"/>
<text text-anchor="middle" x="683.5" y="-280.3" font-family="Times,serif" font-size="14.00">23</text>
<polyline fill="none" stroke="black" points="701,-272.5 701,-295.5 "/>
<text text-anchor="middle" x="720" y="-280.3" font-family="Times,serif" font-size="14.00">OP</text>
<polyline fill="none" stroke="black" points="739,-272.5 739,-295.5 "/>
<text text-anchor="middle" x="771.5" y="-280.3" font-family="Times,serif" font-size="14.00">size=3</text>
<polyline fill="none" stroke="black" points="666,-272.5 804,-272.5 "/>
<text text-anchor="middle" x="735" y="-257.3" font-family="Times,serif" font-size="14.00">log</text>
</g>
<!-- node22&#45;&gt;node23 -->
<g id="edge44" class="edge">
<title>node22&#45;&gt;node23</title>
<path fill="none" stroke="red" d="M853.91,-332.37C831.9,-322.37 806.55,-310.47 784.89,-300"/>
<polygon fill="red" stroke="red" points="786.38,-296.83 775.85,-295.61 783.32,-303.13 786.38,-296.83"/>
</g>
<!-- node26 -->
<g id="node26" class="node">
<title>node26</title>
<path fill="peachpuff" stroke="black" d="M850,-249.5C850,-249.5 964,-249.5 964,-249.5 970,-249.5 976,-255.5 976,-261.5 976,-261.5 976,-283.5 976,-283.5 976,-289.5 970,-295.5 964,-295.5 964,-295.5 850,-295.5 850,-295.5 844,-295.5 838,-289.5 838,-283.5 838,-283.5 838,-261.5 838,-261.5 838,-255.5 844,-249.5 850,-249.5"/>
<text text-anchor="middle" x="855.5" y="-280.3" font-family="Times,serif" font-size="14.00">26</text>
<polyline fill="none" stroke="black" points="873,-272.5 873,-295.5 "/>
<text text-anchor="middle" x="892" y="-280.3" font-family="Times,serif" font-size="14.00">OP</text>
<polyline fill="none" stroke="black" points="911,-272.5 911,-295.5 "/>
<text text-anchor="middle" x="943.5" y="-280.3" font-family="Times,serif" font-size="14.00">size=5</text>
<polyline fill="none" stroke="black" points="838,-272.5 976,-272.5 "/>
<text text-anchor="middle" x="907" y="-257.3" font-family="Times,serif" font-size="14.00">^</text>
</g>
<!-- node22&#45;&gt;node26 -->
<g id="edge50" class="edge">
<title>node22&#45;&gt;node26</title>
<path fill="none" stroke="green" d="M900.91,-332.37C900.28,-324.15 900.1,-314.66 900.38,-305.73"/>
<polygon fill="green" stroke="green" points="903.88,-305.78 900.91,-295.61 896.89,-305.41 903.88,-305.78"/>
</g>
<!-- node23&#45;&gt;node22 -->
<g id="edge45" class="edge">
<title>node23&#45;&gt;node22</title>
<path fill="none" stroke="blue" d="M788.03,-295.61C810.03,-305.6 835.39,-317.5 857.05,-327.97"/>
<polygon fill="blue" stroke="blue" points="855.57,-331.14 866.09,-332.37 858.63,-324.85 855.57,-331.14"/>
</g>
<!-- node24 -->
<g id="node24" class="node">
<title>node24</title>
<path fill="pink" stroke="black" d="M495.5,-166.5C495.5,-166.5 626.5,-166.5 626.5,-166.5 632.5,-166.5 638.5,-172.5 638.5,-178.5 638.5,-178.5 638.5,-200.5 638.5,-200.5 638.5,-206.5 632.5,-212.5 626.5,-212.5 626.5,-212.5 495.5,-212.5 495.5,-212.5 489.5,-212.5 483.5,-206.5 483.5,-200.5 483.5,-200.5 483.5,-178.5 483.5,-178.5 483.5,-172.5 489.5,-166.5 495.5,-166.5"/>
<text text-anchor="middle" x="501" y="-197.3" font-family="Times,serif" font-size="14.00">24</text>
<polyline fill="none" stroke="black" points="518.5,-189.5 518.5,-212.5 "/>
<text text-anchor="middle" x="546" y="-197.3" font-family="Times,serif" font-size="14.00">NUM</text>
<polyline fill="none" stroke="black" points="573.5,-189.5 573.5,-212.5 "/>
<text text-anchor="middle" x="606" y="-197.3" font-family="Times,serif" font-size="14.00">size=1</text>
<polyline fill="none" stroke="black" points="483.5,-189.5 638.5,-189.5 "/>
<text text-anchor="middle" x="561" y="-174.3" font-family="Times,serif" font-size="14.00">233685185</text>
</g>
<!-- node23&#45;&gt;node24 -->
<g id="edge46" class="edge">
<title>node23&#45;&gt;node24</title>
<path fill="none" stroke="red" d="M681.36,-249.37C659.11,-239.37 633.46,-227.47 611.54,-217"/>
<polygon fill="red" stroke="red" points="612.93,-213.78 602.4,-212.61 609.9,-220.09 612.93,-213.78"/>
</g>
<!-- node25 -->
<g id="node25" class="node">
<title>node25</title>
<path fill="pink" stroke="black" d="M668.5,-166.5C668.5,-166.5 799.5,-166.5 799.5,-166.5 805.5,-166.5 811.5,-172.5 811.5,-178.5 811.5,-178.5 811.5,-200.5 811.5,-200.5 811.5,-206.5 805.5,-212.5 799.5,-212.5 799.5,-212.5 668.5,-212.5 668.5,-212.5 662.5,-212.5 656.5,-206.5 656.5,-200.5 656.5,-200.5 656.5,-178.5 656.5,-178.5 656.5,-172.5 662.5,-166.5 668.5,-166.5"/>
<text text-anchor="middle" x="674" y="-197.3" font-family="Times,serif" font-size="14.00">25</text>
<polyline fill="none" stroke="black" points="691.5,-189.5 691.5,-212.5 "/>
<text text-anchor="middle" x="719" y="-197.3" font-family="Times,serif" font-size="14.00">NUM</text>
<polyline fill="none" stroke="black" points="746.5,-189.5 746.5,-212.5 "/>
<text text-anchor="middle" x="779" y="-197.3" font-family="Times,serif" font-size="14.00">size=1</text>
<polyline fill="none" stroke="black" points="656.5,-189.5 811.5,-189.5 "/>
<text text-anchor="middle" x="734" y="-174.3" font-family="Times,serif" font-size="14.00">233685185</text>
</g>
<!-- node23&#45;&gt;node25 -->
<g id="edge48" class="edge">
<title>node23&#45;&gt;node25</title>
<path fill="none" stroke="green" d="M728.64,-249.37C727.9,-241.15 727.61,-231.66 727.77,-222.73"/>
<polygon fill="green" stroke="green" points="731.28,-222.74 728.18,-212.61 724.28,-222.46 731.28,-222.74"/>
</g>
<!-- node24&#45;&gt;node23 -->
<g id="edge47" class="edge">
<title>node24&#45;&gt;node23</title>
<path fill="none" stroke="blue" d="M614.58,-212.61C636.82,-222.6 662.47,-234.5 684.4,-244.97"/>
<polygon fill="blue" stroke="blue" points="683.01,-248.19 693.54,-249.37 686.05,-241.88 683.01,-248.19"/>
</g>
<!-- node25&#45;&gt;node23 -->
<g id="edge49" class="edge">
<title>node25&#45;&gt;node23</title>
<path fill="none" stroke="blue" d="M740.36,-212.61C741.1,-220.82 741.39,-230.31 741.23,-239.25"/>
<polygon fill="blue" stroke="blue" points="737.72,-239.23 740.82,-249.37 744.72,-239.52 737.72,-239.23"/>
</g>
<!-- node26&#45;&gt;node22 -->
<g id="edge51" class="edge">
<title>node26&#45;&gt;node22</title>
<path fill="none" stroke="blue" d="M913.09,-295.61C913.72,-303.82 913.9,-313.31 913.62,-322.25"/>
<polygon fill="blue" stroke="blue" points="910.12,-322.2 913.09,-332.37 917.11,-322.56 910.12,-322.2"/>
</g>
<!-- node27 -->
<g id="node27" class="node">
<title>node27</title>
<path fill="pink" stroke="black" d="M841.5,-166.5C841.5,-166.5 972.5,-166.5 972.5,-166.5 978.5,-166.5 984.5,-172.5 984.5,-178.5 984.5,-178.5 984.5,-200.5 984.5,-200.5 984.5,-206.5 978.5,-212.5 972.5,-212.5 972.5,-212.5 841.5,-212.5 841.5,-212.5 835.5,-212.5 829.5,-206.5 829.5,-200.5 829.5,-200.5 829.5,-178.5 829.5,-178.5 829.5,-172.5 835.5,-166.5 841.5,-166.5"/>
<text text-anchor="middle" x="847" y="-197.3" font-family="Times,serif" font-size="14.00">27</text>
<polyline fill="none" stroke="black" points="864.5,-189.5 864.5,-212.5 "/>
<text text-anchor="middle" x="892" y="-197.3" font-family="Times,serif" font-size="14.00">NUM</text>
<polyline fill="none" stroke="black" points="919.5,-189.5 919.5,-212.5 "/>
<text text-anchor="middle" x="952" y="-197.3" font-family="Times,serif" font-size="14.00">size=1</text>
<polyline fill="none" stroke="black" points="829.5,-189.5 984.5,-189.5 "/>
<text text-anchor="middle" x="907" y="-174.3" font-family="Times,serif" font-size="14.00">233685185</text>
</g>
<!-- node26&#45;&gt;node27 -->
<g id="edge52" class="edge">
<title>node26&#45;&gt;node27</title>
<path fill="none" stroke="red" d="M900.91,-249.37C900.28,-241.15 900.1,-231.66 900.38,-222.73"/>
<polygon fill="red" stroke="red" points="903.88,-222.78 900.91,-212.61 896.89,-222.41 903.88,-222.78"/>
</g>
<!-- node28 -->
<g id="node28" class="node">
<title>node28</title>
<path fill="peachpuff" stroke="black" d="M1015,-166.5C1015,-166.5 1129,-166.5 1129,-166.5 1135,-166.5 1141,-172.5 1141,-178.5 1141,-178.5 1141,-200.5 1141,-200.5 1141,-206.5 1135,-212.5 1129,-212.5 1129,-212.5 1015,-212.5 1015,-212.5 1009,-212.5 1003,-206.5 1003,-200.5 1003,-200.5 1003,-178.5 1003,-178.5 1003,-172.5 1009,-166.5 1015,-166.5"/>
<text text-anchor="middle" x="1020.5" y="-197.3" font-family="Times,serif" font-size="14.00">28</text>
<polyline fill="none" stroke="black" points="1038,-189.5 1038,-212.5 "/>
<text text-anchor="middle" x="1057" y="-197.3" font-family="Times,serif" font-size="14.00">OP</text>
<polyline fill="none" stroke="black" points="1076,-189.5 1076,-212.5 "/>
<text text-anchor="middle" x="1108.5" y="-197.3" font-family="Times,serif" font-size="14.00">size=3</text>
<polyline fill="none" stroke="black" points="1003,-189.5 1141,-189.5 "/>
<text text-anchor="middle" x="1072" y="-174.3" font-family="Times,serif" font-size="14.00">^</text>
</g>
<!-- node26&#45;&gt;node28 -->
<g id="edge54" class="edge">
<title>node26&#45;&gt;node28</title>
<path fill="none" stroke="green" d="M946,-249.37C965.6,-239.37 989.74,-227.47 1011.64,-217"/>
<polygon fill="green" stroke="green" points="1013.35,-220.06 1020.88,-212.61 1010.34,-213.74 1013.35,-220.06"/>
</g>
<!-- node27&#45;&gt;node26 -->
<g id="edge53" class="edge">
<title>node27&#45;&gt;node26</title>
<path fill="none" stroke="blue" d="M913.09,-212.61C913.72,-220.82 913.9,-230.31 913.62,-239.25"/>
<polygon fill="blue" stroke="blue" points="910.12,-239.2 913.09,-249.37 917.11,-239.56 910.12,-239.2"/>
</g>
<!-- node28&#45;&gt;node26 -->
<g id="edge55" class="edge">
<title>node28&#45;&gt;node26</title>
<path fill="none" stroke="blue" d="M1033.06,-212.61C1013.46,-222.6 989.33,-234.5 967.41,-244.97"/>
<polygon fill="blue" stroke="blue" points="965.71,-241.91 958.18,-249.37 968.71,-248.23 965.71,-241.91"/>
</g>
<!-- node29 -->
<g id="node29" class="node">
<title>node29</title>
<path fill="lightyellow" stroke="black" d="M923,-83.5C923,-83.5 1045,-83.5 1045,-83.5 1051,-83.5 1057,-89.5 1057,-95.5 1057,-95.5 1057,-117.5 1057,-117.5 1057,-123.5 1051,-129.5 1045,-129.5 1045,-129.5 923,-129.5 923,-129.5 917,-129.5 911,-123.5 911,-117.5 911,-117.5 911,-95.5 911,-95.5 911,-89.5 917,-83.5 923,-83.5"/>
<text text-anchor="middle" x="928.5" y="-114.3" font-family="Times,serif" font-size="14.00">29</text>
<polyline fill="none" stroke="black" points="946,-106.5 946,-129.5 "/>
<text text-anchor="middle" x="969" y="-114.3" font-family="Times,serif" font-size="14.00">VAR</text>
<polyline fill="none" stroke="black" points="992,-106.5 992,-129.5 "/>
<text text-anchor="middle" x="1024.5" y="-114.3" font-family="Times,serif" font-size="14.00">size=1</text>
<polyline fill="none" stroke="black" points="911,-106.5 1057,-106.5 "/>
<text text-anchor="middle" x="984" y="-91.3" font-family="Times,serif" font-size="14.00">x</text>
</g>
<!-- node28&#45;&gt;node29 -->
<g id="edge56" class="edge">
<title>node28&#45;&gt;node29</title>
<path fill="none" stroke="red" d="M1041.86,-166.37C1031.27,-157.26 1019.52,-146.58 1009.35,-136.83"/>
<polygon fill="red" stroke="red" points="1011.54,-134.07 1001.93,-129.61 1006.65,-139.09 1011.54,-134.07"/>
</g>
<!-- node30 -->
<g id="node30" class="node">
<title>node30</title>
<path fill="pink" stroke="black" d="M1087.5,-83.5C1087.5,-83.5 1218.5,-83.5 1218.5,-83.5 1224.5,-83.5 1230.5,-89.5 1230.5,-95.5 1230.5,-95.5 1230.5,-117.5 1230.5,-117.5 1230.5,-123.5 1224.5,-129.5 1218.5,-129.5 1218.5,-129.5 1087.5,-129.5 1087.5,-129.5 1081.5,-129.5 1075.5,-123.5 1075.5,-117.5 1075.5,-117.5 1075.5,-95.5 1075.5,-95.5 1075.5,-89.5 1081.5,-83.5 1087.5,-83.5"/>
<text text-anchor="middle" x="1093" y="-114.3" font-family="Times,serif" font-size="14.00">30</text>
<polyline fill="none" stroke="black" points="1110.5,-106.5 1110.5,-129.5 "/>
<text text-anchor="middle" x="1138" y="-114.3" font-family="Times,serif" font-size="14.00">NUM</text>
<polyline fill="none" stroke="black" points="1165.5,-106.5 1165.5,-129.5 "/>
<text text-anchor="middle" x="1198" y="-114.3" font-family="Times,serif" font-size="14.00">size=1</text>
<polyline fill="none" stroke="black" points="1075.5,-106.5 1230.5,-106.5 "/>
<text text-anchor="middle" x="1153" y="-91.3" font-family="Times,serif" font-size="14.00">4</text>
</g>
<!-- node28&#45;&gt;node30 -->
<g id="edge58" class="edge">
<title>node28&#45;&gt;node30</title>
<path fill="none" stroke="green" d="M1088.04,-166.37C1096.53,-157.17 1107.19,-146.37 1117.45,-136.55"/>
<polygon fill="green" stroke="green" points="1119.93,-139.02 1124.8,-129.61 1115.13,-133.92 1119.93,-139.02"/>
</g>
<!-- node29&#45;&gt;node28 -->
<g id="edge57" class="edge">
<title>node29&#45;&gt;node28</title>
<path fill="none" stroke="blue" d="M1014.11,-129.61C1024.7,-138.71 1036.44,-149.39 1046.62,-159.14"/>
<polygon fill="blue" stroke="blue" points="1044.44,-161.9 1054.04,-166.37 1049.32,-156.88 1044.44,-161.9"/>
</g>
<!-- node30&#45;&gt;node28 -->
<g id="edge59" class="edge">
<title>node30&#45;&gt;node28</title>
<path fill="none" stroke="blue" d="M1136.98,-129.61C1128.5,-138.8 1117.84,-149.6 1107.58,-159.42"/>
<polygon fill="blue" stroke="blue" points="1105.1,-156.96 1100.22,-166.37 1109.9,-162.05 1105.1,-156.96"/>
</g>
<!-- node31&#45;&gt;node21 -->
<g id="edge61" class="edge">
<title>node31&#45;&gt;node21</title>
<path fill="none" stroke="blue" d="M1167.97,-374.86C1116.31,-387.86 1045.47,-405.25 990.61,-418.41"/>
<polygon fill="blue" stroke="blue" points="989.47,-415.08 980.56,-420.81 991.1,-421.89 989.47,-415.08"/>
</g>
<!-- node32 -->
<g id="node32" class="node">
<title>node32</title>
<path fill="peachpuff" stroke="black" d="M1180,-249.5C1180,-249.5 1294,-249.5 1294,-249.5 1300,-249.5 1306,-255.5 1306,-261.5 1306,-261.5 1306,-283.5 1306,-283.5 1306,-289.5 1300,-295.5 1294,-295.5 1294,-295.5 1180,-295.5 1180,-295.5 1174,-295.5 1168,-289.5 1168,-283.5 1168,-283.5 1168,-261.5 1168,-261.5 1168,-255.5 1174,-249.5 1180,-249.5"/>
<text text-anchor="middle" x="1185.5" y="-280.3" font-family="Times,serif" font-size="14.00">32</text>
<polyline fill="none" stroke="black" points="1203,-272.5 1203,-295.5 "/>
<text text-anchor="middle" x="1222" y="-280.3" font-family="Times,serif" font-size="14.00">OP</text>
<polyline fill="none" stroke="black" points="1241,-272.5 1241,-295.5 "/>
<text text-anchor="middle" x="1273.5" y="-280.3" font-family="Times,serif" font-size="14.00">size=7</text>
<polyline fill="none" stroke="black" points="1168,-272.5 1306,-272.5 "/>
<text text-anchor="middle" x="1237" y="-257.3" font-family="Times,serif" font-size="14.00">*</text>
</g>
<!-- node31&#45;&gt;node32 -->
<g id="edge62" class="edge">
<title>node31&#45;&gt;node32</title>
<path fill="none" stroke="red" d="M1230.91,-332.37C1230.28,-324.15 1230.1,-314.66 1230.38,-305.73"/>
<polygon fill="red" stroke="red" points="1233.88,-305.78 1230.91,-295.61 1226.89,-305.41 1233.88,-305.78"/>
</g>
<!-- node39 -->
<g id="node39" class="node">
<title>node39</title>
<path fill="pink" stroke="black" d="M1336.5,-249.5C1336.5,-249.5 1467.5,-249.5 1467.5,-249.5 1473.5,-249.5 1479.5,-255.5 1479.5,-261.5 1479.5,-261.5 1479.5,-283.5 1479.5,-283.5 1479.5,-289.5 1473.5,-295.5 1467.5,-295.5 1467.5,-295.5 1336.5,-295.5 1336.5,-295.5 1330.5,-295.5 1324.5,-289.5 1324.5,-283.5 1324.5,-283.5 1324.5,-261.5 1324.5,-261.5 1324.5,-255.5 1330.5,-249.5 1336.5,-249.5"/>
<text text-anchor="middle" x="1342" y="-280.3" font-family="Times,serif" font-size="14.00">39</text>
<polyline fill="none" stroke="black" points="1359.5,-272.5 1359.5,-295.5 "/>
<text text-anchor="middle" x="1387" y="-280.3" font-family="Times,serif" font-size="14.00">NUM</text>
<polyline fill="none" stroke="black" points="1414.5,-272.5 1414.5,-295.5 "/>
<text text-anchor="middle" x="1447" y="-280.3" font-family="Times,serif" font-size="14.00">size=1</text>
<polyline fill="none" stroke="black" points="1324.5,-272.5 1479.5,-272.5 "/>
<text text-anchor="middle" x="1402" y="-257.3" font-family="Times,serif" font-size="14.00">1</text>
</g>
<!-- node31&#45;&gt;node39 -->
<g id="edge76" class="edge">
<title>node31&#45;&gt;node39</title>
<path fill="none" stroke="green" d="M1276,-332.37C1295.6,-322.37 1319.74,-310.47 1341.64,-300"/>
<polygon fill="green" stroke="green" points="1343.35,-303.06 1350.88,-295.61 1340.34,-296.74 1343.35,-303.06"/>
</g>
<!-- node32&#45;&gt;node31 -->
<g id="edge63" class="edge">
<title>node32&#45;&gt;node31</title>
<path fill="none" stroke="blue" d="M1243.09,-295.61C1243.72,-303.82 1243.9,-313.31 1243.62,-322.25"/>
<polygon fill="blue" stroke="blue" points="1240.12,-322.2 1243.09,-332.37 1247.11,-322.56 1240.12,-322.2"/>
</g>
<!-- node33 -->
<g id="node33" class="node">
<title>node33</title>
<path fill="pink" stroke="black" d="M1171.5,-166.5C1171.5,-166.5 1302.5,-166.5 1302.5,-166.5 1308.5,-166.5 1314.5,-172.5 1314.5,-178.5 1314.5,-178.5 1314.5,-200.5 1314.5,-200.5 1314.5,-206.5 1308.5,-212.5 1302.5,-212.5 1302.5,-212.5 1171.5,-212.5 1171.5,-212.5 1165.5,-212.5 1159.5,-206.5 1159.5,-200.5 1159.5,-200.5 1159.5,-178.5 1159.5,-178.5 1159.5,-172.5 1165.5,-166.5 1171.5,-166.5"/>
<text text-anchor="middle" x="1177" y="-197.3" font-family="Times,serif" font-size="14.00">33</text>
<polyline fill="none" stroke="black" points="1194.5,-189.5 1194.5,-212.5 "/>
<text text-anchor="middle" x="1222" y="-197.3" font-family="Times,serif" font-size="14.00">NUM</text>
<polyline fill="none" stroke="black" points="1249.5,-189.5 1249.5,-212.5 "/>
<text text-anchor="middle" x="1282" y="-197.3" font-family="Times,serif" font-size="14.00">size=1</text>
<polyline fill="none" stroke="black" points="1159.5,-189.5 1314.5,-189.5 "/>
<text text-anchor="middle" x="1237" y="-174.3" font-family="Times,serif" font-size="14.00">4</text>
</g>
<!-- node32&#45;&gt;node33 -->
<g id="edge64" class="edge">
<title>node32&#45;&gt;node33</title>
<path fill="none" stroke="red" d="M1230.91,-249.37C1230.28,-241.15 1230.1,-231.66 1230.38,-222.73"/>
<polygon fill="red" stroke="red" points="1233.88,-222.78 1230.91,-212.61 1226.89,-222.41 1233.88,-222.78"/>
</g>
<!-- node34 -->
<g id="node34" class="node">
<title>node34</title>
<path fill="peachpuff" stroke="black" d="M1345,-166.5C1345,-166.5 1459,-166.5 1459,-166.5 1465,-166.5 1471,-172.5 1471,-178.5 1471,-178.5 1471,-200.5 1471,-200.5 1471,-206.5 1465,-212.5 1459,-212.5 1459,-212.5 1345,-212.5 1345,-212.5 1339,-212.5 1333,-206.5 1333,-200.5 1333,-200.5 1333,-178.5 1333,-178.5 1333,-172.5 1339,-166.5 1345,-166.5"/>
<text text-anchor="middle" x="1350.5" y="-197.3" font-family="Times,serif" font-size="14.00">34</text>
<polyline fill="none" stroke="black" points="1368,-189.5 1368,-212.5 "/>
<text text-anchor="middle" x="1387" y="-197.3" font-family="Times,serif" font-size="14.00">OP</text>
<polyline fill="none" stroke="black" points="1406,-189.5 1406,-212.5 "/>
<text text-anchor="middle" x="1438.5" y="-197.3" font-family="Times,serif" font-size="14.00">size=5</text>
<polyline fill="none" stroke="black" points="1333,-189.5 1471,-189.5 "/>
<text text-anchor="middle" x="1402" y="-174.3" font-family="Times,serif" font-size="14.00">^</text>
</g>
<!-- node32&#45;&gt;node34 -->
<g id="edge66" class="edge">
<title>node32&#45;&gt;node34</title>
<path fill="none" stroke="green" d="M1276,-249.37C1295.6,-239.37 1319.74,-227.47 1341.64,-217"/>
<polygon fill="green" stroke="green" points="1343.35,-220.06 1350.88,-212.61 1340.34,-213.74 1343.35,-220.06"/>
</g>
<!-- node33&#45;&gt;node32 -->
<g id="edge65" class="edge">
<title>node33&#45;&gt;node32</title>
<path fill="none" stroke="blue" d="M1243.09,-212.61C1243.72,-220.82 1243.9,-230.31 1243.62,-239.25"/>
<polygon fill="blue" stroke="blue" points="1240.12,-239.2 1243.09,-249.37 1247.11,-239.56 1240.12,-239.2"/>
</g>
<!-- node34&#45;&gt;node32 -->
<g id="edge67" class="edge">
<title>node34&#45;&gt;node32</title>
<path fill="none" stroke="blue" d="M1363.06,-212.61C1343.46,-222.6 1319.33,-234.5 1297.41,-244.97"/>
<polygon fill="blue" stroke="blue" points="1295.71,-241.91 1288.18,-249.37 1298.71,-248.23 1295.71,-241.91"/>
</g>
<!-- node35 -->
<g id="node35" class="node">
<title>node35</title>
<path fill="lightyellow" stroke="black" d="M1261,-83.5C1261,-83.5 1383,-83.5 1383,-83.5 1389,-83.5 1395,-89.5 1395,-95.5 1395,-95.5 1395,-117.5 1395,-117.5 1395,-123.5 1389,-129.5 1383,-129.5 1383,-129.5 1261,-129.5 1261,-129.5 1255,-129.5 1249,-123.5 1249,-117.5 1249,-117.5 1249,-95.5 1249,-95.5 1249,-89.5 1255,-83.5 1261,-83.5"/>
<text text-anchor="middle" x="1266.5" y="-114.3" font-family="Times,serif" font-size="14.00">35</text>
<polyline fill="none" stroke="black" points="1284,-106.5 1284,-129.5 "/>
<text text-anchor="middle" x="1307" y="-114.3" font-family="Times,serif" font-size="14.00">VAR</text>
<polyline fill="none" stroke="black" points="1330,-106.5 1330,-129.5 "/>
<text text-anchor="middle" x="1362.5" y="-114.3" font-family="Times,serif" font-size="14.00">size=1</text>
<polyline fill="none" stroke="black" points="1249,-106.5 1395,-106.5 "/>
<text text-anchor="middle" x="1322" y="-91.3" font-family="Times,serif" font-size="14.00">x</text>
</g>
<!-- node34&#45;&gt;node35 -->
<g id="edge68" class="edge">
<title>node34&#45;&gt;node35</title>
<path fill="none" stroke="red" d="M1374.05,-166.37C1364.45,-157.35 1353.87,-146.79 1344.73,-137.12"/>
<polygon fill="red" stroke="red" points="1347.12,-134.55 1337.75,-129.61 1341.99,-139.32 1347.12,-134.55"/>
</g>
<!-- node36 -->
<g id="node36" class="node">
<title>node36</title>
<path fill="peachpuff" stroke="black" d="M1425,-83.5C1425,-83.5 1539,-83.5 1539,-83.5 1545,-83.5 1551,-89.5 1551,-95.5 1551,-95.5 1551,-117.5 1551,-117.5 1551,-123.5 1545,-129.5 1539,-129.5 1539,-129.5 1425,-129.5 1425,-129.5 1419,-129.5 1413,-123.5 1413,-117.5 1413,-117.5 1413,-95.5 1413,-95.5 1413,-89.5 1419,-83.5 1425,-83.5"/>
<text text-anchor="middle" x="1430.5" y="-114.3" font-family="Times,serif" font-size="14.00">36</text>
<polyline fill="none" stroke="black" points="1448,-106.5 1448,-129.5 "/>
<text text-anchor="middle" x="1467" y="-114.3" font-family="Times,serif" font-size="14.00">OP</text>
<polyline fill="none" stroke="black" points="1486,-106.5 1486,-129.5 "/>
<text text-anchor="middle" x="1518.5" y="-114.3" font-family="Times,serif" font-size="14.00">size=3</text>
<polyline fill="none" stroke="black" points="1413,-106.5 1551,-106.5 "/>
<text text-anchor="middle" x="1482" y="-91.3" font-family="Times,serif" font-size="14.00">&#45;</text>
</g>
<!-- node34&#45;&gt;node36 -->
<g id="edge70" class="edge">
<title>node34&#45;&gt;node36</title>
<path fill="none" stroke="green" d="M1417.77,-166.37C1426.15,-157.17 1436.67,-146.37 1446.81,-136.55"/>
<polygon fill="green" stroke="green" points="1449.26,-139.04 1454.08,-129.61 1444.43,-133.98 1449.26,-139.04"/>
</g>
<!-- node35&#45;&gt;node34 -->
<g id="edge69" class="edge">
<title>node35&#45;&gt;node34</title>
<path fill="none" stroke="blue" d="M1349.92,-129.61C1359.52,-138.62 1370.1,-149.18 1379.25,-158.85"/>
<polygon fill="blue" stroke="blue" points="1376.86,-161.42 1386.23,-166.37 1381.99,-156.66 1376.86,-161.42"/>
</g>
<!-- node36&#45;&gt;node34 -->
<g id="edge71" class="edge">
<title>node36&#45;&gt;node34</title>
<path fill="none" stroke="blue" d="M1466.25,-129.61C1457.88,-138.8 1447.36,-149.6 1437.22,-159.42"/>
<polygon fill="blue" stroke="blue" points="1434.77,-156.93 1429.95,-166.37 1439.6,-161.99 1434.77,-156.93"/>
</g>
<!-- node37 -->
<g id="node37" class="node">
<title>node37</title>
<path fill="pink" stroke="black" d="M1329.5,-0.5C1329.5,-0.5 1460.5,-0.5 1460.5,-0.5 1466.5,-0.5 1472.5,-6.5 1472.5,-12.5 1472.5,-12.5 1472.5,-34.5 1472.5,-34.5 1472.5,-40.5 1466.5,-46.5 1460.5,-46.5 1460.5,-46.5 1329.5,-46.5 1329.5,-46.5 1323.5,-46.5 1317.5,-40.5 1317.5,-34.5 1317.5,-34.5 1317.5,-12.5 1317.5,-12.5 1317.5,-6.5 1323.5,-0.5 1329.5,-0.5"/>
<text text-anchor="middle" x="1335" y="-31.3" font-family="Times,serif" font-size="14.00">37</text>
<polyline fill="none" stroke="black" points="1352.5,-23.5 1352.5,-46.5 "/>
<text text-anchor="middle" x="1380" y="-31.3" font-family="Times,serif" font-size="14.00">NUM</text>
<polyline fill="none" stroke="black" points="1407.5,-23.5 1407.5,-46.5 "/>
<text text-anchor="middle" x="1440" y="-31.3" font-family="Times,serif" font-size="14.00">size=1</text>
<polyline fill="none" stroke="black" points="1317.5,-23.5 1472.5,-23.5 "/>
<text text-anchor="middle" x="1395" y="-8.3" font-family="Times,serif" font-size="14.00">4</text>
</g>
<!-- node36&#45;&gt;node37 -->
<g id="edge72" class="edge">
<title>node36&#45;&gt;node37</title>
<path fill="none" stroke="red" d="M1452.14,-83.37C1441.65,-74.26 1430.04,-63.58 1419.99,-53.83"/>
<polygon fill="red" stroke="red" points="1422.24,-51.13 1412.66,-46.61 1417.32,-56.12 1422.24,-51.13"/>
</g>
<!-- node38 -->
<g id="node38" class="node">
<title>node38</title>
<path fill="pink" stroke="black" d="M1502.5,-0.5C1502.5,-0.5 1633.5,-0.5 1633.5,-0.5 1639.5,-0.5 1645.5,-6.5 1645.5,-12.5 1645.5,-12.5 1645.5,-34.5 1645.5,-34.5 1645.5,-40.5 1639.5,-46.5 1633.5,-46.5 1633.5,-46.5 1502.5,-46.5 1502.5,-46.5 1496.5,-46.5 1490.5,-40.5 1490.5,-34.5 1490.5,-34.5 1490.5,-12.5 1490.5,-12.5 1490.5,-6.5 1496.5,-0.5 1502.5,-0.5"/>
<text text-anchor="middle" x="1508" y="-31.3" font-family="Times,serif" font-size="14.00">38</text>
<polyline fill="none" stroke="black" points="1525.5,-23.5 1525.5,-46.5 "/>
<text text-anchor="middle" x="1553" y="-31.3" font-family="Times,serif" font-size="14.00">NUM</text>
<polyline fill="none" stroke="black" points="1580.5,-23.5 1580.5,-46.5 "/>
<text text-anchor="middle" x="1613" y="-31.3" font-family="Times,serif" font-size="14.00">size=1</text>
<polyline fill="none" stroke="black" points="1490.5,-23.5 1645.5,-23.5 "/>
<text text-anchor="middle" x="1568" y="-8.3" font-family="Times,serif" font-size="14.00">1</text>
</g>
<!-- node36&#45;&gt;node38 -->
<g id="edge74" class="edge">
<title>node36&#45;&gt;node38</title>
<path fill="none" stroke="green" d="M1499.41,-83.37C1508.55,-74.08 1520.02,-63.16 1530.97,-53.26"/>
<polygon fill="green" stroke="green" points="1533.3,-55.87 1538.44,-46.61 1528.65,-50.65 1533.3,-55.87"/>
</g>
<!-- node37&#45;&gt;node36 -->
<g id="edge73" class="edge">
<title>node37&#45;&gt;node36</title>
<path fill="none" stroke="blue" d="M1424.83,-46.61C1435.31,-55.71 1446.93,-66.39 1456.98,-76.14"/>
<polygon fill="blue" stroke="blue" points="1454.74,-78.84 1464.32,-83.37 1459.65,-73.85 1454.74,-78.84"/>
</g>
<!-- node38&#45;&gt;node36 -->
<g id="edge75" class="edge">
<title>node38&#45;&gt;node36</title>
<path fill="none" stroke="blue" d="M1550.62,-46.61C1541.48,-55.89 1530.02,-66.81 1519.06,-76.71"/>
<polygon fill="blue" stroke="blue" points="1516.73,-74.1 1511.59,-83.37 1521.38,-79.33 1516.73,-74.1"/>
</g>
<!-- node39&#45;&gt;node31 -->
<g id="edge77" class="edge">
<title>node39&#45;&gt;node31</title>
<path fill="none" stroke="blue" d="M1363.06,-295.61C1343.46,-305.6 1319.33,-317.5 1297.41,-327.97"/>
<polygon fill="blue" stroke="blue" points="1295.71,-324.91 1288.18,-332.37 1298.71,-331.23 1295.71,-324.91"/>
</g>
</g>
</svg>
