<?xml version="1.0" encoding="UTF-8" standalone="no"?>
<!DOCTYPE svg PUBLIC "-//W3C//DTD SVG 1.1//EN"
 "http://www.w3.org/Graphics/SVG/1.1/DTD/svg11.dtd">
<!-- Generated by graphviz version 2.43.0 (0)
 -->
<!-- Title: %3 Pages: 1 -->
<svg width="1578pt" height="802pt"
 viewBox="0.00 0.00 1577.50 802.00" xmlns="http://www.w3.org/2000/svg" xmlns:xlink="http://www.w3.org/1999/xlink">
<g id="graph0" class="graph" transform="scale(1 1) rotate(0) translate(4 798)">
<title>%3</title>
<polygon fill="white" stroke="transparent" points="-4,4 -4,-798 1573.5,-798 1573.5,4 -4,4"/>
<!-- node1 -->
<g id="node1" class="node">
<title>node1</title>
<path fill="peachpuff" stroke="black" d="M930,-747.5C930,-747.5 1044,-747.5 1044,-747.5 1050,-747.5 1056,-753.5 1056,-759.5 1056,-759.5 1056,-781.5 1056,-781.5 1056,-787.5 1050,-793.5 1044,-793.5 1044,-793.5 930,-793.5 930,-793.5 924,-793.5 918,-787.5 918,-781.5 918,-781.5 918,-759.5 918,-759.5 918,-753.5 924,-747.5 930,-747.5"/>
<text text-anchor="middle" x="931" y="-778.3" font-family="Times,serif" font-size="14.00">1</text>
<polyline fill="none" stroke="black" points="944,-770.5 944,-793.5 "/>
<text text-anchor="middle" x="963" y="-778.3" font-family="Times,serif" font-size="14.00">OP</text>
<polyline fill="none" stroke="black" points="982,-770.5 982,-793.5 "/>
<text text-anchor="middle" x="1019" y="-778.3" font-family="Times,serif" font-size="14.00">size=41</text>
<polyline fill="none" stroke="black" points="918,-770.5 1056,-770.5 "/>
<text text-anchor="middle" x="987" y="-755.3" font-family="Times,serif" font-size="14.00">+</text>
</g>
<!-- node1&#45;&gt;node1 -->
<g id="edge1" class="edge">
<title>node1&#45;&gt;node1</title>
<path fill="none" stroke="blue" d="M1056.27,-784.52C1066.83,-782.38 1074,-777.71 1074,-770.5 1074,-765.77 1070.91,-762.13 1065.81,-759.58"/>
<polygon fill="blue" stroke="blue" points="1066.87,-756.25 1056.27,-756.48 1064.7,-762.9 1066.87,-756.25"/>
</g>
<!-- node2 -->
<g id="node2" class="node">
<title>node2</title>
<path fill="peachpuff" stroke="black" d="M852,-664.5C852,-664.5 966,-664.5 966,-664.5 972,-664.5 978,-670.5 978,-676.5 978,-676.5 978,-698.5 978,-698.5 978,-704.5 972,-710.5 966,-710.5 966,-710.5 852,-710.5 852,-710.5 846,-710.5 840,-704.5 840,-698.5 840,-698.5 840,-676.5 840,-676.5 840,-670.5 846,-664.5 852,-664.5"/>
<text text-anchor="middle" x="853" y="-695.3" font-family="Times,serif" font-size="14.00">2</text>
<polyline fill="none" stroke="black" points="866,-687.5 866,-710.5 "/>
<text text-anchor="middle" x="885" y="-695.3" font-family="Times,serif" font-size="14.00">OP</text>
<polyline fill="none" stroke="black" points="904,-687.5 904,-710.5 "/>
<text text-anchor="middle" x="941" y="-695.3" font-family="Times,serif" font-size="14.00">size=35</text>
<polyline fill="none" stroke="black" points="840,-687.5 978,-687.5 "/>
<text text-anchor="middle" x="909" y="-672.3" font-family="Times,serif" font-size="14.00">+</text>
</g>
<!-- node1&#45;&gt;node2 -->
<g id="edge2" class="edge">
<title>node1&#45;&gt;node2</title>
<path fill="none" stroke="red" d="M959.6,-747.37C950.22,-738.35 939.9,-727.79 931,-718.12"/>
<polygon fill="red" stroke="red" points="933.5,-715.68 924.2,-710.61 928.31,-720.37 933.5,-715.68"/>
</g>
<!-- node37 -->
<g id="node37" class="node">
<title>node37</title>
<path fill="peachpuff" stroke="black" d="M1010,-664.5C1010,-664.5 1124,-664.5 1124,-664.5 1130,-664.5 1136,-670.5 1136,-676.5 1136,-676.5 1136,-698.5 1136,-698.5 1136,-704.5 1130,-710.5 1124,-710.5 1124,-710.5 1010,-710.5 1010,-710.5 1004,-710.5 998,-704.5 998,-698.5 998,-698.5 998,-676.5 998,-676.5 998,-670.5 1004,-664.5 1010,-664.5"/>
<text text-anchor="middle" x="1015.5" y="-695.3" font-family="Times,serif" font-size="14.00">37</text>
<polyline fill="none" stroke="black" points="1033,-687.5 1033,-710.5 "/>
<text text-anchor="middle" x="1052" y="-695.3" font-family="Times,serif" font-size="14.00">OP</text>
<polyline fill="none" stroke="black" points="1071,-687.5 1071,-710.5 "/>
<text text-anchor="middle" x="1103.5" y="-695.3" font-family="Times,serif" font-size="14.00">size=5</text>
<polyline fill="none" stroke="black" points="998,-687.5 1136,-687.5 "/>
<text text-anchor="middle" x="1067" y="-672.3" font-family="Times,serif" font-size="14.00">cos</text>
</g>
<!-- node1&#45;&gt;node37 -->
<g id="edge72" class="edge">
<title>node1&#45;&gt;node37</title>
<path fill="none" stroke="green" d="M1002.77,-747.37C1011.15,-738.17 1021.67,-727.37 1031.81,-717.55"/>
<polygon fill="green" stroke="green" points="1034.26,-720.04 1039.08,-710.61 1029.43,-714.98 1034.26,-720.04"/>
</g>
<!-- node2&#45;&gt;node1 -->
<g id="edge3" class="edge">
<title>node2&#45;&gt;node1</title>
<path fill="none" stroke="blue" d="M936.38,-710.61C945.75,-719.62 956.07,-730.18 964.98,-739.85"/>
<polygon fill="blue" stroke="blue" points="962.47,-742.3 971.78,-747.37 967.66,-737.6 962.47,-742.3"/>
</g>
<!-- node3 -->
<g id="node3" class="node">
<title>node3</title>
<path fill="peachpuff" stroke="black" d="M692,-581.5C692,-581.5 806,-581.5 806,-581.5 812,-581.5 818,-587.5 818,-593.5 818,-593.5 818,-615.5 818,-615.5 818,-621.5 812,-627.5 806,-627.5 806,-627.5 692,-627.5 692,-627.5 686,-627.5 680,-621.5 680,-615.5 680,-615.5 680,-593.5 680,-593.5 680,-587.5 686,-581.5 692,-581.5"/>
<text text-anchor="middle" x="693" y="-612.3" font-family="Times,serif" font-size="14.00">3</text>
<polyline fill="none" stroke="black" points="706,-604.5 706,-627.5 "/>
<text text-anchor="middle" x="725" y="-612.3" font-family="Times,serif" font-size="14.00">OP</text>
<polyline fill="none" stroke="black" points="744,-604.5 744,-627.5 "/>
<text text-anchor="middle" x="781" y="-612.3" font-family="Times,serif" font-size="14.00">size=33</text>
<polyline fill="none" stroke="black" points="680,-604.5 818,-604.5 "/>
<text text-anchor="middle" x="749" y="-589.3" font-family="Times,serif" font-size="14.00">&#45;</text>
</g>
<!-- node2&#45;&gt;node3 -->
<g id="edge4" class="edge">
<title>node2&#45;&gt;node3</title>
<path fill="none" stroke="red" d="M859.19,-664.37C838.85,-654.46 815.49,-642.68 795.5,-632.28"/>
<polygon fill="red" stroke="red" points="797.06,-629.14 786.58,-627.61 793.82,-635.35 797.06,-629.14"/>
</g>
<!-- node36 -->
<g id="node36" class="node">
<title>node36</title>
<path fill="lightyellow" stroke="black" d="M848,-581.5C848,-581.5 970,-581.5 970,-581.5 976,-581.5 982,-587.5 982,-593.5 982,-593.5 982,-615.5 982,-615.5 982,-621.5 976,-627.5 970,-627.5 970,-627.5 848,-627.5 848,-627.5 842,-627.5 836,-621.5 836,-615.5 836,-615.5 836,-593.5 836,-593.5 836,-587.5 842,-581.5 848,-581.5"/>
<text text-anchor="middle" x="853.5" y="-612.3" font-family="Times,serif" font-size="14.00">36</text>
<polyline fill="none" stroke="black" points="871,-604.5 871,-627.5 "/>
<text text-anchor="middle" x="894" y="-612.3" font-family="Times,serif" font-size="14.00">VAR</text>
<polyline fill="none" stroke="black" points="917,-604.5 917,-627.5 "/>
<text text-anchor="middle" x="949.5" y="-612.3" font-family="Times,serif" font-size="14.00">size=1</text>
<polyline fill="none" stroke="black" points="836,-604.5 982,-604.5 "/>
<text text-anchor="middle" x="909" y="-589.3" font-family="Times,serif" font-size="14.00">x</text>
</g>
<!-- node2&#45;&gt;node36 -->
<g id="edge70" class="edge">
<title>node2&#45;&gt;node36</title>
<path fill="none" stroke="green" d="M902.91,-664.37C902.28,-656.15 902.1,-646.66 902.38,-637.73"/>
<polygon fill="green" stroke="green" points="905.88,-637.78 902.91,-627.61 898.89,-637.41 905.88,-637.78"/>
</g>
<!-- node3&#45;&gt;node2 -->
<g id="edge5" class="edge">
<title>node3&#45;&gt;node2</title>
<path fill="none" stroke="blue" d="M798.76,-627.61C819.09,-637.51 842.45,-649.29 862.44,-659.69"/>
<polygon fill="blue" stroke="blue" points="860.89,-662.83 871.37,-664.37 864.13,-656.63 860.89,-662.83"/>
</g>
<!-- node4 -->
<g id="node4" class="node">
<title>node4</title>
<path fill="peachpuff" stroke="black" d="M612,-498.5C612,-498.5 726,-498.5 726,-498.5 732,-498.5 738,-504.5 738,-510.5 738,-510.5 738,-532.5 738,-532.5 738,-538.5 732,-544.5 726,-544.5 726,-544.5 612,-544.5 612,-544.5 606,-544.5 600,-538.5 600,-532.5 600,-532.5 600,-510.5 600,-510.5 600,-504.5 606,-498.5 612,-498.5"/>
<text text-anchor="middle" x="613" y="-529.3" font-family="Times,serif" font-size="14.00">4</text>
<polyline fill="none" stroke="black" points="626,-521.5 626,-544.5 "/>
<text text-anchor="middle" x="645" y="-529.3" font-family="Times,serif" font-size="14.00">OP</text>
<polyline fill="none" stroke="black" points="664,-521.5 664,-544.5 "/>
<text text-anchor="middle" x="701" y="-529.3" font-family="Times,serif" font-size="14.00">size=31</text>
<polyline fill="none" stroke="black" points="600,-521.5 738,-521.5 "/>
<text text-anchor="middle" x="669" y="-506.3" font-family="Times,serif" font-size="14.00">*</text>
</g>
<!-- node3&#45;&gt;node4 -->
<g id="edge6" class="edge">
<title>node3&#45;&gt;node4</title>
<path fill="none" stroke="red" d="M721.05,-581.37C711.45,-572.35 700.87,-561.79 691.73,-552.12"/>
<polygon fill="red" stroke="red" points="694.12,-549.55 684.75,-544.61 688.99,-554.32 694.12,-549.55"/>
</g>
<!-- node35 -->
<g id="node35" class="node">
<title>node35</title>
<path fill="lightyellow" stroke="black" d="M768,-498.5C768,-498.5 890,-498.5 890,-498.5 896,-498.5 902,-504.5 902,-510.5 902,-510.5 902,-532.5 902,-532.5 902,-538.5 896,-544.5 890,-544.5 890,-544.5 768,-544.5 768,-544.5 762,-544.5 756,-538.5 756,-532.5 756,-532.5 756,-510.5 756,-510.5 756,-504.5 762,-498.5 768,-498.5"/>
<text text-anchor="middle" x="773.5" y="-529.3" font-family="Times,serif" font-size="14.00">35</text>
<polyline fill="none" stroke="black" points="791,-521.5 791,-544.5 "/>
<text text-anchor="middle" x="814" y="-529.3" font-family="Times,serif" font-size="14.00">VAR</text>
<polyline fill="none" stroke="black" points="837,-521.5 837,-544.5 "/>
<text text-anchor="middle" x="869.5" y="-529.3" font-family="Times,serif" font-size="14.00">size=1</text>
<polyline fill="none" stroke="black" points="756,-521.5 902,-521.5 "/>
<text text-anchor="middle" x="829" y="-506.3" font-family="Times,serif" font-size="14.00">x</text>
</g>
<!-- node3&#45;&gt;node35 -->
<g id="edge68" class="edge">
<title>node3&#45;&gt;node35</title>
<path fill="none" stroke="green" d="M764.77,-581.37C773.15,-572.17 783.67,-561.37 793.81,-551.55"/>
<polygon fill="green" stroke="green" points="796.26,-554.04 801.08,-544.61 791.43,-548.98 796.26,-554.04"/>
</g>
<!-- node4&#45;&gt;node3 -->
<g id="edge7" class="edge">
<title>node4&#45;&gt;node3</title>
<path fill="none" stroke="blue" d="M696.92,-544.61C706.52,-553.62 717.1,-564.18 726.25,-573.85"/>
<polygon fill="blue" stroke="blue" points="723.86,-576.42 733.23,-581.37 728.99,-571.66 723.86,-576.42"/>
</g>
<!-- node5 -->
<g id="node5" class="node">
<title>node5</title>
<path fill="peachpuff" stroke="black" d="M300.5,-415.5C300.5,-415.5 405.5,-415.5 405.5,-415.5 411.5,-415.5 417.5,-421.5 417.5,-427.5 417.5,-427.5 417.5,-449.5 417.5,-449.5 417.5,-455.5 411.5,-461.5 405.5,-461.5 405.5,-461.5 300.5,-461.5 300.5,-461.5 294.5,-461.5 288.5,-455.5 288.5,-449.5 288.5,-449.5 288.5,-427.5 288.5,-427.5 288.5,-421.5 294.5,-415.5 300.5,-415.5"/>
<text text-anchor="middle" x="301.5" y="-446.3" font-family="Times,serif" font-size="14.00">5</text>
<polyline fill="none" stroke="black" points="314.5,-438.5 314.5,-461.5 "/>
<text text-anchor="middle" x="333.5" y="-446.3" font-family="Times,serif" font-size="14.00">OP</text>
<polyline fill="none" stroke="black" points="352.5,-438.5 352.5,-461.5 "/>
<text text-anchor="middle" x="385" y="-446.3" font-family="Times,serif" font-size="14.00">size=9</text>
<polyline fill="none" stroke="black" points="288.5,-438.5 417.5,-438.5 "/>
<text text-anchor="middle" x="353" y="-423.3" font-family="Times,serif" font-size="14.00">/</text>
</g>
<!-- node4&#45;&gt;node5 -->
<g id="edge8" class="edge">
<title>node4&#45;&gt;node5</title>
<path fill="none" stroke="red" d="M599.9,-504.21C548.91,-491.51 479.69,-473.8 427.49,-460.12"/>
<polygon fill="red" stroke="red" points="428.17,-456.68 417.61,-457.53 426.4,-463.46 428.17,-456.68"/>
</g>
<!-- node14 -->
<g id="node14" class="node">
<title>node14</title>
<path fill="peachpuff" stroke="black" d="M666.5,-415.5C666.5,-415.5 789.5,-415.5 789.5,-415.5 795.5,-415.5 801.5,-421.5 801.5,-427.5 801.5,-427.5 801.5,-449.5 801.5,-449.5 801.5,-455.5 795.5,-461.5 789.5,-461.5 789.5,-461.5 666.5,-461.5 666.5,-461.5 660.5,-461.5 654.5,-455.5 654.5,-449.5 654.5,-449.5 654.5,-427.5 654.5,-427.5 654.5,-421.5 660.5,-415.5 666.5,-415.5"/>
<text text-anchor="middle" x="672" y="-446.3" font-family="Times,serif" font-size="14.00">14</text>
<polyline fill="none" stroke="black" points="689.5,-438.5 689.5,-461.5 "/>
<text text-anchor="middle" x="708.5" y="-446.3" font-family="Times,serif" font-size="14.00">OP</text>
<polyline fill="none" stroke="black" points="727.5,-438.5 727.5,-461.5 "/>
<text text-anchor="middle" x="764.5" y="-446.3" font-family="Times,serif" font-size="14.00">size=21</text>
<polyline fill="none" stroke="black" points="654.5,-438.5 801.5,-438.5 "/>
<text text-anchor="middle" x="728" y="-423.3" font-family="Times,serif" font-size="14.00">^</text>
</g>
<!-- node4&#45;&gt;node14 -->
<g id="edge26" class="edge">
<title>node4&#45;&gt;node14</title>
<path fill="none" stroke="green" d="M679.03,-498.37C684.79,-489.53 692.15,-479.21 699.45,-469.7"/>
<polygon fill="green" stroke="green" points="702.38,-471.63 705.81,-461.61 696.88,-467.31 702.38,-471.63"/>
</g>
<!-- node5&#45;&gt;node4 -->
<g id="edge9" class="edge">
<title>node5&#45;&gt;node4</title>
<path fill="none" stroke="blue" d="M417.73,-454.71C467.71,-467.12 537.02,-484.83 590.22,-498.75"/>
<polygon fill="blue" stroke="blue" points="589.39,-502.15 599.95,-501.3 591.17,-495.38 589.39,-502.15"/>
</g>
<!-- node6 -->
<g id="node6" class="node">
<title>node6</title>
<path fill="peachpuff" stroke="black" d="M65.5,-332.5C65.5,-332.5 170.5,-332.5 170.5,-332.5 176.5,-332.5 182.5,-338.5 182.5,-344.5 182.5,-344.5 182.5,-366.5 182.5,-366.5 182.5,-372.5 176.5,-378.5 170.5,-378.5 170.5,-378.5 65.5,-378.5 65.5,-378.5 59.5,-378.5 53.5,-372.5 53.5,-366.5 53.5,-366.5 53.5,-344.5 53.5,-344.5 53.5,-338.5 59.5,-332.5 65.5,-332.5"/>
<text text-anchor="middle" x="66.5" y="-363.3" font-family="Times,serif" font-size="14.00">6</text>
<polyline fill="none" stroke="black" points="79.5,-355.5 79.5,-378.5 "/>
<text text-anchor="middle" x="98.5" y="-363.3" font-family="Times,serif" font-size="14.00">OP</text>
<polyline fill="none" stroke="black" points="117.5,-355.5 117.5,-378.5 "/>
<text text-anchor="middle" x="150" y="-363.3" font-family="Times,serif" font-size="14.00">size=2</text>
<polyline fill="none" stroke="black" points="53.5,-355.5 182.5,-355.5 "/>
<text text-anchor="middle" x="118" y="-340.3" font-family="Times,serif" font-size="14.00">cos</text>
</g>
<!-- node5&#45;&gt;node6 -->
<g id="edge10" class="edge">
<title>node5&#45;&gt;node6</title>
<path fill="none" stroke="red" d="M288.37,-417.27C256.51,-406.61 218.14,-393.43 185.85,-382.07"/>
<polygon fill="red" stroke="red" points="186.64,-378.63 176.04,-378.61 184.31,-385.23 186.64,-378.63"/>
</g>
<!-- node8 -->
<g id="node8" class="node">
<title>node8</title>
<path fill="peachpuff" stroke="black" d="M300.5,-332.5C300.5,-332.5 405.5,-332.5 405.5,-332.5 411.5,-332.5 417.5,-338.5 417.5,-344.5 417.5,-344.5 417.5,-366.5 417.5,-366.5 417.5,-372.5 411.5,-378.5 405.5,-378.5 405.5,-378.5 300.5,-378.5 300.5,-378.5 294.5,-378.5 288.5,-372.5 288.5,-366.5 288.5,-366.5 288.5,-344.5 288.5,-344.5 288.5,-338.5 294.5,-332.5 300.5,-332.5"/>
<text text-anchor="middle" x="301.5" y="-363.3" font-family="Times,serif" font-size="14.00">8</text>
<polyline fill="none" stroke="black" points="314.5,-355.5 314.5,-378.5 "/>
<text text-anchor="middle" x="333.5" y="-363.3" font-family="Times,serif" font-size="14.00">OP</text>
<polyline fill="none" stroke="black" points="352.5,-355.5 352.5,-378.5 "/>
<text text-anchor="middle" x="385" y="-363.3" font-family="Times,serif" font-size="14.00">size=6</text>
<polyline fill="none" stroke="black" points="288.5,-355.5 417.5,-355.5 "/>
<text text-anchor="middle" x="353" y="-340.3" font-family="Times,serif" font-size="14.00">log</text>
</g>
<!-- node5&#45;&gt;node8 -->
<g id="edge14" class="edge">
<title>node5&#45;&gt;node8</title>
<path fill="none" stroke="green" d="M346.91,-415.37C346.28,-407.15 346.1,-397.66 346.38,-388.73"/>
<polygon fill="green" stroke="green" points="349.88,-388.78 346.91,-378.61 342.89,-388.41 349.88,-388.78"/>
</g>
<!-- node6&#45;&gt;node5 -->
<g id="edge11" class="edge">
<title>node6&#45;&gt;node5</title>
<path fill="none" stroke="blue" d="M182.59,-376.72C214.52,-387.4 253.02,-400.62 285.35,-412.01"/>
<polygon fill="blue" stroke="blue" points="284.58,-415.44 295.18,-415.47 286.91,-408.84 284.58,-415.44"/>
</g>
<!-- node7 -->
<g id="node7" class="node">
<title>node7</title>
<path fill="pink" stroke="black" d="M12,-249.5C12,-249.5 134,-249.5 134,-249.5 140,-249.5 146,-255.5 146,-261.5 146,-261.5 146,-283.5 146,-283.5 146,-289.5 140,-295.5 134,-295.5 134,-295.5 12,-295.5 12,-295.5 6,-295.5 0,-289.5 0,-283.5 0,-283.5 0,-261.5 0,-261.5 0,-255.5 6,-249.5 12,-249.5"/>
<text text-anchor="middle" x="13" y="-280.3" font-family="Times,serif" font-size="14.00">7</text>
<polyline fill="none" stroke="black" points="26,-272.5 26,-295.5 "/>
<text text-anchor="middle" x="53.5" y="-280.3" font-family="Times,serif" font-size="14.00">NUM</text>
<polyline fill="none" stroke="black" points="81,-272.5 81,-295.5 "/>
<text text-anchor="middle" x="113.5" y="-280.3" font-family="Times,serif" font-size="14.00">size=1</text>
<polyline fill="none" stroke="black" points="0,-272.5 146,-272.5 "/>
<text text-anchor="middle" x="73" y="-257.3" font-family="Times,serif" font-size="14.00">25</text>
</g>
<!-- node6&#45;&gt;node7 -->
<g id="edge12" class="edge">
<title>node6&#45;&gt;node7</title>
<path fill="none" stroke="red" d="M99.61,-332.37C94.19,-323.79 88.49,-313.83 83.67,-304.56"/>
<polygon fill="red" stroke="red" points="86.8,-302.98 79.19,-295.61 80.54,-306.12 86.8,-302.98"/>
</g>
<!-- node7&#45;&gt;node6 -->
<g id="edge13" class="edge">
<title>node7&#45;&gt;node6</title>
<path fill="none" stroke="blue" d="M91.37,-295.61C96.79,-304.18 102.49,-314.14 107.31,-323.41"/>
<polygon fill="blue" stroke="blue" points="104.19,-324.99 111.79,-332.37 110.45,-321.86 104.19,-324.99"/>
</g>
<!-- node8&#45;&gt;node5 -->
<g id="edge15" class="edge">
<title>node8&#45;&gt;node5</title>
<path fill="none" stroke="blue" d="M359.09,-378.61C359.72,-386.82 359.9,-396.31 359.62,-405.25"/>
<polygon fill="blue" stroke="blue" points="356.12,-405.2 359.09,-415.37 363.11,-405.56 356.12,-405.2"/>
</g>
<!-- node9 -->
<g id="node9" class="node">
<title>node9</title>
<path fill="pink" stroke="black" d="M176,-249.5C176,-249.5 298,-249.5 298,-249.5 304,-249.5 310,-255.5 310,-261.5 310,-261.5 310,-283.5 310,-283.5 310,-289.5 304,-295.5 298,-295.5 298,-295.5 176,-295.5 176,-295.5 170,-295.5 164,-289.5 164,-283.5 164,-283.5 164,-261.5 164,-261.5 164,-255.5 170,-249.5 176,-249.5"/>
<text text-anchor="middle" x="177" y="-280.3" font-family="Times,serif" font-size="14.00">9</text>
<polyline fill="none" stroke="black" points="190,-272.5 190,-295.5 "/>
<text text-anchor="middle" x="217.5" y="-280.3" font-family="Times,serif" font-size="14.00">NUM</text>
<polyline fill="none" stroke="black" points="245,-272.5 245,-295.5 "/>
<text text-anchor="middle" x="277.5" y="-280.3" font-family="Times,serif" font-size="14.00">size=1</text>
<polyline fill="none" stroke="black" points="164,-272.5 310,-272.5 "/>
<text text-anchor="middle" x="237" y="-257.3" font-family="Times,serif" font-size="14.00">10</text>
</g>
<!-- node8&#45;&gt;node9 -->
<g id="edge16" class="edge">
<title>node8&#45;&gt;node9</title>
<path fill="none" stroke="red" d="M315.21,-332.37C300.93,-322.9 284.82,-311.74 270.91,-301.69"/>
<polygon fill="red" stroke="red" points="272.71,-298.67 262.57,-295.61 268.58,-304.33 272.71,-298.67"/>
</g>
<!-- node10 -->
<g id="node10" class="node">
<title>node10</title>
<path fill="peachpuff" stroke="black" d="M340,-249.5C340,-249.5 454,-249.5 454,-249.5 460,-249.5 466,-255.5 466,-261.5 466,-261.5 466,-283.5 466,-283.5 466,-289.5 460,-295.5 454,-295.5 454,-295.5 340,-295.5 340,-295.5 334,-295.5 328,-289.5 328,-283.5 328,-283.5 328,-261.5 328,-261.5 328,-255.5 334,-249.5 340,-249.5"/>
<text text-anchor="middle" x="345.5" y="-280.3" font-family="Times,serif" font-size="14.00">10</text>
<polyline fill="none" stroke="black" points="363,-272.5 363,-295.5 "/>
<text text-anchor="middle" x="382" y="-280.3" font-family="Times,serif" font-size="14.00">OP</text>
<polyline fill="none" stroke="black" points="401,-272.5 401,-295.5 "/>
<text text-anchor="middle" x="433.5" y="-280.3" font-family="Times,serif" font-size="14.00">size=4</text>
<polyline fill="none" stroke="black" points="328,-272.5 466,-272.5 "/>
<text text-anchor="middle" x="397" y="-257.3" font-family="Times,serif" font-size="14.00">*</text>
</g>
<!-- node8&#45;&gt;node10 -->
<g id="edge18" class="edge">
<title>node8&#45;&gt;node10</title>
<path fill="none" stroke="green" d="M358.93,-332.37C362.97,-323.71 368.29,-313.62 373.71,-304.27"/>
<polygon fill="green" stroke="green" points="376.76,-305.98 378.9,-295.61 370.76,-302.39 376.76,-305.98"/>
</g>
<!-- node9&#45;&gt;node8 -->
<g id="edge17" class="edge">
<title>node9&#45;&gt;node8</title>
<path fill="none" stroke="blue" d="M274.75,-295.61C289.03,-305.07 305.14,-316.23 319.05,-326.28"/>
<polygon fill="blue" stroke="blue" points="317.25,-329.3 327.39,-332.37 321.38,-323.64 317.25,-329.3"/>
</g>
<!-- node10&#45;&gt;node8 -->
<g id="edge19" class="edge">
<title>node10&#45;&gt;node8</title>
<path fill="none" stroke="blue" d="M391.08,-295.61C387.04,-304.27 381.73,-314.35 376.31,-323.7"/>
<polygon fill="blue" stroke="blue" points="373.25,-321.99 371.11,-332.37 379.26,-325.59 373.25,-321.99"/>
</g>
<!-- node11 -->
<g id="node11" class="node">
<title>node11</title>
<path fill="pink" stroke="black" d="M166.5,-166.5C166.5,-166.5 297.5,-166.5 297.5,-166.5 303.5,-166.5 309.5,-172.5 309.5,-178.5 309.5,-178.5 309.5,-200.5 309.5,-200.5 309.5,-206.5 303.5,-212.5 297.5,-212.5 297.5,-212.5 166.5,-212.5 166.5,-212.5 160.5,-212.5 154.5,-206.5 154.5,-200.5 154.5,-200.5 154.5,-178.5 154.5,-178.5 154.5,-172.5 160.5,-166.5 166.5,-166.5"/>
<text text-anchor="middle" x="172" y="-197.3" font-family="Times,serif" font-size="14.00">11</text>
<polyline fill="none" stroke="black" points="189.5,-189.5 189.5,-212.5 "/>
<text text-anchor="middle" x="217" y="-197.3" font-family="Times,serif" font-size="14.00">NUM</text>
<polyline fill="none" stroke="black" points="244.5,-189.5 244.5,-212.5 "/>
<text text-anchor="middle" x="277" y="-197.3" font-family="Times,serif" font-size="14.00">size=1</text>
<polyline fill="none" stroke="black" points="154.5,-189.5 309.5,-189.5 "/>
<text text-anchor="middle" x="232" y="-174.3" font-family="Times,serif" font-size="14.00">2</text>
</g>
<!-- node10&#45;&gt;node11 -->
<g id="edge20" class="edge">
<title>node10&#45;&gt;node11</title>
<path fill="none" stroke="red" d="M345.82,-249.37C324.78,-239.41 300.57,-227.58 279.88,-217.14"/>
<polygon fill="red" stroke="red" points="281.45,-214.01 270.94,-212.61 278.28,-220.25 281.45,-214.01"/>
</g>
<!-- node12 -->
<g id="node12" class="node">
<title>node12</title>
<path fill="peachpuff" stroke="black" d="M340,-166.5C340,-166.5 454,-166.5 454,-166.5 460,-166.5 466,-172.5 466,-178.5 466,-178.5 466,-200.5 466,-200.5 466,-206.5 460,-212.5 454,-212.5 454,-212.5 340,-212.5 340,-212.5 334,-212.5 328,-206.5 328,-200.5 328,-200.5 328,-178.5 328,-178.5 328,-172.5 334,-166.5 340,-166.5"/>
<text text-anchor="middle" x="345.5" y="-197.3" font-family="Times,serif" font-size="14.00">12</text>
<polyline fill="none" stroke="black" points="363,-189.5 363,-212.5 "/>
<text text-anchor="middle" x="382" y="-197.3" font-family="Times,serif" font-size="14.00">OP</text>
<polyline fill="none" stroke="black" points="401,-189.5 401,-212.5 "/>
<text text-anchor="middle" x="433.5" y="-197.3" font-family="Times,serif" font-size="14.00">size=2</text>
<polyline fill="none" stroke="black" points="328,-189.5 466,-189.5 "/>
<text text-anchor="middle" x="397" y="-174.3" font-family="Times,serif" font-size="14.00">arccos</text>
</g>
<!-- node10&#45;&gt;node12 -->
<g id="edge22" class="edge">
<title>node10&#45;&gt;node12</title>
<path fill="none" stroke="green" d="M390.91,-249.37C390.28,-241.15 390.1,-231.66 390.38,-222.73"/>
<polygon fill="green" stroke="green" points="393.88,-222.78 390.91,-212.61 386.89,-222.41 393.88,-222.78"/>
</g>
<!-- node11&#45;&gt;node10 -->
<g id="edge21" class="edge">
<title>node11&#45;&gt;node10</title>
<path fill="none" stroke="blue" d="M283.12,-212.61C304.16,-222.56 328.37,-234.39 349.07,-244.83"/>
<polygon fill="blue" stroke="blue" points="347.5,-247.96 358,-249.37 350.67,-241.72 347.5,-247.96"/>
</g>
<!-- node12&#45;&gt;node10 -->
<g id="edge23" class="edge">
<title>node12&#45;&gt;node10</title>
<path fill="none" stroke="blue" d="M403.09,-212.61C403.72,-220.82 403.9,-230.31 403.62,-239.25"/>
<polygon fill="blue" stroke="blue" points="400.12,-239.2 403.09,-249.37 407.11,-239.56 400.12,-239.2"/>
</g>
<!-- node13 -->
<g id="node13" class="node">
<title>node13</title>
<path fill="lightyellow" stroke="black" d="M335,-83.5C335,-83.5 457,-83.5 457,-83.5 463,-83.5 469,-89.5 469,-95.5 469,-95.5 469,-117.5 469,-117.5 469,-123.5 463,-129.5 457,-129.5 457,-129.5 335,-129.5 335,-129.5 329,-129.5 323,-123.5 323,-117.5 323,-117.5 323,-95.5 323,-95.5 323,-89.5 329,-83.5 335,-83.5"/>
<text text-anchor="middle" x="340.5" y="-114.3" font-family="Times,serif" font-size="14.00">13</text>
<polyline fill="none" stroke="black" points="358,-106.5 358,-129.5 "/>
<text text-anchor="middle" x="381" y="-114.3" font-family="Times,serif" font-size="14.00">VAR</text>
<polyline fill="none" stroke="black" points="404,-106.5 404,-129.5 "/>
<text text-anchor="middle" x="436.5" y="-114.3" font-family="Times,serif" font-size="14.00">size=1</text>
<polyline fill="none" stroke="black" points="323,-106.5 469,-106.5 "/>
<text text-anchor="middle" x="396" y="-91.3" font-family="Times,serif" font-size="14.00">x</text>
</g>
<!-- node12&#45;&gt;node13 -->
<g id="edge24" class="edge">
<title>node12&#45;&gt;node13</title>
<path fill="none" stroke="red" d="M390.64,-166.37C389.9,-158.15 389.61,-148.66 389.77,-139.73"/>
<polygon fill="red" stroke="red" points="393.28,-139.74 390.18,-129.61 386.28,-139.46 393.28,-139.74"/>
</g>
<!-- node13&#45;&gt;node12 -->
<g id="edge25" class="edge">
<title>node13&#45;&gt;node12</title>
<path fill="none" stroke="blue" d="M402.36,-129.61C403.1,-137.82 403.39,-147.31 403.23,-156.25"/>
<polygon fill="blue" stroke="blue" points="399.72,-156.23 402.82,-166.37 406.72,-156.52 399.72,-156.23"/>
</g>
<!-- node14&#45;&gt;node4 -->
<g id="edge27" class="edge">
<title>node14&#45;&gt;node4</title>
<path fill="none" stroke="blue" d="M717.99,-461.61C712.23,-470.44 704.87,-480.76 697.57,-490.27"/>
<polygon fill="blue" stroke="blue" points="694.64,-488.34 691.21,-498.37 700.14,-492.66 694.64,-488.34"/>
</g>
<!-- node15 -->
<g id="node15" class="node">
<title>node15</title>
<path fill="peachpuff" stroke="black" d="M671,-332.5C671,-332.5 785,-332.5 785,-332.5 791,-332.5 797,-338.5 797,-344.5 797,-344.5 797,-366.5 797,-366.5 797,-372.5 791,-378.5 785,-378.5 785,-378.5 671,-378.5 671,-378.5 665,-378.5 659,-372.5 659,-366.5 659,-366.5 659,-344.5 659,-344.5 659,-338.5 665,-332.5 671,-332.5"/>
<text text-anchor="middle" x="676.5" y="-363.3" font-family="Times,serif" font-size="14.00">15</text>
<polyline fill="none" stroke="black" points="694,-355.5 694,-378.5 "/>
<text text-anchor="middle" x="713" y="-363.3" font-family="Times,serif" font-size="14.00">OP</text>
<polyline fill="none" stroke="black" points="732,-355.5 732,-378.5 "/>
<text text-anchor="middle" x="764.5" y="-363.3" font-family="Times,serif" font-size="14.00">size=9</text>
<polyline fill="none" stroke="black" points="659,-355.5 797,-355.5 "/>
<text text-anchor="middle" x="728" y="-340.3" font-family="Times,serif" font-size="14.00">+</text>
</g>
<!-- node14&#45;&gt;node15 -->
<g id="edge28" class="edge">
<title>node14&#45;&gt;node15</title>
<path fill="none" stroke="red" d="M721.91,-415.37C721.28,-407.15 721.1,-397.66 721.38,-388.73"/>
<polygon fill="red" stroke="red" points="724.88,-388.78 721.91,-378.61 717.89,-388.41 724.88,-388.78"/>
</g>
<!-- node24 -->
<g id="node24" class="node">
<title>node24</title>
<path fill="peachpuff" stroke="black" d="M956.5,-332.5C956.5,-332.5 1079.5,-332.5 1079.5,-332.5 1085.5,-332.5 1091.5,-338.5 1091.5,-344.5 1091.5,-344.5 1091.5,-366.5 1091.5,-366.5 1091.5,-372.5 1085.5,-378.5 1079.5,-378.5 1079.5,-378.5 956.5,-378.5 956.5,-378.5 950.5,-378.5 944.5,-372.5 944.5,-366.5 944.5,-366.5 944.5,-344.5 944.5,-344.5 944.5,-338.5 950.5,-332.5 956.5,-332.5"/>
<text text-anchor="middle" x="962" y="-363.3" font-family="Times,serif" font-size="14.00">24</text>
<polyline fill="none" stroke="black" points="979.5,-355.5 979.5,-378.5 "/>
<text text-anchor="middle" x="998.5" y="-363.3" font-family="Times,serif" font-size="14.00">OP</text>
<polyline fill="none" stroke="black" points="1017.5,-355.5 1017.5,-378.5 "/>
<text text-anchor="middle" x="1054.5" y="-363.3" font-family="Times,serif" font-size="14.00">size=11</text>
<polyline fill="none" stroke="black" points="944.5,-355.5 1091.5,-355.5 "/>
<text text-anchor="middle" x="1018" y="-340.3" font-family="Times,serif" font-size="14.00">^</text>
</g>
<!-- node14&#45;&gt;node24 -->
<g id="edge46" class="edge">
<title>node14&#45;&gt;node24</title>
<path fill="none" stroke="green" d="M800.78,-415.47C841.42,-403.87 892.2,-389.69 934.46,-378.14"/>
<polygon fill="green" stroke="green" points="935.44,-381.5 944.17,-375.5 933.6,-374.75 935.44,-381.5"/>
</g>
<!-- node15&#45;&gt;node14 -->
<g id="edge29" class="edge">
<title>node15&#45;&gt;node14</title>
<path fill="none" stroke="blue" d="M734.09,-378.61C734.72,-386.82 734.9,-396.31 734.62,-405.25"/>
<polygon fill="blue" stroke="blue" points="731.12,-405.2 734.09,-415.37 738.11,-405.56 731.12,-405.2"/>
</g>
<!-- node16 -->
<g id="node16" class="node">
<title>node16</title>
<path fill="peachpuff" stroke="black" d="M589,-249.5C589,-249.5 703,-249.5 703,-249.5 709,-249.5 715,-255.5 715,-261.5 715,-261.5 715,-283.5 715,-283.5 715,-289.5 709,-295.5 703,-295.5 703,-295.5 589,-295.5 589,-295.5 583,-295.5 577,-289.5 577,-283.5 577,-283.5 577,-261.5 577,-261.5 577,-255.5 583,-249.5 589,-249.5"/>
<text text-anchor="middle" x="594.5" y="-280.3" font-family="Times,serif" font-size="14.00">16</text>
<polyline fill="none" stroke="black" points="612,-272.5 612,-295.5 "/>
<text text-anchor="middle" x="631" y="-280.3" font-family="Times,serif" font-size="14.00">OP</text>
<polyline fill="none" stroke="black" points="650,-272.5 650,-295.5 "/>
<text text-anchor="middle" x="682.5" y="-280.3" font-family="Times,serif" font-size="14.00">size=7</text>
<polyline fill="none" stroke="black" points="577,-272.5 715,-272.5 "/>
<text text-anchor="middle" x="646" y="-257.3" font-family="Times,serif" font-size="14.00">*</text>
</g>
<!-- node15&#45;&gt;node16 -->
<g id="edge30" class="edge">
<title>node15&#45;&gt;node16</title>
<path fill="none" stroke="red" d="M699.5,-332.37C689.68,-323.35 678.84,-312.79 669.46,-303.12"/>
<polygon fill="red" stroke="red" points="671.73,-300.43 662.29,-295.61 666.66,-305.26 671.73,-300.43"/>
</g>
<!-- node23 -->
<g id="node23" class="node">
<title>node23</title>
<path fill="pink" stroke="black" d="M745.5,-249.5C745.5,-249.5 876.5,-249.5 876.5,-249.5 882.5,-249.5 888.5,-255.5 888.5,-261.5 888.5,-261.5 888.5,-283.5 888.5,-283.5 888.5,-289.5 882.5,-295.5 876.5,-295.5 876.5,-295.5 745.5,-295.5 745.5,-295.5 739.5,-295.5 733.5,-289.5 733.5,-283.5 733.5,-283.5 733.5,-261.5 733.5,-261.5 733.5,-255.5 739.5,-249.5 745.5,-249.5"/>
<text text-anchor="middle" x="751" y="-280.3" font-family="Times,serif" font-size="14.00">23</text>
<polyline fill="none" stroke="black" points="768.5,-272.5 768.5,-295.5 "/>
<text text-anchor="middle" x="796" y="-280.3" font-family="Times,serif" font-size="14.00">NUM</text>
<polyline fill="none" stroke="black" points="823.5,-272.5 823.5,-295.5 "/>
<text text-anchor="middle" x="856" y="-280.3" font-family="Times,serif" font-size="14.00">size=1</text>
<polyline fill="none" stroke="black" points="733.5,-272.5 888.5,-272.5 "/>
<text text-anchor="middle" x="811" y="-257.3" font-family="Times,serif" font-size="14.00">1</text>
</g>
<!-- node15&#45;&gt;node23 -->
<g id="edge44" class="edge">
<title>node15&#45;&gt;node23</title>
<path fill="none" stroke="green" d="M744.59,-332.37C753.31,-323.17 764.23,-312.37 774.73,-302.55"/>
<polygon fill="green" stroke="green" points="777.28,-304.96 782.26,-295.61 772.53,-299.81 777.28,-304.96"/>
</g>
<!-- node16&#45;&gt;node15 -->
<g id="edge31" class="edge">
<title>node16&#45;&gt;node15</title>
<path fill="none" stroke="blue" d="M674.47,-295.61C684.29,-304.62 695.13,-315.18 704.51,-324.85"/>
<polygon fill="blue" stroke="blue" points="702.25,-327.55 711.68,-332.37 707.31,-322.71 702.25,-327.55"/>
</g>
<!-- node17 -->
<g id="node17" class="node">
<title>node17</title>
<path fill="pink" stroke="black" d="M497.5,-166.5C497.5,-166.5 628.5,-166.5 628.5,-166.5 634.5,-166.5 640.5,-172.5 640.5,-178.5 640.5,-178.5 640.5,-200.5 640.5,-200.5 640.5,-206.5 634.5,-212.5 628.5,-212.5 628.5,-212.5 497.5,-212.5 497.5,-212.5 491.5,-212.5 485.5,-206.5 485.5,-200.5 485.5,-200.5 485.5,-178.5 485.5,-178.5 485.5,-172.5 491.5,-166.5 497.5,-166.5"/>
<text text-anchor="middle" x="503" y="-197.3" font-family="Times,serif" font-size="14.00">17</text>
<polyline fill="none" stroke="black" points="520.5,-189.5 520.5,-212.5 "/>
<text text-anchor="middle" x="548" y="-197.3" font-family="Times,serif" font-size="14.00">NUM</text>
<polyline fill="none" stroke="black" points="575.5,-189.5 575.5,-212.5 "/>
<text text-anchor="middle" x="608" y="-197.3" font-family="Times,serif" font-size="14.00">size=1</text>
<polyline fill="none" stroke="black" points="485.5,-189.5 640.5,-189.5 "/>
<text text-anchor="middle" x="563" y="-174.3" font-family="Times,serif" font-size="14.00">3</text>
</g>
<!-- node16&#45;&gt;node17 -->
<g id="edge32" class="edge">
<title>node16&#45;&gt;node17</title>
<path fill="none" stroke="red" d="M617.23,-249.37C607.2,-240.26 596.11,-229.58 586.54,-219.83"/>
<polygon fill="red" stroke="red" points="589.03,-217.37 579.56,-212.61 583.99,-222.23 589.03,-217.37"/>
</g>
<!-- node18 -->
<g id="node18" class="node">
<title>node18</title>
<path fill="peachpuff" stroke="black" d="M671,-166.5C671,-166.5 785,-166.5 785,-166.5 791,-166.5 797,-172.5 797,-178.5 797,-178.5 797,-200.5 797,-200.5 797,-206.5 791,-212.5 785,-212.5 785,-212.5 671,-212.5 671,-212.5 665,-212.5 659,-206.5 659,-200.5 659,-200.5 659,-178.5 659,-178.5 659,-172.5 665,-166.5 671,-166.5"/>
<text text-anchor="middle" x="676.5" y="-197.3" font-family="Times,serif" font-size="14.00">18</text>
<polyline fill="none" stroke="black" points="694,-189.5 694,-212.5 "/>
<text text-anchor="middle" x="713" y="-197.3" font-family="Times,serif" font-size="14.00">OP</text>
<polyline fill="none" stroke="black" points="732,-189.5 732,-212.5 "/>
<text text-anchor="middle" x="764.5" y="-197.3" font-family="Times,serif" font-size="14.00">size=5</text>
<polyline fill="none" stroke="black" points="659,-189.5 797,-189.5 "/>
<text text-anchor="middle" x="728" y="-174.3" font-family="Times,serif" font-size="14.00">&#45;</text>
</g>
<!-- node16&#45;&gt;node18 -->
<g id="edge34" class="edge">
<title>node16&#45;&gt;node18</title>
<path fill="none" stroke="green" d="M662.32,-249.37C670.92,-240.17 681.71,-229.37 692.09,-219.55"/>
<polygon fill="green" stroke="green" points="694.61,-221.99 699.53,-212.61 689.83,-216.87 694.61,-221.99"/>
</g>
<!-- node17&#45;&gt;node16 -->
<g id="edge33" class="edge">
<title>node17&#45;&gt;node16</title>
<path fill="none" stroke="blue" d="M591.74,-212.61C601.77,-221.71 612.86,-232.39 622.43,-242.14"/>
<polygon fill="blue" stroke="blue" points="619.95,-244.6 629.41,-249.37 624.98,-239.74 619.95,-244.6"/>
</g>
<!-- node18&#45;&gt;node16 -->
<g id="edge35" class="edge">
<title>node18&#45;&gt;node16</title>
<path fill="none" stroke="blue" d="M711.71,-212.61C703.11,-221.8 692.32,-232.6 681.94,-242.42"/>
<polygon fill="blue" stroke="blue" points="679.42,-239.99 674.5,-249.37 684.2,-245.1 679.42,-239.99"/>
</g>
<!-- node19 -->
<g id="node19" class="node">
<title>node19</title>
<path fill="pink" stroke="black" d="M499.5,-83.5C499.5,-83.5 630.5,-83.5 630.5,-83.5 636.5,-83.5 642.5,-89.5 642.5,-95.5 642.5,-95.5 642.5,-117.5 642.5,-117.5 642.5,-123.5 636.5,-129.5 630.5,-129.5 630.5,-129.5 499.5,-129.5 499.5,-129.5 493.5,-129.5 487.5,-123.5 487.5,-117.5 487.5,-117.5 487.5,-95.5 487.5,-95.5 487.5,-89.5 493.5,-83.5 499.5,-83.5"/>
<text text-anchor="middle" x="505" y="-114.3" font-family="Times,serif" font-size="14.00">19</text>
<polyline fill="none" stroke="black" points="522.5,-106.5 522.5,-129.5 "/>
<text text-anchor="middle" x="550" y="-114.3" font-family="Times,serif" font-size="14.00">NUM</text>
<polyline fill="none" stroke="black" points="577.5,-106.5 577.5,-129.5 "/>
<text text-anchor="middle" x="610" y="-114.3" font-family="Times,serif" font-size="14.00">size=1</text>
<polyline fill="none" stroke="black" points="487.5,-106.5 642.5,-106.5 "/>
<text text-anchor="middle" x="565" y="-91.3" font-family="Times,serif" font-size="14.00">2,5</text>
</g>
<!-- node18&#45;&gt;node19 -->
<g id="edge36" class="edge">
<title>node18&#45;&gt;node19</title>
<path fill="none" stroke="red" d="M677.37,-166.37C656.66,-156.46 632.87,-144.68 612.49,-134.28"/>
<polygon fill="red" stroke="red" points="613.89,-131.06 603.4,-129.61 610.69,-137.29 613.89,-131.06"/>
</g>
<!-- node20 -->
<g id="node20" class="node">
<title>node20</title>
<path fill="peachpuff" stroke="black" d="M673,-83.5C673,-83.5 787,-83.5 787,-83.5 793,-83.5 799,-89.5 799,-95.5 799,-95.5 799,-117.5 799,-117.5 799,-123.5 793,-129.5 787,-129.5 787,-129.5 673,-129.5 673,-129.5 667,-129.5 661,-123.5 661,-117.5 661,-117.5 661,-95.5 661,-95.5 661,-89.5 667,-83.5 673,-83.5"/>
<text text-anchor="middle" x="678.5" y="-114.3" font-family="Times,serif" font-size="14.00">20</text>
<polyline fill="none" stroke="black" points="696,-106.5 696,-129.5 "/>
<text text-anchor="middle" x="715" y="-114.3" font-family="Times,serif" font-size="14.00">OP</text>
<polyline fill="none" stroke="black" points="734,-106.5 734,-129.5 "/>
<text text-anchor="middle" x="766.5" y="-114.3" font-family="Times,serif" font-size="14.00">size=3</text>
<polyline fill="none" stroke="black" points="661,-106.5 799,-106.5 "/>
<text text-anchor="middle" x="730" y="-91.3" font-family="Times,serif" font-size="14.00">/</text>
</g>
<!-- node18&#45;&gt;node20 -->
<g id="edge38" class="edge">
<title>node18&#45;&gt;node20</title>
<path fill="none" stroke="green" d="M722.46,-166.37C722.03,-158.15 722.08,-148.66 722.58,-139.73"/>
<polygon fill="green" stroke="green" points="726.08,-139.85 723.37,-129.61 719.1,-139.31 726.08,-139.85"/>
</g>
<!-- node19&#45;&gt;node18 -->
<g id="edge37" class="edge">
<title>node19&#45;&gt;node18</title>
<path fill="none" stroke="blue" d="M615.58,-129.61C636.28,-139.51 660.07,-151.29 680.45,-161.69"/>
<polygon fill="blue" stroke="blue" points="679.06,-164.91 689.55,-166.37 682.25,-158.68 679.06,-164.91"/>
</g>
<!-- node20&#45;&gt;node18 -->
<g id="edge39" class="edge">
<title>node20&#45;&gt;node18</title>
<path fill="none" stroke="blue" d="M735.54,-129.61C735.97,-137.82 735.92,-147.31 735.42,-156.25"/>
<polygon fill="blue" stroke="blue" points="731.92,-156.13 734.64,-166.37 738.9,-156.67 731.92,-156.13"/>
</g>
<!-- node21 -->
<g id="node21" class="node">
<title>node21</title>
<path fill="pink" stroke="black" d="M578.5,-0.5C578.5,-0.5 709.5,-0.5 709.5,-0.5 715.5,-0.5 721.5,-6.5 721.5,-12.5 721.5,-12.5 721.5,-34.5 721.5,-34.5 721.5,-40.5 715.5,-46.5 709.5,-46.5 709.5,-46.5 578.5,-46.5 578.5,-46.5 572.5,-46.5 566.5,-40.5 566.5,-34.5 566.5,-34.5 566.5,-12.5 566.5,-12.5 566.5,-6.5 572.5,-0.5 578.5,-0.5"/>
<text text-anchor="middle" x="584" y="-31.3" font-family="Times,serif" font-size="14.00">21</text>
<polyline fill="none" stroke="black" points="601.5,-23.5 601.5,-46.5 "/>
<text text-anchor="middle" x="629" y="-31.3" font-family="Times,serif" font-size="14.00">NUM</text>
<polyline fill="none" stroke="black" points="656.5,-23.5 656.5,-46.5 "/>
<text text-anchor="middle" x="689" y="-31.3" font-family="Times,serif" font-size="14.00">size=1</text>
<polyline fill="none" stroke="black" points="566.5,-23.5 721.5,-23.5 "/>
<text text-anchor="middle" x="644" y="-8.3" font-family="Times,serif" font-size="14.00">0,1</text>
</g>
<!-- node20&#45;&gt;node21 -->
<g id="edge40" class="edge">
<title>node20&#45;&gt;node21</title>
<path fill="none" stroke="red" d="M700.41,-83.37C690.04,-74.26 678.56,-63.58 668.63,-53.83"/>
<polygon fill="red" stroke="red" points="670.93,-51.19 661.38,-46.61 665.99,-56.15 670.93,-51.19"/>
</g>
<!-- node22 -->
<g id="node22" class="node">
<title>node22</title>
<path fill="pink" stroke="black" d="M751.5,-0.5C751.5,-0.5 882.5,-0.5 882.5,-0.5 888.5,-0.5 894.5,-6.5 894.5,-12.5 894.5,-12.5 894.5,-34.5 894.5,-34.5 894.5,-40.5 888.5,-46.5 882.5,-46.5 882.5,-46.5 751.5,-46.5 751.5,-46.5 745.5,-46.5 739.5,-40.5 739.5,-34.5 739.5,-34.5 739.5,-12.5 739.5,-12.5 739.5,-6.5 745.5,-0.5 751.5,-0.5"/>
<text text-anchor="middle" x="757" y="-31.3" font-family="Times,serif" font-size="14.00">22</text>
<polyline fill="none" stroke="black" points="774.5,-23.5 774.5,-46.5 "/>
<text text-anchor="middle" x="802" y="-31.3" font-family="Times,serif" font-size="14.00">NUM</text>
<polyline fill="none" stroke="black" points="829.5,-23.5 829.5,-46.5 "/>
<text text-anchor="middle" x="862" y="-31.3" font-family="Times,serif" font-size="14.00">size=1</text>
<polyline fill="none" stroke="black" points="739.5,-23.5 894.5,-23.5 "/>
<text text-anchor="middle" x="817" y="-8.3" font-family="Times,serif" font-size="14.00">2</text>
</g>
<!-- node20&#45;&gt;node22 -->
<g id="edge42" class="edge">
<title>node20&#45;&gt;node22</title>
<path fill="none" stroke="green" d="M747.68,-83.37C756.94,-74.08 768.54,-63.16 779.62,-53.26"/>
<polygon fill="green" stroke="green" points="781.98,-55.84 787.17,-46.61 777.35,-50.59 781.98,-55.84"/>
</g>
<!-- node21&#45;&gt;node20 -->
<g id="edge41" class="edge">
<title>node21&#45;&gt;node20</title>
<path fill="none" stroke="blue" d="M673.56,-46.61C683.93,-55.71 695.41,-66.39 705.34,-76.14"/>
<polygon fill="blue" stroke="blue" points="703.04,-78.78 712.59,-83.37 707.98,-73.83 703.04,-78.78"/>
</g>
<!-- node22&#45;&gt;node20 -->
<g id="edge43" class="edge">
<title>node22&#45;&gt;node20</title>
<path fill="none" stroke="blue" d="M799.34,-46.61C790.09,-55.89 778.5,-66.81 767.42,-76.71"/>
<polygon fill="blue" stroke="blue" points="765.05,-74.13 759.86,-83.37 769.68,-79.38 765.05,-74.13"/>
</g>
<!-- node23&#45;&gt;node15 -->
<g id="edge45" class="edge">
<title>node23&#45;&gt;node15</title>
<path fill="none" stroke="blue" d="M794.44,-295.61C785.72,-304.8 774.8,-315.6 764.3,-325.42"/>
<polygon fill="blue" stroke="blue" points="761.75,-323.01 756.77,-332.37 766.5,-328.16 761.75,-323.01"/>
</g>
<!-- node24&#45;&gt;node14 -->
<g id="edge47" class="edge">
<title>node24&#45;&gt;node14</title>
<path fill="none" stroke="blue" d="M945.22,-378.53C904.57,-390.13 853.79,-404.31 811.52,-415.86"/>
<polygon fill="blue" stroke="blue" points="810.54,-412.5 801.81,-418.51 812.38,-419.26 810.54,-412.5"/>
</g>
<!-- node25 -->
<g id="node25" class="node">
<title>node25</title>
<path fill="peachpuff" stroke="black" d="M961,-249.5C961,-249.5 1075,-249.5 1075,-249.5 1081,-249.5 1087,-255.5 1087,-261.5 1087,-261.5 1087,-283.5 1087,-283.5 1087,-289.5 1081,-295.5 1075,-295.5 1075,-295.5 961,-295.5 961,-295.5 955,-295.5 949,-289.5 949,-283.5 949,-283.5 949,-261.5 949,-261.5 949,-255.5 955,-249.5 961,-249.5"/>
<text text-anchor="middle" x="966.5" y="-280.3" font-family="Times,serif" font-size="14.00">25</text>
<polyline fill="none" stroke="black" points="984,-272.5 984,-295.5 "/>
<text text-anchor="middle" x="1003" y="-280.3" font-family="Times,serif" font-size="14.00">OP</text>
<polyline fill="none" stroke="black" points="1022,-272.5 1022,-295.5 "/>
<text text-anchor="middle" x="1054.5" y="-280.3" font-family="Times,serif" font-size="14.00">size=5</text>
<polyline fill="none" stroke="black" points="949,-272.5 1087,-272.5 "/>
<text text-anchor="middle" x="1018" y="-257.3" font-family="Times,serif" font-size="14.00">/</text>
</g>
<!-- node24&#45;&gt;node25 -->
<g id="edge48" class="edge">
<title>node24&#45;&gt;node25</title>
<path fill="none" stroke="red" d="M1011.91,-332.37C1011.28,-324.15 1011.1,-314.66 1011.38,-305.73"/>
<polygon fill="red" stroke="red" points="1014.88,-305.78 1011.91,-295.61 1007.89,-305.41 1014.88,-305.78"/>
</g>
<!-- node30 -->
<g id="node30" class="node">
<title>node30</title>
<path fill="peachpuff" stroke="black" d="M1176,-249.5C1176,-249.5 1290,-249.5 1290,-249.5 1296,-249.5 1302,-255.5 1302,-261.5 1302,-261.5 1302,-283.5 1302,-283.5 1302,-289.5 1296,-295.5 1290,-295.5 1290,-295.5 1176,-295.5 1176,-295.5 1170,-295.5 1164,-289.5 1164,-283.5 1164,-283.5 1164,-261.5 1164,-261.5 1164,-255.5 1170,-249.5 1176,-249.5"/>
<text text-anchor="middle" x="1181.5" y="-280.3" font-family="Times,serif" font-size="14.00">30</text>
<polyline fill="none" stroke="black" points="1199,-272.5 1199,-295.5 "/>
<text text-anchor="middle" x="1218" y="-280.3" font-family="Times,serif" font-size="14.00">OP</text>
<polyline fill="none" stroke="black" points="1237,-272.5 1237,-295.5 "/>
<text text-anchor="middle" x="1269.5" y="-280.3" font-family="Times,serif" font-size="14.00">size=5</text>
<polyline fill="none" stroke="black" points="1164,-272.5 1302,-272.5 "/>
<text text-anchor="middle" x="1233" y="-257.3" font-family="Times,serif" font-size="14.00">^</text>
</g>
<!-- node24&#45;&gt;node30 -->
<g id="edge58" class="edge">
<title>node24&#45;&gt;node30</title>
<path fill="none" stroke="green" d="M1070.38,-332.47C1096.95,-322.16 1129.64,-309.82 1158.75,-299.09"/>
<polygon fill="green" stroke="green" points="1160.28,-302.26 1168.46,-295.52 1157.87,-295.68 1160.28,-302.26"/>
</g>
<!-- node25&#45;&gt;node24 -->
<g id="edge49" class="edge">
<title>node25&#45;&gt;node24</title>
<path fill="none" stroke="blue" d="M1024.09,-295.61C1024.72,-303.82 1024.9,-313.31 1024.62,-322.25"/>
<polygon fill="blue" stroke="blue" points="1021.12,-322.2 1024.09,-332.37 1028.11,-322.56 1021.12,-322.2"/>
</g>
<!-- node26 -->
<g id="node26" class="node">
<title>node26</title>
<path fill="peachpuff" stroke="black" d="M838,-166.5C838,-166.5 952,-166.5 952,-166.5 958,-166.5 964,-172.5 964,-178.5 964,-178.5 964,-200.5 964,-200.5 964,-206.5 958,-212.5 952,-212.5 952,-212.5 838,-212.5 838,-212.5 832,-212.5 826,-206.5 826,-200.5 826,-200.5 826,-178.5 826,-178.5 826,-172.5 832,-166.5 838,-166.5"/>
<text text-anchor="middle" x="843.5" y="-197.3" font-family="Times,serif" font-size="14.00">26</text>
<polyline fill="none" stroke="black" points="861,-189.5 861,-212.5 "/>
<text text-anchor="middle" x="880" y="-197.3" font-family="Times,serif" font-size="14.00">OP</text>
<polyline fill="none" stroke="black" points="899,-189.5 899,-212.5 "/>
<text text-anchor="middle" x="931.5" y="-197.3" font-family="Times,serif" font-size="14.00">size=3</text>
<polyline fill="none" stroke="black" points="826,-189.5 964,-189.5 "/>
<text text-anchor="middle" x="895" y="-174.3" font-family="Times,serif" font-size="14.00">*</text>
</g>
<!-- node25&#45;&gt;node26 -->
<g id="edge50" class="edge">
<title>node25&#45;&gt;node26</title>
<path fill="none" stroke="red" d="M978.3,-249.37C963.06,-239.81 945.8,-228.53 930.93,-218.41"/>
<polygon fill="red" stroke="red" points="932.71,-215.38 922.48,-212.61 928.74,-221.15 932.71,-215.38"/>
</g>
<!-- node29 -->
<g id="node29" class="node">
<title>node29</title>
<path fill="pink" stroke="black" d="M994.5,-166.5C994.5,-166.5 1125.5,-166.5 1125.5,-166.5 1131.5,-166.5 1137.5,-172.5 1137.5,-178.5 1137.5,-178.5 1137.5,-200.5 1137.5,-200.5 1137.5,-206.5 1131.5,-212.5 1125.5,-212.5 1125.5,-212.5 994.5,-212.5 994.5,-212.5 988.5,-212.5 982.5,-206.5 982.5,-200.5 982.5,-200.5 982.5,-178.5 982.5,-178.5 982.5,-172.5 988.5,-166.5 994.5,-166.5"/>
<text text-anchor="middle" x="1000" y="-197.3" font-family="Times,serif" font-size="14.00">29</text>
<polyline fill="none" stroke="black" points="1017.5,-189.5 1017.5,-212.5 "/>
<text text-anchor="middle" x="1045" y="-197.3" font-family="Times,serif" font-size="14.00">NUM</text>
<polyline fill="none" stroke="black" points="1072.5,-189.5 1072.5,-212.5 "/>
<text text-anchor="middle" x="1105" y="-197.3" font-family="Times,serif" font-size="14.00">size=1</text>
<polyline fill="none" stroke="black" points="982.5,-189.5 1137.5,-189.5 "/>
<text text-anchor="middle" x="1060" y="-174.3" font-family="Times,serif" font-size="14.00">7</text>
</g>
<!-- node25&#45;&gt;node29 -->
<g id="edge56" class="edge">
<title>node25&#45;&gt;node29</title>
<path fill="none" stroke="green" d="M1023.39,-249.37C1027.17,-240.79 1032.17,-230.83 1037.31,-221.56"/>
<polygon fill="green" stroke="green" points="1040.51,-223.02 1042.45,-212.61 1034.44,-219.54 1040.51,-223.02"/>
</g>
<!-- node26&#45;&gt;node25 -->
<g id="edge51" class="edge">
<title>node26&#45;&gt;node25</title>
<path fill="none" stroke="blue" d="M934.66,-212.61C949.9,-222.16 967.15,-233.44 982.03,-243.56"/>
<polygon fill="blue" stroke="blue" points="980.26,-246.59 990.48,-249.37 984.22,-240.82 980.26,-246.59"/>
</g>
<!-- node27 -->
<g id="node27" class="node">
<title>node27</title>
<path fill="pink" stroke="black" d="M829.5,-83.5C829.5,-83.5 960.5,-83.5 960.5,-83.5 966.5,-83.5 972.5,-89.5 972.5,-95.5 972.5,-95.5 972.5,-117.5 972.5,-117.5 972.5,-123.5 966.5,-129.5 960.5,-129.5 960.5,-129.5 829.5,-129.5 829.5,-129.5 823.5,-129.5 817.5,-123.5 817.5,-117.5 817.5,-117.5 817.5,-95.5 817.5,-95.5 817.5,-89.5 823.5,-83.5 829.5,-83.5"/>
<text text-anchor="middle" x="835" y="-114.3" font-family="Times,serif" font-size="14.00">27</text>
<polyline fill="none" stroke="black" points="852.5,-106.5 852.5,-129.5 "/>
<text text-anchor="middle" x="880" y="-114.3" font-family="Times,serif" font-size="14.00">NUM</text>
<polyline fill="none" stroke="black" points="907.5,-106.5 907.5,-129.5 "/>
<text text-anchor="middle" x="940" y="-114.3" font-family="Times,serif" font-size="14.00">size=1</text>
<polyline fill="none" stroke="black" points="817.5,-106.5 972.5,-106.5 "/>
<text text-anchor="middle" x="895" y="-91.3" font-family="Times,serif" font-size="14.00">2</text>
</g>
<!-- node26&#45;&gt;node27 -->
<g id="edge52" class="edge">
<title>node26&#45;&gt;node27</title>
<path fill="none" stroke="red" d="M888.91,-166.37C888.28,-158.15 888.1,-148.66 888.38,-139.73"/>
<polygon fill="red" stroke="red" points="891.88,-139.78 888.91,-129.61 884.89,-139.41 891.88,-139.78"/>
</g>
<!-- node28 -->
<g id="node28" class="node">
<title>node28</title>
<path fill="pink" stroke="black" d="M1002.5,-83.5C1002.5,-83.5 1133.5,-83.5 1133.5,-83.5 1139.5,-83.5 1145.5,-89.5 1145.5,-95.5 1145.5,-95.5 1145.5,-117.5 1145.5,-117.5 1145.5,-123.5 1139.5,-129.5 1133.5,-129.5 1133.5,-129.5 1002.5,-129.5 1002.5,-129.5 996.5,-129.5 990.5,-123.5 990.5,-117.5 990.5,-117.5 990.5,-95.5 990.5,-95.5 990.5,-89.5 996.5,-83.5 1002.5,-83.5"/>
<text text-anchor="middle" x="1008" y="-114.3" font-family="Times,serif" font-size="14.00">28</text>
<polyline fill="none" stroke="black" points="1025.5,-106.5 1025.5,-129.5 "/>
<text text-anchor="middle" x="1053" y="-114.3" font-family="Times,serif" font-size="14.00">NUM</text>
<polyline fill="none" stroke="black" points="1080.5,-106.5 1080.5,-129.5 "/>
<text text-anchor="middle" x="1113" y="-114.3" font-family="Times,serif" font-size="14.00">size=1</text>
<polyline fill="none" stroke="black" points="990.5,-106.5 1145.5,-106.5 "/>
<text text-anchor="middle" x="1068" y="-91.3" font-family="Times,serif" font-size="14.00">16</text>
</g>
<!-- node26&#45;&gt;node28 -->
<g id="edge54" class="edge">
<title>node26&#45;&gt;node28</title>
<path fill="none" stroke="green" d="M936.18,-166.37C956.86,-156.32 982.31,-144.36 1005.34,-133.86"/>
<polygon fill="green" stroke="green" points="1007.04,-136.93 1014.7,-129.61 1004.14,-130.56 1007.04,-136.93"/>
</g>
<!-- node27&#45;&gt;node26 -->
<g id="edge53" class="edge">
<title>node27&#45;&gt;node26</title>
<path fill="none" stroke="blue" d="M901.09,-129.61C901.72,-137.82 901.9,-147.31 901.62,-156.25"/>
<polygon fill="blue" stroke="blue" points="898.12,-156.2 901.09,-166.37 905.11,-156.56 898.12,-156.2"/>
</g>
<!-- node28&#45;&gt;node26 -->
<g id="edge55" class="edge">
<title>node28&#45;&gt;node26</title>
<path fill="none" stroke="blue" d="M1026.87,-129.61C1006.2,-139.65 980.76,-151.61 957.73,-162.11"/>
<polygon fill="blue" stroke="blue" points="956.02,-159.04 948.36,-166.37 958.92,-165.42 956.02,-159.04"/>
</g>
<!-- node29&#45;&gt;node25 -->
<g id="edge57" class="edge">
<title>node29&#45;&gt;node25</title>
<path fill="none" stroke="blue" d="M1054.63,-212.61C1050.84,-221.18 1045.84,-231.14 1040.71,-240.41"/>
<polygon fill="blue" stroke="blue" points="1037.51,-238.95 1035.57,-249.37 1043.58,-242.43 1037.51,-238.95"/>
</g>
<!-- node30&#45;&gt;node24 -->
<g id="edge59" class="edge">
<title>node30&#45;&gt;node24</title>
<path fill="none" stroke="blue" d="M1180.63,-295.52C1154.06,-305.83 1121.37,-318.18 1092.27,-328.9"/>
<polygon fill="blue" stroke="blue" points="1090.73,-325.74 1082.55,-332.47 1093.14,-332.31 1090.73,-325.74"/>
</g>
<!-- node31 -->
<g id="node31" class="node">
<title>node31</title>
<path fill="pink" stroke="black" d="M1167.5,-166.5C1167.5,-166.5 1298.5,-166.5 1298.5,-166.5 1304.5,-166.5 1310.5,-172.5 1310.5,-178.5 1310.5,-178.5 1310.5,-200.5 1310.5,-200.5 1310.5,-206.5 1304.5,-212.5 1298.5,-212.5 1298.5,-212.5 1167.5,-212.5 1167.5,-212.5 1161.5,-212.5 1155.5,-206.5 1155.5,-200.5 1155.5,-200.5 1155.5,-178.5 1155.5,-178.5 1155.5,-172.5 1161.5,-166.5 1167.5,-166.5"/>
<text text-anchor="middle" x="1173" y="-197.3" font-family="Times,serif" font-size="14.00">31</text>
<polyline fill="none" stroke="black" points="1190.5,-189.5 1190.5,-212.5 "/>
<text text-anchor="middle" x="1218" y="-197.3" font-family="Times,serif" font-size="14.00">NUM</text>
<polyline fill="none" stroke="black" points="1245.5,-189.5 1245.5,-212.5 "/>
<text text-anchor="middle" x="1278" y="-197.3" font-family="Times,serif" font-size="14.00">size=1</text>
<polyline fill="none" stroke="black" points="1155.5,-189.5 1310.5,-189.5 "/>
<text text-anchor="middle" x="1233" y="-174.3" font-family="Times,serif" font-size="14.00">4</text>
</g>
<!-- node30&#45;&gt;node31 -->
<g id="edge60" class="edge">
<title>node30&#45;&gt;node31</title>
<path fill="none" stroke="red" d="M1226.91,-249.37C1226.28,-241.15 1226.1,-231.66 1226.38,-222.73"/>
<polygon fill="red" stroke="red" points="1229.88,-222.78 1226.91,-212.61 1222.89,-222.41 1229.88,-222.78"/>
</g>
<!-- node32 -->
<g id="node32" class="node">
<title>node32</title>
<path fill="peachpuff" stroke="black" d="M1341,-166.5C1341,-166.5 1455,-166.5 1455,-166.5 1461,-166.5 1467,-172.5 1467,-178.5 1467,-178.5 1467,-200.5 1467,-200.5 1467,-206.5 1461,-212.5 1455,-212.5 1455,-212.5 1341,-212.5 1341,-212.5 1335,-212.5 1329,-206.5 1329,-200.5 1329,-200.5 1329,-178.5 1329,-178.5 1329,-172.5 1335,-166.5 1341,-166.5"/>
<text text-anchor="middle" x="1346.5" y="-197.3" font-family="Times,serif" font-size="14.00">32</text>
<polyline fill="none" stroke="black" points="1364,-189.5 1364,-212.5 "/>
<text text-anchor="middle" x="1383" y="-197.3" font-family="Times,serif" font-size="14.00">OP</text>
<polyline fill="none" stroke="black" points="1402,-189.5 1402,-212.5 "/>
<text text-anchor="middle" x="1434.5" y="-197.3" font-family="Times,serif" font-size="14.00">size=3</text>
<polyline fill="none" stroke="black" points="1329,-189.5 1467,-189.5 "/>
<text text-anchor="middle" x="1398" y="-174.3" font-family="Times,serif" font-size="14.00">^</text>
</g>
<!-- node30&#45;&gt;node32 -->
<g id="edge62" class="edge">
<title>node30&#45;&gt;node32</title>
<path fill="none" stroke="green" d="M1272,-249.37C1291.6,-239.37 1315.74,-227.47 1337.64,-217"/>
<polygon fill="green" stroke="green" points="1339.35,-220.06 1346.88,-212.61 1336.34,-213.74 1339.35,-220.06"/>
</g>
<!-- node31&#45;&gt;node30 -->
<g id="edge61" class="edge">
<title>node31&#45;&gt;node30</title>
<path fill="none" stroke="blue" d="M1239.09,-212.61C1239.72,-220.82 1239.9,-230.31 1239.62,-239.25"/>
<polygon fill="blue" stroke="blue" points="1236.12,-239.2 1239.09,-249.37 1243.11,-239.56 1236.12,-239.2"/>
</g>
<!-- node32&#45;&gt;node30 -->
<g id="edge63" class="edge">
<title>node32&#45;&gt;node30</title>
<path fill="none" stroke="blue" d="M1359.06,-212.61C1339.46,-222.6 1315.33,-234.5 1293.41,-244.97"/>
<polygon fill="blue" stroke="blue" points="1291.71,-241.91 1284.18,-249.37 1294.71,-248.23 1291.71,-241.91"/>
</g>
<!-- node33 -->
<g id="node33" class="node">
<title>node33</title>
<path fill="pink" stroke="black" d="M1253.5,-83.5C1253.5,-83.5 1384.5,-83.5 1384.5,-83.5 1390.5,-83.5 1396.5,-89.5 1396.5,-95.5 1396.5,-95.5 1396.5,-117.5 1396.5,-117.5 1396.5,-123.5 1390.5,-129.5 1384.5,-129.5 1384.5,-129.5 1253.5,-129.5 1253.5,-129.5 1247.5,-129.5 1241.5,-123.5 1241.5,-117.5 1241.5,-117.5 1241.5,-95.5 1241.5,-95.5 1241.5,-89.5 1247.5,-83.5 1253.5,-83.5"/>
<text text-anchor="middle" x="1259" y="-114.3" font-family="Times,serif" font-size="14.00">33</text>
<polyline fill="none" stroke="black" points="1276.5,-106.5 1276.5,-129.5 "/>
<text text-anchor="middle" x="1304" y="-114.3" font-family="Times,serif" font-size="14.00">NUM</text>
<polyline fill="none" stroke="black" points="1331.5,-106.5 1331.5,-129.5 "/>
<text text-anchor="middle" x="1364" y="-114.3" font-family="Times,serif" font-size="14.00">size=1</text>
<polyline fill="none" stroke="black" points="1241.5,-106.5 1396.5,-106.5 "/>
<text text-anchor="middle" x="1319" y="-91.3" font-family="Times,serif" font-size="14.00">1</text>
</g>
<!-- node32&#45;&gt;node33 -->
<g id="edge64" class="edge">
<title>node32&#45;&gt;node33</title>
<path fill="none" stroke="red" d="M1370.32,-166.37C1360.83,-157.35 1350.39,-146.79 1341.36,-137.12"/>
<polygon fill="red" stroke="red" points="1343.81,-134.61 1334.47,-129.61 1338.65,-139.34 1343.81,-134.61"/>
</g>
<!-- node34 -->
<g id="node34" class="node">
<title>node34</title>
<path fill="pink" stroke="black" d="M1426.5,-83.5C1426.5,-83.5 1557.5,-83.5 1557.5,-83.5 1563.5,-83.5 1569.5,-89.5 1569.5,-95.5 1569.5,-95.5 1569.5,-117.5 1569.5,-117.5 1569.5,-123.5 1563.5,-129.5 1557.5,-129.5 1557.5,-129.5 1426.5,-129.5 1426.5,-129.5 1420.5,-129.5 1414.5,-123.5 1414.5,-117.5 1414.5,-117.5 1414.5,-95.5 1414.5,-95.5 1414.5,-89.5 1420.5,-83.5 1426.5,-83.5"/>
<text text-anchor="middle" x="1432" y="-114.3" font-family="Times,serif" font-size="14.00">34</text>
<polyline fill="none" stroke="black" points="1449.5,-106.5 1449.5,-129.5 "/>
<text text-anchor="middle" x="1477" y="-114.3" font-family="Times,serif" font-size="14.00">NUM</text>
<polyline fill="none" stroke="black" points="1504.5,-106.5 1504.5,-129.5 "/>
<text text-anchor="middle" x="1537" y="-114.3" font-family="Times,serif" font-size="14.00">size=1</text>
<polyline fill="none" stroke="black" points="1414.5,-106.5 1569.5,-106.5 "/>
<text text-anchor="middle" x="1492" y="-91.3" font-family="Times,serif" font-size="14.00">1,512</text>
</g>
<!-- node32&#45;&gt;node34 -->
<g id="edge66" class="edge">
<title>node32&#45;&gt;node34</title>
<path fill="none" stroke="green" d="M1417.6,-166.37C1427.75,-156.99 1440.44,-145.95 1452.47,-135.98"/>
<polygon fill="green" stroke="green" points="1454.74,-138.65 1460.26,-129.61 1450.3,-133.23 1454.74,-138.65"/>
</g>
<!-- node33&#45;&gt;node32 -->
<g id="edge65" class="edge">
<title>node33&#45;&gt;node32</title>
<path fill="none" stroke="blue" d="M1346.65,-129.61C1356.14,-138.62 1366.58,-149.18 1375.61,-158.85"/>
<polygon fill="blue" stroke="blue" points="1373.17,-161.36 1382.5,-166.37 1378.33,-156.63 1373.17,-161.36"/>
</g>
<!-- node34&#45;&gt;node32 -->
<g id="edge67" class="edge">
<title>node34&#45;&gt;node32</title>
<path fill="none" stroke="blue" d="M1472.43,-129.61C1462.28,-138.98 1449.6,-150.02 1437.56,-159.99"/>
<polygon fill="blue" stroke="blue" points="1435.3,-157.32 1429.78,-166.37 1439.73,-162.74 1435.3,-157.32"/>
</g>
<!-- node35&#45;&gt;node3 -->
<g id="edge69" class="edge">
<title>node35&#45;&gt;node3</title>
<path fill="none" stroke="blue" d="M813.25,-544.61C804.88,-553.8 794.36,-564.6 784.22,-574.42"/>
<polygon fill="blue" stroke="blue" points="781.77,-571.93 776.95,-581.37 786.6,-576.99 781.77,-571.93"/>
</g>
<!-- node36&#45;&gt;node2 -->
<g id="edge71" class="edge">
<title>node36&#45;&gt;node2</title>
<path fill="none" stroke="blue" d="M915.09,-627.61C915.72,-635.82 915.9,-645.31 915.62,-654.25"/>
<polygon fill="blue" stroke="blue" points="912.12,-654.2 915.09,-664.37 919.11,-654.56 912.12,-654.2"/>
</g>
<!-- node37&#45;&gt;node1 -->
<g id="edge73" class="edge">
<title>node37&#45;&gt;node1</title>
<path fill="none" stroke="blue" d="M1051.25,-710.61C1042.88,-719.8 1032.36,-730.6 1022.22,-740.42"/>
<polygon fill="blue" stroke="blue" points="1019.77,-737.93 1014.95,-747.37 1024.6,-742.99 1019.77,-737.93"/>
</g>
<!-- node38 -->
<g id="node38" class="node">
<title>node38</title>
<path fill="peachpuff" stroke="black" d="M1012,-581.5C1012,-581.5 1126,-581.5 1126,-581.5 1132,-581.5 1138,-587.5 1138,-593.5 1138,-593.5 1138,-615.5 1138,-615.5 1138,-621.5 1132,-627.5 1126,-627.5 1126,-627.5 1012,-627.5 1012,-627.5 1006,-627.5 1000,-621.5 1000,-615.5 1000,-615.5 1000,-593.5 1000,-593.5 1000,-587.5 1006,-581.5 1012,-581.5"/>
<text text-anchor="middle" x="1017.5" y="-612.3" font-family="Times,serif" font-size="14.00">38</text>
<polyline fill="none" stroke="black" points="1035,-604.5 1035,-627.5 "/>
<text text-anchor="middle" x="1054" y="-612.3" font-family="Times,serif" font-size="14.00">OP</text>
<polyline fill="none" stroke="black" points="1073,-604.5 1073,-627.5 "/>
<text text-anchor="middle" x="1105.5" y="-612.3" font-family="Times,serif" font-size="14.00">size=4</text>
<polyline fill="none" stroke="black" points="1000,-604.5 1138,-604.5 "/>
<text text-anchor="middle" x="1069" y="-589.3" font-family="Times,serif" font-size="14.00">sh</text>
</g>
<!-- node37&#45;&gt;node38 -->
<g id="edge74" class="edge">
<title>node37&#45;&gt;node38</title>
<path fill="none" stroke="red" d="M1061.46,-664.37C1061.03,-656.15 1061.08,-646.66 1061.58,-637.73"/>
<polygon fill="red" stroke="red" points="1065.08,-637.85 1062.37,-627.61 1058.1,-637.31 1065.08,-637.85"/>
</g>
<!-- node38&#45;&gt;node37 -->
<g id="edge75" class="edge">
<title>node38&#45;&gt;node37</title>
<path fill="none" stroke="blue" d="M1074.54,-627.61C1074.97,-635.82 1074.92,-645.31 1074.42,-654.25"/>
<polygon fill="blue" stroke="blue" points="1070.92,-654.13 1073.64,-664.37 1077.9,-654.67 1070.92,-654.13"/>
</g>
<!-- node39 -->
<g id="node39" class="node">
<title>node39</title>
<path fill="peachpuff" stroke="black" d="M1012,-498.5C1012,-498.5 1126,-498.5 1126,-498.5 1132,-498.5 1138,-504.5 1138,-510.5 1138,-510.5 1138,-532.5 1138,-532.5 1138,-538.5 1132,-544.5 1126,-544.5 1126,-544.5 1012,-544.5 1012,-544.5 1006,-544.5 1000,-538.5 1000,-532.5 1000,-532.5 1000,-510.5 1000,-510.5 1000,-504.5 1006,-498.5 1012,-498.5"/>
<text text-anchor="middle" x="1017.5" y="-529.3" font-family="Times,serif" font-size="14.00">39</text>
<polyline fill="none" stroke="black" points="1035,-521.5 1035,-544.5 "/>
<text text-anchor="middle" x="1054" y="-529.3" font-family="Times,serif" font-size="14.00">OP</text>
<polyline fill="none" stroke="black" points="1073,-521.5 1073,-544.5 "/>
<text text-anchor="middle" x="1105.5" y="-529.3" font-family="Times,serif" font-size="14.00">size=3</text>
<polyline fill="none" stroke="black" points="1000,-521.5 1138,-521.5 "/>
<text text-anchor="middle" x="1069" y="-506.3" font-family="Times,serif" font-size="14.00">^</text>
</g>
<!-- node38&#45;&gt;node39 -->
<g id="edge76" class="edge">
<title>node38&#45;&gt;node39</title>
<path fill="none" stroke="red" d="M1062.91,-581.37C1062.28,-573.15 1062.1,-563.66 1062.38,-554.73"/>
<polygon fill="red" stroke="red" points="1065.88,-554.78 1062.91,-544.61 1058.89,-554.41 1065.88,-554.78"/>
</g>
<!-- node39&#45;&gt;node38 -->
<g id="edge77" class="edge">
<title>node39&#45;&gt;node38</title>
<path fill="none" stroke="blue" d="M1075.09,-544.61C1075.72,-552.82 1075.9,-562.31 1075.62,-571.25"/>
<polygon fill="blue" stroke="blue" points="1072.12,-571.2 1075.09,-581.37 1079.11,-571.56 1072.12,-571.2"/>
</g>
<!-- node40 -->
<g id="node40" class="node">
<title>node40</title>
<path fill="lightyellow" stroke="black" d="M949,-415.5C949,-415.5 1071,-415.5 1071,-415.5 1077,-415.5 1083,-421.5 1083,-427.5 1083,-427.5 1083,-449.5 1083,-449.5 1083,-455.5 1077,-461.5 1071,-461.5 1071,-461.5 949,-461.5 949,-461.5 943,-461.5 937,-455.5 937,-449.5 937,-449.5 937,-427.5 937,-427.5 937,-421.5 943,-415.5 949,-415.5"/>
<text text-anchor="middle" x="954.5" y="-446.3" font-family="Times,serif" font-size="14.00">40</text>
<polyline fill="none" stroke="black" points="972,-438.5 972,-461.5 "/>
<text text-anchor="middle" x="995" y="-446.3" font-family="Times,serif" font-size="14.00">VAR</text>
<polyline fill="none" stroke="black" points="1018,-438.5 1018,-461.5 "/>
<text text-anchor="middle" x="1050.5" y="-446.3" font-family="Times,serif" font-size="14.00">size=1</text>
<polyline fill="none" stroke="black" points="937,-438.5 1083,-438.5 "/>
<text text-anchor="middle" x="1010" y="-423.3" font-family="Times,serif" font-size="14.00">x</text>
</g>
<!-- node39&#45;&gt;node40 -->
<g id="edge78" class="edge">
<title>node39&#45;&gt;node40</title>
<path fill="none" stroke="red" d="M1046.79,-498.37C1039.74,-489.62 1032.15,-479.41 1025.64,-469.99"/>
<polygon fill="red" stroke="red" points="1028.5,-467.96 1020.01,-461.61 1022.68,-471.86 1028.5,-467.96"/>
</g>
<!-- node41 -->
<g id="node41" class="node">
<title>node41</title>
<path fill="lightyellow" stroke="black" d="M1113,-415.5C1113,-415.5 1235,-415.5 1235,-415.5 1241,-415.5 1247,-421.5 1247,-427.5 1247,-427.5 1247,-449.5 1247,-449.5 1247,-455.5 1241,-461.5 1235,-461.5 1235,-461.5 1113,-461.5 1113,-461.5 1107,-461.5 1101,-455.5 1101,-449.5 1101,-449.5 1101,-427.5 1101,-427.5 1101,-421.5 1107,-415.5 1113,-415.5"/>
<text text-anchor="middle" x="1118.5" y="-446.3" font-family="Times,serif" font-size="14.00">41</text>
<polyline fill="none" stroke="black" points="1136,-438.5 1136,-461.5 "/>
<text text-anchor="middle" x="1159" y="-446.3" font-family="Times,serif" font-size="14.00">VAR</text>
<polyline fill="none" stroke="black" points="1182,-438.5 1182,-461.5 "/>
<text text-anchor="middle" x="1214.5" y="-446.3" font-family="Times,serif" font-size="14.00">size=1</text>
<polyline fill="none" stroke="black" points="1101,-438.5 1247,-438.5 "/>
<text text-anchor="middle" x="1174" y="-423.3" font-family="Times,serif" font-size="14.00">x</text>
</g>
<!-- node39&#45;&gt;node41 -->
<g id="edge80" class="edge">
<title>node39&#45;&gt;node41</title>
<path fill="none" stroke="green" d="M1091.6,-498.37C1103.14,-488.9 1117.49,-477.74 1130.99,-467.69"/>
<polygon fill="green" stroke="green" points="1133.28,-470.35 1139.25,-461.61 1129.13,-464.72 1133.28,-470.35"/>
</g>
<!-- node40&#45;&gt;node39 -->
<g id="edge79" class="edge">
<title>node40&#45;&gt;node39</title>
<path fill="none" stroke="blue" d="M1032.19,-461.61C1039.24,-470.35 1046.83,-480.56 1053.34,-489.99"/>
<polygon fill="blue" stroke="blue" points="1050.49,-492.02 1058.97,-498.37 1056.3,-488.11 1050.49,-492.02"/>
</g>
<!-- node41&#45;&gt;node39 -->
<g id="edge81" class="edge">
<title>node41&#45;&gt;node39</title>
<path fill="none" stroke="blue" d="M1151.43,-461.61C1139.9,-471.07 1125.55,-482.23 1112.05,-492.28"/>
<polygon fill="blue" stroke="blue" points="1109.76,-489.62 1103.78,-498.37 1113.91,-495.26 1109.76,-489.62"/>
</g>
</g>
</svg>
