<?xml version="1.0" encoding="UTF-8" standalone="no"?>
<!DOCTYPE svg PUBLIC "-//W3C//DTD SVG 1.1//EN"
 "http://www.w3.org/Graphics/SVG/1.1/DTD/svg11.dtd">
<!-- Generated by graphviz version 2.43.0 (0)
 -->
<!-- Title: %3 Pages: 1 -->
<svg width="1574pt" height="719pt"
 viewBox="0.00 0.00 1573.50 719.00" xmlns="http://www.w3.org/2000/svg" xmlns:xlink="http://www.w3.org/1999/xlink">
<g id="graph0" class="graph" transform="scale(1 1) rotate(0) translate(4 715)">
<title>%3</title>
<polygon fill="white" stroke="transparent" points="-4,4 -4,-715 1569.5,-715 1569.5,4 -4,4"/>
<!-- node1 -->
<g id="node1" class="node">
<title>node1</title>
<path fill="peachpuff" stroke="black" d="M536,-664.5C536,-664.5 650,-664.5 650,-664.5 656,-664.5 662,-670.5 662,-676.5 662,-676.5 662,-698.5 662,-698.5 662,-704.5 656,-710.5 650,-710.5 650,-710.5 536,-710.5 536,-710.5 530,-710.5 524,-704.5 524,-698.5 524,-698.5 524,-676.5 524,-676.5 524,-670.5 530,-664.5 536,-664.5"/>
<text text-anchor="middle" x="537" y="-695.3" font-family="Times,serif" font-size="14.00">1</text>
<polyline fill="none" stroke="black" points="550,-687.5 550,-710.5 "/>
<text text-anchor="middle" x="569" y="-695.3" font-family="Times,serif" font-size="14.00">OP</text>
<polyline fill="none" stroke="black" points="588,-687.5 588,-710.5 "/>
<text text-anchor="middle" x="625" y="-695.3" font-family="Times,serif" font-size="14.00">size=35</text>
<polyline fill="none" stroke="black" points="524,-687.5 662,-687.5 "/>
<text text-anchor="middle" x="593" y="-672.3" font-family="Times,serif" font-size="14.00">+</text>
</g>
<!-- node1&#45;&gt;node1 -->
<g id="edge1" class="edge">
<title>node1&#45;&gt;node1</title>
<path fill="none" stroke="blue" d="M662.27,-701.52C672.83,-699.38 680,-694.71 680,-687.5 680,-682.77 676.91,-679.13 671.81,-676.58"/>
<polygon fill="blue" stroke="blue" points="672.87,-673.25 662.27,-673.48 670.7,-679.9 672.87,-673.25"/>
</g>
<!-- node2 -->
<g id="node2" class="node">
<title>node2</title>
<path fill="peachpuff" stroke="black" d="M456,-581.5C456,-581.5 570,-581.5 570,-581.5 576,-581.5 582,-587.5 582,-593.5 582,-593.5 582,-615.5 582,-615.5 582,-621.5 576,-627.5 570,-627.5 570,-627.5 456,-627.5 456,-627.5 450,-627.5 444,-621.5 444,-615.5 444,-615.5 444,-593.5 444,-593.5 444,-587.5 450,-581.5 456,-581.5"/>
<text text-anchor="middle" x="457" y="-612.3" font-family="Times,serif" font-size="14.00">2</text>
<polyline fill="none" stroke="black" points="470,-604.5 470,-627.5 "/>
<text text-anchor="middle" x="489" y="-612.3" font-family="Times,serif" font-size="14.00">OP</text>
<polyline fill="none" stroke="black" points="508,-604.5 508,-627.5 "/>
<text text-anchor="middle" x="545" y="-612.3" font-family="Times,serif" font-size="14.00">size=33</text>
<polyline fill="none" stroke="black" points="444,-604.5 582,-604.5 "/>
<text text-anchor="middle" x="513" y="-589.3" font-family="Times,serif" font-size="14.00">&#45;</text>
</g>
<!-- node1&#45;&gt;node2 -->
<g id="edge2" class="edge">
<title>node1&#45;&gt;node2</title>
<path fill="none" stroke="red" d="M565.05,-664.37C555.45,-655.35 544.87,-644.79 535.73,-635.12"/>
<polygon fill="red" stroke="red" points="538.12,-632.55 528.75,-627.61 532.99,-637.32 538.12,-632.55"/>
</g>
<!-- node35 -->
<g id="node35" class="node">
<title>node35</title>
<path fill="lightyellow" stroke="black" d="M612,-581.5C612,-581.5 734,-581.5 734,-581.5 740,-581.5 746,-587.5 746,-593.5 746,-593.5 746,-615.5 746,-615.5 746,-621.5 740,-627.5 734,-627.5 734,-627.5 612,-627.5 612,-627.5 606,-627.5 600,-621.5 600,-615.5 600,-615.5 600,-593.5 600,-593.5 600,-587.5 606,-581.5 612,-581.5"/>
<text text-anchor="middle" x="617.5" y="-612.3" font-family="Times,serif" font-size="14.00">35</text>
<polyline fill="none" stroke="black" points="635,-604.5 635,-627.5 "/>
<text text-anchor="middle" x="658" y="-612.3" font-family="Times,serif" font-size="14.00">VAR</text>
<polyline fill="none" stroke="black" points="681,-604.5 681,-627.5 "/>
<text text-anchor="middle" x="713.5" y="-612.3" font-family="Times,serif" font-size="14.00">size=1</text>
<polyline fill="none" stroke="black" points="600,-604.5 746,-604.5 "/>
<text text-anchor="middle" x="673" y="-589.3" font-family="Times,serif" font-size="14.00">x</text>
</g>
<!-- node1&#45;&gt;node35 -->
<g id="edge68" class="edge">
<title>node1&#45;&gt;node35</title>
<path fill="none" stroke="green" d="M608.77,-664.37C617.15,-655.17 627.67,-644.37 637.81,-634.55"/>
<polygon fill="green" stroke="green" points="640.26,-637.04 645.08,-627.61 635.43,-631.98 640.26,-637.04"/>
</g>
<!-- node2&#45;&gt;node1 -->
<g id="edge3" class="edge">
<title>node2&#45;&gt;node1</title>
<path fill="none" stroke="blue" d="M540.92,-627.61C550.52,-636.62 561.1,-647.18 570.25,-656.85"/>
<polygon fill="blue" stroke="blue" points="567.86,-659.42 577.23,-664.37 572.99,-654.66 567.86,-659.42"/>
</g>
<!-- node3 -->
<g id="node3" class="node">
<title>node3</title>
<path fill="peachpuff" stroke="black" d="M376,-498.5C376,-498.5 490,-498.5 490,-498.5 496,-498.5 502,-504.5 502,-510.5 502,-510.5 502,-532.5 502,-532.5 502,-538.5 496,-544.5 490,-544.5 490,-544.5 376,-544.5 376,-544.5 370,-544.5 364,-538.5 364,-532.5 364,-532.5 364,-510.5 364,-510.5 364,-504.5 370,-498.5 376,-498.5"/>
<text text-anchor="middle" x="377" y="-529.3" font-family="Times,serif" font-size="14.00">3</text>
<polyline fill="none" stroke="black" points="390,-521.5 390,-544.5 "/>
<text text-anchor="middle" x="409" y="-529.3" font-family="Times,serif" font-size="14.00">OP</text>
<polyline fill="none" stroke="black" points="428,-521.5 428,-544.5 "/>
<text text-anchor="middle" x="465" y="-529.3" font-family="Times,serif" font-size="14.00">size=31</text>
<polyline fill="none" stroke="black" points="364,-521.5 502,-521.5 "/>
<text text-anchor="middle" x="433" y="-506.3" font-family="Times,serif" font-size="14.00">*</text>
</g>
<!-- node2&#45;&gt;node3 -->
<g id="edge4" class="edge">
<title>node2&#45;&gt;node3</title>
<path fill="none" stroke="red" d="M485.05,-581.37C475.45,-572.35 464.87,-561.79 455.73,-552.12"/>
<polygon fill="red" stroke="red" points="458.12,-549.55 448.75,-544.61 452.99,-554.32 458.12,-549.55"/>
</g>
<!-- node34 -->
<g id="node34" class="node">
<title>node34</title>
<path fill="lightyellow" stroke="black" d="M532,-498.5C532,-498.5 654,-498.5 654,-498.5 660,-498.5 666,-504.5 666,-510.5 666,-510.5 666,-532.5 666,-532.5 666,-538.5 660,-544.5 654,-544.5 654,-544.5 532,-544.5 532,-544.5 526,-544.5 520,-538.5 520,-532.5 520,-532.5 520,-510.5 520,-510.5 520,-504.5 526,-498.5 532,-498.5"/>
<text text-anchor="middle" x="537.5" y="-529.3" font-family="Times,serif" font-size="14.00">34</text>
<polyline fill="none" stroke="black" points="555,-521.5 555,-544.5 "/>
<text text-anchor="middle" x="578" y="-529.3" font-family="Times,serif" font-size="14.00">VAR</text>
<polyline fill="none" stroke="black" points="601,-521.5 601,-544.5 "/>
<text text-anchor="middle" x="633.5" y="-529.3" font-family="Times,serif" font-size="14.00">size=1</text>
<polyline fill="none" stroke="black" points="520,-521.5 666,-521.5 "/>
<text text-anchor="middle" x="593" y="-506.3" font-family="Times,serif" font-size="14.00">x</text>
</g>
<!-- node2&#45;&gt;node34 -->
<g id="edge66" class="edge">
<title>node2&#45;&gt;node34</title>
<path fill="none" stroke="green" d="M528.77,-581.37C537.15,-572.17 547.67,-561.37 557.81,-551.55"/>
<polygon fill="green" stroke="green" points="560.26,-554.04 565.08,-544.61 555.43,-548.98 560.26,-554.04"/>
</g>
<!-- node3&#45;&gt;node2 -->
<g id="edge5" class="edge">
<title>node3&#45;&gt;node2</title>
<path fill="none" stroke="blue" d="M460.92,-544.61C470.52,-553.62 481.1,-564.18 490.25,-573.85"/>
<polygon fill="blue" stroke="blue" points="487.86,-576.42 497.23,-581.37 492.99,-571.66 487.86,-576.42"/>
</g>
<!-- node4 -->
<g id="node4" class="node">
<title>node4</title>
<path fill="peachpuff" stroke="black" d="M297.5,-415.5C297.5,-415.5 402.5,-415.5 402.5,-415.5 408.5,-415.5 414.5,-421.5 414.5,-427.5 414.5,-427.5 414.5,-449.5 414.5,-449.5 414.5,-455.5 408.5,-461.5 402.5,-461.5 402.5,-461.5 297.5,-461.5 297.5,-461.5 291.5,-461.5 285.5,-455.5 285.5,-449.5 285.5,-449.5 285.5,-427.5 285.5,-427.5 285.5,-421.5 291.5,-415.5 297.5,-415.5"/>
<text text-anchor="middle" x="298.5" y="-446.3" font-family="Times,serif" font-size="14.00">4</text>
<polyline fill="none" stroke="black" points="311.5,-438.5 311.5,-461.5 "/>
<text text-anchor="middle" x="330.5" y="-446.3" font-family="Times,serif" font-size="14.00">OP</text>
<polyline fill="none" stroke="black" points="349.5,-438.5 349.5,-461.5 "/>
<text text-anchor="middle" x="382" y="-446.3" font-family="Times,serif" font-size="14.00">size=9</text>
<polyline fill="none" stroke="black" points="285.5,-438.5 414.5,-438.5 "/>
<text text-anchor="middle" x="350" y="-423.3" font-family="Times,serif" font-size="14.00">/</text>
</g>
<!-- node3&#45;&gt;node4 -->
<g id="edge6" class="edge">
<title>node3&#45;&gt;node4</title>
<path fill="none" stroke="red" d="M404.23,-498.37C394.2,-489.26 383.11,-478.58 373.54,-468.83"/>
<polygon fill="red" stroke="red" points="376.03,-466.37 366.56,-461.61 370.99,-471.23 376.03,-466.37"/>
</g>
<!-- node13 -->
<g id="node13" class="node">
<title>node13</title>
<path fill="peachpuff" stroke="black" d="M621.5,-415.5C621.5,-415.5 744.5,-415.5 744.5,-415.5 750.5,-415.5 756.5,-421.5 756.5,-427.5 756.5,-427.5 756.5,-449.5 756.5,-449.5 756.5,-455.5 750.5,-461.5 744.5,-461.5 744.5,-461.5 621.5,-461.5 621.5,-461.5 615.5,-461.5 609.5,-455.5 609.5,-449.5 609.5,-449.5 609.5,-427.5 609.5,-427.5 609.5,-421.5 615.5,-415.5 621.5,-415.5"/>
<text text-anchor="middle" x="627" y="-446.3" font-family="Times,serif" font-size="14.00">13</text>
<polyline fill="none" stroke="black" points="644.5,-438.5 644.5,-461.5 "/>
<text text-anchor="middle" x="663.5" y="-446.3" font-family="Times,serif" font-size="14.00">OP</text>
<polyline fill="none" stroke="black" points="682.5,-438.5 682.5,-461.5 "/>
<text text-anchor="middle" x="719.5" y="-446.3" font-family="Times,serif" font-size="14.00">size=21</text>
<polyline fill="none" stroke="black" points="609.5,-438.5 756.5,-438.5 "/>
<text text-anchor="middle" x="683" y="-423.3" font-family="Times,serif" font-size="14.00">^</text>
</g>
<!-- node3&#45;&gt;node13 -->
<g id="edge24" class="edge">
<title>node3&#45;&gt;node13</title>
<path fill="none" stroke="green" d="M494.9,-498.47C526.46,-487.98 565.26,-475.39 599.42,-464.54"/>
<polygon fill="green" stroke="green" points="600.92,-467.74 609.39,-461.38 598.8,-461.07 600.92,-467.74"/>
</g>
<!-- node4&#45;&gt;node3 -->
<g id="edge7" class="edge">
<title>node4&#45;&gt;node3</title>
<path fill="none" stroke="blue" d="M378.74,-461.61C388.77,-470.71 399.86,-481.39 409.43,-491.14"/>
<polygon fill="blue" stroke="blue" points="406.95,-493.6 416.41,-498.37 411.98,-488.74 406.95,-493.6"/>
</g>
<!-- node5 -->
<g id="node5" class="node">
<title>node5</title>
<path fill="peachpuff" stroke="black" d="M64.5,-332.5C64.5,-332.5 169.5,-332.5 169.5,-332.5 175.5,-332.5 181.5,-338.5 181.5,-344.5 181.5,-344.5 181.5,-366.5 181.5,-366.5 181.5,-372.5 175.5,-378.5 169.5,-378.5 169.5,-378.5 64.5,-378.5 64.5,-378.5 58.5,-378.5 52.5,-372.5 52.5,-366.5 52.5,-366.5 52.5,-344.5 52.5,-344.5 52.5,-338.5 58.5,-332.5 64.5,-332.5"/>
<text text-anchor="middle" x="65.5" y="-363.3" font-family="Times,serif" font-size="14.00">5</text>
<polyline fill="none" stroke="black" points="78.5,-355.5 78.5,-378.5 "/>
<text text-anchor="middle" x="97.5" y="-363.3" font-family="Times,serif" font-size="14.00">OP</text>
<polyline fill="none" stroke="black" points="116.5,-355.5 116.5,-378.5 "/>
<text text-anchor="middle" x="149" y="-363.3" font-family="Times,serif" font-size="14.00">size=2</text>
<polyline fill="none" stroke="black" points="52.5,-355.5 181.5,-355.5 "/>
<text text-anchor="middle" x="117" y="-340.3" font-family="Times,serif" font-size="14.00">cos</text>
</g>
<!-- node4&#45;&gt;node5 -->
<g id="edge8" class="edge">
<title>node4&#45;&gt;node5</title>
<path fill="none" stroke="red" d="M285.25,-417.06C253.79,-406.44 216.04,-393.36 184.26,-382.08"/>
<polygon fill="red" stroke="red" points="185.19,-378.7 174.6,-378.64 182.84,-385.29 185.19,-378.7"/>
</g>
<!-- node7 -->
<g id="node7" class="node">
<title>node7</title>
<path fill="peachpuff" stroke="black" d="M297.5,-332.5C297.5,-332.5 402.5,-332.5 402.5,-332.5 408.5,-332.5 414.5,-338.5 414.5,-344.5 414.5,-344.5 414.5,-366.5 414.5,-366.5 414.5,-372.5 408.5,-378.5 402.5,-378.5 402.5,-378.5 297.5,-378.5 297.5,-378.5 291.5,-378.5 285.5,-372.5 285.5,-366.5 285.5,-366.5 285.5,-344.5 285.5,-344.5 285.5,-338.5 291.5,-332.5 297.5,-332.5"/>
<text text-anchor="middle" x="298.5" y="-363.3" font-family="Times,serif" font-size="14.00">7</text>
<polyline fill="none" stroke="black" points="311.5,-355.5 311.5,-378.5 "/>
<text text-anchor="middle" x="330.5" y="-363.3" font-family="Times,serif" font-size="14.00">OP</text>
<polyline fill="none" stroke="black" points="349.5,-355.5 349.5,-378.5 "/>
<text text-anchor="middle" x="382" y="-363.3" font-family="Times,serif" font-size="14.00">size=6</text>
<polyline fill="none" stroke="black" points="285.5,-355.5 414.5,-355.5 "/>
<text text-anchor="middle" x="350" y="-340.3" font-family="Times,serif" font-size="14.00">log</text>
</g>
<!-- node4&#45;&gt;node7 -->
<g id="edge12" class="edge">
<title>node4&#45;&gt;node7</title>
<path fill="none" stroke="green" d="M343.91,-415.37C343.28,-407.15 343.1,-397.66 343.38,-388.73"/>
<polygon fill="green" stroke="green" points="346.88,-388.78 343.91,-378.61 339.89,-388.41 346.88,-388.78"/>
</g>
<!-- node5&#45;&gt;node4 -->
<g id="edge9" class="edge">
<title>node5&#45;&gt;node4</title>
<path fill="none" stroke="blue" d="M181.9,-376.99C213.44,-387.64 251.26,-400.74 283.06,-412.03"/>
<polygon fill="blue" stroke="blue" points="282.13,-415.42 292.72,-415.47 284.48,-408.82 282.13,-415.42"/>
</g>
<!-- node6 -->
<g id="node6" class="node">
<title>node6</title>
<path fill="pink" stroke="black" d="M12,-249.5C12,-249.5 134,-249.5 134,-249.5 140,-249.5 146,-255.5 146,-261.5 146,-261.5 146,-283.5 146,-283.5 146,-289.5 140,-295.5 134,-295.5 134,-295.5 12,-295.5 12,-295.5 6,-295.5 0,-289.5 0,-283.5 0,-283.5 0,-261.5 0,-261.5 0,-255.5 6,-249.5 12,-249.5"/>
<text text-anchor="middle" x="13" y="-280.3" font-family="Times,serif" font-size="14.00">6</text>
<polyline fill="none" stroke="black" points="26,-272.5 26,-295.5 "/>
<text text-anchor="middle" x="53.5" y="-280.3" font-family="Times,serif" font-size="14.00">NUM</text>
<polyline fill="none" stroke="black" points="81,-272.5 81,-295.5 "/>
<text text-anchor="middle" x="113.5" y="-280.3" font-family="Times,serif" font-size="14.00">size=1</text>
<polyline fill="none" stroke="black" points="0,-272.5 146,-272.5 "/>
<text text-anchor="middle" x="73" y="-257.3" font-family="Times,serif" font-size="14.00">25</text>
</g>
<!-- node5&#45;&gt;node6 -->
<g id="edge10" class="edge">
<title>node5&#45;&gt;node6</title>
<path fill="none" stroke="red" d="M98.89,-332.37C93.63,-323.88 88.11,-314.04 83.44,-304.85"/>
<polygon fill="red" stroke="red" points="86.45,-303.06 78.92,-295.61 80.16,-306.13 86.45,-303.06"/>
</g>
<!-- node6&#45;&gt;node5 -->
<g id="edge11" class="edge">
<title>node6&#45;&gt;node5</title>
<path fill="none" stroke="blue" d="M91.1,-295.61C96.36,-304.09 101.87,-313.93 106.55,-323.12"/>
<polygon fill="blue" stroke="blue" points="103.53,-324.92 111.07,-332.37 109.82,-321.85 103.53,-324.92"/>
</g>
<!-- node7&#45;&gt;node4 -->
<g id="edge13" class="edge">
<title>node7&#45;&gt;node4</title>
<path fill="none" stroke="blue" d="M356.09,-378.61C356.72,-386.82 356.9,-396.31 356.62,-405.25"/>
<polygon fill="blue" stroke="blue" points="353.12,-405.2 356.09,-415.37 360.11,-405.56 353.12,-405.2"/>
</g>
<!-- node8 -->
<g id="node8" class="node">
<title>node8</title>
<path fill="pink" stroke="black" d="M176,-249.5C176,-249.5 298,-249.5 298,-249.5 304,-249.5 310,-255.5 310,-261.5 310,-261.5 310,-283.5 310,-283.5 310,-289.5 304,-295.5 298,-295.5 298,-295.5 176,-295.5 176,-295.5 170,-295.5 164,-289.5 164,-283.5 164,-283.5 164,-261.5 164,-261.5 164,-255.5 170,-249.5 176,-249.5"/>
<text text-anchor="middle" x="177" y="-280.3" font-family="Times,serif" font-size="14.00">8</text>
<polyline fill="none" stroke="black" points="190,-272.5 190,-295.5 "/>
<text text-anchor="middle" x="217.5" y="-280.3" font-family="Times,serif" font-size="14.00">NUM</text>
<polyline fill="none" stroke="black" points="245,-272.5 245,-295.5 "/>
<text text-anchor="middle" x="277.5" y="-280.3" font-family="Times,serif" font-size="14.00">size=1</text>
<polyline fill="none" stroke="black" points="164,-272.5 310,-272.5 "/>
<text text-anchor="middle" x="237" y="-257.3" font-family="Times,serif" font-size="14.00">10</text>
</g>
<!-- node7&#45;&gt;node8 -->
<g id="edge14" class="edge">
<title>node7&#45;&gt;node8</title>
<path fill="none" stroke="red" d="M313.03,-332.37C299.1,-322.9 283.4,-311.74 269.87,-301.69"/>
<polygon fill="red" stroke="red" points="271.85,-298.81 261.75,-295.61 267.65,-304.41 271.85,-298.81"/>
</g>
<!-- node9 -->
<g id="node9" class="node">
<title>node9</title>
<path fill="peachpuff" stroke="black" d="M340.5,-249.5C340.5,-249.5 445.5,-249.5 445.5,-249.5 451.5,-249.5 457.5,-255.5 457.5,-261.5 457.5,-261.5 457.5,-283.5 457.5,-283.5 457.5,-289.5 451.5,-295.5 445.5,-295.5 445.5,-295.5 340.5,-295.5 340.5,-295.5 334.5,-295.5 328.5,-289.5 328.5,-283.5 328.5,-283.5 328.5,-261.5 328.5,-261.5 328.5,-255.5 334.5,-249.5 340.5,-249.5"/>
<text text-anchor="middle" x="341.5" y="-280.3" font-family="Times,serif" font-size="14.00">9</text>
<polyline fill="none" stroke="black" points="354.5,-272.5 354.5,-295.5 "/>
<text text-anchor="middle" x="373.5" y="-280.3" font-family="Times,serif" font-size="14.00">OP</text>
<polyline fill="none" stroke="black" points="392.5,-272.5 392.5,-295.5 "/>
<text text-anchor="middle" x="425" y="-280.3" font-family="Times,serif" font-size="14.00">size=4</text>
<polyline fill="none" stroke="black" points="328.5,-272.5 457.5,-272.5 "/>
<text text-anchor="middle" x="393" y="-257.3" font-family="Times,serif" font-size="14.00">*</text>
</g>
<!-- node7&#45;&gt;node9 -->
<g id="edge16" class="edge">
<title>node7&#45;&gt;node9</title>
<path fill="none" stroke="green" d="M355.66,-332.37C359.59,-323.71 364.78,-313.62 370.09,-304.27"/>
<polygon fill="green" stroke="green" points="373.13,-306 375.18,-295.61 367.1,-302.46 373.13,-306"/>
</g>
<!-- node8&#45;&gt;node7 -->
<g id="edge15" class="edge">
<title>node8&#45;&gt;node7</title>
<path fill="none" stroke="blue" d="M273.93,-295.61C287.86,-305.07 303.56,-316.23 317.1,-326.28"/>
<polygon fill="blue" stroke="blue" points="315.11,-329.17 325.21,-332.37 319.31,-323.57 315.11,-329.17"/>
</g>
<!-- node9&#45;&gt;node7 -->
<g id="edge17" class="edge">
<title>node9&#45;&gt;node7</title>
<path fill="none" stroke="blue" d="M387.35,-295.61C383.42,-304.27 378.23,-314.35 372.93,-323.7"/>
<polygon fill="blue" stroke="blue" points="369.88,-321.97 367.84,-332.37 375.92,-325.51 369.88,-321.97"/>
</g>
<!-- node10 -->
<g id="node10" class="node">
<title>node10</title>
<path fill="pink" stroke="black" d="M162.5,-166.5C162.5,-166.5 293.5,-166.5 293.5,-166.5 299.5,-166.5 305.5,-172.5 305.5,-178.5 305.5,-178.5 305.5,-200.5 305.5,-200.5 305.5,-206.5 299.5,-212.5 293.5,-212.5 293.5,-212.5 162.5,-212.5 162.5,-212.5 156.5,-212.5 150.5,-206.5 150.5,-200.5 150.5,-200.5 150.5,-178.5 150.5,-178.5 150.5,-172.5 156.5,-166.5 162.5,-166.5"/>
<text text-anchor="middle" x="168" y="-197.3" font-family="Times,serif" font-size="14.00">10</text>
<polyline fill="none" stroke="black" points="185.5,-189.5 185.5,-212.5 "/>
<text text-anchor="middle" x="213" y="-197.3" font-family="Times,serif" font-size="14.00">NUM</text>
<polyline fill="none" stroke="black" points="240.5,-189.5 240.5,-212.5 "/>
<text text-anchor="middle" x="273" y="-197.3" font-family="Times,serif" font-size="14.00">size=1</text>
<polyline fill="none" stroke="black" points="150.5,-189.5 305.5,-189.5 "/>
<text text-anchor="middle" x="228" y="-174.3" font-family="Times,serif" font-size="14.00">2</text>
</g>
<!-- node9&#45;&gt;node10 -->
<g id="edge18" class="edge">
<title>node9&#45;&gt;node10</title>
<path fill="none" stroke="red" d="M341.82,-249.37C320.78,-239.41 296.57,-227.58 275.88,-217.14"/>
<polygon fill="red" stroke="red" points="277.45,-214.01 266.94,-212.61 274.28,-220.25 277.45,-214.01"/>
</g>
<!-- node11 -->
<g id="node11" class="node">
<title>node11</title>
<path fill="peachpuff" stroke="black" d="M336,-166.5C336,-166.5 450,-166.5 450,-166.5 456,-166.5 462,-172.5 462,-178.5 462,-178.5 462,-200.5 462,-200.5 462,-206.5 456,-212.5 450,-212.5 450,-212.5 336,-212.5 336,-212.5 330,-212.5 324,-206.5 324,-200.5 324,-200.5 324,-178.5 324,-178.5 324,-172.5 330,-166.5 336,-166.5"/>
<text text-anchor="middle" x="341.5" y="-197.3" font-family="Times,serif" font-size="14.00">11</text>
<polyline fill="none" stroke="black" points="359,-189.5 359,-212.5 "/>
<text text-anchor="middle" x="378" y="-197.3" font-family="Times,serif" font-size="14.00">OP</text>
<polyline fill="none" stroke="black" points="397,-189.5 397,-212.5 "/>
<text text-anchor="middle" x="429.5" y="-197.3" font-family="Times,serif" font-size="14.00">size=2</text>
<polyline fill="none" stroke="black" points="324,-189.5 462,-189.5 "/>
<text text-anchor="middle" x="393" y="-174.3" font-family="Times,serif" font-size="14.00">arccos</text>
</g>
<!-- node9&#45;&gt;node11 -->
<g id="edge20" class="edge">
<title>node9&#45;&gt;node11</title>
<path fill="none" stroke="green" d="M386.91,-249.37C386.28,-241.15 386.1,-231.66 386.38,-222.73"/>
<polygon fill="green" stroke="green" points="389.88,-222.78 386.91,-212.61 382.89,-222.41 389.88,-222.78"/>
</g>
<!-- node10&#45;&gt;node9 -->
<g id="edge19" class="edge">
<title>node10&#45;&gt;node9</title>
<path fill="none" stroke="blue" d="M279.12,-212.61C300.16,-222.56 324.37,-234.39 345.07,-244.83"/>
<polygon fill="blue" stroke="blue" points="343.5,-247.96 354,-249.37 346.67,-241.72 343.5,-247.96"/>
</g>
<!-- node11&#45;&gt;node9 -->
<g id="edge21" class="edge">
<title>node11&#45;&gt;node9</title>
<path fill="none" stroke="blue" d="M399.09,-212.61C399.72,-220.82 399.9,-230.31 399.62,-239.25"/>
<polygon fill="blue" stroke="blue" points="396.12,-239.2 399.09,-249.37 403.11,-239.56 396.12,-239.2"/>
</g>
<!-- node12 -->
<g id="node12" class="node">
<title>node12</title>
<path fill="lightyellow" stroke="black" d="M331,-83.5C331,-83.5 453,-83.5 453,-83.5 459,-83.5 465,-89.5 465,-95.5 465,-95.5 465,-117.5 465,-117.5 465,-123.5 459,-129.5 453,-129.5 453,-129.5 331,-129.5 331,-129.5 325,-129.5 319,-123.5 319,-117.5 319,-117.5 319,-95.5 319,-95.5 319,-89.5 325,-83.5 331,-83.5"/>
<text text-anchor="middle" x="336.5" y="-114.3" font-family="Times,serif" font-size="14.00">12</text>
<polyline fill="none" stroke="black" points="354,-106.5 354,-129.5 "/>
<text text-anchor="middle" x="377" y="-114.3" font-family="Times,serif" font-size="14.00">VAR</text>
<polyline fill="none" stroke="black" points="400,-106.5 400,-129.5 "/>
<text text-anchor="middle" x="432.5" y="-114.3" font-family="Times,serif" font-size="14.00">size=1</text>
<polyline fill="none" stroke="black" points="319,-106.5 465,-106.5 "/>
<text text-anchor="middle" x="392" y="-91.3" font-family="Times,serif" font-size="14.00">x</text>
</g>
<!-- node11&#45;&gt;node12 -->
<g id="edge22" class="edge">
<title>node11&#45;&gt;node12</title>
<path fill="none" stroke="red" d="M386.64,-166.37C385.9,-158.15 385.61,-148.66 385.77,-139.73"/>
<polygon fill="red" stroke="red" points="389.28,-139.74 386.18,-129.61 382.28,-139.46 389.28,-139.74"/>
</g>
<!-- node12&#45;&gt;node11 -->
<g id="edge23" class="edge">
<title>node12&#45;&gt;node11</title>
<path fill="none" stroke="blue" d="M398.36,-129.61C399.1,-137.82 399.39,-147.31 399.23,-156.25"/>
<polygon fill="blue" stroke="blue" points="395.72,-156.23 398.82,-166.37 402.72,-156.52 395.72,-156.23"/>
</g>
<!-- node13&#45;&gt;node3 -->
<g id="edge25" class="edge">
<title>node13&#45;&gt;node3</title>
<path fill="none" stroke="blue" d="M620.76,-461.64C587.77,-472.6 546.96,-485.83 511.79,-496.98"/>
<polygon fill="blue" stroke="blue" points="510.52,-493.71 502.04,-500.06 512.63,-500.38 510.52,-493.71"/>
</g>
<!-- node14 -->
<g id="node14" class="node">
<title>node14</title>
<path fill="peachpuff" stroke="black" d="M626,-332.5C626,-332.5 740,-332.5 740,-332.5 746,-332.5 752,-338.5 752,-344.5 752,-344.5 752,-366.5 752,-366.5 752,-372.5 746,-378.5 740,-378.5 740,-378.5 626,-378.5 626,-378.5 620,-378.5 614,-372.5 614,-366.5 614,-366.5 614,-344.5 614,-344.5 614,-338.5 620,-332.5 626,-332.5"/>
<text text-anchor="middle" x="631.5" y="-363.3" font-family="Times,serif" font-size="14.00">14</text>
<polyline fill="none" stroke="black" points="649,-355.5 649,-378.5 "/>
<text text-anchor="middle" x="668" y="-363.3" font-family="Times,serif" font-size="14.00">OP</text>
<polyline fill="none" stroke="black" points="687,-355.5 687,-378.5 "/>
<text text-anchor="middle" x="719.5" y="-363.3" font-family="Times,serif" font-size="14.00">size=9</text>
<polyline fill="none" stroke="black" points="614,-355.5 752,-355.5 "/>
<text text-anchor="middle" x="683" y="-340.3" font-family="Times,serif" font-size="14.00">+</text>
</g>
<!-- node13&#45;&gt;node14 -->
<g id="edge26" class="edge">
<title>node13&#45;&gt;node14</title>
<path fill="none" stroke="red" d="M676.91,-415.37C676.28,-407.15 676.1,-397.66 676.38,-388.73"/>
<polygon fill="red" stroke="red" points="679.88,-388.78 676.91,-378.61 672.89,-388.41 679.88,-388.78"/>
</g>
<!-- node23 -->
<g id="node23" class="node">
<title>node23</title>
<path fill="peachpuff" stroke="black" d="M912.5,-332.5C912.5,-332.5 1035.5,-332.5 1035.5,-332.5 1041.5,-332.5 1047.5,-338.5 1047.5,-344.5 1047.5,-344.5 1047.5,-366.5 1047.5,-366.5 1047.5,-372.5 1041.5,-378.5 1035.5,-378.5 1035.5,-378.5 912.5,-378.5 912.5,-378.5 906.5,-378.5 900.5,-372.5 900.5,-366.5 900.5,-366.5 900.5,-344.5 900.5,-344.5 900.5,-338.5 906.5,-332.5 912.5,-332.5"/>
<text text-anchor="middle" x="918" y="-363.3" font-family="Times,serif" font-size="14.00">23</text>
<polyline fill="none" stroke="black" points="935.5,-355.5 935.5,-378.5 "/>
<text text-anchor="middle" x="954.5" y="-363.3" font-family="Times,serif" font-size="14.00">OP</text>
<polyline fill="none" stroke="black" points="973.5,-355.5 973.5,-378.5 "/>
<text text-anchor="middle" x="1010.5" y="-363.3" font-family="Times,serif" font-size="14.00">size=11</text>
<polyline fill="none" stroke="black" points="900.5,-355.5 1047.5,-355.5 "/>
<text text-anchor="middle" x="974" y="-340.3" font-family="Times,serif" font-size="14.00">^</text>
</g>
<!-- node13&#45;&gt;node23 -->
<g id="edge44" class="edge">
<title>node13&#45;&gt;node23</title>
<path fill="none" stroke="green" d="M756.05,-415.47C796.99,-403.83 848.17,-389.58 890.67,-378.01"/>
<polygon fill="green" stroke="green" points="891.7,-381.36 900.43,-375.36 889.87,-374.6 891.7,-381.36"/>
</g>
<!-- node14&#45;&gt;node13 -->
<g id="edge27" class="edge">
<title>node14&#45;&gt;node13</title>
<path fill="none" stroke="blue" d="M689.09,-378.61C689.72,-386.82 689.9,-396.31 689.62,-405.25"/>
<polygon fill="blue" stroke="blue" points="686.12,-405.2 689.09,-415.37 693.11,-405.56 686.12,-405.2"/>
</g>
<!-- node15 -->
<g id="node15" class="node">
<title>node15</title>
<path fill="peachpuff" stroke="black" d="M544,-249.5C544,-249.5 658,-249.5 658,-249.5 664,-249.5 670,-255.5 670,-261.5 670,-261.5 670,-283.5 670,-283.5 670,-289.5 664,-295.5 658,-295.5 658,-295.5 544,-295.5 544,-295.5 538,-295.5 532,-289.5 532,-283.5 532,-283.5 532,-261.5 532,-261.5 532,-255.5 538,-249.5 544,-249.5"/>
<text text-anchor="middle" x="549.5" y="-280.3" font-family="Times,serif" font-size="14.00">15</text>
<polyline fill="none" stroke="black" points="567,-272.5 567,-295.5 "/>
<text text-anchor="middle" x="586" y="-280.3" font-family="Times,serif" font-size="14.00">OP</text>
<polyline fill="none" stroke="black" points="605,-272.5 605,-295.5 "/>
<text text-anchor="middle" x="637.5" y="-280.3" font-family="Times,serif" font-size="14.00">size=7</text>
<polyline fill="none" stroke="black" points="532,-272.5 670,-272.5 "/>
<text text-anchor="middle" x="601" y="-257.3" font-family="Times,serif" font-size="14.00">*</text>
</g>
<!-- node14&#45;&gt;node15 -->
<g id="edge28" class="edge">
<title>node14&#45;&gt;node15</title>
<path fill="none" stroke="red" d="M654.5,-332.37C644.68,-323.35 633.84,-312.79 624.46,-303.12"/>
<polygon fill="red" stroke="red" points="626.73,-300.43 617.29,-295.61 621.66,-305.26 626.73,-300.43"/>
</g>
<!-- node22 -->
<g id="node22" class="node">
<title>node22</title>
<path fill="pink" stroke="black" d="M700.5,-249.5C700.5,-249.5 831.5,-249.5 831.5,-249.5 837.5,-249.5 843.5,-255.5 843.5,-261.5 843.5,-261.5 843.5,-283.5 843.5,-283.5 843.5,-289.5 837.5,-295.5 831.5,-295.5 831.5,-295.5 700.5,-295.5 700.5,-295.5 694.5,-295.5 688.5,-289.5 688.5,-283.5 688.5,-283.5 688.5,-261.5 688.5,-261.5 688.5,-255.5 694.5,-249.5 700.5,-249.5"/>
<text text-anchor="middle" x="706" y="-280.3" font-family="Times,serif" font-size="14.00">22</text>
<polyline fill="none" stroke="black" points="723.5,-272.5 723.5,-295.5 "/>
<text text-anchor="middle" x="751" y="-280.3" font-family="Times,serif" font-size="14.00">NUM</text>
<polyline fill="none" stroke="black" points="778.5,-272.5 778.5,-295.5 "/>
<text text-anchor="middle" x="811" y="-280.3" font-family="Times,serif" font-size="14.00">size=1</text>
<polyline fill="none" stroke="black" points="688.5,-272.5 843.5,-272.5 "/>
<text text-anchor="middle" x="766" y="-257.3" font-family="Times,serif" font-size="14.00">1</text>
</g>
<!-- node14&#45;&gt;node22 -->
<g id="edge42" class="edge">
<title>node14&#45;&gt;node22</title>
<path fill="none" stroke="green" d="M699.59,-332.37C708.31,-323.17 719.23,-312.37 729.73,-302.55"/>
<polygon fill="green" stroke="green" points="732.28,-304.96 737.26,-295.61 727.53,-299.81 732.28,-304.96"/>
</g>
<!-- node15&#45;&gt;node14 -->
<g id="edge29" class="edge">
<title>node15&#45;&gt;node14</title>
<path fill="none" stroke="blue" d="M629.47,-295.61C639.29,-304.62 650.13,-315.18 659.51,-324.85"/>
<polygon fill="blue" stroke="blue" points="657.25,-327.55 666.68,-332.37 662.31,-322.71 657.25,-327.55"/>
</g>
<!-- node16 -->
<g id="node16" class="node">
<title>node16</title>
<path fill="pink" stroke="black" d="M494.5,-166.5C494.5,-166.5 625.5,-166.5 625.5,-166.5 631.5,-166.5 637.5,-172.5 637.5,-178.5 637.5,-178.5 637.5,-200.5 637.5,-200.5 637.5,-206.5 631.5,-212.5 625.5,-212.5 625.5,-212.5 494.5,-212.5 494.5,-212.5 488.5,-212.5 482.5,-206.5 482.5,-200.5 482.5,-200.5 482.5,-178.5 482.5,-178.5 482.5,-172.5 488.5,-166.5 494.5,-166.5"/>
<text text-anchor="middle" x="500" y="-197.3" font-family="Times,serif" font-size="14.00">16</text>
<polyline fill="none" stroke="black" points="517.5,-189.5 517.5,-212.5 "/>
<text text-anchor="middle" x="545" y="-197.3" font-family="Times,serif" font-size="14.00">NUM</text>
<polyline fill="none" stroke="black" points="572.5,-189.5 572.5,-212.5 "/>
<text text-anchor="middle" x="605" y="-197.3" font-family="Times,serif" font-size="14.00">size=1</text>
<polyline fill="none" stroke="black" points="482.5,-189.5 637.5,-189.5 "/>
<text text-anchor="middle" x="560" y="-174.3" font-family="Times,serif" font-size="14.00">3</text>
</g>
<!-- node15&#45;&gt;node16 -->
<g id="edge30" class="edge">
<title>node15&#45;&gt;node16</title>
<path fill="none" stroke="red" d="M583.71,-249.37C578.76,-240.88 573.61,-231.04 569.28,-221.85"/>
<polygon fill="red" stroke="red" points="572.41,-220.28 565.1,-212.61 566.03,-223.16 572.41,-220.28"/>
</g>
<!-- node17 -->
<g id="node17" class="node">
<title>node17</title>
<path fill="peachpuff" stroke="black" d="M668,-166.5C668,-166.5 782,-166.5 782,-166.5 788,-166.5 794,-172.5 794,-178.5 794,-178.5 794,-200.5 794,-200.5 794,-206.5 788,-212.5 782,-212.5 782,-212.5 668,-212.5 668,-212.5 662,-212.5 656,-206.5 656,-200.5 656,-200.5 656,-178.5 656,-178.5 656,-172.5 662,-166.5 668,-166.5"/>
<text text-anchor="middle" x="673.5" y="-197.3" font-family="Times,serif" font-size="14.00">17</text>
<polyline fill="none" stroke="black" points="691,-189.5 691,-212.5 "/>
<text text-anchor="middle" x="710" y="-197.3" font-family="Times,serif" font-size="14.00">OP</text>
<polyline fill="none" stroke="black" points="729,-189.5 729,-212.5 "/>
<text text-anchor="middle" x="761.5" y="-197.3" font-family="Times,serif" font-size="14.00">size=5</text>
<polyline fill="none" stroke="black" points="656,-189.5 794,-189.5 "/>
<text text-anchor="middle" x="725" y="-174.3" font-family="Times,serif" font-size="14.00">&#45;</text>
</g>
<!-- node15&#45;&gt;node17 -->
<g id="edge32" class="edge">
<title>node15&#45;&gt;node17</title>
<path fill="none" stroke="green" d="M628.79,-249.37C642.81,-239.72 660.16,-228.32 676.27,-218.13"/>
<polygon fill="green" stroke="green" points="678.46,-220.89 685.07,-212.61 674.74,-214.96 678.46,-220.89"/>
</g>
<!-- node16&#45;&gt;node15 -->
<g id="edge31" class="edge">
<title>node16&#45;&gt;node15</title>
<path fill="none" stroke="blue" d="M577.28,-212.61C582.22,-221.09 587.38,-230.93 591.71,-240.12"/>
<polygon fill="blue" stroke="blue" points="588.58,-241.69 595.89,-249.37 594.96,-238.81 588.58,-241.69"/>
</g>
<!-- node17&#45;&gt;node15 -->
<g id="edge33" class="edge">
<title>node17&#45;&gt;node15</title>
<path fill="none" stroke="blue" d="M697.25,-212.61C683.23,-222.25 665.89,-233.65 649.77,-243.85"/>
<polygon fill="blue" stroke="blue" points="647.59,-241.09 640.97,-249.37 651.31,-247.02 647.59,-241.09"/>
</g>
<!-- node18 -->
<g id="node18" class="node">
<title>node18</title>
<path fill="pink" stroke="black" d="M495.5,-83.5C495.5,-83.5 626.5,-83.5 626.5,-83.5 632.5,-83.5 638.5,-89.5 638.5,-95.5 638.5,-95.5 638.5,-117.5 638.5,-117.5 638.5,-123.5 632.5,-129.5 626.5,-129.5 626.5,-129.5 495.5,-129.5 495.5,-129.5 489.5,-129.5 483.5,-123.5 483.5,-117.5 483.5,-117.5 483.5,-95.5 483.5,-95.5 483.5,-89.5 489.5,-83.5 495.5,-83.5"/>
<text text-anchor="middle" x="501" y="-114.3" font-family="Times,serif" font-size="14.00">18</text>
<polyline fill="none" stroke="black" points="518.5,-106.5 518.5,-129.5 "/>
<text text-anchor="middle" x="546" y="-114.3" font-family="Times,serif" font-size="14.00">NUM</text>
<polyline fill="none" stroke="black" points="573.5,-106.5 573.5,-129.5 "/>
<text text-anchor="middle" x="606" y="-114.3" font-family="Times,serif" font-size="14.00">size=1</text>
<polyline fill="none" stroke="black" points="483.5,-106.5 638.5,-106.5 "/>
<text text-anchor="middle" x="561" y="-91.3" font-family="Times,serif" font-size="14.00">2,5</text>
</g>
<!-- node17&#45;&gt;node18 -->
<g id="edge34" class="edge">
<title>node17&#45;&gt;node18</title>
<path fill="none" stroke="red" d="M674.1,-166.37C653.27,-156.46 629.33,-144.68 608.83,-134.28"/>
<polygon fill="red" stroke="red" points="610.17,-131.03 599.67,-129.61 606.99,-137.27 610.17,-131.03"/>
</g>
<!-- node19 -->
<g id="node19" class="node">
<title>node19</title>
<path fill="peachpuff" stroke="black" d="M669,-83.5C669,-83.5 783,-83.5 783,-83.5 789,-83.5 795,-89.5 795,-95.5 795,-95.5 795,-117.5 795,-117.5 795,-123.5 789,-129.5 783,-129.5 783,-129.5 669,-129.5 669,-129.5 663,-129.5 657,-123.5 657,-117.5 657,-117.5 657,-95.5 657,-95.5 657,-89.5 663,-83.5 669,-83.5"/>
<text text-anchor="middle" x="674.5" y="-114.3" font-family="Times,serif" font-size="14.00">19</text>
<polyline fill="none" stroke="black" points="692,-106.5 692,-129.5 "/>
<text text-anchor="middle" x="711" y="-114.3" font-family="Times,serif" font-size="14.00">OP</text>
<polyline fill="none" stroke="black" points="730,-106.5 730,-129.5 "/>
<text text-anchor="middle" x="762.5" y="-114.3" font-family="Times,serif" font-size="14.00">size=3</text>
<polyline fill="none" stroke="black" points="657,-106.5 795,-106.5 "/>
<text text-anchor="middle" x="726" y="-91.3" font-family="Times,serif" font-size="14.00">/</text>
</g>
<!-- node17&#45;&gt;node19 -->
<g id="edge36" class="edge">
<title>node17&#45;&gt;node19</title>
<path fill="none" stroke="green" d="M719.18,-166.37C718.65,-158.15 718.59,-148.66 718.98,-139.73"/>
<polygon fill="green" stroke="green" points="722.48,-139.81 719.64,-129.61 715.5,-139.36 722.48,-139.81"/>
</g>
<!-- node18&#45;&gt;node17 -->
<g id="edge35" class="edge">
<title>node18&#45;&gt;node17</title>
<path fill="none" stroke="blue" d="M611.85,-129.61C632.67,-139.51 656.61,-151.29 677.12,-161.69"/>
<polygon fill="blue" stroke="blue" points="675.78,-164.94 686.28,-166.37 678.96,-158.7 675.78,-164.94"/>
</g>
<!-- node19&#45;&gt;node17 -->
<g id="edge37" class="edge">
<title>node19&#45;&gt;node17</title>
<path fill="none" stroke="blue" d="M731.82,-129.61C732.35,-137.82 732.41,-147.31 732.02,-156.25"/>
<polygon fill="blue" stroke="blue" points="728.52,-156.16 731.36,-166.37 735.51,-156.61 728.52,-156.16"/>
</g>
<!-- node20 -->
<g id="node20" class="node">
<title>node20</title>
<path fill="pink" stroke="black" d="M574.5,-0.5C574.5,-0.5 705.5,-0.5 705.5,-0.5 711.5,-0.5 717.5,-6.5 717.5,-12.5 717.5,-12.5 717.5,-34.5 717.5,-34.5 717.5,-40.5 711.5,-46.5 705.5,-46.5 705.5,-46.5 574.5,-46.5 574.5,-46.5 568.5,-46.5 562.5,-40.5 562.5,-34.5 562.5,-34.5 562.5,-12.5 562.5,-12.5 562.5,-6.5 568.5,-0.5 574.5,-0.5"/>
<text text-anchor="middle" x="580" y="-31.3" font-family="Times,serif" font-size="14.00">20</text>
<polyline fill="none" stroke="black" points="597.5,-23.5 597.5,-46.5 "/>
<text text-anchor="middle" x="625" y="-31.3" font-family="Times,serif" font-size="14.00">NUM</text>
<polyline fill="none" stroke="black" points="652.5,-23.5 652.5,-46.5 "/>
<text text-anchor="middle" x="685" y="-31.3" font-family="Times,serif" font-size="14.00">size=1</text>
<polyline fill="none" stroke="black" points="562.5,-23.5 717.5,-23.5 "/>
<text text-anchor="middle" x="640" y="-8.3" font-family="Times,serif" font-size="14.00">0,1</text>
</g>
<!-- node19&#45;&gt;node20 -->
<g id="edge38" class="edge">
<title>node19&#45;&gt;node20</title>
<path fill="none" stroke="red" d="M696.41,-83.37C686.04,-74.26 674.56,-63.58 664.63,-53.83"/>
<polygon fill="red" stroke="red" points="666.93,-51.19 657.38,-46.61 661.99,-56.15 666.93,-51.19"/>
</g>
<!-- node21 -->
<g id="node21" class="node">
<title>node21</title>
<path fill="pink" stroke="black" d="M747.5,-0.5C747.5,-0.5 878.5,-0.5 878.5,-0.5 884.5,-0.5 890.5,-6.5 890.5,-12.5 890.5,-12.5 890.5,-34.5 890.5,-34.5 890.5,-40.5 884.5,-46.5 878.5,-46.5 878.5,-46.5 747.5,-46.5 747.5,-46.5 741.5,-46.5 735.5,-40.5 735.5,-34.5 735.5,-34.5 735.5,-12.5 735.5,-12.5 735.5,-6.5 741.5,-0.5 747.5,-0.5"/>
<text text-anchor="middle" x="753" y="-31.3" font-family="Times,serif" font-size="14.00">21</text>
<polyline fill="none" stroke="black" points="770.5,-23.5 770.5,-46.5 "/>
<text text-anchor="middle" x="798" y="-31.3" font-family="Times,serif" font-size="14.00">NUM</text>
<polyline fill="none" stroke="black" points="825.5,-23.5 825.5,-46.5 "/>
<text text-anchor="middle" x="858" y="-31.3" font-family="Times,serif" font-size="14.00">size=1</text>
<polyline fill="none" stroke="black" points="735.5,-23.5 890.5,-23.5 "/>
<text text-anchor="middle" x="813" y="-8.3" font-family="Times,serif" font-size="14.00">2</text>
</g>
<!-- node19&#45;&gt;node21 -->
<g id="edge40" class="edge">
<title>node19&#45;&gt;node21</title>
<path fill="none" stroke="green" d="M743.68,-83.37C752.94,-74.08 764.54,-63.16 775.62,-53.26"/>
<polygon fill="green" stroke="green" points="777.98,-55.84 783.17,-46.61 773.35,-50.59 777.98,-55.84"/>
</g>
<!-- node20&#45;&gt;node19 -->
<g id="edge39" class="edge">
<title>node20&#45;&gt;node19</title>
<path fill="none" stroke="blue" d="M669.56,-46.61C679.93,-55.71 691.41,-66.39 701.34,-76.14"/>
<polygon fill="blue" stroke="blue" points="699.04,-78.78 708.59,-83.37 703.98,-73.83 699.04,-78.78"/>
</g>
<!-- node21&#45;&gt;node19 -->
<g id="edge41" class="edge">
<title>node21&#45;&gt;node19</title>
<path fill="none" stroke="blue" d="M795.34,-46.61C786.09,-55.89 774.5,-66.81 763.42,-76.71"/>
<polygon fill="blue" stroke="blue" points="761.05,-74.13 755.86,-83.37 765.68,-79.38 761.05,-74.13"/>
</g>
<!-- node22&#45;&gt;node14 -->
<g id="edge43" class="edge">
<title>node22&#45;&gt;node14</title>
<path fill="none" stroke="blue" d="M749.44,-295.61C740.72,-304.8 729.8,-315.6 719.3,-325.42"/>
<polygon fill="blue" stroke="blue" points="716.75,-323.01 711.77,-332.37 721.5,-328.16 716.75,-323.01"/>
</g>
<!-- node23&#45;&gt;node13 -->
<g id="edge45" class="edge">
<title>node23&#45;&gt;node13</title>
<path fill="none" stroke="blue" d="M901.02,-378.51C860.1,-390.15 808.94,-404.39 766.44,-415.96"/>
<polygon fill="blue" stroke="blue" points="765.4,-412.61 756.67,-418.61 767.24,-419.37 765.4,-412.61"/>
</g>
<!-- node24 -->
<g id="node24" class="node">
<title>node24</title>
<path fill="peachpuff" stroke="black" d="M917,-249.5C917,-249.5 1031,-249.5 1031,-249.5 1037,-249.5 1043,-255.5 1043,-261.5 1043,-261.5 1043,-283.5 1043,-283.5 1043,-289.5 1037,-295.5 1031,-295.5 1031,-295.5 917,-295.5 917,-295.5 911,-295.5 905,-289.5 905,-283.5 905,-283.5 905,-261.5 905,-261.5 905,-255.5 911,-249.5 917,-249.5"/>
<text text-anchor="middle" x="922.5" y="-280.3" font-family="Times,serif" font-size="14.00">24</text>
<polyline fill="none" stroke="black" points="940,-272.5 940,-295.5 "/>
<text text-anchor="middle" x="959" y="-280.3" font-family="Times,serif" font-size="14.00">OP</text>
<polyline fill="none" stroke="black" points="978,-272.5 978,-295.5 "/>
<text text-anchor="middle" x="1010.5" y="-280.3" font-family="Times,serif" font-size="14.00">size=5</text>
<polyline fill="none" stroke="black" points="905,-272.5 1043,-272.5 "/>
<text text-anchor="middle" x="974" y="-257.3" font-family="Times,serif" font-size="14.00">/</text>
</g>
<!-- node23&#45;&gt;node24 -->
<g id="edge46" class="edge">
<title>node23&#45;&gt;node24</title>
<path fill="none" stroke="red" d="M967.91,-332.37C967.28,-324.15 967.1,-314.66 967.38,-305.73"/>
<polygon fill="red" stroke="red" points="970.88,-305.78 967.91,-295.61 963.89,-305.41 970.88,-305.78"/>
</g>
<!-- node29 -->
<g id="node29" class="node">
<title>node29</title>
<path fill="peachpuff" stroke="black" d="M1172,-249.5C1172,-249.5 1286,-249.5 1286,-249.5 1292,-249.5 1298,-255.5 1298,-261.5 1298,-261.5 1298,-283.5 1298,-283.5 1298,-289.5 1292,-295.5 1286,-295.5 1286,-295.5 1172,-295.5 1172,-295.5 1166,-295.5 1160,-289.5 1160,-283.5 1160,-283.5 1160,-261.5 1160,-261.5 1160,-255.5 1166,-249.5 1172,-249.5"/>
<text text-anchor="middle" x="1177.5" y="-280.3" font-family="Times,serif" font-size="14.00">29</text>
<polyline fill="none" stroke="black" points="1195,-272.5 1195,-295.5 "/>
<text text-anchor="middle" x="1214" y="-280.3" font-family="Times,serif" font-size="14.00">OP</text>
<polyline fill="none" stroke="black" points="1233,-272.5 1233,-295.5 "/>
<text text-anchor="middle" x="1265.5" y="-280.3" font-family="Times,serif" font-size="14.00">size=5</text>
<polyline fill="none" stroke="black" points="1160,-272.5 1298,-272.5 "/>
<text text-anchor="middle" x="1229" y="-257.3" font-family="Times,serif" font-size="14.00">^</text>
</g>
<!-- node23&#45;&gt;node29 -->
<g id="edge56" class="edge">
<title>node23&#45;&gt;node29</title>
<path fill="none" stroke="green" d="M1037.26,-332.47C1071.46,-321.34 1113.97,-307.82 1150.29,-296.55"/>
<polygon fill="green" stroke="green" points="1151.35,-299.88 1159.86,-293.58 1149.28,-293.2 1151.35,-299.88"/>
</g>
<!-- node24&#45;&gt;node23 -->
<g id="edge47" class="edge">
<title>node24&#45;&gt;node23</title>
<path fill="none" stroke="blue" d="M980.09,-295.61C980.72,-303.82 980.9,-313.31 980.62,-322.25"/>
<polygon fill="blue" stroke="blue" points="977.12,-322.2 980.09,-332.37 984.11,-322.56 977.12,-322.2"/>
</g>
<!-- node25 -->
<g id="node25" class="node">
<title>node25</title>
<path fill="peachpuff" stroke="black" d="M834,-166.5C834,-166.5 948,-166.5 948,-166.5 954,-166.5 960,-172.5 960,-178.5 960,-178.5 960,-200.5 960,-200.5 960,-206.5 954,-212.5 948,-212.5 948,-212.5 834,-212.5 834,-212.5 828,-212.5 822,-206.5 822,-200.5 822,-200.5 822,-178.5 822,-178.5 822,-172.5 828,-166.5 834,-166.5"/>
<text text-anchor="middle" x="839.5" y="-197.3" font-family="Times,serif" font-size="14.00">25</text>
<polyline fill="none" stroke="black" points="857,-189.5 857,-212.5 "/>
<text text-anchor="middle" x="876" y="-197.3" font-family="Times,serif" font-size="14.00">OP</text>
<polyline fill="none" stroke="black" points="895,-189.5 895,-212.5 "/>
<text text-anchor="middle" x="927.5" y="-197.3" font-family="Times,serif" font-size="14.00">size=3</text>
<polyline fill="none" stroke="black" points="822,-189.5 960,-189.5 "/>
<text text-anchor="middle" x="891" y="-174.3" font-family="Times,serif" font-size="14.00">*</text>
</g>
<!-- node24&#45;&gt;node25 -->
<g id="edge48" class="edge">
<title>node24&#45;&gt;node25</title>
<path fill="none" stroke="red" d="M945.23,-249.37C935.2,-240.26 924.11,-229.58 914.54,-219.83"/>
<polygon fill="red" stroke="red" points="917.03,-217.37 907.56,-212.61 911.99,-222.23 917.03,-217.37"/>
</g>
<!-- node28 -->
<g id="node28" class="node">
<title>node28</title>
<path fill="pink" stroke="black" d="M990.5,-166.5C990.5,-166.5 1121.5,-166.5 1121.5,-166.5 1127.5,-166.5 1133.5,-172.5 1133.5,-178.5 1133.5,-178.5 1133.5,-200.5 1133.5,-200.5 1133.5,-206.5 1127.5,-212.5 1121.5,-212.5 1121.5,-212.5 990.5,-212.5 990.5,-212.5 984.5,-212.5 978.5,-206.5 978.5,-200.5 978.5,-200.5 978.5,-178.5 978.5,-178.5 978.5,-172.5 984.5,-166.5 990.5,-166.5"/>
<text text-anchor="middle" x="996" y="-197.3" font-family="Times,serif" font-size="14.00">28</text>
<polyline fill="none" stroke="black" points="1013.5,-189.5 1013.5,-212.5 "/>
<text text-anchor="middle" x="1041" y="-197.3" font-family="Times,serif" font-size="14.00">NUM</text>
<polyline fill="none" stroke="black" points="1068.5,-189.5 1068.5,-212.5 "/>
<text text-anchor="middle" x="1101" y="-197.3" font-family="Times,serif" font-size="14.00">size=1</text>
<polyline fill="none" stroke="black" points="978.5,-189.5 1133.5,-189.5 "/>
<text text-anchor="middle" x="1056" y="-174.3" font-family="Times,serif" font-size="14.00">7</text>
</g>
<!-- node24&#45;&gt;node28 -->
<g id="edge54" class="edge">
<title>node24&#45;&gt;node28</title>
<path fill="none" stroke="green" d="M990.32,-249.37C998.92,-240.17 1009.71,-229.37 1020.09,-219.55"/>
<polygon fill="green" stroke="green" points="1022.61,-221.99 1027.53,-212.61 1017.83,-216.87 1022.61,-221.99"/>
</g>
<!-- node25&#45;&gt;node24 -->
<g id="edge49" class="edge">
<title>node25&#45;&gt;node24</title>
<path fill="none" stroke="blue" d="M919.74,-212.61C929.77,-221.71 940.86,-232.39 950.43,-242.14"/>
<polygon fill="blue" stroke="blue" points="947.95,-244.6 957.41,-249.37 952.98,-239.74 947.95,-244.6"/>
</g>
<!-- node26 -->
<g id="node26" class="node">
<title>node26</title>
<path fill="pink" stroke="black" d="M825.5,-83.5C825.5,-83.5 956.5,-83.5 956.5,-83.5 962.5,-83.5 968.5,-89.5 968.5,-95.5 968.5,-95.5 968.5,-117.5 968.5,-117.5 968.5,-123.5 962.5,-129.5 956.5,-129.5 956.5,-129.5 825.5,-129.5 825.5,-129.5 819.5,-129.5 813.5,-123.5 813.5,-117.5 813.5,-117.5 813.5,-95.5 813.5,-95.5 813.5,-89.5 819.5,-83.5 825.5,-83.5"/>
<text text-anchor="middle" x="831" y="-114.3" font-family="Times,serif" font-size="14.00">26</text>
<polyline fill="none" stroke="black" points="848.5,-106.5 848.5,-129.5 "/>
<text text-anchor="middle" x="876" y="-114.3" font-family="Times,serif" font-size="14.00">NUM</text>
<polyline fill="none" stroke="black" points="903.5,-106.5 903.5,-129.5 "/>
<text text-anchor="middle" x="936" y="-114.3" font-family="Times,serif" font-size="14.00">size=1</text>
<polyline fill="none" stroke="black" points="813.5,-106.5 968.5,-106.5 "/>
<text text-anchor="middle" x="891" y="-91.3" font-family="Times,serif" font-size="14.00">2</text>
</g>
<!-- node25&#45;&gt;node26 -->
<g id="edge50" class="edge">
<title>node25&#45;&gt;node26</title>
<path fill="none" stroke="red" d="M884.91,-166.37C884.28,-158.15 884.1,-148.66 884.38,-139.73"/>
<polygon fill="red" stroke="red" points="887.88,-139.78 884.91,-129.61 880.89,-139.41 887.88,-139.78"/>
</g>
<!-- node27 -->
<g id="node27" class="node">
<title>node27</title>
<path fill="pink" stroke="black" d="M998.5,-83.5C998.5,-83.5 1129.5,-83.5 1129.5,-83.5 1135.5,-83.5 1141.5,-89.5 1141.5,-95.5 1141.5,-95.5 1141.5,-117.5 1141.5,-117.5 1141.5,-123.5 1135.5,-129.5 1129.5,-129.5 1129.5,-129.5 998.5,-129.5 998.5,-129.5 992.5,-129.5 986.5,-123.5 986.5,-117.5 986.5,-117.5 986.5,-95.5 986.5,-95.5 986.5,-89.5 992.5,-83.5 998.5,-83.5"/>
<text text-anchor="middle" x="1004" y="-114.3" font-family="Times,serif" font-size="14.00">27</text>
<polyline fill="none" stroke="black" points="1021.5,-106.5 1021.5,-129.5 "/>
<text text-anchor="middle" x="1049" y="-114.3" font-family="Times,serif" font-size="14.00">NUM</text>
<polyline fill="none" stroke="black" points="1076.5,-106.5 1076.5,-129.5 "/>
<text text-anchor="middle" x="1109" y="-114.3" font-family="Times,serif" font-size="14.00">size=1</text>
<polyline fill="none" stroke="black" points="986.5,-106.5 1141.5,-106.5 "/>
<text text-anchor="middle" x="1064" y="-91.3" font-family="Times,serif" font-size="14.00">16</text>
</g>
<!-- node25&#45;&gt;node27 -->
<g id="edge52" class="edge">
<title>node25&#45;&gt;node27</title>
<path fill="none" stroke="green" d="M932.18,-166.37C952.86,-156.32 978.31,-144.36 1001.34,-133.86"/>
<polygon fill="green" stroke="green" points="1003.04,-136.93 1010.7,-129.61 1000.14,-130.56 1003.04,-136.93"/>
</g>
<!-- node26&#45;&gt;node25 -->
<g id="edge51" class="edge">
<title>node26&#45;&gt;node25</title>
<path fill="none" stroke="blue" d="M897.09,-129.61C897.72,-137.82 897.9,-147.31 897.62,-156.25"/>
<polygon fill="blue" stroke="blue" points="894.12,-156.2 897.09,-166.37 901.11,-156.56 894.12,-156.2"/>
</g>
<!-- node27&#45;&gt;node25 -->
<g id="edge53" class="edge">
<title>node27&#45;&gt;node25</title>
<path fill="none" stroke="blue" d="M1022.87,-129.61C1002.2,-139.65 976.76,-151.61 953.73,-162.11"/>
<polygon fill="blue" stroke="blue" points="952.02,-159.04 944.36,-166.37 954.92,-165.42 952.02,-159.04"/>
</g>
<!-- node28&#45;&gt;node24 -->
<g id="edge55" class="edge">
<title>node28&#45;&gt;node24</title>
<path fill="none" stroke="blue" d="M1039.71,-212.61C1031.11,-221.8 1020.32,-232.6 1009.94,-242.42"/>
<polygon fill="blue" stroke="blue" points="1007.42,-239.99 1002.5,-249.37 1012.2,-245.1 1007.42,-239.99"/>
</g>
<!-- node29&#45;&gt;node23 -->
<g id="edge57" class="edge">
<title>node29&#45;&gt;node23</title>
<path fill="none" stroke="blue" d="M1165.77,-295.52C1133.05,-306.17 1092.73,-319 1057.5,-329.97"/>
<polygon fill="blue" stroke="blue" points="1056.22,-326.7 1047.71,-333.01 1058.29,-333.38 1056.22,-326.7"/>
</g>
<!-- node30 -->
<g id="node30" class="node">
<title>node30</title>
<path fill="pink" stroke="black" d="M1163.5,-166.5C1163.5,-166.5 1294.5,-166.5 1294.5,-166.5 1300.5,-166.5 1306.5,-172.5 1306.5,-178.5 1306.5,-178.5 1306.5,-200.5 1306.5,-200.5 1306.5,-206.5 1300.5,-212.5 1294.5,-212.5 1294.5,-212.5 1163.5,-212.5 1163.5,-212.5 1157.5,-212.5 1151.5,-206.5 1151.5,-200.5 1151.5,-200.5 1151.5,-178.5 1151.5,-178.5 1151.5,-172.5 1157.5,-166.5 1163.5,-166.5"/>
<text text-anchor="middle" x="1169" y="-197.3" font-family="Times,serif" font-size="14.00">30</text>
<polyline fill="none" stroke="black" points="1186.5,-189.5 1186.5,-212.5 "/>
<text text-anchor="middle" x="1214" y="-197.3" font-family="Times,serif" font-size="14.00">NUM</text>
<polyline fill="none" stroke="black" points="1241.5,-189.5 1241.5,-212.5 "/>
<text text-anchor="middle" x="1274" y="-197.3" font-family="Times,serif" font-size="14.00">size=1</text>
<polyline fill="none" stroke="black" points="1151.5,-189.5 1306.5,-189.5 "/>
<text text-anchor="middle" x="1229" y="-174.3" font-family="Times,serif" font-size="14.00">4</text>
</g>
<!-- node29&#45;&gt;node30 -->
<g id="edge58" class="edge">
<title>node29&#45;&gt;node30</title>
<path fill="none" stroke="red" d="M1222.91,-249.37C1222.28,-241.15 1222.1,-231.66 1222.38,-222.73"/>
<polygon fill="red" stroke="red" points="1225.88,-222.78 1222.91,-212.61 1218.89,-222.41 1225.88,-222.78"/>
</g>
<!-- node31 -->
<g id="node31" class="node">
<title>node31</title>
<path fill="peachpuff" stroke="black" d="M1337,-166.5C1337,-166.5 1451,-166.5 1451,-166.5 1457,-166.5 1463,-172.5 1463,-178.5 1463,-178.5 1463,-200.5 1463,-200.5 1463,-206.5 1457,-212.5 1451,-212.5 1451,-212.5 1337,-212.5 1337,-212.5 1331,-212.5 1325,-206.5 1325,-200.5 1325,-200.5 1325,-178.5 1325,-178.5 1325,-172.5 1331,-166.5 1337,-166.5"/>
<text text-anchor="middle" x="1342.5" y="-197.3" font-family="Times,serif" font-size="14.00">31</text>
<polyline fill="none" stroke="black" points="1360,-189.5 1360,-212.5 "/>
<text text-anchor="middle" x="1379" y="-197.3" font-family="Times,serif" font-size="14.00">OP</text>
<polyline fill="none" stroke="black" points="1398,-189.5 1398,-212.5 "/>
<text text-anchor="middle" x="1430.5" y="-197.3" font-family="Times,serif" font-size="14.00">size=3</text>
<polyline fill="none" stroke="black" points="1325,-189.5 1463,-189.5 "/>
<text text-anchor="middle" x="1394" y="-174.3" font-family="Times,serif" font-size="14.00">^</text>
</g>
<!-- node29&#45;&gt;node31 -->
<g id="edge60" class="edge">
<title>node29&#45;&gt;node31</title>
<path fill="none" stroke="green" d="M1268,-249.37C1287.6,-239.37 1311.74,-227.47 1333.64,-217"/>
<polygon fill="green" stroke="green" points="1335.35,-220.06 1342.88,-212.61 1332.34,-213.74 1335.35,-220.06"/>
</g>
<!-- node30&#45;&gt;node29 -->
<g id="edge59" class="edge">
<title>node30&#45;&gt;node29</title>
<path fill="none" stroke="blue" d="M1235.09,-212.61C1235.72,-220.82 1235.9,-230.31 1235.62,-239.25"/>
<polygon fill="blue" stroke="blue" points="1232.12,-239.2 1235.09,-249.37 1239.11,-239.56 1232.12,-239.2"/>
</g>
<!-- node31&#45;&gt;node29 -->
<g id="edge61" class="edge">
<title>node31&#45;&gt;node29</title>
<path fill="none" stroke="blue" d="M1355.06,-212.61C1335.46,-222.6 1311.33,-234.5 1289.41,-244.97"/>
<polygon fill="blue" stroke="blue" points="1287.71,-241.91 1280.18,-249.37 1290.71,-248.23 1287.71,-241.91"/>
</g>
<!-- node32 -->
<g id="node32" class="node">
<title>node32</title>
<path fill="pink" stroke="black" d="M1249.5,-83.5C1249.5,-83.5 1380.5,-83.5 1380.5,-83.5 1386.5,-83.5 1392.5,-89.5 1392.5,-95.5 1392.5,-95.5 1392.5,-117.5 1392.5,-117.5 1392.5,-123.5 1386.5,-129.5 1380.5,-129.5 1380.5,-129.5 1249.5,-129.5 1249.5,-129.5 1243.5,-129.5 1237.5,-123.5 1237.5,-117.5 1237.5,-117.5 1237.5,-95.5 1237.5,-95.5 1237.5,-89.5 1243.5,-83.5 1249.5,-83.5"/>
<text text-anchor="middle" x="1255" y="-114.3" font-family="Times,serif" font-size="14.00">32</text>
<polyline fill="none" stroke="black" points="1272.5,-106.5 1272.5,-129.5 "/>
<text text-anchor="middle" x="1300" y="-114.3" font-family="Times,serif" font-size="14.00">NUM</text>
<polyline fill="none" stroke="black" points="1327.5,-106.5 1327.5,-129.5 "/>
<text text-anchor="middle" x="1360" y="-114.3" font-family="Times,serif" font-size="14.00">size=1</text>
<polyline fill="none" stroke="black" points="1237.5,-106.5 1392.5,-106.5 "/>
<text text-anchor="middle" x="1315" y="-91.3" font-family="Times,serif" font-size="14.00">1</text>
</g>
<!-- node31&#45;&gt;node32 -->
<g id="edge62" class="edge">
<title>node31&#45;&gt;node32</title>
<path fill="none" stroke="red" d="M1366.32,-166.37C1356.83,-157.35 1346.39,-146.79 1337.36,-137.12"/>
<polygon fill="red" stroke="red" points="1339.81,-134.61 1330.47,-129.61 1334.65,-139.34 1339.81,-134.61"/>
</g>
<!-- node33 -->
<g id="node33" class="node">
<title>node33</title>
<path fill="pink" stroke="black" d="M1422.5,-83.5C1422.5,-83.5 1553.5,-83.5 1553.5,-83.5 1559.5,-83.5 1565.5,-89.5 1565.5,-95.5 1565.5,-95.5 1565.5,-117.5 1565.5,-117.5 1565.5,-123.5 1559.5,-129.5 1553.5,-129.5 1553.5,-129.5 1422.5,-129.5 1422.5,-129.5 1416.5,-129.5 1410.5,-123.5 1410.5,-117.5 1410.5,-117.5 1410.5,-95.5 1410.5,-95.5 1410.5,-89.5 1416.5,-83.5 1422.5,-83.5"/>
<text text-anchor="middle" x="1428" y="-114.3" font-family="Times,serif" font-size="14.00">33</text>
<polyline fill="none" stroke="black" points="1445.5,-106.5 1445.5,-129.5 "/>
<text text-anchor="middle" x="1473" y="-114.3" font-family="Times,serif" font-size="14.00">NUM</text>
<polyline fill="none" stroke="black" points="1500.5,-106.5 1500.5,-129.5 "/>
<text text-anchor="middle" x="1533" y="-114.3" font-family="Times,serif" font-size="14.00">size=1</text>
<polyline fill="none" stroke="black" points="1410.5,-106.5 1565.5,-106.5 "/>
<text text-anchor="middle" x="1488" y="-91.3" font-family="Times,serif" font-size="14.00">1,512</text>
</g>
<!-- node31&#45;&gt;node33 -->
<g id="edge64" class="edge">
<title>node31&#45;&gt;node33</title>
<path fill="none" stroke="green" d="M1413.6,-166.37C1423.75,-156.99 1436.44,-145.95 1448.47,-135.98"/>
<polygon fill="green" stroke="green" points="1450.74,-138.65 1456.26,-129.61 1446.3,-133.23 1450.74,-138.65"/>
</g>
<!-- node32&#45;&gt;node31 -->
<g id="edge63" class="edge">
<title>node32&#45;&gt;node31</title>
<path fill="none" stroke="blue" d="M1342.65,-129.61C1352.14,-138.62 1362.58,-149.18 1371.61,-158.85"/>
<polygon fill="blue" stroke="blue" points="1369.17,-161.36 1378.5,-166.37 1374.33,-156.63 1369.17,-161.36"/>
</g>
<!-- node33&#45;&gt;node31 -->
<g id="edge65" class="edge">
<title>node33&#45;&gt;node31</title>
<path fill="none" stroke="blue" d="M1468.43,-129.61C1458.28,-138.98 1445.6,-150.02 1433.56,-159.99"/>
<polygon fill="blue" stroke="blue" points="1431.3,-157.32 1425.78,-166.37 1435.73,-162.74 1431.3,-157.32"/>
</g>
<!-- node34&#45;&gt;node2 -->
<g id="edge67" class="edge">
<title>node34&#45;&gt;node2</title>
<path fill="none" stroke="blue" d="M577.25,-544.61C568.88,-553.8 558.36,-564.6 548.22,-574.42"/>
<polygon fill="blue" stroke="blue" points="545.77,-571.93 540.95,-581.37 550.6,-576.99 545.77,-571.93"/>
</g>
<!-- node35&#45;&gt;node1 -->
<g id="edge69" class="edge">
<title>node35&#45;&gt;node1</title>
<path fill="none" stroke="blue" d="M657.25,-627.61C648.88,-636.8 638.36,-647.6 628.22,-657.42"/>
<polygon fill="blue" stroke="blue" points="625.77,-654.93 620.95,-664.37 630.6,-659.99 625.77,-654.93"/>
</g>
</g>
</svg>
