<?xml version="1.0" encoding="UTF-8" standalone="no"?>
<!DOCTYPE svg PUBLIC "-//W3C//DTD SVG 1.1//EN"
 "http://www.w3.org/Graphics/SVG/1.1/DTD/svg11.dtd">
<!-- Generated by graphviz version 2.43.0 (0)
 -->
<!-- Title: %3 Pages: 1 -->
<svg width="765pt" height="470pt"
 viewBox="0.00 0.00 764.50 470.00" xmlns="http://www.w3.org/2000/svg" xmlns:xlink="http://www.w3.org/1999/xlink">
<g id="graph0" class="graph" transform="scale(1 1) rotate(0) translate(4 466)">
<title>%3</title>
<polygon fill="white" stroke="transparent" points="-4,4 -4,-466 760.5,-466 760.5,4 -4,4"/>
<!-- node1 -->
<g id="node1" class="node">
<title>node1</title>
<path fill="peachpuff" stroke="black" d="M374,-415.5C374,-415.5 488,-415.5 488,-415.5 494,-415.5 500,-421.5 500,-427.5 500,-427.5 500,-449.5 500,-449.5 500,-455.5 494,-461.5 488,-461.5 488,-461.5 374,-461.5 374,-461.5 368,-461.5 362,-455.5 362,-449.5 362,-449.5 362,-427.5 362,-427.5 362,-421.5 368,-415.5 374,-415.5"/>
<text text-anchor="middle" x="375" y="-446.3" font-family="Times,serif" font-size="14.00">1</text>
<polyline fill="none" stroke="black" points="388,-438.5 388,-461.5 "/>
<text text-anchor="middle" x="407" y="-446.3" font-family="Times,serif" font-size="14.00">OP</text>
<polyline fill="none" stroke="black" points="426,-438.5 426,-461.5 "/>
<text text-anchor="middle" x="463" y="-446.3" font-family="Times,serif" font-size="14.00">size=17</text>
<polyline fill="none" stroke="black" points="362,-438.5 500,-438.5 "/>
<text text-anchor="middle" x="431" y="-423.3" font-family="Times,serif" font-size="14.00">^</text>
</g>
<!-- node1&#45;&gt;node1 -->
<g id="edge1" class="edge">
<title>node1&#45;&gt;node1</title>
<path fill="none" stroke="blue" d="M500.27,-452.52C510.83,-450.38 518,-445.71 518,-438.5 518,-433.77 514.91,-430.13 509.81,-427.58"/>
<polygon fill="blue" stroke="blue" points="510.87,-424.25 500.27,-424.48 508.7,-430.9 510.87,-424.25"/>
</g>
<!-- node2 -->
<g id="node2" class="node">
<title>node2</title>
<path fill="peachpuff" stroke="black" d="M296.5,-332.5C296.5,-332.5 401.5,-332.5 401.5,-332.5 407.5,-332.5 413.5,-338.5 413.5,-344.5 413.5,-344.5 413.5,-366.5 413.5,-366.5 413.5,-372.5 407.5,-378.5 401.5,-378.5 401.5,-378.5 296.5,-378.5 296.5,-378.5 290.5,-378.5 284.5,-372.5 284.5,-366.5 284.5,-366.5 284.5,-344.5 284.5,-344.5 284.5,-338.5 290.5,-332.5 296.5,-332.5"/>
<text text-anchor="middle" x="297.5" y="-363.3" font-family="Times,serif" font-size="14.00">2</text>
<polyline fill="none" stroke="black" points="310.5,-355.5 310.5,-378.5 "/>
<text text-anchor="middle" x="329.5" y="-363.3" font-family="Times,serif" font-size="14.00">OP</text>
<polyline fill="none" stroke="black" points="348.5,-355.5 348.5,-378.5 "/>
<text text-anchor="middle" x="381" y="-363.3" font-family="Times,serif" font-size="14.00">size=9</text>
<polyline fill="none" stroke="black" points="284.5,-355.5 413.5,-355.5 "/>
<text text-anchor="middle" x="349" y="-340.3" font-family="Times,serif" font-size="14.00">+</text>
</g>
<!-- node1&#45;&gt;node2 -->
<g id="edge2" class="edge">
<title>node1&#45;&gt;node2</title>
<path fill="none" stroke="red" d="M402.5,-415.37C392.68,-406.35 381.84,-395.79 372.46,-386.12"/>
<polygon fill="red" stroke="red" points="374.73,-383.43 365.29,-378.61 369.66,-388.26 374.73,-383.43"/>
</g>
<!-- node11 -->
<g id="node11" class="node">
<title>node11</title>
<path fill="peachpuff" stroke="black" d="M457,-332.5C457,-332.5 571,-332.5 571,-332.5 577,-332.5 583,-338.5 583,-344.5 583,-344.5 583,-366.5 583,-366.5 583,-372.5 577,-378.5 571,-378.5 571,-378.5 457,-378.5 457,-378.5 451,-378.5 445,-372.5 445,-366.5 445,-366.5 445,-344.5 445,-344.5 445,-338.5 451,-332.5 457,-332.5"/>
<text text-anchor="middle" x="462.5" y="-363.3" font-family="Times,serif" font-size="14.00">11</text>
<polyline fill="none" stroke="black" points="480,-355.5 480,-378.5 "/>
<text text-anchor="middle" x="499" y="-363.3" font-family="Times,serif" font-size="14.00">OP</text>
<polyline fill="none" stroke="black" points="518,-355.5 518,-378.5 "/>
<text text-anchor="middle" x="550.5" y="-363.3" font-family="Times,serif" font-size="14.00">size=7</text>
<polyline fill="none" stroke="black" points="445,-355.5 583,-355.5 "/>
<text text-anchor="middle" x="514" y="-340.3" font-family="Times,serif" font-size="14.00">^</text>
</g>
<!-- node1&#45;&gt;node11 -->
<g id="edge20" class="edge">
<title>node1&#45;&gt;node11</title>
<path fill="none" stroke="green" d="M447.59,-415.37C456.31,-406.17 467.23,-395.37 477.73,-385.55"/>
<polygon fill="green" stroke="green" points="480.28,-387.96 485.26,-378.61 475.53,-382.81 480.28,-387.96"/>
</g>
<!-- node2&#45;&gt;node1 -->
<g id="edge3" class="edge">
<title>node2&#45;&gt;node1</title>
<path fill="none" stroke="blue" d="M377.47,-378.61C387.29,-387.62 398.13,-398.18 407.51,-407.85"/>
<polygon fill="blue" stroke="blue" points="405.25,-410.55 414.68,-415.37 410.31,-405.71 405.25,-410.55"/>
</g>
<!-- node3 -->
<g id="node3" class="node">
<title>node3</title>
<path fill="peachpuff" stroke="black" d="M136.5,-249.5C136.5,-249.5 241.5,-249.5 241.5,-249.5 247.5,-249.5 253.5,-255.5 253.5,-261.5 253.5,-261.5 253.5,-283.5 253.5,-283.5 253.5,-289.5 247.5,-295.5 241.5,-295.5 241.5,-295.5 136.5,-295.5 136.5,-295.5 130.5,-295.5 124.5,-289.5 124.5,-283.5 124.5,-283.5 124.5,-261.5 124.5,-261.5 124.5,-255.5 130.5,-249.5 136.5,-249.5"/>
<text text-anchor="middle" x="137.5" y="-280.3" font-family="Times,serif" font-size="14.00">3</text>
<polyline fill="none" stroke="black" points="150.5,-272.5 150.5,-295.5 "/>
<text text-anchor="middle" x="169.5" y="-280.3" font-family="Times,serif" font-size="14.00">OP</text>
<polyline fill="none" stroke="black" points="188.5,-272.5 188.5,-295.5 "/>
<text text-anchor="middle" x="221" y="-280.3" font-family="Times,serif" font-size="14.00">size=7</text>
<polyline fill="none" stroke="black" points="124.5,-272.5 253.5,-272.5 "/>
<text text-anchor="middle" x="189" y="-257.3" font-family="Times,serif" font-size="14.00">*</text>
</g>
<!-- node2&#45;&gt;node3 -->
<g id="edge4" class="edge">
<title>node2&#45;&gt;node3</title>
<path fill="none" stroke="red" d="M299.19,-332.37C278.85,-322.46 255.49,-310.68 235.5,-300.28"/>
<polygon fill="red" stroke="red" points="237.06,-297.14 226.58,-295.61 233.82,-303.35 237.06,-297.14"/>
</g>
<!-- node10 -->
<g id="node10" class="node">
<title>node10</title>
<path fill="pink" stroke="black" d="M283.5,-249.5C283.5,-249.5 414.5,-249.5 414.5,-249.5 420.5,-249.5 426.5,-255.5 426.5,-261.5 426.5,-261.5 426.5,-283.5 426.5,-283.5 426.5,-289.5 420.5,-295.5 414.5,-295.5 414.5,-295.5 283.5,-295.5 283.5,-295.5 277.5,-295.5 271.5,-289.5 271.5,-283.5 271.5,-283.5 271.5,-261.5 271.5,-261.5 271.5,-255.5 277.5,-249.5 283.5,-249.5"/>
<text text-anchor="middle" x="289" y="-280.3" font-family="Times,serif" font-size="14.00">10</text>
<polyline fill="none" stroke="black" points="306.5,-272.5 306.5,-295.5 "/>
<text text-anchor="middle" x="334" y="-280.3" font-family="Times,serif" font-size="14.00">NUM</text>
<polyline fill="none" stroke="black" points="361.5,-272.5 361.5,-295.5 "/>
<text text-anchor="middle" x="394" y="-280.3" font-family="Times,serif" font-size="14.00">size=1</text>
<polyline fill="none" stroke="black" points="271.5,-272.5 426.5,-272.5 "/>
<text text-anchor="middle" x="349" y="-257.3" font-family="Times,serif" font-size="14.00">1</text>
</g>
<!-- node2&#45;&gt;node10 -->
<g id="edge18" class="edge">
<title>node2&#45;&gt;node10</title>
<path fill="none" stroke="green" d="M342.91,-332.37C342.28,-324.15 342.1,-314.66 342.38,-305.73"/>
<polygon fill="green" stroke="green" points="345.88,-305.78 342.91,-295.61 338.89,-305.41 345.88,-305.78"/>
</g>
<!-- node3&#45;&gt;node2 -->
<g id="edge5" class="edge">
<title>node3&#45;&gt;node2</title>
<path fill="none" stroke="blue" d="M238.76,-295.61C259.09,-305.51 282.45,-317.29 302.44,-327.69"/>
<polygon fill="blue" stroke="blue" points="300.89,-330.83 311.37,-332.37 304.13,-324.63 300.89,-330.83"/>
</g>
<!-- node4 -->
<g id="node4" class="node">
<title>node4</title>
<path fill="pink" stroke="black" d="M12,-166.5C12,-166.5 134,-166.5 134,-166.5 140,-166.5 146,-172.5 146,-178.5 146,-178.5 146,-200.5 146,-200.5 146,-206.5 140,-212.5 134,-212.5 134,-212.5 12,-212.5 12,-212.5 6,-212.5 0,-206.5 0,-200.5 0,-200.5 0,-178.5 0,-178.5 0,-172.5 6,-166.5 12,-166.5"/>
<text text-anchor="middle" x="13" y="-197.3" font-family="Times,serif" font-size="14.00">4</text>
<polyline fill="none" stroke="black" points="26,-189.5 26,-212.5 "/>
<text text-anchor="middle" x="53.5" y="-197.3" font-family="Times,serif" font-size="14.00">NUM</text>
<polyline fill="none" stroke="black" points="81,-189.5 81,-212.5 "/>
<text text-anchor="middle" x="113.5" y="-197.3" font-family="Times,serif" font-size="14.00">size=1</text>
<polyline fill="none" stroke="black" points="0,-189.5 146,-189.5 "/>
<text text-anchor="middle" x="73" y="-174.3" font-family="Times,serif" font-size="14.00">3</text>
</g>
<!-- node3&#45;&gt;node4 -->
<g id="edge6" class="edge">
<title>node3&#45;&gt;node4</title>
<path fill="none" stroke="red" d="M151.21,-249.37C136.93,-239.9 120.82,-228.74 106.91,-218.69"/>
<polygon fill="red" stroke="red" points="108.71,-215.67 98.57,-212.61 104.58,-221.33 108.71,-215.67"/>
</g>
<!-- node5 -->
<g id="node5" class="node">
<title>node5</title>
<path fill="peachpuff" stroke="black" d="M176.5,-166.5C176.5,-166.5 281.5,-166.5 281.5,-166.5 287.5,-166.5 293.5,-172.5 293.5,-178.5 293.5,-178.5 293.5,-200.5 293.5,-200.5 293.5,-206.5 287.5,-212.5 281.5,-212.5 281.5,-212.5 176.5,-212.5 176.5,-212.5 170.5,-212.5 164.5,-206.5 164.5,-200.5 164.5,-200.5 164.5,-178.5 164.5,-178.5 164.5,-172.5 170.5,-166.5 176.5,-166.5"/>
<text text-anchor="middle" x="177.5" y="-197.3" font-family="Times,serif" font-size="14.00">5</text>
<polyline fill="none" stroke="black" points="190.5,-189.5 190.5,-212.5 "/>
<text text-anchor="middle" x="209.5" y="-197.3" font-family="Times,serif" font-size="14.00">OP</text>
<polyline fill="none" stroke="black" points="228.5,-189.5 228.5,-212.5 "/>
<text text-anchor="middle" x="261" y="-197.3" font-family="Times,serif" font-size="14.00">size=5</text>
<polyline fill="none" stroke="black" points="164.5,-189.5 293.5,-189.5 "/>
<text text-anchor="middle" x="229" y="-174.3" font-family="Times,serif" font-size="14.00">&#45;</text>
</g>
<!-- node3&#45;&gt;node5 -->
<g id="edge8" class="edge">
<title>node3&#45;&gt;node5</title>
<path fill="none" stroke="green" d="M193.84,-249.37C197.41,-240.79 202.17,-230.83 207.08,-221.56"/>
<polygon fill="green" stroke="green" points="210.25,-223.06 211.99,-212.61 204.11,-219.69 210.25,-223.06"/>
</g>
<!-- node4&#45;&gt;node3 -->
<g id="edge7" class="edge">
<title>node4&#45;&gt;node3</title>
<path fill="none" stroke="blue" d="M110.75,-212.61C125.03,-222.07 141.14,-233.23 155.05,-243.28"/>
<polygon fill="blue" stroke="blue" points="153.25,-246.3 163.39,-249.37 157.38,-240.64 153.25,-246.3"/>
</g>
<!-- node5&#45;&gt;node3 -->
<g id="edge9" class="edge">
<title>node5&#45;&gt;node3</title>
<path fill="none" stroke="blue" d="M224.17,-212.61C220.6,-221.18 215.85,-231.14 210.94,-240.41"/>
<polygon fill="blue" stroke="blue" points="207.77,-238.92 206.02,-249.37 213.9,-242.29 207.77,-238.92"/>
</g>
<!-- node6 -->
<g id="node6" class="node">
<title>node6</title>
<path fill="pink" stroke="black" d="M92,-83.5C92,-83.5 214,-83.5 214,-83.5 220,-83.5 226,-89.5 226,-95.5 226,-95.5 226,-117.5 226,-117.5 226,-123.5 220,-129.5 214,-129.5 214,-129.5 92,-129.5 92,-129.5 86,-129.5 80,-123.5 80,-117.5 80,-117.5 80,-95.5 80,-95.5 80,-89.5 86,-83.5 92,-83.5"/>
<text text-anchor="middle" x="93" y="-114.3" font-family="Times,serif" font-size="14.00">6</text>
<polyline fill="none" stroke="black" points="106,-106.5 106,-129.5 "/>
<text text-anchor="middle" x="133.5" y="-114.3" font-family="Times,serif" font-size="14.00">NUM</text>
<polyline fill="none" stroke="black" points="161,-106.5 161,-129.5 "/>
<text text-anchor="middle" x="193.5" y="-114.3" font-family="Times,serif" font-size="14.00">size=1</text>
<polyline fill="none" stroke="black" points="80,-106.5 226,-106.5 "/>
<text text-anchor="middle" x="153" y="-91.3" font-family="Times,serif" font-size="14.00">2,5</text>
</g>
<!-- node5&#45;&gt;node6 -->
<g id="edge10" class="edge">
<title>node5&#45;&gt;node6</title>
<path fill="none" stroke="red" d="M202.14,-166.37C192.99,-157.35 182.93,-146.79 174.26,-137.12"/>
<polygon fill="red" stroke="red" points="176.89,-134.8 167.65,-129.61 171.63,-139.43 176.89,-134.8"/>
</g>
<!-- node7 -->
<g id="node7" class="node">
<title>node7</title>
<path fill="peachpuff" stroke="black" d="M256.5,-83.5C256.5,-83.5 361.5,-83.5 361.5,-83.5 367.5,-83.5 373.5,-89.5 373.5,-95.5 373.5,-95.5 373.5,-117.5 373.5,-117.5 373.5,-123.5 367.5,-129.5 361.5,-129.5 361.5,-129.5 256.5,-129.5 256.5,-129.5 250.5,-129.5 244.5,-123.5 244.5,-117.5 244.5,-117.5 244.5,-95.5 244.5,-95.5 244.5,-89.5 250.5,-83.5 256.5,-83.5"/>
<text text-anchor="middle" x="257.5" y="-114.3" font-family="Times,serif" font-size="14.00">7</text>
<polyline fill="none" stroke="black" points="270.5,-106.5 270.5,-129.5 "/>
<text text-anchor="middle" x="289.5" y="-114.3" font-family="Times,serif" font-size="14.00">OP</text>
<polyline fill="none" stroke="black" points="308.5,-106.5 308.5,-129.5 "/>
<text text-anchor="middle" x="341" y="-114.3" font-family="Times,serif" font-size="14.00">size=3</text>
<polyline fill="none" stroke="black" points="244.5,-106.5 373.5,-106.5 "/>
<text text-anchor="middle" x="309" y="-91.3" font-family="Times,serif" font-size="14.00">/</text>
</g>
<!-- node5&#45;&gt;node7 -->
<g id="edge12" class="edge">
<title>node5&#45;&gt;node7</title>
<path fill="none" stroke="green" d="M244.77,-166.37C253.15,-157.17 263.67,-146.37 273.81,-136.55"/>
<polygon fill="green" stroke="green" points="276.26,-139.04 281.08,-129.61 271.43,-133.98 276.26,-139.04"/>
</g>
<!-- node6&#45;&gt;node5 -->
<g id="edge11" class="edge">
<title>node6&#45;&gt;node5</title>
<path fill="none" stroke="blue" d="M179.83,-129.61C188.98,-138.62 199.04,-149.18 207.71,-158.85"/>
<polygon fill="blue" stroke="blue" points="205.09,-161.17 214.32,-166.37 210.35,-156.55 205.09,-161.17"/>
</g>
<!-- node7&#45;&gt;node5 -->
<g id="edge13" class="edge">
<title>node7&#45;&gt;node5</title>
<path fill="none" stroke="blue" d="M293.25,-129.61C284.88,-138.8 274.36,-149.6 264.22,-159.42"/>
<polygon fill="blue" stroke="blue" points="261.77,-156.93 256.95,-166.37 266.6,-161.99 261.77,-156.93"/>
</g>
<!-- node8 -->
<g id="node8" class="node">
<title>node8</title>
<path fill="pink" stroke="black" d="M166,-0.5C166,-0.5 288,-0.5 288,-0.5 294,-0.5 300,-6.5 300,-12.5 300,-12.5 300,-34.5 300,-34.5 300,-40.5 294,-46.5 288,-46.5 288,-46.5 166,-46.5 166,-46.5 160,-46.5 154,-40.5 154,-34.5 154,-34.5 154,-12.5 154,-12.5 154,-6.5 160,-0.5 166,-0.5"/>
<text text-anchor="middle" x="167" y="-31.3" font-family="Times,serif" font-size="14.00">8</text>
<polyline fill="none" stroke="black" points="180,-23.5 180,-46.5 "/>
<text text-anchor="middle" x="207.5" y="-31.3" font-family="Times,serif" font-size="14.00">NUM</text>
<polyline fill="none" stroke="black" points="235,-23.5 235,-46.5 "/>
<text text-anchor="middle" x="267.5" y="-31.3" font-family="Times,serif" font-size="14.00">size=1</text>
<polyline fill="none" stroke="black" points="154,-23.5 300,-23.5 "/>
<text text-anchor="middle" x="227" y="-8.3" font-family="Times,serif" font-size="14.00">0,1</text>
</g>
<!-- node7&#45;&gt;node8 -->
<g id="edge14" class="edge">
<title>node7&#45;&gt;node8</title>
<path fill="none" stroke="red" d="M280.5,-83.37C270.68,-74.35 259.84,-63.79 250.46,-54.12"/>
<polygon fill="red" stroke="red" points="252.73,-51.43 243.29,-46.61 247.66,-56.26 252.73,-51.43"/>
</g>
<!-- node9 -->
<g id="node9" class="node">
<title>node9</title>
<path fill="pink" stroke="black" d="M330,-0.5C330,-0.5 452,-0.5 452,-0.5 458,-0.5 464,-6.5 464,-12.5 464,-12.5 464,-34.5 464,-34.5 464,-40.5 458,-46.5 452,-46.5 452,-46.5 330,-46.5 330,-46.5 324,-46.5 318,-40.5 318,-34.5 318,-34.5 318,-12.5 318,-12.5 318,-6.5 324,-0.5 330,-0.5"/>
<text text-anchor="middle" x="331" y="-31.3" font-family="Times,serif" font-size="14.00">9</text>
<polyline fill="none" stroke="black" points="344,-23.5 344,-46.5 "/>
<text text-anchor="middle" x="371.5" y="-31.3" font-family="Times,serif" font-size="14.00">NUM</text>
<polyline fill="none" stroke="black" points="399,-23.5 399,-46.5 "/>
<text text-anchor="middle" x="431.5" y="-31.3" font-family="Times,serif" font-size="14.00">size=1</text>
<polyline fill="none" stroke="black" points="318,-23.5 464,-23.5 "/>
<text text-anchor="middle" x="391" y="-8.3" font-family="Times,serif" font-size="14.00">2</text>
</g>
<!-- node7&#45;&gt;node9 -->
<g id="edge16" class="edge">
<title>node7&#45;&gt;node9</title>
<path fill="none" stroke="green" d="M325.32,-83.37C333.92,-74.17 344.71,-63.37 355.09,-53.55"/>
<polygon fill="green" stroke="green" points="357.61,-55.99 362.53,-46.61 352.83,-50.87 357.61,-55.99"/>
</g>
<!-- node8&#45;&gt;node7 -->
<g id="edge15" class="edge">
<title>node8&#45;&gt;node7</title>
<path fill="none" stroke="blue" d="M255.47,-46.61C265.29,-55.62 276.13,-66.18 285.51,-75.85"/>
<polygon fill="blue" stroke="blue" points="283.25,-78.55 292.68,-83.37 288.31,-73.71 283.25,-78.55"/>
</g>
<!-- node9&#45;&gt;node7 -->
<g id="edge17" class="edge">
<title>node9&#45;&gt;node7</title>
<path fill="none" stroke="blue" d="M374.71,-46.61C366.11,-55.8 355.32,-66.6 344.94,-76.42"/>
<polygon fill="blue" stroke="blue" points="342.42,-73.99 337.5,-83.37 347.2,-79.1 342.42,-73.99"/>
</g>
<!-- node10&#45;&gt;node2 -->
<g id="edge19" class="edge">
<title>node10&#45;&gt;node2</title>
<path fill="none" stroke="blue" d="M355.09,-295.61C355.72,-303.82 355.9,-313.31 355.62,-322.25"/>
<polygon fill="blue" stroke="blue" points="352.12,-322.2 355.09,-332.37 359.11,-322.56 352.12,-322.2"/>
</g>
<!-- node11&#45;&gt;node1 -->
<g id="edge21" class="edge">
<title>node11&#45;&gt;node1</title>
<path fill="none" stroke="blue" d="M497.44,-378.61C488.72,-387.8 477.8,-398.6 467.3,-408.42"/>
<polygon fill="blue" stroke="blue" points="464.75,-406.01 459.77,-415.37 469.5,-411.16 464.75,-406.01"/>
</g>
<!-- node12 -->
<g id="node12" class="node">
<title>node12</title>
<path fill="peachpuff" stroke="black" d="M457,-249.5C457,-249.5 571,-249.5 571,-249.5 577,-249.5 583,-255.5 583,-261.5 583,-261.5 583,-283.5 583,-283.5 583,-289.5 577,-295.5 571,-295.5 571,-295.5 457,-295.5 457,-295.5 451,-295.5 445,-289.5 445,-283.5 445,-283.5 445,-261.5 445,-261.5 445,-255.5 451,-249.5 457,-249.5"/>
<text text-anchor="middle" x="462.5" y="-280.3" font-family="Times,serif" font-size="14.00">12</text>
<polyline fill="none" stroke="black" points="480,-272.5 480,-295.5 "/>
<text text-anchor="middle" x="499" y="-280.3" font-family="Times,serif" font-size="14.00">OP</text>
<polyline fill="none" stroke="black" points="518,-272.5 518,-295.5 "/>
<text text-anchor="middle" x="550.5" y="-280.3" font-family="Times,serif" font-size="14.00">size=5</text>
<polyline fill="none" stroke="black" points="445,-272.5 583,-272.5 "/>
<text text-anchor="middle" x="514" y="-257.3" font-family="Times,serif" font-size="14.00">/</text>
</g>
<!-- node11&#45;&gt;node12 -->
<g id="edge22" class="edge">
<title>node11&#45;&gt;node12</title>
<path fill="none" stroke="red" d="M507.91,-332.37C507.28,-324.15 507.1,-314.66 507.38,-305.73"/>
<polygon fill="red" stroke="red" points="510.88,-305.78 507.91,-295.61 503.89,-305.41 510.88,-305.78"/>
</g>
<!-- node17 -->
<g id="node17" class="node">
<title>node17</title>
<path fill="pink" stroke="black" d="M613.5,-249.5C613.5,-249.5 744.5,-249.5 744.5,-249.5 750.5,-249.5 756.5,-255.5 756.5,-261.5 756.5,-261.5 756.5,-283.5 756.5,-283.5 756.5,-289.5 750.5,-295.5 744.5,-295.5 744.5,-295.5 613.5,-295.5 613.5,-295.5 607.5,-295.5 601.5,-289.5 601.5,-283.5 601.5,-283.5 601.5,-261.5 601.5,-261.5 601.5,-255.5 607.5,-249.5 613.5,-249.5"/>
<text text-anchor="middle" x="619" y="-280.3" font-family="Times,serif" font-size="14.00">17</text>
<polyline fill="none" stroke="black" points="636.5,-272.5 636.5,-295.5 "/>
<text text-anchor="middle" x="664" y="-280.3" font-family="Times,serif" font-size="14.00">NUM</text>
<polyline fill="none" stroke="black" points="691.5,-272.5 691.5,-295.5 "/>
<text text-anchor="middle" x="724" y="-280.3" font-family="Times,serif" font-size="14.00">size=1</text>
<polyline fill="none" stroke="black" points="601.5,-272.5 756.5,-272.5 "/>
<text text-anchor="middle" x="679" y="-257.3" font-family="Times,serif" font-size="14.00">4,512</text>
</g>
<!-- node11&#45;&gt;node17 -->
<g id="edge32" class="edge">
<title>node11&#45;&gt;node17</title>
<path fill="none" stroke="green" d="M553,-332.37C572.6,-322.37 596.74,-310.47 618.64,-300"/>
<polygon fill="green" stroke="green" points="620.35,-303.06 627.88,-295.61 617.34,-296.74 620.35,-303.06"/>
</g>
<!-- node12&#45;&gt;node11 -->
<g id="edge23" class="edge">
<title>node12&#45;&gt;node11</title>
<path fill="none" stroke="blue" d="M520.09,-295.61C520.72,-303.82 520.9,-313.31 520.62,-322.25"/>
<polygon fill="blue" stroke="blue" points="517.12,-322.2 520.09,-332.37 524.11,-322.56 517.12,-322.2"/>
</g>
<!-- node13 -->
<g id="node13" class="node">
<title>node13</title>
<path fill="peachpuff" stroke="black" d="M455,-166.5C455,-166.5 569,-166.5 569,-166.5 575,-166.5 581,-172.5 581,-178.5 581,-178.5 581,-200.5 581,-200.5 581,-206.5 575,-212.5 569,-212.5 569,-212.5 455,-212.5 455,-212.5 449,-212.5 443,-206.5 443,-200.5 443,-200.5 443,-178.5 443,-178.5 443,-172.5 449,-166.5 455,-166.5"/>
<text text-anchor="middle" x="460.5" y="-197.3" font-family="Times,serif" font-size="14.00">13</text>
<polyline fill="none" stroke="black" points="478,-189.5 478,-212.5 "/>
<text text-anchor="middle" x="497" y="-197.3" font-family="Times,serif" font-size="14.00">OP</text>
<polyline fill="none" stroke="black" points="516,-189.5 516,-212.5 "/>
<text text-anchor="middle" x="548.5" y="-197.3" font-family="Times,serif" font-size="14.00">size=3</text>
<polyline fill="none" stroke="black" points="443,-189.5 581,-189.5 "/>
<text text-anchor="middle" x="512" y="-174.3" font-family="Times,serif" font-size="14.00">*</text>
</g>
<!-- node12&#45;&gt;node13 -->
<g id="edge24" class="edge">
<title>node12&#45;&gt;node13</title>
<path fill="none" stroke="red" d="M507.36,-249.37C506.53,-241.15 506.12,-231.66 506.17,-222.73"/>
<polygon fill="red" stroke="red" points="509.67,-222.7 506.46,-212.61 502.68,-222.5 509.67,-222.7"/>
</g>
<!-- node16 -->
<g id="node16" class="node">
<title>node16</title>
<path fill="pink" stroke="black" d="M611.5,-166.5C611.5,-166.5 742.5,-166.5 742.5,-166.5 748.5,-166.5 754.5,-172.5 754.5,-178.5 754.5,-178.5 754.5,-200.5 754.5,-200.5 754.5,-206.5 748.5,-212.5 742.5,-212.5 742.5,-212.5 611.5,-212.5 611.5,-212.5 605.5,-212.5 599.5,-206.5 599.5,-200.5 599.5,-200.5 599.5,-178.5 599.5,-178.5 599.5,-172.5 605.5,-166.5 611.5,-166.5"/>
<text text-anchor="middle" x="617" y="-197.3" font-family="Times,serif" font-size="14.00">16</text>
<polyline fill="none" stroke="black" points="634.5,-189.5 634.5,-212.5 "/>
<text text-anchor="middle" x="662" y="-197.3" font-family="Times,serif" font-size="14.00">NUM</text>
<polyline fill="none" stroke="black" points="689.5,-189.5 689.5,-212.5 "/>
<text text-anchor="middle" x="722" y="-197.3" font-family="Times,serif" font-size="14.00">size=1</text>
<polyline fill="none" stroke="black" points="599.5,-189.5 754.5,-189.5 "/>
<text text-anchor="middle" x="677" y="-174.3" font-family="Times,serif" font-size="14.00">7</text>
</g>
<!-- node12&#45;&gt;node16 -->
<g id="edge30" class="edge">
<title>node12&#45;&gt;node16</title>
<path fill="none" stroke="green" d="M552.45,-249.37C571.8,-239.37 595.65,-227.47 617.3,-217"/>
<polygon fill="green" stroke="green" points="618.93,-220.1 626.42,-212.61 615.9,-213.79 618.93,-220.1"/>
</g>
<!-- node13&#45;&gt;node12 -->
<g id="edge25" class="edge">
<title>node13&#45;&gt;node12</title>
<path fill="none" stroke="blue" d="M518.63,-212.61C519.47,-220.82 519.88,-230.31 519.83,-239.25"/>
<polygon fill="blue" stroke="blue" points="516.33,-239.27 519.54,-249.37 523.32,-239.47 516.33,-239.27"/>
</g>
<!-- node14 -->
<g id="node14" class="node">
<title>node14</title>
<path fill="pink" stroke="black" d="M407.5,-83.5C407.5,-83.5 538.5,-83.5 538.5,-83.5 544.5,-83.5 550.5,-89.5 550.5,-95.5 550.5,-95.5 550.5,-117.5 550.5,-117.5 550.5,-123.5 544.5,-129.5 538.5,-129.5 538.5,-129.5 407.5,-129.5 407.5,-129.5 401.5,-129.5 395.5,-123.5 395.5,-117.5 395.5,-117.5 395.5,-95.5 395.5,-95.5 395.5,-89.5 401.5,-83.5 407.5,-83.5"/>
<text text-anchor="middle" x="413" y="-114.3" font-family="Times,serif" font-size="14.00">14</text>
<polyline fill="none" stroke="black" points="430.5,-106.5 430.5,-129.5 "/>
<text text-anchor="middle" x="458" y="-114.3" font-family="Times,serif" font-size="14.00">NUM</text>
<polyline fill="none" stroke="black" points="485.5,-106.5 485.5,-129.5 "/>
<text text-anchor="middle" x="518" y="-114.3" font-family="Times,serif" font-size="14.00">size=1</text>
<polyline fill="none" stroke="black" points="395.5,-106.5 550.5,-106.5 "/>
<text text-anchor="middle" x="473" y="-91.3" font-family="Times,serif" font-size="14.00">2</text>
</g>
<!-- node13&#45;&gt;node14 -->
<g id="edge26" class="edge">
<title>node13&#45;&gt;node14</title>
<path fill="none" stroke="red" d="M495.25,-166.37C490.52,-157.88 485.61,-148.04 481.5,-138.85"/>
<polygon fill="red" stroke="red" points="484.7,-137.43 477.56,-129.61 478.26,-140.18 484.7,-137.43"/>
</g>
<!-- node15 -->
<g id="node15" class="node">
<title>node15</title>
<path fill="pink" stroke="black" d="M580.5,-83.5C580.5,-83.5 711.5,-83.5 711.5,-83.5 717.5,-83.5 723.5,-89.5 723.5,-95.5 723.5,-95.5 723.5,-117.5 723.5,-117.5 723.5,-123.5 717.5,-129.5 711.5,-129.5 711.5,-129.5 580.5,-129.5 580.5,-129.5 574.5,-129.5 568.5,-123.5 568.5,-117.5 568.5,-117.5 568.5,-95.5 568.5,-95.5 568.5,-89.5 574.5,-83.5 580.5,-83.5"/>
<text text-anchor="middle" x="586" y="-114.3" font-family="Times,serif" font-size="14.00">15</text>
<polyline fill="none" stroke="black" points="603.5,-106.5 603.5,-129.5 "/>
<text text-anchor="middle" x="631" y="-114.3" font-family="Times,serif" font-size="14.00">NUM</text>
<polyline fill="none" stroke="black" points="658.5,-106.5 658.5,-129.5 "/>
<text text-anchor="middle" x="691" y="-114.3" font-family="Times,serif" font-size="14.00">size=1</text>
<polyline fill="none" stroke="black" points="568.5,-106.5 723.5,-106.5 "/>
<text text-anchor="middle" x="646" y="-91.3" font-family="Times,serif" font-size="14.00">16</text>
</g>
<!-- node13&#45;&gt;node15 -->
<g id="edge28" class="edge">
<title>node13&#45;&gt;node15</title>
<path fill="none" stroke="green" d="M542.53,-166.37C557.88,-156.63 576.84,-145.11 594.34,-134.84"/>
<polygon fill="green" stroke="green" points="596.46,-137.66 603.34,-129.61 592.94,-131.61 596.46,-137.66"/>
</g>
<!-- node14&#45;&gt;node13 -->
<g id="edge27" class="edge">
<title>node14&#45;&gt;node13</title>
<path fill="none" stroke="blue" d="M489.73,-129.61C494.47,-138.09 499.38,-147.93 503.49,-157.12"/>
<polygon fill="blue" stroke="blue" points="500.29,-158.54 507.43,-166.37 506.73,-155.8 500.29,-158.54"/>
</g>
<!-- node15&#45;&gt;node13 -->
<g id="edge29" class="edge">
<title>node15&#45;&gt;node13</title>
<path fill="none" stroke="blue" d="M615.52,-129.61C600.17,-139.34 581.21,-150.86 563.7,-161.13"/>
<polygon fill="blue" stroke="blue" points="561.59,-158.31 554.71,-166.37 565.11,-164.36 561.59,-158.31"/>
</g>
<!-- node16&#45;&gt;node12 -->
<g id="edge31" class="edge">
<title>node16&#45;&gt;node12</title>
<path fill="none" stroke="blue" d="M638.6,-212.61C619.26,-222.6 595.41,-234.5 573.76,-244.97"/>
<polygon fill="blue" stroke="blue" points="572.12,-241.88 564.63,-249.37 575.16,-248.18 572.12,-241.88"/>
</g>
<!-- node17&#45;&gt;node11 -->
<g id="edge33" class="edge">
<title>node17&#45;&gt;node11</title>
<path fill="none" stroke="blue" d="M640.06,-295.61C620.46,-305.6 596.33,-317.5 574.41,-327.97"/>
<polygon fill="blue" stroke="blue" points="572.71,-324.91 565.18,-332.37 575.71,-331.23 572.71,-324.91"/>
</g>
</g>
</svg>
