<?xml version="1.0" encoding="UTF-8" standalone="no"?>
<!DOCTYPE svg PUBLIC "-//W3C//DTD SVG 1.1//EN"
 "http://www.w3.org/Graphics/SVG/1.1/DTD/svg11.dtd">
<!-- Generated by graphviz version 2.43.0 (0)
 -->
<!-- Title: %3 Pages: 1 -->
<svg width="714pt" height="304pt"
 viewBox="0.00 0.00 714.00 304.00" xmlns="http://www.w3.org/2000/svg" xmlns:xlink="http://www.w3.org/1999/xlink">
<g id="graph0" class="graph" transform="scale(1 1) rotate(0) translate(4 300)">
<title>%3</title>
<polygon fill="white" stroke="transparent" points="-4,4 -4,-300 710,-300 710,4 -4,4"/>
<!-- node1 -->
<g id="node1" class="node">
<title>node1</title>
<path fill="peachpuff" stroke="black" d="M249.5,-249.5C249.5,-249.5 363.5,-249.5 363.5,-249.5 369.5,-249.5 375.5,-255.5 375.5,-261.5 375.5,-261.5 375.5,-283.5 375.5,-283.5 375.5,-289.5 369.5,-295.5 363.5,-295.5 363.5,-295.5 249.5,-295.5 249.5,-295.5 243.5,-295.5 237.5,-289.5 237.5,-283.5 237.5,-283.5 237.5,-261.5 237.5,-261.5 237.5,-255.5 243.5,-249.5 249.5,-249.5"/>
<text text-anchor="middle" x="250.5" y="-280.3" font-family="Times,serif" font-size="14.00">1</text>
<polyline fill="none" stroke="black" points="263.5,-272.5 263.5,-295.5 "/>
<text text-anchor="middle" x="282.5" y="-280.3" font-family="Times,serif" font-size="14.00">OP</text>
<polyline fill="none" stroke="black" points="301.5,-272.5 301.5,-295.5 "/>
<text text-anchor="middle" x="338.5" y="-280.3" font-family="Times,serif" font-size="14.00">size=10</text>
<polyline fill="none" stroke="black" points="237.5,-272.5 375.5,-272.5 "/>
<text text-anchor="middle" x="306.5" y="-257.3" font-family="Times,serif" font-size="14.00">/</text>
</g>
<!-- node1&#45;&gt;node1 -->
<g id="edge1" class="edge">
<title>node1&#45;&gt;node1</title>
<path fill="none" stroke="blue" d="M375.77,-286.52C386.33,-284.38 393.5,-279.71 393.5,-272.5 393.5,-267.77 390.41,-264.13 385.31,-261.58"/>
<polygon fill="blue" stroke="blue" points="386.37,-258.25 375.77,-258.48 384.2,-264.9 386.37,-258.25"/>
</g>
<!-- node2 -->
<g id="node2" class="node">
<title>node2</title>
<path fill="peachpuff" stroke="black" d="M172,-166.5C172,-166.5 277,-166.5 277,-166.5 283,-166.5 289,-172.5 289,-178.5 289,-178.5 289,-200.5 289,-200.5 289,-206.5 283,-212.5 277,-212.5 277,-212.5 172,-212.5 172,-212.5 166,-212.5 160,-206.5 160,-200.5 160,-200.5 160,-178.5 160,-178.5 160,-172.5 166,-166.5 172,-166.5"/>
<text text-anchor="middle" x="173" y="-197.3" font-family="Times,serif" font-size="14.00">2</text>
<polyline fill="none" stroke="black" points="186,-189.5 186,-212.5 "/>
<text text-anchor="middle" x="205" y="-197.3" font-family="Times,serif" font-size="14.00">OP</text>
<polyline fill="none" stroke="black" points="224,-189.5 224,-212.5 "/>
<text text-anchor="middle" x="256.5" y="-197.3" font-family="Times,serif" font-size="14.00">size=4</text>
<polyline fill="none" stroke="black" points="160,-189.5 289,-189.5 "/>
<text text-anchor="middle" x="224.5" y="-174.3" font-family="Times,serif" font-size="14.00">*</text>
</g>
<!-- node1&#45;&gt;node2 -->
<g id="edge2" class="edge">
<title>node1&#45;&gt;node2</title>
<path fill="none" stroke="red" d="M278,-249.37C268.18,-240.35 257.34,-229.79 247.96,-220.12"/>
<polygon fill="red" stroke="red" points="250.23,-217.43 240.79,-212.61 245.16,-222.26 250.23,-217.43"/>
</g>
<!-- node6 -->
<g id="node6" class="node">
<title>node6</title>
<path fill="peachpuff" stroke="black" d="M336,-166.5C336,-166.5 441,-166.5 441,-166.5 447,-166.5 453,-172.5 453,-178.5 453,-178.5 453,-200.5 453,-200.5 453,-206.5 447,-212.5 441,-212.5 441,-212.5 336,-212.5 336,-212.5 330,-212.5 324,-206.5 324,-200.5 324,-200.5 324,-178.5 324,-178.5 324,-172.5 330,-166.5 336,-166.5"/>
<text text-anchor="middle" x="337" y="-197.3" font-family="Times,serif" font-size="14.00">6</text>
<polyline fill="none" stroke="black" points="350,-189.5 350,-212.5 "/>
<text text-anchor="middle" x="369" y="-197.3" font-family="Times,serif" font-size="14.00">OP</text>
<polyline fill="none" stroke="black" points="388,-189.5 388,-212.5 "/>
<text text-anchor="middle" x="420.5" y="-197.3" font-family="Times,serif" font-size="14.00">size=5</text>
<polyline fill="none" stroke="black" points="324,-189.5 453,-189.5 "/>
<text text-anchor="middle" x="388.5" y="-174.3" font-family="Times,serif" font-size="14.00">&#45;</text>
</g>
<!-- node1&#45;&gt;node6 -->
<g id="edge10" class="edge">
<title>node1&#45;&gt;node6</title>
<path fill="none" stroke="green" d="M322.82,-249.37C331.42,-240.17 342.21,-229.37 352.59,-219.55"/>
<polygon fill="green" stroke="green" points="355.11,-221.99 360.03,-212.61 350.33,-216.87 355.11,-221.99"/>
</g>
<!-- node2&#45;&gt;node1 -->
<g id="edge3" class="edge">
<title>node2&#45;&gt;node1</title>
<path fill="none" stroke="blue" d="M252.97,-212.61C262.79,-221.62 273.63,-232.18 283.01,-241.85"/>
<polygon fill="blue" stroke="blue" points="280.75,-244.55 290.18,-249.37 285.81,-239.71 280.75,-244.55"/>
</g>
<!-- node3 -->
<g id="node3" class="node">
<title>node3</title>
<path fill="peachpuff" stroke="black" d="M16,-83.5C16,-83.5 121,-83.5 121,-83.5 127,-83.5 133,-89.5 133,-95.5 133,-95.5 133,-117.5 133,-117.5 133,-123.5 127,-129.5 121,-129.5 121,-129.5 16,-129.5 16,-129.5 10,-129.5 4,-123.5 4,-117.5 4,-117.5 4,-95.5 4,-95.5 4,-89.5 10,-83.5 16,-83.5"/>
<text text-anchor="middle" x="17" y="-114.3" font-family="Times,serif" font-size="14.00">3</text>
<polyline fill="none" stroke="black" points="30,-106.5 30,-129.5 "/>
<text text-anchor="middle" x="49" y="-114.3" font-family="Times,serif" font-size="14.00">OP</text>
<polyline fill="none" stroke="black" points="68,-106.5 68,-129.5 "/>
<text text-anchor="middle" x="100.5" y="-114.3" font-family="Times,serif" font-size="14.00">size=2</text>
<polyline fill="none" stroke="black" points="4,-106.5 133,-106.5 "/>
<text text-anchor="middle" x="68.5" y="-91.3" font-family="Times,serif" font-size="14.00">arcsin</text>
</g>
<!-- node2&#45;&gt;node3 -->
<g id="edge4" class="edge">
<title>node2&#45;&gt;node3</title>
<path fill="none" stroke="red" d="M175.78,-166.37C156.02,-156.5 133.36,-144.79 113.94,-134.42"/>
<polygon fill="red" stroke="red" points="115.45,-131.26 104.99,-129.61 112.14,-137.42 115.45,-131.26"/>
</g>
<!-- node5 -->
<g id="node5" class="node">
<title>node5</title>
<path fill="pink" stroke="black" d="M163.5,-83.5C163.5,-83.5 285.5,-83.5 285.5,-83.5 291.5,-83.5 297.5,-89.5 297.5,-95.5 297.5,-95.5 297.5,-117.5 297.5,-117.5 297.5,-123.5 291.5,-129.5 285.5,-129.5 285.5,-129.5 163.5,-129.5 163.5,-129.5 157.5,-129.5 151.5,-123.5 151.5,-117.5 151.5,-117.5 151.5,-95.5 151.5,-95.5 151.5,-89.5 157.5,-83.5 163.5,-83.5"/>
<text text-anchor="middle" x="164.5" y="-114.3" font-family="Times,serif" font-size="14.00">5</text>
<polyline fill="none" stroke="black" points="177.5,-106.5 177.5,-129.5 "/>
<text text-anchor="middle" x="205" y="-114.3" font-family="Times,serif" font-size="14.00">NUM</text>
<polyline fill="none" stroke="black" points="232.5,-106.5 232.5,-129.5 "/>
<text text-anchor="middle" x="265" y="-114.3" font-family="Times,serif" font-size="14.00">size=1</text>
<polyline fill="none" stroke="black" points="151.5,-106.5 297.5,-106.5 "/>
<text text-anchor="middle" x="224.5" y="-91.3" font-family="Times,serif" font-size="14.00">3</text>
</g>
<!-- node2&#45;&gt;node5 -->
<g id="edge8" class="edge">
<title>node2&#45;&gt;node5</title>
<path fill="none" stroke="green" d="M218.41,-166.37C217.78,-158.15 217.6,-148.66 217.88,-139.73"/>
<polygon fill="green" stroke="green" points="221.38,-139.78 218.41,-129.61 214.39,-139.41 221.38,-139.78"/>
</g>
<!-- node3&#45;&gt;node2 -->
<g id="edge5" class="edge">
<title>node3&#45;&gt;node2</title>
<path fill="none" stroke="blue" d="M117.16,-129.61C136.92,-139.47 159.58,-151.18 179,-161.55"/>
<polygon fill="blue" stroke="blue" points="177.5,-164.72 187.96,-166.37 180.81,-158.55 177.5,-164.72"/>
</g>
<!-- node4 -->
<g id="node4" class="node">
<title>node4</title>
<path fill="lightyellow" stroke="black" d="M12,-0.5C12,-0.5 125,-0.5 125,-0.5 131,-0.5 137,-6.5 137,-12.5 137,-12.5 137,-34.5 137,-34.5 137,-40.5 131,-46.5 125,-46.5 125,-46.5 12,-46.5 12,-46.5 6,-46.5 0,-40.5 0,-34.5 0,-34.5 0,-12.5 0,-12.5 0,-6.5 6,-0.5 12,-0.5"/>
<text text-anchor="middle" x="13" y="-31.3" font-family="Times,serif" font-size="14.00">4</text>
<polyline fill="none" stroke="black" points="26,-23.5 26,-46.5 "/>
<text text-anchor="middle" x="49" y="-31.3" font-family="Times,serif" font-size="14.00">VAR</text>
<polyline fill="none" stroke="black" points="72,-23.5 72,-46.5 "/>
<text text-anchor="middle" x="104.5" y="-31.3" font-family="Times,serif" font-size="14.00">size=1</text>
<polyline fill="none" stroke="black" points="0,-23.5 137,-23.5 "/>
<text text-anchor="middle" x="68.5" y="-8.3" font-family="Times,serif" font-size="14.00">x</text>
</g>
<!-- node3&#45;&gt;node4 -->
<g id="edge6" class="edge">
<title>node3&#45;&gt;node4</title>
<path fill="none" stroke="green" d="M62.41,-83.37C61.78,-75.15 61.6,-65.66 61.88,-56.73"/>
<polygon fill="green" stroke="green" points="65.38,-56.78 62.41,-46.61 58.39,-56.41 65.38,-56.78"/>
</g>
<!-- node4&#45;&gt;node3 -->
<g id="edge7" class="edge">
<title>node4&#45;&gt;node3</title>
<path fill="none" stroke="blue" d="M74.59,-46.61C75.22,-54.82 75.4,-64.31 75.12,-73.25"/>
<polygon fill="blue" stroke="blue" points="71.62,-73.2 74.59,-83.37 78.61,-73.56 71.62,-73.2"/>
</g>
<!-- node5&#45;&gt;node2 -->
<g id="edge9" class="edge">
<title>node5&#45;&gt;node2</title>
<path fill="none" stroke="blue" d="M230.59,-129.61C231.22,-137.82 231.4,-147.31 231.12,-156.25"/>
<polygon fill="blue" stroke="blue" points="227.62,-156.2 230.59,-166.37 234.61,-156.56 227.62,-156.2"/>
</g>
<!-- node6&#45;&gt;node1 -->
<g id="edge11" class="edge">
<title>node6&#45;&gt;node1</title>
<path fill="none" stroke="blue" d="M372.21,-212.61C363.61,-221.8 352.82,-232.6 342.44,-242.42"/>
<polygon fill="blue" stroke="blue" points="339.92,-239.99 335,-249.37 344.7,-245.1 339.92,-239.99"/>
</g>
<!-- node7 -->
<g id="node7" class="node">
<title>node7</title>
<path fill="pink" stroke="black" d="M327.5,-83.5C327.5,-83.5 449.5,-83.5 449.5,-83.5 455.5,-83.5 461.5,-89.5 461.5,-95.5 461.5,-95.5 461.5,-117.5 461.5,-117.5 461.5,-123.5 455.5,-129.5 449.5,-129.5 449.5,-129.5 327.5,-129.5 327.5,-129.5 321.5,-129.5 315.5,-123.5 315.5,-117.5 315.5,-117.5 315.5,-95.5 315.5,-95.5 315.5,-89.5 321.5,-83.5 327.5,-83.5"/>
<text text-anchor="middle" x="328.5" y="-114.3" font-family="Times,serif" font-size="14.00">7</text>
<polyline fill="none" stroke="black" points="341.5,-106.5 341.5,-129.5 "/>
<text text-anchor="middle" x="369" y="-114.3" font-family="Times,serif" font-size="14.00">NUM</text>
<polyline fill="none" stroke="black" points="396.5,-106.5 396.5,-129.5 "/>
<text text-anchor="middle" x="429" y="-114.3" font-family="Times,serif" font-size="14.00">size=1</text>
<polyline fill="none" stroke="black" points="315.5,-106.5 461.5,-106.5 "/>
<text text-anchor="middle" x="388.5" y="-91.3" font-family="Times,serif" font-size="14.00">1000</text>
</g>
<!-- node6&#45;&gt;node7 -->
<g id="edge12" class="edge">
<title>node6&#45;&gt;node7</title>
<path fill="none" stroke="red" d="M382.41,-166.37C381.78,-158.15 381.6,-148.66 381.88,-139.73"/>
<polygon fill="red" stroke="red" points="385.38,-139.78 382.41,-129.61 378.39,-139.41 385.38,-139.78"/>
</g>
<!-- node8 -->
<g id="node8" class="node">
<title>node8</title>
<path fill="peachpuff" stroke="black" d="M492,-83.5C492,-83.5 597,-83.5 597,-83.5 603,-83.5 609,-89.5 609,-95.5 609,-95.5 609,-117.5 609,-117.5 609,-123.5 603,-129.5 597,-129.5 597,-129.5 492,-129.5 492,-129.5 486,-129.5 480,-123.5 480,-117.5 480,-117.5 480,-95.5 480,-95.5 480,-89.5 486,-83.5 492,-83.5"/>
<text text-anchor="middle" x="493" y="-114.3" font-family="Times,serif" font-size="14.00">8</text>
<polyline fill="none" stroke="black" points="506,-106.5 506,-129.5 "/>
<text text-anchor="middle" x="525" y="-114.3" font-family="Times,serif" font-size="14.00">OP</text>
<polyline fill="none" stroke="black" points="544,-106.5 544,-129.5 "/>
<text text-anchor="middle" x="576.5" y="-114.3" font-family="Times,serif" font-size="14.00">size=3</text>
<polyline fill="none" stroke="black" points="480,-106.5 609,-106.5 "/>
<text text-anchor="middle" x="544.5" y="-91.3" font-family="Times,serif" font-size="14.00">&#45;</text>
</g>
<!-- node6&#45;&gt;node8 -->
<g id="edge14" class="edge">
<title>node6&#45;&gt;node8</title>
<path fill="none" stroke="green" d="M425.04,-166.37C443.45,-156.41 466.14,-144.58 486.81,-134.14"/>
<polygon fill="green" stroke="green" points="488.47,-137.22 495.84,-129.61 485.33,-130.97 488.47,-137.22"/>
</g>
<!-- node7&#45;&gt;node6 -->
<g id="edge13" class="edge">
<title>node7&#45;&gt;node6</title>
<path fill="none" stroke="blue" d="M394.59,-129.61C395.22,-137.82 395.4,-147.31 395.12,-156.25"/>
<polygon fill="blue" stroke="blue" points="391.62,-156.2 394.59,-166.37 398.61,-156.56 391.62,-156.2"/>
</g>
<!-- node8&#45;&gt;node6 -->
<g id="edge15" class="edge">
<title>node8&#45;&gt;node6</title>
<path fill="none" stroke="blue" d="M508.01,-129.61C489.61,-139.56 466.92,-151.39 446.24,-161.83"/>
<polygon fill="blue" stroke="blue" points="444.58,-158.75 437.22,-166.37 447.73,-165.01 444.58,-158.75"/>
</g>
<!-- node9 -->
<g id="node9" class="node">
<title>node9</title>
<path fill="pink" stroke="black" d="M398.5,-0.5C398.5,-0.5 520.5,-0.5 520.5,-0.5 526.5,-0.5 532.5,-6.5 532.5,-12.5 532.5,-12.5 532.5,-34.5 532.5,-34.5 532.5,-40.5 526.5,-46.5 520.5,-46.5 520.5,-46.5 398.5,-46.5 398.5,-46.5 392.5,-46.5 386.5,-40.5 386.5,-34.5 386.5,-34.5 386.5,-12.5 386.5,-12.5 386.5,-6.5 392.5,-0.5 398.5,-0.5"/>
<text text-anchor="middle" x="399.5" y="-31.3" font-family="Times,serif" font-size="14.00">9</text>
<polyline fill="none" stroke="black" points="412.5,-23.5 412.5,-46.5 "/>
<text text-anchor="middle" x="440" y="-31.3" font-family="Times,serif" font-size="14.00">NUM</text>
<polyline fill="none" stroke="black" points="467.5,-23.5 467.5,-46.5 "/>
<text text-anchor="middle" x="500" y="-31.3" font-family="Times,serif" font-size="14.00">size=1</text>
<polyline fill="none" stroke="black" points="386.5,-23.5 532.5,-23.5 "/>
<text text-anchor="middle" x="459.5" y="-8.3" font-family="Times,serif" font-size="14.00">7</text>
</g>
<!-- node8&#45;&gt;node9 -->
<g id="edge16" class="edge">
<title>node8&#45;&gt;node9</title>
<path fill="none" stroke="red" d="M515.18,-83.37C504.92,-74.26 493.58,-63.58 483.77,-53.83"/>
<polygon fill="red" stroke="red" points="486.13,-51.25 476.61,-46.61 481.16,-56.18 486.13,-51.25"/>
</g>
<!-- node10 -->
<g id="node10" class="node">
<title>node10</title>
<path fill="pink" stroke="black" d="M563,-0.5C563,-0.5 694,-0.5 694,-0.5 700,-0.5 706,-6.5 706,-12.5 706,-12.5 706,-34.5 706,-34.5 706,-40.5 700,-46.5 694,-46.5 694,-46.5 563,-46.5 563,-46.5 557,-46.5 551,-40.5 551,-34.5 551,-34.5 551,-12.5 551,-12.5 551,-6.5 557,-0.5 563,-0.5"/>
<text text-anchor="middle" x="568.5" y="-31.3" font-family="Times,serif" font-size="14.00">10</text>
<polyline fill="none" stroke="black" points="586,-23.5 586,-46.5 "/>
<text text-anchor="middle" x="613.5" y="-31.3" font-family="Times,serif" font-size="14.00">NUM</text>
<polyline fill="none" stroke="black" points="641,-23.5 641,-46.5 "/>
<text text-anchor="middle" x="673.5" y="-31.3" font-family="Times,serif" font-size="14.00">size=1</text>
<polyline fill="none" stroke="black" points="551,-23.5 706,-23.5 "/>
<text text-anchor="middle" x="628.5" y="-8.3" font-family="Times,serif" font-size="14.00">1</text>
</g>
<!-- node8&#45;&gt;node10 -->
<g id="edge18" class="edge">
<title>node8&#45;&gt;node10</title>
<path fill="none" stroke="green" d="M561.36,-83.37C570.19,-74.17 581.25,-63.37 591.87,-53.55"/>
<polygon fill="green" stroke="green" points="594.45,-55.93 599.49,-46.61 589.74,-50.76 594.45,-55.93"/>
</g>
<!-- node9&#45;&gt;node8 -->
<g id="edge17" class="edge">
<title>node9&#45;&gt;node8</title>
<path fill="none" stroke="blue" d="M488.79,-46.61C499.04,-55.71 510.39,-66.39 520.2,-76.14"/>
<polygon fill="blue" stroke="blue" points="517.84,-78.72 527.36,-83.37 522.81,-73.8 517.84,-78.72"/>
</g>
<!-- node10&#45;&gt;node8 -->
<g id="edge19" class="edge">
<title>node10&#45;&gt;node8</title>
<path fill="none" stroke="blue" d="M611.66,-46.61C602.84,-55.8 591.78,-66.6 581.16,-76.42"/>
<polygon fill="blue" stroke="blue" points="578.58,-74.04 573.54,-83.37 583.29,-79.22 578.58,-74.04"/>
</g>
</g>
</svg>
