<?xml version="1.0" encoding="UTF-8" standalone="no"?>
<!DOCTYPE svg PUBLIC "-//W3C//DTD SVG 1.1//EN"
 "http://www.w3.org/Graphics/SVG/1.1/DTD/svg11.dtd">
<!-- Generated by graphviz version 2.43.0 (0)
 -->
<!-- Title: %3 Pages: 1 -->
<svg width="159pt" height="138pt"
 viewBox="0.00 0.00 159.00 138.00" xmlns="http://www.w3.org/2000/svg" xmlns:xlink="http://www.w3.org/1999/xlink">
<g id="graph0" class="graph" transform="scale(1 1) rotate(0) translate(4 134)">
<title>%3</title>
<polygon fill="white" stroke="transparent" points="-4,4 -4,-134 155,-134 155,4 -4,4"/>
<!-- node1 -->
<g id="node1" class="node">
<title>node1</title>
<path fill="peachpuff" stroke="black" d="M16,-83.5C16,-83.5 121,-83.5 121,-83.5 127,-83.5 133,-89.5 133,-95.5 133,-95.5 133,-117.5 133,-117.5 133,-123.5 127,-129.5 121,-129.5 121,-129.5 16,-129.5 16,-129.5 10,-129.5 4,-123.5 4,-117.5 4,-117.5 4,-95.5 4,-95.5 4,-89.5 10,-83.5 16,-83.5"/>
<text text-anchor="middle" x="17" y="-114.3" font-family="Times,serif" font-size="14.00">1</text>
<polyline fill="none" stroke="black" points="30,-106.5 30,-129.5 "/>
<text text-anchor="middle" x="49" y="-114.3" font-family="Times,serif" font-size="14.00">OP</text>
<polyline fill="none" stroke="black" points="68,-106.5 68,-129.5 "/>
<text text-anchor="middle" x="100.5" y="-114.3" font-family="Times,serif" font-size="14.00">size=2</text>
<polyline fill="none" stroke="black" points="4,-106.5 133,-106.5 "/>
<text text-anchor="middle" x="68.5" y="-91.3" font-family="Times,serif" font-size="14.00">arcsin</text>
</g>
<!-- node1&#45;&gt;node1 -->
<g id="edge1" class="edge">
<title>node1&#45;&gt;node1</title>
<path fill="none" stroke="blue" d="M133.18,-120.73C143.74,-118.69 151,-113.95 151,-106.5 151,-101.61 147.87,-97.89 142.74,-95.33"/>
<polygon fill="blue" stroke="blue" points="143.77,-91.99 133.18,-92.27 141.64,-98.66 143.77,-91.99"/>
</g>
<!-- node2 -->
<g id="node2" class="node">
<title>node2</title>
<path fill="lightyellow" stroke="black" d="M12,-0.5C12,-0.5 125,-0.5 125,-0.5 131,-0.5 137,-6.5 137,-12.5 137,-12.5 137,-34.5 137,-34.5 137,-40.5 131,-46.5 125,-46.5 125,-46.5 12,-46.5 12,-46.5 6,-46.5 0,-40.5 0,-34.5 0,-34.5 0,-12.5 0,-12.5 0,-6.5 6,-0.5 12,-0.5"/>
<text text-anchor="middle" x="13" y="-31.3" font-family="Times,serif" font-size="14.00">2</text>
<polyline fill="none" stroke="black" points="26,-23.5 26,-46.5 "/>
<text text-anchor="middle" x="49" y="-31.3" font-family="Times,serif" font-size="14.00">VAR</text>
<polyline fill="none" stroke="black" points="72,-23.5 72,-46.5 "/>
<text text-anchor="middle" x="104.5" y="-31.3" font-family="Times,serif" font-size="14.00">size=1</text>
<polyline fill="none" stroke="black" points="0,-23.5 137,-23.5 "/>
<text text-anchor="middle" x="68.5" y="-8.3" font-family="Times,serif" font-size="14.00">x</text>
</g>
<!-- node1&#45;&gt;node2 -->
<g id="edge2" class="edge">
<title>node1&#45;&gt;node2</title>
<path fill="none" stroke="green" d="M62.41,-83.37C61.78,-75.15 61.6,-65.66 61.88,-56.73"/>
<polygon fill="green" stroke="green" points="65.38,-56.78 62.41,-46.61 58.39,-56.41 65.38,-56.78"/>
</g>
<!-- node2&#45;&gt;node1 -->
<g id="edge3" class="edge">
<title>node2&#45;&gt;node1</title>
<path fill="none" stroke="blue" d="M74.59,-46.61C75.22,-54.82 75.4,-64.31 75.12,-73.25"/>
<polygon fill="blue" stroke="blue" points="71.62,-73.2 74.59,-83.37 78.61,-73.56 71.62,-73.2"/>
</g>
</g>
</svg>
