<?xml version="1.0" encoding="UTF-8" standalone="no"?>
<!DOCTYPE svg PUBLIC "-//W3C//DTD SVG 1.1//EN"
 "http://www.w3.org/Graphics/SVG/1.1/DTD/svg11.dtd">
<!-- Generated by graphviz version 2.43.0 (0)
 -->
<!-- Title: %3 Pages: 1 -->
<svg width="639pt" height="387pt"
 viewBox="0.00 0.00 638.50 387.00" xmlns="http://www.w3.org/2000/svg" xmlns:xlink="http://www.w3.org/1999/xlink">
<g id="graph0" class="graph" transform="scale(1 1) rotate(0) translate(4 383)">
<title>%3</title>
<polygon fill="white" stroke="transparent" points="-4,4 -4,-383 634.5,-383 634.5,4 -4,4"/>
<!-- node1 -->
<g id="node1" class="node">
<title>node1</title>
<path fill="peachpuff" stroke="black" d="M253,-332.5C253,-332.5 367,-332.5 367,-332.5 373,-332.5 379,-338.5 379,-344.5 379,-344.5 379,-366.5 379,-366.5 379,-372.5 373,-378.5 367,-378.5 367,-378.5 253,-378.5 253,-378.5 247,-378.5 241,-372.5 241,-366.5 241,-366.5 241,-344.5 241,-344.5 241,-338.5 247,-332.5 253,-332.5"/>
<text text-anchor="middle" x="254" y="-363.3" font-family="Times,serif" font-size="14.00">1</text>
<polyline fill="none" stroke="black" points="267,-355.5 267,-378.5 "/>
<text text-anchor="middle" x="286" y="-363.3" font-family="Times,serif" font-size="14.00">OP</text>
<polyline fill="none" stroke="black" points="305,-355.5 305,-378.5 "/>
<text text-anchor="middle" x="342" y="-363.3" font-family="Times,serif" font-size="14.00">size=10</text>
<polyline fill="none" stroke="black" points="241,-355.5 379,-355.5 "/>
<text text-anchor="middle" x="310" y="-340.3" font-family="Times,serif" font-size="14.00">^</text>
</g>
<!-- node1&#45;&gt;node1 -->
<g id="edge1" class="edge">
<title>node1&#45;&gt;node1</title>
<path fill="none" stroke="blue" d="M379.27,-369.52C389.83,-367.38 397,-362.71 397,-355.5 397,-350.77 393.91,-347.13 388.81,-344.58"/>
<polygon fill="blue" stroke="blue" points="389.87,-341.25 379.27,-341.48 387.7,-347.9 389.87,-341.25"/>
</g>
<!-- node2 -->
<g id="node2" class="node">
<title>node2</title>
<path fill="peachpuff" stroke="black" d="M184.5,-249.5C184.5,-249.5 289.5,-249.5 289.5,-249.5 295.5,-249.5 301.5,-255.5 301.5,-261.5 301.5,-261.5 301.5,-283.5 301.5,-283.5 301.5,-289.5 295.5,-295.5 289.5,-295.5 289.5,-295.5 184.5,-295.5 184.5,-295.5 178.5,-295.5 172.5,-289.5 172.5,-283.5 172.5,-283.5 172.5,-261.5 172.5,-261.5 172.5,-255.5 178.5,-249.5 184.5,-249.5"/>
<text text-anchor="middle" x="185.5" y="-280.3" font-family="Times,serif" font-size="14.00">2</text>
<polyline fill="none" stroke="black" points="198.5,-272.5 198.5,-295.5 "/>
<text text-anchor="middle" x="217.5" y="-280.3" font-family="Times,serif" font-size="14.00">OP</text>
<polyline fill="none" stroke="black" points="236.5,-272.5 236.5,-295.5 "/>
<text text-anchor="middle" x="269" y="-280.3" font-family="Times,serif" font-size="14.00">size=3</text>
<polyline fill="none" stroke="black" points="172.5,-272.5 301.5,-272.5 "/>
<text text-anchor="middle" x="237" y="-257.3" font-family="Times,serif" font-size="14.00">/</text>
</g>
<!-- node1&#45;&gt;node2 -->
<g id="edge2" class="edge">
<title>node1&#45;&gt;node2</title>
<path fill="none" stroke="red" d="M283.96,-332.37C275.23,-323.44 265.67,-313 257.41,-303.41"/>
<polygon fill="red" stroke="red" points="259.96,-300.99 250.83,-295.61 254.61,-305.51 259.96,-300.99"/>
</g>
<!-- node5 -->
<g id="node5" class="node">
<title>node5</title>
<path fill="peachpuff" stroke="black" d="M335.5,-249.5C335.5,-249.5 440.5,-249.5 440.5,-249.5 446.5,-249.5 452.5,-255.5 452.5,-261.5 452.5,-261.5 452.5,-283.5 452.5,-283.5 452.5,-289.5 446.5,-295.5 440.5,-295.5 440.5,-295.5 335.5,-295.5 335.5,-295.5 329.5,-295.5 323.5,-289.5 323.5,-283.5 323.5,-283.5 323.5,-261.5 323.5,-261.5 323.5,-255.5 329.5,-249.5 335.5,-249.5"/>
<text text-anchor="middle" x="336.5" y="-280.3" font-family="Times,serif" font-size="14.00">5</text>
<polyline fill="none" stroke="black" points="349.5,-272.5 349.5,-295.5 "/>
<text text-anchor="middle" x="368.5" y="-280.3" font-family="Times,serif" font-size="14.00">OP</text>
<polyline fill="none" stroke="black" points="387.5,-272.5 387.5,-295.5 "/>
<text text-anchor="middle" x="420" y="-280.3" font-family="Times,serif" font-size="14.00">size=6</text>
<polyline fill="none" stroke="black" points="323.5,-272.5 452.5,-272.5 "/>
<text text-anchor="middle" x="388" y="-257.3" font-family="Times,serif" font-size="14.00">arccos</text>
</g>
<!-- node1&#45;&gt;node5 -->
<g id="edge8" class="edge">
<title>node1&#45;&gt;node5</title>
<path fill="none" stroke="green" d="M325.22,-332.37C333.29,-323.26 343.43,-312.58 353.24,-302.83"/>
<polygon fill="green" stroke="green" points="355.92,-305.1 360.62,-295.61 351.03,-300.1 355.92,-305.1"/>
</g>
<!-- node2&#45;&gt;node1 -->
<g id="edge3" class="edge">
<title>node2&#45;&gt;node1</title>
<path fill="none" stroke="blue" d="M263.01,-295.61C271.74,-304.53 281.3,-314.97 289.56,-324.56"/>
<polygon fill="blue" stroke="blue" points="287.02,-326.98 296.14,-332.37 292.37,-322.47 287.02,-326.98"/>
</g>
<!-- node3 -->
<g id="node3" class="node">
<title>node3</title>
<path fill="pink" stroke="black" d="M12,-166.5C12,-166.5 134,-166.5 134,-166.5 140,-166.5 146,-172.5 146,-178.5 146,-178.5 146,-200.5 146,-200.5 146,-206.5 140,-212.5 134,-212.5 134,-212.5 12,-212.5 12,-212.5 6,-212.5 0,-206.5 0,-200.5 0,-200.5 0,-178.5 0,-178.5 0,-172.5 6,-166.5 12,-166.5"/>
<text text-anchor="middle" x="13" y="-197.3" font-family="Times,serif" font-size="14.00">3</text>
<polyline fill="none" stroke="black" points="26,-189.5 26,-212.5 "/>
<text text-anchor="middle" x="53.5" y="-197.3" font-family="Times,serif" font-size="14.00">NUM</text>
<polyline fill="none" stroke="black" points="81,-189.5 81,-212.5 "/>
<text text-anchor="middle" x="113.5" y="-197.3" font-family="Times,serif" font-size="14.00">size=1</text>
<polyline fill="none" stroke="black" points="0,-189.5 146,-189.5 "/>
<text text-anchor="middle" x="73" y="-174.3" font-family="Times,serif" font-size="14.00">1</text>
</g>
<!-- node2&#45;&gt;node3 -->
<g id="edge4" class="edge">
<title>node2&#45;&gt;node3</title>
<path fill="none" stroke="red" d="M186.1,-249.37C165.27,-239.46 141.33,-227.68 120.83,-217.28"/>
<polygon fill="red" stroke="red" points="122.17,-214.03 111.67,-212.61 118.99,-220.27 122.17,-214.03"/>
</g>
<!-- node4 -->
<g id="node4" class="node">
<title>node4</title>
<path fill="pink" stroke="black" d="M176,-166.5C176,-166.5 298,-166.5 298,-166.5 304,-166.5 310,-172.5 310,-178.5 310,-178.5 310,-200.5 310,-200.5 310,-206.5 304,-212.5 298,-212.5 298,-212.5 176,-212.5 176,-212.5 170,-212.5 164,-206.5 164,-200.5 164,-200.5 164,-178.5 164,-178.5 164,-172.5 170,-166.5 176,-166.5"/>
<text text-anchor="middle" x="177" y="-197.3" font-family="Times,serif" font-size="14.00">4</text>
<polyline fill="none" stroke="black" points="190,-189.5 190,-212.5 "/>
<text text-anchor="middle" x="217.5" y="-197.3" font-family="Times,serif" font-size="14.00">NUM</text>
<polyline fill="none" stroke="black" points="245,-189.5 245,-212.5 "/>
<text text-anchor="middle" x="277.5" y="-197.3" font-family="Times,serif" font-size="14.00">size=1</text>
<polyline fill="none" stroke="black" points="164,-189.5 310,-189.5 "/>
<text text-anchor="middle" x="237" y="-174.3" font-family="Times,serif" font-size="14.00">7</text>
</g>
<!-- node2&#45;&gt;node4 -->
<g id="edge6" class="edge">
<title>node2&#45;&gt;node4</title>
<path fill="none" stroke="green" d="M230.91,-249.37C230.28,-241.15 230.1,-231.66 230.38,-222.73"/>
<polygon fill="green" stroke="green" points="233.88,-222.78 230.91,-212.61 226.89,-222.41 233.88,-222.78"/>
</g>
<!-- node3&#45;&gt;node2 -->
<g id="edge5" class="edge">
<title>node3&#45;&gt;node2</title>
<path fill="none" stroke="blue" d="M123.85,-212.61C144.67,-222.51 168.61,-234.29 189.12,-244.69"/>
<polygon fill="blue" stroke="blue" points="187.78,-247.94 198.28,-249.37 190.96,-241.7 187.78,-247.94"/>
</g>
<!-- node4&#45;&gt;node2 -->
<g id="edge7" class="edge">
<title>node4&#45;&gt;node2</title>
<path fill="none" stroke="blue" d="M243.09,-212.61C243.72,-220.82 243.9,-230.31 243.62,-239.25"/>
<polygon fill="blue" stroke="blue" points="240.12,-239.2 243.09,-249.37 247.11,-239.56 240.12,-239.2"/>
</g>
<!-- node5&#45;&gt;node1 -->
<g id="edge9" class="edge">
<title>node5&#45;&gt;node1</title>
<path fill="none" stroke="blue" d="M372.8,-295.61C364.74,-304.71 354.59,-315.39 344.79,-325.14"/>
<polygon fill="blue" stroke="blue" points="342.1,-322.87 337.4,-332.37 347,-327.87 342.1,-322.87"/>
</g>
<!-- node6 -->
<g id="node6" class="node">
<title>node6</title>
<path fill="peachpuff" stroke="black" d="M340.5,-166.5C340.5,-166.5 445.5,-166.5 445.5,-166.5 451.5,-166.5 457.5,-172.5 457.5,-178.5 457.5,-178.5 457.5,-200.5 457.5,-200.5 457.5,-206.5 451.5,-212.5 445.5,-212.5 445.5,-212.5 340.5,-212.5 340.5,-212.5 334.5,-212.5 328.5,-206.5 328.5,-200.5 328.5,-200.5 328.5,-178.5 328.5,-178.5 328.5,-172.5 334.5,-166.5 340.5,-166.5"/>
<text text-anchor="middle" x="341.5" y="-197.3" font-family="Times,serif" font-size="14.00">6</text>
<polyline fill="none" stroke="black" points="354.5,-189.5 354.5,-212.5 "/>
<text text-anchor="middle" x="373.5" y="-197.3" font-family="Times,serif" font-size="14.00">OP</text>
<polyline fill="none" stroke="black" points="392.5,-189.5 392.5,-212.5 "/>
<text text-anchor="middle" x="425" y="-197.3" font-family="Times,serif" font-size="14.00">size=5</text>
<polyline fill="none" stroke="black" points="328.5,-189.5 457.5,-189.5 "/>
<text text-anchor="middle" x="393" y="-174.3" font-family="Times,serif" font-size="14.00">*</text>
</g>
<!-- node5&#45;&gt;node6 -->
<g id="edge10" class="edge">
<title>node5&#45;&gt;node6</title>
<path fill="none" stroke="green" d="M383.28,-249.37C383.15,-241.15 383.56,-231.66 384.39,-222.73"/>
<polygon fill="green" stroke="green" points="387.89,-222.94 385.55,-212.61 380.93,-222.14 387.89,-222.94"/>
</g>
<!-- node6&#45;&gt;node5 -->
<g id="edge11" class="edge">
<title>node6&#45;&gt;node5</title>
<path fill="none" stroke="blue" d="M397.72,-212.61C397.85,-220.82 397.44,-230.31 396.62,-239.25"/>
<polygon fill="blue" stroke="blue" points="393.12,-239.03 395.46,-249.37 400.07,-239.83 393.12,-239.03"/>
</g>
<!-- node7 -->
<g id="node7" class="node">
<title>node7</title>
<path fill="pink" stroke="black" d="M254,-83.5C254,-83.5 376,-83.5 376,-83.5 382,-83.5 388,-89.5 388,-95.5 388,-95.5 388,-117.5 388,-117.5 388,-123.5 382,-129.5 376,-129.5 376,-129.5 254,-129.5 254,-129.5 248,-129.5 242,-123.5 242,-117.5 242,-117.5 242,-95.5 242,-95.5 242,-89.5 248,-83.5 254,-83.5"/>
<text text-anchor="middle" x="255" y="-114.3" font-family="Times,serif" font-size="14.00">7</text>
<polyline fill="none" stroke="black" points="268,-106.5 268,-129.5 "/>
<text text-anchor="middle" x="295.5" y="-114.3" font-family="Times,serif" font-size="14.00">NUM</text>
<polyline fill="none" stroke="black" points="323,-106.5 323,-129.5 "/>
<text text-anchor="middle" x="355.5" y="-114.3" font-family="Times,serif" font-size="14.00">size=1</text>
<polyline fill="none" stroke="black" points="242,-106.5 388,-106.5 "/>
<text text-anchor="middle" x="315" y="-91.3" font-family="Times,serif" font-size="14.00">2</text>
</g>
<!-- node6&#45;&gt;node7 -->
<g id="edge12" class="edge">
<title>node6&#45;&gt;node7</title>
<path fill="none" stroke="red" d="M365.6,-166.37C356.22,-157.35 345.9,-146.79 337,-137.12"/>
<polygon fill="red" stroke="red" points="339.5,-134.68 330.2,-129.61 334.31,-139.37 339.5,-134.68"/>
</g>
<!-- node8 -->
<g id="node8" class="node">
<title>node8</title>
<path fill="peachpuff" stroke="black" d="M418.5,-83.5C418.5,-83.5 523.5,-83.5 523.5,-83.5 529.5,-83.5 535.5,-89.5 535.5,-95.5 535.5,-95.5 535.5,-117.5 535.5,-117.5 535.5,-123.5 529.5,-129.5 523.5,-129.5 523.5,-129.5 418.5,-129.5 418.5,-129.5 412.5,-129.5 406.5,-123.5 406.5,-117.5 406.5,-117.5 406.5,-95.5 406.5,-95.5 406.5,-89.5 412.5,-83.5 418.5,-83.5"/>
<text text-anchor="middle" x="419.5" y="-114.3" font-family="Times,serif" font-size="14.00">8</text>
<polyline fill="none" stroke="black" points="432.5,-106.5 432.5,-129.5 "/>
<text text-anchor="middle" x="451.5" y="-114.3" font-family="Times,serif" font-size="14.00">OP</text>
<polyline fill="none" stroke="black" points="470.5,-106.5 470.5,-129.5 "/>
<text text-anchor="middle" x="503" y="-114.3" font-family="Times,serif" font-size="14.00">size=3</text>
<polyline fill="none" stroke="black" points="406.5,-106.5 535.5,-106.5 "/>
<text text-anchor="middle" x="471" y="-91.3" font-family="Times,serif" font-size="14.00">^</text>
</g>
<!-- node6&#45;&gt;node8 -->
<g id="edge14" class="edge">
<title>node6&#45;&gt;node8</title>
<path fill="none" stroke="green" d="M408.22,-166.37C416.29,-157.26 426.43,-146.58 436.24,-136.83"/>
<polygon fill="green" stroke="green" points="438.92,-139.1 443.62,-129.61 434.03,-134.1 438.92,-139.1"/>
</g>
<!-- node7&#45;&gt;node6 -->
<g id="edge13" class="edge">
<title>node7&#45;&gt;node6</title>
<path fill="none" stroke="blue" d="M342.38,-129.61C351.75,-138.62 362.07,-149.18 370.98,-158.85"/>
<polygon fill="blue" stroke="blue" points="368.47,-161.3 377.78,-166.37 373.66,-156.6 368.47,-161.3"/>
</g>
<!-- node8&#45;&gt;node6 -->
<g id="edge15" class="edge">
<title>node8&#45;&gt;node6</title>
<path fill="none" stroke="blue" d="M455.8,-129.61C447.74,-138.71 437.59,-149.39 427.79,-159.14"/>
<polygon fill="blue" stroke="blue" points="425.1,-156.87 420.4,-166.37 430,-161.87 425.1,-156.87"/>
</g>
<!-- node9 -->
<g id="node9" class="node">
<title>node9</title>
<path fill="lightyellow" stroke="black" d="M332.5,-0.5C332.5,-0.5 445.5,-0.5 445.5,-0.5 451.5,-0.5 457.5,-6.5 457.5,-12.5 457.5,-12.5 457.5,-34.5 457.5,-34.5 457.5,-40.5 451.5,-46.5 445.5,-46.5 445.5,-46.5 332.5,-46.5 332.5,-46.5 326.5,-46.5 320.5,-40.5 320.5,-34.5 320.5,-34.5 320.5,-12.5 320.5,-12.5 320.5,-6.5 326.5,-0.5 332.5,-0.5"/>
<text text-anchor="middle" x="333.5" y="-31.3" font-family="Times,serif" font-size="14.00">9</text>
<polyline fill="none" stroke="black" points="346.5,-23.5 346.5,-46.5 "/>
<text text-anchor="middle" x="369.5" y="-31.3" font-family="Times,serif" font-size="14.00">VAR</text>
<polyline fill="none" stroke="black" points="392.5,-23.5 392.5,-46.5 "/>
<text text-anchor="middle" x="425" y="-31.3" font-family="Times,serif" font-size="14.00">size=1</text>
<polyline fill="none" stroke="black" points="320.5,-23.5 457.5,-23.5 "/>
<text text-anchor="middle" x="389" y="-8.3" font-family="Times,serif" font-size="14.00">x</text>
</g>
<!-- node8&#45;&gt;node9 -->
<g id="edge16" class="edge">
<title>node8&#45;&gt;node9</title>
<path fill="none" stroke="red" d="M442.5,-83.37C432.68,-74.35 421.84,-63.79 412.46,-54.12"/>
<polygon fill="red" stroke="red" points="414.73,-51.43 405.29,-46.61 409.66,-56.26 414.73,-51.43"/>
</g>
<!-- node10 -->
<g id="node10" class="node">
<title>node10</title>
<path fill="pink" stroke="black" d="M487.5,-0.5C487.5,-0.5 618.5,-0.5 618.5,-0.5 624.5,-0.5 630.5,-6.5 630.5,-12.5 630.5,-12.5 630.5,-34.5 630.5,-34.5 630.5,-40.5 624.5,-46.5 618.5,-46.5 618.5,-46.5 487.5,-46.5 487.5,-46.5 481.5,-46.5 475.5,-40.5 475.5,-34.5 475.5,-34.5 475.5,-12.5 475.5,-12.5 475.5,-6.5 481.5,-0.5 487.5,-0.5"/>
<text text-anchor="middle" x="493" y="-31.3" font-family="Times,serif" font-size="14.00">10</text>
<polyline fill="none" stroke="black" points="510.5,-23.5 510.5,-46.5 "/>
<text text-anchor="middle" x="538" y="-31.3" font-family="Times,serif" font-size="14.00">NUM</text>
<polyline fill="none" stroke="black" points="565.5,-23.5 565.5,-46.5 "/>
<text text-anchor="middle" x="598" y="-31.3" font-family="Times,serif" font-size="14.00">size=1</text>
<polyline fill="none" stroke="black" points="475.5,-23.5 630.5,-23.5 "/>
<text text-anchor="middle" x="553" y="-8.3" font-family="Times,serif" font-size="14.00">2</text>
</g>
<!-- node8&#45;&gt;node10 -->
<g id="edge18" class="edge">
<title>node8&#45;&gt;node10</title>
<path fill="none" stroke="green" d="M487.32,-83.37C495.92,-74.17 506.71,-63.37 517.09,-53.55"/>
<polygon fill="green" stroke="green" points="519.61,-55.99 524.53,-46.61 514.83,-50.87 519.61,-55.99"/>
</g>
<!-- node9&#45;&gt;node8 -->
<g id="edge17" class="edge">
<title>node9&#45;&gt;node8</title>
<path fill="none" stroke="blue" d="M417.47,-46.61C427.29,-55.62 438.13,-66.18 447.51,-75.85"/>
<polygon fill="blue" stroke="blue" points="445.25,-78.55 454.68,-83.37 450.31,-73.71 445.25,-78.55"/>
</g>
<!-- node10&#45;&gt;node8 -->
<g id="edge19" class="edge">
<title>node10&#45;&gt;node8</title>
<path fill="none" stroke="blue" d="M536.71,-46.61C528.11,-55.8 517.32,-66.6 506.94,-76.42"/>
<polygon fill="blue" stroke="blue" points="504.42,-73.99 499.5,-83.37 509.2,-79.1 504.42,-73.99"/>
</g>
</g>
</svg>
