<?xml version="1.0" encoding="UTF-8" standalone="no"?>
<!DOCTYPE svg PUBLIC "-//W3C//DTD SVG 1.1//EN"
 "http://www.w3.org/Graphics/SVG/1.1/DTD/svg11.dtd">
<!-- Generated by graphviz version 2.43.0 (0)
 -->
<!-- Title: %3 Pages: 1 -->
<svg width="638pt" height="221pt"
 viewBox="0.00 0.00 638.00 221.00" xmlns="http://www.w3.org/2000/svg" xmlns:xlink="http://www.w3.org/1999/xlink">
<g id="graph0" class="graph" transform="scale(1 1) rotate(0) translate(4 217)">
<title>%3</title>
<polygon fill="white" stroke="transparent" points="-4,4 -4,-217 634,-217 634,4 -4,4"/>
<!-- node1 -->
<g id="node1" class="node">
<title>node1</title>
<path fill="peachpuff" stroke="black" d="M260.5,-166.5C260.5,-166.5 365.5,-166.5 365.5,-166.5 371.5,-166.5 377.5,-172.5 377.5,-178.5 377.5,-178.5 377.5,-200.5 377.5,-200.5 377.5,-206.5 371.5,-212.5 365.5,-212.5 365.5,-212.5 260.5,-212.5 260.5,-212.5 254.5,-212.5 248.5,-206.5 248.5,-200.5 248.5,-200.5 248.5,-178.5 248.5,-178.5 248.5,-172.5 254.5,-166.5 260.5,-166.5"/>
<text text-anchor="middle" x="261.5" y="-197.3" font-family="Times,serif" font-size="14.00">1</text>
<polyline fill="none" stroke="black" points="274.5,-189.5 274.5,-212.5 "/>
<text text-anchor="middle" x="293.5" y="-197.3" font-family="Times,serif" font-size="14.00">OP</text>
<polyline fill="none" stroke="black" points="312.5,-189.5 312.5,-212.5 "/>
<text text-anchor="middle" x="345" y="-197.3" font-family="Times,serif" font-size="14.00">size=7</text>
<polyline fill="none" stroke="black" points="248.5,-189.5 377.5,-189.5 "/>
<text text-anchor="middle" x="313" y="-174.3" font-family="Times,serif" font-size="14.00">+</text>
</g>
<!-- node1&#45;&gt;node1 -->
<g id="edge1" class="edge">
<title>node1&#45;&gt;node1</title>
<path fill="none" stroke="blue" d="M377.68,-203.73C388.24,-201.69 395.5,-196.95 395.5,-189.5 395.5,-184.61 392.37,-180.89 387.24,-178.33"/>
<polygon fill="blue" stroke="blue" points="388.27,-174.99 377.68,-175.27 386.14,-181.66 388.27,-174.99"/>
</g>
<!-- node2 -->
<g id="node2" class="node">
<title>node2</title>
<path fill="peachpuff" stroke="black" d="M180.5,-83.5C180.5,-83.5 285.5,-83.5 285.5,-83.5 291.5,-83.5 297.5,-89.5 297.5,-95.5 297.5,-95.5 297.5,-117.5 297.5,-117.5 297.5,-123.5 291.5,-129.5 285.5,-129.5 285.5,-129.5 180.5,-129.5 180.5,-129.5 174.5,-129.5 168.5,-123.5 168.5,-117.5 168.5,-117.5 168.5,-95.5 168.5,-95.5 168.5,-89.5 174.5,-83.5 180.5,-83.5"/>
<text text-anchor="middle" x="181.5" y="-114.3" font-family="Times,serif" font-size="14.00">2</text>
<polyline fill="none" stroke="black" points="194.5,-106.5 194.5,-129.5 "/>
<text text-anchor="middle" x="213.5" y="-114.3" font-family="Times,serif" font-size="14.00">OP</text>
<polyline fill="none" stroke="black" points="232.5,-106.5 232.5,-129.5 "/>
<text text-anchor="middle" x="265" y="-114.3" font-family="Times,serif" font-size="14.00">size=3</text>
<polyline fill="none" stroke="black" points="168.5,-106.5 297.5,-106.5 "/>
<text text-anchor="middle" x="233" y="-91.3" font-family="Times,serif" font-size="14.00">*</text>
</g>
<!-- node1&#45;&gt;node2 -->
<g id="edge2" class="edge">
<title>node1&#45;&gt;node2</title>
<path fill="none" stroke="red" d="M285.05,-166.37C275.45,-157.35 264.87,-146.79 255.73,-137.12"/>
<polygon fill="red" stroke="red" points="258.12,-134.55 248.75,-129.61 252.99,-139.32 258.12,-134.55"/>
</g>
<!-- node5 -->
<g id="node5" class="node">
<title>node5</title>
<path fill="peachpuff" stroke="black" d="M340.5,-83.5C340.5,-83.5 445.5,-83.5 445.5,-83.5 451.5,-83.5 457.5,-89.5 457.5,-95.5 457.5,-95.5 457.5,-117.5 457.5,-117.5 457.5,-123.5 451.5,-129.5 445.5,-129.5 445.5,-129.5 340.5,-129.5 340.5,-129.5 334.5,-129.5 328.5,-123.5 328.5,-117.5 328.5,-117.5 328.5,-95.5 328.5,-95.5 328.5,-89.5 334.5,-83.5 340.5,-83.5"/>
<text text-anchor="middle" x="341.5" y="-114.3" font-family="Times,serif" font-size="14.00">5</text>
<polyline fill="none" stroke="black" points="354.5,-106.5 354.5,-129.5 "/>
<text text-anchor="middle" x="373.5" y="-114.3" font-family="Times,serif" font-size="14.00">OP</text>
<polyline fill="none" stroke="black" points="392.5,-106.5 392.5,-129.5 "/>
<text text-anchor="middle" x="425" y="-114.3" font-family="Times,serif" font-size="14.00">size=3</text>
<polyline fill="none" stroke="black" points="328.5,-106.5 457.5,-106.5 "/>
<text text-anchor="middle" x="393" y="-91.3" font-family="Times,serif" font-size="14.00">*</text>
</g>
<!-- node1&#45;&gt;node5 -->
<g id="edge8" class="edge">
<title>node1&#45;&gt;node5</title>
<path fill="none" stroke="green" d="M328.77,-166.37C337.15,-157.17 347.67,-146.37 357.81,-136.55"/>
<polygon fill="green" stroke="green" points="360.26,-139.04 365.08,-129.61 355.43,-133.98 360.26,-139.04"/>
</g>
<!-- node2&#45;&gt;node1 -->
<g id="edge3" class="edge">
<title>node2&#45;&gt;node1</title>
<path fill="none" stroke="blue" d="M260.92,-129.61C270.52,-138.62 281.1,-149.18 290.25,-158.85"/>
<polygon fill="blue" stroke="blue" points="287.86,-161.42 297.23,-166.37 292.99,-156.66 287.86,-161.42"/>
</g>
<!-- node3 -->
<g id="node3" class="node">
<title>node3</title>
<path fill="pink" stroke="black" d="M12,-0.5C12,-0.5 134,-0.5 134,-0.5 140,-0.5 146,-6.5 146,-12.5 146,-12.5 146,-34.5 146,-34.5 146,-40.5 140,-46.5 134,-46.5 134,-46.5 12,-46.5 12,-46.5 6,-46.5 0,-40.5 0,-34.5 0,-34.5 0,-12.5 0,-12.5 0,-6.5 6,-0.5 12,-0.5"/>
<text text-anchor="middle" x="13" y="-31.3" font-family="Times,serif" font-size="14.00">3</text>
<polyline fill="none" stroke="black" points="26,-23.5 26,-46.5 "/>
<text text-anchor="middle" x="53.5" y="-31.3" font-family="Times,serif" font-size="14.00">NUM</text>
<polyline fill="none" stroke="black" points="81,-23.5 81,-46.5 "/>
<text text-anchor="middle" x="113.5" y="-31.3" font-family="Times,serif" font-size="14.00">size=1</text>
<polyline fill="none" stroke="black" points="0,-23.5 146,-23.5 "/>
<text text-anchor="middle" x="73" y="-8.3" font-family="Times,serif" font-size="14.00">0</text>
</g>
<!-- node2&#45;&gt;node3 -->
<g id="edge4" class="edge">
<title>node2&#45;&gt;node3</title>
<path fill="none" stroke="red" d="M183.19,-83.37C162.85,-73.46 139.49,-61.68 119.5,-51.28"/>
<polygon fill="red" stroke="red" points="121.06,-48.14 110.58,-46.61 117.82,-54.35 121.06,-48.14"/>
</g>
<!-- node4 -->
<g id="node4" class="node">
<title>node4</title>
<path fill="lightyellow" stroke="black" d="M176.5,-0.5C176.5,-0.5 289.5,-0.5 289.5,-0.5 295.5,-0.5 301.5,-6.5 301.5,-12.5 301.5,-12.5 301.5,-34.5 301.5,-34.5 301.5,-40.5 295.5,-46.5 289.5,-46.5 289.5,-46.5 176.5,-46.5 176.5,-46.5 170.5,-46.5 164.5,-40.5 164.5,-34.5 164.5,-34.5 164.5,-12.5 164.5,-12.5 164.5,-6.5 170.5,-0.5 176.5,-0.5"/>
<text text-anchor="middle" x="177.5" y="-31.3" font-family="Times,serif" font-size="14.00">4</text>
<polyline fill="none" stroke="black" points="190.5,-23.5 190.5,-46.5 "/>
<text text-anchor="middle" x="213.5" y="-31.3" font-family="Times,serif" font-size="14.00">VAR</text>
<polyline fill="none" stroke="black" points="236.5,-23.5 236.5,-46.5 "/>
<text text-anchor="middle" x="269" y="-31.3" font-family="Times,serif" font-size="14.00">size=1</text>
<polyline fill="none" stroke="black" points="164.5,-23.5 301.5,-23.5 "/>
<text text-anchor="middle" x="233" y="-8.3" font-family="Times,serif" font-size="14.00">x</text>
</g>
<!-- node2&#45;&gt;node4 -->
<g id="edge6" class="edge">
<title>node2&#45;&gt;node4</title>
<path fill="none" stroke="green" d="M226.91,-83.37C226.28,-75.15 226.1,-65.66 226.38,-56.73"/>
<polygon fill="green" stroke="green" points="229.88,-56.78 226.91,-46.61 222.89,-56.41 229.88,-56.78"/>
</g>
<!-- node3&#45;&gt;node2 -->
<g id="edge5" class="edge">
<title>node3&#45;&gt;node2</title>
<path fill="none" stroke="blue" d="M122.76,-46.61C143.09,-56.51 166.45,-68.29 186.44,-78.69"/>
<polygon fill="blue" stroke="blue" points="184.89,-81.83 195.37,-83.37 188.13,-75.63 184.89,-81.83"/>
</g>
<!-- node4&#45;&gt;node2 -->
<g id="edge7" class="edge">
<title>node4&#45;&gt;node2</title>
<path fill="none" stroke="blue" d="M239.09,-46.61C239.72,-54.82 239.9,-64.31 239.62,-73.25"/>
<polygon fill="blue" stroke="blue" points="236.12,-73.2 239.09,-83.37 243.11,-73.56 236.12,-73.2"/>
</g>
<!-- node5&#45;&gt;node1 -->
<g id="edge9" class="edge">
<title>node5&#45;&gt;node1</title>
<path fill="none" stroke="blue" d="M377.25,-129.61C368.88,-138.8 358.36,-149.6 348.22,-159.42"/>
<polygon fill="blue" stroke="blue" points="345.77,-156.93 340.95,-166.37 350.6,-161.99 345.77,-156.93"/>
</g>
<!-- node6 -->
<g id="node6" class="node">
<title>node6</title>
<path fill="pink" stroke="black" d="M332,-0.5C332,-0.5 454,-0.5 454,-0.5 460,-0.5 466,-6.5 466,-12.5 466,-12.5 466,-34.5 466,-34.5 466,-40.5 460,-46.5 454,-46.5 454,-46.5 332,-46.5 332,-46.5 326,-46.5 320,-40.5 320,-34.5 320,-34.5 320,-12.5 320,-12.5 320,-6.5 326,-0.5 332,-0.5"/>
<text text-anchor="middle" x="333" y="-31.3" font-family="Times,serif" font-size="14.00">6</text>
<polyline fill="none" stroke="black" points="346,-23.5 346,-46.5 "/>
<text text-anchor="middle" x="373.5" y="-31.3" font-family="Times,serif" font-size="14.00">NUM</text>
<polyline fill="none" stroke="black" points="401,-23.5 401,-46.5 "/>
<text text-anchor="middle" x="433.5" y="-31.3" font-family="Times,serif" font-size="14.00">size=1</text>
<polyline fill="none" stroke="black" points="320,-23.5 466,-23.5 "/>
<text text-anchor="middle" x="393" y="-8.3" font-family="Times,serif" font-size="14.00">2</text>
</g>
<!-- node5&#45;&gt;node6 -->
<g id="edge10" class="edge">
<title>node5&#45;&gt;node6</title>
<path fill="none" stroke="red" d="M386.91,-83.37C386.28,-75.15 386.1,-65.66 386.38,-56.73"/>
<polygon fill="red" stroke="red" points="389.88,-56.78 386.91,-46.61 382.89,-56.41 389.88,-56.78"/>
</g>
<!-- node7 -->
<g id="node7" class="node">
<title>node7</title>
<path fill="pink" stroke="black" d="M496,-0.5C496,-0.5 618,-0.5 618,-0.5 624,-0.5 630,-6.5 630,-12.5 630,-12.5 630,-34.5 630,-34.5 630,-40.5 624,-46.5 618,-46.5 618,-46.5 496,-46.5 496,-46.5 490,-46.5 484,-40.5 484,-34.5 484,-34.5 484,-12.5 484,-12.5 484,-6.5 490,-0.5 496,-0.5"/>
<text text-anchor="middle" x="497" y="-31.3" font-family="Times,serif" font-size="14.00">7</text>
<polyline fill="none" stroke="black" points="510,-23.5 510,-46.5 "/>
<text text-anchor="middle" x="537.5" y="-31.3" font-family="Times,serif" font-size="14.00">NUM</text>
<polyline fill="none" stroke="black" points="565,-23.5 565,-46.5 "/>
<text text-anchor="middle" x="597.5" y="-31.3" font-family="Times,serif" font-size="14.00">size=1</text>
<polyline fill="none" stroke="black" points="484,-23.5 630,-23.5 "/>
<text text-anchor="middle" x="557" y="-8.3" font-family="Times,serif" font-size="14.00">1</text>
</g>
<!-- node5&#45;&gt;node7 -->
<g id="edge12" class="edge">
<title>node5&#45;&gt;node7</title>
<path fill="none" stroke="green" d="M431.72,-83.37C451.2,-73.37 475.19,-61.47 496.97,-51"/>
<polygon fill="green" stroke="green" points="498.64,-54.08 506.15,-46.61 495.62,-47.76 498.64,-54.08"/>
</g>
<!-- node6&#45;&gt;node5 -->
<g id="edge11" class="edge">
<title>node6&#45;&gt;node5</title>
<path fill="none" stroke="blue" d="M399.09,-46.61C399.72,-54.82 399.9,-64.31 399.62,-73.25"/>
<polygon fill="blue" stroke="blue" points="396.12,-73.2 399.09,-83.37 403.11,-73.56 396.12,-73.2"/>
</g>
<!-- node7&#45;&gt;node5 -->
<g id="edge13" class="edge">
<title>node7&#45;&gt;node5</title>
<path fill="none" stroke="blue" d="M518.33,-46.61C498.86,-56.6 474.87,-68.5 453.09,-78.97"/>
<polygon fill="blue" stroke="blue" points="451.42,-75.89 443.9,-83.37 454.44,-82.21 451.42,-75.89"/>
</g>
</g>
</svg>
