<?xml version="1.0" encoding="UTF-8" standalone="no"?>
<!DOCTYPE svg PUBLIC "-//W3C//DTD SVG 1.1//EN"
 "http://www.w3.org/Graphics/SVG/1.1/DTD/svg11.dtd">
<!-- Generated by graphviz version 2.43.0 (0)
 -->
<!-- Title: %3 Pages: 1 -->
<svg width="1578pt" height="802pt"
 viewBox="0.00 0.00 1577.50 802.00" xmlns="http://www.w3.org/2000/svg" xmlns:xlink="http://www.w3.org/1999/xlink">
<g id="graph0" class="graph" transform="scale(1 1) rotate(0) translate(4 798)">
<title>%3</title>
<polygon fill="white" stroke="transparent" points="-4,4 -4,-798 1573.5,-798 1573.5,4 -4,4"/>
<!-- node1 -->
<g id="node1" class="node">
<title>node1</title>
<path fill="peachpuff" stroke="black" d="M822,-747.5C822,-747.5 936,-747.5 936,-747.5 942,-747.5 948,-753.5 948,-759.5 948,-759.5 948,-781.5 948,-781.5 948,-787.5 942,-793.5 936,-793.5 936,-793.5 822,-793.5 822,-793.5 816,-793.5 810,-787.5 810,-781.5 810,-781.5 810,-759.5 810,-759.5 810,-753.5 816,-747.5 822,-747.5"/>
<text text-anchor="middle" x="823" y="-778.3" font-family="Times,serif" font-size="14.00">1</text>
<polyline fill="none" stroke="black" points="836,-770.5 836,-793.5 "/>
<text text-anchor="middle" x="855" y="-778.3" font-family="Times,serif" font-size="14.00">OP</text>
<polyline fill="none" stroke="black" points="874,-770.5 874,-793.5 "/>
<text text-anchor="middle" x="911" y="-778.3" font-family="Times,serif" font-size="14.00">size=40</text>
<polyline fill="none" stroke="black" points="810,-770.5 948,-770.5 "/>
<text text-anchor="middle" x="879" y="-755.3" font-family="Times,serif" font-size="14.00">+</text>
</g>
<!-- node1&#45;&gt;node1 -->
<g id="edge1" class="edge">
<title>node1&#45;&gt;node1</title>
<path fill="none" stroke="blue" d="M948.27,-784.52C958.83,-782.38 966,-777.71 966,-770.5 966,-765.77 962.91,-762.13 957.81,-759.58"/>
<polygon fill="blue" stroke="blue" points="958.87,-756.25 948.27,-756.48 956.7,-762.9 958.87,-756.25"/>
</g>
<!-- node2 -->
<g id="node2" class="node">
<title>node2</title>
<path fill="peachpuff" stroke="black" d="M744,-664.5C744,-664.5 858,-664.5 858,-664.5 864,-664.5 870,-670.5 870,-676.5 870,-676.5 870,-698.5 870,-698.5 870,-704.5 864,-710.5 858,-710.5 858,-710.5 744,-710.5 744,-710.5 738,-710.5 732,-704.5 732,-698.5 732,-698.5 732,-676.5 732,-676.5 732,-670.5 738,-664.5 744,-664.5"/>
<text text-anchor="middle" x="745" y="-695.3" font-family="Times,serif" font-size="14.00">2</text>
<polyline fill="none" stroke="black" points="758,-687.5 758,-710.5 "/>
<text text-anchor="middle" x="777" y="-695.3" font-family="Times,serif" font-size="14.00">OP</text>
<polyline fill="none" stroke="black" points="796,-687.5 796,-710.5 "/>
<text text-anchor="middle" x="833" y="-695.3" font-family="Times,serif" font-size="14.00">size=35</text>
<polyline fill="none" stroke="black" points="732,-687.5 870,-687.5 "/>
<text text-anchor="middle" x="801" y="-672.3" font-family="Times,serif" font-size="14.00">+</text>
</g>
<!-- node1&#45;&gt;node2 -->
<g id="edge2" class="edge">
<title>node1&#45;&gt;node2</title>
<path fill="none" stroke="red" d="M851.6,-747.37C842.22,-738.35 831.9,-727.79 823,-718.12"/>
<polygon fill="red" stroke="red" points="825.5,-715.68 816.2,-710.61 820.31,-720.37 825.5,-715.68"/>
</g>
<!-- node37 -->
<g id="node37" class="node">
<title>node37</title>
<path fill="peachpuff" stroke="black" d="M902,-664.5C902,-664.5 1016,-664.5 1016,-664.5 1022,-664.5 1028,-670.5 1028,-676.5 1028,-676.5 1028,-698.5 1028,-698.5 1028,-704.5 1022,-710.5 1016,-710.5 1016,-710.5 902,-710.5 902,-710.5 896,-710.5 890,-704.5 890,-698.5 890,-698.5 890,-676.5 890,-676.5 890,-670.5 896,-664.5 902,-664.5"/>
<text text-anchor="middle" x="907.5" y="-695.3" font-family="Times,serif" font-size="14.00">37</text>
<polyline fill="none" stroke="black" points="925,-687.5 925,-710.5 "/>
<text text-anchor="middle" x="944" y="-695.3" font-family="Times,serif" font-size="14.00">OP</text>
<polyline fill="none" stroke="black" points="963,-687.5 963,-710.5 "/>
<text text-anchor="middle" x="995.5" y="-695.3" font-family="Times,serif" font-size="14.00">size=4</text>
<polyline fill="none" stroke="black" points="890,-687.5 1028,-687.5 "/>
<text text-anchor="middle" x="959" y="-672.3" font-family="Times,serif" font-size="14.00">sh</text>
</g>
<!-- node1&#45;&gt;node37 -->
<g id="edge72" class="edge">
<title>node1&#45;&gt;node37</title>
<path fill="none" stroke="green" d="M894.77,-747.37C903.15,-738.17 913.67,-727.37 923.81,-717.55"/>
<polygon fill="green" stroke="green" points="926.26,-720.04 931.08,-710.61 921.43,-714.98 926.26,-720.04"/>
</g>
<!-- node2&#45;&gt;node1 -->
<g id="edge3" class="edge">
<title>node2&#45;&gt;node1</title>
<path fill="none" stroke="blue" d="M828.38,-710.61C837.75,-719.62 848.07,-730.18 856.98,-739.85"/>
<polygon fill="blue" stroke="blue" points="854.47,-742.3 863.78,-747.37 859.66,-737.6 854.47,-742.3"/>
</g>
<!-- node3 -->
<g id="node3" class="node">
<title>node3</title>
<path fill="peachpuff" stroke="black" d="M584,-581.5C584,-581.5 698,-581.5 698,-581.5 704,-581.5 710,-587.5 710,-593.5 710,-593.5 710,-615.5 710,-615.5 710,-621.5 704,-627.5 698,-627.5 698,-627.5 584,-627.5 584,-627.5 578,-627.5 572,-621.5 572,-615.5 572,-615.5 572,-593.5 572,-593.5 572,-587.5 578,-581.5 584,-581.5"/>
<text text-anchor="middle" x="585" y="-612.3" font-family="Times,serif" font-size="14.00">3</text>
<polyline fill="none" stroke="black" points="598,-604.5 598,-627.5 "/>
<text text-anchor="middle" x="617" y="-612.3" font-family="Times,serif" font-size="14.00">OP</text>
<polyline fill="none" stroke="black" points="636,-604.5 636,-627.5 "/>
<text text-anchor="middle" x="673" y="-612.3" font-family="Times,serif" font-size="14.00">size=33</text>
<polyline fill="none" stroke="black" points="572,-604.5 710,-604.5 "/>
<text text-anchor="middle" x="641" y="-589.3" font-family="Times,serif" font-size="14.00">&#45;</text>
</g>
<!-- node2&#45;&gt;node3 -->
<g id="edge4" class="edge">
<title>node2&#45;&gt;node3</title>
<path fill="none" stroke="red" d="M751.19,-664.37C730.85,-654.46 707.49,-642.68 687.5,-632.28"/>
<polygon fill="red" stroke="red" points="689.06,-629.14 678.58,-627.61 685.82,-635.35 689.06,-629.14"/>
</g>
<!-- node36 -->
<g id="node36" class="node">
<title>node36</title>
<path fill="lightyellow" stroke="black" d="M740,-581.5C740,-581.5 862,-581.5 862,-581.5 868,-581.5 874,-587.5 874,-593.5 874,-593.5 874,-615.5 874,-615.5 874,-621.5 868,-627.5 862,-627.5 862,-627.5 740,-627.5 740,-627.5 734,-627.5 728,-621.5 728,-615.5 728,-615.5 728,-593.5 728,-593.5 728,-587.5 734,-581.5 740,-581.5"/>
<text text-anchor="middle" x="745.5" y="-612.3" font-family="Times,serif" font-size="14.00">36</text>
<polyline fill="none" stroke="black" points="763,-604.5 763,-627.5 "/>
<text text-anchor="middle" x="786" y="-612.3" font-family="Times,serif" font-size="14.00">VAR</text>
<polyline fill="none" stroke="black" points="809,-604.5 809,-627.5 "/>
<text text-anchor="middle" x="841.5" y="-612.3" font-family="Times,serif" font-size="14.00">size=1</text>
<polyline fill="none" stroke="black" points="728,-604.5 874,-604.5 "/>
<text text-anchor="middle" x="801" y="-589.3" font-family="Times,serif" font-size="14.00">x</text>
</g>
<!-- node2&#45;&gt;node36 -->
<g id="edge70" class="edge">
<title>node2&#45;&gt;node36</title>
<path fill="none" stroke="green" d="M794.91,-664.37C794.28,-656.15 794.1,-646.66 794.38,-637.73"/>
<polygon fill="green" stroke="green" points="797.88,-637.78 794.91,-627.61 790.89,-637.41 797.88,-637.78"/>
</g>
<!-- node3&#45;&gt;node2 -->
<g id="edge5" class="edge">
<title>node3&#45;&gt;node2</title>
<path fill="none" stroke="blue" d="M690.76,-627.61C711.09,-637.51 734.45,-649.29 754.44,-659.69"/>
<polygon fill="blue" stroke="blue" points="752.89,-662.83 763.37,-664.37 756.13,-656.63 752.89,-662.83"/>
</g>
<!-- node4 -->
<g id="node4" class="node">
<title>node4</title>
<path fill="peachpuff" stroke="black" d="M463,-498.5C463,-498.5 577,-498.5 577,-498.5 583,-498.5 589,-504.5 589,-510.5 589,-510.5 589,-532.5 589,-532.5 589,-538.5 583,-544.5 577,-544.5 577,-544.5 463,-544.5 463,-544.5 457,-544.5 451,-538.5 451,-532.5 451,-532.5 451,-510.5 451,-510.5 451,-504.5 457,-498.5 463,-498.5"/>
<text text-anchor="middle" x="464" y="-529.3" font-family="Times,serif" font-size="14.00">4</text>
<polyline fill="none" stroke="black" points="477,-521.5 477,-544.5 "/>
<text text-anchor="middle" x="496" y="-529.3" font-family="Times,serif" font-size="14.00">OP</text>
<polyline fill="none" stroke="black" points="515,-521.5 515,-544.5 "/>
<text text-anchor="middle" x="552" y="-529.3" font-family="Times,serif" font-size="14.00">size=31</text>
<polyline fill="none" stroke="black" points="451,-521.5 589,-521.5 "/>
<text text-anchor="middle" x="520" y="-506.3" font-family="Times,serif" font-size="14.00">*</text>
</g>
<!-- node3&#45;&gt;node4 -->
<g id="edge6" class="edge">
<title>node3&#45;&gt;node4</title>
<path fill="none" stroke="red" d="M601.85,-581.37C586.84,-571.81 569.86,-560.53 555.24,-550.41"/>
<polygon fill="red" stroke="red" points="557.14,-547.46 546.94,-544.61 553.13,-553.2 557.14,-547.46"/>
</g>
<!-- node35 -->
<g id="node35" class="node">
<title>node35</title>
<path fill="lightyellow" stroke="black" d="M619,-498.5C619,-498.5 741,-498.5 741,-498.5 747,-498.5 753,-504.5 753,-510.5 753,-510.5 753,-532.5 753,-532.5 753,-538.5 747,-544.5 741,-544.5 741,-544.5 619,-544.5 619,-544.5 613,-544.5 607,-538.5 607,-532.5 607,-532.5 607,-510.5 607,-510.5 607,-504.5 613,-498.5 619,-498.5"/>
<text text-anchor="middle" x="624.5" y="-529.3" font-family="Times,serif" font-size="14.00">35</text>
<polyline fill="none" stroke="black" points="642,-521.5 642,-544.5 "/>
<text text-anchor="middle" x="665" y="-529.3" font-family="Times,serif" font-size="14.00">VAR</text>
<polyline fill="none" stroke="black" points="688,-521.5 688,-544.5 "/>
<text text-anchor="middle" x="720.5" y="-529.3" font-family="Times,serif" font-size="14.00">size=1</text>
<polyline fill="none" stroke="black" points="607,-521.5 753,-521.5 "/>
<text text-anchor="middle" x="680" y="-506.3" font-family="Times,serif" font-size="14.00">x</text>
</g>
<!-- node3&#45;&gt;node35 -->
<g id="edge68" class="edge">
<title>node3&#45;&gt;node35</title>
<path fill="none" stroke="green" d="M645.57,-581.37C649.03,-572.79 653.67,-562.83 658.46,-553.56"/>
<polygon fill="green" stroke="green" points="661.62,-555.07 663.27,-544.61 655.45,-551.76 661.62,-555.07"/>
</g>
<!-- node4&#45;&gt;node3 -->
<g id="edge7" class="edge">
<title>node4&#45;&gt;node3</title>
<path fill="none" stroke="blue" d="M559.11,-544.61C574.12,-554.16 591.09,-565.44 605.72,-575.56"/>
<polygon fill="blue" stroke="blue" points="603.82,-578.51 614.03,-581.37 607.83,-572.77 603.82,-578.51"/>
</g>
<!-- node5 -->
<g id="node5" class="node">
<title>node5</title>
<path fill="peachpuff" stroke="black" d="M300.5,-415.5C300.5,-415.5 405.5,-415.5 405.5,-415.5 411.5,-415.5 417.5,-421.5 417.5,-427.5 417.5,-427.5 417.5,-449.5 417.5,-449.5 417.5,-455.5 411.5,-461.5 405.5,-461.5 405.5,-461.5 300.5,-461.5 300.5,-461.5 294.5,-461.5 288.5,-455.5 288.5,-449.5 288.5,-449.5 288.5,-427.5 288.5,-427.5 288.5,-421.5 294.5,-415.5 300.5,-415.5"/>
<text text-anchor="middle" x="301.5" y="-446.3" font-family="Times,serif" font-size="14.00">5</text>
<polyline fill="none" stroke="black" points="314.5,-438.5 314.5,-461.5 "/>
<text text-anchor="middle" x="333.5" y="-446.3" font-family="Times,serif" font-size="14.00">OP</text>
<polyline fill="none" stroke="black" points="352.5,-438.5 352.5,-461.5 "/>
<text text-anchor="middle" x="385" y="-446.3" font-family="Times,serif" font-size="14.00">size=9</text>
<polyline fill="none" stroke="black" points="288.5,-438.5 417.5,-438.5 "/>
<text text-anchor="middle" x="353" y="-423.3" font-family="Times,serif" font-size="14.00">/</text>
</g>
<!-- node4&#45;&gt;node5 -->
<g id="edge8" class="edge">
<title>node4&#45;&gt;node5</title>
<path fill="none" stroke="red" d="M468.28,-498.37C446.98,-488.41 422.49,-476.58 401.54,-466.14"/>
<polygon fill="red" stroke="red" points="403,-462.96 392.49,-461.61 399.86,-469.22 403,-462.96"/>
</g>
<!-- node14 -->
<g id="node14" class="node">
<title>node14</title>
<path fill="peachpuff" stroke="black" d="M747.5,-415.5C747.5,-415.5 870.5,-415.5 870.5,-415.5 876.5,-415.5 882.5,-421.5 882.5,-427.5 882.5,-427.5 882.5,-449.5 882.5,-449.5 882.5,-455.5 876.5,-461.5 870.5,-461.5 870.5,-461.5 747.5,-461.5 747.5,-461.5 741.5,-461.5 735.5,-455.5 735.5,-449.5 735.5,-449.5 735.5,-427.5 735.5,-427.5 735.5,-421.5 741.5,-415.5 747.5,-415.5"/>
<text text-anchor="middle" x="753" y="-446.3" font-family="Times,serif" font-size="14.00">14</text>
<polyline fill="none" stroke="black" points="770.5,-438.5 770.5,-461.5 "/>
<text text-anchor="middle" x="789.5" y="-446.3" font-family="Times,serif" font-size="14.00">OP</text>
<polyline fill="none" stroke="black" points="808.5,-438.5 808.5,-461.5 "/>
<text text-anchor="middle" x="845.5" y="-446.3" font-family="Times,serif" font-size="14.00">size=21</text>
<polyline fill="none" stroke="black" points="735.5,-438.5 882.5,-438.5 "/>
<text text-anchor="middle" x="809" y="-423.3" font-family="Times,serif" font-size="14.00">^</text>
</g>
<!-- node4&#45;&gt;node14 -->
<g id="edge26" class="edge">
<title>node4&#45;&gt;node14</title>
<path fill="none" stroke="green" d="M587.37,-498.46C587.91,-498.31 588.46,-498.15 589,-498 633.87,-485.31 684.18,-471.35 725.41,-460.25"/>
<polygon fill="green" stroke="green" points="726.4,-463.61 735.15,-457.64 724.58,-456.85 726.4,-463.61"/>
</g>
<!-- node5&#45;&gt;node4 -->
<g id="edge9" class="edge">
<title>node5&#45;&gt;node4</title>
<path fill="none" stroke="blue" d="M404.67,-461.61C425.95,-471.56 450.45,-483.39 471.41,-493.83"/>
<polygon fill="blue" stroke="blue" points="469.95,-497.02 480.46,-498.37 473.08,-490.76 469.95,-497.02"/>
</g>
<!-- node6 -->
<g id="node6" class="node">
<title>node6</title>
<path fill="peachpuff" stroke="black" d="M65.5,-332.5C65.5,-332.5 170.5,-332.5 170.5,-332.5 176.5,-332.5 182.5,-338.5 182.5,-344.5 182.5,-344.5 182.5,-366.5 182.5,-366.5 182.5,-372.5 176.5,-378.5 170.5,-378.5 170.5,-378.5 65.5,-378.5 65.5,-378.5 59.5,-378.5 53.5,-372.5 53.5,-366.5 53.5,-366.5 53.5,-344.5 53.5,-344.5 53.5,-338.5 59.5,-332.5 65.5,-332.5"/>
<text text-anchor="middle" x="66.5" y="-363.3" font-family="Times,serif" font-size="14.00">6</text>
<polyline fill="none" stroke="black" points="79.5,-355.5 79.5,-378.5 "/>
<text text-anchor="middle" x="98.5" y="-363.3" font-family="Times,serif" font-size="14.00">OP</text>
<polyline fill="none" stroke="black" points="117.5,-355.5 117.5,-378.5 "/>
<text text-anchor="middle" x="150" y="-363.3" font-family="Times,serif" font-size="14.00">size=2</text>
<polyline fill="none" stroke="black" points="53.5,-355.5 182.5,-355.5 "/>
<text text-anchor="middle" x="118" y="-340.3" font-family="Times,serif" font-size="14.00">cos</text>
</g>
<!-- node5&#45;&gt;node6 -->
<g id="edge10" class="edge">
<title>node5&#45;&gt;node6</title>
<path fill="none" stroke="red" d="M288.37,-417.27C256.51,-406.61 218.14,-393.43 185.85,-382.07"/>
<polygon fill="red" stroke="red" points="186.64,-378.63 176.04,-378.61 184.31,-385.23 186.64,-378.63"/>
</g>
<!-- node8 -->
<g id="node8" class="node">
<title>node8</title>
<path fill="peachpuff" stroke="black" d="M300.5,-332.5C300.5,-332.5 405.5,-332.5 405.5,-332.5 411.5,-332.5 417.5,-338.5 417.5,-344.5 417.5,-344.5 417.5,-366.5 417.5,-366.5 417.5,-372.5 411.5,-378.5 405.5,-378.5 405.5,-378.5 300.5,-378.5 300.5,-378.5 294.5,-378.5 288.5,-372.5 288.5,-366.5 288.5,-366.5 288.5,-344.5 288.5,-344.5 288.5,-338.5 294.5,-332.5 300.5,-332.5"/>
<text text-anchor="middle" x="301.5" y="-363.3" font-family="Times,serif" font-size="14.00">8</text>
<polyline fill="none" stroke="black" points="314.5,-355.5 314.5,-378.5 "/>
<text text-anchor="middle" x="333.5" y="-363.3" font-family="Times,serif" font-size="14.00">OP</text>
<polyline fill="none" stroke="black" points="352.5,-355.5 352.5,-378.5 "/>
<text text-anchor="middle" x="385" y="-363.3" font-family="Times,serif" font-size="14.00">size=6</text>
<polyline fill="none" stroke="black" points="288.5,-355.5 417.5,-355.5 "/>
<text text-anchor="middle" x="353" y="-340.3" font-family="Times,serif" font-size="14.00">log</text>
</g>
<!-- node5&#45;&gt;node8 -->
<g id="edge14" class="edge">
<title>node5&#45;&gt;node8</title>
<path fill="none" stroke="green" d="M346.91,-415.37C346.28,-407.15 346.1,-397.66 346.38,-388.73"/>
<polygon fill="green" stroke="green" points="349.88,-388.78 346.91,-378.61 342.89,-388.41 349.88,-388.78"/>
</g>
<!-- node6&#45;&gt;node5 -->
<g id="edge11" class="edge">
<title>node6&#45;&gt;node5</title>
<path fill="none" stroke="blue" d="M182.59,-376.72C214.52,-387.4 253.02,-400.62 285.35,-412.01"/>
<polygon fill="blue" stroke="blue" points="284.58,-415.44 295.18,-415.47 286.91,-408.84 284.58,-415.44"/>
</g>
<!-- node7 -->
<g id="node7" class="node">
<title>node7</title>
<path fill="pink" stroke="black" d="M12,-249.5C12,-249.5 134,-249.5 134,-249.5 140,-249.5 146,-255.5 146,-261.5 146,-261.5 146,-283.5 146,-283.5 146,-289.5 140,-295.5 134,-295.5 134,-295.5 12,-295.5 12,-295.5 6,-295.5 0,-289.5 0,-283.5 0,-283.5 0,-261.5 0,-261.5 0,-255.5 6,-249.5 12,-249.5"/>
<text text-anchor="middle" x="13" y="-280.3" font-family="Times,serif" font-size="14.00">7</text>
<polyline fill="none" stroke="black" points="26,-272.5 26,-295.5 "/>
<text text-anchor="middle" x="53.5" y="-280.3" font-family="Times,serif" font-size="14.00">NUM</text>
<polyline fill="none" stroke="black" points="81,-272.5 81,-295.5 "/>
<text text-anchor="middle" x="113.5" y="-280.3" font-family="Times,serif" font-size="14.00">size=1</text>
<polyline fill="none" stroke="black" points="0,-272.5 146,-272.5 "/>
<text text-anchor="middle" x="73" y="-257.3" font-family="Times,serif" font-size="14.00">25</text>
</g>
<!-- node6&#45;&gt;node7 -->
<g id="edge12" class="edge">
<title>node6&#45;&gt;node7</title>
<path fill="none" stroke="red" d="M99.61,-332.37C94.19,-323.79 88.49,-313.83 83.67,-304.56"/>
<polygon fill="red" stroke="red" points="86.8,-302.98 79.19,-295.61 80.54,-306.12 86.8,-302.98"/>
</g>
<!-- node7&#45;&gt;node6 -->
<g id="edge13" class="edge">
<title>node7&#45;&gt;node6</title>
<path fill="none" stroke="blue" d="M91.37,-295.61C96.79,-304.18 102.49,-314.14 107.31,-323.41"/>
<polygon fill="blue" stroke="blue" points="104.19,-324.99 111.79,-332.37 110.45,-321.86 104.19,-324.99"/>
</g>
<!-- node8&#45;&gt;node5 -->
<g id="edge15" class="edge">
<title>node8&#45;&gt;node5</title>
<path fill="none" stroke="blue" d="M359.09,-378.61C359.72,-386.82 359.9,-396.31 359.62,-405.25"/>
<polygon fill="blue" stroke="blue" points="356.12,-405.2 359.09,-415.37 363.11,-405.56 356.12,-405.2"/>
</g>
<!-- node9 -->
<g id="node9" class="node">
<title>node9</title>
<path fill="pink" stroke="black" d="M176,-249.5C176,-249.5 298,-249.5 298,-249.5 304,-249.5 310,-255.5 310,-261.5 310,-261.5 310,-283.5 310,-283.5 310,-289.5 304,-295.5 298,-295.5 298,-295.5 176,-295.5 176,-295.5 170,-295.5 164,-289.5 164,-283.5 164,-283.5 164,-261.5 164,-261.5 164,-255.5 170,-249.5 176,-249.5"/>
<text text-anchor="middle" x="177" y="-280.3" font-family="Times,serif" font-size="14.00">9</text>
<polyline fill="none" stroke="black" points="190,-272.5 190,-295.5 "/>
<text text-anchor="middle" x="217.5" y="-280.3" font-family="Times,serif" font-size="14.00">NUM</text>
<polyline fill="none" stroke="black" points="245,-272.5 245,-295.5 "/>
<text text-anchor="middle" x="277.5" y="-280.3" font-family="Times,serif" font-size="14.00">size=1</text>
<polyline fill="none" stroke="black" points="164,-272.5 310,-272.5 "/>
<text text-anchor="middle" x="237" y="-257.3" font-family="Times,serif" font-size="14.00">10</text>
</g>
<!-- node8&#45;&gt;node9 -->
<g id="edge16" class="edge">
<title>node8&#45;&gt;node9</title>
<path fill="none" stroke="red" d="M315.21,-332.37C300.93,-322.9 284.82,-311.74 270.91,-301.69"/>
<polygon fill="red" stroke="red" points="272.71,-298.67 262.57,-295.61 268.58,-304.33 272.71,-298.67"/>
</g>
<!-- node10 -->
<g id="node10" class="node">
<title>node10</title>
<path fill="peachpuff" stroke="black" d="M340,-249.5C340,-249.5 454,-249.5 454,-249.5 460,-249.5 466,-255.5 466,-261.5 466,-261.5 466,-283.5 466,-283.5 466,-289.5 460,-295.5 454,-295.5 454,-295.5 340,-295.5 340,-295.5 334,-295.5 328,-289.5 328,-283.5 328,-283.5 328,-261.5 328,-261.5 328,-255.5 334,-249.5 340,-249.5"/>
<text text-anchor="middle" x="345.5" y="-280.3" font-family="Times,serif" font-size="14.00">10</text>
<polyline fill="none" stroke="black" points="363,-272.5 363,-295.5 "/>
<text text-anchor="middle" x="382" y="-280.3" font-family="Times,serif" font-size="14.00">OP</text>
<polyline fill="none" stroke="black" points="401,-272.5 401,-295.5 "/>
<text text-anchor="middle" x="433.5" y="-280.3" font-family="Times,serif" font-size="14.00">size=4</text>
<polyline fill="none" stroke="black" points="328,-272.5 466,-272.5 "/>
<text text-anchor="middle" x="397" y="-257.3" font-family="Times,serif" font-size="14.00">*</text>
</g>
<!-- node8&#45;&gt;node10 -->
<g id="edge18" class="edge">
<title>node8&#45;&gt;node10</title>
<path fill="none" stroke="green" d="M358.93,-332.37C362.97,-323.71 368.29,-313.62 373.71,-304.27"/>
<polygon fill="green" stroke="green" points="376.76,-305.98 378.9,-295.61 370.76,-302.39 376.76,-305.98"/>
</g>
<!-- node9&#45;&gt;node8 -->
<g id="edge17" class="edge">
<title>node9&#45;&gt;node8</title>
<path fill="none" stroke="blue" d="M274.75,-295.61C289.03,-305.07 305.14,-316.23 319.05,-326.28"/>
<polygon fill="blue" stroke="blue" points="317.25,-329.3 327.39,-332.37 321.38,-323.64 317.25,-329.3"/>
</g>
<!-- node10&#45;&gt;node8 -->
<g id="edge19" class="edge">
<title>node10&#45;&gt;node8</title>
<path fill="none" stroke="blue" d="M391.08,-295.61C387.04,-304.27 381.73,-314.35 376.31,-323.7"/>
<polygon fill="blue" stroke="blue" points="373.25,-321.99 371.11,-332.37 379.26,-325.59 373.25,-321.99"/>
</g>
<!-- node11 -->
<g id="node11" class="node">
<title>node11</title>
<path fill="pink" stroke="black" d="M166.5,-166.5C166.5,-166.5 297.5,-166.5 297.5,-166.5 303.5,-166.5 309.5,-172.5 309.5,-178.5 309.5,-178.5 309.5,-200.5 309.5,-200.5 309.5,-206.5 303.5,-212.5 297.5,-212.5 297.5,-212.5 166.5,-212.5 166.5,-212.5 160.5,-212.5 154.5,-206.5 154.5,-200.5 154.5,-200.5 154.5,-178.5 154.5,-178.5 154.5,-172.5 160.5,-166.5 166.5,-166.5"/>
<text text-anchor="middle" x="172" y="-197.3" font-family="Times,serif" font-size="14.00">11</text>
<polyline fill="none" stroke="black" points="189.5,-189.5 189.5,-212.5 "/>
<text text-anchor="middle" x="217" y="-197.3" font-family="Times,serif" font-size="14.00">NUM</text>
<polyline fill="none" stroke="black" points="244.5,-189.5 244.5,-212.5 "/>
<text text-anchor="middle" x="277" y="-197.3" font-family="Times,serif" font-size="14.00">size=1</text>
<polyline fill="none" stroke="black" points="154.5,-189.5 309.5,-189.5 "/>
<text text-anchor="middle" x="232" y="-174.3" font-family="Times,serif" font-size="14.00">2</text>
</g>
<!-- node10&#45;&gt;node11 -->
<g id="edge20" class="edge">
<title>node10&#45;&gt;node11</title>
<path fill="none" stroke="red" d="M345.82,-249.37C324.78,-239.41 300.57,-227.58 279.88,-217.14"/>
<polygon fill="red" stroke="red" points="281.45,-214.01 270.94,-212.61 278.28,-220.25 281.45,-214.01"/>
</g>
<!-- node12 -->
<g id="node12" class="node">
<title>node12</title>
<path fill="peachpuff" stroke="black" d="M340,-166.5C340,-166.5 454,-166.5 454,-166.5 460,-166.5 466,-172.5 466,-178.5 466,-178.5 466,-200.5 466,-200.5 466,-206.5 460,-212.5 454,-212.5 454,-212.5 340,-212.5 340,-212.5 334,-212.5 328,-206.5 328,-200.5 328,-200.5 328,-178.5 328,-178.5 328,-172.5 334,-166.5 340,-166.5"/>
<text text-anchor="middle" x="345.5" y="-197.3" font-family="Times,serif" font-size="14.00">12</text>
<polyline fill="none" stroke="black" points="363,-189.5 363,-212.5 "/>
<text text-anchor="middle" x="382" y="-197.3" font-family="Times,serif" font-size="14.00">OP</text>
<polyline fill="none" stroke="black" points="401,-189.5 401,-212.5 "/>
<text text-anchor="middle" x="433.5" y="-197.3" font-family="Times,serif" font-size="14.00">size=2</text>
<polyline fill="none" stroke="black" points="328,-189.5 466,-189.5 "/>
<text text-anchor="middle" x="397" y="-174.3" font-family="Times,serif" font-size="14.00">arccos</text>
</g>
<!-- node10&#45;&gt;node12 -->
<g id="edge22" class="edge">
<title>node10&#45;&gt;node12</title>
<path fill="none" stroke="green" d="M390.91,-249.37C390.28,-241.15 390.1,-231.66 390.38,-222.73"/>
<polygon fill="green" stroke="green" points="393.88,-222.78 390.91,-212.61 386.89,-222.41 393.88,-222.78"/>
</g>
<!-- node11&#45;&gt;node10 -->
<g id="edge21" class="edge">
<title>node11&#45;&gt;node10</title>
<path fill="none" stroke="blue" d="M283.12,-212.61C304.16,-222.56 328.37,-234.39 349.07,-244.83"/>
<polygon fill="blue" stroke="blue" points="347.5,-247.96 358,-249.37 350.67,-241.72 347.5,-247.96"/>
</g>
<!-- node12&#45;&gt;node10 -->
<g id="edge23" class="edge">
<title>node12&#45;&gt;node10</title>
<path fill="none" stroke="blue" d="M403.09,-212.61C403.72,-220.82 403.9,-230.31 403.62,-239.25"/>
<polygon fill="blue" stroke="blue" points="400.12,-239.2 403.09,-249.37 407.11,-239.56 400.12,-239.2"/>
</g>
<!-- node13 -->
<g id="node13" class="node">
<title>node13</title>
<path fill="lightyellow" stroke="black" d="M335,-83.5C335,-83.5 457,-83.5 457,-83.5 463,-83.5 469,-89.5 469,-95.5 469,-95.5 469,-117.5 469,-117.5 469,-123.5 463,-129.5 457,-129.5 457,-129.5 335,-129.5 335,-129.5 329,-129.5 323,-123.5 323,-117.5 323,-117.5 323,-95.5 323,-95.5 323,-89.5 329,-83.5 335,-83.5"/>
<text text-anchor="middle" x="340.5" y="-114.3" font-family="Times,serif" font-size="14.00">13</text>
<polyline fill="none" stroke="black" points="358,-106.5 358,-129.5 "/>
<text text-anchor="middle" x="381" y="-114.3" font-family="Times,serif" font-size="14.00">VAR</text>
<polyline fill="none" stroke="black" points="404,-106.5 404,-129.5 "/>
<text text-anchor="middle" x="436.5" y="-114.3" font-family="Times,serif" font-size="14.00">size=1</text>
<polyline fill="none" stroke="black" points="323,-106.5 469,-106.5 "/>
<text text-anchor="middle" x="396" y="-91.3" font-family="Times,serif" font-size="14.00">x</text>
</g>
<!-- node12&#45;&gt;node13 -->
<g id="edge24" class="edge">
<title>node12&#45;&gt;node13</title>
<path fill="none" stroke="red" d="M390.64,-166.37C389.9,-158.15 389.61,-148.66 389.77,-139.73"/>
<polygon fill="red" stroke="red" points="393.28,-139.74 390.18,-129.61 386.28,-139.46 393.28,-139.74"/>
</g>
<!-- node13&#45;&gt;node12 -->
<g id="edge25" class="edge">
<title>node13&#45;&gt;node12</title>
<path fill="none" stroke="blue" d="M402.36,-129.61C403.1,-137.82 403.39,-147.31 403.23,-156.25"/>
<polygon fill="blue" stroke="blue" points="399.72,-156.23 402.82,-166.37 406.72,-156.52 399.72,-156.23"/>
</g>
<!-- node14&#45;&gt;node4 -->
<g id="edge27" class="edge">
<title>node14&#45;&gt;node4</title>
<path fill="none" stroke="blue" d="M736.91,-461.53C698.36,-472.41 650.16,-485.79 607,-498 604.42,-498.73 601.79,-499.48 599.13,-500.23"/>
<polygon fill="blue" stroke="blue" points="598.07,-496.89 589.41,-503 599.99,-503.63 598.07,-496.89"/>
</g>
<!-- node15 -->
<g id="node15" class="node">
<title>node15</title>
<path fill="peachpuff" stroke="black" d="M752,-332.5C752,-332.5 866,-332.5 866,-332.5 872,-332.5 878,-338.5 878,-344.5 878,-344.5 878,-366.5 878,-366.5 878,-372.5 872,-378.5 866,-378.5 866,-378.5 752,-378.5 752,-378.5 746,-378.5 740,-372.5 740,-366.5 740,-366.5 740,-344.5 740,-344.5 740,-338.5 746,-332.5 752,-332.5"/>
<text text-anchor="middle" x="757.5" y="-363.3" font-family="Times,serif" font-size="14.00">15</text>
<polyline fill="none" stroke="black" points="775,-355.5 775,-378.5 "/>
<text text-anchor="middle" x="794" y="-363.3" font-family="Times,serif" font-size="14.00">OP</text>
<polyline fill="none" stroke="black" points="813,-355.5 813,-378.5 "/>
<text text-anchor="middle" x="845.5" y="-363.3" font-family="Times,serif" font-size="14.00">size=9</text>
<polyline fill="none" stroke="black" points="740,-355.5 878,-355.5 "/>
<text text-anchor="middle" x="809" y="-340.3" font-family="Times,serif" font-size="14.00">+</text>
</g>
<!-- node14&#45;&gt;node15 -->
<g id="edge28" class="edge">
<title>node14&#45;&gt;node15</title>
<path fill="none" stroke="red" d="M802.91,-415.37C802.28,-407.15 802.1,-397.66 802.38,-388.73"/>
<polygon fill="red" stroke="red" points="805.88,-388.78 802.91,-378.61 798.89,-388.41 805.88,-388.78"/>
</g>
<!-- node24 -->
<g id="node24" class="node">
<title>node24</title>
<path fill="peachpuff" stroke="black" d="M997.5,-332.5C997.5,-332.5 1120.5,-332.5 1120.5,-332.5 1126.5,-332.5 1132.5,-338.5 1132.5,-344.5 1132.5,-344.5 1132.5,-366.5 1132.5,-366.5 1132.5,-372.5 1126.5,-378.5 1120.5,-378.5 1120.5,-378.5 997.5,-378.5 997.5,-378.5 991.5,-378.5 985.5,-372.5 985.5,-366.5 985.5,-366.5 985.5,-344.5 985.5,-344.5 985.5,-338.5 991.5,-332.5 997.5,-332.5"/>
<text text-anchor="middle" x="1003" y="-363.3" font-family="Times,serif" font-size="14.00">24</text>
<polyline fill="none" stroke="black" points="1020.5,-355.5 1020.5,-378.5 "/>
<text text-anchor="middle" x="1039.5" y="-363.3" font-family="Times,serif" font-size="14.00">OP</text>
<polyline fill="none" stroke="black" points="1058.5,-355.5 1058.5,-378.5 "/>
<text text-anchor="middle" x="1095.5" y="-363.3" font-family="Times,serif" font-size="14.00">size=11</text>
<polyline fill="none" stroke="black" points="985.5,-355.5 1132.5,-355.5 "/>
<text text-anchor="middle" x="1059" y="-340.3" font-family="Times,serif" font-size="14.00">^</text>
</g>
<!-- node14&#45;&gt;node24 -->
<g id="edge46" class="edge">
<title>node14&#45;&gt;node24</title>
<path fill="none" stroke="green" d="M870.9,-415.47C902.46,-404.98 941.26,-392.39 975.42,-381.54"/>
<polygon fill="green" stroke="green" points="976.92,-384.74 985.39,-378.38 974.8,-378.07 976.92,-384.74"/>
</g>
<!-- node15&#45;&gt;node14 -->
<g id="edge29" class="edge">
<title>node15&#45;&gt;node14</title>
<path fill="none" stroke="blue" d="M815.09,-378.61C815.72,-386.82 815.9,-396.31 815.62,-405.25"/>
<polygon fill="blue" stroke="blue" points="812.12,-405.2 815.09,-415.37 819.11,-405.56 812.12,-405.2"/>
</g>
<!-- node16 -->
<g id="node16" class="node">
<title>node16</title>
<path fill="peachpuff" stroke="black" d="M670,-249.5C670,-249.5 784,-249.5 784,-249.5 790,-249.5 796,-255.5 796,-261.5 796,-261.5 796,-283.5 796,-283.5 796,-289.5 790,-295.5 784,-295.5 784,-295.5 670,-295.5 670,-295.5 664,-295.5 658,-289.5 658,-283.5 658,-283.5 658,-261.5 658,-261.5 658,-255.5 664,-249.5 670,-249.5"/>
<text text-anchor="middle" x="675.5" y="-280.3" font-family="Times,serif" font-size="14.00">16</text>
<polyline fill="none" stroke="black" points="693,-272.5 693,-295.5 "/>
<text text-anchor="middle" x="712" y="-280.3" font-family="Times,serif" font-size="14.00">OP</text>
<polyline fill="none" stroke="black" points="731,-272.5 731,-295.5 "/>
<text text-anchor="middle" x="763.5" y="-280.3" font-family="Times,serif" font-size="14.00">size=7</text>
<polyline fill="none" stroke="black" points="658,-272.5 796,-272.5 "/>
<text text-anchor="middle" x="727" y="-257.3" font-family="Times,serif" font-size="14.00">*</text>
</g>
<!-- node15&#45;&gt;node16 -->
<g id="edge30" class="edge">
<title>node15&#45;&gt;node16</title>
<path fill="none" stroke="red" d="M780.5,-332.37C770.68,-323.35 759.84,-312.79 750.46,-303.12"/>
<polygon fill="red" stroke="red" points="752.73,-300.43 743.29,-295.61 747.66,-305.26 752.73,-300.43"/>
</g>
<!-- node23 -->
<g id="node23" class="node">
<title>node23</title>
<path fill="pink" stroke="black" d="M826.5,-249.5C826.5,-249.5 957.5,-249.5 957.5,-249.5 963.5,-249.5 969.5,-255.5 969.5,-261.5 969.5,-261.5 969.5,-283.5 969.5,-283.5 969.5,-289.5 963.5,-295.5 957.5,-295.5 957.5,-295.5 826.5,-295.5 826.5,-295.5 820.5,-295.5 814.5,-289.5 814.5,-283.5 814.5,-283.5 814.5,-261.5 814.5,-261.5 814.5,-255.5 820.5,-249.5 826.5,-249.5"/>
<text text-anchor="middle" x="832" y="-280.3" font-family="Times,serif" font-size="14.00">23</text>
<polyline fill="none" stroke="black" points="849.5,-272.5 849.5,-295.5 "/>
<text text-anchor="middle" x="877" y="-280.3" font-family="Times,serif" font-size="14.00">NUM</text>
<polyline fill="none" stroke="black" points="904.5,-272.5 904.5,-295.5 "/>
<text text-anchor="middle" x="937" y="-280.3" font-family="Times,serif" font-size="14.00">size=1</text>
<polyline fill="none" stroke="black" points="814.5,-272.5 969.5,-272.5 "/>
<text text-anchor="middle" x="892" y="-257.3" font-family="Times,serif" font-size="14.00">1</text>
</g>
<!-- node15&#45;&gt;node23 -->
<g id="edge44" class="edge">
<title>node15&#45;&gt;node23</title>
<path fill="none" stroke="green" d="M825.59,-332.37C834.31,-323.17 845.23,-312.37 855.73,-302.55"/>
<polygon fill="green" stroke="green" points="858.28,-304.96 863.26,-295.61 853.53,-299.81 858.28,-304.96"/>
</g>
<!-- node16&#45;&gt;node15 -->
<g id="edge31" class="edge">
<title>node16&#45;&gt;node15</title>
<path fill="none" stroke="blue" d="M755.47,-295.61C765.29,-304.62 776.13,-315.18 785.51,-324.85"/>
<polygon fill="blue" stroke="blue" points="783.25,-327.55 792.68,-332.37 788.31,-322.71 783.25,-327.55"/>
</g>
<!-- node17 -->
<g id="node17" class="node">
<title>node17</title>
<path fill="pink" stroke="black" d="M497.5,-166.5C497.5,-166.5 628.5,-166.5 628.5,-166.5 634.5,-166.5 640.5,-172.5 640.5,-178.5 640.5,-178.5 640.5,-200.5 640.5,-200.5 640.5,-206.5 634.5,-212.5 628.5,-212.5 628.5,-212.5 497.5,-212.5 497.5,-212.5 491.5,-212.5 485.5,-206.5 485.5,-200.5 485.5,-200.5 485.5,-178.5 485.5,-178.5 485.5,-172.5 491.5,-166.5 497.5,-166.5"/>
<text text-anchor="middle" x="503" y="-197.3" font-family="Times,serif" font-size="14.00">17</text>
<polyline fill="none" stroke="black" points="520.5,-189.5 520.5,-212.5 "/>
<text text-anchor="middle" x="548" y="-197.3" font-family="Times,serif" font-size="14.00">NUM</text>
<polyline fill="none" stroke="black" points="575.5,-189.5 575.5,-212.5 "/>
<text text-anchor="middle" x="608" y="-197.3" font-family="Times,serif" font-size="14.00">size=1</text>
<polyline fill="none" stroke="black" points="485.5,-189.5 640.5,-189.5 "/>
<text text-anchor="middle" x="563" y="-174.3" font-family="Times,serif" font-size="14.00">3</text>
</g>
<!-- node16&#45;&gt;node17 -->
<g id="edge32" class="edge">
<title>node16&#45;&gt;node17</title>
<path fill="none" stroke="red" d="M676.1,-249.37C655.27,-239.46 631.33,-227.68 610.83,-217.28"/>
<polygon fill="red" stroke="red" points="612.17,-214.03 601.67,-212.61 608.99,-220.27 612.17,-214.03"/>
</g>
<!-- node18 -->
<g id="node18" class="node">
<title>node18</title>
<path fill="peachpuff" stroke="black" d="M671,-166.5C671,-166.5 785,-166.5 785,-166.5 791,-166.5 797,-172.5 797,-178.5 797,-178.5 797,-200.5 797,-200.5 797,-206.5 791,-212.5 785,-212.5 785,-212.5 671,-212.5 671,-212.5 665,-212.5 659,-206.5 659,-200.5 659,-200.5 659,-178.5 659,-178.5 659,-172.5 665,-166.5 671,-166.5"/>
<text text-anchor="middle" x="676.5" y="-197.3" font-family="Times,serif" font-size="14.00">18</text>
<polyline fill="none" stroke="black" points="694,-189.5 694,-212.5 "/>
<text text-anchor="middle" x="713" y="-197.3" font-family="Times,serif" font-size="14.00">OP</text>
<polyline fill="none" stroke="black" points="732,-189.5 732,-212.5 "/>
<text text-anchor="middle" x="764.5" y="-197.3" font-family="Times,serif" font-size="14.00">size=5</text>
<polyline fill="none" stroke="black" points="659,-189.5 797,-189.5 "/>
<text text-anchor="middle" x="728" y="-174.3" font-family="Times,serif" font-size="14.00">&#45;</text>
</g>
<!-- node16&#45;&gt;node18 -->
<g id="edge34" class="edge">
<title>node16&#45;&gt;node18</title>
<path fill="none" stroke="green" d="M721.18,-249.37C720.65,-241.15 720.59,-231.66 720.98,-222.73"/>
<polygon fill="green" stroke="green" points="724.48,-222.81 721.64,-212.61 717.5,-222.36 724.48,-222.81"/>
</g>
<!-- node17&#45;&gt;node16 -->
<g id="edge33" class="edge">
<title>node17&#45;&gt;node16</title>
<path fill="none" stroke="blue" d="M613.85,-212.61C634.67,-222.51 658.61,-234.29 679.12,-244.69"/>
<polygon fill="blue" stroke="blue" points="677.78,-247.94 688.28,-249.37 680.96,-241.7 677.78,-247.94"/>
</g>
<!-- node18&#45;&gt;node16 -->
<g id="edge35" class="edge">
<title>node18&#45;&gt;node16</title>
<path fill="none" stroke="blue" d="M733.82,-212.61C734.35,-220.82 734.41,-230.31 734.02,-239.25"/>
<polygon fill="blue" stroke="blue" points="730.52,-239.16 733.36,-249.37 737.51,-239.61 730.52,-239.16"/>
</g>
<!-- node19 -->
<g id="node19" class="node">
<title>node19</title>
<path fill="pink" stroke="black" d="M499.5,-83.5C499.5,-83.5 630.5,-83.5 630.5,-83.5 636.5,-83.5 642.5,-89.5 642.5,-95.5 642.5,-95.5 642.5,-117.5 642.5,-117.5 642.5,-123.5 636.5,-129.5 630.5,-129.5 630.5,-129.5 499.5,-129.5 499.5,-129.5 493.5,-129.5 487.5,-123.5 487.5,-117.5 487.5,-117.5 487.5,-95.5 487.5,-95.5 487.5,-89.5 493.5,-83.5 499.5,-83.5"/>
<text text-anchor="middle" x="505" y="-114.3" font-family="Times,serif" font-size="14.00">19</text>
<polyline fill="none" stroke="black" points="522.5,-106.5 522.5,-129.5 "/>
<text text-anchor="middle" x="550" y="-114.3" font-family="Times,serif" font-size="14.00">NUM</text>
<polyline fill="none" stroke="black" points="577.5,-106.5 577.5,-129.5 "/>
<text text-anchor="middle" x="610" y="-114.3" font-family="Times,serif" font-size="14.00">size=1</text>
<polyline fill="none" stroke="black" points="487.5,-106.5 642.5,-106.5 "/>
<text text-anchor="middle" x="565" y="-91.3" font-family="Times,serif" font-size="14.00">2,5</text>
</g>
<!-- node18&#45;&gt;node19 -->
<g id="edge36" class="edge">
<title>node18&#45;&gt;node19</title>
<path fill="none" stroke="red" d="M677.37,-166.37C656.66,-156.46 632.87,-144.68 612.49,-134.28"/>
<polygon fill="red" stroke="red" points="613.89,-131.06 603.4,-129.61 610.69,-137.29 613.89,-131.06"/>
</g>
<!-- node20 -->
<g id="node20" class="node">
<title>node20</title>
<path fill="peachpuff" stroke="black" d="M673,-83.5C673,-83.5 787,-83.5 787,-83.5 793,-83.5 799,-89.5 799,-95.5 799,-95.5 799,-117.5 799,-117.5 799,-123.5 793,-129.5 787,-129.5 787,-129.5 673,-129.5 673,-129.5 667,-129.5 661,-123.5 661,-117.5 661,-117.5 661,-95.5 661,-95.5 661,-89.5 667,-83.5 673,-83.5"/>
<text text-anchor="middle" x="678.5" y="-114.3" font-family="Times,serif" font-size="14.00">20</text>
<polyline fill="none" stroke="black" points="696,-106.5 696,-129.5 "/>
<text text-anchor="middle" x="715" y="-114.3" font-family="Times,serif" font-size="14.00">OP</text>
<polyline fill="none" stroke="black" points="734,-106.5 734,-129.5 "/>
<text text-anchor="middle" x="766.5" y="-114.3" font-family="Times,serif" font-size="14.00">size=3</text>
<polyline fill="none" stroke="black" points="661,-106.5 799,-106.5 "/>
<text text-anchor="middle" x="730" y="-91.3" font-family="Times,serif" font-size="14.00">/</text>
</g>
<!-- node18&#45;&gt;node20 -->
<g id="edge38" class="edge">
<title>node18&#45;&gt;node20</title>
<path fill="none" stroke="green" d="M722.46,-166.37C722.03,-158.15 722.08,-148.66 722.58,-139.73"/>
<polygon fill="green" stroke="green" points="726.08,-139.85 723.37,-129.61 719.1,-139.31 726.08,-139.85"/>
</g>
<!-- node19&#45;&gt;node18 -->
<g id="edge37" class="edge">
<title>node19&#45;&gt;node18</title>
<path fill="none" stroke="blue" d="M615.58,-129.61C636.28,-139.51 660.07,-151.29 680.45,-161.69"/>
<polygon fill="blue" stroke="blue" points="679.06,-164.91 689.55,-166.37 682.25,-158.68 679.06,-164.91"/>
</g>
<!-- node20&#45;&gt;node18 -->
<g id="edge39" class="edge">
<title>node20&#45;&gt;node18</title>
<path fill="none" stroke="blue" d="M735.54,-129.61C735.97,-137.82 735.92,-147.31 735.42,-156.25"/>
<polygon fill="blue" stroke="blue" points="731.92,-156.13 734.64,-166.37 738.9,-156.67 731.92,-156.13"/>
</g>
<!-- node21 -->
<g id="node21" class="node">
<title>node21</title>
<path fill="pink" stroke="black" d="M578.5,-0.5C578.5,-0.5 709.5,-0.5 709.5,-0.5 715.5,-0.5 721.5,-6.5 721.5,-12.5 721.5,-12.5 721.5,-34.5 721.5,-34.5 721.5,-40.5 715.5,-46.5 709.5,-46.5 709.5,-46.5 578.5,-46.5 578.5,-46.5 572.5,-46.5 566.5,-40.5 566.5,-34.5 566.5,-34.5 566.5,-12.5 566.5,-12.5 566.5,-6.5 572.5,-0.5 578.5,-0.5"/>
<text text-anchor="middle" x="584" y="-31.3" font-family="Times,serif" font-size="14.00">21</text>
<polyline fill="none" stroke="black" points="601.5,-23.5 601.5,-46.5 "/>
<text text-anchor="middle" x="629" y="-31.3" font-family="Times,serif" font-size="14.00">NUM</text>
<polyline fill="none" stroke="black" points="656.5,-23.5 656.5,-46.5 "/>
<text text-anchor="middle" x="689" y="-31.3" font-family="Times,serif" font-size="14.00">size=1</text>
<polyline fill="none" stroke="black" points="566.5,-23.5 721.5,-23.5 "/>
<text text-anchor="middle" x="644" y="-8.3" font-family="Times,serif" font-size="14.00">0,1</text>
</g>
<!-- node20&#45;&gt;node21 -->
<g id="edge40" class="edge">
<title>node20&#45;&gt;node21</title>
<path fill="none" stroke="red" d="M700.41,-83.37C690.04,-74.26 678.56,-63.58 668.63,-53.83"/>
<polygon fill="red" stroke="red" points="670.93,-51.19 661.38,-46.61 665.99,-56.15 670.93,-51.19"/>
</g>
<!-- node22 -->
<g id="node22" class="node">
<title>node22</title>
<path fill="pink" stroke="black" d="M751.5,-0.5C751.5,-0.5 882.5,-0.5 882.5,-0.5 888.5,-0.5 894.5,-6.5 894.5,-12.5 894.5,-12.5 894.5,-34.5 894.5,-34.5 894.5,-40.5 888.5,-46.5 882.5,-46.5 882.5,-46.5 751.5,-46.5 751.5,-46.5 745.5,-46.5 739.5,-40.5 739.5,-34.5 739.5,-34.5 739.5,-12.5 739.5,-12.5 739.5,-6.5 745.5,-0.5 751.5,-0.5"/>
<text text-anchor="middle" x="757" y="-31.3" font-family="Times,serif" font-size="14.00">22</text>
<polyline fill="none" stroke="black" points="774.5,-23.5 774.5,-46.5 "/>
<text text-anchor="middle" x="802" y="-31.3" font-family="Times,serif" font-size="14.00">NUM</text>
<polyline fill="none" stroke="black" points="829.5,-23.5 829.5,-46.5 "/>
<text text-anchor="middle" x="862" y="-31.3" font-family="Times,serif" font-size="14.00">size=1</text>
<polyline fill="none" stroke="black" points="739.5,-23.5 894.5,-23.5 "/>
<text text-anchor="middle" x="817" y="-8.3" font-family="Times,serif" font-size="14.00">2</text>
</g>
<!-- node20&#45;&gt;node22 -->
<g id="edge42" class="edge">
<title>node20&#45;&gt;node22</title>
<path fill="none" stroke="green" d="M747.68,-83.37C756.94,-74.08 768.54,-63.16 779.62,-53.26"/>
<polygon fill="green" stroke="green" points="781.98,-55.84 787.17,-46.61 777.35,-50.59 781.98,-55.84"/>
</g>
<!-- node21&#45;&gt;node20 -->
<g id="edge41" class="edge">
<title>node21&#45;&gt;node20</title>
<path fill="none" stroke="blue" d="M673.56,-46.61C683.93,-55.71 695.41,-66.39 705.34,-76.14"/>
<polygon fill="blue" stroke="blue" points="703.04,-78.78 712.59,-83.37 707.98,-73.83 703.04,-78.78"/>
</g>
<!-- node22&#45;&gt;node20 -->
<g id="edge43" class="edge">
<title>node22&#45;&gt;node20</title>
<path fill="none" stroke="blue" d="M799.34,-46.61C790.09,-55.89 778.5,-66.81 767.42,-76.71"/>
<polygon fill="blue" stroke="blue" points="765.05,-74.13 759.86,-83.37 769.68,-79.38 765.05,-74.13"/>
</g>
<!-- node23&#45;&gt;node15 -->
<g id="edge45" class="edge">
<title>node23&#45;&gt;node15</title>
<path fill="none" stroke="blue" d="M875.44,-295.61C866.72,-304.8 855.8,-315.6 845.3,-325.42"/>
<polygon fill="blue" stroke="blue" points="842.75,-323.01 837.77,-332.37 847.5,-328.16 842.75,-323.01"/>
</g>
<!-- node24&#45;&gt;node14 -->
<g id="edge47" class="edge">
<title>node24&#45;&gt;node14</title>
<path fill="none" stroke="blue" d="M996.94,-378.58C965.44,-389.05 926.76,-401.6 892.68,-412.43"/>
<polygon fill="blue" stroke="blue" points="891.2,-409.22 882.73,-415.58 893.32,-415.9 891.2,-409.22"/>
</g>
<!-- node25 -->
<g id="node25" class="node">
<title>node25</title>
<path fill="peachpuff" stroke="black" d="M1002,-249.5C1002,-249.5 1116,-249.5 1116,-249.5 1122,-249.5 1128,-255.5 1128,-261.5 1128,-261.5 1128,-283.5 1128,-283.5 1128,-289.5 1122,-295.5 1116,-295.5 1116,-295.5 1002,-295.5 1002,-295.5 996,-295.5 990,-289.5 990,-283.5 990,-283.5 990,-261.5 990,-261.5 990,-255.5 996,-249.5 1002,-249.5"/>
<text text-anchor="middle" x="1007.5" y="-280.3" font-family="Times,serif" font-size="14.00">25</text>
<polyline fill="none" stroke="black" points="1025,-272.5 1025,-295.5 "/>
<text text-anchor="middle" x="1044" y="-280.3" font-family="Times,serif" font-size="14.00">OP</text>
<polyline fill="none" stroke="black" points="1063,-272.5 1063,-295.5 "/>
<text text-anchor="middle" x="1095.5" y="-280.3" font-family="Times,serif" font-size="14.00">size=5</text>
<polyline fill="none" stroke="black" points="990,-272.5 1128,-272.5 "/>
<text text-anchor="middle" x="1059" y="-257.3" font-family="Times,serif" font-size="14.00">/</text>
</g>
<!-- node24&#45;&gt;node25 -->
<g id="edge48" class="edge">
<title>node24&#45;&gt;node25</title>
<path fill="none" stroke="red" d="M1052.91,-332.37C1052.28,-324.15 1052.1,-314.66 1052.38,-305.73"/>
<polygon fill="red" stroke="red" points="1055.88,-305.78 1052.91,-295.61 1048.89,-305.41 1055.88,-305.78"/>
</g>
<!-- node30 -->
<g id="node30" class="node">
<title>node30</title>
<path fill="peachpuff" stroke="black" d="M1176,-249.5C1176,-249.5 1290,-249.5 1290,-249.5 1296,-249.5 1302,-255.5 1302,-261.5 1302,-261.5 1302,-283.5 1302,-283.5 1302,-289.5 1296,-295.5 1290,-295.5 1290,-295.5 1176,-295.5 1176,-295.5 1170,-295.5 1164,-289.5 1164,-283.5 1164,-283.5 1164,-261.5 1164,-261.5 1164,-255.5 1170,-249.5 1176,-249.5"/>
<text text-anchor="middle" x="1181.5" y="-280.3" font-family="Times,serif" font-size="14.00">30</text>
<polyline fill="none" stroke="black" points="1199,-272.5 1199,-295.5 "/>
<text text-anchor="middle" x="1218" y="-280.3" font-family="Times,serif" font-size="14.00">OP</text>
<polyline fill="none" stroke="black" points="1237,-272.5 1237,-295.5 "/>
<text text-anchor="middle" x="1269.5" y="-280.3" font-family="Times,serif" font-size="14.00">size=5</text>
<polyline fill="none" stroke="black" points="1164,-272.5 1302,-272.5 "/>
<text text-anchor="middle" x="1233" y="-257.3" font-family="Times,serif" font-size="14.00">^</text>
</g>
<!-- node24&#45;&gt;node30 -->
<g id="edge58" class="edge">
<title>node24&#45;&gt;node30</title>
<path fill="none" stroke="green" d="M1100.46,-332.37C1121.26,-322.32 1146.85,-310.36 1170.01,-299.86"/>
<polygon fill="green" stroke="green" points="1171.75,-302.91 1179.42,-295.61 1168.87,-296.53 1171.75,-302.91"/>
</g>
<!-- node25&#45;&gt;node24 -->
<g id="edge49" class="edge">
<title>node25&#45;&gt;node24</title>
<path fill="none" stroke="blue" d="M1065.09,-295.61C1065.72,-303.82 1065.9,-313.31 1065.62,-322.25"/>
<polygon fill="blue" stroke="blue" points="1062.12,-322.2 1065.09,-332.37 1069.11,-322.56 1062.12,-322.2"/>
</g>
<!-- node26 -->
<g id="node26" class="node">
<title>node26</title>
<path fill="peachpuff" stroke="black" d="M838,-166.5C838,-166.5 952,-166.5 952,-166.5 958,-166.5 964,-172.5 964,-178.5 964,-178.5 964,-200.5 964,-200.5 964,-206.5 958,-212.5 952,-212.5 952,-212.5 838,-212.5 838,-212.5 832,-212.5 826,-206.5 826,-200.5 826,-200.5 826,-178.5 826,-178.5 826,-172.5 832,-166.5 838,-166.5"/>
<text text-anchor="middle" x="843.5" y="-197.3" font-family="Times,serif" font-size="14.00">26</text>
<polyline fill="none" stroke="black" points="861,-189.5 861,-212.5 "/>
<text text-anchor="middle" x="880" y="-197.3" font-family="Times,serif" font-size="14.00">OP</text>
<polyline fill="none" stroke="black" points="899,-189.5 899,-212.5 "/>
<text text-anchor="middle" x="931.5" y="-197.3" font-family="Times,serif" font-size="14.00">size=3</text>
<polyline fill="none" stroke="black" points="826,-189.5 964,-189.5 "/>
<text text-anchor="middle" x="895" y="-174.3" font-family="Times,serif" font-size="14.00">*</text>
</g>
<!-- node25&#45;&gt;node26 -->
<g id="edge50" class="edge">
<title>node25&#45;&gt;node26</title>
<path fill="none" stroke="red" d="M1008.1,-249.37C987.27,-239.46 963.33,-227.68 942.83,-217.28"/>
<polygon fill="red" stroke="red" points="944.17,-214.03 933.67,-212.61 940.99,-220.27 944.17,-214.03"/>
</g>
<!-- node29 -->
<g id="node29" class="node">
<title>node29</title>
<path fill="pink" stroke="black" d="M994.5,-166.5C994.5,-166.5 1125.5,-166.5 1125.5,-166.5 1131.5,-166.5 1137.5,-172.5 1137.5,-178.5 1137.5,-178.5 1137.5,-200.5 1137.5,-200.5 1137.5,-206.5 1131.5,-212.5 1125.5,-212.5 1125.5,-212.5 994.5,-212.5 994.5,-212.5 988.5,-212.5 982.5,-206.5 982.5,-200.5 982.5,-200.5 982.5,-178.5 982.5,-178.5 982.5,-172.5 988.5,-166.5 994.5,-166.5"/>
<text text-anchor="middle" x="1000" y="-197.3" font-family="Times,serif" font-size="14.00">29</text>
<polyline fill="none" stroke="black" points="1017.5,-189.5 1017.5,-212.5 "/>
<text text-anchor="middle" x="1045" y="-197.3" font-family="Times,serif" font-size="14.00">NUM</text>
<polyline fill="none" stroke="black" points="1072.5,-189.5 1072.5,-212.5 "/>
<text text-anchor="middle" x="1105" y="-197.3" font-family="Times,serif" font-size="14.00">size=1</text>
<polyline fill="none" stroke="black" points="982.5,-189.5 1137.5,-189.5 "/>
<text text-anchor="middle" x="1060" y="-174.3" font-family="Times,serif" font-size="14.00">7</text>
</g>
<!-- node25&#45;&gt;node29 -->
<g id="edge56" class="edge">
<title>node25&#45;&gt;node29</title>
<path fill="none" stroke="green" d="M1053.18,-249.37C1052.65,-241.15 1052.59,-231.66 1052.98,-222.73"/>
<polygon fill="green" stroke="green" points="1056.48,-222.81 1053.64,-212.61 1049.5,-222.36 1056.48,-222.81"/>
</g>
<!-- node26&#45;&gt;node25 -->
<g id="edge51" class="edge">
<title>node26&#45;&gt;node25</title>
<path fill="none" stroke="blue" d="M945.85,-212.61C966.67,-222.51 990.61,-234.29 1011.12,-244.69"/>
<polygon fill="blue" stroke="blue" points="1009.78,-247.94 1020.28,-249.37 1012.96,-241.7 1009.78,-247.94"/>
</g>
<!-- node27 -->
<g id="node27" class="node">
<title>node27</title>
<path fill="pink" stroke="black" d="M829.5,-83.5C829.5,-83.5 960.5,-83.5 960.5,-83.5 966.5,-83.5 972.5,-89.5 972.5,-95.5 972.5,-95.5 972.5,-117.5 972.5,-117.5 972.5,-123.5 966.5,-129.5 960.5,-129.5 960.5,-129.5 829.5,-129.5 829.5,-129.5 823.5,-129.5 817.5,-123.5 817.5,-117.5 817.5,-117.5 817.5,-95.5 817.5,-95.5 817.5,-89.5 823.5,-83.5 829.5,-83.5"/>
<text text-anchor="middle" x="835" y="-114.3" font-family="Times,serif" font-size="14.00">27</text>
<polyline fill="none" stroke="black" points="852.5,-106.5 852.5,-129.5 "/>
<text text-anchor="middle" x="880" y="-114.3" font-family="Times,serif" font-size="14.00">NUM</text>
<polyline fill="none" stroke="black" points="907.5,-106.5 907.5,-129.5 "/>
<text text-anchor="middle" x="940" y="-114.3" font-family="Times,serif" font-size="14.00">size=1</text>
<polyline fill="none" stroke="black" points="817.5,-106.5 972.5,-106.5 "/>
<text text-anchor="middle" x="895" y="-91.3" font-family="Times,serif" font-size="14.00">2</text>
</g>
<!-- node26&#45;&gt;node27 -->
<g id="edge52" class="edge">
<title>node26&#45;&gt;node27</title>
<path fill="none" stroke="red" d="M888.91,-166.37C888.28,-158.15 888.1,-148.66 888.38,-139.73"/>
<polygon fill="red" stroke="red" points="891.88,-139.78 888.91,-129.61 884.89,-139.41 891.88,-139.78"/>
</g>
<!-- node28 -->
<g id="node28" class="node">
<title>node28</title>
<path fill="pink" stroke="black" d="M1002.5,-83.5C1002.5,-83.5 1133.5,-83.5 1133.5,-83.5 1139.5,-83.5 1145.5,-89.5 1145.5,-95.5 1145.5,-95.5 1145.5,-117.5 1145.5,-117.5 1145.5,-123.5 1139.5,-129.5 1133.5,-129.5 1133.5,-129.5 1002.5,-129.5 1002.5,-129.5 996.5,-129.5 990.5,-123.5 990.5,-117.5 990.5,-117.5 990.5,-95.5 990.5,-95.5 990.5,-89.5 996.5,-83.5 1002.5,-83.5"/>
<text text-anchor="middle" x="1008" y="-114.3" font-family="Times,serif" font-size="14.00">28</text>
<polyline fill="none" stroke="black" points="1025.5,-106.5 1025.5,-129.5 "/>
<text text-anchor="middle" x="1053" y="-114.3" font-family="Times,serif" font-size="14.00">NUM</text>
<polyline fill="none" stroke="black" points="1080.5,-106.5 1080.5,-129.5 "/>
<text text-anchor="middle" x="1113" y="-114.3" font-family="Times,serif" font-size="14.00">size=1</text>
<polyline fill="none" stroke="black" points="990.5,-106.5 1145.5,-106.5 "/>
<text text-anchor="middle" x="1068" y="-91.3" font-family="Times,serif" font-size="14.00">16</text>
</g>
<!-- node26&#45;&gt;node28 -->
<g id="edge54" class="edge">
<title>node26&#45;&gt;node28</title>
<path fill="none" stroke="green" d="M936.18,-166.37C956.86,-156.32 982.31,-144.36 1005.34,-133.86"/>
<polygon fill="green" stroke="green" points="1007.04,-136.93 1014.7,-129.61 1004.14,-130.56 1007.04,-136.93"/>
</g>
<!-- node27&#45;&gt;node26 -->
<g id="edge53" class="edge">
<title>node27&#45;&gt;node26</title>
<path fill="none" stroke="blue" d="M901.09,-129.61C901.72,-137.82 901.9,-147.31 901.62,-156.25"/>
<polygon fill="blue" stroke="blue" points="898.12,-156.2 901.09,-166.37 905.11,-156.56 898.12,-156.2"/>
</g>
<!-- node28&#45;&gt;node26 -->
<g id="edge55" class="edge">
<title>node28&#45;&gt;node26</title>
<path fill="none" stroke="blue" d="M1026.87,-129.61C1006.2,-139.65 980.76,-151.61 957.73,-162.11"/>
<polygon fill="blue" stroke="blue" points="956.02,-159.04 948.36,-166.37 958.92,-165.42 956.02,-159.04"/>
</g>
<!-- node29&#45;&gt;node25 -->
<g id="edge57" class="edge">
<title>node29&#45;&gt;node25</title>
<path fill="none" stroke="blue" d="M1065.82,-212.61C1066.35,-220.82 1066.41,-230.31 1066.02,-239.25"/>
<polygon fill="blue" stroke="blue" points="1062.52,-239.16 1065.36,-249.37 1069.51,-239.61 1062.52,-239.16"/>
</g>
<!-- node30&#45;&gt;node24 -->
<g id="edge59" class="edge">
<title>node30&#45;&gt;node24</title>
<path fill="none" stroke="blue" d="M1191.6,-295.61C1170.8,-305.65 1145.21,-317.61 1122.05,-328.11"/>
<polygon fill="blue" stroke="blue" points="1120.31,-325.06 1112.64,-332.37 1123.19,-331.44 1120.31,-325.06"/>
</g>
<!-- node31 -->
<g id="node31" class="node">
<title>node31</title>
<path fill="pink" stroke="black" d="M1167.5,-166.5C1167.5,-166.5 1298.5,-166.5 1298.5,-166.5 1304.5,-166.5 1310.5,-172.5 1310.5,-178.5 1310.5,-178.5 1310.5,-200.5 1310.5,-200.5 1310.5,-206.5 1304.5,-212.5 1298.5,-212.5 1298.5,-212.5 1167.5,-212.5 1167.5,-212.5 1161.5,-212.5 1155.5,-206.5 1155.5,-200.5 1155.5,-200.5 1155.5,-178.5 1155.5,-178.5 1155.5,-172.5 1161.5,-166.5 1167.5,-166.5"/>
<text text-anchor="middle" x="1173" y="-197.3" font-family="Times,serif" font-size="14.00">31</text>
<polyline fill="none" stroke="black" points="1190.5,-189.5 1190.5,-212.5 "/>
<text text-anchor="middle" x="1218" y="-197.3" font-family="Times,serif" font-size="14.00">NUM</text>
<polyline fill="none" stroke="black" points="1245.5,-189.5 1245.5,-212.5 "/>
<text text-anchor="middle" x="1278" y="-197.3" font-family="Times,serif" font-size="14.00">size=1</text>
<polyline fill="none" stroke="black" points="1155.5,-189.5 1310.5,-189.5 "/>
<text text-anchor="middle" x="1233" y="-174.3" font-family="Times,serif" font-size="14.00">4</text>
</g>
<!-- node30&#45;&gt;node31 -->
<g id="edge60" class="edge">
<title>node30&#45;&gt;node31</title>
<path fill="none" stroke="red" d="M1226.91,-249.37C1226.28,-241.15 1226.1,-231.66 1226.38,-222.73"/>
<polygon fill="red" stroke="red" points="1229.88,-222.78 1226.91,-212.61 1222.89,-222.41 1229.88,-222.78"/>
</g>
<!-- node32 -->
<g id="node32" class="node">
<title>node32</title>
<path fill="peachpuff" stroke="black" d="M1341,-166.5C1341,-166.5 1455,-166.5 1455,-166.5 1461,-166.5 1467,-172.5 1467,-178.5 1467,-178.5 1467,-200.5 1467,-200.5 1467,-206.5 1461,-212.5 1455,-212.5 1455,-212.5 1341,-212.5 1341,-212.5 1335,-212.5 1329,-206.5 1329,-200.5 1329,-200.5 1329,-178.5 1329,-178.5 1329,-172.5 1335,-166.5 1341,-166.5"/>
<text text-anchor="middle" x="1346.5" y="-197.3" font-family="Times,serif" font-size="14.00">32</text>
<polyline fill="none" stroke="black" points="1364,-189.5 1364,-212.5 "/>
<text text-anchor="middle" x="1383" y="-197.3" font-family="Times,serif" font-size="14.00">OP</text>
<polyline fill="none" stroke="black" points="1402,-189.5 1402,-212.5 "/>
<text text-anchor="middle" x="1434.5" y="-197.3" font-family="Times,serif" font-size="14.00">size=3</text>
<polyline fill="none" stroke="black" points="1329,-189.5 1467,-189.5 "/>
<text text-anchor="middle" x="1398" y="-174.3" font-family="Times,serif" font-size="14.00">^</text>
</g>
<!-- node30&#45;&gt;node32 -->
<g id="edge62" class="edge">
<title>node30&#45;&gt;node32</title>
<path fill="none" stroke="green" d="M1272,-249.37C1291.6,-239.37 1315.74,-227.47 1337.64,-217"/>
<polygon fill="green" stroke="green" points="1339.35,-220.06 1346.88,-212.61 1336.34,-213.74 1339.35,-220.06"/>
</g>
<!-- node31&#45;&gt;node30 -->
<g id="edge61" class="edge">
<title>node31&#45;&gt;node30</title>
<path fill="none" stroke="blue" d="M1239.09,-212.61C1239.72,-220.82 1239.9,-230.31 1239.62,-239.25"/>
<polygon fill="blue" stroke="blue" points="1236.12,-239.2 1239.09,-249.37 1243.11,-239.56 1236.12,-239.2"/>
</g>
<!-- node32&#45;&gt;node30 -->
<g id="edge63" class="edge">
<title>node32&#45;&gt;node30</title>
<path fill="none" stroke="blue" d="M1359.06,-212.61C1339.46,-222.6 1315.33,-234.5 1293.41,-244.97"/>
<polygon fill="blue" stroke="blue" points="1291.71,-241.91 1284.18,-249.37 1294.71,-248.23 1291.71,-241.91"/>
</g>
<!-- node33 -->
<g id="node33" class="node">
<title>node33</title>
<path fill="pink" stroke="black" d="M1253.5,-83.5C1253.5,-83.5 1384.5,-83.5 1384.5,-83.5 1390.5,-83.5 1396.5,-89.5 1396.5,-95.5 1396.5,-95.5 1396.5,-117.5 1396.5,-117.5 1396.5,-123.5 1390.5,-129.5 1384.5,-129.5 1384.5,-129.5 1253.5,-129.5 1253.5,-129.5 1247.5,-129.5 1241.5,-123.5 1241.5,-117.5 1241.5,-117.5 1241.5,-95.5 1241.5,-95.5 1241.5,-89.5 1247.5,-83.5 1253.5,-83.5"/>
<text text-anchor="middle" x="1259" y="-114.3" font-family="Times,serif" font-size="14.00">33</text>
<polyline fill="none" stroke="black" points="1276.5,-106.5 1276.5,-129.5 "/>
<text text-anchor="middle" x="1304" y="-114.3" font-family="Times,serif" font-size="14.00">NUM</text>
<polyline fill="none" stroke="black" points="1331.5,-106.5 1331.5,-129.5 "/>
<text text-anchor="middle" x="1364" y="-114.3" font-family="Times,serif" font-size="14.00">size=1</text>
<polyline fill="none" stroke="black" points="1241.5,-106.5 1396.5,-106.5 "/>
<text text-anchor="middle" x="1319" y="-91.3" font-family="Times,serif" font-size="14.00">1</text>
</g>
<!-- node32&#45;&gt;node33 -->
<g id="edge64" class="edge">
<title>node32&#45;&gt;node33</title>
<path fill="none" stroke="red" d="M1370.32,-166.37C1360.83,-157.35 1350.39,-146.79 1341.36,-137.12"/>
<polygon fill="red" stroke="red" points="1343.81,-134.61 1334.47,-129.61 1338.65,-139.34 1343.81,-134.61"/>
</g>
<!-- node34 -->
<g id="node34" class="node">
<title>node34</title>
<path fill="pink" stroke="black" d="M1426.5,-83.5C1426.5,-83.5 1557.5,-83.5 1557.5,-83.5 1563.5,-83.5 1569.5,-89.5 1569.5,-95.5 1569.5,-95.5 1569.5,-117.5 1569.5,-117.5 1569.5,-123.5 1563.5,-129.5 1557.5,-129.5 1557.5,-129.5 1426.5,-129.5 1426.5,-129.5 1420.5,-129.5 1414.5,-123.5 1414.5,-117.5 1414.5,-117.5 1414.5,-95.5 1414.5,-95.5 1414.5,-89.5 1420.5,-83.5 1426.5,-83.5"/>
<text text-anchor="middle" x="1432" y="-114.3" font-family="Times,serif" font-size="14.00">34</text>
<polyline fill="none" stroke="black" points="1449.5,-106.5 1449.5,-129.5 "/>
<text text-anchor="middle" x="1477" y="-114.3" font-family="Times,serif" font-size="14.00">NUM</text>
<polyline fill="none" stroke="black" points="1504.5,-106.5 1504.5,-129.5 "/>
<text text-anchor="middle" x="1537" y="-114.3" font-family="Times,serif" font-size="14.00">size=1</text>
<polyline fill="none" stroke="black" points="1414.5,-106.5 1569.5,-106.5 "/>
<text text-anchor="middle" x="1492" y="-91.3" font-family="Times,serif" font-size="14.00">1,512</text>
</g>
<!-- node32&#45;&gt;node34 -->
<g id="edge66" class="edge">
<title>node32&#45;&gt;node34</title>
<path fill="none" stroke="green" d="M1417.6,-166.37C1427.75,-156.99 1440.44,-145.95 1452.47,-135.98"/>
<polygon fill="green" stroke="green" points="1454.74,-138.65 1460.26,-129.61 1450.3,-133.23 1454.74,-138.65"/>
</g>
<!-- node33&#45;&gt;node32 -->
<g id="edge65" class="edge">
<title>node33&#45;&gt;node32</title>
<path fill="none" stroke="blue" d="M1346.65,-129.61C1356.14,-138.62 1366.58,-149.18 1375.61,-158.85"/>
<polygon fill="blue" stroke="blue" points="1373.17,-161.36 1382.5,-166.37 1378.33,-156.63 1373.17,-161.36"/>
</g>
<!-- node34&#45;&gt;node32 -->
<g id="edge67" class="edge">
<title>node34&#45;&gt;node32</title>
<path fill="none" stroke="blue" d="M1472.43,-129.61C1462.28,-138.98 1449.6,-150.02 1437.56,-159.99"/>
<polygon fill="blue" stroke="blue" points="1435.3,-157.32 1429.78,-166.37 1439.73,-162.74 1435.3,-157.32"/>
</g>
<!-- node35&#45;&gt;node3 -->
<g id="edge69" class="edge">
<title>node35&#45;&gt;node3</title>
<path fill="none" stroke="blue" d="M675.44,-544.61C671.98,-553.18 667.35,-563.14 662.56,-572.41"/>
<polygon fill="blue" stroke="blue" points="659.39,-570.9 657.75,-581.37 665.56,-574.21 659.39,-570.9"/>
</g>
<!-- node36&#45;&gt;node2 -->
<g id="edge71" class="edge">
<title>node36&#45;&gt;node2</title>
<path fill="none" stroke="blue" d="M807.09,-627.61C807.72,-635.82 807.9,-645.31 807.62,-654.25"/>
<polygon fill="blue" stroke="blue" points="804.12,-654.2 807.09,-664.37 811.11,-654.56 804.12,-654.2"/>
</g>
<!-- node37&#45;&gt;node1 -->
<g id="edge73" class="edge">
<title>node37&#45;&gt;node1</title>
<path fill="none" stroke="blue" d="M943.25,-710.61C934.88,-719.8 924.36,-730.6 914.22,-740.42"/>
<polygon fill="blue" stroke="blue" points="911.77,-737.93 906.95,-747.37 916.6,-742.99 911.77,-737.93"/>
</g>
<!-- node38 -->
<g id="node38" class="node">
<title>node38</title>
<path fill="peachpuff" stroke="black" d="M904,-581.5C904,-581.5 1018,-581.5 1018,-581.5 1024,-581.5 1030,-587.5 1030,-593.5 1030,-593.5 1030,-615.5 1030,-615.5 1030,-621.5 1024,-627.5 1018,-627.5 1018,-627.5 904,-627.5 904,-627.5 898,-627.5 892,-621.5 892,-615.5 892,-615.5 892,-593.5 892,-593.5 892,-587.5 898,-581.5 904,-581.5"/>
<text text-anchor="middle" x="909.5" y="-612.3" font-family="Times,serif" font-size="14.00">38</text>
<polyline fill="none" stroke="black" points="927,-604.5 927,-627.5 "/>
<text text-anchor="middle" x="946" y="-612.3" font-family="Times,serif" font-size="14.00">OP</text>
<polyline fill="none" stroke="black" points="965,-604.5 965,-627.5 "/>
<text text-anchor="middle" x="997.5" y="-612.3" font-family="Times,serif" font-size="14.00">size=3</text>
<polyline fill="none" stroke="black" points="892,-604.5 1030,-604.5 "/>
<text text-anchor="middle" x="961" y="-589.3" font-family="Times,serif" font-size="14.00">^</text>
</g>
<!-- node37&#45;&gt;node38 -->
<g id="edge74" class="edge">
<title>node37&#45;&gt;node38</title>
<path fill="none" stroke="red" d="M953.46,-664.37C953.03,-656.15 953.08,-646.66 953.58,-637.73"/>
<polygon fill="red" stroke="red" points="957.08,-637.85 954.37,-627.61 950.1,-637.31 957.08,-637.85"/>
</g>
<!-- node38&#45;&gt;node37 -->
<g id="edge75" class="edge">
<title>node38&#45;&gt;node37</title>
<path fill="none" stroke="blue" d="M966.54,-627.61C966.97,-635.82 966.92,-645.31 966.42,-654.25"/>
<polygon fill="blue" stroke="blue" points="962.92,-654.13 965.64,-664.37 969.9,-654.67 962.92,-654.13"/>
</g>
<!-- node39 -->
<g id="node39" class="node">
<title>node39</title>
<path fill="lightyellow" stroke="black" d="M861,-498.5C861,-498.5 983,-498.5 983,-498.5 989,-498.5 995,-504.5 995,-510.5 995,-510.5 995,-532.5 995,-532.5 995,-538.5 989,-544.5 983,-544.5 983,-544.5 861,-544.5 861,-544.5 855,-544.5 849,-538.5 849,-532.5 849,-532.5 849,-510.5 849,-510.5 849,-504.5 855,-498.5 861,-498.5"/>
<text text-anchor="middle" x="866.5" y="-529.3" font-family="Times,serif" font-size="14.00">39</text>
<polyline fill="none" stroke="black" points="884,-521.5 884,-544.5 "/>
<text text-anchor="middle" x="907" y="-529.3" font-family="Times,serif" font-size="14.00">VAR</text>
<polyline fill="none" stroke="black" points="930,-521.5 930,-544.5 "/>
<text text-anchor="middle" x="962.5" y="-529.3" font-family="Times,serif" font-size="14.00">size=1</text>
<polyline fill="none" stroke="black" points="849,-521.5 995,-521.5 "/>
<text text-anchor="middle" x="922" y="-506.3" font-family="Times,serif" font-size="14.00">x</text>
</g>
<!-- node38&#45;&gt;node39 -->
<g id="edge76" class="edge">
<title>node38&#45;&gt;node39</title>
<path fill="none" stroke="red" d="M944.25,-581.37C939.52,-572.88 934.61,-563.04 930.5,-553.85"/>
<polygon fill="red" stroke="red" points="933.7,-552.43 926.56,-544.61 927.26,-555.18 933.7,-552.43"/>
</g>
<!-- node40 -->
<g id="node40" class="node">
<title>node40</title>
<path fill="lightyellow" stroke="black" d="M1025,-498.5C1025,-498.5 1147,-498.5 1147,-498.5 1153,-498.5 1159,-504.5 1159,-510.5 1159,-510.5 1159,-532.5 1159,-532.5 1159,-538.5 1153,-544.5 1147,-544.5 1147,-544.5 1025,-544.5 1025,-544.5 1019,-544.5 1013,-538.5 1013,-532.5 1013,-532.5 1013,-510.5 1013,-510.5 1013,-504.5 1019,-498.5 1025,-498.5"/>
<text text-anchor="middle" x="1030.5" y="-529.3" font-family="Times,serif" font-size="14.00">40</text>
<polyline fill="none" stroke="black" points="1048,-521.5 1048,-544.5 "/>
<text text-anchor="middle" x="1071" y="-529.3" font-family="Times,serif" font-size="14.00">VAR</text>
<polyline fill="none" stroke="black" points="1094,-521.5 1094,-544.5 "/>
<text text-anchor="middle" x="1126.5" y="-529.3" font-family="Times,serif" font-size="14.00">size=1</text>
<polyline fill="none" stroke="black" points="1013,-521.5 1159,-521.5 "/>
<text text-anchor="middle" x="1086" y="-506.3" font-family="Times,serif" font-size="14.00">x</text>
</g>
<!-- node38&#45;&gt;node40 -->
<g id="edge78" class="edge">
<title>node38&#45;&gt;node40</title>
<path fill="none" stroke="green" d="M989.07,-581.37C1003.21,-571.72 1020.69,-560.32 1036.93,-550.13"/>
<polygon fill="green" stroke="green" points="1039.16,-552.86 1045.8,-544.61 1035.46,-546.92 1039.16,-552.86"/>
</g>
<!-- node39&#45;&gt;node38 -->
<g id="edge77" class="edge">
<title>node39&#45;&gt;node38</title>
<path fill="none" stroke="blue" d="M938.73,-544.61C943.47,-553.09 948.38,-562.93 952.49,-572.12"/>
<polygon fill="blue" stroke="blue" points="949.29,-573.54 956.43,-581.37 955.73,-570.8 949.29,-573.54"/>
</g>
<!-- node40&#45;&gt;node38 -->
<g id="edge79" class="edge">
<title>node40&#45;&gt;node38</title>
<path fill="none" stroke="blue" d="M1057.97,-544.61C1043.84,-554.25 1026.36,-565.65 1010.11,-575.85"/>
<polygon fill="blue" stroke="blue" points="1007.89,-573.11 1001.25,-581.37 1011.59,-579.05 1007.89,-573.11"/>
</g>
</g>
</svg>
