<?xml version="1.0" encoding="UTF-8" standalone="no"?>
<!DOCTYPE svg PUBLIC "-//W3C//DTD SVG 1.1//EN"
 "http://www.w3.org/Graphics/SVG/1.1/DTD/svg11.dtd">
<!-- Generated by graphviz version 2.43.0 (0)
 -->
<!-- Title: %3 Pages: 1 -->
<svg width="638pt" height="221pt"
 viewBox="0.00 0.00 637.50 221.00" xmlns="http://www.w3.org/2000/svg" xmlns:xlink="http://www.w3.org/1999/xlink">
<g id="graph0" class="graph" transform="scale(1 1) rotate(0) translate(4 217)">
<title>%3</title>
<polygon fill="white" stroke="transparent" points="-4,4 -4,-217 633.5,-217 633.5,4 -4,4"/>
<!-- node1 -->
<g id="node1" class="node">
<title>node1</title>
<path fill="peachpuff" stroke="black" d="M258,-166.5C258,-166.5 363,-166.5 363,-166.5 369,-166.5 375,-172.5 375,-178.5 375,-178.5 375,-200.5 375,-200.5 375,-206.5 369,-212.5 363,-212.5 363,-212.5 258,-212.5 258,-212.5 252,-212.5 246,-206.5 246,-200.5 246,-200.5 246,-178.5 246,-178.5 246,-172.5 252,-166.5 258,-166.5"/>
<text text-anchor="middle" x="259" y="-197.3" font-family="Times,serif" font-size="14.00">1</text>
<polyline fill="none" stroke="black" points="272,-189.5 272,-212.5 "/>
<text text-anchor="middle" x="291" y="-197.3" font-family="Times,serif" font-size="14.00">OP</text>
<polyline fill="none" stroke="black" points="310,-189.5 310,-212.5 "/>
<text text-anchor="middle" x="342.5" y="-197.3" font-family="Times,serif" font-size="14.00">size=7</text>
<polyline fill="none" stroke="black" points="246,-189.5 375,-189.5 "/>
<text text-anchor="middle" x="310.5" y="-174.3" font-family="Times,serif" font-size="14.00">/</text>
</g>
<!-- node1&#45;&gt;node1 -->
<g id="edge1" class="edge">
<title>node1&#45;&gt;node1</title>
<path fill="none" stroke="blue" d="M375.18,-203.73C385.74,-201.69 393,-196.95 393,-189.5 393,-184.61 389.87,-180.89 384.74,-178.33"/>
<polygon fill="blue" stroke="blue" points="385.77,-174.99 375.18,-175.27 383.64,-181.66 385.77,-174.99"/>
</g>
<!-- node2 -->
<g id="node2" class="node">
<title>node2</title>
<path fill="peachpuff" stroke="black" d="M176,-83.5C176,-83.5 281,-83.5 281,-83.5 287,-83.5 293,-89.5 293,-95.5 293,-95.5 293,-117.5 293,-117.5 293,-123.5 287,-129.5 281,-129.5 281,-129.5 176,-129.5 176,-129.5 170,-129.5 164,-123.5 164,-117.5 164,-117.5 164,-95.5 164,-95.5 164,-89.5 170,-83.5 176,-83.5"/>
<text text-anchor="middle" x="177" y="-114.3" font-family="Times,serif" font-size="14.00">2</text>
<polyline fill="none" stroke="black" points="190,-106.5 190,-129.5 "/>
<text text-anchor="middle" x="209" y="-114.3" font-family="Times,serif" font-size="14.00">OP</text>
<polyline fill="none" stroke="black" points="228,-106.5 228,-129.5 "/>
<text text-anchor="middle" x="260.5" y="-114.3" font-family="Times,serif" font-size="14.00">size=3</text>
<polyline fill="none" stroke="black" points="164,-106.5 293,-106.5 "/>
<text text-anchor="middle" x="228.5" y="-91.3" font-family="Times,serif" font-size="14.00">&#45;</text>
</g>
<!-- node1&#45;&gt;node2 -->
<g id="edge2" class="edge">
<title>node1&#45;&gt;node2</title>
<path fill="none" stroke="red" d="M282,-166.37C272.18,-157.35 261.34,-146.79 251.96,-137.12"/>
<polygon fill="red" stroke="red" points="254.23,-134.43 244.79,-129.61 249.16,-139.26 254.23,-134.43"/>
</g>
<!-- node5 -->
<g id="node5" class="node">
<title>node5</title>
<path fill="peachpuff" stroke="black" d="M340,-83.5C340,-83.5 445,-83.5 445,-83.5 451,-83.5 457,-89.5 457,-95.5 457,-95.5 457,-117.5 457,-117.5 457,-123.5 451,-129.5 445,-129.5 445,-129.5 340,-129.5 340,-129.5 334,-129.5 328,-123.5 328,-117.5 328,-117.5 328,-95.5 328,-95.5 328,-89.5 334,-83.5 340,-83.5"/>
<text text-anchor="middle" x="341" y="-114.3" font-family="Times,serif" font-size="14.00">5</text>
<polyline fill="none" stroke="black" points="354,-106.5 354,-129.5 "/>
<text text-anchor="middle" x="373" y="-114.3" font-family="Times,serif" font-size="14.00">OP</text>
<polyline fill="none" stroke="black" points="392,-106.5 392,-129.5 "/>
<text text-anchor="middle" x="424.5" y="-114.3" font-family="Times,serif" font-size="14.00">size=3</text>
<polyline fill="none" stroke="black" points="328,-106.5 457,-106.5 "/>
<text text-anchor="middle" x="392.5" y="-91.3" font-family="Times,serif" font-size="14.00">+</text>
</g>
<!-- node1&#45;&gt;node5 -->
<g id="edge8" class="edge">
<title>node1&#45;&gt;node5</title>
<path fill="none" stroke="green" d="M326.82,-166.37C335.42,-157.17 346.21,-146.37 356.59,-136.55"/>
<polygon fill="green" stroke="green" points="359.11,-138.99 364.03,-129.61 354.33,-133.87 359.11,-138.99"/>
</g>
<!-- node2&#45;&gt;node1 -->
<g id="edge3" class="edge">
<title>node2&#45;&gt;node1</title>
<path fill="none" stroke="blue" d="M256.97,-129.61C266.79,-138.62 277.63,-149.18 287.01,-158.85"/>
<polygon fill="blue" stroke="blue" points="284.75,-161.55 294.18,-166.37 289.81,-156.71 284.75,-161.55"/>
</g>
<!-- node3 -->
<g id="node3" class="node">
<title>node3</title>
<path fill="lightyellow" stroke="black" d="M12,-0.5C12,-0.5 125,-0.5 125,-0.5 131,-0.5 137,-6.5 137,-12.5 137,-12.5 137,-34.5 137,-34.5 137,-40.5 131,-46.5 125,-46.5 125,-46.5 12,-46.5 12,-46.5 6,-46.5 0,-40.5 0,-34.5 0,-34.5 0,-12.5 0,-12.5 0,-6.5 6,-0.5 12,-0.5"/>
<text text-anchor="middle" x="13" y="-31.3" font-family="Times,serif" font-size="14.00">3</text>
<polyline fill="none" stroke="black" points="26,-23.5 26,-46.5 "/>
<text text-anchor="middle" x="49" y="-31.3" font-family="Times,serif" font-size="14.00">VAR</text>
<polyline fill="none" stroke="black" points="72,-23.5 72,-46.5 "/>
<text text-anchor="middle" x="104.5" y="-31.3" font-family="Times,serif" font-size="14.00">size=1</text>
<polyline fill="none" stroke="black" points="0,-23.5 137,-23.5 "/>
<text text-anchor="middle" x="68.5" y="-8.3" font-family="Times,serif" font-size="14.00">x</text>
</g>
<!-- node2&#45;&gt;node3 -->
<g id="edge4" class="edge">
<title>node2&#45;&gt;node3</title>
<path fill="none" stroke="red" d="M178.69,-83.37C158.35,-73.46 134.99,-61.68 115,-51.28"/>
<polygon fill="red" stroke="red" points="116.56,-48.14 106.08,-46.61 113.32,-54.35 116.56,-48.14"/>
</g>
<!-- node4 -->
<g id="node4" class="node">
<title>node4</title>
<path fill="pink" stroke="black" d="M167.5,-0.5C167.5,-0.5 289.5,-0.5 289.5,-0.5 295.5,-0.5 301.5,-6.5 301.5,-12.5 301.5,-12.5 301.5,-34.5 301.5,-34.5 301.5,-40.5 295.5,-46.5 289.5,-46.5 289.5,-46.5 167.5,-46.5 167.5,-46.5 161.5,-46.5 155.5,-40.5 155.5,-34.5 155.5,-34.5 155.5,-12.5 155.5,-12.5 155.5,-6.5 161.5,-0.5 167.5,-0.5"/>
<text text-anchor="middle" x="168.5" y="-31.3" font-family="Times,serif" font-size="14.00">4</text>
<polyline fill="none" stroke="black" points="181.5,-23.5 181.5,-46.5 "/>
<text text-anchor="middle" x="209" y="-31.3" font-family="Times,serif" font-size="14.00">NUM</text>
<polyline fill="none" stroke="black" points="236.5,-23.5 236.5,-46.5 "/>
<text text-anchor="middle" x="269" y="-31.3" font-family="Times,serif" font-size="14.00">size=1</text>
<polyline fill="none" stroke="black" points="155.5,-23.5 301.5,-23.5 "/>
<text text-anchor="middle" x="228.5" y="-8.3" font-family="Times,serif" font-size="14.00">3</text>
</g>
<!-- node2&#45;&gt;node4 -->
<g id="edge6" class="edge">
<title>node2&#45;&gt;node4</title>
<path fill="none" stroke="green" d="M222.41,-83.37C221.78,-75.15 221.6,-65.66 221.88,-56.73"/>
<polygon fill="green" stroke="green" points="225.38,-56.78 222.41,-46.61 218.39,-56.41 225.38,-56.78"/>
</g>
<!-- node3&#45;&gt;node2 -->
<g id="edge5" class="edge">
<title>node3&#45;&gt;node2</title>
<path fill="none" stroke="blue" d="M118.26,-46.61C138.59,-56.51 161.95,-68.29 181.94,-78.69"/>
<polygon fill="blue" stroke="blue" points="180.39,-81.83 190.87,-83.37 183.63,-75.63 180.39,-81.83"/>
</g>
<!-- node4&#45;&gt;node2 -->
<g id="edge7" class="edge">
<title>node4&#45;&gt;node2</title>
<path fill="none" stroke="blue" d="M234.59,-46.61C235.22,-54.82 235.4,-64.31 235.12,-73.25"/>
<polygon fill="blue" stroke="blue" points="231.62,-73.2 234.59,-83.37 238.61,-73.56 231.62,-73.2"/>
</g>
<!-- node5&#45;&gt;node1 -->
<g id="edge9" class="edge">
<title>node5&#45;&gt;node1</title>
<path fill="none" stroke="blue" d="M376.21,-129.61C367.61,-138.8 356.82,-149.6 346.44,-159.42"/>
<polygon fill="blue" stroke="blue" points="343.92,-156.99 339,-166.37 348.7,-162.1 343.92,-156.99"/>
</g>
<!-- node6 -->
<g id="node6" class="node">
<title>node6</title>
<path fill="pink" stroke="black" d="M331.5,-0.5C331.5,-0.5 453.5,-0.5 453.5,-0.5 459.5,-0.5 465.5,-6.5 465.5,-12.5 465.5,-12.5 465.5,-34.5 465.5,-34.5 465.5,-40.5 459.5,-46.5 453.5,-46.5 453.5,-46.5 331.5,-46.5 331.5,-46.5 325.5,-46.5 319.5,-40.5 319.5,-34.5 319.5,-34.5 319.5,-12.5 319.5,-12.5 319.5,-6.5 325.5,-0.5 331.5,-0.5"/>
<text text-anchor="middle" x="332.5" y="-31.3" font-family="Times,serif" font-size="14.00">6</text>
<polyline fill="none" stroke="black" points="345.5,-23.5 345.5,-46.5 "/>
<text text-anchor="middle" x="373" y="-31.3" font-family="Times,serif" font-size="14.00">NUM</text>
<polyline fill="none" stroke="black" points="400.5,-23.5 400.5,-46.5 "/>
<text text-anchor="middle" x="433" y="-31.3" font-family="Times,serif" font-size="14.00">size=1</text>
<polyline fill="none" stroke="black" points="319.5,-23.5 465.5,-23.5 "/>
<text text-anchor="middle" x="392.5" y="-8.3" font-family="Times,serif" font-size="14.00">1000</text>
</g>
<!-- node5&#45;&gt;node6 -->
<g id="edge10" class="edge">
<title>node5&#45;&gt;node6</title>
<path fill="none" stroke="red" d="M386.41,-83.37C385.78,-75.15 385.6,-65.66 385.88,-56.73"/>
<polygon fill="red" stroke="red" points="389.38,-56.78 386.41,-46.61 382.39,-56.41 389.38,-56.78"/>
</g>
<!-- node7 -->
<g id="node7" class="node">
<title>node7</title>
<path fill="pink" stroke="black" d="M495.5,-0.5C495.5,-0.5 617.5,-0.5 617.5,-0.5 623.5,-0.5 629.5,-6.5 629.5,-12.5 629.5,-12.5 629.5,-34.5 629.5,-34.5 629.5,-40.5 623.5,-46.5 617.5,-46.5 617.5,-46.5 495.5,-46.5 495.5,-46.5 489.5,-46.5 483.5,-40.5 483.5,-34.5 483.5,-34.5 483.5,-12.5 483.5,-12.5 483.5,-6.5 489.5,-0.5 495.5,-0.5"/>
<text text-anchor="middle" x="496.5" y="-31.3" font-family="Times,serif" font-size="14.00">7</text>
<polyline fill="none" stroke="black" points="509.5,-23.5 509.5,-46.5 "/>
<text text-anchor="middle" x="537" y="-31.3" font-family="Times,serif" font-size="14.00">NUM</text>
<polyline fill="none" stroke="black" points="564.5,-23.5 564.5,-46.5 "/>
<text text-anchor="middle" x="597" y="-31.3" font-family="Times,serif" font-size="14.00">size=1</text>
<polyline fill="none" stroke="black" points="483.5,-23.5 629.5,-23.5 "/>
<text text-anchor="middle" x="556.5" y="-8.3" font-family="Times,serif" font-size="14.00">7</text>
</g>
<!-- node5&#45;&gt;node7 -->
<g id="edge12" class="edge">
<title>node5&#45;&gt;node7</title>
<path fill="none" stroke="green" d="M431.22,-83.37C450.7,-73.37 474.69,-61.47 496.47,-51"/>
<polygon fill="green" stroke="green" points="498.14,-54.08 505.65,-46.61 495.12,-47.76 498.14,-54.08"/>
</g>
<!-- node6&#45;&gt;node5 -->
<g id="edge11" class="edge">
<title>node6&#45;&gt;node5</title>
<path fill="none" stroke="blue" d="M398.59,-46.61C399.22,-54.82 399.4,-64.31 399.12,-73.25"/>
<polygon fill="blue" stroke="blue" points="395.62,-73.2 398.59,-83.37 402.61,-73.56 395.62,-73.2"/>
</g>
<!-- node7&#45;&gt;node5 -->
<g id="edge13" class="edge">
<title>node7&#45;&gt;node5</title>
<path fill="none" stroke="blue" d="M517.83,-46.61C498.36,-56.6 474.37,-68.5 452.59,-78.97"/>
<polygon fill="blue" stroke="blue" points="450.92,-75.89 443.4,-83.37 453.94,-82.21 450.92,-75.89"/>
</g>
</g>
</svg>
