<?xml version="1.0" encoding="UTF-8" standalone="no"?>
<!DOCTYPE svg PUBLIC "-//W3C//DTD SVG 1.1//EN"
 "http://www.w3.org/Graphics/SVG/1.1/DTD/svg11.dtd">
<!-- Generated by graphviz version 2.43.0 (0)
 -->
<!-- Title: %3 Pages: 1 -->
<svg width="2703pt" height="636pt"
 viewBox="0.00 0.00 2703.00 636.00" xmlns="http://www.w3.org/2000/svg" xmlns:xlink="http://www.w3.org/1999/xlink">
<g id="graph0" class="graph" transform="scale(1 1) rotate(0) translate(4 632)">
<title>%3</title>
<polygon fill="white" stroke="transparent" points="-4,4 -4,-632 2699,-632 2699,4 -4,4"/>
<!-- node1 -->
<g id="node1" class="node">
<title>node1</title>
<path fill="peachpuff" stroke="black" d="M1224,-581.5C1224,-581.5 1338,-581.5 1338,-581.5 1344,-581.5 1350,-587.5 1350,-593.5 1350,-593.5 1350,-615.5 1350,-615.5 1350,-621.5 1344,-627.5 1338,-627.5 1338,-627.5 1224,-627.5 1224,-627.5 1218,-627.5 1212,-621.5 1212,-615.5 1212,-615.5 1212,-593.5 1212,-593.5 1212,-587.5 1218,-581.5 1224,-581.5"/>
<text text-anchor="middle" x="1225" y="-612.3" font-family="Times,serif" font-size="14.00">1</text>
<polyline fill="none" stroke="black" points="1238,-604.5 1238,-627.5 "/>
<text text-anchor="middle" x="1257" y="-612.3" font-family="Times,serif" font-size="14.00">OP</text>
<polyline fill="none" stroke="black" points="1276,-604.5 1276,-627.5 "/>
<text text-anchor="middle" x="1313" y="-612.3" font-family="Times,serif" font-size="14.00">size=55</text>
<polyline fill="none" stroke="black" points="1212,-604.5 1350,-604.5 "/>
<text text-anchor="middle" x="1281" y="-589.3" font-family="Times,serif" font-size="14.00">+</text>
</g>
<!-- node1&#45;&gt;node1 -->
<g id="edge1" class="edge">
<title>node1&#45;&gt;node1</title>
<path fill="none" stroke="blue" d="M1350.27,-618.52C1360.83,-616.38 1368,-611.71 1368,-604.5 1368,-599.77 1364.91,-596.13 1359.81,-593.58"/>
<polygon fill="blue" stroke="blue" points="1360.87,-590.25 1350.27,-590.48 1358.7,-596.9 1360.87,-590.25"/>
</g>
<!-- node2 -->
<g id="node2" class="node">
<title>node2</title>
<path fill="peachpuff" stroke="black" d="M1014,-498.5C1014,-498.5 1128,-498.5 1128,-498.5 1134,-498.5 1140,-504.5 1140,-510.5 1140,-510.5 1140,-532.5 1140,-532.5 1140,-538.5 1134,-544.5 1128,-544.5 1128,-544.5 1014,-544.5 1014,-544.5 1008,-544.5 1002,-538.5 1002,-532.5 1002,-532.5 1002,-510.5 1002,-510.5 1002,-504.5 1008,-498.5 1014,-498.5"/>
<text text-anchor="middle" x="1015" y="-529.3" font-family="Times,serif" font-size="14.00">2</text>
<polyline fill="none" stroke="black" points="1028,-521.5 1028,-544.5 "/>
<text text-anchor="middle" x="1047" y="-529.3" font-family="Times,serif" font-size="14.00">OP</text>
<polyline fill="none" stroke="black" points="1066,-521.5 1066,-544.5 "/>
<text text-anchor="middle" x="1103" y="-529.3" font-family="Times,serif" font-size="14.00">size=27</text>
<polyline fill="none" stroke="black" points="1002,-521.5 1140,-521.5 "/>
<text text-anchor="middle" x="1071" y="-506.3" font-family="Times,serif" font-size="14.00">+</text>
</g>
<!-- node1&#45;&gt;node2 -->
<g id="edge2" class="edge">
<title>node1&#45;&gt;node2</title>
<path fill="none" stroke="red" d="M1217.81,-581.47C1190.4,-571.21 1158.47,-558.92 1131.38,-548.23"/>
<polygon fill="red" stroke="red" points="1132.6,-544.95 1122.01,-544.52 1130.02,-551.46 1132.6,-544.95"/>
</g>
<!-- node29 -->
<g id="node29" class="node">
<title>node29</title>
<path fill="peachpuff" stroke="black" d="M1433.5,-498.5C1433.5,-498.5 1556.5,-498.5 1556.5,-498.5 1562.5,-498.5 1568.5,-504.5 1568.5,-510.5 1568.5,-510.5 1568.5,-532.5 1568.5,-532.5 1568.5,-538.5 1562.5,-544.5 1556.5,-544.5 1556.5,-544.5 1433.5,-544.5 1433.5,-544.5 1427.5,-544.5 1421.5,-538.5 1421.5,-532.5 1421.5,-532.5 1421.5,-510.5 1421.5,-510.5 1421.5,-504.5 1427.5,-498.5 1433.5,-498.5"/>
<text text-anchor="middle" x="1439" y="-529.3" font-family="Times,serif" font-size="14.00">29</text>
<polyline fill="none" stroke="black" points="1456.5,-521.5 1456.5,-544.5 "/>
<text text-anchor="middle" x="1475.5" y="-529.3" font-family="Times,serif" font-size="14.00">OP</text>
<polyline fill="none" stroke="black" points="1494.5,-521.5 1494.5,-544.5 "/>
<text text-anchor="middle" x="1531.5" y="-529.3" font-family="Times,serif" font-size="14.00">size=27</text>
<polyline fill="none" stroke="black" points="1421.5,-521.5 1568.5,-521.5 "/>
<text text-anchor="middle" x="1495" y="-506.3" font-family="Times,serif" font-size="14.00">*</text>
</g>
<!-- node1&#45;&gt;node29 -->
<g id="edge56" class="edge">
<title>node1&#45;&gt;node29</title>
<path fill="none" stroke="green" d="M1333.11,-581.47C1359.56,-571.16 1392.09,-558.82 1421.06,-548.09"/>
<polygon fill="green" stroke="green" points="1422.57,-551.27 1430.74,-544.52 1420.14,-544.7 1422.57,-551.27"/>
</g>
<!-- node2&#45;&gt;node1 -->
<g id="edge3" class="edge">
<title>node2&#45;&gt;node1</title>
<path fill="none" stroke="blue" d="M1134.18,-544.52C1161.59,-554.79 1193.52,-567.07 1220.61,-577.76"/>
<polygon fill="blue" stroke="blue" points="1219.39,-581.04 1229.98,-581.47 1221.97,-574.54 1219.39,-581.04"/>
</g>
<!-- node3 -->
<g id="node3" class="node">
<title>node3</title>
<path fill="peachpuff" stroke="black" d="M637,-415.5C637,-415.5 751,-415.5 751,-415.5 757,-415.5 763,-421.5 763,-427.5 763,-427.5 763,-449.5 763,-449.5 763,-455.5 757,-461.5 751,-461.5 751,-461.5 637,-461.5 637,-461.5 631,-461.5 625,-455.5 625,-449.5 625,-449.5 625,-427.5 625,-427.5 625,-421.5 631,-415.5 637,-415.5"/>
<text text-anchor="middle" x="638" y="-446.3" font-family="Times,serif" font-size="14.00">3</text>
<polyline fill="none" stroke="black" points="651,-438.5 651,-461.5 "/>
<text text-anchor="middle" x="670" y="-446.3" font-family="Times,serif" font-size="14.00">OP</text>
<polyline fill="none" stroke="black" points="689,-438.5 689,-461.5 "/>
<text text-anchor="middle" x="726" y="-446.3" font-family="Times,serif" font-size="14.00">size=13</text>
<polyline fill="none" stroke="black" points="625,-438.5 763,-438.5 "/>
<text text-anchor="middle" x="694" y="-423.3" font-family="Times,serif" font-size="14.00">*</text>
</g>
<!-- node2&#45;&gt;node3 -->
<g id="edge4" class="edge">
<title>node2&#45;&gt;node3</title>
<path fill="none" stroke="red" d="M1001.83,-506.76C937.11,-493.25 840.6,-472.55 772.91,-457.69"/>
<polygon fill="red" stroke="red" points="773.66,-454.27 763.14,-455.54 772.15,-461.1 773.66,-454.27"/>
</g>
<!-- node16 -->
<g id="node16" class="node">
<title>node16</title>
<path fill="peachpuff" stroke="black" d="M1009.5,-415.5C1009.5,-415.5 1132.5,-415.5 1132.5,-415.5 1138.5,-415.5 1144.5,-421.5 1144.5,-427.5 1144.5,-427.5 1144.5,-449.5 1144.5,-449.5 1144.5,-455.5 1138.5,-461.5 1132.5,-461.5 1132.5,-461.5 1009.5,-461.5 1009.5,-461.5 1003.5,-461.5 997.5,-455.5 997.5,-449.5 997.5,-449.5 997.5,-427.5 997.5,-427.5 997.5,-421.5 1003.5,-415.5 1009.5,-415.5"/>
<text text-anchor="middle" x="1015" y="-446.3" font-family="Times,serif" font-size="14.00">16</text>
<polyline fill="none" stroke="black" points="1032.5,-438.5 1032.5,-461.5 "/>
<text text-anchor="middle" x="1051.5" y="-446.3" font-family="Times,serif" font-size="14.00">OP</text>
<polyline fill="none" stroke="black" points="1070.5,-438.5 1070.5,-461.5 "/>
<text text-anchor="middle" x="1107.5" y="-446.3" font-family="Times,serif" font-size="14.00">size=13</text>
<polyline fill="none" stroke="black" points="997.5,-438.5 1144.5,-438.5 "/>
<text text-anchor="middle" x="1071" y="-423.3" font-family="Times,serif" font-size="14.00">*</text>
</g>
<!-- node2&#45;&gt;node16 -->
<g id="edge30" class="edge">
<title>node2&#45;&gt;node16</title>
<path fill="none" stroke="green" d="M1064.91,-498.37C1064.28,-490.15 1064.1,-480.66 1064.38,-471.73"/>
<polygon fill="green" stroke="green" points="1067.88,-471.78 1064.91,-461.61 1060.89,-471.41 1067.88,-471.78"/>
</g>
<!-- node3&#45;&gt;node2 -->
<g id="edge5" class="edge">
<title>node3&#45;&gt;node2</title>
<path fill="none" stroke="blue" d="M763.04,-453.21C827.67,-466.7 924.08,-487.38 991.8,-502.25"/>
<polygon fill="blue" stroke="blue" points="991.06,-505.67 1001.58,-504.4 992.57,-498.83 991.06,-505.67"/>
</g>
<!-- node4 -->
<g id="node4" class="node">
<title>node4</title>
<path fill="peachpuff" stroke="black" d="M410,-332.5C410,-332.5 524,-332.5 524,-332.5 530,-332.5 536,-338.5 536,-344.5 536,-344.5 536,-366.5 536,-366.5 536,-372.5 530,-378.5 524,-378.5 524,-378.5 410,-378.5 410,-378.5 404,-378.5 398,-372.5 398,-366.5 398,-366.5 398,-344.5 398,-344.5 398,-338.5 404,-332.5 410,-332.5"/>
<text text-anchor="middle" x="411" y="-363.3" font-family="Times,serif" font-size="14.00">4</text>
<polyline fill="none" stroke="black" points="424,-355.5 424,-378.5 "/>
<text text-anchor="middle" x="443" y="-363.3" font-family="Times,serif" font-size="14.00">OP</text>
<polyline fill="none" stroke="black" points="462,-355.5 462,-378.5 "/>
<text text-anchor="middle" x="499" y="-363.3" font-family="Times,serif" font-size="14.00">size=11</text>
<polyline fill="none" stroke="black" points="398,-355.5 536,-355.5 "/>
<text text-anchor="middle" x="467" y="-340.3" font-family="Times,serif" font-size="14.00">*</text>
</g>
<!-- node3&#45;&gt;node4 -->
<g id="edge6" class="edge">
<title>node3&#45;&gt;node4</title>
<path fill="none" stroke="red" d="M626.19,-415.47C596.49,-405.16 561.81,-392.82 532.39,-382.09"/>
<polygon fill="red" stroke="red" points="533.23,-378.67 522.63,-378.52 530.82,-385.24 533.23,-378.67"/>
</g>
<!-- node15 -->
<g id="node15" class="node">
<title>node15</title>
<path fill="pink" stroke="black" d="M628.5,-332.5C628.5,-332.5 759.5,-332.5 759.5,-332.5 765.5,-332.5 771.5,-338.5 771.5,-344.5 771.5,-344.5 771.5,-366.5 771.5,-366.5 771.5,-372.5 765.5,-378.5 759.5,-378.5 759.5,-378.5 628.5,-378.5 628.5,-378.5 622.5,-378.5 616.5,-372.5 616.5,-366.5 616.5,-366.5 616.5,-344.5 616.5,-344.5 616.5,-338.5 622.5,-332.5 628.5,-332.5"/>
<text text-anchor="middle" x="634" y="-363.3" font-family="Times,serif" font-size="14.00">15</text>
<polyline fill="none" stroke="black" points="651.5,-355.5 651.5,-378.5 "/>
<text text-anchor="middle" x="679" y="-363.3" font-family="Times,serif" font-size="14.00">NUM</text>
<polyline fill="none" stroke="black" points="706.5,-355.5 706.5,-378.5 "/>
<text text-anchor="middle" x="739" y="-363.3" font-family="Times,serif" font-size="14.00">size=1</text>
<polyline fill="none" stroke="black" points="616.5,-355.5 771.5,-355.5 "/>
<text text-anchor="middle" x="694" y="-340.3" font-family="Times,serif" font-size="14.00">1</text>
</g>
<!-- node3&#45;&gt;node15 -->
<g id="edge28" class="edge">
<title>node3&#45;&gt;node15</title>
<path fill="none" stroke="green" d="M687.91,-415.37C687.28,-407.15 687.1,-397.66 687.38,-388.73"/>
<polygon fill="green" stroke="green" points="690.88,-388.78 687.91,-378.61 683.89,-388.41 690.88,-388.78"/>
</g>
<!-- node4&#45;&gt;node3 -->
<g id="edge7" class="edge">
<title>node4&#45;&gt;node3</title>
<path fill="none" stroke="blue" d="M534.8,-378.52C564.5,-388.83 599.17,-401.18 628.59,-411.9"/>
<polygon fill="blue" stroke="blue" points="627.76,-415.33 638.35,-415.47 630.16,-408.75 627.76,-415.33"/>
</g>
<!-- node5 -->
<g id="node5" class="node">
<title>node5</title>
<path fill="peachpuff" stroke="black" d="M184.5,-249.5C184.5,-249.5 289.5,-249.5 289.5,-249.5 295.5,-249.5 301.5,-255.5 301.5,-261.5 301.5,-261.5 301.5,-283.5 301.5,-283.5 301.5,-289.5 295.5,-295.5 289.5,-295.5 289.5,-295.5 184.5,-295.5 184.5,-295.5 178.5,-295.5 172.5,-289.5 172.5,-283.5 172.5,-283.5 172.5,-261.5 172.5,-261.5 172.5,-255.5 178.5,-249.5 184.5,-249.5"/>
<text text-anchor="middle" x="185.5" y="-280.3" font-family="Times,serif" font-size="14.00">5</text>
<polyline fill="none" stroke="black" points="198.5,-272.5 198.5,-295.5 "/>
<text text-anchor="middle" x="217.5" y="-280.3" font-family="Times,serif" font-size="14.00">OP</text>
<polyline fill="none" stroke="black" points="236.5,-272.5 236.5,-295.5 "/>
<text text-anchor="middle" x="269" y="-280.3" font-family="Times,serif" font-size="14.00">size=5</text>
<polyline fill="none" stroke="black" points="172.5,-272.5 301.5,-272.5 "/>
<text text-anchor="middle" x="237" y="-257.3" font-family="Times,serif" font-size="14.00">log</text>
</g>
<!-- node4&#45;&gt;node5 -->
<g id="edge8" class="edge">
<title>node4&#45;&gt;node5</title>
<path fill="none" stroke="red" d="M398.37,-332.47C368.16,-322.12 332.85,-309.71 302.95,-298.95"/>
<polygon fill="red" stroke="red" points="304.04,-295.62 293.45,-295.52 301.67,-302.21 304.04,-295.62"/>
</g>
<!-- node10 -->
<g id="node10" class="node">
<title>node10</title>
<path fill="peachpuff" stroke="black" d="M410,-249.5C410,-249.5 524,-249.5 524,-249.5 530,-249.5 536,-255.5 536,-261.5 536,-261.5 536,-283.5 536,-283.5 536,-289.5 530,-295.5 524,-295.5 524,-295.5 410,-295.5 410,-295.5 404,-295.5 398,-289.5 398,-283.5 398,-283.5 398,-261.5 398,-261.5 398,-255.5 404,-249.5 410,-249.5"/>
<text text-anchor="middle" x="415.5" y="-280.3" font-family="Times,serif" font-size="14.00">10</text>
<polyline fill="none" stroke="black" points="433,-272.5 433,-295.5 "/>
<text text-anchor="middle" x="452" y="-280.3" font-family="Times,serif" font-size="14.00">OP</text>
<polyline fill="none" stroke="black" points="471,-272.5 471,-295.5 "/>
<text text-anchor="middle" x="503.5" y="-280.3" font-family="Times,serif" font-size="14.00">size=5</text>
<polyline fill="none" stroke="black" points="398,-272.5 536,-272.5 "/>
<text text-anchor="middle" x="467" y="-257.3" font-family="Times,serif" font-size="14.00">^</text>
</g>
<!-- node4&#45;&gt;node10 -->
<g id="edge18" class="edge">
<title>node4&#45;&gt;node10</title>
<path fill="none" stroke="green" d="M460.91,-332.37C460.28,-324.15 460.1,-314.66 460.38,-305.73"/>
<polygon fill="green" stroke="green" points="463.88,-305.78 460.91,-295.61 456.89,-305.41 463.88,-305.78"/>
</g>
<!-- node5&#45;&gt;node4 -->
<g id="edge9" class="edge">
<title>node5&#45;&gt;node4</title>
<path fill="none" stroke="blue" d="M301.55,-294.13C332.62,-304.75 369.79,-317.8 401.04,-329.05"/>
<polygon fill="blue" stroke="blue" points="399.94,-332.37 410.54,-332.47 402.32,-325.79 399.94,-332.37"/>
</g>
<!-- node6 -->
<g id="node6" class="node">
<title>node6</title>
<path fill="pink" stroke="black" d="M20,-166.5C20,-166.5 142,-166.5 142,-166.5 148,-166.5 154,-172.5 154,-178.5 154,-178.5 154,-200.5 154,-200.5 154,-206.5 148,-212.5 142,-212.5 142,-212.5 20,-212.5 20,-212.5 14,-212.5 8,-206.5 8,-200.5 8,-200.5 8,-178.5 8,-178.5 8,-172.5 14,-166.5 20,-166.5"/>
<text text-anchor="middle" x="21" y="-197.3" font-family="Times,serif" font-size="14.00">6</text>
<polyline fill="none" stroke="black" points="34,-189.5 34,-212.5 "/>
<text text-anchor="middle" x="61.5" y="-197.3" font-family="Times,serif" font-size="14.00">NUM</text>
<polyline fill="none" stroke="black" points="89,-189.5 89,-212.5 "/>
<text text-anchor="middle" x="121.5" y="-197.3" font-family="Times,serif" font-size="14.00">size=1</text>
<polyline fill="none" stroke="black" points="8,-189.5 154,-189.5 "/>
<text text-anchor="middle" x="81" y="-174.3" font-family="Times,serif" font-size="14.00">2,71828</text>
</g>
<!-- node5&#45;&gt;node6 -->
<g id="edge10" class="edge">
<title>node5&#45;&gt;node6</title>
<path fill="none" stroke="red" d="M188.28,-249.37C168.52,-239.5 145.86,-227.79 126.44,-217.42"/>
<polygon fill="red" stroke="red" points="127.95,-214.26 117.49,-212.61 124.64,-220.42 127.95,-214.26"/>
</g>
<!-- node7 -->
<g id="node7" class="node">
<title>node7</title>
<path fill="peachpuff" stroke="black" d="M184.5,-166.5C184.5,-166.5 289.5,-166.5 289.5,-166.5 295.5,-166.5 301.5,-172.5 301.5,-178.5 301.5,-178.5 301.5,-200.5 301.5,-200.5 301.5,-206.5 295.5,-212.5 289.5,-212.5 289.5,-212.5 184.5,-212.5 184.5,-212.5 178.5,-212.5 172.5,-206.5 172.5,-200.5 172.5,-200.5 172.5,-178.5 172.5,-178.5 172.5,-172.5 178.5,-166.5 184.5,-166.5"/>
<text text-anchor="middle" x="185.5" y="-197.3" font-family="Times,serif" font-size="14.00">7</text>
<polyline fill="none" stroke="black" points="198.5,-189.5 198.5,-212.5 "/>
<text text-anchor="middle" x="217.5" y="-197.3" font-family="Times,serif" font-size="14.00">OP</text>
<polyline fill="none" stroke="black" points="236.5,-189.5 236.5,-212.5 "/>
<text text-anchor="middle" x="269" y="-197.3" font-family="Times,serif" font-size="14.00">size=3</text>
<polyline fill="none" stroke="black" points="172.5,-189.5 301.5,-189.5 "/>
<text text-anchor="middle" x="237" y="-174.3" font-family="Times,serif" font-size="14.00">&#45;</text>
</g>
<!-- node5&#45;&gt;node7 -->
<g id="edge12" class="edge">
<title>node5&#45;&gt;node7</title>
<path fill="none" stroke="green" d="M230.91,-249.37C230.28,-241.15 230.1,-231.66 230.38,-222.73"/>
<polygon fill="green" stroke="green" points="233.88,-222.78 230.91,-212.61 226.89,-222.41 233.88,-222.78"/>
</g>
<!-- node6&#45;&gt;node5 -->
<g id="edge11" class="edge">
<title>node6&#45;&gt;node5</title>
<path fill="none" stroke="blue" d="M129.66,-212.61C149.42,-222.47 172.08,-234.18 191.5,-244.55"/>
<polygon fill="blue" stroke="blue" points="190,-247.72 200.46,-249.37 193.31,-241.55 190,-247.72"/>
</g>
<!-- node7&#45;&gt;node5 -->
<g id="edge13" class="edge">
<title>node7&#45;&gt;node5</title>
<path fill="none" stroke="blue" d="M243.09,-212.61C243.72,-220.82 243.9,-230.31 243.62,-239.25"/>
<polygon fill="blue" stroke="blue" points="240.12,-239.2 243.09,-249.37 247.11,-239.56 240.12,-239.2"/>
</g>
<!-- node8 -->
<g id="node8" class="node">
<title>node8</title>
<path fill="pink" stroke="black" d="M12,-83.5C12,-83.5 134,-83.5 134,-83.5 140,-83.5 146,-89.5 146,-95.5 146,-95.5 146,-117.5 146,-117.5 146,-123.5 140,-129.5 134,-129.5 134,-129.5 12,-129.5 12,-129.5 6,-129.5 0,-123.5 0,-117.5 0,-117.5 0,-95.5 0,-95.5 0,-89.5 6,-83.5 12,-83.5"/>
<text text-anchor="middle" x="13" y="-114.3" font-family="Times,serif" font-size="14.00">8</text>
<polyline fill="none" stroke="black" points="26,-106.5 26,-129.5 "/>
<text text-anchor="middle" x="53.5" y="-114.3" font-family="Times,serif" font-size="14.00">NUM</text>
<polyline fill="none" stroke="black" points="81,-106.5 81,-129.5 "/>
<text text-anchor="middle" x="113.5" y="-114.3" font-family="Times,serif" font-size="14.00">size=1</text>
<polyline fill="none" stroke="black" points="0,-106.5 146,-106.5 "/>
<text text-anchor="middle" x="73" y="-91.3" font-family="Times,serif" font-size="14.00">1000</text>
</g>
<!-- node7&#45;&gt;node8 -->
<g id="edge14" class="edge">
<title>node7&#45;&gt;node8</title>
<path fill="none" stroke="red" d="M186.1,-166.37C165.27,-156.46 141.33,-144.68 120.83,-134.28"/>
<polygon fill="red" stroke="red" points="122.17,-131.03 111.67,-129.61 118.99,-137.27 122.17,-131.03"/>
</g>
<!-- node9 -->
<g id="node9" class="node">
<title>node9</title>
<path fill="pink" stroke="black" d="M176,-83.5C176,-83.5 298,-83.5 298,-83.5 304,-83.5 310,-89.5 310,-95.5 310,-95.5 310,-117.5 310,-117.5 310,-123.5 304,-129.5 298,-129.5 298,-129.5 176,-129.5 176,-129.5 170,-129.5 164,-123.5 164,-117.5 164,-117.5 164,-95.5 164,-95.5 164,-89.5 170,-83.5 176,-83.5"/>
<text text-anchor="middle" x="177" y="-114.3" font-family="Times,serif" font-size="14.00">9</text>
<polyline fill="none" stroke="black" points="190,-106.5 190,-129.5 "/>
<text text-anchor="middle" x="217.5" y="-114.3" font-family="Times,serif" font-size="14.00">NUM</text>
<polyline fill="none" stroke="black" points="245,-106.5 245,-129.5 "/>
<text text-anchor="middle" x="277.5" y="-114.3" font-family="Times,serif" font-size="14.00">size=1</text>
<polyline fill="none" stroke="black" points="164,-106.5 310,-106.5 "/>
<text text-anchor="middle" x="237" y="-91.3" font-family="Times,serif" font-size="14.00">7</text>
</g>
<!-- node7&#45;&gt;node9 -->
<g id="edge16" class="edge">
<title>node7&#45;&gt;node9</title>
<path fill="none" stroke="green" d="M230.91,-166.37C230.28,-158.15 230.1,-148.66 230.38,-139.73"/>
<polygon fill="green" stroke="green" points="233.88,-139.78 230.91,-129.61 226.89,-139.41 233.88,-139.78"/>
</g>
<!-- node8&#45;&gt;node7 -->
<g id="edge15" class="edge">
<title>node8&#45;&gt;node7</title>
<path fill="none" stroke="blue" d="M123.85,-129.61C144.67,-139.51 168.61,-151.29 189.12,-161.69"/>
<polygon fill="blue" stroke="blue" points="187.78,-164.94 198.28,-166.37 190.96,-158.7 187.78,-164.94"/>
</g>
<!-- node9&#45;&gt;node7 -->
<g id="edge17" class="edge">
<title>node9&#45;&gt;node7</title>
<path fill="none" stroke="blue" d="M243.09,-129.61C243.72,-137.82 243.9,-147.31 243.62,-156.25"/>
<polygon fill="blue" stroke="blue" points="240.12,-156.2 243.09,-166.37 247.11,-156.56 240.12,-156.2"/>
</g>
<!-- node10&#45;&gt;node4 -->
<g id="edge19" class="edge">
<title>node10&#45;&gt;node4</title>
<path fill="none" stroke="blue" d="M473.09,-295.61C473.72,-303.82 473.9,-313.31 473.62,-322.25"/>
<polygon fill="blue" stroke="blue" points="470.12,-322.2 473.09,-332.37 477.11,-322.56 470.12,-322.2"/>
</g>
<!-- node11 -->
<g id="node11" class="node">
<title>node11</title>
<path fill="peachpuff" stroke="black" d="M349,-166.5C349,-166.5 463,-166.5 463,-166.5 469,-166.5 475,-172.5 475,-178.5 475,-178.5 475,-200.5 475,-200.5 475,-206.5 469,-212.5 463,-212.5 463,-212.5 349,-212.5 349,-212.5 343,-212.5 337,-206.5 337,-200.5 337,-200.5 337,-178.5 337,-178.5 337,-172.5 343,-166.5 349,-166.5"/>
<text text-anchor="middle" x="354.5" y="-197.3" font-family="Times,serif" font-size="14.00">11</text>
<polyline fill="none" stroke="black" points="372,-189.5 372,-212.5 "/>
<text text-anchor="middle" x="391" y="-197.3" font-family="Times,serif" font-size="14.00">OP</text>
<polyline fill="none" stroke="black" points="410,-189.5 410,-212.5 "/>
<text text-anchor="middle" x="442.5" y="-197.3" font-family="Times,serif" font-size="14.00">size=3</text>
<polyline fill="none" stroke="black" points="337,-189.5 475,-189.5 "/>
<text text-anchor="middle" x="406" y="-174.3" font-family="Times,serif" font-size="14.00">&#45;</text>
</g>
<!-- node10&#45;&gt;node11 -->
<g id="edge20" class="edge">
<title>node10&#45;&gt;node11</title>
<path fill="none" stroke="red" d="M444.24,-249.37C436.98,-240.62 429.14,-230.41 422.39,-220.99"/>
<polygon fill="red" stroke="red" points="425.15,-218.81 416.56,-212.61 419.4,-222.81 425.15,-218.81"/>
</g>
<!-- node14 -->
<g id="node14" class="node">
<title>node14</title>
<path fill="lightyellow" stroke="black" d="M505,-166.5C505,-166.5 627,-166.5 627,-166.5 633,-166.5 639,-172.5 639,-178.5 639,-178.5 639,-200.5 639,-200.5 639,-206.5 633,-212.5 627,-212.5 627,-212.5 505,-212.5 505,-212.5 499,-212.5 493,-206.5 493,-200.5 493,-200.5 493,-178.5 493,-178.5 493,-172.5 499,-166.5 505,-166.5"/>
<text text-anchor="middle" x="510.5" y="-197.3" font-family="Times,serif" font-size="14.00">14</text>
<polyline fill="none" stroke="black" points="528,-189.5 528,-212.5 "/>
<text text-anchor="middle" x="551" y="-197.3" font-family="Times,serif" font-size="14.00">VAR</text>
<polyline fill="none" stroke="black" points="574,-189.5 574,-212.5 "/>
<text text-anchor="middle" x="606.5" y="-197.3" font-family="Times,serif" font-size="14.00">size=1</text>
<polyline fill="none" stroke="black" points="493,-189.5 639,-189.5 "/>
<text text-anchor="middle" x="566" y="-174.3" font-family="Times,serif" font-size="14.00">x</text>
</g>
<!-- node10&#45;&gt;node14 -->
<g id="edge26" class="edge">
<title>node10&#45;&gt;node14</title>
<path fill="none" stroke="green" d="M487.96,-249.37C498.7,-239.99 512.06,-228.95 524.72,-218.98"/>
<polygon fill="green" stroke="green" points="527.15,-221.51 532.89,-212.61 522.85,-215.99 527.15,-221.51"/>
</g>
<!-- node11&#45;&gt;node10 -->
<g id="edge21" class="edge">
<title>node11&#45;&gt;node10</title>
<path fill="none" stroke="blue" d="M428.74,-212.61C436,-221.35 443.84,-231.56 450.58,-240.99"/>
<polygon fill="blue" stroke="blue" points="447.83,-243.16 456.42,-249.37 453.58,-239.16 447.83,-243.16"/>
</g>
<!-- node12 -->
<g id="node12" class="node">
<title>node12</title>
<path fill="pink" stroke="black" d="M340.5,-83.5C340.5,-83.5 471.5,-83.5 471.5,-83.5 477.5,-83.5 483.5,-89.5 483.5,-95.5 483.5,-95.5 483.5,-117.5 483.5,-117.5 483.5,-123.5 477.5,-129.5 471.5,-129.5 471.5,-129.5 340.5,-129.5 340.5,-129.5 334.5,-129.5 328.5,-123.5 328.5,-117.5 328.5,-117.5 328.5,-95.5 328.5,-95.5 328.5,-89.5 334.5,-83.5 340.5,-83.5"/>
<text text-anchor="middle" x="346" y="-114.3" font-family="Times,serif" font-size="14.00">12</text>
<polyline fill="none" stroke="black" points="363.5,-106.5 363.5,-129.5 "/>
<text text-anchor="middle" x="391" y="-114.3" font-family="Times,serif" font-size="14.00">NUM</text>
<polyline fill="none" stroke="black" points="418.5,-106.5 418.5,-129.5 "/>
<text text-anchor="middle" x="451" y="-114.3" font-family="Times,serif" font-size="14.00">size=1</text>
<polyline fill="none" stroke="black" points="328.5,-106.5 483.5,-106.5 "/>
<text text-anchor="middle" x="406" y="-91.3" font-family="Times,serif" font-size="14.00">1000</text>
</g>
<!-- node11&#45;&gt;node12 -->
<g id="edge22" class="edge">
<title>node11&#45;&gt;node12</title>
<path fill="none" stroke="red" d="M399.91,-166.37C399.28,-158.15 399.1,-148.66 399.38,-139.73"/>
<polygon fill="red" stroke="red" points="402.88,-139.78 399.91,-129.61 395.89,-139.41 402.88,-139.78"/>
</g>
<!-- node13 -->
<g id="node13" class="node">
<title>node13</title>
<path fill="pink" stroke="black" d="M513.5,-83.5C513.5,-83.5 644.5,-83.5 644.5,-83.5 650.5,-83.5 656.5,-89.5 656.5,-95.5 656.5,-95.5 656.5,-117.5 656.5,-117.5 656.5,-123.5 650.5,-129.5 644.5,-129.5 644.5,-129.5 513.5,-129.5 513.5,-129.5 507.5,-129.5 501.5,-123.5 501.5,-117.5 501.5,-117.5 501.5,-95.5 501.5,-95.5 501.5,-89.5 507.5,-83.5 513.5,-83.5"/>
<text text-anchor="middle" x="519" y="-114.3" font-family="Times,serif" font-size="14.00">13</text>
<polyline fill="none" stroke="black" points="536.5,-106.5 536.5,-129.5 "/>
<text text-anchor="middle" x="564" y="-114.3" font-family="Times,serif" font-size="14.00">NUM</text>
<polyline fill="none" stroke="black" points="591.5,-106.5 591.5,-129.5 "/>
<text text-anchor="middle" x="624" y="-114.3" font-family="Times,serif" font-size="14.00">size=1</text>
<polyline fill="none" stroke="black" points="501.5,-106.5 656.5,-106.5 "/>
<text text-anchor="middle" x="579" y="-91.3" font-family="Times,serif" font-size="14.00">7</text>
</g>
<!-- node11&#45;&gt;node13 -->
<g id="edge24" class="edge">
<title>node11&#45;&gt;node13</title>
<path fill="none" stroke="green" d="M447.18,-166.37C467.86,-156.32 493.31,-144.36 516.34,-133.86"/>
<polygon fill="green" stroke="green" points="518.04,-136.93 525.7,-129.61 515.14,-130.56 518.04,-136.93"/>
</g>
<!-- node12&#45;&gt;node11 -->
<g id="edge23" class="edge">
<title>node12&#45;&gt;node11</title>
<path fill="none" stroke="blue" d="M412.09,-129.61C412.72,-137.82 412.9,-147.31 412.62,-156.25"/>
<polygon fill="blue" stroke="blue" points="409.12,-156.2 412.09,-166.37 416.11,-156.56 409.12,-156.2"/>
</g>
<!-- node13&#45;&gt;node11 -->
<g id="edge25" class="edge">
<title>node13&#45;&gt;node11</title>
<path fill="none" stroke="blue" d="M537.87,-129.61C517.2,-139.65 491.76,-151.61 468.73,-162.11"/>
<polygon fill="blue" stroke="blue" points="467.02,-159.04 459.36,-166.37 469.92,-165.42 467.02,-159.04"/>
</g>
<!-- node14&#45;&gt;node10 -->
<g id="edge27" class="edge">
<title>node14&#45;&gt;node10</title>
<path fill="none" stroke="blue" d="M545.07,-212.61C534.34,-221.98 520.97,-233.02 508.32,-242.99"/>
<polygon fill="blue" stroke="blue" points="505.88,-240.46 500.14,-249.37 510.18,-245.98 505.88,-240.46"/>
</g>
<!-- node15&#45;&gt;node3 -->
<g id="edge29" class="edge">
<title>node15&#45;&gt;node3</title>
<path fill="none" stroke="blue" d="M700.09,-378.61C700.72,-386.82 700.9,-396.31 700.62,-405.25"/>
<polygon fill="blue" stroke="blue" points="697.12,-405.2 700.09,-415.37 704.11,-405.56 697.12,-405.2"/>
</g>
<!-- node16&#45;&gt;node2 -->
<g id="edge31" class="edge">
<title>node16&#45;&gt;node2</title>
<path fill="none" stroke="blue" d="M1077.09,-461.61C1077.72,-469.82 1077.9,-479.31 1077.62,-488.25"/>
<polygon fill="blue" stroke="blue" points="1074.12,-488.2 1077.09,-498.37 1081.11,-488.56 1074.12,-488.2"/>
</g>
<!-- node17 -->
<g id="node17" class="node">
<title>node17</title>
<path fill="peachpuff" stroke="black" d="M924.5,-332.5C924.5,-332.5 1047.5,-332.5 1047.5,-332.5 1053.5,-332.5 1059.5,-338.5 1059.5,-344.5 1059.5,-344.5 1059.5,-366.5 1059.5,-366.5 1059.5,-372.5 1053.5,-378.5 1047.5,-378.5 1047.5,-378.5 924.5,-378.5 924.5,-378.5 918.5,-378.5 912.5,-372.5 912.5,-366.5 912.5,-366.5 912.5,-344.5 912.5,-344.5 912.5,-338.5 918.5,-332.5 924.5,-332.5"/>
<text text-anchor="middle" x="930" y="-363.3" font-family="Times,serif" font-size="14.00">17</text>
<polyline fill="none" stroke="black" points="947.5,-355.5 947.5,-378.5 "/>
<text text-anchor="middle" x="966.5" y="-363.3" font-family="Times,serif" font-size="14.00">OP</text>
<polyline fill="none" stroke="black" points="985.5,-355.5 985.5,-378.5 "/>
<text text-anchor="middle" x="1022.5" y="-363.3" font-family="Times,serif" font-size="14.00">size=11</text>
<polyline fill="none" stroke="black" points="912.5,-355.5 1059.5,-355.5 "/>
<text text-anchor="middle" x="986" y="-340.3" font-family="Times,serif" font-size="14.00">*</text>
</g>
<!-- node16&#45;&gt;node17 -->
<g id="edge32" class="edge">
<title>node16&#45;&gt;node17</title>
<path fill="none" stroke="red" d="M1041.68,-415.37C1031.42,-406.26 1020.08,-395.58 1010.27,-385.83"/>
<polygon fill="red" stroke="red" points="1012.63,-383.25 1003.11,-378.61 1007.66,-388.18 1012.63,-383.25"/>
</g>
<!-- node28 -->
<g id="node28" class="node">
<title>node28</title>
<path fill="pink" stroke="black" d="M1089.5,-332.5C1089.5,-332.5 1220.5,-332.5 1220.5,-332.5 1226.5,-332.5 1232.5,-338.5 1232.5,-344.5 1232.5,-344.5 1232.5,-366.5 1232.5,-366.5 1232.5,-372.5 1226.5,-378.5 1220.5,-378.5 1220.5,-378.5 1089.5,-378.5 1089.5,-378.5 1083.5,-378.5 1077.5,-372.5 1077.5,-366.5 1077.5,-366.5 1077.5,-344.5 1077.5,-344.5 1077.5,-338.5 1083.5,-332.5 1089.5,-332.5"/>
<text text-anchor="middle" x="1095" y="-363.3" font-family="Times,serif" font-size="14.00">28</text>
<polyline fill="none" stroke="black" points="1112.5,-355.5 1112.5,-378.5 "/>
<text text-anchor="middle" x="1140" y="-363.3" font-family="Times,serif" font-size="14.00">NUM</text>
<polyline fill="none" stroke="black" points="1167.5,-355.5 1167.5,-378.5 "/>
<text text-anchor="middle" x="1200" y="-363.3" font-family="Times,serif" font-size="14.00">size=1</text>
<polyline fill="none" stroke="black" points="1077.5,-355.5 1232.5,-355.5 "/>
<text text-anchor="middle" x="1155" y="-340.3" font-family="Times,serif" font-size="14.00">1</text>
</g>
<!-- node16&#45;&gt;node28 -->
<g id="edge54" class="edge">
<title>node16&#45;&gt;node28</title>
<path fill="none" stroke="green" d="M1087.86,-415.37C1096.69,-406.17 1107.75,-395.37 1118.37,-385.55"/>
<polygon fill="green" stroke="green" points="1120.95,-387.93 1125.99,-378.61 1116.24,-382.76 1120.95,-387.93"/>
</g>
<!-- node17&#45;&gt;node16 -->
<g id="edge33" class="edge">
<title>node17&#45;&gt;node16</title>
<path fill="none" stroke="blue" d="M1015.29,-378.61C1025.54,-387.71 1036.89,-398.39 1046.7,-408.14"/>
<polygon fill="blue" stroke="blue" points="1044.34,-410.72 1053.86,-415.37 1049.31,-405.8 1044.34,-410.72"/>
</g>
<!-- node18 -->
<g id="node18" class="node">
<title>node18</title>
<path fill="peachpuff" stroke="black" d="M851,-249.5C851,-249.5 965,-249.5 965,-249.5 971,-249.5 977,-255.5 977,-261.5 977,-261.5 977,-283.5 977,-283.5 977,-289.5 971,-295.5 965,-295.5 965,-295.5 851,-295.5 851,-295.5 845,-295.5 839,-289.5 839,-283.5 839,-283.5 839,-261.5 839,-261.5 839,-255.5 845,-249.5 851,-249.5"/>
<text text-anchor="middle" x="856.5" y="-280.3" font-family="Times,serif" font-size="14.00">18</text>
<polyline fill="none" stroke="black" points="874,-272.5 874,-295.5 "/>
<text text-anchor="middle" x="893" y="-280.3" font-family="Times,serif" font-size="14.00">OP</text>
<polyline fill="none" stroke="black" points="912,-272.5 912,-295.5 "/>
<text text-anchor="middle" x="944.5" y="-280.3" font-family="Times,serif" font-size="14.00">size=3</text>
<polyline fill="none" stroke="black" points="839,-272.5 977,-272.5 "/>
<text text-anchor="middle" x="908" y="-257.3" font-family="Times,serif" font-size="14.00">&#45;</text>
</g>
<!-- node17&#45;&gt;node18 -->
<g id="edge34" class="edge">
<title>node17&#45;&gt;node18</title>
<path fill="none" stroke="red" d="M958.6,-332.37C949.22,-323.35 938.9,-312.79 930,-303.12"/>
<polygon fill="red" stroke="red" points="932.5,-300.68 923.2,-295.61 927.31,-305.37 932.5,-300.68"/>
</g>
<!-- node21 -->
<g id="node21" class="node">
<title>node21</title>
<path fill="peachpuff" stroke="black" d="M1013,-249.5C1013,-249.5 1127,-249.5 1127,-249.5 1133,-249.5 1139,-255.5 1139,-261.5 1139,-261.5 1139,-283.5 1139,-283.5 1139,-289.5 1133,-295.5 1127,-295.5 1127,-295.5 1013,-295.5 1013,-295.5 1007,-295.5 1001,-289.5 1001,-283.5 1001,-283.5 1001,-261.5 1001,-261.5 1001,-255.5 1007,-249.5 1013,-249.5"/>
<text text-anchor="middle" x="1018.5" y="-280.3" font-family="Times,serif" font-size="14.00">21</text>
<polyline fill="none" stroke="black" points="1036,-272.5 1036,-295.5 "/>
<text text-anchor="middle" x="1055" y="-280.3" font-family="Times,serif" font-size="14.00">OP</text>
<polyline fill="none" stroke="black" points="1074,-272.5 1074,-295.5 "/>
<text text-anchor="middle" x="1106.5" y="-280.3" font-family="Times,serif" font-size="14.00">size=7</text>
<polyline fill="none" stroke="black" points="1001,-272.5 1139,-272.5 "/>
<text text-anchor="middle" x="1070" y="-257.3" font-family="Times,serif" font-size="14.00">^</text>
</g>
<!-- node17&#45;&gt;node21 -->
<g id="edge40" class="edge">
<title>node17&#45;&gt;node21</title>
<path fill="none" stroke="green" d="M1002.86,-332.37C1011.69,-323.17 1022.75,-312.37 1033.37,-302.55"/>
<polygon fill="green" stroke="green" points="1035.95,-304.93 1040.99,-295.61 1031.24,-299.76 1035.95,-304.93"/>
</g>
<!-- node18&#45;&gt;node17 -->
<g id="edge35" class="edge">
<title>node18&#45;&gt;node17</title>
<path fill="none" stroke="blue" d="M935.38,-295.61C944.75,-304.62 955.07,-315.18 963.98,-324.85"/>
<polygon fill="blue" stroke="blue" points="961.47,-327.3 970.78,-332.37 966.66,-322.6 961.47,-327.3"/>
</g>
<!-- node19 -->
<g id="node19" class="node">
<title>node19</title>
<path fill="pink" stroke="black" d="M669.5,-166.5C669.5,-166.5 800.5,-166.5 800.5,-166.5 806.5,-166.5 812.5,-172.5 812.5,-178.5 812.5,-178.5 812.5,-200.5 812.5,-200.5 812.5,-206.5 806.5,-212.5 800.5,-212.5 800.5,-212.5 669.5,-212.5 669.5,-212.5 663.5,-212.5 657.5,-206.5 657.5,-200.5 657.5,-200.5 657.5,-178.5 657.5,-178.5 657.5,-172.5 663.5,-166.5 669.5,-166.5"/>
<text text-anchor="middle" x="675" y="-197.3" font-family="Times,serif" font-size="14.00">19</text>
<polyline fill="none" stroke="black" points="692.5,-189.5 692.5,-212.5 "/>
<text text-anchor="middle" x="720" y="-197.3" font-family="Times,serif" font-size="14.00">NUM</text>
<polyline fill="none" stroke="black" points="747.5,-189.5 747.5,-212.5 "/>
<text text-anchor="middle" x="780" y="-197.3" font-family="Times,serif" font-size="14.00">size=1</text>
<polyline fill="none" stroke="black" points="657.5,-189.5 812.5,-189.5 "/>
<text text-anchor="middle" x="735" y="-174.3" font-family="Times,serif" font-size="14.00">1000</text>
</g>
<!-- node18&#45;&gt;node19 -->
<g id="edge36" class="edge">
<title>node18&#45;&gt;node19</title>
<path fill="none" stroke="red" d="M854.64,-249.37C832.51,-239.37 807,-227.47 785.22,-217"/>
<polygon fill="red" stroke="red" points="786.65,-213.81 776.13,-212.61 783.61,-220.11 786.65,-213.81"/>
</g>
<!-- node20 -->
<g id="node20" class="node">
<title>node20</title>
<path fill="pink" stroke="black" d="M842.5,-166.5C842.5,-166.5 973.5,-166.5 973.5,-166.5 979.5,-166.5 985.5,-172.5 985.5,-178.5 985.5,-178.5 985.5,-200.5 985.5,-200.5 985.5,-206.5 979.5,-212.5 973.5,-212.5 973.5,-212.5 842.5,-212.5 842.5,-212.5 836.5,-212.5 830.5,-206.5 830.5,-200.5 830.5,-200.5 830.5,-178.5 830.5,-178.5 830.5,-172.5 836.5,-166.5 842.5,-166.5"/>
<text text-anchor="middle" x="848" y="-197.3" font-family="Times,serif" font-size="14.00">20</text>
<polyline fill="none" stroke="black" points="865.5,-189.5 865.5,-212.5 "/>
<text text-anchor="middle" x="893" y="-197.3" font-family="Times,serif" font-size="14.00">NUM</text>
<polyline fill="none" stroke="black" points="920.5,-189.5 920.5,-212.5 "/>
<text text-anchor="middle" x="953" y="-197.3" font-family="Times,serif" font-size="14.00">size=1</text>
<polyline fill="none" stroke="black" points="830.5,-189.5 985.5,-189.5 "/>
<text text-anchor="middle" x="908" y="-174.3" font-family="Times,serif" font-size="14.00">7</text>
</g>
<!-- node18&#45;&gt;node20 -->
<g id="edge38" class="edge">
<title>node18&#45;&gt;node20</title>
<path fill="none" stroke="green" d="M901.91,-249.37C901.28,-241.15 901.1,-231.66 901.38,-222.73"/>
<polygon fill="green" stroke="green" points="904.88,-222.78 901.91,-212.61 897.89,-222.41 904.88,-222.78"/>
</g>
<!-- node19&#45;&gt;node18 -->
<g id="edge37" class="edge">
<title>node19&#45;&gt;node18</title>
<path fill="none" stroke="blue" d="M788.3,-212.61C810.43,-222.6 835.93,-234.5 857.73,-244.97"/>
<polygon fill="blue" stroke="blue" points="856.29,-248.17 866.82,-249.37 859.34,-241.87 856.29,-248.17"/>
</g>
<!-- node20&#45;&gt;node18 -->
<g id="edge39" class="edge">
<title>node20&#45;&gt;node18</title>
<path fill="none" stroke="blue" d="M914.09,-212.61C914.72,-220.82 914.9,-230.31 914.62,-239.25"/>
<polygon fill="blue" stroke="blue" points="911.12,-239.2 914.09,-249.37 918.11,-239.56 911.12,-239.2"/>
</g>
<!-- node21&#45;&gt;node17 -->
<g id="edge41" class="edge">
<title>node21&#45;&gt;node17</title>
<path fill="none" stroke="blue" d="M1053.16,-295.61C1044.34,-304.8 1033.28,-315.6 1022.66,-325.42"/>
<polygon fill="blue" stroke="blue" points="1020.08,-323.04 1015.04,-332.37 1024.79,-328.22 1020.08,-323.04"/>
</g>
<!-- node22 -->
<g id="node22" class="node">
<title>node22</title>
<path fill="lightyellow" stroke="black" d="M1016,-166.5C1016,-166.5 1138,-166.5 1138,-166.5 1144,-166.5 1150,-172.5 1150,-178.5 1150,-178.5 1150,-200.5 1150,-200.5 1150,-206.5 1144,-212.5 1138,-212.5 1138,-212.5 1016,-212.5 1016,-212.5 1010,-212.5 1004,-206.5 1004,-200.5 1004,-200.5 1004,-178.5 1004,-178.5 1004,-172.5 1010,-166.5 1016,-166.5"/>
<text text-anchor="middle" x="1021.5" y="-197.3" font-family="Times,serif" font-size="14.00">22</text>
<polyline fill="none" stroke="black" points="1039,-189.5 1039,-212.5 "/>
<text text-anchor="middle" x="1062" y="-197.3" font-family="Times,serif" font-size="14.00">VAR</text>
<polyline fill="none" stroke="black" points="1085,-189.5 1085,-212.5 "/>
<text text-anchor="middle" x="1117.5" y="-197.3" font-family="Times,serif" font-size="14.00">size=1</text>
<polyline fill="none" stroke="black" points="1004,-189.5 1150,-189.5 "/>
<text text-anchor="middle" x="1077" y="-174.3" font-family="Times,serif" font-size="14.00">x</text>
</g>
<!-- node21&#45;&gt;node22 -->
<g id="edge42" class="edge">
<title>node21&#45;&gt;node22</title>
<path fill="none" stroke="red" d="M1065.82,-249.37C1065.9,-241.15 1066.54,-231.66 1067.59,-222.73"/>
<polygon fill="red" stroke="red" points="1071.09,-222.99 1069,-212.61 1064.16,-222.03 1071.09,-222.99"/>
</g>
<!-- node23 -->
<g id="node23" class="node">
<title>node23</title>
<path fill="peachpuff" stroke="black" d="M1180,-166.5C1180,-166.5 1294,-166.5 1294,-166.5 1300,-166.5 1306,-172.5 1306,-178.5 1306,-178.5 1306,-200.5 1306,-200.5 1306,-206.5 1300,-212.5 1294,-212.5 1294,-212.5 1180,-212.5 1180,-212.5 1174,-212.5 1168,-206.5 1168,-200.5 1168,-200.5 1168,-178.5 1168,-178.5 1168,-172.5 1174,-166.5 1180,-166.5"/>
<text text-anchor="middle" x="1185.5" y="-197.3" font-family="Times,serif" font-size="14.00">23</text>
<polyline fill="none" stroke="black" points="1203,-189.5 1203,-212.5 "/>
<text text-anchor="middle" x="1222" y="-197.3" font-family="Times,serif" font-size="14.00">OP</text>
<polyline fill="none" stroke="black" points="1241,-189.5 1241,-212.5 "/>
<text text-anchor="middle" x="1273.5" y="-197.3" font-family="Times,serif" font-size="14.00">size=5</text>
<polyline fill="none" stroke="black" points="1168,-189.5 1306,-189.5 "/>
<text text-anchor="middle" x="1237" y="-174.3" font-family="Times,serif" font-size="14.00">&#45;</text>
</g>
<!-- node21&#45;&gt;node23 -->
<g id="edge44" class="edge">
<title>node21&#45;&gt;node23</title>
<path fill="none" stroke="green" d="M1109.54,-249.37C1129.39,-239.37 1153.82,-227.47 1175.99,-217"/>
<polygon fill="green" stroke="green" points="1177.77,-220.03 1185.33,-212.61 1174.79,-213.69 1177.77,-220.03"/>
</g>
<!-- node22&#45;&gt;node21 -->
<g id="edge43" class="edge">
<title>node22&#45;&gt;node21</title>
<path fill="none" stroke="blue" d="M1081.18,-212.61C1081.1,-220.82 1080.46,-230.31 1079.41,-239.25"/>
<polygon fill="blue" stroke="blue" points="1075.91,-238.98 1078,-249.37 1082.85,-239.94 1075.91,-238.98"/>
</g>
<!-- node23&#45;&gt;node21 -->
<g id="edge45" class="edge">
<title>node23&#45;&gt;node21</title>
<path fill="none" stroke="blue" d="M1197.51,-212.61C1177.67,-222.6 1153.24,-234.5 1131.07,-244.97"/>
<polygon fill="blue" stroke="blue" points="1129.29,-241.94 1121.72,-249.37 1132.26,-248.28 1129.29,-241.94"/>
</g>
<!-- node24 -->
<g id="node24" class="node">
<title>node24</title>
<path fill="peachpuff" stroke="black" d="M1137,-83.5C1137,-83.5 1251,-83.5 1251,-83.5 1257,-83.5 1263,-89.5 1263,-95.5 1263,-95.5 1263,-117.5 1263,-117.5 1263,-123.5 1257,-129.5 1251,-129.5 1251,-129.5 1137,-129.5 1137,-129.5 1131,-129.5 1125,-123.5 1125,-117.5 1125,-117.5 1125,-95.5 1125,-95.5 1125,-89.5 1131,-83.5 1137,-83.5"/>
<text text-anchor="middle" x="1142.5" y="-114.3" font-family="Times,serif" font-size="14.00">24</text>
<polyline fill="none" stroke="black" points="1160,-106.5 1160,-129.5 "/>
<text text-anchor="middle" x="1179" y="-114.3" font-family="Times,serif" font-size="14.00">OP</text>
<polyline fill="none" stroke="black" points="1198,-106.5 1198,-129.5 "/>
<text text-anchor="middle" x="1230.5" y="-114.3" font-family="Times,serif" font-size="14.00">size=3</text>
<polyline fill="none" stroke="black" points="1125,-106.5 1263,-106.5 "/>
<text text-anchor="middle" x="1194" y="-91.3" font-family="Times,serif" font-size="14.00">&#45;</text>
</g>
<!-- node23&#45;&gt;node24 -->
<g id="edge46" class="edge">
<title>node23&#45;&gt;node24</title>
<path fill="none" stroke="red" d="M1219.16,-166.37C1214,-157.88 1208.61,-148.04 1204.05,-138.85"/>
<polygon fill="red" stroke="red" points="1207.11,-137.13 1199.65,-129.61 1200.79,-140.14 1207.11,-137.13"/>
</g>
<!-- node27 -->
<g id="node27" class="node">
<title>node27</title>
<path fill="pink" stroke="black" d="M1293.5,-83.5C1293.5,-83.5 1424.5,-83.5 1424.5,-83.5 1430.5,-83.5 1436.5,-89.5 1436.5,-95.5 1436.5,-95.5 1436.5,-117.5 1436.5,-117.5 1436.5,-123.5 1430.5,-129.5 1424.5,-129.5 1424.5,-129.5 1293.5,-129.5 1293.5,-129.5 1287.5,-129.5 1281.5,-123.5 1281.5,-117.5 1281.5,-117.5 1281.5,-95.5 1281.5,-95.5 1281.5,-89.5 1287.5,-83.5 1293.5,-83.5"/>
<text text-anchor="middle" x="1299" y="-114.3" font-family="Times,serif" font-size="14.00">27</text>
<polyline fill="none" stroke="black" points="1316.5,-106.5 1316.5,-129.5 "/>
<text text-anchor="middle" x="1344" y="-114.3" font-family="Times,serif" font-size="14.00">NUM</text>
<polyline fill="none" stroke="black" points="1371.5,-106.5 1371.5,-129.5 "/>
<text text-anchor="middle" x="1404" y="-114.3" font-family="Times,serif" font-size="14.00">size=1</text>
<polyline fill="none" stroke="black" points="1281.5,-106.5 1436.5,-106.5 "/>
<text text-anchor="middle" x="1359" y="-91.3" font-family="Times,serif" font-size="14.00">1</text>
</g>
<!-- node23&#45;&gt;node27 -->
<g id="edge52" class="edge">
<title>node23&#45;&gt;node27</title>
<path fill="none" stroke="green" d="M1264.25,-166.37C1278.03,-156.72 1295.09,-145.32 1310.95,-135.13"/>
<polygon fill="green" stroke="green" points="1313.06,-137.93 1319.61,-129.61 1309.3,-132.03 1313.06,-137.93"/>
</g>
<!-- node24&#45;&gt;node23 -->
<g id="edge47" class="edge">
<title>node24&#45;&gt;node23</title>
<path fill="none" stroke="blue" d="M1211.82,-129.61C1216.98,-138.09 1222.38,-147.93 1226.94,-157.12"/>
<polygon fill="blue" stroke="blue" points="1223.88,-158.84 1231.34,-166.37 1230.2,-155.83 1223.88,-158.84"/>
</g>
<!-- node25 -->
<g id="node25" class="node">
<title>node25</title>
<path fill="pink" stroke="black" d="M1042.5,-0.5C1042.5,-0.5 1173.5,-0.5 1173.5,-0.5 1179.5,-0.5 1185.5,-6.5 1185.5,-12.5 1185.5,-12.5 1185.5,-34.5 1185.5,-34.5 1185.5,-40.5 1179.5,-46.5 1173.5,-46.5 1173.5,-46.5 1042.5,-46.5 1042.5,-46.5 1036.5,-46.5 1030.5,-40.5 1030.5,-34.5 1030.5,-34.5 1030.5,-12.5 1030.5,-12.5 1030.5,-6.5 1036.5,-0.5 1042.5,-0.5"/>
<text text-anchor="middle" x="1048" y="-31.3" font-family="Times,serif" font-size="14.00">25</text>
<polyline fill="none" stroke="black" points="1065.5,-23.5 1065.5,-46.5 "/>
<text text-anchor="middle" x="1093" y="-31.3" font-family="Times,serif" font-size="14.00">NUM</text>
<polyline fill="none" stroke="black" points="1120.5,-23.5 1120.5,-46.5 "/>
<text text-anchor="middle" x="1153" y="-31.3" font-family="Times,serif" font-size="14.00">size=1</text>
<polyline fill="none" stroke="black" points="1030.5,-23.5 1185.5,-23.5 "/>
<text text-anchor="middle" x="1108" y="-8.3" font-family="Times,serif" font-size="14.00">1000</text>
</g>
<!-- node24&#45;&gt;node25 -->
<g id="edge48" class="edge">
<title>node24&#45;&gt;node25</title>
<path fill="none" stroke="red" d="M1164.41,-83.37C1154.04,-74.26 1142.56,-63.58 1132.63,-53.83"/>
<polygon fill="red" stroke="red" points="1134.93,-51.19 1125.38,-46.61 1129.99,-56.15 1134.93,-51.19"/>
</g>
<!-- node26 -->
<g id="node26" class="node">
<title>node26</title>
<path fill="pink" stroke="black" d="M1215.5,-0.5C1215.5,-0.5 1346.5,-0.5 1346.5,-0.5 1352.5,-0.5 1358.5,-6.5 1358.5,-12.5 1358.5,-12.5 1358.5,-34.5 1358.5,-34.5 1358.5,-40.5 1352.5,-46.5 1346.5,-46.5 1346.5,-46.5 1215.5,-46.5 1215.5,-46.5 1209.5,-46.5 1203.5,-40.5 1203.5,-34.5 1203.5,-34.5 1203.5,-12.5 1203.5,-12.5 1203.5,-6.5 1209.5,-0.5 1215.5,-0.5"/>
<text text-anchor="middle" x="1221" y="-31.3" font-family="Times,serif" font-size="14.00">26</text>
<polyline fill="none" stroke="black" points="1238.5,-23.5 1238.5,-46.5 "/>
<text text-anchor="middle" x="1266" y="-31.3" font-family="Times,serif" font-size="14.00">NUM</text>
<polyline fill="none" stroke="black" points="1293.5,-23.5 1293.5,-46.5 "/>
<text text-anchor="middle" x="1326" y="-31.3" font-family="Times,serif" font-size="14.00">size=1</text>
<polyline fill="none" stroke="black" points="1203.5,-23.5 1358.5,-23.5 "/>
<text text-anchor="middle" x="1281" y="-8.3" font-family="Times,serif" font-size="14.00">7</text>
</g>
<!-- node24&#45;&gt;node26 -->
<g id="edge50" class="edge">
<title>node24&#45;&gt;node26</title>
<path fill="none" stroke="green" d="M1211.68,-83.37C1220.94,-74.08 1232.54,-63.16 1243.62,-53.26"/>
<polygon fill="green" stroke="green" points="1245.98,-55.84 1251.17,-46.61 1241.35,-50.59 1245.98,-55.84"/>
</g>
<!-- node25&#45;&gt;node24 -->
<g id="edge49" class="edge">
<title>node25&#45;&gt;node24</title>
<path fill="none" stroke="blue" d="M1137.56,-46.61C1147.93,-55.71 1159.41,-66.39 1169.34,-76.14"/>
<polygon fill="blue" stroke="blue" points="1167.04,-78.78 1176.59,-83.37 1171.98,-73.83 1167.04,-78.78"/>
</g>
<!-- node26&#45;&gt;node24 -->
<g id="edge51" class="edge">
<title>node26&#45;&gt;node24</title>
<path fill="none" stroke="blue" d="M1263.34,-46.61C1254.09,-55.89 1242.5,-66.81 1231.42,-76.71"/>
<polygon fill="blue" stroke="blue" points="1229.05,-74.13 1223.86,-83.37 1233.68,-79.38 1229.05,-74.13"/>
</g>
<!-- node27&#45;&gt;node23 -->
<g id="edge53" class="edge">
<title>node27&#45;&gt;node23</title>
<path fill="none" stroke="blue" d="M1331.79,-129.61C1318.02,-139.25 1300.95,-150.65 1285.09,-160.85"/>
<polygon fill="blue" stroke="blue" points="1282.98,-158.04 1276.43,-166.37 1286.74,-163.94 1282.98,-158.04"/>
</g>
<!-- node28&#45;&gt;node16 -->
<g id="edge55" class="edge">
<title>node28&#45;&gt;node16</title>
<path fill="none" stroke="blue" d="M1138.16,-378.61C1129.34,-387.8 1118.28,-398.6 1107.66,-408.42"/>
<polygon fill="blue" stroke="blue" points="1105.08,-406.04 1100.04,-415.37 1109.79,-411.22 1105.08,-406.04"/>
</g>
<!-- node29&#45;&gt;node1 -->
<g id="edge57" class="edge">
<title>node29&#45;&gt;node1</title>
<path fill="none" stroke="blue" d="M1442.9,-544.52C1416.46,-554.83 1383.92,-567.18 1354.95,-577.9"/>
<polygon fill="blue" stroke="blue" points="1353.45,-574.73 1345.28,-581.47 1355.87,-581.3 1353.45,-574.73"/>
</g>
<!-- node30 -->
<g id="node30" class="node">
<title>node30</title>
<path fill="peachpuff" stroke="black" d="M1433.5,-415.5C1433.5,-415.5 1556.5,-415.5 1556.5,-415.5 1562.5,-415.5 1568.5,-421.5 1568.5,-427.5 1568.5,-427.5 1568.5,-449.5 1568.5,-449.5 1568.5,-455.5 1562.5,-461.5 1556.5,-461.5 1556.5,-461.5 1433.5,-461.5 1433.5,-461.5 1427.5,-461.5 1421.5,-455.5 1421.5,-449.5 1421.5,-449.5 1421.5,-427.5 1421.5,-427.5 1421.5,-421.5 1427.5,-415.5 1433.5,-415.5"/>
<text text-anchor="middle" x="1439" y="-446.3" font-family="Times,serif" font-size="14.00">30</text>
<polyline fill="none" stroke="black" points="1456.5,-438.5 1456.5,-461.5 "/>
<text text-anchor="middle" x="1475.5" y="-446.3" font-family="Times,serif" font-size="14.00">OP</text>
<polyline fill="none" stroke="black" points="1494.5,-438.5 1494.5,-461.5 "/>
<text text-anchor="middle" x="1531.5" y="-446.3" font-family="Times,serif" font-size="14.00">size=11</text>
<polyline fill="none" stroke="black" points="1421.5,-438.5 1568.5,-438.5 "/>
<text text-anchor="middle" x="1495" y="-423.3" font-family="Times,serif" font-size="14.00">*</text>
</g>
<!-- node29&#45;&gt;node30 -->
<g id="edge58" class="edge">
<title>node29&#45;&gt;node30</title>
<path fill="none" stroke="red" d="M1488.91,-498.37C1488.28,-490.15 1488.1,-480.66 1488.38,-471.73"/>
<polygon fill="red" stroke="red" points="1491.88,-471.78 1488.91,-461.61 1484.89,-471.41 1491.88,-471.78"/>
</g>
<!-- node41 -->
<g id="node41" class="node">
<title>node41</title>
<path fill="peachpuff" stroke="black" d="M1932.5,-415.5C1932.5,-415.5 2055.5,-415.5 2055.5,-415.5 2061.5,-415.5 2067.5,-421.5 2067.5,-427.5 2067.5,-427.5 2067.5,-449.5 2067.5,-449.5 2067.5,-455.5 2061.5,-461.5 2055.5,-461.5 2055.5,-461.5 1932.5,-461.5 1932.5,-461.5 1926.5,-461.5 1920.5,-455.5 1920.5,-449.5 1920.5,-449.5 1920.5,-427.5 1920.5,-427.5 1920.5,-421.5 1926.5,-415.5 1932.5,-415.5"/>
<text text-anchor="middle" x="1938" y="-446.3" font-family="Times,serif" font-size="14.00">41</text>
<polyline fill="none" stroke="black" points="1955.5,-438.5 1955.5,-461.5 "/>
<text text-anchor="middle" x="1974.5" y="-446.3" font-family="Times,serif" font-size="14.00">OP</text>
<polyline fill="none" stroke="black" points="1993.5,-438.5 1993.5,-461.5 "/>
<text text-anchor="middle" x="2030.5" y="-446.3" font-family="Times,serif" font-size="14.00">size=15</text>
<polyline fill="none" stroke="black" points="1920.5,-438.5 2067.5,-438.5 "/>
<text text-anchor="middle" x="1994" y="-423.3" font-family="Times,serif" font-size="14.00">+</text>
</g>
<!-- node29&#45;&gt;node41 -->
<g id="edge80" class="edge">
<title>node29&#45;&gt;node41</title>
<path fill="none" stroke="green" d="M1568.71,-507.71C1659.99,-492.53 1814.94,-467.38 1910.51,-452.23"/>
<polygon fill="green" stroke="green" points="1911.1,-455.68 1920.43,-450.66 1910,-448.77 1911.1,-455.68"/>
</g>
<!-- node30&#45;&gt;node29 -->
<g id="edge59" class="edge">
<title>node30&#45;&gt;node29</title>
<path fill="none" stroke="blue" d="M1501.09,-461.61C1501.72,-469.82 1501.9,-479.31 1501.62,-488.25"/>
<polygon fill="blue" stroke="blue" points="1498.12,-488.2 1501.09,-498.37 1505.11,-488.56 1498.12,-488.2"/>
</g>
<!-- node31 -->
<g id="node31" class="node">
<title>node31</title>
<path fill="peachpuff" stroke="black" d="M1351,-332.5C1351,-332.5 1465,-332.5 1465,-332.5 1471,-332.5 1477,-338.5 1477,-344.5 1477,-344.5 1477,-366.5 1477,-366.5 1477,-372.5 1471,-378.5 1465,-378.5 1465,-378.5 1351,-378.5 1351,-378.5 1345,-378.5 1339,-372.5 1339,-366.5 1339,-366.5 1339,-344.5 1339,-344.5 1339,-338.5 1345,-332.5 1351,-332.5"/>
<text text-anchor="middle" x="1356.5" y="-363.3" font-family="Times,serif" font-size="14.00">31</text>
<polyline fill="none" stroke="black" points="1374,-355.5 1374,-378.5 "/>
<text text-anchor="middle" x="1393" y="-363.3" font-family="Times,serif" font-size="14.00">OP</text>
<polyline fill="none" stroke="black" points="1412,-355.5 1412,-378.5 "/>
<text text-anchor="middle" x="1444.5" y="-363.3" font-family="Times,serif" font-size="14.00">size=3</text>
<polyline fill="none" stroke="black" points="1339,-355.5 1477,-355.5 "/>
<text text-anchor="middle" x="1408" y="-340.3" font-family="Times,serif" font-size="14.00">log</text>
</g>
<!-- node30&#45;&gt;node31 -->
<g id="edge60" class="edge">
<title>node30&#45;&gt;node31</title>
<path fill="none" stroke="red" d="M1465.14,-415.37C1454.65,-406.26 1443.04,-395.58 1432.99,-385.83"/>
<polygon fill="red" stroke="red" points="1435.24,-383.13 1425.66,-378.61 1430.32,-388.12 1435.24,-383.13"/>
</g>
<!-- node34 -->
<g id="node34" class="node">
<title>node34</title>
<path fill="peachpuff" stroke="black" d="M1524,-332.5C1524,-332.5 1638,-332.5 1638,-332.5 1644,-332.5 1650,-338.5 1650,-344.5 1650,-344.5 1650,-366.5 1650,-366.5 1650,-372.5 1644,-378.5 1638,-378.5 1638,-378.5 1524,-378.5 1524,-378.5 1518,-378.5 1512,-372.5 1512,-366.5 1512,-366.5 1512,-344.5 1512,-344.5 1512,-338.5 1518,-332.5 1524,-332.5"/>
<text text-anchor="middle" x="1529.5" y="-363.3" font-family="Times,serif" font-size="14.00">34</text>
<polyline fill="none" stroke="black" points="1547,-355.5 1547,-378.5 "/>
<text text-anchor="middle" x="1566" y="-363.3" font-family="Times,serif" font-size="14.00">OP</text>
<polyline fill="none" stroke="black" points="1585,-355.5 1585,-378.5 "/>
<text text-anchor="middle" x="1617.5" y="-363.3" font-family="Times,serif" font-size="14.00">size=7</text>
<polyline fill="none" stroke="black" points="1512,-355.5 1650,-355.5 "/>
<text text-anchor="middle" x="1581" y="-340.3" font-family="Times,serif" font-size="14.00">^</text>
</g>
<!-- node30&#45;&gt;node34 -->
<g id="edge66" class="edge">
<title>node30&#45;&gt;node34</title>
<path fill="none" stroke="green" d="M1512.41,-415.37C1521.55,-406.08 1533.02,-395.16 1543.97,-385.26"/>
<polygon fill="green" stroke="green" points="1546.3,-387.87 1551.44,-378.61 1541.65,-382.65 1546.3,-387.87"/>
</g>
<!-- node31&#45;&gt;node30 -->
<g id="edge61" class="edge">
<title>node31&#45;&gt;node30</title>
<path fill="none" stroke="blue" d="M1437.83,-378.61C1448.31,-387.71 1459.93,-398.39 1469.98,-408.14"/>
<polygon fill="blue" stroke="blue" points="1467.74,-410.84 1477.32,-415.37 1472.65,-405.85 1467.74,-410.84"/>
</g>
<!-- node32 -->
<g id="node32" class="node">
<title>node32</title>
<path fill="pink" stroke="black" d="M1169.5,-249.5C1169.5,-249.5 1300.5,-249.5 1300.5,-249.5 1306.5,-249.5 1312.5,-255.5 1312.5,-261.5 1312.5,-261.5 1312.5,-283.5 1312.5,-283.5 1312.5,-289.5 1306.5,-295.5 1300.5,-295.5 1300.5,-295.5 1169.5,-295.5 1169.5,-295.5 1163.5,-295.5 1157.5,-289.5 1157.5,-283.5 1157.5,-283.5 1157.5,-261.5 1157.5,-261.5 1157.5,-255.5 1163.5,-249.5 1169.5,-249.5"/>
<text text-anchor="middle" x="1175" y="-280.3" font-family="Times,serif" font-size="14.00">32</text>
<polyline fill="none" stroke="black" points="1192.5,-272.5 1192.5,-295.5 "/>
<text text-anchor="middle" x="1220" y="-280.3" font-family="Times,serif" font-size="14.00">NUM</text>
<polyline fill="none" stroke="black" points="1247.5,-272.5 1247.5,-295.5 "/>
<text text-anchor="middle" x="1280" y="-280.3" font-family="Times,serif" font-size="14.00">size=1</text>
<polyline fill="none" stroke="black" points="1157.5,-272.5 1312.5,-272.5 "/>
<text text-anchor="middle" x="1235" y="-257.3" font-family="Times,serif" font-size="14.00">2,71828</text>
</g>
<!-- node31&#45;&gt;node32 -->
<g id="edge62" class="edge">
<title>node31&#45;&gt;node32</title>
<path fill="none" stroke="red" d="M1354.64,-332.37C1332.51,-322.37 1307,-310.47 1285.22,-300"/>
<polygon fill="red" stroke="red" points="1286.65,-296.81 1276.13,-295.61 1283.61,-303.11 1286.65,-296.81"/>
</g>
<!-- node33 -->
<g id="node33" class="node">
<title>node33</title>
<path fill="pink" stroke="black" d="M1342.5,-249.5C1342.5,-249.5 1473.5,-249.5 1473.5,-249.5 1479.5,-249.5 1485.5,-255.5 1485.5,-261.5 1485.5,-261.5 1485.5,-283.5 1485.5,-283.5 1485.5,-289.5 1479.5,-295.5 1473.5,-295.5 1473.5,-295.5 1342.5,-295.5 1342.5,-295.5 1336.5,-295.5 1330.5,-289.5 1330.5,-283.5 1330.5,-283.5 1330.5,-261.5 1330.5,-261.5 1330.5,-255.5 1336.5,-249.5 1342.5,-249.5"/>
<text text-anchor="middle" x="1348" y="-280.3" font-family="Times,serif" font-size="14.00">33</text>
<polyline fill="none" stroke="black" points="1365.5,-272.5 1365.5,-295.5 "/>
<text text-anchor="middle" x="1393" y="-280.3" font-family="Times,serif" font-size="14.00">NUM</text>
<polyline fill="none" stroke="black" points="1420.5,-272.5 1420.5,-295.5 "/>
<text text-anchor="middle" x="1453" y="-280.3" font-family="Times,serif" font-size="14.00">size=1</text>
<polyline fill="none" stroke="black" points="1330.5,-272.5 1485.5,-272.5 "/>
<text text-anchor="middle" x="1408" y="-257.3" font-family="Times,serif" font-size="14.00">2,71828</text>
</g>
<!-- node31&#45;&gt;node33 -->
<g id="edge64" class="edge">
<title>node31&#45;&gt;node33</title>
<path fill="none" stroke="green" d="M1401.91,-332.37C1401.28,-324.15 1401.1,-314.66 1401.38,-305.73"/>
<polygon fill="green" stroke="green" points="1404.88,-305.78 1401.91,-295.61 1397.89,-305.41 1404.88,-305.78"/>
</g>
<!-- node32&#45;&gt;node31 -->
<g id="edge63" class="edge">
<title>node32&#45;&gt;node31</title>
<path fill="none" stroke="blue" d="M1288.3,-295.61C1310.43,-305.6 1335.93,-317.5 1357.73,-327.97"/>
<polygon fill="blue" stroke="blue" points="1356.29,-331.17 1366.82,-332.37 1359.34,-324.87 1356.29,-331.17"/>
</g>
<!-- node33&#45;&gt;node31 -->
<g id="edge65" class="edge">
<title>node33&#45;&gt;node31</title>
<path fill="none" stroke="blue" d="M1414.09,-295.61C1414.72,-303.82 1414.9,-313.31 1414.62,-322.25"/>
<polygon fill="blue" stroke="blue" points="1411.12,-322.2 1414.09,-332.37 1418.11,-322.56 1411.12,-322.2"/>
</g>
<!-- node34&#45;&gt;node30 -->
<g id="edge67" class="edge">
<title>node34&#45;&gt;node30</title>
<path fill="none" stroke="blue" d="M1563.62,-378.61C1554.48,-387.89 1543.02,-398.81 1532.06,-408.71"/>
<polygon fill="blue" stroke="blue" points="1529.73,-406.1 1524.59,-415.37 1534.38,-411.33 1529.73,-406.1"/>
</g>
<!-- node35 -->
<g id="node35" class="node">
<title>node35</title>
<path fill="pink" stroke="black" d="M1515.5,-249.5C1515.5,-249.5 1646.5,-249.5 1646.5,-249.5 1652.5,-249.5 1658.5,-255.5 1658.5,-261.5 1658.5,-261.5 1658.5,-283.5 1658.5,-283.5 1658.5,-289.5 1652.5,-295.5 1646.5,-295.5 1646.5,-295.5 1515.5,-295.5 1515.5,-295.5 1509.5,-295.5 1503.5,-289.5 1503.5,-283.5 1503.5,-283.5 1503.5,-261.5 1503.5,-261.5 1503.5,-255.5 1509.5,-249.5 1515.5,-249.5"/>
<text text-anchor="middle" x="1521" y="-280.3" font-family="Times,serif" font-size="14.00">35</text>
<polyline fill="none" stroke="black" points="1538.5,-272.5 1538.5,-295.5 "/>
<text text-anchor="middle" x="1566" y="-280.3" font-family="Times,serif" font-size="14.00">NUM</text>
<polyline fill="none" stroke="black" points="1593.5,-272.5 1593.5,-295.5 "/>
<text text-anchor="middle" x="1626" y="-280.3" font-family="Times,serif" font-size="14.00">size=1</text>
<polyline fill="none" stroke="black" points="1503.5,-272.5 1658.5,-272.5 "/>
<text text-anchor="middle" x="1581" y="-257.3" font-family="Times,serif" font-size="14.00">2,71828</text>
</g>
<!-- node34&#45;&gt;node35 -->
<g id="edge68" class="edge">
<title>node34&#45;&gt;node35</title>
<path fill="none" stroke="red" d="M1574.91,-332.37C1574.28,-324.15 1574.1,-314.66 1574.38,-305.73"/>
<polygon fill="red" stroke="red" points="1577.88,-305.78 1574.91,-295.61 1570.89,-305.41 1577.88,-305.78"/>
</g>
<!-- node36 -->
<g id="node36" class="node">
<title>node36</title>
<path fill="peachpuff" stroke="black" d="M1689,-249.5C1689,-249.5 1803,-249.5 1803,-249.5 1809,-249.5 1815,-255.5 1815,-261.5 1815,-261.5 1815,-283.5 1815,-283.5 1815,-289.5 1809,-295.5 1803,-295.5 1803,-295.5 1689,-295.5 1689,-295.5 1683,-295.5 1677,-289.5 1677,-283.5 1677,-283.5 1677,-261.5 1677,-261.5 1677,-255.5 1683,-249.5 1689,-249.5"/>
<text text-anchor="middle" x="1694.5" y="-280.3" font-family="Times,serif" font-size="14.00">36</text>
<polyline fill="none" stroke="black" points="1712,-272.5 1712,-295.5 "/>
<text text-anchor="middle" x="1731" y="-280.3" font-family="Times,serif" font-size="14.00">OP</text>
<polyline fill="none" stroke="black" points="1750,-272.5 1750,-295.5 "/>
<text text-anchor="middle" x="1782.5" y="-280.3" font-family="Times,serif" font-size="14.00">size=5</text>
<polyline fill="none" stroke="black" points="1677,-272.5 1815,-272.5 "/>
<text text-anchor="middle" x="1746" y="-257.3" font-family="Times,serif" font-size="14.00">*</text>
</g>
<!-- node34&#45;&gt;node36 -->
<g id="edge70" class="edge">
<title>node34&#45;&gt;node36</title>
<path fill="none" stroke="green" d="M1620,-332.37C1639.6,-322.37 1663.74,-310.47 1685.64,-300"/>
<polygon fill="green" stroke="green" points="1687.35,-303.06 1694.88,-295.61 1684.34,-296.74 1687.35,-303.06"/>
</g>
<!-- node35&#45;&gt;node34 -->
<g id="edge69" class="edge">
<title>node35&#45;&gt;node34</title>
<path fill="none" stroke="blue" d="M1587.09,-295.61C1587.72,-303.82 1587.9,-313.31 1587.62,-322.25"/>
<polygon fill="blue" stroke="blue" points="1584.12,-322.2 1587.09,-332.37 1591.11,-322.56 1584.12,-322.2"/>
</g>
<!-- node36&#45;&gt;node34 -->
<g id="edge71" class="edge">
<title>node36&#45;&gt;node34</title>
<path fill="none" stroke="blue" d="M1707.06,-295.61C1687.46,-305.6 1663.33,-317.5 1641.41,-327.97"/>
<polygon fill="blue" stroke="blue" points="1639.71,-324.91 1632.18,-332.37 1642.71,-331.23 1639.71,-324.91"/>
</g>
<!-- node37 -->
<g id="node37" class="node">
<title>node37</title>
<path fill="lightyellow" stroke="black" d="M1543,-166.5C1543,-166.5 1665,-166.5 1665,-166.5 1671,-166.5 1677,-172.5 1677,-178.5 1677,-178.5 1677,-200.5 1677,-200.5 1677,-206.5 1671,-212.5 1665,-212.5 1665,-212.5 1543,-212.5 1543,-212.5 1537,-212.5 1531,-206.5 1531,-200.5 1531,-200.5 1531,-178.5 1531,-178.5 1531,-172.5 1537,-166.5 1543,-166.5"/>
<text text-anchor="middle" x="1548.5" y="-197.3" font-family="Times,serif" font-size="14.00">37</text>
<polyline fill="none" stroke="black" points="1566,-189.5 1566,-212.5 "/>
<text text-anchor="middle" x="1589" y="-197.3" font-family="Times,serif" font-size="14.00">VAR</text>
<polyline fill="none" stroke="black" points="1612,-189.5 1612,-212.5 "/>
<text text-anchor="middle" x="1644.5" y="-197.3" font-family="Times,serif" font-size="14.00">size=1</text>
<polyline fill="none" stroke="black" points="1531,-189.5 1677,-189.5 "/>
<text text-anchor="middle" x="1604" y="-174.3" font-family="Times,serif" font-size="14.00">x</text>
</g>
<!-- node36&#45;&gt;node37 -->
<g id="edge72" class="edge">
<title>node36&#45;&gt;node37</title>
<path fill="none" stroke="red" d="M1701.11,-249.37C1683.3,-239.63 1662.98,-228.11 1645.51,-217.84"/>
<polygon fill="red" stroke="red" points="1647.05,-214.69 1636.67,-212.61 1643.49,-220.71 1647.05,-214.69"/>
</g>
<!-- node38 -->
<g id="node38" class="node">
<title>node38</title>
<path fill="peachpuff" stroke="black" d="M1707,-166.5C1707,-166.5 1821,-166.5 1821,-166.5 1827,-166.5 1833,-172.5 1833,-178.5 1833,-178.5 1833,-200.5 1833,-200.5 1833,-206.5 1827,-212.5 1821,-212.5 1821,-212.5 1707,-212.5 1707,-212.5 1701,-212.5 1695,-206.5 1695,-200.5 1695,-200.5 1695,-178.5 1695,-178.5 1695,-172.5 1701,-166.5 1707,-166.5"/>
<text text-anchor="middle" x="1712.5" y="-197.3" font-family="Times,serif" font-size="14.00">38</text>
<polyline fill="none" stroke="black" points="1730,-189.5 1730,-212.5 "/>
<text text-anchor="middle" x="1749" y="-197.3" font-family="Times,serif" font-size="14.00">OP</text>
<polyline fill="none" stroke="black" points="1768,-189.5 1768,-212.5 "/>
<text text-anchor="middle" x="1800.5" y="-197.3" font-family="Times,serif" font-size="14.00">size=3</text>
<polyline fill="none" stroke="black" points="1695,-189.5 1833,-189.5 "/>
<text text-anchor="middle" x="1764" y="-174.3" font-family="Times,serif" font-size="14.00">log</text>
</g>
<!-- node36&#45;&gt;node38 -->
<g id="edge74" class="edge">
<title>node36&#45;&gt;node38</title>
<path fill="none" stroke="green" d="M1744.83,-249.37C1746.03,-241.06 1748,-231.45 1750.29,-222.43"/>
<polygon fill="green" stroke="green" points="1753.72,-223.18 1753,-212.61 1746.97,-221.32 1753.72,-223.18"/>
</g>
<!-- node37&#45;&gt;node36 -->
<g id="edge73" class="edge">
<title>node37&#45;&gt;node36</title>
<path fill="none" stroke="blue" d="M1648.84,-212.61C1666.65,-222.34 1686.97,-233.86 1704.44,-244.13"/>
<polygon fill="blue" stroke="blue" points="1702.9,-247.28 1713.29,-249.37 1706.47,-241.26 1702.9,-247.28"/>
</g>
<!-- node38&#45;&gt;node36 -->
<g id="edge75" class="edge">
<title>node38&#45;&gt;node36</title>
<path fill="none" stroke="blue" d="M1765.18,-212.61C1763.97,-220.91 1762.01,-230.52 1759.72,-239.54"/>
<polygon fill="blue" stroke="blue" points="1756.29,-238.8 1757.01,-249.37 1763.04,-240.66 1756.29,-238.8"/>
</g>
<!-- node39 -->
<g id="node39" class="node">
<title>node39</title>
<path fill="pink" stroke="black" d="M1548.5,-83.5C1548.5,-83.5 1679.5,-83.5 1679.5,-83.5 1685.5,-83.5 1691.5,-89.5 1691.5,-95.5 1691.5,-95.5 1691.5,-117.5 1691.5,-117.5 1691.5,-123.5 1685.5,-129.5 1679.5,-129.5 1679.5,-129.5 1548.5,-129.5 1548.5,-129.5 1542.5,-129.5 1536.5,-123.5 1536.5,-117.5 1536.5,-117.5 1536.5,-95.5 1536.5,-95.5 1536.5,-89.5 1542.5,-83.5 1548.5,-83.5"/>
<text text-anchor="middle" x="1554" y="-114.3" font-family="Times,serif" font-size="14.00">39</text>
<polyline fill="none" stroke="black" points="1571.5,-106.5 1571.5,-129.5 "/>
<text text-anchor="middle" x="1599" y="-114.3" font-family="Times,serif" font-size="14.00">NUM</text>
<polyline fill="none" stroke="black" points="1626.5,-106.5 1626.5,-129.5 "/>
<text text-anchor="middle" x="1659" y="-114.3" font-family="Times,serif" font-size="14.00">size=1</text>
<polyline fill="none" stroke="black" points="1536.5,-106.5 1691.5,-106.5 "/>
<text text-anchor="middle" x="1614" y="-91.3" font-family="Times,serif" font-size="14.00">2,71828</text>
</g>
<!-- node38&#45;&gt;node39 -->
<g id="edge76" class="edge">
<title>node38&#45;&gt;node39</title>
<path fill="none" stroke="red" d="M1716.92,-166.37C1697.98,-156.54 1676.3,-144.89 1657.7,-134.56"/>
<polygon fill="red" stroke="red" points="1659.29,-131.44 1648.85,-129.61 1655.87,-137.54 1659.29,-131.44"/>
</g>
<!-- node40 -->
<g id="node40" class="node">
<title>node40</title>
<path fill="lightyellow" stroke="black" d="M1722,-83.5C1722,-83.5 1844,-83.5 1844,-83.5 1850,-83.5 1856,-89.5 1856,-95.5 1856,-95.5 1856,-117.5 1856,-117.5 1856,-123.5 1850,-129.5 1844,-129.5 1844,-129.5 1722,-129.5 1722,-129.5 1716,-129.5 1710,-123.5 1710,-117.5 1710,-117.5 1710,-95.5 1710,-95.5 1710,-89.5 1716,-83.5 1722,-83.5"/>
<text text-anchor="middle" x="1727.5" y="-114.3" font-family="Times,serif" font-size="14.00">40</text>
<polyline fill="none" stroke="black" points="1745,-106.5 1745,-129.5 "/>
<text text-anchor="middle" x="1768" y="-114.3" font-family="Times,serif" font-size="14.00">VAR</text>
<polyline fill="none" stroke="black" points="1791,-106.5 1791,-129.5 "/>
<text text-anchor="middle" x="1823.5" y="-114.3" font-family="Times,serif" font-size="14.00">size=1</text>
<polyline fill="none" stroke="black" points="1710,-106.5 1856,-106.5 "/>
<text text-anchor="middle" x="1783" y="-91.3" font-family="Times,serif" font-size="14.00">x</text>
</g>
<!-- node38&#45;&gt;node40 -->
<g id="edge78" class="edge">
<title>node38&#45;&gt;node40</title>
<path fill="none" stroke="green" d="M1763.1,-166.37C1764.41,-158.06 1766.49,-148.45 1768.9,-139.43"/>
<polygon fill="green" stroke="green" points="1772.32,-140.18 1771.73,-129.61 1765.59,-138.25 1772.32,-140.18"/>
</g>
<!-- node39&#45;&gt;node38 -->
<g id="edge77" class="edge">
<title>node39&#45;&gt;node38</title>
<path fill="none" stroke="blue" d="M1661.03,-129.61C1679.97,-139.43 1701.65,-151.08 1720.25,-161.41"/>
<polygon fill="blue" stroke="blue" points="1718.67,-164.54 1729.1,-166.37 1722.08,-158.43 1718.67,-164.54"/>
</g>
<!-- node40&#45;&gt;node38 -->
<g id="edge79" class="edge">
<title>node40&#45;&gt;node38</title>
<path fill="none" stroke="blue" d="M1783.9,-129.61C1782.6,-137.91 1780.52,-147.52 1778.11,-156.54"/>
<polygon fill="blue" stroke="blue" points="1774.69,-155.79 1775.28,-166.37 1781.41,-157.72 1774.69,-155.79"/>
</g>
<!-- node41&#45;&gt;node29 -->
<g id="edge81" class="edge">
<title>node41&#45;&gt;node29</title>
<path fill="none" stroke="blue" d="M1920.25,-452.3C1829,-467.47 1674.17,-492.6 1578.61,-507.75"/>
<polygon fill="blue" stroke="blue" points="1578.02,-504.3 1568.69,-509.32 1579.12,-511.22 1578.02,-504.3"/>
</g>
<!-- node42 -->
<g id="node42" class="node">
<title>node42</title>
<path fill="peachpuff" stroke="black" d="M1937,-332.5C1937,-332.5 2051,-332.5 2051,-332.5 2057,-332.5 2063,-338.5 2063,-344.5 2063,-344.5 2063,-366.5 2063,-366.5 2063,-372.5 2057,-378.5 2051,-378.5 2051,-378.5 1937,-378.5 1937,-378.5 1931,-378.5 1925,-372.5 1925,-366.5 1925,-366.5 1925,-344.5 1925,-344.5 1925,-338.5 1931,-332.5 1937,-332.5"/>
<text text-anchor="middle" x="1942.5" y="-363.3" font-family="Times,serif" font-size="14.00">42</text>
<polyline fill="none" stroke="black" points="1960,-355.5 1960,-378.5 "/>
<text text-anchor="middle" x="1979" y="-363.3" font-family="Times,serif" font-size="14.00">OP</text>
<polyline fill="none" stroke="black" points="1998,-355.5 1998,-378.5 "/>
<text text-anchor="middle" x="2030.5" y="-363.3" font-family="Times,serif" font-size="14.00">size=5</text>
<polyline fill="none" stroke="black" points="1925,-355.5 2063,-355.5 "/>
<text text-anchor="middle" x="1994" y="-340.3" font-family="Times,serif" font-size="14.00">*</text>
</g>
<!-- node41&#45;&gt;node42 -->
<g id="edge82" class="edge">
<title>node41&#45;&gt;node42</title>
<path fill="none" stroke="red" d="M1987.91,-415.37C1987.28,-407.15 1987.1,-397.66 1987.38,-388.73"/>
<polygon fill="red" stroke="red" points="1990.88,-388.78 1987.91,-378.61 1983.89,-388.41 1990.88,-388.78"/>
</g>
<!-- node47 -->
<g id="node47" class="node">
<title>node47</title>
<path fill="peachpuff" stroke="black" d="M2179,-332.5C2179,-332.5 2293,-332.5 2293,-332.5 2299,-332.5 2305,-338.5 2305,-344.5 2305,-344.5 2305,-366.5 2305,-366.5 2305,-372.5 2299,-378.5 2293,-378.5 2293,-378.5 2179,-378.5 2179,-378.5 2173,-378.5 2167,-372.5 2167,-366.5 2167,-366.5 2167,-344.5 2167,-344.5 2167,-338.5 2173,-332.5 2179,-332.5"/>
<text text-anchor="middle" x="2184.5" y="-363.3" font-family="Times,serif" font-size="14.00">47</text>
<polyline fill="none" stroke="black" points="2202,-355.5 2202,-378.5 "/>
<text text-anchor="middle" x="2221" y="-363.3" font-family="Times,serif" font-size="14.00">OP</text>
<polyline fill="none" stroke="black" points="2240,-355.5 2240,-378.5 "/>
<text text-anchor="middle" x="2272.5" y="-363.3" font-family="Times,serif" font-size="14.00">size=9</text>
<polyline fill="none" stroke="black" points="2167,-355.5 2305,-355.5 "/>
<text text-anchor="middle" x="2236" y="-340.3" font-family="Times,serif" font-size="14.00">*</text>
</g>
<!-- node41&#45;&gt;node47 -->
<g id="edge92" class="edge">
<title>node41&#45;&gt;node47</title>
<path fill="none" stroke="green" d="M2053.73,-415.47C2084.87,-404.77 2123.33,-391.88 2156.91,-380.88"/>
<polygon fill="green" stroke="green" points="2158.28,-384.12 2166.7,-377.68 2156.1,-377.46 2158.28,-384.12"/>
</g>
<!-- node42&#45;&gt;node41 -->
<g id="edge83" class="edge">
<title>node42&#45;&gt;node41</title>
<path fill="none" stroke="blue" d="M2000.09,-378.61C2000.72,-386.82 2000.9,-396.31 2000.62,-405.25"/>
<polygon fill="blue" stroke="blue" points="1997.12,-405.2 2000.09,-415.37 2004.11,-405.56 1997.12,-405.2"/>
</g>
<!-- node43 -->
<g id="node43" class="node">
<title>node43</title>
<path fill="pink" stroke="black" d="M1845.5,-249.5C1845.5,-249.5 1976.5,-249.5 1976.5,-249.5 1982.5,-249.5 1988.5,-255.5 1988.5,-261.5 1988.5,-261.5 1988.5,-283.5 1988.5,-283.5 1988.5,-289.5 1982.5,-295.5 1976.5,-295.5 1976.5,-295.5 1845.5,-295.5 1845.5,-295.5 1839.5,-295.5 1833.5,-289.5 1833.5,-283.5 1833.5,-283.5 1833.5,-261.5 1833.5,-261.5 1833.5,-255.5 1839.5,-249.5 1845.5,-249.5"/>
<text text-anchor="middle" x="1851" y="-280.3" font-family="Times,serif" font-size="14.00">43</text>
<polyline fill="none" stroke="black" points="1868.5,-272.5 1868.5,-295.5 "/>
<text text-anchor="middle" x="1896" y="-280.3" font-family="Times,serif" font-size="14.00">NUM</text>
<polyline fill="none" stroke="black" points="1923.5,-272.5 1923.5,-295.5 "/>
<text text-anchor="middle" x="1956" y="-280.3" font-family="Times,serif" font-size="14.00">size=1</text>
<polyline fill="none" stroke="black" points="1833.5,-272.5 1988.5,-272.5 "/>
<text text-anchor="middle" x="1911" y="-257.3" font-family="Times,serif" font-size="14.00">1</text>
</g>
<!-- node42&#45;&gt;node43 -->
<g id="edge84" class="edge">
<title>node42&#45;&gt;node43</title>
<path fill="none" stroke="red" d="M1965.23,-332.37C1955.2,-323.26 1944.11,-312.58 1934.54,-302.83"/>
<polygon fill="red" stroke="red" points="1937.03,-300.37 1927.56,-295.61 1931.99,-305.23 1937.03,-300.37"/>
</g>
<!-- node44 -->
<g id="node44" class="node">
<title>node44</title>
<path fill="peachpuff" stroke="black" d="M2019,-249.5C2019,-249.5 2133,-249.5 2133,-249.5 2139,-249.5 2145,-255.5 2145,-261.5 2145,-261.5 2145,-283.5 2145,-283.5 2145,-289.5 2139,-295.5 2133,-295.5 2133,-295.5 2019,-295.5 2019,-295.5 2013,-295.5 2007,-289.5 2007,-283.5 2007,-283.5 2007,-261.5 2007,-261.5 2007,-255.5 2013,-249.5 2019,-249.5"/>
<text text-anchor="middle" x="2024.5" y="-280.3" font-family="Times,serif" font-size="14.00">44</text>
<polyline fill="none" stroke="black" points="2042,-272.5 2042,-295.5 "/>
<text text-anchor="middle" x="2061" y="-280.3" font-family="Times,serif" font-size="14.00">OP</text>
<polyline fill="none" stroke="black" points="2080,-272.5 2080,-295.5 "/>
<text text-anchor="middle" x="2112.5" y="-280.3" font-family="Times,serif" font-size="14.00">size=3</text>
<polyline fill="none" stroke="black" points="2007,-272.5 2145,-272.5 "/>
<text text-anchor="middle" x="2076" y="-257.3" font-family="Times,serif" font-size="14.00">log</text>
</g>
<!-- node42&#45;&gt;node44 -->
<g id="edge86" class="edge">
<title>node42&#45;&gt;node44</title>
<path fill="none" stroke="green" d="M2010.32,-332.37C2018.92,-323.17 2029.71,-312.37 2040.09,-302.55"/>
<polygon fill="green" stroke="green" points="2042.61,-304.99 2047.53,-295.61 2037.83,-299.87 2042.61,-304.99"/>
</g>
<!-- node43&#45;&gt;node42 -->
<g id="edge85" class="edge">
<title>node43&#45;&gt;node42</title>
<path fill="none" stroke="blue" d="M1939.74,-295.61C1949.77,-304.71 1960.86,-315.39 1970.43,-325.14"/>
<polygon fill="blue" stroke="blue" points="1967.95,-327.6 1977.41,-332.37 1972.98,-322.74 1967.95,-327.6"/>
</g>
<!-- node44&#45;&gt;node42 -->
<g id="edge87" class="edge">
<title>node44&#45;&gt;node42</title>
<path fill="none" stroke="blue" d="M2059.71,-295.61C2051.11,-304.8 2040.32,-315.6 2029.94,-325.42"/>
<polygon fill="blue" stroke="blue" points="2027.42,-322.99 2022.5,-332.37 2032.2,-328.1 2027.42,-322.99"/>
</g>
<!-- node45 -->
<g id="node45" class="node">
<title>node45</title>
<path fill="pink" stroke="black" d="M1936.5,-166.5C1936.5,-166.5 2067.5,-166.5 2067.5,-166.5 2073.5,-166.5 2079.5,-172.5 2079.5,-178.5 2079.5,-178.5 2079.5,-200.5 2079.5,-200.5 2079.5,-206.5 2073.5,-212.5 2067.5,-212.5 2067.5,-212.5 1936.5,-212.5 1936.5,-212.5 1930.5,-212.5 1924.5,-206.5 1924.5,-200.5 1924.5,-200.5 1924.5,-178.5 1924.5,-178.5 1924.5,-172.5 1930.5,-166.5 1936.5,-166.5"/>
<text text-anchor="middle" x="1942" y="-197.3" font-family="Times,serif" font-size="14.00">45</text>
<polyline fill="none" stroke="black" points="1959.5,-189.5 1959.5,-212.5 "/>
<text text-anchor="middle" x="1987" y="-197.3" font-family="Times,serif" font-size="14.00">NUM</text>
<polyline fill="none" stroke="black" points="2014.5,-189.5 2014.5,-212.5 "/>
<text text-anchor="middle" x="2047" y="-197.3" font-family="Times,serif" font-size="14.00">size=1</text>
<polyline fill="none" stroke="black" points="1924.5,-189.5 2079.5,-189.5 "/>
<text text-anchor="middle" x="2002" y="-174.3" font-family="Times,serif" font-size="14.00">2,71828</text>
</g>
<!-- node44&#45;&gt;node45 -->
<g id="edge88" class="edge">
<title>node44&#45;&gt;node45</title>
<path fill="none" stroke="red" d="M2049.69,-249.37C2040.84,-240.44 2031.16,-230 2022.78,-220.41"/>
<polygon fill="red" stroke="red" points="2025.27,-217.93 2016.11,-212.61 2019.95,-222.48 2025.27,-217.93"/>
</g>
<!-- node46 -->
<g id="node46" class="node">
<title>node46</title>
<path fill="lightyellow" stroke="black" d="M2110,-166.5C2110,-166.5 2232,-166.5 2232,-166.5 2238,-166.5 2244,-172.5 2244,-178.5 2244,-178.5 2244,-200.5 2244,-200.5 2244,-206.5 2238,-212.5 2232,-212.5 2232,-212.5 2110,-212.5 2110,-212.5 2104,-212.5 2098,-206.5 2098,-200.5 2098,-200.5 2098,-178.5 2098,-178.5 2098,-172.5 2104,-166.5 2110,-166.5"/>
<text text-anchor="middle" x="2115.5" y="-197.3" font-family="Times,serif" font-size="14.00">46</text>
<polyline fill="none" stroke="black" points="2133,-189.5 2133,-212.5 "/>
<text text-anchor="middle" x="2156" y="-197.3" font-family="Times,serif" font-size="14.00">VAR</text>
<polyline fill="none" stroke="black" points="2179,-189.5 2179,-212.5 "/>
<text text-anchor="middle" x="2211.5" y="-197.3" font-family="Times,serif" font-size="14.00">size=1</text>
<polyline fill="none" stroke="black" points="2098,-189.5 2244,-189.5 "/>
<text text-anchor="middle" x="2171" y="-174.3" font-family="Times,serif" font-size="14.00">x</text>
</g>
<!-- node44&#45;&gt;node46 -->
<g id="edge90" class="edge">
<title>node44&#45;&gt;node46</title>
<path fill="none" stroke="green" d="M2095.87,-249.37C2106.14,-239.99 2118.96,-228.95 2131.12,-218.98"/>
<polygon fill="green" stroke="green" points="2133.42,-221.62 2138.98,-212.61 2129.01,-216.18 2133.42,-221.62"/>
</g>
<!-- node45&#45;&gt;node44 -->
<g id="edge89" class="edge">
<title>node45&#45;&gt;node44</title>
<path fill="none" stroke="blue" d="M2028.29,-212.61C2037.13,-221.53 2046.82,-231.97 2055.19,-241.56"/>
<polygon fill="blue" stroke="blue" points="2052.71,-244.04 2061.87,-249.37 2058.03,-239.49 2052.71,-244.04"/>
</g>
<!-- node46&#45;&gt;node44 -->
<g id="edge91" class="edge">
<title>node46&#45;&gt;node44</title>
<path fill="none" stroke="blue" d="M2151.16,-212.61C2140.89,-221.98 2128.07,-233.02 2115.91,-242.99"/>
<polygon fill="blue" stroke="blue" points="2113.62,-240.35 2108.05,-249.37 2118.02,-245.79 2113.62,-240.35"/>
</g>
<!-- node47&#45;&gt;node41 -->
<g id="edge93" class="edge">
<title>node47&#45;&gt;node41</title>
<path fill="none" stroke="blue" d="M2176.29,-378.52C2145.89,-388.97 2108.52,-401.5 2075.52,-412.32"/>
<polygon fill="blue" stroke="blue" points="2074.31,-409.04 2065.89,-415.47 2076.48,-415.69 2074.31,-409.04"/>
</g>
<!-- node48 -->
<g id="node48" class="node">
<title>node48</title>
<path fill="lightyellow" stroke="black" d="M2175,-249.5C2175,-249.5 2297,-249.5 2297,-249.5 2303,-249.5 2309,-255.5 2309,-261.5 2309,-261.5 2309,-283.5 2309,-283.5 2309,-289.5 2303,-295.5 2297,-295.5 2297,-295.5 2175,-295.5 2175,-295.5 2169,-295.5 2163,-289.5 2163,-283.5 2163,-283.5 2163,-261.5 2163,-261.5 2163,-255.5 2169,-249.5 2175,-249.5"/>
<text text-anchor="middle" x="2180.5" y="-280.3" font-family="Times,serif" font-size="14.00">48</text>
<polyline fill="none" stroke="black" points="2198,-272.5 2198,-295.5 "/>
<text text-anchor="middle" x="2221" y="-280.3" font-family="Times,serif" font-size="14.00">VAR</text>
<polyline fill="none" stroke="black" points="2244,-272.5 2244,-295.5 "/>
<text text-anchor="middle" x="2276.5" y="-280.3" font-family="Times,serif" font-size="14.00">size=1</text>
<polyline fill="none" stroke="black" points="2163,-272.5 2309,-272.5 "/>
<text text-anchor="middle" x="2236" y="-257.3" font-family="Times,serif" font-size="14.00">x</text>
</g>
<!-- node47&#45;&gt;node48 -->
<g id="edge94" class="edge">
<title>node47&#45;&gt;node48</title>
<path fill="none" stroke="red" d="M2229.91,-332.37C2229.28,-324.15 2229.1,-314.66 2229.38,-305.73"/>
<polygon fill="red" stroke="red" points="2232.88,-305.78 2229.91,-295.61 2225.89,-305.41 2232.88,-305.78"/>
</g>
<!-- node49 -->
<g id="node49" class="node">
<title>node49</title>
<path fill="peachpuff" stroke="black" d="M2339,-249.5C2339,-249.5 2453,-249.5 2453,-249.5 2459,-249.5 2465,-255.5 2465,-261.5 2465,-261.5 2465,-283.5 2465,-283.5 2465,-289.5 2459,-295.5 2453,-295.5 2453,-295.5 2339,-295.5 2339,-295.5 2333,-295.5 2327,-289.5 2327,-283.5 2327,-283.5 2327,-261.5 2327,-261.5 2327,-255.5 2333,-249.5 2339,-249.5"/>
<text text-anchor="middle" x="2344.5" y="-280.3" font-family="Times,serif" font-size="14.00">49</text>
<polyline fill="none" stroke="black" points="2362,-272.5 2362,-295.5 "/>
<text text-anchor="middle" x="2381" y="-280.3" font-family="Times,serif" font-size="14.00">OP</text>
<polyline fill="none" stroke="black" points="2400,-272.5 2400,-295.5 "/>
<text text-anchor="middle" x="2432.5" y="-280.3" font-family="Times,serif" font-size="14.00">size=7</text>
<polyline fill="none" stroke="black" points="2327,-272.5 2465,-272.5 "/>
<text text-anchor="middle" x="2396" y="-257.3" font-family="Times,serif" font-size="14.00">/</text>
</g>
<!-- node47&#45;&gt;node49 -->
<g id="edge96" class="edge">
<title>node47&#45;&gt;node49</title>
<path fill="none" stroke="green" d="M2273.63,-332.37C2292.53,-322.41 2315.81,-310.58 2337,-300.14"/>
<polygon fill="green" stroke="green" points="2338.8,-303.15 2346.24,-295.61 2335.72,-296.86 2338.8,-303.15"/>
</g>
<!-- node48&#45;&gt;node47 -->
<g id="edge95" class="edge">
<title>node48&#45;&gt;node47</title>
<path fill="none" stroke="blue" d="M2242.09,-295.61C2242.72,-303.82 2242.9,-313.31 2242.62,-322.25"/>
<polygon fill="blue" stroke="blue" points="2239.12,-322.2 2242.09,-332.37 2246.11,-322.56 2239.12,-322.2"/>
</g>
<!-- node49&#45;&gt;node47 -->
<g id="edge97" class="edge">
<title>node49&#45;&gt;node47</title>
<path fill="none" stroke="blue" d="M2358.42,-295.61C2339.53,-305.56 2316.25,-317.39 2295.06,-327.83"/>
<polygon fill="blue" stroke="blue" points="2293.25,-324.82 2285.81,-332.37 2296.33,-331.11 2293.25,-324.82"/>
</g>
<!-- node50 -->
<g id="node50" class="node">
<title>node50</title>
<path fill="pink" stroke="black" d="M2311.5,-166.5C2311.5,-166.5 2442.5,-166.5 2442.5,-166.5 2448.5,-166.5 2454.5,-172.5 2454.5,-178.5 2454.5,-178.5 2454.5,-200.5 2454.5,-200.5 2454.5,-206.5 2448.5,-212.5 2442.5,-212.5 2442.5,-212.5 2311.5,-212.5 2311.5,-212.5 2305.5,-212.5 2299.5,-206.5 2299.5,-200.5 2299.5,-200.5 2299.5,-178.5 2299.5,-178.5 2299.5,-172.5 2305.5,-166.5 2311.5,-166.5"/>
<text text-anchor="middle" x="2317" y="-197.3" font-family="Times,serif" font-size="14.00">50</text>
<polyline fill="none" stroke="black" points="2334.5,-189.5 2334.5,-212.5 "/>
<text text-anchor="middle" x="2362" y="-197.3" font-family="Times,serif" font-size="14.00">NUM</text>
<polyline fill="none" stroke="black" points="2389.5,-189.5 2389.5,-212.5 "/>
<text text-anchor="middle" x="2422" y="-197.3" font-family="Times,serif" font-size="14.00">size=1</text>
<polyline fill="none" stroke="black" points="2299.5,-189.5 2454.5,-189.5 "/>
<text text-anchor="middle" x="2377" y="-174.3" font-family="Times,serif" font-size="14.00">1</text>
</g>
<!-- node49&#45;&gt;node50 -->
<g id="edge98" class="edge">
<title>node49&#45;&gt;node50</title>
<path fill="none" stroke="red" d="M2384.72,-249.37C2382.16,-241.15 2379.75,-231.66 2377.94,-222.73"/>
<polygon fill="red" stroke="red" points="2381.33,-221.82 2376.1,-212.61 2374.44,-223.07 2381.33,-221.82"/>
</g>
<!-- node51 -->
<g id="node51" class="node">
<title>node51</title>
<path fill="peachpuff" stroke="black" d="M2485,-166.5C2485,-166.5 2599,-166.5 2599,-166.5 2605,-166.5 2611,-172.5 2611,-178.5 2611,-178.5 2611,-200.5 2611,-200.5 2611,-206.5 2605,-212.5 2599,-212.5 2599,-212.5 2485,-212.5 2485,-212.5 2479,-212.5 2473,-206.5 2473,-200.5 2473,-200.5 2473,-178.5 2473,-178.5 2473,-172.5 2479,-166.5 2485,-166.5"/>
<text text-anchor="middle" x="2490.5" y="-197.3" font-family="Times,serif" font-size="14.00">51</text>
<polyline fill="none" stroke="black" points="2508,-189.5 2508,-212.5 "/>
<text text-anchor="middle" x="2527" y="-197.3" font-family="Times,serif" font-size="14.00">OP</text>
<polyline fill="none" stroke="black" points="2546,-189.5 2546,-212.5 "/>
<text text-anchor="middle" x="2578.5" y="-197.3" font-family="Times,serif" font-size="14.00">size=5</text>
<polyline fill="none" stroke="black" points="2473,-189.5 2611,-189.5 "/>
<text text-anchor="middle" x="2542" y="-174.3" font-family="Times,serif" font-size="14.00">*</text>
</g>
<!-- node49&#45;&gt;node51 -->
<g id="edge100" class="edge">
<title>node49&#45;&gt;node51</title>
<path fill="none" stroke="green" d="M2429.8,-249.37C2446.83,-239.5 2467.84,-227.79 2487.08,-217.42"/>
<polygon fill="green" stroke="green" points="2488.9,-220.41 2496.06,-212.61 2485.6,-214.24 2488.9,-220.41"/>
</g>
<!-- node50&#45;&gt;node49 -->
<g id="edge99" class="edge">
<title>node50&#45;&gt;node49</title>
<path fill="none" stroke="blue" d="M2388.27,-212.61C2390.83,-220.82 2393.24,-230.31 2395.06,-239.25"/>
<polygon fill="blue" stroke="blue" points="2391.67,-240.15 2396.9,-249.37 2398.55,-238.9 2391.67,-240.15"/>
</g>
<!-- node51&#45;&gt;node49 -->
<g id="edge101" class="edge">
<title>node51&#45;&gt;node49</title>
<path fill="none" stroke="blue" d="M2508.24,-212.61C2491.22,-222.47 2470.22,-234.18 2450.97,-244.55"/>
<polygon fill="blue" stroke="blue" points="2449.15,-241.56 2441.99,-249.37 2452.45,-247.73 2449.15,-241.56"/>
</g>
<!-- node52 -->
<g id="node52" class="node">
<title>node52</title>
<path fill="peachpuff" stroke="black" d="M2405,-83.5C2405,-83.5 2519,-83.5 2519,-83.5 2525,-83.5 2531,-89.5 2531,-95.5 2531,-95.5 2531,-117.5 2531,-117.5 2531,-123.5 2525,-129.5 2519,-129.5 2519,-129.5 2405,-129.5 2405,-129.5 2399,-129.5 2393,-123.5 2393,-117.5 2393,-117.5 2393,-95.5 2393,-95.5 2393,-89.5 2399,-83.5 2405,-83.5"/>
<text text-anchor="middle" x="2410.5" y="-114.3" font-family="Times,serif" font-size="14.00">52</text>
<polyline fill="none" stroke="black" points="2428,-106.5 2428,-129.5 "/>
<text text-anchor="middle" x="2447" y="-114.3" font-family="Times,serif" font-size="14.00">OP</text>
<polyline fill="none" stroke="black" points="2466,-106.5 2466,-129.5 "/>
<text text-anchor="middle" x="2498.5" y="-114.3" font-family="Times,serif" font-size="14.00">size=3</text>
<polyline fill="none" stroke="black" points="2393,-106.5 2531,-106.5 "/>
<text text-anchor="middle" x="2462" y="-91.3" font-family="Times,serif" font-size="14.00">log</text>
</g>
<!-- node51&#45;&gt;node52 -->
<g id="edge102" class="edge">
<title>node51&#45;&gt;node52</title>
<path fill="none" stroke="red" d="M2514.05,-166.37C2504.45,-157.35 2493.87,-146.79 2484.73,-137.12"/>
<polygon fill="red" stroke="red" points="2487.12,-134.55 2477.75,-129.61 2481.99,-139.32 2487.12,-134.55"/>
</g>
<!-- node55 -->
<g id="node55" class="node">
<title>node55</title>
<path fill="lightyellow" stroke="black" d="M2561,-83.5C2561,-83.5 2683,-83.5 2683,-83.5 2689,-83.5 2695,-89.5 2695,-95.5 2695,-95.5 2695,-117.5 2695,-117.5 2695,-123.5 2689,-129.5 2683,-129.5 2683,-129.5 2561,-129.5 2561,-129.5 2555,-129.5 2549,-123.5 2549,-117.5 2549,-117.5 2549,-95.5 2549,-95.5 2549,-89.5 2555,-83.5 2561,-83.5"/>
<text text-anchor="middle" x="2566.5" y="-114.3" font-family="Times,serif" font-size="14.00">55</text>
<polyline fill="none" stroke="black" points="2584,-106.5 2584,-129.5 "/>
<text text-anchor="middle" x="2607" y="-114.3" font-family="Times,serif" font-size="14.00">VAR</text>
<polyline fill="none" stroke="black" points="2630,-106.5 2630,-129.5 "/>
<text text-anchor="middle" x="2662.5" y="-114.3" font-family="Times,serif" font-size="14.00">size=1</text>
<polyline fill="none" stroke="black" points="2549,-106.5 2695,-106.5 "/>
<text text-anchor="middle" x="2622" y="-91.3" font-family="Times,serif" font-size="14.00">x</text>
</g>
<!-- node51&#45;&gt;node55 -->
<g id="edge108" class="edge">
<title>node51&#45;&gt;node55</title>
<path fill="none" stroke="green" d="M2557.77,-166.37C2566.15,-157.17 2576.67,-146.37 2586.81,-136.55"/>
<polygon fill="green" stroke="green" points="2589.26,-139.04 2594.08,-129.61 2584.43,-133.98 2589.26,-139.04"/>
</g>
<!-- node52&#45;&gt;node51 -->
<g id="edge103" class="edge">
<title>node52&#45;&gt;node51</title>
<path fill="none" stroke="blue" d="M2489.92,-129.61C2499.52,-138.62 2510.1,-149.18 2519.25,-158.85"/>
<polygon fill="blue" stroke="blue" points="2516.86,-161.42 2526.23,-166.37 2521.99,-156.66 2516.86,-161.42"/>
</g>
<!-- node53 -->
<g id="node53" class="node">
<title>node53</title>
<path fill="pink" stroke="black" d="M2309.5,-0.5C2309.5,-0.5 2440.5,-0.5 2440.5,-0.5 2446.5,-0.5 2452.5,-6.5 2452.5,-12.5 2452.5,-12.5 2452.5,-34.5 2452.5,-34.5 2452.5,-40.5 2446.5,-46.5 2440.5,-46.5 2440.5,-46.5 2309.5,-46.5 2309.5,-46.5 2303.5,-46.5 2297.5,-40.5 2297.5,-34.5 2297.5,-34.5 2297.5,-12.5 2297.5,-12.5 2297.5,-6.5 2303.5,-0.5 2309.5,-0.5"/>
<text text-anchor="middle" x="2315" y="-31.3" font-family="Times,serif" font-size="14.00">53</text>
<polyline fill="none" stroke="black" points="2332.5,-23.5 2332.5,-46.5 "/>
<text text-anchor="middle" x="2360" y="-31.3" font-family="Times,serif" font-size="14.00">NUM</text>
<polyline fill="none" stroke="black" points="2387.5,-23.5 2387.5,-46.5 "/>
<text text-anchor="middle" x="2420" y="-31.3" font-family="Times,serif" font-size="14.00">size=1</text>
<polyline fill="none" stroke="black" points="2297.5,-23.5 2452.5,-23.5 "/>
<text text-anchor="middle" x="2375" y="-8.3" font-family="Times,serif" font-size="14.00">2,71828</text>
</g>
<!-- node52&#45;&gt;node53 -->
<g id="edge104" class="edge">
<title>node52&#45;&gt;node53</title>
<path fill="none" stroke="red" d="M2432.14,-83.37C2421.65,-74.26 2410.04,-63.58 2399.99,-53.83"/>
<polygon fill="red" stroke="red" points="2402.24,-51.13 2392.66,-46.61 2397.32,-56.12 2402.24,-51.13"/>
</g>
<!-- node54 -->
<g id="node54" class="node">
<title>node54</title>
<path fill="pink" stroke="black" d="M2482.5,-0.5C2482.5,-0.5 2613.5,-0.5 2613.5,-0.5 2619.5,-0.5 2625.5,-6.5 2625.5,-12.5 2625.5,-12.5 2625.5,-34.5 2625.5,-34.5 2625.5,-40.5 2619.5,-46.5 2613.5,-46.5 2613.5,-46.5 2482.5,-46.5 2482.5,-46.5 2476.5,-46.5 2470.5,-40.5 2470.5,-34.5 2470.5,-34.5 2470.5,-12.5 2470.5,-12.5 2470.5,-6.5 2476.5,-0.5 2482.5,-0.5"/>
<text text-anchor="middle" x="2488" y="-31.3" font-family="Times,serif" font-size="14.00">54</text>
<polyline fill="none" stroke="black" points="2505.5,-23.5 2505.5,-46.5 "/>
<text text-anchor="middle" x="2533" y="-31.3" font-family="Times,serif" font-size="14.00">NUM</text>
<polyline fill="none" stroke="black" points="2560.5,-23.5 2560.5,-46.5 "/>
<text text-anchor="middle" x="2593" y="-31.3" font-family="Times,serif" font-size="14.00">size=1</text>
<polyline fill="none" stroke="black" points="2470.5,-23.5 2625.5,-23.5 "/>
<text text-anchor="middle" x="2548" y="-8.3" font-family="Times,serif" font-size="14.00">2,71828</text>
</g>
<!-- node52&#45;&gt;node54 -->
<g id="edge106" class="edge">
<title>node52&#45;&gt;node54</title>
<path fill="none" stroke="green" d="M2479.41,-83.37C2488.55,-74.08 2500.02,-63.16 2510.97,-53.26"/>
<polygon fill="green" stroke="green" points="2513.3,-55.87 2518.44,-46.61 2508.65,-50.65 2513.3,-55.87"/>
</g>
<!-- node53&#45;&gt;node52 -->
<g id="edge105" class="edge">
<title>node53&#45;&gt;node52</title>
<path fill="none" stroke="blue" d="M2404.83,-46.61C2415.31,-55.71 2426.93,-66.39 2436.98,-76.14"/>
<polygon fill="blue" stroke="blue" points="2434.74,-78.84 2444.32,-83.37 2439.65,-73.85 2434.74,-78.84"/>
</g>
<!-- node54&#45;&gt;node52 -->
<g id="edge107" class="edge">
<title>node54&#45;&gt;node52</title>
<path fill="none" stroke="blue" d="M2530.62,-46.61C2521.48,-55.89 2510.02,-66.81 2499.06,-76.71"/>
<polygon fill="blue" stroke="blue" points="2496.73,-74.1 2491.59,-83.37 2501.38,-79.33 2496.73,-74.1"/>
</g>
<!-- node55&#45;&gt;node51 -->
<g id="edge109" class="edge">
<title>node55&#45;&gt;node51</title>
<path fill="none" stroke="blue" d="M2606.25,-129.61C2597.88,-138.8 2587.36,-149.6 2577.22,-159.42"/>
<polygon fill="blue" stroke="blue" points="2574.77,-156.93 2569.95,-166.37 2579.6,-161.99 2574.77,-156.93"/>
</g>
</g>
</svg>
