<?xml version="1.0" encoding="UTF-8" standalone="no"?>
<!DOCTYPE svg PUBLIC "-//W3C//DTD SVG 1.1//EN"
 "http://www.w3.org/Graphics/SVG/1.1/DTD/svg11.dtd">
<!-- Generated by graphviz version 2.43.0 (0)
 -->
<!-- Title: %3 Pages: 1 -->
<svg width="1322pt" height="304pt"
 viewBox="0.00 0.00 1322.00 304.00" xmlns="http://www.w3.org/2000/svg" xmlns:xlink="http://www.w3.org/1999/xlink">
<g id="graph0" class="graph" transform="scale(1 1) rotate(0) translate(4 300)">
<title>%3</title>
<polygon fill="white" stroke="transparent" points="-4,4 -4,-300 1318,-300 1318,4 -4,4"/>
<!-- node1 -->
<g id="node1" class="node">
<title>node1</title>
<path fill="peachpuff" stroke="black" d="M584,-249.5C584,-249.5 698,-249.5 698,-249.5 704,-249.5 710,-255.5 710,-261.5 710,-261.5 710,-283.5 710,-283.5 710,-289.5 704,-295.5 698,-295.5 698,-295.5 584,-295.5 584,-295.5 578,-295.5 572,-289.5 572,-283.5 572,-283.5 572,-261.5 572,-261.5 572,-255.5 578,-249.5 584,-249.5"/>
<text text-anchor="middle" x="585" y="-280.3" font-family="Times,serif" font-size="14.00">1</text>
<polyline fill="none" stroke="black" points="598,-272.5 598,-295.5 "/>
<text text-anchor="middle" x="617" y="-280.3" font-family="Times,serif" font-size="14.00">OP</text>
<polyline fill="none" stroke="black" points="636,-272.5 636,-295.5 "/>
<text text-anchor="middle" x="673" y="-280.3" font-family="Times,serif" font-size="14.00">size=15</text>
<polyline fill="none" stroke="black" points="572,-272.5 710,-272.5 "/>
<text text-anchor="middle" x="641" y="-257.3" font-family="Times,serif" font-size="14.00">/</text>
</g>
<!-- node1&#45;&gt;node1 -->
<g id="edge1" class="edge">
<title>node1&#45;&gt;node1</title>
<path fill="none" stroke="blue" d="M710.27,-286.52C720.83,-284.38 728,-279.71 728,-272.5 728,-267.77 724.91,-264.13 719.81,-261.58"/>
<polygon fill="blue" stroke="blue" points="720.87,-258.25 710.27,-258.48 718.7,-264.9 720.87,-258.25"/>
</g>
<!-- node2 -->
<g id="node2" class="node">
<title>node2</title>
<path fill="peachpuff" stroke="black" d="M422.5,-166.5C422.5,-166.5 527.5,-166.5 527.5,-166.5 533.5,-166.5 539.5,-172.5 539.5,-178.5 539.5,-178.5 539.5,-200.5 539.5,-200.5 539.5,-206.5 533.5,-212.5 527.5,-212.5 527.5,-212.5 422.5,-212.5 422.5,-212.5 416.5,-212.5 410.5,-206.5 410.5,-200.5 410.5,-200.5 410.5,-178.5 410.5,-178.5 410.5,-172.5 416.5,-166.5 422.5,-166.5"/>
<text text-anchor="middle" x="423.5" y="-197.3" font-family="Times,serif" font-size="14.00">2</text>
<polyline fill="none" stroke="black" points="436.5,-189.5 436.5,-212.5 "/>
<text text-anchor="middle" x="455.5" y="-197.3" font-family="Times,serif" font-size="14.00">OP</text>
<polyline fill="none" stroke="black" points="474.5,-189.5 474.5,-212.5 "/>
<text text-anchor="middle" x="507" y="-197.3" font-family="Times,serif" font-size="14.00">size=7</text>
<polyline fill="none" stroke="black" points="410.5,-189.5 539.5,-189.5 "/>
<text text-anchor="middle" x="475" y="-174.3" font-family="Times,serif" font-size="14.00">+</text>
</g>
<!-- node1&#45;&gt;node2 -->
<g id="edge2" class="edge">
<title>node1&#45;&gt;node2</title>
<path fill="none" stroke="red" d="M589.55,-249.37C568.38,-239.41 544.03,-227.58 523.21,-217.14"/>
<polygon fill="red" stroke="red" points="524.72,-213.98 514.22,-212.61 521.57,-220.23 524.72,-213.98"/>
</g>
<!-- node9 -->
<g id="node9" class="node">
<title>node9</title>
<path fill="peachpuff" stroke="black" d="M759.5,-166.5C759.5,-166.5 864.5,-166.5 864.5,-166.5 870.5,-166.5 876.5,-172.5 876.5,-178.5 876.5,-178.5 876.5,-200.5 876.5,-200.5 876.5,-206.5 870.5,-212.5 864.5,-212.5 864.5,-212.5 759.5,-212.5 759.5,-212.5 753.5,-212.5 747.5,-206.5 747.5,-200.5 747.5,-200.5 747.5,-178.5 747.5,-178.5 747.5,-172.5 753.5,-166.5 759.5,-166.5"/>
<text text-anchor="middle" x="760.5" y="-197.3" font-family="Times,serif" font-size="14.00">9</text>
<polyline fill="none" stroke="black" points="773.5,-189.5 773.5,-212.5 "/>
<text text-anchor="middle" x="792.5" y="-197.3" font-family="Times,serif" font-size="14.00">OP</text>
<polyline fill="none" stroke="black" points="811.5,-189.5 811.5,-212.5 "/>
<text text-anchor="middle" x="844" y="-197.3" font-family="Times,serif" font-size="14.00">size=7</text>
<polyline fill="none" stroke="black" points="747.5,-189.5 876.5,-189.5 "/>
<text text-anchor="middle" x="812" y="-174.3" font-family="Times,serif" font-size="14.00">*</text>
</g>
<!-- node1&#45;&gt;node9 -->
<g id="edge16" class="edge">
<title>node1&#45;&gt;node9</title>
<path fill="none" stroke="green" d="M681.64,-249.37C702.07,-239.32 727.22,-227.36 749.99,-216.86"/>
<polygon fill="green" stroke="green" points="751.61,-219.96 759.24,-212.61 748.69,-213.6 751.61,-219.96"/>
</g>
<!-- node2&#45;&gt;node1 -->
<g id="edge3" class="edge">
<title>node2&#45;&gt;node1</title>
<path fill="none" stroke="blue" d="M526.39,-212.61C547.56,-222.56 571.91,-234.39 592.74,-244.83"/>
<polygon fill="blue" stroke="blue" points="591.23,-247.99 601.73,-249.37 594.38,-241.74 591.23,-247.99"/>
</g>
<!-- node3 -->
<g id="node3" class="node">
<title>node3</title>
<path fill="peachpuff" stroke="black" d="M180.5,-83.5C180.5,-83.5 285.5,-83.5 285.5,-83.5 291.5,-83.5 297.5,-89.5 297.5,-95.5 297.5,-95.5 297.5,-117.5 297.5,-117.5 297.5,-123.5 291.5,-129.5 285.5,-129.5 285.5,-129.5 180.5,-129.5 180.5,-129.5 174.5,-129.5 168.5,-123.5 168.5,-117.5 168.5,-117.5 168.5,-95.5 168.5,-95.5 168.5,-89.5 174.5,-83.5 180.5,-83.5"/>
<text text-anchor="middle" x="181.5" y="-114.3" font-family="Times,serif" font-size="14.00">3</text>
<polyline fill="none" stroke="black" points="194.5,-106.5 194.5,-129.5 "/>
<text text-anchor="middle" x="213.5" y="-114.3" font-family="Times,serif" font-size="14.00">OP</text>
<polyline fill="none" stroke="black" points="232.5,-106.5 232.5,-129.5 "/>
<text text-anchor="middle" x="265" y="-114.3" font-family="Times,serif" font-size="14.00">size=3</text>
<polyline fill="none" stroke="black" points="168.5,-106.5 297.5,-106.5 "/>
<text text-anchor="middle" x="233" y="-91.3" font-family="Times,serif" font-size="14.00">*</text>
</g>
<!-- node2&#45;&gt;node3 -->
<g id="edge4" class="edge">
<title>node2&#45;&gt;node3</title>
<path fill="none" stroke="red" d="M410.22,-168.79C377.02,-158.01 336.6,-144.52 302.73,-132.95"/>
<polygon fill="red" stroke="red" points="303.5,-129.52 292.9,-129.59 301.23,-136.14 303.5,-129.52"/>
</g>
<!-- node6 -->
<g id="node6" class="node">
<title>node6</title>
<path fill="peachpuff" stroke="black" d="M422.5,-83.5C422.5,-83.5 527.5,-83.5 527.5,-83.5 533.5,-83.5 539.5,-89.5 539.5,-95.5 539.5,-95.5 539.5,-117.5 539.5,-117.5 539.5,-123.5 533.5,-129.5 527.5,-129.5 527.5,-129.5 422.5,-129.5 422.5,-129.5 416.5,-129.5 410.5,-123.5 410.5,-117.5 410.5,-117.5 410.5,-95.5 410.5,-95.5 410.5,-89.5 416.5,-83.5 422.5,-83.5"/>
<text text-anchor="middle" x="423.5" y="-114.3" font-family="Times,serif" font-size="14.00">6</text>
<polyline fill="none" stroke="black" points="436.5,-106.5 436.5,-129.5 "/>
<text text-anchor="middle" x="455.5" y="-114.3" font-family="Times,serif" font-size="14.00">OP</text>
<polyline fill="none" stroke="black" points="474.5,-106.5 474.5,-129.5 "/>
<text text-anchor="middle" x="507" y="-114.3" font-family="Times,serif" font-size="14.00">size=3</text>
<polyline fill="none" stroke="black" points="410.5,-106.5 539.5,-106.5 "/>
<text text-anchor="middle" x="475" y="-91.3" font-family="Times,serif" font-size="14.00">*</text>
</g>
<!-- node2&#45;&gt;node6 -->
<g id="edge10" class="edge">
<title>node2&#45;&gt;node6</title>
<path fill="none" stroke="green" d="M468.91,-166.37C468.28,-158.15 468.1,-148.66 468.38,-139.73"/>
<polygon fill="green" stroke="green" points="471.88,-139.78 468.91,-129.61 464.89,-139.41 471.88,-139.78"/>
</g>
<!-- node3&#45;&gt;node2 -->
<g id="edge5" class="edge">
<title>node3&#45;&gt;node2</title>
<path fill="none" stroke="blue" d="M297.65,-127.17C330.93,-137.98 371.48,-151.5 405.43,-163.1"/>
<polygon fill="blue" stroke="blue" points="404.68,-166.54 415.27,-166.47 406.95,-159.92 404.68,-166.54"/>
</g>
<!-- node4 -->
<g id="node4" class="node">
<title>node4</title>
<path fill="pink" stroke="black" d="M12,-0.5C12,-0.5 134,-0.5 134,-0.5 140,-0.5 146,-6.5 146,-12.5 146,-12.5 146,-34.5 146,-34.5 146,-40.5 140,-46.5 134,-46.5 134,-46.5 12,-46.5 12,-46.5 6,-46.5 0,-40.5 0,-34.5 0,-34.5 0,-12.5 0,-12.5 0,-6.5 6,-0.5 12,-0.5"/>
<text text-anchor="middle" x="13" y="-31.3" font-family="Times,serif" font-size="14.00">4</text>
<polyline fill="none" stroke="black" points="26,-23.5 26,-46.5 "/>
<text text-anchor="middle" x="53.5" y="-31.3" font-family="Times,serif" font-size="14.00">NUM</text>
<polyline fill="none" stroke="black" points="81,-23.5 81,-46.5 "/>
<text text-anchor="middle" x="113.5" y="-31.3" font-family="Times,serif" font-size="14.00">size=1</text>
<polyline fill="none" stroke="black" points="0,-23.5 146,-23.5 "/>
<text text-anchor="middle" x="73" y="-8.3" font-family="Times,serif" font-size="14.00">0</text>
</g>
<!-- node3&#45;&gt;node4 -->
<g id="edge6" class="edge">
<title>node3&#45;&gt;node4</title>
<path fill="none" stroke="red" d="M183.19,-83.37C162.85,-73.46 139.49,-61.68 119.5,-51.28"/>
<polygon fill="red" stroke="red" points="121.06,-48.14 110.58,-46.61 117.82,-54.35 121.06,-48.14"/>
</g>
<!-- node5 -->
<g id="node5" class="node">
<title>node5</title>
<path fill="lightyellow" stroke="black" d="M176.5,-0.5C176.5,-0.5 289.5,-0.5 289.5,-0.5 295.5,-0.5 301.5,-6.5 301.5,-12.5 301.5,-12.5 301.5,-34.5 301.5,-34.5 301.5,-40.5 295.5,-46.5 289.5,-46.5 289.5,-46.5 176.5,-46.5 176.5,-46.5 170.5,-46.5 164.5,-40.5 164.5,-34.5 164.5,-34.5 164.5,-12.5 164.5,-12.5 164.5,-6.5 170.5,-0.5 176.5,-0.5"/>
<text text-anchor="middle" x="177.5" y="-31.3" font-family="Times,serif" font-size="14.00">5</text>
<polyline fill="none" stroke="black" points="190.5,-23.5 190.5,-46.5 "/>
<text text-anchor="middle" x="213.5" y="-31.3" font-family="Times,serif" font-size="14.00">VAR</text>
<polyline fill="none" stroke="black" points="236.5,-23.5 236.5,-46.5 "/>
<text text-anchor="middle" x="269" y="-31.3" font-family="Times,serif" font-size="14.00">size=1</text>
<polyline fill="none" stroke="black" points="164.5,-23.5 301.5,-23.5 "/>
<text text-anchor="middle" x="233" y="-8.3" font-family="Times,serif" font-size="14.00">x</text>
</g>
<!-- node3&#45;&gt;node5 -->
<g id="edge8" class="edge">
<title>node3&#45;&gt;node5</title>
<path fill="none" stroke="green" d="M226.91,-83.37C226.28,-75.15 226.1,-65.66 226.38,-56.73"/>
<polygon fill="green" stroke="green" points="229.88,-56.78 226.91,-46.61 222.89,-56.41 229.88,-56.78"/>
</g>
<!-- node4&#45;&gt;node3 -->
<g id="edge7" class="edge">
<title>node4&#45;&gt;node3</title>
<path fill="none" stroke="blue" d="M122.76,-46.61C143.09,-56.51 166.45,-68.29 186.44,-78.69"/>
<polygon fill="blue" stroke="blue" points="184.89,-81.83 195.37,-83.37 188.13,-75.63 184.89,-81.83"/>
</g>
<!-- node5&#45;&gt;node3 -->
<g id="edge9" class="edge">
<title>node5&#45;&gt;node3</title>
<path fill="none" stroke="blue" d="M239.09,-46.61C239.72,-54.82 239.9,-64.31 239.62,-73.25"/>
<polygon fill="blue" stroke="blue" points="236.12,-73.2 239.09,-83.37 243.11,-73.56 236.12,-73.2"/>
</g>
<!-- node6&#45;&gt;node2 -->
<g id="edge11" class="edge">
<title>node6&#45;&gt;node2</title>
<path fill="none" stroke="blue" d="M481.09,-129.61C481.72,-137.82 481.9,-147.31 481.62,-156.25"/>
<polygon fill="blue" stroke="blue" points="478.12,-156.2 481.09,-166.37 485.11,-156.56 478.12,-156.2"/>
</g>
<!-- node7 -->
<g id="node7" class="node">
<title>node7</title>
<path fill="pink" stroke="black" d="M332,-0.5C332,-0.5 454,-0.5 454,-0.5 460,-0.5 466,-6.5 466,-12.5 466,-12.5 466,-34.5 466,-34.5 466,-40.5 460,-46.5 454,-46.5 454,-46.5 332,-46.5 332,-46.5 326,-46.5 320,-40.5 320,-34.5 320,-34.5 320,-12.5 320,-12.5 320,-6.5 326,-0.5 332,-0.5"/>
<text text-anchor="middle" x="333" y="-31.3" font-family="Times,serif" font-size="14.00">7</text>
<polyline fill="none" stroke="black" points="346,-23.5 346,-46.5 "/>
<text text-anchor="middle" x="373.5" y="-31.3" font-family="Times,serif" font-size="14.00">NUM</text>
<polyline fill="none" stroke="black" points="401,-23.5 401,-46.5 "/>
<text text-anchor="middle" x="433.5" y="-31.3" font-family="Times,serif" font-size="14.00">size=1</text>
<polyline fill="none" stroke="black" points="320,-23.5 466,-23.5 "/>
<text text-anchor="middle" x="393" y="-8.3" font-family="Times,serif" font-size="14.00">2</text>
</g>
<!-- node6&#45;&gt;node7 -->
<g id="edge12" class="edge">
<title>node6&#45;&gt;node7</title>
<path fill="none" stroke="red" d="M446.5,-83.37C436.68,-74.35 425.84,-63.79 416.46,-54.12"/>
<polygon fill="red" stroke="red" points="418.73,-51.43 409.29,-46.61 413.66,-56.26 418.73,-51.43"/>
</g>
<!-- node8 -->
<g id="node8" class="node">
<title>node8</title>
<path fill="pink" stroke="black" d="M496,-0.5C496,-0.5 618,-0.5 618,-0.5 624,-0.5 630,-6.5 630,-12.5 630,-12.5 630,-34.5 630,-34.5 630,-40.5 624,-46.5 618,-46.5 618,-46.5 496,-46.5 496,-46.5 490,-46.5 484,-40.5 484,-34.5 484,-34.5 484,-12.5 484,-12.5 484,-6.5 490,-0.5 496,-0.5"/>
<text text-anchor="middle" x="497" y="-31.3" font-family="Times,serif" font-size="14.00">8</text>
<polyline fill="none" stroke="black" points="510,-23.5 510,-46.5 "/>
<text text-anchor="middle" x="537.5" y="-31.3" font-family="Times,serif" font-size="14.00">NUM</text>
<polyline fill="none" stroke="black" points="565,-23.5 565,-46.5 "/>
<text text-anchor="middle" x="597.5" y="-31.3" font-family="Times,serif" font-size="14.00">size=1</text>
<polyline fill="none" stroke="black" points="484,-23.5 630,-23.5 "/>
<text text-anchor="middle" x="557" y="-8.3" font-family="Times,serif" font-size="14.00">1</text>
</g>
<!-- node6&#45;&gt;node8 -->
<g id="edge14" class="edge">
<title>node6&#45;&gt;node8</title>
<path fill="none" stroke="green" d="M491.32,-83.37C499.92,-74.17 510.71,-63.37 521.09,-53.55"/>
<polygon fill="green" stroke="green" points="523.61,-55.99 528.53,-46.61 518.83,-50.87 523.61,-55.99"/>
</g>
<!-- node7&#45;&gt;node6 -->
<g id="edge13" class="edge">
<title>node7&#45;&gt;node6</title>
<path fill="none" stroke="blue" d="M421.47,-46.61C431.29,-55.62 442.13,-66.18 451.51,-75.85"/>
<polygon fill="blue" stroke="blue" points="449.25,-78.55 458.68,-83.37 454.31,-73.71 449.25,-78.55"/>
</g>
<!-- node8&#45;&gt;node6 -->
<g id="edge15" class="edge">
<title>node8&#45;&gt;node6</title>
<path fill="none" stroke="blue" d="M540.71,-46.61C532.11,-55.8 521.32,-66.6 510.94,-76.42"/>
<polygon fill="blue" stroke="blue" points="508.42,-73.99 503.5,-83.37 513.2,-79.1 508.42,-73.99"/>
</g>
<!-- node9&#45;&gt;node1 -->
<g id="edge17" class="edge">
<title>node9&#45;&gt;node1</title>
<path fill="none" stroke="blue" d="M771.42,-212.61C750.99,-222.65 725.84,-234.61 703.07,-245.11"/>
<polygon fill="blue" stroke="blue" points="701.44,-242.01 693.82,-249.37 704.37,-248.37 701.44,-242.01"/>
</g>
<!-- node10 -->
<g id="node10" class="node">
<title>node10</title>
<path fill="peachpuff" stroke="black" d="M755,-83.5C755,-83.5 869,-83.5 869,-83.5 875,-83.5 881,-89.5 881,-95.5 881,-95.5 881,-117.5 881,-117.5 881,-123.5 875,-129.5 869,-129.5 869,-129.5 755,-129.5 755,-129.5 749,-129.5 743,-123.5 743,-117.5 743,-117.5 743,-95.5 743,-95.5 743,-89.5 749,-83.5 755,-83.5"/>
<text text-anchor="middle" x="760.5" y="-114.3" font-family="Times,serif" font-size="14.00">10</text>
<polyline fill="none" stroke="black" points="778,-106.5 778,-129.5 "/>
<text text-anchor="middle" x="797" y="-114.3" font-family="Times,serif" font-size="14.00">OP</text>
<polyline fill="none" stroke="black" points="816,-106.5 816,-129.5 "/>
<text text-anchor="middle" x="848.5" y="-114.3" font-family="Times,serif" font-size="14.00">size=3</text>
<polyline fill="none" stroke="black" points="743,-106.5 881,-106.5 "/>
<text text-anchor="middle" x="812" y="-91.3" font-family="Times,serif" font-size="14.00">log</text>
</g>
<!-- node9&#45;&gt;node10 -->
<g id="edge18" class="edge">
<title>node9&#45;&gt;node10</title>
<path fill="none" stroke="red" d="M805.91,-166.37C805.28,-158.15 805.1,-148.66 805.38,-139.73"/>
<polygon fill="red" stroke="red" points="808.88,-139.78 805.91,-129.61 801.89,-139.41 808.88,-139.78"/>
</g>
<!-- node13 -->
<g id="node13" class="node">
<title>node13</title>
<path fill="peachpuff" stroke="black" d="M1015,-83.5C1015,-83.5 1129,-83.5 1129,-83.5 1135,-83.5 1141,-89.5 1141,-95.5 1141,-95.5 1141,-117.5 1141,-117.5 1141,-123.5 1135,-129.5 1129,-129.5 1129,-129.5 1015,-129.5 1015,-129.5 1009,-129.5 1003,-123.5 1003,-117.5 1003,-117.5 1003,-95.5 1003,-95.5 1003,-89.5 1009,-83.5 1015,-83.5"/>
<text text-anchor="middle" x="1020.5" y="-114.3" font-family="Times,serif" font-size="14.00">13</text>
<polyline fill="none" stroke="black" points="1038,-106.5 1038,-129.5 "/>
<text text-anchor="middle" x="1057" y="-114.3" font-family="Times,serif" font-size="14.00">OP</text>
<polyline fill="none" stroke="black" points="1076,-106.5 1076,-129.5 "/>
<text text-anchor="middle" x="1108.5" y="-114.3" font-family="Times,serif" font-size="14.00">size=3</text>
<polyline fill="none" stroke="black" points="1003,-106.5 1141,-106.5 "/>
<text text-anchor="middle" x="1072" y="-91.3" font-family="Times,serif" font-size="14.00">*</text>
</g>
<!-- node9&#45;&gt;node13 -->
<g id="edge24" class="edge">
<title>node9&#45;&gt;node13</title>
<path fill="none" stroke="green" d="M876.62,-166.47C911.91,-155.21 955.85,-141.51 993.15,-130.16"/>
<polygon fill="green" stroke="green" points="994.42,-133.43 1002.97,-127.17 992.39,-126.73 994.42,-133.43"/>
</g>
<!-- node10&#45;&gt;node9 -->
<g id="edge19" class="edge">
<title>node10&#45;&gt;node9</title>
<path fill="none" stroke="blue" d="M818.09,-129.61C818.72,-137.82 818.9,-147.31 818.62,-156.25"/>
<polygon fill="blue" stroke="blue" points="815.12,-156.2 818.09,-166.37 822.11,-156.56 815.12,-156.2"/>
</g>
<!-- node11 -->
<g id="node11" class="node">
<title>node11</title>
<path fill="pink" stroke="black" d="M660.5,-0.5C660.5,-0.5 791.5,-0.5 791.5,-0.5 797.5,-0.5 803.5,-6.5 803.5,-12.5 803.5,-12.5 803.5,-34.5 803.5,-34.5 803.5,-40.5 797.5,-46.5 791.5,-46.5 791.5,-46.5 660.5,-46.5 660.5,-46.5 654.5,-46.5 648.5,-40.5 648.5,-34.5 648.5,-34.5 648.5,-12.5 648.5,-12.5 648.5,-6.5 654.5,-0.5 660.5,-0.5"/>
<text text-anchor="middle" x="666" y="-31.3" font-family="Times,serif" font-size="14.00">11</text>
<polyline fill="none" stroke="black" points="683.5,-23.5 683.5,-46.5 "/>
<text text-anchor="middle" x="711" y="-31.3" font-family="Times,serif" font-size="14.00">NUM</text>
<polyline fill="none" stroke="black" points="738.5,-23.5 738.5,-46.5 "/>
<text text-anchor="middle" x="771" y="-31.3" font-family="Times,serif" font-size="14.00">size=1</text>
<polyline fill="none" stroke="black" points="648.5,-23.5 803.5,-23.5 "/>
<text text-anchor="middle" x="726" y="-8.3" font-family="Times,serif" font-size="14.00">233685185</text>
</g>
<!-- node10&#45;&gt;node11 -->
<g id="edge20" class="edge">
<title>node10&#45;&gt;node11</title>
<path fill="none" stroke="red" d="M782.41,-83.37C772.04,-74.26 760.56,-63.58 750.63,-53.83"/>
<polygon fill="red" stroke="red" points="752.93,-51.19 743.38,-46.61 747.99,-56.15 752.93,-51.19"/>
</g>
<!-- node12 -->
<g id="node12" class="node">
<title>node12</title>
<path fill="pink" stroke="black" d="M833.5,-0.5C833.5,-0.5 964.5,-0.5 964.5,-0.5 970.5,-0.5 976.5,-6.5 976.5,-12.5 976.5,-12.5 976.5,-34.5 976.5,-34.5 976.5,-40.5 970.5,-46.5 964.5,-46.5 964.5,-46.5 833.5,-46.5 833.5,-46.5 827.5,-46.5 821.5,-40.5 821.5,-34.5 821.5,-34.5 821.5,-12.5 821.5,-12.5 821.5,-6.5 827.5,-0.5 833.5,-0.5"/>
<text text-anchor="middle" x="839" y="-31.3" font-family="Times,serif" font-size="14.00">12</text>
<polyline fill="none" stroke="black" points="856.5,-23.5 856.5,-46.5 "/>
<text text-anchor="middle" x="884" y="-31.3" font-family="Times,serif" font-size="14.00">NUM</text>
<polyline fill="none" stroke="black" points="911.5,-23.5 911.5,-46.5 "/>
<text text-anchor="middle" x="944" y="-31.3" font-family="Times,serif" font-size="14.00">size=1</text>
<polyline fill="none" stroke="black" points="821.5,-23.5 976.5,-23.5 "/>
<text text-anchor="middle" x="899" y="-8.3" font-family="Times,serif" font-size="14.00">3</text>
</g>
<!-- node10&#45;&gt;node12 -->
<g id="edge22" class="edge">
<title>node10&#45;&gt;node12</title>
<path fill="none" stroke="green" d="M829.68,-83.37C838.94,-74.08 850.54,-63.16 861.62,-53.26"/>
<polygon fill="green" stroke="green" points="863.98,-55.84 869.17,-46.61 859.35,-50.59 863.98,-55.84"/>
</g>
<!-- node11&#45;&gt;node10 -->
<g id="edge21" class="edge">
<title>node11&#45;&gt;node10</title>
<path fill="none" stroke="blue" d="M755.56,-46.61C765.93,-55.71 777.41,-66.39 787.34,-76.14"/>
<polygon fill="blue" stroke="blue" points="785.04,-78.78 794.59,-83.37 789.98,-73.83 785.04,-78.78"/>
</g>
<!-- node12&#45;&gt;node10 -->
<g id="edge23" class="edge">
<title>node12&#45;&gt;node10</title>
<path fill="none" stroke="blue" d="M881.34,-46.61C872.09,-55.89 860.5,-66.81 849.42,-76.71"/>
<polygon fill="blue" stroke="blue" points="847.05,-74.13 841.86,-83.37 851.68,-79.38 847.05,-74.13"/>
</g>
<!-- node13&#45;&gt;node9 -->
<g id="edge25" class="edge">
<title>node13&#45;&gt;node9</title>
<path fill="none" stroke="blue" d="M1007.3,-129.55C970.73,-141.23 924.88,-155.5 886.78,-167.08"/>
<polygon fill="blue" stroke="blue" points="885.31,-163.87 876.76,-170.12 887.34,-170.57 885.31,-163.87"/>
</g>
<!-- node14 -->
<g id="node14" class="node">
<title>node14</title>
<path fill="pink" stroke="black" d="M1006.5,-0.5C1006.5,-0.5 1137.5,-0.5 1137.5,-0.5 1143.5,-0.5 1149.5,-6.5 1149.5,-12.5 1149.5,-12.5 1149.5,-34.5 1149.5,-34.5 1149.5,-40.5 1143.5,-46.5 1137.5,-46.5 1137.5,-46.5 1006.5,-46.5 1006.5,-46.5 1000.5,-46.5 994.5,-40.5 994.5,-34.5 994.5,-34.5 994.5,-12.5 994.5,-12.5 994.5,-6.5 1000.5,-0.5 1006.5,-0.5"/>
<text text-anchor="middle" x="1012" y="-31.3" font-family="Times,serif" font-size="14.00">14</text>
<polyline fill="none" stroke="black" points="1029.5,-23.5 1029.5,-46.5 "/>
<text text-anchor="middle" x="1057" y="-31.3" font-family="Times,serif" font-size="14.00">NUM</text>
<polyline fill="none" stroke="black" points="1084.5,-23.5 1084.5,-46.5 "/>
<text text-anchor="middle" x="1117" y="-31.3" font-family="Times,serif" font-size="14.00">size=1</text>
<polyline fill="none" stroke="black" points="994.5,-23.5 1149.5,-23.5 "/>
<text text-anchor="middle" x="1072" y="-8.3" font-family="Times,serif" font-size="14.00">2</text>
</g>
<!-- node13&#45;&gt;node14 -->
<g id="edge26" class="edge">
<title>node13&#45;&gt;node14</title>
<path fill="none" stroke="red" d="M1065.91,-83.37C1065.28,-75.15 1065.1,-65.66 1065.38,-56.73"/>
<polygon fill="red" stroke="red" points="1068.88,-56.78 1065.91,-46.61 1061.89,-56.41 1068.88,-56.78"/>
</g>
<!-- node15 -->
<g id="node15" class="node">
<title>node15</title>
<path fill="lightyellow" stroke="black" d="M1180,-0.5C1180,-0.5 1302,-0.5 1302,-0.5 1308,-0.5 1314,-6.5 1314,-12.5 1314,-12.5 1314,-34.5 1314,-34.5 1314,-40.5 1308,-46.5 1302,-46.5 1302,-46.5 1180,-46.5 1180,-46.5 1174,-46.5 1168,-40.5 1168,-34.5 1168,-34.5 1168,-12.5 1168,-12.5 1168,-6.5 1174,-0.5 1180,-0.5"/>
<text text-anchor="middle" x="1185.5" y="-31.3" font-family="Times,serif" font-size="14.00">15</text>
<polyline fill="none" stroke="black" points="1203,-23.5 1203,-46.5 "/>
<text text-anchor="middle" x="1226" y="-31.3" font-family="Times,serif" font-size="14.00">VAR</text>
<polyline fill="none" stroke="black" points="1249,-23.5 1249,-46.5 "/>
<text text-anchor="middle" x="1281.5" y="-31.3" font-family="Times,serif" font-size="14.00">size=1</text>
<polyline fill="none" stroke="black" points="1168,-23.5 1314,-23.5 "/>
<text text-anchor="middle" x="1241" y="-8.3" font-family="Times,serif" font-size="14.00">x</text>
</g>
<!-- node13&#45;&gt;node15 -->
<g id="edge28" class="edge">
<title>node13&#45;&gt;node15</title>
<path fill="none" stroke="green" d="M1112.09,-83.37C1132.27,-73.32 1157.13,-61.36 1179.64,-50.86"/>
<polygon fill="green" stroke="green" points="1181.19,-53.99 1188.79,-46.61 1178.24,-47.65 1181.19,-53.99"/>
</g>
<!-- node14&#45;&gt;node13 -->
<g id="edge27" class="edge">
<title>node14&#45;&gt;node13</title>
<path fill="none" stroke="blue" d="M1078.09,-46.61C1078.72,-54.82 1078.9,-64.31 1078.62,-73.25"/>
<polygon fill="blue" stroke="blue" points="1075.12,-73.2 1078.09,-83.37 1082.11,-73.56 1075.12,-73.2"/>
</g>
<!-- node15&#45;&gt;node13 -->
<g id="edge29" class="edge">
<title>node15&#45;&gt;node13</title>
<path fill="none" stroke="blue" d="M1200.96,-46.61C1180.79,-56.65 1155.93,-68.61 1133.42,-79.11"/>
<polygon fill="blue" stroke="blue" points="1131.87,-75.98 1124.27,-83.37 1134.81,-82.33 1131.87,-75.98"/>
</g>
</g>
</svg>
