<?xml version="1.0" encoding="UTF-8" standalone="no"?>
<!DOCTYPE svg PUBLIC "-//W3C//DTD SVG 1.1//EN"
 "http://www.w3.org/Graphics/SVG/1.1/DTD/svg11.dtd">
<!-- Generated by graphviz version 2.43.0 (0)
 -->
<!-- Title: %3 Pages: 1 -->
<svg width="1578pt" height="802pt"
 viewBox="0.00 0.00 1577.50 802.00" xmlns="http://www.w3.org/2000/svg" xmlns:xlink="http://www.w3.org/1999/xlink">
<g id="graph0" class="graph" transform="scale(1 1) rotate(0) translate(4 798)">
<title>%3</title>
<polygon fill="white" stroke="transparent" points="-4,4 -4,-798 1573.5,-798 1573.5,4 -4,4"/>
<!-- node1 -->
<g id="node1" class="node">
<title>node1</title>
<path fill="peachpuff" stroke="black" d="M1106,-747.5C1106,-747.5 1220,-747.5 1220,-747.5 1226,-747.5 1232,-753.5 1232,-759.5 1232,-759.5 1232,-781.5 1232,-781.5 1232,-787.5 1226,-793.5 1220,-793.5 1220,-793.5 1106,-793.5 1106,-793.5 1100,-793.5 1094,-787.5 1094,-781.5 1094,-781.5 1094,-759.5 1094,-759.5 1094,-753.5 1100,-747.5 1106,-747.5"/>
<text text-anchor="middle" x="1107" y="-778.3" font-family="Times,serif" font-size="14.00">1</text>
<polyline fill="none" stroke="black" points="1120,-770.5 1120,-793.5 "/>
<text text-anchor="middle" x="1139" y="-778.3" font-family="Times,serif" font-size="14.00">OP</text>
<polyline fill="none" stroke="black" points="1158,-770.5 1158,-793.5 "/>
<text text-anchor="middle" x="1195" y="-778.3" font-family="Times,serif" font-size="14.00">size=42</text>
<polyline fill="none" stroke="black" points="1094,-770.5 1232,-770.5 "/>
<text text-anchor="middle" x="1163" y="-755.3" font-family="Times,serif" font-size="14.00">+</text>
</g>
<!-- node1&#45;&gt;node1 -->
<g id="edge1" class="edge">
<title>node1&#45;&gt;node1</title>
<path fill="none" stroke="blue" d="M1232.27,-784.52C1242.83,-782.38 1250,-777.71 1250,-770.5 1250,-765.77 1246.91,-762.13 1241.81,-759.58"/>
<polygon fill="blue" stroke="blue" points="1242.87,-756.25 1232.27,-756.48 1240.7,-762.9 1242.87,-756.25"/>
</g>
<!-- node2 -->
<g id="node2" class="node">
<title>node2</title>
<path fill="peachpuff" stroke="black" d="M1028,-664.5C1028,-664.5 1142,-664.5 1142,-664.5 1148,-664.5 1154,-670.5 1154,-676.5 1154,-676.5 1154,-698.5 1154,-698.5 1154,-704.5 1148,-710.5 1142,-710.5 1142,-710.5 1028,-710.5 1028,-710.5 1022,-710.5 1016,-704.5 1016,-698.5 1016,-698.5 1016,-676.5 1016,-676.5 1016,-670.5 1022,-664.5 1028,-664.5"/>
<text text-anchor="middle" x="1029" y="-695.3" font-family="Times,serif" font-size="14.00">2</text>
<polyline fill="none" stroke="black" points="1042,-687.5 1042,-710.5 "/>
<text text-anchor="middle" x="1061" y="-695.3" font-family="Times,serif" font-size="14.00">OP</text>
<polyline fill="none" stroke="black" points="1080,-687.5 1080,-710.5 "/>
<text text-anchor="middle" x="1117" y="-695.3" font-family="Times,serif" font-size="14.00">size=35</text>
<polyline fill="none" stroke="black" points="1016,-687.5 1154,-687.5 "/>
<text text-anchor="middle" x="1085" y="-672.3" font-family="Times,serif" font-size="14.00">+</text>
</g>
<!-- node1&#45;&gt;node2 -->
<g id="edge2" class="edge">
<title>node1&#45;&gt;node2</title>
<path fill="none" stroke="red" d="M1135.6,-747.37C1126.22,-738.35 1115.9,-727.79 1107,-718.12"/>
<polygon fill="red" stroke="red" points="1109.5,-715.68 1100.2,-710.61 1104.31,-720.37 1109.5,-715.68"/>
</g>
<!-- node37 -->
<g id="node37" class="node">
<title>node37</title>
<path fill="peachpuff" stroke="black" d="M1186,-664.5C1186,-664.5 1300,-664.5 1300,-664.5 1306,-664.5 1312,-670.5 1312,-676.5 1312,-676.5 1312,-698.5 1312,-698.5 1312,-704.5 1306,-710.5 1300,-710.5 1300,-710.5 1186,-710.5 1186,-710.5 1180,-710.5 1174,-704.5 1174,-698.5 1174,-698.5 1174,-676.5 1174,-676.5 1174,-670.5 1180,-664.5 1186,-664.5"/>
<text text-anchor="middle" x="1191.5" y="-695.3" font-family="Times,serif" font-size="14.00">37</text>
<polyline fill="none" stroke="black" points="1209,-687.5 1209,-710.5 "/>
<text text-anchor="middle" x="1228" y="-695.3" font-family="Times,serif" font-size="14.00">OP</text>
<polyline fill="none" stroke="black" points="1247,-687.5 1247,-710.5 "/>
<text text-anchor="middle" x="1279.5" y="-695.3" font-family="Times,serif" font-size="14.00">size=6</text>
<polyline fill="none" stroke="black" points="1174,-687.5 1312,-687.5 "/>
<text text-anchor="middle" x="1243" y="-672.3" font-family="Times,serif" font-size="14.00">arccos</text>
</g>
<!-- node1&#45;&gt;node37 -->
<g id="edge72" class="edge">
<title>node1&#45;&gt;node37</title>
<path fill="none" stroke="green" d="M1178.77,-747.37C1187.15,-738.17 1197.67,-727.37 1207.81,-717.55"/>
<polygon fill="green" stroke="green" points="1210.26,-720.04 1215.08,-710.61 1205.43,-714.98 1210.26,-720.04"/>
</g>
<!-- node2&#45;&gt;node1 -->
<g id="edge3" class="edge">
<title>node2&#45;&gt;node1</title>
<path fill="none" stroke="blue" d="M1112.38,-710.61C1121.75,-719.62 1132.07,-730.18 1140.98,-739.85"/>
<polygon fill="blue" stroke="blue" points="1138.47,-742.3 1147.78,-747.37 1143.66,-737.6 1138.47,-742.3"/>
</g>
<!-- node3 -->
<g id="node3" class="node">
<title>node3</title>
<path fill="peachpuff" stroke="black" d="M868,-581.5C868,-581.5 982,-581.5 982,-581.5 988,-581.5 994,-587.5 994,-593.5 994,-593.5 994,-615.5 994,-615.5 994,-621.5 988,-627.5 982,-627.5 982,-627.5 868,-627.5 868,-627.5 862,-627.5 856,-621.5 856,-615.5 856,-615.5 856,-593.5 856,-593.5 856,-587.5 862,-581.5 868,-581.5"/>
<text text-anchor="middle" x="869" y="-612.3" font-family="Times,serif" font-size="14.00">3</text>
<polyline fill="none" stroke="black" points="882,-604.5 882,-627.5 "/>
<text text-anchor="middle" x="901" y="-612.3" font-family="Times,serif" font-size="14.00">OP</text>
<polyline fill="none" stroke="black" points="920,-604.5 920,-627.5 "/>
<text text-anchor="middle" x="957" y="-612.3" font-family="Times,serif" font-size="14.00">size=33</text>
<polyline fill="none" stroke="black" points="856,-604.5 994,-604.5 "/>
<text text-anchor="middle" x="925" y="-589.3" font-family="Times,serif" font-size="14.00">&#45;</text>
</g>
<!-- node2&#45;&gt;node3 -->
<g id="edge4" class="edge">
<title>node2&#45;&gt;node3</title>
<path fill="none" stroke="red" d="M1035.19,-664.37C1014.85,-654.46 991.49,-642.68 971.5,-632.28"/>
<polygon fill="red" stroke="red" points="973.06,-629.14 962.58,-627.61 969.82,-635.35 973.06,-629.14"/>
</g>
<!-- node36 -->
<g id="node36" class="node">
<title>node36</title>
<path fill="lightyellow" stroke="black" d="M1024,-581.5C1024,-581.5 1146,-581.5 1146,-581.5 1152,-581.5 1158,-587.5 1158,-593.5 1158,-593.5 1158,-615.5 1158,-615.5 1158,-621.5 1152,-627.5 1146,-627.5 1146,-627.5 1024,-627.5 1024,-627.5 1018,-627.5 1012,-621.5 1012,-615.5 1012,-615.5 1012,-593.5 1012,-593.5 1012,-587.5 1018,-581.5 1024,-581.5"/>
<text text-anchor="middle" x="1029.5" y="-612.3" font-family="Times,serif" font-size="14.00">36</text>
<polyline fill="none" stroke="black" points="1047,-604.5 1047,-627.5 "/>
<text text-anchor="middle" x="1070" y="-612.3" font-family="Times,serif" font-size="14.00">VAR</text>
<polyline fill="none" stroke="black" points="1093,-604.5 1093,-627.5 "/>
<text text-anchor="middle" x="1125.5" y="-612.3" font-family="Times,serif" font-size="14.00">size=1</text>
<polyline fill="none" stroke="black" points="1012,-604.5 1158,-604.5 "/>
<text text-anchor="middle" x="1085" y="-589.3" font-family="Times,serif" font-size="14.00">x</text>
</g>
<!-- node2&#45;&gt;node36 -->
<g id="edge70" class="edge">
<title>node2&#45;&gt;node36</title>
<path fill="none" stroke="green" d="M1078.91,-664.37C1078.28,-656.15 1078.1,-646.66 1078.38,-637.73"/>
<polygon fill="green" stroke="green" points="1081.88,-637.78 1078.91,-627.61 1074.89,-637.41 1081.88,-637.78"/>
</g>
<!-- node3&#45;&gt;node2 -->
<g id="edge5" class="edge">
<title>node3&#45;&gt;node2</title>
<path fill="none" stroke="blue" d="M974.76,-627.61C995.09,-637.51 1018.45,-649.29 1038.44,-659.69"/>
<polygon fill="blue" stroke="blue" points="1036.89,-662.83 1047.37,-664.37 1040.13,-656.63 1036.89,-662.83"/>
</g>
<!-- node4 -->
<g id="node4" class="node">
<title>node4</title>
<path fill="peachpuff" stroke="black" d="M745,-498.5C745,-498.5 859,-498.5 859,-498.5 865,-498.5 871,-504.5 871,-510.5 871,-510.5 871,-532.5 871,-532.5 871,-538.5 865,-544.5 859,-544.5 859,-544.5 745,-544.5 745,-544.5 739,-544.5 733,-538.5 733,-532.5 733,-532.5 733,-510.5 733,-510.5 733,-504.5 739,-498.5 745,-498.5"/>
<text text-anchor="middle" x="746" y="-529.3" font-family="Times,serif" font-size="14.00">4</text>
<polyline fill="none" stroke="black" points="759,-521.5 759,-544.5 "/>
<text text-anchor="middle" x="778" y="-529.3" font-family="Times,serif" font-size="14.00">OP</text>
<polyline fill="none" stroke="black" points="797,-521.5 797,-544.5 "/>
<text text-anchor="middle" x="834" y="-529.3" font-family="Times,serif" font-size="14.00">size=31</text>
<polyline fill="none" stroke="black" points="733,-521.5 871,-521.5 "/>
<text text-anchor="middle" x="802" y="-506.3" font-family="Times,serif" font-size="14.00">*</text>
</g>
<!-- node3&#45;&gt;node4 -->
<g id="edge6" class="edge">
<title>node3&#45;&gt;node4</title>
<path fill="none" stroke="red" d="M885.3,-581.37C870.06,-571.81 852.8,-560.53 837.93,-550.41"/>
<polygon fill="red" stroke="red" points="839.71,-547.38 829.48,-544.61 835.74,-553.15 839.71,-547.38"/>
</g>
<!-- node35 -->
<g id="node35" class="node">
<title>node35</title>
<path fill="lightyellow" stroke="black" d="M901,-498.5C901,-498.5 1023,-498.5 1023,-498.5 1029,-498.5 1035,-504.5 1035,-510.5 1035,-510.5 1035,-532.5 1035,-532.5 1035,-538.5 1029,-544.5 1023,-544.5 1023,-544.5 901,-544.5 901,-544.5 895,-544.5 889,-538.5 889,-532.5 889,-532.5 889,-510.5 889,-510.5 889,-504.5 895,-498.5 901,-498.5"/>
<text text-anchor="middle" x="906.5" y="-529.3" font-family="Times,serif" font-size="14.00">35</text>
<polyline fill="none" stroke="black" points="924,-521.5 924,-544.5 "/>
<text text-anchor="middle" x="947" y="-529.3" font-family="Times,serif" font-size="14.00">VAR</text>
<polyline fill="none" stroke="black" points="970,-521.5 970,-544.5 "/>
<text text-anchor="middle" x="1002.5" y="-529.3" font-family="Times,serif" font-size="14.00">size=1</text>
<polyline fill="none" stroke="black" points="889,-521.5 1035,-521.5 "/>
<text text-anchor="middle" x="962" y="-506.3" font-family="Times,serif" font-size="14.00">x</text>
</g>
<!-- node3&#45;&gt;node35 -->
<g id="edge68" class="edge">
<title>node3&#45;&gt;node35</title>
<path fill="none" stroke="green" d="M929.02,-581.37C932.28,-572.79 936.66,-562.83 941.23,-553.56"/>
<polygon fill="green" stroke="green" points="944.37,-555.1 945.81,-544.61 938.14,-551.91 944.37,-555.1"/>
</g>
<!-- node4&#45;&gt;node3 -->
<g id="edge7" class="edge">
<title>node4&#45;&gt;node3</title>
<path fill="none" stroke="blue" d="M841.66,-544.61C856.9,-554.16 874.15,-565.44 889.03,-575.56"/>
<polygon fill="blue" stroke="blue" points="887.26,-578.59 897.48,-581.37 891.22,-572.82 887.26,-578.59"/>
</g>
<!-- node5 -->
<g id="node5" class="node">
<title>node5</title>
<path fill="peachpuff" stroke="black" d="M264.5,-415.5C264.5,-415.5 369.5,-415.5 369.5,-415.5 375.5,-415.5 381.5,-421.5 381.5,-427.5 381.5,-427.5 381.5,-449.5 381.5,-449.5 381.5,-455.5 375.5,-461.5 369.5,-461.5 369.5,-461.5 264.5,-461.5 264.5,-461.5 258.5,-461.5 252.5,-455.5 252.5,-449.5 252.5,-449.5 252.5,-427.5 252.5,-427.5 252.5,-421.5 258.5,-415.5 264.5,-415.5"/>
<text text-anchor="middle" x="265.5" y="-446.3" font-family="Times,serif" font-size="14.00">5</text>
<polyline fill="none" stroke="black" points="278.5,-438.5 278.5,-461.5 "/>
<text text-anchor="middle" x="297.5" y="-446.3" font-family="Times,serif" font-size="14.00">OP</text>
<polyline fill="none" stroke="black" points="316.5,-438.5 316.5,-461.5 "/>
<text text-anchor="middle" x="349" y="-446.3" font-family="Times,serif" font-size="14.00">size=9</text>
<polyline fill="none" stroke="black" points="252.5,-438.5 381.5,-438.5 "/>
<text text-anchor="middle" x="317" y="-423.3" font-family="Times,serif" font-size="14.00">/</text>
</g>
<!-- node4&#45;&gt;node5 -->
<g id="edge8" class="edge">
<title>node4&#45;&gt;node5</title>
<path fill="none" stroke="red" d="M732.84,-509.74C642.44,-495.07 484.86,-468.77 391.78,-452.85"/>
<polygon fill="red" stroke="red" points="392.32,-449.39 381.87,-451.15 391.14,-456.29 392.32,-449.39"/>
</g>
<!-- node14 -->
<g id="node14" class="node">
<title>node14</title>
<path fill="peachpuff" stroke="black" d="M814.5,-415.5C814.5,-415.5 937.5,-415.5 937.5,-415.5 943.5,-415.5 949.5,-421.5 949.5,-427.5 949.5,-427.5 949.5,-449.5 949.5,-449.5 949.5,-455.5 943.5,-461.5 937.5,-461.5 937.5,-461.5 814.5,-461.5 814.5,-461.5 808.5,-461.5 802.5,-455.5 802.5,-449.5 802.5,-449.5 802.5,-427.5 802.5,-427.5 802.5,-421.5 808.5,-415.5 814.5,-415.5"/>
<text text-anchor="middle" x="820" y="-446.3" font-family="Times,serif" font-size="14.00">14</text>
<polyline fill="none" stroke="black" points="837.5,-438.5 837.5,-461.5 "/>
<text text-anchor="middle" x="856.5" y="-446.3" font-family="Times,serif" font-size="14.00">OP</text>
<polyline fill="none" stroke="black" points="875.5,-438.5 875.5,-461.5 "/>
<text text-anchor="middle" x="912.5" y="-446.3" font-family="Times,serif" font-size="14.00">size=21</text>
<polyline fill="none" stroke="black" points="802.5,-438.5 949.5,-438.5 "/>
<text text-anchor="middle" x="876" y="-423.3" font-family="Times,serif" font-size="14.00">^</text>
</g>
<!-- node4&#45;&gt;node14 -->
<g id="edge26" class="edge">
<title>node4&#45;&gt;node14</title>
<path fill="none" stroke="green" d="M816.13,-498.37C823.75,-489.26 833.36,-478.58 842.68,-468.83"/>
<polygon fill="green" stroke="green" points="845.25,-471.22 849.71,-461.61 840.23,-466.33 845.25,-471.22"/>
</g>
<!-- node5&#45;&gt;node4 -->
<g id="edge9" class="edge">
<title>node5&#45;&gt;node4</title>
<path fill="none" stroke="blue" d="M381.65,-449.52C469.9,-463.83 627.81,-490.17 722.97,-506.42"/>
<polygon fill="blue" stroke="blue" points="722.39,-509.87 732.83,-508.11 723.57,-502.97 722.39,-509.87"/>
</g>
<!-- node6 -->
<g id="node6" class="node">
<title>node6</title>
<path fill="peachpuff" stroke="black" d="M109.5,-332.5C109.5,-332.5 214.5,-332.5 214.5,-332.5 220.5,-332.5 226.5,-338.5 226.5,-344.5 226.5,-344.5 226.5,-366.5 226.5,-366.5 226.5,-372.5 220.5,-378.5 214.5,-378.5 214.5,-378.5 109.5,-378.5 109.5,-378.5 103.5,-378.5 97.5,-372.5 97.5,-366.5 97.5,-366.5 97.5,-344.5 97.5,-344.5 97.5,-338.5 103.5,-332.5 109.5,-332.5"/>
<text text-anchor="middle" x="110.5" y="-363.3" font-family="Times,serif" font-size="14.00">6</text>
<polyline fill="none" stroke="black" points="123.5,-355.5 123.5,-378.5 "/>
<text text-anchor="middle" x="142.5" y="-363.3" font-family="Times,serif" font-size="14.00">OP</text>
<polyline fill="none" stroke="black" points="161.5,-355.5 161.5,-378.5 "/>
<text text-anchor="middle" x="194" y="-363.3" font-family="Times,serif" font-size="14.00">size=2</text>
<polyline fill="none" stroke="black" points="97.5,-355.5 226.5,-355.5 "/>
<text text-anchor="middle" x="162" y="-340.3" font-family="Times,serif" font-size="14.00">cos</text>
</g>
<!-- node5&#45;&gt;node6 -->
<g id="edge10" class="edge">
<title>node5&#45;&gt;node6</title>
<path fill="none" stroke="red" d="M268.55,-415.37C248.91,-405.5 226.4,-393.79 207.11,-383.42"/>
<polygon fill="red" stroke="red" points="208.68,-380.29 198.21,-378.61 205.35,-386.44 208.68,-380.29"/>
</g>
<!-- node8 -->
<g id="node8" class="node">
<title>node8</title>
<path fill="peachpuff" stroke="black" d="M264.5,-332.5C264.5,-332.5 369.5,-332.5 369.5,-332.5 375.5,-332.5 381.5,-338.5 381.5,-344.5 381.5,-344.5 381.5,-366.5 381.5,-366.5 381.5,-372.5 375.5,-378.5 369.5,-378.5 369.5,-378.5 264.5,-378.5 264.5,-378.5 258.5,-378.5 252.5,-372.5 252.5,-366.5 252.5,-366.5 252.5,-344.5 252.5,-344.5 252.5,-338.5 258.5,-332.5 264.5,-332.5"/>
<text text-anchor="middle" x="265.5" y="-363.3" font-family="Times,serif" font-size="14.00">8</text>
<polyline fill="none" stroke="black" points="278.5,-355.5 278.5,-378.5 "/>
<text text-anchor="middle" x="297.5" y="-363.3" font-family="Times,serif" font-size="14.00">OP</text>
<polyline fill="none" stroke="black" points="316.5,-355.5 316.5,-378.5 "/>
<text text-anchor="middle" x="349" y="-363.3" font-family="Times,serif" font-size="14.00">size=6</text>
<polyline fill="none" stroke="black" points="252.5,-355.5 381.5,-355.5 "/>
<text text-anchor="middle" x="317" y="-340.3" font-family="Times,serif" font-size="14.00">log</text>
</g>
<!-- node5&#45;&gt;node8 -->
<g id="edge14" class="edge">
<title>node5&#45;&gt;node8</title>
<path fill="none" stroke="green" d="M310.91,-415.37C310.28,-407.15 310.1,-397.66 310.38,-388.73"/>
<polygon fill="green" stroke="green" points="313.88,-388.78 310.91,-378.61 306.89,-388.41 313.88,-388.78"/>
</g>
<!-- node6&#45;&gt;node5 -->
<g id="edge11" class="edge">
<title>node6&#45;&gt;node5</title>
<path fill="none" stroke="blue" d="M210.39,-378.61C230.03,-388.47 252.54,-400.18 271.84,-410.55"/>
<polygon fill="blue" stroke="blue" points="270.28,-413.69 280.74,-415.37 273.61,-407.53 270.28,-413.69"/>
</g>
<!-- node7 -->
<g id="node7" class="node">
<title>node7</title>
<path fill="pink" stroke="black" d="M12,-249.5C12,-249.5 134,-249.5 134,-249.5 140,-249.5 146,-255.5 146,-261.5 146,-261.5 146,-283.5 146,-283.5 146,-289.5 140,-295.5 134,-295.5 134,-295.5 12,-295.5 12,-295.5 6,-295.5 0,-289.5 0,-283.5 0,-283.5 0,-261.5 0,-261.5 0,-255.5 6,-249.5 12,-249.5"/>
<text text-anchor="middle" x="13" y="-280.3" font-family="Times,serif" font-size="14.00">7</text>
<polyline fill="none" stroke="black" points="26,-272.5 26,-295.5 "/>
<text text-anchor="middle" x="53.5" y="-280.3" font-family="Times,serif" font-size="14.00">NUM</text>
<polyline fill="none" stroke="black" points="81,-272.5 81,-295.5 "/>
<text text-anchor="middle" x="113.5" y="-280.3" font-family="Times,serif" font-size="14.00">size=1</text>
<polyline fill="none" stroke="black" points="0,-272.5 146,-272.5 "/>
<text text-anchor="middle" x="73" y="-257.3" font-family="Times,serif" font-size="14.00">25</text>
</g>
<!-- node6&#45;&gt;node7 -->
<g id="edge12" class="edge">
<title>node6&#45;&gt;node7</title>
<path fill="none" stroke="red" d="M131.59,-332.37C120.78,-323.17 108.77,-312.37 98.41,-302.55"/>
<polygon fill="red" stroke="red" points="100.83,-300.02 91.2,-295.61 95.98,-305.06 100.83,-300.02"/>
</g>
<!-- node7&#45;&gt;node6 -->
<g id="edge13" class="edge">
<title>node7&#45;&gt;node6</title>
<path fill="none" stroke="blue" d="M103.38,-295.61C114.19,-304.8 126.19,-315.6 136.56,-325.42"/>
<polygon fill="blue" stroke="blue" points="134.14,-327.95 143.77,-332.37 138.99,-322.91 134.14,-327.95"/>
</g>
<!-- node8&#45;&gt;node5 -->
<g id="edge15" class="edge">
<title>node8&#45;&gt;node5</title>
<path fill="none" stroke="blue" d="M323.09,-378.61C323.72,-386.82 323.9,-396.31 323.62,-405.25"/>
<polygon fill="blue" stroke="blue" points="320.12,-405.2 323.09,-415.37 327.11,-405.56 320.12,-405.2"/>
</g>
<!-- node9 -->
<g id="node9" class="node">
<title>node9</title>
<path fill="pink" stroke="black" d="M176,-249.5C176,-249.5 298,-249.5 298,-249.5 304,-249.5 310,-255.5 310,-261.5 310,-261.5 310,-283.5 310,-283.5 310,-289.5 304,-295.5 298,-295.5 298,-295.5 176,-295.5 176,-295.5 170,-295.5 164,-289.5 164,-283.5 164,-283.5 164,-261.5 164,-261.5 164,-255.5 170,-249.5 176,-249.5"/>
<text text-anchor="middle" x="177" y="-280.3" font-family="Times,serif" font-size="14.00">9</text>
<polyline fill="none" stroke="black" points="190,-272.5 190,-295.5 "/>
<text text-anchor="middle" x="217.5" y="-280.3" font-family="Times,serif" font-size="14.00">NUM</text>
<polyline fill="none" stroke="black" points="245,-272.5 245,-295.5 "/>
<text text-anchor="middle" x="277.5" y="-280.3" font-family="Times,serif" font-size="14.00">size=1</text>
<polyline fill="none" stroke="black" points="164,-272.5 310,-272.5 "/>
<text text-anchor="middle" x="237" y="-257.3" font-family="Times,serif" font-size="14.00">10</text>
</g>
<!-- node8&#45;&gt;node9 -->
<g id="edge16" class="edge">
<title>node8&#45;&gt;node9</title>
<path fill="none" stroke="red" d="M289.05,-332.37C279.45,-323.35 268.87,-312.79 259.73,-303.12"/>
<polygon fill="red" stroke="red" points="262.12,-300.55 252.75,-295.61 256.99,-305.32 262.12,-300.55"/>
</g>
<!-- node10 -->
<g id="node10" class="node">
<title>node10</title>
<path fill="peachpuff" stroke="black" d="M340,-249.5C340,-249.5 454,-249.5 454,-249.5 460,-249.5 466,-255.5 466,-261.5 466,-261.5 466,-283.5 466,-283.5 466,-289.5 460,-295.5 454,-295.5 454,-295.5 340,-295.5 340,-295.5 334,-295.5 328,-289.5 328,-283.5 328,-283.5 328,-261.5 328,-261.5 328,-255.5 334,-249.5 340,-249.5"/>
<text text-anchor="middle" x="345.5" y="-280.3" font-family="Times,serif" font-size="14.00">10</text>
<polyline fill="none" stroke="black" points="363,-272.5 363,-295.5 "/>
<text text-anchor="middle" x="382" y="-280.3" font-family="Times,serif" font-size="14.00">OP</text>
<polyline fill="none" stroke="black" points="401,-272.5 401,-295.5 "/>
<text text-anchor="middle" x="433.5" y="-280.3" font-family="Times,serif" font-size="14.00">size=4</text>
<polyline fill="none" stroke="black" points="328,-272.5 466,-272.5 "/>
<text text-anchor="middle" x="397" y="-257.3" font-family="Times,serif" font-size="14.00">*</text>
</g>
<!-- node8&#45;&gt;node10 -->
<g id="edge18" class="edge">
<title>node8&#45;&gt;node10</title>
<path fill="none" stroke="green" d="M332.77,-332.37C341.15,-323.17 351.67,-312.37 361.81,-302.55"/>
<polygon fill="green" stroke="green" points="364.26,-305.04 369.08,-295.61 359.43,-299.98 364.26,-305.04"/>
</g>
<!-- node9&#45;&gt;node8 -->
<g id="edge17" class="edge">
<title>node9&#45;&gt;node8</title>
<path fill="none" stroke="blue" d="M264.92,-295.61C274.52,-304.62 285.1,-315.18 294.25,-324.85"/>
<polygon fill="blue" stroke="blue" points="291.86,-327.42 301.23,-332.37 296.99,-322.66 291.86,-327.42"/>
</g>
<!-- node10&#45;&gt;node8 -->
<g id="edge19" class="edge">
<title>node10&#45;&gt;node8</title>
<path fill="none" stroke="blue" d="M381.25,-295.61C372.88,-304.8 362.36,-315.6 352.22,-325.42"/>
<polygon fill="blue" stroke="blue" points="349.77,-322.93 344.95,-332.37 354.6,-327.99 349.77,-322.93"/>
</g>
<!-- node11 -->
<g id="node11" class="node">
<title>node11</title>
<path fill="pink" stroke="black" d="M166.5,-166.5C166.5,-166.5 297.5,-166.5 297.5,-166.5 303.5,-166.5 309.5,-172.5 309.5,-178.5 309.5,-178.5 309.5,-200.5 309.5,-200.5 309.5,-206.5 303.5,-212.5 297.5,-212.5 297.5,-212.5 166.5,-212.5 166.5,-212.5 160.5,-212.5 154.5,-206.5 154.5,-200.5 154.5,-200.5 154.5,-178.5 154.5,-178.5 154.5,-172.5 160.5,-166.5 166.5,-166.5"/>
<text text-anchor="middle" x="172" y="-197.3" font-family="Times,serif" font-size="14.00">11</text>
<polyline fill="none" stroke="black" points="189.5,-189.5 189.5,-212.5 "/>
<text text-anchor="middle" x="217" y="-197.3" font-family="Times,serif" font-size="14.00">NUM</text>
<polyline fill="none" stroke="black" points="244.5,-189.5 244.5,-212.5 "/>
<text text-anchor="middle" x="277" y="-197.3" font-family="Times,serif" font-size="14.00">size=1</text>
<polyline fill="none" stroke="black" points="154.5,-189.5 309.5,-189.5 "/>
<text text-anchor="middle" x="232" y="-174.3" font-family="Times,serif" font-size="14.00">2</text>
</g>
<!-- node10&#45;&gt;node11 -->
<g id="edge20" class="edge">
<title>node10&#45;&gt;node11</title>
<path fill="none" stroke="red" d="M345.82,-249.37C324.78,-239.41 300.57,-227.58 279.88,-217.14"/>
<polygon fill="red" stroke="red" points="281.45,-214.01 270.94,-212.61 278.28,-220.25 281.45,-214.01"/>
</g>
<!-- node12 -->
<g id="node12" class="node">
<title>node12</title>
<path fill="peachpuff" stroke="black" d="M340,-166.5C340,-166.5 454,-166.5 454,-166.5 460,-166.5 466,-172.5 466,-178.5 466,-178.5 466,-200.5 466,-200.5 466,-206.5 460,-212.5 454,-212.5 454,-212.5 340,-212.5 340,-212.5 334,-212.5 328,-206.5 328,-200.5 328,-200.5 328,-178.5 328,-178.5 328,-172.5 334,-166.5 340,-166.5"/>
<text text-anchor="middle" x="345.5" y="-197.3" font-family="Times,serif" font-size="14.00">12</text>
<polyline fill="none" stroke="black" points="363,-189.5 363,-212.5 "/>
<text text-anchor="middle" x="382" y="-197.3" font-family="Times,serif" font-size="14.00">OP</text>
<polyline fill="none" stroke="black" points="401,-189.5 401,-212.5 "/>
<text text-anchor="middle" x="433.5" y="-197.3" font-family="Times,serif" font-size="14.00">size=2</text>
<polyline fill="none" stroke="black" points="328,-189.5 466,-189.5 "/>
<text text-anchor="middle" x="397" y="-174.3" font-family="Times,serif" font-size="14.00">arccos</text>
</g>
<!-- node10&#45;&gt;node12 -->
<g id="edge22" class="edge">
<title>node10&#45;&gt;node12</title>
<path fill="none" stroke="green" d="M390.91,-249.37C390.28,-241.15 390.1,-231.66 390.38,-222.73"/>
<polygon fill="green" stroke="green" points="393.88,-222.78 390.91,-212.61 386.89,-222.41 393.88,-222.78"/>
</g>
<!-- node11&#45;&gt;node10 -->
<g id="edge21" class="edge">
<title>node11&#45;&gt;node10</title>
<path fill="none" stroke="blue" d="M283.12,-212.61C304.16,-222.56 328.37,-234.39 349.07,-244.83"/>
<polygon fill="blue" stroke="blue" points="347.5,-247.96 358,-249.37 350.67,-241.72 347.5,-247.96"/>
</g>
<!-- node12&#45;&gt;node10 -->
<g id="edge23" class="edge">
<title>node12&#45;&gt;node10</title>
<path fill="none" stroke="blue" d="M403.09,-212.61C403.72,-220.82 403.9,-230.31 403.62,-239.25"/>
<polygon fill="blue" stroke="blue" points="400.12,-239.2 403.09,-249.37 407.11,-239.56 400.12,-239.2"/>
</g>
<!-- node13 -->
<g id="node13" class="node">
<title>node13</title>
<path fill="lightyellow" stroke="black" d="M335,-83.5C335,-83.5 457,-83.5 457,-83.5 463,-83.5 469,-89.5 469,-95.5 469,-95.5 469,-117.5 469,-117.5 469,-123.5 463,-129.5 457,-129.5 457,-129.5 335,-129.5 335,-129.5 329,-129.5 323,-123.5 323,-117.5 323,-117.5 323,-95.5 323,-95.5 323,-89.5 329,-83.5 335,-83.5"/>
<text text-anchor="middle" x="340.5" y="-114.3" font-family="Times,serif" font-size="14.00">13</text>
<polyline fill="none" stroke="black" points="358,-106.5 358,-129.5 "/>
<text text-anchor="middle" x="381" y="-114.3" font-family="Times,serif" font-size="14.00">VAR</text>
<polyline fill="none" stroke="black" points="404,-106.5 404,-129.5 "/>
<text text-anchor="middle" x="436.5" y="-114.3" font-family="Times,serif" font-size="14.00">size=1</text>
<polyline fill="none" stroke="black" points="323,-106.5 469,-106.5 "/>
<text text-anchor="middle" x="396" y="-91.3" font-family="Times,serif" font-size="14.00">x</text>
</g>
<!-- node12&#45;&gt;node13 -->
<g id="edge24" class="edge">
<title>node12&#45;&gt;node13</title>
<path fill="none" stroke="red" d="M390.64,-166.37C389.9,-158.15 389.61,-148.66 389.77,-139.73"/>
<polygon fill="red" stroke="red" points="393.28,-139.74 390.18,-129.61 386.28,-139.46 393.28,-139.74"/>
</g>
<!-- node13&#45;&gt;node12 -->
<g id="edge25" class="edge">
<title>node13&#45;&gt;node12</title>
<path fill="none" stroke="blue" d="M402.36,-129.61C403.1,-137.82 403.39,-147.31 403.23,-156.25"/>
<polygon fill="blue" stroke="blue" points="399.72,-156.23 402.82,-166.37 406.72,-156.52 399.72,-156.23"/>
</g>
<!-- node14&#45;&gt;node4 -->
<g id="edge27" class="edge">
<title>node14&#45;&gt;node4</title>
<path fill="none" stroke="blue" d="M861.89,-461.61C854.28,-470.71 844.66,-481.39 835.34,-491.14"/>
<polygon fill="blue" stroke="blue" points="832.78,-488.76 828.31,-498.37 837.79,-493.64 832.78,-488.76"/>
</g>
<!-- node15 -->
<g id="node15" class="node">
<title>node15</title>
<path fill="peachpuff" stroke="black" d="M819,-332.5C819,-332.5 933,-332.5 933,-332.5 939,-332.5 945,-338.5 945,-344.5 945,-344.5 945,-366.5 945,-366.5 945,-372.5 939,-378.5 933,-378.5 933,-378.5 819,-378.5 819,-378.5 813,-378.5 807,-372.5 807,-366.5 807,-366.5 807,-344.5 807,-344.5 807,-338.5 813,-332.5 819,-332.5"/>
<text text-anchor="middle" x="824.5" y="-363.3" font-family="Times,serif" font-size="14.00">15</text>
<polyline fill="none" stroke="black" points="842,-355.5 842,-378.5 "/>
<text text-anchor="middle" x="861" y="-363.3" font-family="Times,serif" font-size="14.00">OP</text>
<polyline fill="none" stroke="black" points="880,-355.5 880,-378.5 "/>
<text text-anchor="middle" x="912.5" y="-363.3" font-family="Times,serif" font-size="14.00">size=9</text>
<polyline fill="none" stroke="black" points="807,-355.5 945,-355.5 "/>
<text text-anchor="middle" x="876" y="-340.3" font-family="Times,serif" font-size="14.00">+</text>
</g>
<!-- node14&#45;&gt;node15 -->
<g id="edge28" class="edge">
<title>node14&#45;&gt;node15</title>
<path fill="none" stroke="red" d="M869.91,-415.37C869.28,-407.15 869.1,-397.66 869.38,-388.73"/>
<polygon fill="red" stroke="red" points="872.88,-388.78 869.91,-378.61 865.89,-388.41 872.88,-388.78"/>
</g>
<!-- node24 -->
<g id="node24" class="node">
<title>node24</title>
<path fill="peachpuff" stroke="black" d="M993.5,-332.5C993.5,-332.5 1116.5,-332.5 1116.5,-332.5 1122.5,-332.5 1128.5,-338.5 1128.5,-344.5 1128.5,-344.5 1128.5,-366.5 1128.5,-366.5 1128.5,-372.5 1122.5,-378.5 1116.5,-378.5 1116.5,-378.5 993.5,-378.5 993.5,-378.5 987.5,-378.5 981.5,-372.5 981.5,-366.5 981.5,-366.5 981.5,-344.5 981.5,-344.5 981.5,-338.5 987.5,-332.5 993.5,-332.5"/>
<text text-anchor="middle" x="999" y="-363.3" font-family="Times,serif" font-size="14.00">24</text>
<polyline fill="none" stroke="black" points="1016.5,-355.5 1016.5,-378.5 "/>
<text text-anchor="middle" x="1035.5" y="-363.3" font-family="Times,serif" font-size="14.00">OP</text>
<polyline fill="none" stroke="black" points="1054.5,-355.5 1054.5,-378.5 "/>
<text text-anchor="middle" x="1091.5" y="-363.3" font-family="Times,serif" font-size="14.00">size=11</text>
<polyline fill="none" stroke="black" points="981.5,-355.5 1128.5,-355.5 "/>
<text text-anchor="middle" x="1055" y="-340.3" font-family="Times,serif" font-size="14.00">^</text>
</g>
<!-- node14&#45;&gt;node24 -->
<g id="edge46" class="edge">
<title>node14&#45;&gt;node24</title>
<path fill="none" stroke="green" d="M918.82,-415.37C940.34,-405.28 966.81,-393.26 990.7,-382.72"/>
<polygon fill="green" stroke="green" points="992.31,-385.83 1000.06,-378.61 989.49,-379.42 992.31,-385.83"/>
</g>
<!-- node15&#45;&gt;node14 -->
<g id="edge29" class="edge">
<title>node15&#45;&gt;node14</title>
<path fill="none" stroke="blue" d="M882.09,-378.61C882.72,-386.82 882.9,-396.31 882.62,-405.25"/>
<polygon fill="blue" stroke="blue" points="879.12,-405.2 882.09,-415.37 886.11,-405.56 879.12,-405.2"/>
</g>
<!-- node16 -->
<g id="node16" class="node">
<title>node16</title>
<path fill="peachpuff" stroke="black" d="M662,-249.5C662,-249.5 776,-249.5 776,-249.5 782,-249.5 788,-255.5 788,-261.5 788,-261.5 788,-283.5 788,-283.5 788,-289.5 782,-295.5 776,-295.5 776,-295.5 662,-295.5 662,-295.5 656,-295.5 650,-289.5 650,-283.5 650,-283.5 650,-261.5 650,-261.5 650,-255.5 656,-249.5 662,-249.5"/>
<text text-anchor="middle" x="667.5" y="-280.3" font-family="Times,serif" font-size="14.00">16</text>
<polyline fill="none" stroke="black" points="685,-272.5 685,-295.5 "/>
<text text-anchor="middle" x="704" y="-280.3" font-family="Times,serif" font-size="14.00">OP</text>
<polyline fill="none" stroke="black" points="723,-272.5 723,-295.5 "/>
<text text-anchor="middle" x="755.5" y="-280.3" font-family="Times,serif" font-size="14.00">size=7</text>
<polyline fill="none" stroke="black" points="650,-272.5 788,-272.5 "/>
<text text-anchor="middle" x="719" y="-257.3" font-family="Times,serif" font-size="14.00">*</text>
</g>
<!-- node15&#45;&gt;node16 -->
<g id="edge30" class="edge">
<title>node15&#45;&gt;node16</title>
<path fill="none" stroke="red" d="M827.01,-332.37C807.12,-322.5 784.32,-310.79 764.78,-300.42"/>
<polygon fill="red" stroke="red" points="766.23,-297.23 755.76,-295.61 762.93,-303.4 766.23,-297.23"/>
</g>
<!-- node23 -->
<g id="node23" class="node">
<title>node23</title>
<path fill="pink" stroke="black" d="M818.5,-249.5C818.5,-249.5 949.5,-249.5 949.5,-249.5 955.5,-249.5 961.5,-255.5 961.5,-261.5 961.5,-261.5 961.5,-283.5 961.5,-283.5 961.5,-289.5 955.5,-295.5 949.5,-295.5 949.5,-295.5 818.5,-295.5 818.5,-295.5 812.5,-295.5 806.5,-289.5 806.5,-283.5 806.5,-283.5 806.5,-261.5 806.5,-261.5 806.5,-255.5 812.5,-249.5 818.5,-249.5"/>
<text text-anchor="middle" x="824" y="-280.3" font-family="Times,serif" font-size="14.00">23</text>
<polyline fill="none" stroke="black" points="841.5,-272.5 841.5,-295.5 "/>
<text text-anchor="middle" x="869" y="-280.3" font-family="Times,serif" font-size="14.00">NUM</text>
<polyline fill="none" stroke="black" points="896.5,-272.5 896.5,-295.5 "/>
<text text-anchor="middle" x="929" y="-280.3" font-family="Times,serif" font-size="14.00">size=1</text>
<polyline fill="none" stroke="black" points="806.5,-272.5 961.5,-272.5 "/>
<text text-anchor="middle" x="884" y="-257.3" font-family="Times,serif" font-size="14.00">1</text>
</g>
<!-- node15&#45;&gt;node23 -->
<g id="edge44" class="edge">
<title>node15&#45;&gt;node23</title>
<path fill="none" stroke="green" d="M872.1,-332.37C872.27,-324.15 873.03,-314.66 874.19,-305.73"/>
<polygon fill="green" stroke="green" points="877.69,-306.02 875.73,-295.61 870.77,-304.97 877.69,-306.02"/>
</g>
<!-- node16&#45;&gt;node15 -->
<g id="edge31" class="edge">
<title>node16&#45;&gt;node15</title>
<path fill="none" stroke="blue" d="M767.94,-295.61C787.82,-305.47 810.62,-317.18 830.17,-327.55"/>
<polygon fill="blue" stroke="blue" points="828.72,-330.75 839.19,-332.37 832.02,-324.57 828.72,-330.75"/>
</g>
<!-- node17 -->
<g id="node17" class="node">
<title>node17</title>
<path fill="pink" stroke="black" d="M497.5,-166.5C497.5,-166.5 628.5,-166.5 628.5,-166.5 634.5,-166.5 640.5,-172.5 640.5,-178.5 640.5,-178.5 640.5,-200.5 640.5,-200.5 640.5,-206.5 634.5,-212.5 628.5,-212.5 628.5,-212.5 497.5,-212.5 497.5,-212.5 491.5,-212.5 485.5,-206.5 485.5,-200.5 485.5,-200.5 485.5,-178.5 485.5,-178.5 485.5,-172.5 491.5,-166.5 497.5,-166.5"/>
<text text-anchor="middle" x="503" y="-197.3" font-family="Times,serif" font-size="14.00">17</text>
<polyline fill="none" stroke="black" points="520.5,-189.5 520.5,-212.5 "/>
<text text-anchor="middle" x="548" y="-197.3" font-family="Times,serif" font-size="14.00">NUM</text>
<polyline fill="none" stroke="black" points="575.5,-189.5 575.5,-212.5 "/>
<text text-anchor="middle" x="608" y="-197.3" font-family="Times,serif" font-size="14.00">size=1</text>
<polyline fill="none" stroke="black" points="485.5,-189.5 640.5,-189.5 "/>
<text text-anchor="middle" x="563" y="-174.3" font-family="Times,serif" font-size="14.00">3</text>
</g>
<!-- node16&#45;&gt;node17 -->
<g id="edge32" class="edge">
<title>node16&#45;&gt;node17</title>
<path fill="none" stroke="red" d="M670.28,-249.37C650.52,-239.5 627.86,-227.79 608.44,-217.42"/>
<polygon fill="red" stroke="red" points="609.95,-214.26 599.49,-212.61 606.64,-220.42 609.95,-214.26"/>
</g>
<!-- node18 -->
<g id="node18" class="node">
<title>node18</title>
<path fill="peachpuff" stroke="black" d="M671,-166.5C671,-166.5 785,-166.5 785,-166.5 791,-166.5 797,-172.5 797,-178.5 797,-178.5 797,-200.5 797,-200.5 797,-206.5 791,-212.5 785,-212.5 785,-212.5 671,-212.5 671,-212.5 665,-212.5 659,-206.5 659,-200.5 659,-200.5 659,-178.5 659,-178.5 659,-172.5 665,-166.5 671,-166.5"/>
<text text-anchor="middle" x="676.5" y="-197.3" font-family="Times,serif" font-size="14.00">18</text>
<polyline fill="none" stroke="black" points="694,-189.5 694,-212.5 "/>
<text text-anchor="middle" x="713" y="-197.3" font-family="Times,serif" font-size="14.00">OP</text>
<polyline fill="none" stroke="black" points="732,-189.5 732,-212.5 "/>
<text text-anchor="middle" x="764.5" y="-197.3" font-family="Times,serif" font-size="14.00">size=5</text>
<polyline fill="none" stroke="black" points="659,-189.5 797,-189.5 "/>
<text text-anchor="middle" x="728" y="-174.3" font-family="Times,serif" font-size="14.00">&#45;</text>
</g>
<!-- node16&#45;&gt;node18 -->
<g id="edge34" class="edge">
<title>node16&#45;&gt;node18</title>
<path fill="none" stroke="green" d="M715.37,-249.37C715.65,-241.15 716.53,-231.66 717.8,-222.73"/>
<polygon fill="green" stroke="green" points="721.29,-223.04 719.45,-212.61 714.38,-221.91 721.29,-223.04"/>
</g>
<!-- node17&#45;&gt;node16 -->
<g id="edge33" class="edge">
<title>node17&#45;&gt;node16</title>
<path fill="none" stroke="blue" d="M611.66,-212.61C631.42,-222.47 654.08,-234.18 673.5,-244.55"/>
<polygon fill="blue" stroke="blue" points="672,-247.72 682.46,-249.37 675.31,-241.55 672,-247.72"/>
</g>
<!-- node18&#45;&gt;node16 -->
<g id="edge35" class="edge">
<title>node18&#45;&gt;node16</title>
<path fill="none" stroke="blue" d="M731.63,-212.61C731.35,-220.82 730.48,-230.31 729.21,-239.25"/>
<polygon fill="blue" stroke="blue" points="725.71,-238.93 727.55,-249.37 732.62,-240.06 725.71,-238.93"/>
</g>
<!-- node19 -->
<g id="node19" class="node">
<title>node19</title>
<path fill="pink" stroke="black" d="M499.5,-83.5C499.5,-83.5 630.5,-83.5 630.5,-83.5 636.5,-83.5 642.5,-89.5 642.5,-95.5 642.5,-95.5 642.5,-117.5 642.5,-117.5 642.5,-123.5 636.5,-129.5 630.5,-129.5 630.5,-129.5 499.5,-129.5 499.5,-129.5 493.5,-129.5 487.5,-123.5 487.5,-117.5 487.5,-117.5 487.5,-95.5 487.5,-95.5 487.5,-89.5 493.5,-83.5 499.5,-83.5"/>
<text text-anchor="middle" x="505" y="-114.3" font-family="Times,serif" font-size="14.00">19</text>
<polyline fill="none" stroke="black" points="522.5,-106.5 522.5,-129.5 "/>
<text text-anchor="middle" x="550" y="-114.3" font-family="Times,serif" font-size="14.00">NUM</text>
<polyline fill="none" stroke="black" points="577.5,-106.5 577.5,-129.5 "/>
<text text-anchor="middle" x="610" y="-114.3" font-family="Times,serif" font-size="14.00">size=1</text>
<polyline fill="none" stroke="black" points="487.5,-106.5 642.5,-106.5 "/>
<text text-anchor="middle" x="565" y="-91.3" font-family="Times,serif" font-size="14.00">2,5</text>
</g>
<!-- node18&#45;&gt;node19 -->
<g id="edge36" class="edge">
<title>node18&#45;&gt;node19</title>
<path fill="none" stroke="red" d="M677.37,-166.37C656.66,-156.46 632.87,-144.68 612.49,-134.28"/>
<polygon fill="red" stroke="red" points="613.89,-131.06 603.4,-129.61 610.69,-137.29 613.89,-131.06"/>
</g>
<!-- node20 -->
<g id="node20" class="node">
<title>node20</title>
<path fill="peachpuff" stroke="black" d="M673,-83.5C673,-83.5 787,-83.5 787,-83.5 793,-83.5 799,-89.5 799,-95.5 799,-95.5 799,-117.5 799,-117.5 799,-123.5 793,-129.5 787,-129.5 787,-129.5 673,-129.5 673,-129.5 667,-129.5 661,-123.5 661,-117.5 661,-117.5 661,-95.5 661,-95.5 661,-89.5 667,-83.5 673,-83.5"/>
<text text-anchor="middle" x="678.5" y="-114.3" font-family="Times,serif" font-size="14.00">20</text>
<polyline fill="none" stroke="black" points="696,-106.5 696,-129.5 "/>
<text text-anchor="middle" x="715" y="-114.3" font-family="Times,serif" font-size="14.00">OP</text>
<polyline fill="none" stroke="black" points="734,-106.5 734,-129.5 "/>
<text text-anchor="middle" x="766.5" y="-114.3" font-family="Times,serif" font-size="14.00">size=3</text>
<polyline fill="none" stroke="black" points="661,-106.5 799,-106.5 "/>
<text text-anchor="middle" x="730" y="-91.3" font-family="Times,serif" font-size="14.00">/</text>
</g>
<!-- node18&#45;&gt;node20 -->
<g id="edge38" class="edge">
<title>node18&#45;&gt;node20</title>
<path fill="none" stroke="green" d="M722.46,-166.37C722.03,-158.15 722.08,-148.66 722.58,-139.73"/>
<polygon fill="green" stroke="green" points="726.08,-139.85 723.37,-129.61 719.1,-139.31 726.08,-139.85"/>
</g>
<!-- node19&#45;&gt;node18 -->
<g id="edge37" class="edge">
<title>node19&#45;&gt;node18</title>
<path fill="none" stroke="blue" d="M615.58,-129.61C636.28,-139.51 660.07,-151.29 680.45,-161.69"/>
<polygon fill="blue" stroke="blue" points="679.06,-164.91 689.55,-166.37 682.25,-158.68 679.06,-164.91"/>
</g>
<!-- node20&#45;&gt;node18 -->
<g id="edge39" class="edge">
<title>node20&#45;&gt;node18</title>
<path fill="none" stroke="blue" d="M735.54,-129.61C735.97,-137.82 735.92,-147.31 735.42,-156.25"/>
<polygon fill="blue" stroke="blue" points="731.92,-156.13 734.64,-166.37 738.9,-156.67 731.92,-156.13"/>
</g>
<!-- node21 -->
<g id="node21" class="node">
<title>node21</title>
<path fill="pink" stroke="black" d="M578.5,-0.5C578.5,-0.5 709.5,-0.5 709.5,-0.5 715.5,-0.5 721.5,-6.5 721.5,-12.5 721.5,-12.5 721.5,-34.5 721.5,-34.5 721.5,-40.5 715.5,-46.5 709.5,-46.5 709.5,-46.5 578.5,-46.5 578.5,-46.5 572.5,-46.5 566.5,-40.5 566.5,-34.5 566.5,-34.5 566.5,-12.5 566.5,-12.5 566.5,-6.5 572.5,-0.5 578.5,-0.5"/>
<text text-anchor="middle" x="584" y="-31.3" font-family="Times,serif" font-size="14.00">21</text>
<polyline fill="none" stroke="black" points="601.5,-23.5 601.5,-46.5 "/>
<text text-anchor="middle" x="629" y="-31.3" font-family="Times,serif" font-size="14.00">NUM</text>
<polyline fill="none" stroke="black" points="656.5,-23.5 656.5,-46.5 "/>
<text text-anchor="middle" x="689" y="-31.3" font-family="Times,serif" font-size="14.00">size=1</text>
<polyline fill="none" stroke="black" points="566.5,-23.5 721.5,-23.5 "/>
<text text-anchor="middle" x="644" y="-8.3" font-family="Times,serif" font-size="14.00">0,1</text>
</g>
<!-- node20&#45;&gt;node21 -->
<g id="edge40" class="edge">
<title>node20&#45;&gt;node21</title>
<path fill="none" stroke="red" d="M700.41,-83.37C690.04,-74.26 678.56,-63.58 668.63,-53.83"/>
<polygon fill="red" stroke="red" points="670.93,-51.19 661.38,-46.61 665.99,-56.15 670.93,-51.19"/>
</g>
<!-- node22 -->
<g id="node22" class="node">
<title>node22</title>
<path fill="pink" stroke="black" d="M751.5,-0.5C751.5,-0.5 882.5,-0.5 882.5,-0.5 888.5,-0.5 894.5,-6.5 894.5,-12.5 894.5,-12.5 894.5,-34.5 894.5,-34.5 894.5,-40.5 888.5,-46.5 882.5,-46.5 882.5,-46.5 751.5,-46.5 751.5,-46.5 745.5,-46.5 739.5,-40.5 739.5,-34.5 739.5,-34.5 739.5,-12.5 739.5,-12.5 739.5,-6.5 745.5,-0.5 751.5,-0.5"/>
<text text-anchor="middle" x="757" y="-31.3" font-family="Times,serif" font-size="14.00">22</text>
<polyline fill="none" stroke="black" points="774.5,-23.5 774.5,-46.5 "/>
<text text-anchor="middle" x="802" y="-31.3" font-family="Times,serif" font-size="14.00">NUM</text>
<polyline fill="none" stroke="black" points="829.5,-23.5 829.5,-46.5 "/>
<text text-anchor="middle" x="862" y="-31.3" font-family="Times,serif" font-size="14.00">size=1</text>
<polyline fill="none" stroke="black" points="739.5,-23.5 894.5,-23.5 "/>
<text text-anchor="middle" x="817" y="-8.3" font-family="Times,serif" font-size="14.00">2</text>
</g>
<!-- node20&#45;&gt;node22 -->
<g id="edge42" class="edge">
<title>node20&#45;&gt;node22</title>
<path fill="none" stroke="green" d="M747.68,-83.37C756.94,-74.08 768.54,-63.16 779.62,-53.26"/>
<polygon fill="green" stroke="green" points="781.98,-55.84 787.17,-46.61 777.35,-50.59 781.98,-55.84"/>
</g>
<!-- node21&#45;&gt;node20 -->
<g id="edge41" class="edge">
<title>node21&#45;&gt;node20</title>
<path fill="none" stroke="blue" d="M673.56,-46.61C683.93,-55.71 695.41,-66.39 705.34,-76.14"/>
<polygon fill="blue" stroke="blue" points="703.04,-78.78 712.59,-83.37 707.98,-73.83 703.04,-78.78"/>
</g>
<!-- node22&#45;&gt;node20 -->
<g id="edge43" class="edge">
<title>node22&#45;&gt;node20</title>
<path fill="none" stroke="blue" d="M799.34,-46.61C790.09,-55.89 778.5,-66.81 767.42,-76.71"/>
<polygon fill="blue" stroke="blue" points="765.05,-74.13 759.86,-83.37 769.68,-79.38 765.05,-74.13"/>
</g>
<!-- node23&#45;&gt;node15 -->
<g id="edge45" class="edge">
<title>node23&#45;&gt;node15</title>
<path fill="none" stroke="blue" d="M887.91,-295.61C887.73,-303.82 886.97,-313.31 885.81,-322.25"/>
<polygon fill="blue" stroke="blue" points="882.31,-321.96 884.28,-332.37 889.23,-323 882.31,-321.96"/>
</g>
<!-- node24&#45;&gt;node14 -->
<g id="edge47" class="edge">
<title>node24&#45;&gt;node14</title>
<path fill="none" stroke="blue" d="M1012.24,-378.61C990.72,-388.69 964.25,-400.71 940.36,-411.25"/>
<polygon fill="blue" stroke="blue" points="938.75,-408.14 931,-415.37 941.57,-414.55 938.75,-408.14"/>
</g>
<!-- node25 -->
<g id="node25" class="node">
<title>node25</title>
<path fill="peachpuff" stroke="black" d="M998,-249.5C998,-249.5 1112,-249.5 1112,-249.5 1118,-249.5 1124,-255.5 1124,-261.5 1124,-261.5 1124,-283.5 1124,-283.5 1124,-289.5 1118,-295.5 1112,-295.5 1112,-295.5 998,-295.5 998,-295.5 992,-295.5 986,-289.5 986,-283.5 986,-283.5 986,-261.5 986,-261.5 986,-255.5 992,-249.5 998,-249.5"/>
<text text-anchor="middle" x="1003.5" y="-280.3" font-family="Times,serif" font-size="14.00">25</text>
<polyline fill="none" stroke="black" points="1021,-272.5 1021,-295.5 "/>
<text text-anchor="middle" x="1040" y="-280.3" font-family="Times,serif" font-size="14.00">OP</text>
<polyline fill="none" stroke="black" points="1059,-272.5 1059,-295.5 "/>
<text text-anchor="middle" x="1091.5" y="-280.3" font-family="Times,serif" font-size="14.00">size=5</text>
<polyline fill="none" stroke="black" points="986,-272.5 1124,-272.5 "/>
<text text-anchor="middle" x="1055" y="-257.3" font-family="Times,serif" font-size="14.00">/</text>
</g>
<!-- node24&#45;&gt;node25 -->
<g id="edge48" class="edge">
<title>node24&#45;&gt;node25</title>
<path fill="none" stroke="red" d="M1048.91,-332.37C1048.28,-324.15 1048.1,-314.66 1048.38,-305.73"/>
<polygon fill="red" stroke="red" points="1051.88,-305.78 1048.91,-295.61 1044.89,-305.41 1051.88,-305.78"/>
</g>
<!-- node30 -->
<g id="node30" class="node">
<title>node30</title>
<path fill="peachpuff" stroke="black" d="M1176,-249.5C1176,-249.5 1290,-249.5 1290,-249.5 1296,-249.5 1302,-255.5 1302,-261.5 1302,-261.5 1302,-283.5 1302,-283.5 1302,-289.5 1296,-295.5 1290,-295.5 1290,-295.5 1176,-295.5 1176,-295.5 1170,-295.5 1164,-289.5 1164,-283.5 1164,-283.5 1164,-261.5 1164,-261.5 1164,-255.5 1170,-249.5 1176,-249.5"/>
<text text-anchor="middle" x="1181.5" y="-280.3" font-family="Times,serif" font-size="14.00">30</text>
<polyline fill="none" stroke="black" points="1199,-272.5 1199,-295.5 "/>
<text text-anchor="middle" x="1218" y="-280.3" font-family="Times,serif" font-size="14.00">OP</text>
<polyline fill="none" stroke="black" points="1237,-272.5 1237,-295.5 "/>
<text text-anchor="middle" x="1269.5" y="-280.3" font-family="Times,serif" font-size="14.00">size=5</text>
<polyline fill="none" stroke="black" points="1164,-272.5 1302,-272.5 "/>
<text text-anchor="middle" x="1233" y="-257.3" font-family="Times,serif" font-size="14.00">^</text>
</g>
<!-- node24&#45;&gt;node30 -->
<g id="edge58" class="edge">
<title>node24&#45;&gt;node30</title>
<path fill="none" stroke="green" d="M1097.55,-332.37C1118.94,-322.28 1145.27,-310.26 1169.02,-299.72"/>
<polygon fill="green" stroke="green" points="1170.6,-302.85 1178.33,-295.61 1167.77,-296.45 1170.6,-302.85"/>
</g>
<!-- node25&#45;&gt;node24 -->
<g id="edge49" class="edge">
<title>node25&#45;&gt;node24</title>
<path fill="none" stroke="blue" d="M1061.09,-295.61C1061.72,-303.82 1061.9,-313.31 1061.62,-322.25"/>
<polygon fill="blue" stroke="blue" points="1058.12,-322.2 1061.09,-332.37 1065.11,-322.56 1058.12,-322.2"/>
</g>
<!-- node26 -->
<g id="node26" class="node">
<title>node26</title>
<path fill="peachpuff" stroke="black" d="M838,-166.5C838,-166.5 952,-166.5 952,-166.5 958,-166.5 964,-172.5 964,-178.5 964,-178.5 964,-200.5 964,-200.5 964,-206.5 958,-212.5 952,-212.5 952,-212.5 838,-212.5 838,-212.5 832,-212.5 826,-206.5 826,-200.5 826,-200.5 826,-178.5 826,-178.5 826,-172.5 832,-166.5 838,-166.5"/>
<text text-anchor="middle" x="843.5" y="-197.3" font-family="Times,serif" font-size="14.00">26</text>
<polyline fill="none" stroke="black" points="861,-189.5 861,-212.5 "/>
<text text-anchor="middle" x="880" y="-197.3" font-family="Times,serif" font-size="14.00">OP</text>
<polyline fill="none" stroke="black" points="899,-189.5 899,-212.5 "/>
<text text-anchor="middle" x="931.5" y="-197.3" font-family="Times,serif" font-size="14.00">size=3</text>
<polyline fill="none" stroke="black" points="826,-189.5 964,-189.5 "/>
<text text-anchor="middle" x="895" y="-174.3" font-family="Times,serif" font-size="14.00">*</text>
</g>
<!-- node25&#45;&gt;node26 -->
<g id="edge50" class="edge">
<title>node25&#45;&gt;node26</title>
<path fill="none" stroke="red" d="M1005.19,-249.37C984.85,-239.46 961.49,-227.68 941.5,-217.28"/>
<polygon fill="red" stroke="red" points="943.06,-214.14 932.58,-212.61 939.82,-220.35 943.06,-214.14"/>
</g>
<!-- node29 -->
<g id="node29" class="node">
<title>node29</title>
<path fill="pink" stroke="black" d="M994.5,-166.5C994.5,-166.5 1125.5,-166.5 1125.5,-166.5 1131.5,-166.5 1137.5,-172.5 1137.5,-178.5 1137.5,-178.5 1137.5,-200.5 1137.5,-200.5 1137.5,-206.5 1131.5,-212.5 1125.5,-212.5 1125.5,-212.5 994.5,-212.5 994.5,-212.5 988.5,-212.5 982.5,-206.5 982.5,-200.5 982.5,-200.5 982.5,-178.5 982.5,-178.5 982.5,-172.5 988.5,-166.5 994.5,-166.5"/>
<text text-anchor="middle" x="1000" y="-197.3" font-family="Times,serif" font-size="14.00">29</text>
<polyline fill="none" stroke="black" points="1017.5,-189.5 1017.5,-212.5 "/>
<text text-anchor="middle" x="1045" y="-197.3" font-family="Times,serif" font-size="14.00">NUM</text>
<polyline fill="none" stroke="black" points="1072.5,-189.5 1072.5,-212.5 "/>
<text text-anchor="middle" x="1105" y="-197.3" font-family="Times,serif" font-size="14.00">size=1</text>
<polyline fill="none" stroke="black" points="982.5,-189.5 1137.5,-189.5 "/>
<text text-anchor="middle" x="1060" y="-174.3" font-family="Times,serif" font-size="14.00">7</text>
</g>
<!-- node25&#45;&gt;node29 -->
<g id="edge56" class="edge">
<title>node25&#45;&gt;node29</title>
<path fill="none" stroke="green" d="M1050.28,-249.37C1050.15,-241.15 1050.56,-231.66 1051.39,-222.73"/>
<polygon fill="green" stroke="green" points="1054.89,-222.94 1052.55,-212.61 1047.93,-222.14 1054.89,-222.94"/>
</g>
<!-- node26&#45;&gt;node25 -->
<g id="edge51" class="edge">
<title>node26&#45;&gt;node25</title>
<path fill="none" stroke="blue" d="M944.76,-212.61C965.09,-222.51 988.45,-234.29 1008.44,-244.69"/>
<polygon fill="blue" stroke="blue" points="1006.89,-247.83 1017.37,-249.37 1010.13,-241.63 1006.89,-247.83"/>
</g>
<!-- node27 -->
<g id="node27" class="node">
<title>node27</title>
<path fill="pink" stroke="black" d="M829.5,-83.5C829.5,-83.5 960.5,-83.5 960.5,-83.5 966.5,-83.5 972.5,-89.5 972.5,-95.5 972.5,-95.5 972.5,-117.5 972.5,-117.5 972.5,-123.5 966.5,-129.5 960.5,-129.5 960.5,-129.5 829.5,-129.5 829.5,-129.5 823.5,-129.5 817.5,-123.5 817.5,-117.5 817.5,-117.5 817.5,-95.5 817.5,-95.5 817.5,-89.5 823.5,-83.5 829.5,-83.5"/>
<text text-anchor="middle" x="835" y="-114.3" font-family="Times,serif" font-size="14.00">27</text>
<polyline fill="none" stroke="black" points="852.5,-106.5 852.5,-129.5 "/>
<text text-anchor="middle" x="880" y="-114.3" font-family="Times,serif" font-size="14.00">NUM</text>
<polyline fill="none" stroke="black" points="907.5,-106.5 907.5,-129.5 "/>
<text text-anchor="middle" x="940" y="-114.3" font-family="Times,serif" font-size="14.00">size=1</text>
<polyline fill="none" stroke="black" points="817.5,-106.5 972.5,-106.5 "/>
<text text-anchor="middle" x="895" y="-91.3" font-family="Times,serif" font-size="14.00">2</text>
</g>
<!-- node26&#45;&gt;node27 -->
<g id="edge52" class="edge">
<title>node26&#45;&gt;node27</title>
<path fill="none" stroke="red" d="M888.91,-166.37C888.28,-158.15 888.1,-148.66 888.38,-139.73"/>
<polygon fill="red" stroke="red" points="891.88,-139.78 888.91,-129.61 884.89,-139.41 891.88,-139.78"/>
</g>
<!-- node28 -->
<g id="node28" class="node">
<title>node28</title>
<path fill="pink" stroke="black" d="M1002.5,-83.5C1002.5,-83.5 1133.5,-83.5 1133.5,-83.5 1139.5,-83.5 1145.5,-89.5 1145.5,-95.5 1145.5,-95.5 1145.5,-117.5 1145.5,-117.5 1145.5,-123.5 1139.5,-129.5 1133.5,-129.5 1133.5,-129.5 1002.5,-129.5 1002.5,-129.5 996.5,-129.5 990.5,-123.5 990.5,-117.5 990.5,-117.5 990.5,-95.5 990.5,-95.5 990.5,-89.5 996.5,-83.5 1002.5,-83.5"/>
<text text-anchor="middle" x="1008" y="-114.3" font-family="Times,serif" font-size="14.00">28</text>
<polyline fill="none" stroke="black" points="1025.5,-106.5 1025.5,-129.5 "/>
<text text-anchor="middle" x="1053" y="-114.3" font-family="Times,serif" font-size="14.00">NUM</text>
<polyline fill="none" stroke="black" points="1080.5,-106.5 1080.5,-129.5 "/>
<text text-anchor="middle" x="1113" y="-114.3" font-family="Times,serif" font-size="14.00">size=1</text>
<polyline fill="none" stroke="black" points="990.5,-106.5 1145.5,-106.5 "/>
<text text-anchor="middle" x="1068" y="-91.3" font-family="Times,serif" font-size="14.00">16</text>
</g>
<!-- node26&#45;&gt;node28 -->
<g id="edge54" class="edge">
<title>node26&#45;&gt;node28</title>
<path fill="none" stroke="green" d="M936.18,-166.37C956.86,-156.32 982.31,-144.36 1005.34,-133.86"/>
<polygon fill="green" stroke="green" points="1007.04,-136.93 1014.7,-129.61 1004.14,-130.56 1007.04,-136.93"/>
</g>
<!-- node27&#45;&gt;node26 -->
<g id="edge53" class="edge">
<title>node27&#45;&gt;node26</title>
<path fill="none" stroke="blue" d="M901.09,-129.61C901.72,-137.82 901.9,-147.31 901.62,-156.25"/>
<polygon fill="blue" stroke="blue" points="898.12,-156.2 901.09,-166.37 905.11,-156.56 898.12,-156.2"/>
</g>
<!-- node28&#45;&gt;node26 -->
<g id="edge55" class="edge">
<title>node28&#45;&gt;node26</title>
<path fill="none" stroke="blue" d="M1026.87,-129.61C1006.2,-139.65 980.76,-151.61 957.73,-162.11"/>
<polygon fill="blue" stroke="blue" points="956.02,-159.04 948.36,-166.37 958.92,-165.42 956.02,-159.04"/>
</g>
<!-- node29&#45;&gt;node25 -->
<g id="edge57" class="edge">
<title>node29&#45;&gt;node25</title>
<path fill="none" stroke="blue" d="M1064.72,-212.61C1064.85,-220.82 1064.44,-230.31 1063.62,-239.25"/>
<polygon fill="blue" stroke="blue" points="1060.12,-239.03 1062.46,-249.37 1067.07,-239.83 1060.12,-239.03"/>
</g>
<!-- node30&#45;&gt;node24 -->
<g id="edge59" class="edge">
<title>node30&#45;&gt;node24</title>
<path fill="none" stroke="blue" d="M1190.51,-295.61C1169.12,-305.69 1142.8,-317.71 1119.04,-328.25"/>
<polygon fill="blue" stroke="blue" points="1117.46,-325.12 1109.73,-332.37 1120.29,-331.53 1117.46,-325.12"/>
</g>
<!-- node31 -->
<g id="node31" class="node">
<title>node31</title>
<path fill="pink" stroke="black" d="M1167.5,-166.5C1167.5,-166.5 1298.5,-166.5 1298.5,-166.5 1304.5,-166.5 1310.5,-172.5 1310.5,-178.5 1310.5,-178.5 1310.5,-200.5 1310.5,-200.5 1310.5,-206.5 1304.5,-212.5 1298.5,-212.5 1298.5,-212.5 1167.5,-212.5 1167.5,-212.5 1161.5,-212.5 1155.5,-206.5 1155.5,-200.5 1155.5,-200.5 1155.5,-178.5 1155.5,-178.5 1155.5,-172.5 1161.5,-166.5 1167.5,-166.5"/>
<text text-anchor="middle" x="1173" y="-197.3" font-family="Times,serif" font-size="14.00">31</text>
<polyline fill="none" stroke="black" points="1190.5,-189.5 1190.5,-212.5 "/>
<text text-anchor="middle" x="1218" y="-197.3" font-family="Times,serif" font-size="14.00">NUM</text>
<polyline fill="none" stroke="black" points="1245.5,-189.5 1245.5,-212.5 "/>
<text text-anchor="middle" x="1278" y="-197.3" font-family="Times,serif" font-size="14.00">size=1</text>
<polyline fill="none" stroke="black" points="1155.5,-189.5 1310.5,-189.5 "/>
<text text-anchor="middle" x="1233" y="-174.3" font-family="Times,serif" font-size="14.00">4</text>
</g>
<!-- node30&#45;&gt;node31 -->
<g id="edge60" class="edge">
<title>node30&#45;&gt;node31</title>
<path fill="none" stroke="red" d="M1226.91,-249.37C1226.28,-241.15 1226.1,-231.66 1226.38,-222.73"/>
<polygon fill="red" stroke="red" points="1229.88,-222.78 1226.91,-212.61 1222.89,-222.41 1229.88,-222.78"/>
</g>
<!-- node32 -->
<g id="node32" class="node">
<title>node32</title>
<path fill="peachpuff" stroke="black" d="M1341,-166.5C1341,-166.5 1455,-166.5 1455,-166.5 1461,-166.5 1467,-172.5 1467,-178.5 1467,-178.5 1467,-200.5 1467,-200.5 1467,-206.5 1461,-212.5 1455,-212.5 1455,-212.5 1341,-212.5 1341,-212.5 1335,-212.5 1329,-206.5 1329,-200.5 1329,-200.5 1329,-178.5 1329,-178.5 1329,-172.5 1335,-166.5 1341,-166.5"/>
<text text-anchor="middle" x="1346.5" y="-197.3" font-family="Times,serif" font-size="14.00">32</text>
<polyline fill="none" stroke="black" points="1364,-189.5 1364,-212.5 "/>
<text text-anchor="middle" x="1383" y="-197.3" font-family="Times,serif" font-size="14.00">OP</text>
<polyline fill="none" stroke="black" points="1402,-189.5 1402,-212.5 "/>
<text text-anchor="middle" x="1434.5" y="-197.3" font-family="Times,serif" font-size="14.00">size=3</text>
<polyline fill="none" stroke="black" points="1329,-189.5 1467,-189.5 "/>
<text text-anchor="middle" x="1398" y="-174.3" font-family="Times,serif" font-size="14.00">^</text>
</g>
<!-- node30&#45;&gt;node32 -->
<g id="edge62" class="edge">
<title>node30&#45;&gt;node32</title>
<path fill="none" stroke="green" d="M1272,-249.37C1291.6,-239.37 1315.74,-227.47 1337.64,-217"/>
<polygon fill="green" stroke="green" points="1339.35,-220.06 1346.88,-212.61 1336.34,-213.74 1339.35,-220.06"/>
</g>
<!-- node31&#45;&gt;node30 -->
<g id="edge61" class="edge">
<title>node31&#45;&gt;node30</title>
<path fill="none" stroke="blue" d="M1239.09,-212.61C1239.72,-220.82 1239.9,-230.31 1239.62,-239.25"/>
<polygon fill="blue" stroke="blue" points="1236.12,-239.2 1239.09,-249.37 1243.11,-239.56 1236.12,-239.2"/>
</g>
<!-- node32&#45;&gt;node30 -->
<g id="edge63" class="edge">
<title>node32&#45;&gt;node30</title>
<path fill="none" stroke="blue" d="M1359.06,-212.61C1339.46,-222.6 1315.33,-234.5 1293.41,-244.97"/>
<polygon fill="blue" stroke="blue" points="1291.71,-241.91 1284.18,-249.37 1294.71,-248.23 1291.71,-241.91"/>
</g>
<!-- node33 -->
<g id="node33" class="node">
<title>node33</title>
<path fill="pink" stroke="black" d="M1253.5,-83.5C1253.5,-83.5 1384.5,-83.5 1384.5,-83.5 1390.5,-83.5 1396.5,-89.5 1396.5,-95.5 1396.5,-95.5 1396.5,-117.5 1396.5,-117.5 1396.5,-123.5 1390.5,-129.5 1384.5,-129.5 1384.5,-129.5 1253.5,-129.5 1253.5,-129.5 1247.5,-129.5 1241.5,-123.5 1241.5,-117.5 1241.5,-117.5 1241.5,-95.5 1241.5,-95.5 1241.5,-89.5 1247.5,-83.5 1253.5,-83.5"/>
<text text-anchor="middle" x="1259" y="-114.3" font-family="Times,serif" font-size="14.00">33</text>
<polyline fill="none" stroke="black" points="1276.5,-106.5 1276.5,-129.5 "/>
<text text-anchor="middle" x="1304" y="-114.3" font-family="Times,serif" font-size="14.00">NUM</text>
<polyline fill="none" stroke="black" points="1331.5,-106.5 1331.5,-129.5 "/>
<text text-anchor="middle" x="1364" y="-114.3" font-family="Times,serif" font-size="14.00">size=1</text>
<polyline fill="none" stroke="black" points="1241.5,-106.5 1396.5,-106.5 "/>
<text text-anchor="middle" x="1319" y="-91.3" font-family="Times,serif" font-size="14.00">1</text>
</g>
<!-- node32&#45;&gt;node33 -->
<g id="edge64" class="edge">
<title>node32&#45;&gt;node33</title>
<path fill="none" stroke="red" d="M1370.32,-166.37C1360.83,-157.35 1350.39,-146.79 1341.36,-137.12"/>
<polygon fill="red" stroke="red" points="1343.81,-134.61 1334.47,-129.61 1338.65,-139.34 1343.81,-134.61"/>
</g>
<!-- node34 -->
<g id="node34" class="node">
<title>node34</title>
<path fill="pink" stroke="black" d="M1426.5,-83.5C1426.5,-83.5 1557.5,-83.5 1557.5,-83.5 1563.5,-83.5 1569.5,-89.5 1569.5,-95.5 1569.5,-95.5 1569.5,-117.5 1569.5,-117.5 1569.5,-123.5 1563.5,-129.5 1557.5,-129.5 1557.5,-129.5 1426.5,-129.5 1426.5,-129.5 1420.5,-129.5 1414.5,-123.5 1414.5,-117.5 1414.5,-117.5 1414.5,-95.5 1414.5,-95.5 1414.5,-89.5 1420.5,-83.5 1426.5,-83.5"/>
<text text-anchor="middle" x="1432" y="-114.3" font-family="Times,serif" font-size="14.00">34</text>
<polyline fill="none" stroke="black" points="1449.5,-106.5 1449.5,-129.5 "/>
<text text-anchor="middle" x="1477" y="-114.3" font-family="Times,serif" font-size="14.00">NUM</text>
<polyline fill="none" stroke="black" points="1504.5,-106.5 1504.5,-129.5 "/>
<text text-anchor="middle" x="1537" y="-114.3" font-family="Times,serif" font-size="14.00">size=1</text>
<polyline fill="none" stroke="black" points="1414.5,-106.5 1569.5,-106.5 "/>
<text text-anchor="middle" x="1492" y="-91.3" font-family="Times,serif" font-size="14.00">1,512</text>
</g>
<!-- node32&#45;&gt;node34 -->
<g id="edge66" class="edge">
<title>node32&#45;&gt;node34</title>
<path fill="none" stroke="green" d="M1417.6,-166.37C1427.75,-156.99 1440.44,-145.95 1452.47,-135.98"/>
<polygon fill="green" stroke="green" points="1454.74,-138.65 1460.26,-129.61 1450.3,-133.23 1454.74,-138.65"/>
</g>
<!-- node33&#45;&gt;node32 -->
<g id="edge65" class="edge">
<title>node33&#45;&gt;node32</title>
<path fill="none" stroke="blue" d="M1346.65,-129.61C1356.14,-138.62 1366.58,-149.18 1375.61,-158.85"/>
<polygon fill="blue" stroke="blue" points="1373.17,-161.36 1382.5,-166.37 1378.33,-156.63 1373.17,-161.36"/>
</g>
<!-- node34&#45;&gt;node32 -->
<g id="edge67" class="edge">
<title>node34&#45;&gt;node32</title>
<path fill="none" stroke="blue" d="M1472.43,-129.61C1462.28,-138.98 1449.6,-150.02 1437.56,-159.99"/>
<polygon fill="blue" stroke="blue" points="1435.3,-157.32 1429.78,-166.37 1439.73,-162.74 1435.3,-157.32"/>
</g>
<!-- node35&#45;&gt;node3 -->
<g id="edge69" class="edge">
<title>node35&#45;&gt;node3</title>
<path fill="none" stroke="blue" d="M957.99,-544.61C954.74,-553.18 950.35,-563.14 945.79,-572.41"/>
<polygon fill="blue" stroke="blue" points="942.64,-570.87 941.2,-581.37 948.87,-574.06 942.64,-570.87"/>
</g>
<!-- node36&#45;&gt;node2 -->
<g id="edge71" class="edge">
<title>node36&#45;&gt;node2</title>
<path fill="none" stroke="blue" d="M1091.09,-627.61C1091.72,-635.82 1091.9,-645.31 1091.62,-654.25"/>
<polygon fill="blue" stroke="blue" points="1088.12,-654.2 1091.09,-664.37 1095.11,-654.56 1088.12,-654.2"/>
</g>
<!-- node37&#45;&gt;node1 -->
<g id="edge73" class="edge">
<title>node37&#45;&gt;node1</title>
<path fill="none" stroke="blue" d="M1227.25,-710.61C1218.88,-719.8 1208.36,-730.6 1198.22,-740.42"/>
<polygon fill="blue" stroke="blue" points="1195.77,-737.93 1190.95,-747.37 1200.6,-742.99 1195.77,-737.93"/>
</g>
<!-- node38 -->
<g id="node38" class="node">
<title>node38</title>
<path fill="peachpuff" stroke="black" d="M1188,-581.5C1188,-581.5 1302,-581.5 1302,-581.5 1308,-581.5 1314,-587.5 1314,-593.5 1314,-593.5 1314,-615.5 1314,-615.5 1314,-621.5 1308,-627.5 1302,-627.5 1302,-627.5 1188,-627.5 1188,-627.5 1182,-627.5 1176,-621.5 1176,-615.5 1176,-615.5 1176,-593.5 1176,-593.5 1176,-587.5 1182,-581.5 1188,-581.5"/>
<text text-anchor="middle" x="1193.5" y="-612.3" font-family="Times,serif" font-size="14.00">38</text>
<polyline fill="none" stroke="black" points="1211,-604.5 1211,-627.5 "/>
<text text-anchor="middle" x="1230" y="-612.3" font-family="Times,serif" font-size="14.00">OP</text>
<polyline fill="none" stroke="black" points="1249,-604.5 1249,-627.5 "/>
<text text-anchor="middle" x="1281.5" y="-612.3" font-family="Times,serif" font-size="14.00">size=5</text>
<polyline fill="none" stroke="black" points="1176,-604.5 1314,-604.5 "/>
<text text-anchor="middle" x="1245" y="-589.3" font-family="Times,serif" font-size="14.00">cos</text>
</g>
<!-- node37&#45;&gt;node38 -->
<g id="edge74" class="edge">
<title>node37&#45;&gt;node38</title>
<path fill="none" stroke="red" d="M1237.46,-664.37C1237.03,-656.15 1237.08,-646.66 1237.58,-637.73"/>
<polygon fill="red" stroke="red" points="1241.08,-637.85 1238.37,-627.61 1234.1,-637.31 1241.08,-637.85"/>
</g>
<!-- node38&#45;&gt;node37 -->
<g id="edge75" class="edge">
<title>node38&#45;&gt;node37</title>
<path fill="none" stroke="blue" d="M1250.54,-627.61C1250.97,-635.82 1250.92,-645.31 1250.42,-654.25"/>
<polygon fill="blue" stroke="blue" points="1246.92,-654.13 1249.64,-664.37 1253.9,-654.67 1246.92,-654.13"/>
</g>
<!-- node39 -->
<g id="node39" class="node">
<title>node39</title>
<path fill="peachpuff" stroke="black" d="M1188,-498.5C1188,-498.5 1302,-498.5 1302,-498.5 1308,-498.5 1314,-504.5 1314,-510.5 1314,-510.5 1314,-532.5 1314,-532.5 1314,-538.5 1308,-544.5 1302,-544.5 1302,-544.5 1188,-544.5 1188,-544.5 1182,-544.5 1176,-538.5 1176,-532.5 1176,-532.5 1176,-510.5 1176,-510.5 1176,-504.5 1182,-498.5 1188,-498.5"/>
<text text-anchor="middle" x="1193.5" y="-529.3" font-family="Times,serif" font-size="14.00">39</text>
<polyline fill="none" stroke="black" points="1211,-521.5 1211,-544.5 "/>
<text text-anchor="middle" x="1230" y="-529.3" font-family="Times,serif" font-size="14.00">OP</text>
<polyline fill="none" stroke="black" points="1249,-521.5 1249,-544.5 "/>
<text text-anchor="middle" x="1281.5" y="-529.3" font-family="Times,serif" font-size="14.00">size=4</text>
<polyline fill="none" stroke="black" points="1176,-521.5 1314,-521.5 "/>
<text text-anchor="middle" x="1245" y="-506.3" font-family="Times,serif" font-size="14.00">sh</text>
</g>
<!-- node38&#45;&gt;node39 -->
<g id="edge76" class="edge">
<title>node38&#45;&gt;node39</title>
<path fill="none" stroke="red" d="M1238.91,-581.37C1238.28,-573.15 1238.1,-563.66 1238.38,-554.73"/>
<polygon fill="red" stroke="red" points="1241.88,-554.78 1238.91,-544.61 1234.89,-554.41 1241.88,-554.78"/>
</g>
<!-- node39&#45;&gt;node38 -->
<g id="edge77" class="edge">
<title>node39&#45;&gt;node38</title>
<path fill="none" stroke="blue" d="M1251.09,-544.61C1251.72,-552.82 1251.9,-562.31 1251.62,-571.25"/>
<polygon fill="blue" stroke="blue" points="1248.12,-571.2 1251.09,-581.37 1255.11,-571.56 1248.12,-571.2"/>
</g>
<!-- node40 -->
<g id="node40" class="node">
<title>node40</title>
<path fill="peachpuff" stroke="black" d="M1188,-415.5C1188,-415.5 1302,-415.5 1302,-415.5 1308,-415.5 1314,-421.5 1314,-427.5 1314,-427.5 1314,-449.5 1314,-449.5 1314,-455.5 1308,-461.5 1302,-461.5 1302,-461.5 1188,-461.5 1188,-461.5 1182,-461.5 1176,-455.5 1176,-449.5 1176,-449.5 1176,-427.5 1176,-427.5 1176,-421.5 1182,-415.5 1188,-415.5"/>
<text text-anchor="middle" x="1193.5" y="-446.3" font-family="Times,serif" font-size="14.00">40</text>
<polyline fill="none" stroke="black" points="1211,-438.5 1211,-461.5 "/>
<text text-anchor="middle" x="1230" y="-446.3" font-family="Times,serif" font-size="14.00">OP</text>
<polyline fill="none" stroke="black" points="1249,-438.5 1249,-461.5 "/>
<text text-anchor="middle" x="1281.5" y="-446.3" font-family="Times,serif" font-size="14.00">size=3</text>
<polyline fill="none" stroke="black" points="1176,-438.5 1314,-438.5 "/>
<text text-anchor="middle" x="1245" y="-423.3" font-family="Times,serif" font-size="14.00">^</text>
</g>
<!-- node39&#45;&gt;node40 -->
<g id="edge78" class="edge">
<title>node39&#45;&gt;node40</title>
<path fill="none" stroke="red" d="M1238.91,-498.37C1238.28,-490.15 1238.1,-480.66 1238.38,-471.73"/>
<polygon fill="red" stroke="red" points="1241.88,-471.78 1238.91,-461.61 1234.89,-471.41 1241.88,-471.78"/>
</g>
<!-- node40&#45;&gt;node39 -->
<g id="edge79" class="edge">
<title>node40&#45;&gt;node39</title>
<path fill="none" stroke="blue" d="M1251.09,-461.61C1251.72,-469.82 1251.9,-479.31 1251.62,-488.25"/>
<polygon fill="blue" stroke="blue" points="1248.12,-488.2 1251.09,-498.37 1255.11,-488.56 1248.12,-488.2"/>
</g>
<!-- node41 -->
<g id="node41" class="node">
<title>node41</title>
<path fill="lightyellow" stroke="black" d="M1177,-332.5C1177,-332.5 1299,-332.5 1299,-332.5 1305,-332.5 1311,-338.5 1311,-344.5 1311,-344.5 1311,-366.5 1311,-366.5 1311,-372.5 1305,-378.5 1299,-378.5 1299,-378.5 1177,-378.5 1177,-378.5 1171,-378.5 1165,-372.5 1165,-366.5 1165,-366.5 1165,-344.5 1165,-344.5 1165,-338.5 1171,-332.5 1177,-332.5"/>
<text text-anchor="middle" x="1182.5" y="-363.3" font-family="Times,serif" font-size="14.00">41</text>
<polyline fill="none" stroke="black" points="1200,-355.5 1200,-378.5 "/>
<text text-anchor="middle" x="1223" y="-363.3" font-family="Times,serif" font-size="14.00">VAR</text>
<polyline fill="none" stroke="black" points="1246,-355.5 1246,-378.5 "/>
<text text-anchor="middle" x="1278.5" y="-363.3" font-family="Times,serif" font-size="14.00">size=1</text>
<polyline fill="none" stroke="black" points="1165,-355.5 1311,-355.5 "/>
<text text-anchor="middle" x="1238" y="-340.3" font-family="Times,serif" font-size="14.00">x</text>
</g>
<!-- node40&#45;&gt;node41 -->
<g id="edge80" class="edge">
<title>node40&#45;&gt;node41</title>
<path fill="none" stroke="red" d="M1237,-415.37C1235.65,-407.15 1234.66,-397.66 1234.16,-388.73"/>
<polygon fill="red" stroke="red" points="1237.66,-388.48 1233.82,-378.61 1230.66,-388.72 1237.66,-388.48"/>
</g>
<!-- node42 -->
<g id="node42" class="node">
<title>node42</title>
<path fill="lightyellow" stroke="black" d="M1341,-332.5C1341,-332.5 1463,-332.5 1463,-332.5 1469,-332.5 1475,-338.5 1475,-344.5 1475,-344.5 1475,-366.5 1475,-366.5 1475,-372.5 1469,-378.5 1463,-378.5 1463,-378.5 1341,-378.5 1341,-378.5 1335,-378.5 1329,-372.5 1329,-366.5 1329,-366.5 1329,-344.5 1329,-344.5 1329,-338.5 1335,-332.5 1341,-332.5"/>
<text text-anchor="middle" x="1346.5" y="-363.3" font-family="Times,serif" font-size="14.00">42</text>
<polyline fill="none" stroke="black" points="1364,-355.5 1364,-378.5 "/>
<text text-anchor="middle" x="1387" y="-363.3" font-family="Times,serif" font-size="14.00">VAR</text>
<polyline fill="none" stroke="black" points="1410,-355.5 1410,-378.5 "/>
<text text-anchor="middle" x="1442.5" y="-363.3" font-family="Times,serif" font-size="14.00">size=1</text>
<polyline fill="none" stroke="black" points="1329,-355.5 1475,-355.5 "/>
<text text-anchor="middle" x="1402" y="-340.3" font-family="Times,serif" font-size="14.00">x</text>
</g>
<!-- node40&#45;&gt;node42 -->
<g id="edge82" class="edge">
<title>node40&#45;&gt;node42</title>
<path fill="none" stroke="green" d="M1281.81,-415.37C1300.34,-405.41 1323.18,-393.58 1343.98,-383.14"/>
<polygon fill="green" stroke="green" points="1345.68,-386.2 1353.06,-378.61 1342.55,-379.94 1345.68,-386.2"/>
</g>
<!-- node41&#45;&gt;node40 -->
<g id="edge81" class="edge">
<title>node41&#45;&gt;node40</title>
<path fill="none" stroke="blue" d="M1246,-378.61C1247.34,-386.82 1248.34,-396.31 1248.84,-405.25"/>
<polygon fill="blue" stroke="blue" points="1245.34,-405.49 1249.18,-415.37 1252.34,-405.25 1245.34,-405.49"/>
</g>
<!-- node42&#45;&gt;node40 -->
<g id="edge83" class="edge">
<title>node42&#45;&gt;node40</title>
<path fill="none" stroke="blue" d="M1365.24,-378.61C1346.72,-388.56 1323.88,-400.39 1303.07,-410.83"/>
<polygon fill="blue" stroke="blue" points="1301.38,-407.77 1293.99,-415.37 1304.5,-414.03 1301.38,-407.77"/>
</g>
</g>
</svg>
