<?xml version="1.0" encoding="UTF-8" standalone="no"?>
<!DOCTYPE svg PUBLIC "-//W3C//DTD SVG 1.1//EN"
 "http://www.w3.org/Graphics/SVG/1.1/DTD/svg11.dtd">
<!-- Generated by graphviz version 2.43.0 (0)
 -->
<!-- Title: %3 Pages: 1 -->
<svg width="712pt" height="304pt"
 viewBox="0.00 0.00 711.50 304.00" xmlns="http://www.w3.org/2000/svg" xmlns:xlink="http://www.w3.org/1999/xlink">
<g id="graph0" class="graph" transform="scale(1 1) rotate(0) translate(4 300)">
<title>%3</title>
<polygon fill="white" stroke="transparent" points="-4,4 -4,-300 707.5,-300 707.5,4 -4,4"/>
<!-- node1 -->
<g id="node1" class="node">
<title>node1</title>
<path fill="peachpuff" stroke="black" d="M258,-249.5C258,-249.5 363,-249.5 363,-249.5 369,-249.5 375,-255.5 375,-261.5 375,-261.5 375,-283.5 375,-283.5 375,-289.5 369,-295.5 363,-295.5 363,-295.5 258,-295.5 258,-295.5 252,-295.5 246,-289.5 246,-283.5 246,-283.5 246,-261.5 246,-261.5 246,-255.5 252,-249.5 258,-249.5"/>
<text text-anchor="middle" x="259" y="-280.3" font-family="Times,serif" font-size="14.00">1</text>
<polyline fill="none" stroke="black" points="272,-272.5 272,-295.5 "/>
<text text-anchor="middle" x="291" y="-280.3" font-family="Times,serif" font-size="14.00">OP</text>
<polyline fill="none" stroke="black" points="310,-272.5 310,-295.5 "/>
<text text-anchor="middle" x="342.5" y="-280.3" font-family="Times,serif" font-size="14.00">size=9</text>
<polyline fill="none" stroke="black" points="246,-272.5 375,-272.5 "/>
<text text-anchor="middle" x="310.5" y="-257.3" font-family="Times,serif" font-size="14.00">/</text>
</g>
<!-- node1&#45;&gt;node1 -->
<g id="edge1" class="edge">
<title>node1&#45;&gt;node1</title>
<path fill="none" stroke="blue" d="M375.18,-286.73C385.74,-284.69 393,-279.95 393,-272.5 393,-267.61 389.87,-263.89 384.74,-261.33"/>
<polygon fill="blue" stroke="blue" points="385.77,-257.99 375.18,-258.27 383.64,-264.66 385.77,-257.99"/>
</g>
<!-- node2 -->
<g id="node2" class="node">
<title>node2</title>
<path fill="peachpuff" stroke="black" d="M176,-166.5C176,-166.5 281,-166.5 281,-166.5 287,-166.5 293,-172.5 293,-178.5 293,-178.5 293,-200.5 293,-200.5 293,-206.5 287,-212.5 281,-212.5 281,-212.5 176,-212.5 176,-212.5 170,-212.5 164,-206.5 164,-200.5 164,-200.5 164,-178.5 164,-178.5 164,-172.5 170,-166.5 176,-166.5"/>
<text text-anchor="middle" x="177" y="-197.3" font-family="Times,serif" font-size="14.00">2</text>
<polyline fill="none" stroke="black" points="190,-189.5 190,-212.5 "/>
<text text-anchor="middle" x="209" y="-197.3" font-family="Times,serif" font-size="14.00">OP</text>
<polyline fill="none" stroke="black" points="228,-189.5 228,-212.5 "/>
<text text-anchor="middle" x="260.5" y="-197.3" font-family="Times,serif" font-size="14.00">size=3</text>
<polyline fill="none" stroke="black" points="164,-189.5 293,-189.5 "/>
<text text-anchor="middle" x="228.5" y="-174.3" font-family="Times,serif" font-size="14.00">*</text>
</g>
<!-- node1&#45;&gt;node2 -->
<g id="edge2" class="edge">
<title>node1&#45;&gt;node2</title>
<path fill="none" stroke="red" d="M282,-249.37C272.18,-240.35 261.34,-229.79 251.96,-220.12"/>
<polygon fill="red" stroke="red" points="254.23,-217.43 244.79,-212.61 249.16,-222.26 254.23,-217.43"/>
</g>
<!-- node5 -->
<g id="node5" class="node">
<title>node5</title>
<path fill="peachpuff" stroke="black" d="M340,-166.5C340,-166.5 445,-166.5 445,-166.5 451,-166.5 457,-172.5 457,-178.5 457,-178.5 457,-200.5 457,-200.5 457,-206.5 451,-212.5 445,-212.5 445,-212.5 340,-212.5 340,-212.5 334,-212.5 328,-206.5 328,-200.5 328,-200.5 328,-178.5 328,-178.5 328,-172.5 334,-166.5 340,-166.5"/>
<text text-anchor="middle" x="341" y="-197.3" font-family="Times,serif" font-size="14.00">5</text>
<polyline fill="none" stroke="black" points="354,-189.5 354,-212.5 "/>
<text text-anchor="middle" x="373" y="-197.3" font-family="Times,serif" font-size="14.00">OP</text>
<polyline fill="none" stroke="black" points="392,-189.5 392,-212.5 "/>
<text text-anchor="middle" x="424.5" y="-197.3" font-family="Times,serif" font-size="14.00">size=5</text>
<polyline fill="none" stroke="black" points="328,-189.5 457,-189.5 "/>
<text text-anchor="middle" x="392.5" y="-174.3" font-family="Times,serif" font-size="14.00">&#45;</text>
</g>
<!-- node1&#45;&gt;node5 -->
<g id="edge8" class="edge">
<title>node1&#45;&gt;node5</title>
<path fill="none" stroke="green" d="M326.82,-249.37C335.42,-240.17 346.21,-229.37 356.59,-219.55"/>
<polygon fill="green" stroke="green" points="359.11,-221.99 364.03,-212.61 354.33,-216.87 359.11,-221.99"/>
</g>
<!-- node2&#45;&gt;node1 -->
<g id="edge3" class="edge">
<title>node2&#45;&gt;node1</title>
<path fill="none" stroke="blue" d="M256.97,-212.61C266.79,-221.62 277.63,-232.18 287.01,-241.85"/>
<polygon fill="blue" stroke="blue" points="284.75,-244.55 294.18,-249.37 289.81,-239.71 284.75,-244.55"/>
</g>
<!-- node3 -->
<g id="node3" class="node">
<title>node3</title>
<path fill="lightyellow" stroke="black" d="M12,-83.5C12,-83.5 125,-83.5 125,-83.5 131,-83.5 137,-89.5 137,-95.5 137,-95.5 137,-117.5 137,-117.5 137,-123.5 131,-129.5 125,-129.5 125,-129.5 12,-129.5 12,-129.5 6,-129.5 0,-123.5 0,-117.5 0,-117.5 0,-95.5 0,-95.5 0,-89.5 6,-83.5 12,-83.5"/>
<text text-anchor="middle" x="13" y="-114.3" font-family="Times,serif" font-size="14.00">3</text>
<polyline fill="none" stroke="black" points="26,-106.5 26,-129.5 "/>
<text text-anchor="middle" x="49" y="-114.3" font-family="Times,serif" font-size="14.00">VAR</text>
<polyline fill="none" stroke="black" points="72,-106.5 72,-129.5 "/>
<text text-anchor="middle" x="104.5" y="-114.3" font-family="Times,serif" font-size="14.00">size=1</text>
<polyline fill="none" stroke="black" points="0,-106.5 137,-106.5 "/>
<text text-anchor="middle" x="68.5" y="-91.3" font-family="Times,serif" font-size="14.00">x</text>
</g>
<!-- node2&#45;&gt;node3 -->
<g id="edge4" class="edge">
<title>node2&#45;&gt;node3</title>
<path fill="none" stroke="red" d="M178.69,-166.37C158.35,-156.46 134.99,-144.68 115,-134.28"/>
<polygon fill="red" stroke="red" points="116.56,-131.14 106.08,-129.61 113.32,-137.35 116.56,-131.14"/>
</g>
<!-- node4 -->
<g id="node4" class="node">
<title>node4</title>
<path fill="pink" stroke="black" d="M167.5,-83.5C167.5,-83.5 289.5,-83.5 289.5,-83.5 295.5,-83.5 301.5,-89.5 301.5,-95.5 301.5,-95.5 301.5,-117.5 301.5,-117.5 301.5,-123.5 295.5,-129.5 289.5,-129.5 289.5,-129.5 167.5,-129.5 167.5,-129.5 161.5,-129.5 155.5,-123.5 155.5,-117.5 155.5,-117.5 155.5,-95.5 155.5,-95.5 155.5,-89.5 161.5,-83.5 167.5,-83.5"/>
<text text-anchor="middle" x="168.5" y="-114.3" font-family="Times,serif" font-size="14.00">4</text>
<polyline fill="none" stroke="black" points="181.5,-106.5 181.5,-129.5 "/>
<text text-anchor="middle" x="209" y="-114.3" font-family="Times,serif" font-size="14.00">NUM</text>
<polyline fill="none" stroke="black" points="236.5,-106.5 236.5,-129.5 "/>
<text text-anchor="middle" x="269" y="-114.3" font-family="Times,serif" font-size="14.00">size=1</text>
<polyline fill="none" stroke="black" points="155.5,-106.5 301.5,-106.5 "/>
<text text-anchor="middle" x="228.5" y="-91.3" font-family="Times,serif" font-size="14.00">3</text>
</g>
<!-- node2&#45;&gt;node4 -->
<g id="edge6" class="edge">
<title>node2&#45;&gt;node4</title>
<path fill="none" stroke="green" d="M222.41,-166.37C221.78,-158.15 221.6,-148.66 221.88,-139.73"/>
<polygon fill="green" stroke="green" points="225.38,-139.78 222.41,-129.61 218.39,-139.41 225.38,-139.78"/>
</g>
<!-- node3&#45;&gt;node2 -->
<g id="edge5" class="edge">
<title>node3&#45;&gt;node2</title>
<path fill="none" stroke="blue" d="M118.26,-129.61C138.59,-139.51 161.95,-151.29 181.94,-161.69"/>
<polygon fill="blue" stroke="blue" points="180.39,-164.83 190.87,-166.37 183.63,-158.63 180.39,-164.83"/>
</g>
<!-- node4&#45;&gt;node2 -->
<g id="edge7" class="edge">
<title>node4&#45;&gt;node2</title>
<path fill="none" stroke="blue" d="M234.59,-129.61C235.22,-137.82 235.4,-147.31 235.12,-156.25"/>
<polygon fill="blue" stroke="blue" points="231.62,-156.2 234.59,-166.37 238.61,-156.56 231.62,-156.2"/>
</g>
<!-- node5&#45;&gt;node1 -->
<g id="edge9" class="edge">
<title>node5&#45;&gt;node1</title>
<path fill="none" stroke="blue" d="M376.21,-212.61C367.61,-221.8 356.82,-232.6 346.44,-242.42"/>
<polygon fill="blue" stroke="blue" points="343.92,-239.99 339,-249.37 348.7,-245.1 343.92,-239.99"/>
</g>
<!-- node6 -->
<g id="node6" class="node">
<title>node6</title>
<path fill="pink" stroke="black" d="M331.5,-83.5C331.5,-83.5 453.5,-83.5 453.5,-83.5 459.5,-83.5 465.5,-89.5 465.5,-95.5 465.5,-95.5 465.5,-117.5 465.5,-117.5 465.5,-123.5 459.5,-129.5 453.5,-129.5 453.5,-129.5 331.5,-129.5 331.5,-129.5 325.5,-129.5 319.5,-123.5 319.5,-117.5 319.5,-117.5 319.5,-95.5 319.5,-95.5 319.5,-89.5 325.5,-83.5 331.5,-83.5"/>
<text text-anchor="middle" x="332.5" y="-114.3" font-family="Times,serif" font-size="14.00">6</text>
<polyline fill="none" stroke="black" points="345.5,-106.5 345.5,-129.5 "/>
<text text-anchor="middle" x="373" y="-114.3" font-family="Times,serif" font-size="14.00">NUM</text>
<polyline fill="none" stroke="black" points="400.5,-106.5 400.5,-129.5 "/>
<text text-anchor="middle" x="433" y="-114.3" font-family="Times,serif" font-size="14.00">size=1</text>
<polyline fill="none" stroke="black" points="319.5,-106.5 465.5,-106.5 "/>
<text text-anchor="middle" x="392.5" y="-91.3" font-family="Times,serif" font-size="14.00">1000</text>
</g>
<!-- node5&#45;&gt;node6 -->
<g id="edge10" class="edge">
<title>node5&#45;&gt;node6</title>
<path fill="none" stroke="red" d="M386.41,-166.37C385.78,-158.15 385.6,-148.66 385.88,-139.73"/>
<polygon fill="red" stroke="red" points="389.38,-139.78 386.41,-129.61 382.39,-139.41 389.38,-139.78"/>
</g>
<!-- node7 -->
<g id="node7" class="node">
<title>node7</title>
<path fill="peachpuff" stroke="black" d="M496,-83.5C496,-83.5 601,-83.5 601,-83.5 607,-83.5 613,-89.5 613,-95.5 613,-95.5 613,-117.5 613,-117.5 613,-123.5 607,-129.5 601,-129.5 601,-129.5 496,-129.5 496,-129.5 490,-129.5 484,-123.5 484,-117.5 484,-117.5 484,-95.5 484,-95.5 484,-89.5 490,-83.5 496,-83.5"/>
<text text-anchor="middle" x="497" y="-114.3" font-family="Times,serif" font-size="14.00">7</text>
<polyline fill="none" stroke="black" points="510,-106.5 510,-129.5 "/>
<text text-anchor="middle" x="529" y="-114.3" font-family="Times,serif" font-size="14.00">OP</text>
<polyline fill="none" stroke="black" points="548,-106.5 548,-129.5 "/>
<text text-anchor="middle" x="580.5" y="-114.3" font-family="Times,serif" font-size="14.00">size=3</text>
<polyline fill="none" stroke="black" points="484,-106.5 613,-106.5 "/>
<text text-anchor="middle" x="548.5" y="-91.3" font-family="Times,serif" font-size="14.00">&#45;</text>
</g>
<!-- node5&#45;&gt;node7 -->
<g id="edge12" class="edge">
<title>node5&#45;&gt;node7</title>
<path fill="none" stroke="green" d="M429.04,-166.37C447.45,-156.41 470.14,-144.58 490.81,-134.14"/>
<polygon fill="green" stroke="green" points="492.47,-137.22 499.84,-129.61 489.33,-130.97 492.47,-137.22"/>
</g>
<!-- node6&#45;&gt;node5 -->
<g id="edge11" class="edge">
<title>node6&#45;&gt;node5</title>
<path fill="none" stroke="blue" d="M398.59,-129.61C399.22,-137.82 399.4,-147.31 399.12,-156.25"/>
<polygon fill="blue" stroke="blue" points="395.62,-156.2 398.59,-166.37 402.61,-156.56 395.62,-156.2"/>
</g>
<!-- node7&#45;&gt;node5 -->
<g id="edge13" class="edge">
<title>node7&#45;&gt;node5</title>
<path fill="none" stroke="blue" d="M512.01,-129.61C493.61,-139.56 470.92,-151.39 450.24,-161.83"/>
<polygon fill="blue" stroke="blue" points="448.58,-158.75 441.22,-166.37 451.73,-165.01 448.58,-158.75"/>
</g>
<!-- node8 -->
<g id="node8" class="node">
<title>node8</title>
<path fill="pink" stroke="black" d="M405.5,-0.5C405.5,-0.5 527.5,-0.5 527.5,-0.5 533.5,-0.5 539.5,-6.5 539.5,-12.5 539.5,-12.5 539.5,-34.5 539.5,-34.5 539.5,-40.5 533.5,-46.5 527.5,-46.5 527.5,-46.5 405.5,-46.5 405.5,-46.5 399.5,-46.5 393.5,-40.5 393.5,-34.5 393.5,-34.5 393.5,-12.5 393.5,-12.5 393.5,-6.5 399.5,-0.5 405.5,-0.5"/>
<text text-anchor="middle" x="406.5" y="-31.3" font-family="Times,serif" font-size="14.00">8</text>
<polyline fill="none" stroke="black" points="419.5,-23.5 419.5,-46.5 "/>
<text text-anchor="middle" x="447" y="-31.3" font-family="Times,serif" font-size="14.00">NUM</text>
<polyline fill="none" stroke="black" points="474.5,-23.5 474.5,-46.5 "/>
<text text-anchor="middle" x="507" y="-31.3" font-family="Times,serif" font-size="14.00">size=1</text>
<polyline fill="none" stroke="black" points="393.5,-23.5 539.5,-23.5 "/>
<text text-anchor="middle" x="466.5" y="-8.3" font-family="Times,serif" font-size="14.00">7</text>
</g>
<!-- node7&#45;&gt;node8 -->
<g id="edge14" class="edge">
<title>node7&#45;&gt;node8</title>
<path fill="none" stroke="red" d="M520,-83.37C510.18,-74.35 499.34,-63.79 489.96,-54.12"/>
<polygon fill="red" stroke="red" points="492.23,-51.43 482.79,-46.61 487.16,-56.26 492.23,-51.43"/>
</g>
<!-- node9 -->
<g id="node9" class="node">
<title>node9</title>
<path fill="pink" stroke="black" d="M569.5,-0.5C569.5,-0.5 691.5,-0.5 691.5,-0.5 697.5,-0.5 703.5,-6.5 703.5,-12.5 703.5,-12.5 703.5,-34.5 703.5,-34.5 703.5,-40.5 697.5,-46.5 691.5,-46.5 691.5,-46.5 569.5,-46.5 569.5,-46.5 563.5,-46.5 557.5,-40.5 557.5,-34.5 557.5,-34.5 557.5,-12.5 557.5,-12.5 557.5,-6.5 563.5,-0.5 569.5,-0.5"/>
<text text-anchor="middle" x="570.5" y="-31.3" font-family="Times,serif" font-size="14.00">9</text>
<polyline fill="none" stroke="black" points="583.5,-23.5 583.5,-46.5 "/>
<text text-anchor="middle" x="611" y="-31.3" font-family="Times,serif" font-size="14.00">NUM</text>
<polyline fill="none" stroke="black" points="638.5,-23.5 638.5,-46.5 "/>
<text text-anchor="middle" x="671" y="-31.3" font-family="Times,serif" font-size="14.00">size=1</text>
<polyline fill="none" stroke="black" points="557.5,-23.5 703.5,-23.5 "/>
<text text-anchor="middle" x="630.5" y="-8.3" font-family="Times,serif" font-size="14.00">1</text>
</g>
<!-- node7&#45;&gt;node9 -->
<g id="edge16" class="edge">
<title>node7&#45;&gt;node9</title>
<path fill="none" stroke="green" d="M564.82,-83.37C573.42,-74.17 584.21,-63.37 594.59,-53.55"/>
<polygon fill="green" stroke="green" points="597.11,-55.99 602.03,-46.61 592.33,-50.87 597.11,-55.99"/>
</g>
<!-- node8&#45;&gt;node7 -->
<g id="edge15" class="edge">
<title>node8&#45;&gt;node7</title>
<path fill="none" stroke="blue" d="M494.97,-46.61C504.79,-55.62 515.63,-66.18 525.01,-75.85"/>
<polygon fill="blue" stroke="blue" points="522.75,-78.55 532.18,-83.37 527.81,-73.71 522.75,-78.55"/>
</g>
<!-- node9&#45;&gt;node7 -->
<g id="edge17" class="edge">
<title>node9&#45;&gt;node7</title>
<path fill="none" stroke="blue" d="M614.21,-46.61C605.61,-55.8 594.82,-66.6 584.44,-76.42"/>
<polygon fill="blue" stroke="blue" points="581.92,-73.99 577,-83.37 586.7,-79.1 581.92,-73.99"/>
</g>
</g>
</svg>
