<?xml version="1.0" encoding="UTF-8" standalone="no"?>
<!DOCTYPE svg PUBLIC "-//W3C//DTD SVG 1.1//EN"
 "http://www.w3.org/Graphics/SVG/1.1/DTD/svg11.dtd">
<!-- Generated by graphviz version 2.43.0 (0)
 -->
<!-- Title: %3 Pages: 1 -->
<svg width="300pt" height="304pt"
 viewBox="0.00 0.00 300.00 304.00" xmlns="http://www.w3.org/2000/svg" xmlns:xlink="http://www.w3.org/1999/xlink">
<g id="graph0" class="graph" transform="scale(1 1) rotate(0) translate(4 300)">
<title>%3</title>
<polygon fill="white" stroke="transparent" points="-4,4 -4,-300 296,-300 296,4 -4,4"/>
<!-- node1 -->
<g id="node1" class="node">
<title>node1</title>
<path fill="peachpuff" stroke="black" d="M93,-249.5C93,-249.5 198,-249.5 198,-249.5 204,-249.5 210,-255.5 210,-261.5 210,-261.5 210,-283.5 210,-283.5 210,-289.5 204,-295.5 198,-295.5 198,-295.5 93,-295.5 93,-295.5 87,-295.5 81,-289.5 81,-283.5 81,-283.5 81,-261.5 81,-261.5 81,-255.5 87,-249.5 93,-249.5"/>
<text text-anchor="middle" x="94" y="-280.3" font-family="Times,serif" font-size="14.00">1</text>
<polyline fill="none" stroke="black" points="107,-272.5 107,-295.5 "/>
<text text-anchor="middle" x="126" y="-280.3" font-family="Times,serif" font-size="14.00">OP</text>
<polyline fill="none" stroke="black" points="145,-272.5 145,-295.5 "/>
<text text-anchor="middle" x="177.5" y="-280.3" font-family="Times,serif" font-size="14.00">size=5</text>
<polyline fill="none" stroke="black" points="81,-272.5 210,-272.5 "/>
<text text-anchor="middle" x="145.5" y="-257.3" font-family="Times,serif" font-size="14.00">cos</text>
</g>
<!-- node1&#45;&gt;node1 -->
<g id="edge1" class="edge">
<title>node1&#45;&gt;node1</title>
<path fill="none" stroke="blue" d="M210.18,-286.73C220.74,-284.69 228,-279.95 228,-272.5 228,-267.61 224.87,-263.89 219.74,-261.33"/>
<polygon fill="blue" stroke="blue" points="220.77,-257.99 210.18,-258.27 218.64,-264.66 220.77,-257.99"/>
</g>
<!-- node2 -->
<g id="node2" class="node">
<title>node2</title>
<path fill="peachpuff" stroke="black" d="M93,-166.5C93,-166.5 198,-166.5 198,-166.5 204,-166.5 210,-172.5 210,-178.5 210,-178.5 210,-200.5 210,-200.5 210,-206.5 204,-212.5 198,-212.5 198,-212.5 93,-212.5 93,-212.5 87,-212.5 81,-206.5 81,-200.5 81,-200.5 81,-178.5 81,-178.5 81,-172.5 87,-166.5 93,-166.5"/>
<text text-anchor="middle" x="94" y="-197.3" font-family="Times,serif" font-size="14.00">2</text>
<polyline fill="none" stroke="black" points="107,-189.5 107,-212.5 "/>
<text text-anchor="middle" x="126" y="-197.3" font-family="Times,serif" font-size="14.00">OP</text>
<polyline fill="none" stroke="black" points="145,-189.5 145,-212.5 "/>
<text text-anchor="middle" x="177.5" y="-197.3" font-family="Times,serif" font-size="14.00">size=4</text>
<polyline fill="none" stroke="black" points="81,-189.5 210,-189.5 "/>
<text text-anchor="middle" x="145.5" y="-174.3" font-family="Times,serif" font-size="14.00">sh</text>
</g>
<!-- node1&#45;&gt;node2 -->
<g id="edge2" class="edge">
<title>node1&#45;&gt;node2</title>
<path fill="none" stroke="red" d="M139.41,-249.37C138.78,-241.15 138.6,-231.66 138.88,-222.73"/>
<polygon fill="red" stroke="red" points="142.38,-222.78 139.41,-212.61 135.39,-222.41 142.38,-222.78"/>
</g>
<!-- node2&#45;&gt;node1 -->
<g id="edge3" class="edge">
<title>node2&#45;&gt;node1</title>
<path fill="none" stroke="blue" d="M151.59,-212.61C152.22,-220.82 152.4,-230.31 152.12,-239.25"/>
<polygon fill="blue" stroke="blue" points="148.62,-239.2 151.59,-249.37 155.61,-239.56 148.62,-239.2"/>
</g>
<!-- node3 -->
<g id="node3" class="node">
<title>node3</title>
<path fill="peachpuff" stroke="black" d="M93,-83.5C93,-83.5 198,-83.5 198,-83.5 204,-83.5 210,-89.5 210,-95.5 210,-95.5 210,-117.5 210,-117.5 210,-123.5 204,-129.5 198,-129.5 198,-129.5 93,-129.5 93,-129.5 87,-129.5 81,-123.5 81,-117.5 81,-117.5 81,-95.5 81,-95.5 81,-89.5 87,-83.5 93,-83.5"/>
<text text-anchor="middle" x="94" y="-114.3" font-family="Times,serif" font-size="14.00">3</text>
<polyline fill="none" stroke="black" points="107,-106.5 107,-129.5 "/>
<text text-anchor="middle" x="126" y="-114.3" font-family="Times,serif" font-size="14.00">OP</text>
<polyline fill="none" stroke="black" points="145,-106.5 145,-129.5 "/>
<text text-anchor="middle" x="177.5" y="-114.3" font-family="Times,serif" font-size="14.00">size=3</text>
<polyline fill="none" stroke="black" points="81,-106.5 210,-106.5 "/>
<text text-anchor="middle" x="145.5" y="-91.3" font-family="Times,serif" font-size="14.00">^</text>
</g>
<!-- node2&#45;&gt;node3 -->
<g id="edge4" class="edge">
<title>node2&#45;&gt;node3</title>
<path fill="none" stroke="red" d="M139.41,-166.37C138.78,-158.15 138.6,-148.66 138.88,-139.73"/>
<polygon fill="red" stroke="red" points="142.38,-139.78 139.41,-129.61 135.39,-139.41 142.38,-139.78"/>
</g>
<!-- node3&#45;&gt;node2 -->
<g id="edge5" class="edge">
<title>node3&#45;&gt;node2</title>
<path fill="none" stroke="blue" d="M151.59,-129.61C152.22,-137.82 152.4,-147.31 152.12,-156.25"/>
<polygon fill="blue" stroke="blue" points="148.62,-156.2 151.59,-166.37 155.61,-156.56 148.62,-156.2"/>
</g>
<!-- node4 -->
<g id="node4" class="node">
<title>node4</title>
<path fill="lightyellow" stroke="black" d="M12,-0.5C12,-0.5 125,-0.5 125,-0.5 131,-0.5 137,-6.5 137,-12.5 137,-12.5 137,-34.5 137,-34.5 137,-40.5 131,-46.5 125,-46.5 125,-46.5 12,-46.5 12,-46.5 6,-46.5 0,-40.5 0,-34.5 0,-34.5 0,-12.5 0,-12.5 0,-6.5 6,-0.5 12,-0.5"/>
<text text-anchor="middle" x="13" y="-31.3" font-family="Times,serif" font-size="14.00">4</text>
<polyline fill="none" stroke="black" points="26,-23.5 26,-46.5 "/>
<text text-anchor="middle" x="49" y="-31.3" font-family="Times,serif" font-size="14.00">VAR</text>
<polyline fill="none" stroke="black" points="72,-23.5 72,-46.5 "/>
<text text-anchor="middle" x="104.5" y="-31.3" font-family="Times,serif" font-size="14.00">size=1</text>
<polyline fill="none" stroke="black" points="0,-23.5 137,-23.5 "/>
<text text-anchor="middle" x="68.5" y="-8.3" font-family="Times,serif" font-size="14.00">x</text>
</g>
<!-- node3&#45;&gt;node4 -->
<g id="edge6" class="edge">
<title>node3&#45;&gt;node4</title>
<path fill="none" stroke="red" d="M118.37,-83.37C109.1,-74.35 98.92,-63.79 90.13,-54.12"/>
<polygon fill="red" stroke="red" points="92.7,-51.74 83.43,-46.61 87.47,-56.4 92.7,-51.74"/>
</g>
<!-- node5 -->
<g id="node5" class="node">
<title>node5</title>
<path fill="lightyellow" stroke="black" d="M167,-0.5C167,-0.5 280,-0.5 280,-0.5 286,-0.5 292,-6.5 292,-12.5 292,-12.5 292,-34.5 292,-34.5 292,-40.5 286,-46.5 280,-46.5 280,-46.5 167,-46.5 167,-46.5 161,-46.5 155,-40.5 155,-34.5 155,-34.5 155,-12.5 155,-12.5 155,-6.5 161,-0.5 167,-0.5"/>
<text text-anchor="middle" x="168" y="-31.3" font-family="Times,serif" font-size="14.00">5</text>
<polyline fill="none" stroke="black" points="181,-23.5 181,-46.5 "/>
<text text-anchor="middle" x="204" y="-31.3" font-family="Times,serif" font-size="14.00">VAR</text>
<polyline fill="none" stroke="black" points="227,-23.5 227,-46.5 "/>
<text text-anchor="middle" x="259.5" y="-31.3" font-family="Times,serif" font-size="14.00">size=1</text>
<polyline fill="none" stroke="black" points="155,-23.5 292,-23.5 "/>
<text text-anchor="middle" x="223.5" y="-8.3" font-family="Times,serif" font-size="14.00">x</text>
</g>
<!-- node3&#45;&gt;node5 -->
<g id="edge8" class="edge">
<title>node3&#45;&gt;node5</title>
<path fill="none" stroke="green" d="M160.72,-83.37C168.79,-74.26 178.93,-63.58 188.74,-53.83"/>
<polygon fill="green" stroke="green" points="191.42,-56.1 196.12,-46.61 186.53,-51.1 191.42,-56.1"/>
</g>
<!-- node4&#45;&gt;node3 -->
<g id="edge7" class="edge">
<title>node4&#45;&gt;node3</title>
<path fill="none" stroke="blue" d="M95.6,-46.61C104.87,-55.62 115.05,-66.18 123.84,-75.85"/>
<polygon fill="blue" stroke="blue" points="121.28,-78.23 130.55,-83.37 126.5,-73.57 121.28,-78.23"/>
</g>
<!-- node5&#45;&gt;node3 -->
<g id="edge9" class="edge">
<title>node5&#45;&gt;node3</title>
<path fill="none" stroke="blue" d="M208.3,-46.61C200.24,-55.71 190.09,-66.39 180.29,-76.14"/>
<polygon fill="blue" stroke="blue" points="177.6,-73.87 172.9,-83.37 182.5,-78.87 177.6,-73.87"/>
</g>
</g>
</svg>
