<?xml version="1.0" encoding="UTF-8" standalone="no"?>
<!DOCTYPE svg PUBLIC "-//W3C//DTD SVG 1.1//EN"
 "http://www.w3.org/Graphics/SVG/1.1/DTD/svg11.dtd">
<!-- Generated by graphviz version 2.43.0 (0)
 -->
<!-- Title: %3 Pages: 1 -->
<svg width="1090pt" height="719pt"
 viewBox="0.00 0.00 1090.00 719.00" xmlns="http://www.w3.org/2000/svg" xmlns:xlink="http://www.w3.org/1999/xlink">
<g id="graph0" class="graph" transform="scale(1 1) rotate(0) translate(4 715)">
<title>%3</title>
<polygon fill="white" stroke="transparent" points="-4,4 -4,-715 1086,-715 1086,4 -4,4"/>
<!-- node1 -->
<g id="node1" class="node">
<title>node1</title>
<path fill="peachpuff" stroke="black" d="M429.5,-664.5C429.5,-664.5 543.5,-664.5 543.5,-664.5 549.5,-664.5 555.5,-670.5 555.5,-676.5 555.5,-676.5 555.5,-698.5 555.5,-698.5 555.5,-704.5 549.5,-710.5 543.5,-710.5 543.5,-710.5 429.5,-710.5 429.5,-710.5 423.5,-710.5 417.5,-704.5 417.5,-698.5 417.5,-698.5 417.5,-676.5 417.5,-676.5 417.5,-670.5 423.5,-664.5 429.5,-664.5"/>
<text text-anchor="middle" x="430.5" y="-695.3" font-family="Times,serif" font-size="14.00">1</text>
<polyline fill="none" stroke="black" points="443.5,-687.5 443.5,-710.5 "/>
<text text-anchor="middle" x="462.5" y="-695.3" font-family="Times,serif" font-size="14.00">OP</text>
<polyline fill="none" stroke="black" points="481.5,-687.5 481.5,-710.5 "/>
<text text-anchor="middle" x="518.5" y="-695.3" font-family="Times,serif" font-size="14.00">size=29</text>
<polyline fill="none" stroke="black" points="417.5,-687.5 555.5,-687.5 "/>
<text text-anchor="middle" x="486.5" y="-672.3" font-family="Times,serif" font-size="14.00">+</text>
</g>
<!-- node1&#45;&gt;node1 -->
<g id="edge1" class="edge">
<title>node1&#45;&gt;node1</title>
<path fill="none" stroke="blue" d="M555.77,-701.52C566.33,-699.38 573.5,-694.71 573.5,-687.5 573.5,-682.77 570.41,-679.13 565.31,-676.58"/>
<polygon fill="blue" stroke="blue" points="566.37,-673.25 555.77,-673.48 564.2,-679.9 566.37,-673.25"/>
</g>
<!-- node2 -->
<g id="node2" class="node">
<title>node2</title>
<path fill="peachpuff" stroke="black" d="M349.5,-581.5C349.5,-581.5 463.5,-581.5 463.5,-581.5 469.5,-581.5 475.5,-587.5 475.5,-593.5 475.5,-593.5 475.5,-615.5 475.5,-615.5 475.5,-621.5 469.5,-627.5 463.5,-627.5 463.5,-627.5 349.5,-627.5 349.5,-627.5 343.5,-627.5 337.5,-621.5 337.5,-615.5 337.5,-615.5 337.5,-593.5 337.5,-593.5 337.5,-587.5 343.5,-581.5 349.5,-581.5"/>
<text text-anchor="middle" x="350.5" y="-612.3" font-family="Times,serif" font-size="14.00">2</text>
<polyline fill="none" stroke="black" points="363.5,-604.5 363.5,-627.5 "/>
<text text-anchor="middle" x="382.5" y="-612.3" font-family="Times,serif" font-size="14.00">OP</text>
<polyline fill="none" stroke="black" points="401.5,-604.5 401.5,-627.5 "/>
<text text-anchor="middle" x="438.5" y="-612.3" font-family="Times,serif" font-size="14.00">size=27</text>
<polyline fill="none" stroke="black" points="337.5,-604.5 475.5,-604.5 "/>
<text text-anchor="middle" x="406.5" y="-589.3" font-family="Times,serif" font-size="14.00">&#45;</text>
</g>
<!-- node1&#45;&gt;node2 -->
<g id="edge2" class="edge">
<title>node1&#45;&gt;node2</title>
<path fill="none" stroke="red" d="M458.55,-664.37C448.95,-655.35 438.37,-644.79 429.23,-635.12"/>
<polygon fill="red" stroke="red" points="431.62,-632.55 422.25,-627.61 426.49,-637.32 431.62,-632.55"/>
</g>
<!-- node29 -->
<g id="node29" class="node">
<title>node29</title>
<path fill="lightyellow" stroke="black" d="M505.5,-581.5C505.5,-581.5 627.5,-581.5 627.5,-581.5 633.5,-581.5 639.5,-587.5 639.5,-593.5 639.5,-593.5 639.5,-615.5 639.5,-615.5 639.5,-621.5 633.5,-627.5 627.5,-627.5 627.5,-627.5 505.5,-627.5 505.5,-627.5 499.5,-627.5 493.5,-621.5 493.5,-615.5 493.5,-615.5 493.5,-593.5 493.5,-593.5 493.5,-587.5 499.5,-581.5 505.5,-581.5"/>
<text text-anchor="middle" x="511" y="-612.3" font-family="Times,serif" font-size="14.00">29</text>
<polyline fill="none" stroke="black" points="528.5,-604.5 528.5,-627.5 "/>
<text text-anchor="middle" x="551.5" y="-612.3" font-family="Times,serif" font-size="14.00">VAR</text>
<polyline fill="none" stroke="black" points="574.5,-604.5 574.5,-627.5 "/>
<text text-anchor="middle" x="607" y="-612.3" font-family="Times,serif" font-size="14.00">size=1</text>
<polyline fill="none" stroke="black" points="493.5,-604.5 639.5,-604.5 "/>
<text text-anchor="middle" x="566.5" y="-589.3" font-family="Times,serif" font-size="14.00">x</text>
</g>
<!-- node1&#45;&gt;node29 -->
<g id="edge56" class="edge">
<title>node1&#45;&gt;node29</title>
<path fill="none" stroke="green" d="M502.27,-664.37C510.65,-655.17 521.17,-644.37 531.31,-634.55"/>
<polygon fill="green" stroke="green" points="533.76,-637.04 538.58,-627.61 528.93,-631.98 533.76,-637.04"/>
</g>
<!-- node2&#45;&gt;node1 -->
<g id="edge3" class="edge">
<title>node2&#45;&gt;node1</title>
<path fill="none" stroke="blue" d="M434.42,-627.61C444.02,-636.62 454.6,-647.18 463.75,-656.85"/>
<polygon fill="blue" stroke="blue" points="461.36,-659.42 470.73,-664.37 466.49,-654.66 461.36,-659.42"/>
</g>
<!-- node3 -->
<g id="node3" class="node">
<title>node3</title>
<path fill="peachpuff" stroke="black" d="M269.5,-498.5C269.5,-498.5 383.5,-498.5 383.5,-498.5 389.5,-498.5 395.5,-504.5 395.5,-510.5 395.5,-510.5 395.5,-532.5 395.5,-532.5 395.5,-538.5 389.5,-544.5 383.5,-544.5 383.5,-544.5 269.5,-544.5 269.5,-544.5 263.5,-544.5 257.5,-538.5 257.5,-532.5 257.5,-532.5 257.5,-510.5 257.5,-510.5 257.5,-504.5 263.5,-498.5 269.5,-498.5"/>
<text text-anchor="middle" x="270.5" y="-529.3" font-family="Times,serif" font-size="14.00">3</text>
<polyline fill="none" stroke="black" points="283.5,-521.5 283.5,-544.5 "/>
<text text-anchor="middle" x="302.5" y="-529.3" font-family="Times,serif" font-size="14.00">OP</text>
<polyline fill="none" stroke="black" points="321.5,-521.5 321.5,-544.5 "/>
<text text-anchor="middle" x="358.5" y="-529.3" font-family="Times,serif" font-size="14.00">size=25</text>
<polyline fill="none" stroke="black" points="257.5,-521.5 395.5,-521.5 "/>
<text text-anchor="middle" x="326.5" y="-506.3" font-family="Times,serif" font-size="14.00">*</text>
</g>
<!-- node2&#45;&gt;node3 -->
<g id="edge4" class="edge">
<title>node2&#45;&gt;node3</title>
<path fill="none" stroke="red" d="M378.55,-581.37C368.95,-572.35 358.37,-561.79 349.23,-552.12"/>
<polygon fill="red" stroke="red" points="351.62,-549.55 342.25,-544.61 346.49,-554.32 351.62,-549.55"/>
</g>
<!-- node28 -->
<g id="node28" class="node">
<title>node28</title>
<path fill="lightyellow" stroke="black" d="M425.5,-498.5C425.5,-498.5 547.5,-498.5 547.5,-498.5 553.5,-498.5 559.5,-504.5 559.5,-510.5 559.5,-510.5 559.5,-532.5 559.5,-532.5 559.5,-538.5 553.5,-544.5 547.5,-544.5 547.5,-544.5 425.5,-544.5 425.5,-544.5 419.5,-544.5 413.5,-538.5 413.5,-532.5 413.5,-532.5 413.5,-510.5 413.5,-510.5 413.5,-504.5 419.5,-498.5 425.5,-498.5"/>
<text text-anchor="middle" x="431" y="-529.3" font-family="Times,serif" font-size="14.00">28</text>
<polyline fill="none" stroke="black" points="448.5,-521.5 448.5,-544.5 "/>
<text text-anchor="middle" x="471.5" y="-529.3" font-family="Times,serif" font-size="14.00">VAR</text>
<polyline fill="none" stroke="black" points="494.5,-521.5 494.5,-544.5 "/>
<text text-anchor="middle" x="527" y="-529.3" font-family="Times,serif" font-size="14.00">size=1</text>
<polyline fill="none" stroke="black" points="413.5,-521.5 559.5,-521.5 "/>
<text text-anchor="middle" x="486.5" y="-506.3" font-family="Times,serif" font-size="14.00">x</text>
</g>
<!-- node2&#45;&gt;node28 -->
<g id="edge54" class="edge">
<title>node2&#45;&gt;node28</title>
<path fill="none" stroke="green" d="M422.27,-581.37C430.65,-572.17 441.17,-561.37 451.31,-551.55"/>
<polygon fill="green" stroke="green" points="453.76,-554.04 458.58,-544.61 448.93,-548.98 453.76,-554.04"/>
</g>
<!-- node3&#45;&gt;node2 -->
<g id="edge5" class="edge">
<title>node3&#45;&gt;node2</title>
<path fill="none" stroke="blue" d="M354.42,-544.61C364.02,-553.62 374.6,-564.18 383.75,-573.85"/>
<polygon fill="blue" stroke="blue" points="381.36,-576.42 390.73,-581.37 386.49,-571.66 381.36,-576.42"/>
</g>
<!-- node4 -->
<g id="node4" class="node">
<title>node4</title>
<path fill="peachpuff" stroke="black" d="M196,-415.5C196,-415.5 301,-415.5 301,-415.5 307,-415.5 313,-421.5 313,-427.5 313,-427.5 313,-449.5 313,-449.5 313,-455.5 307,-461.5 301,-461.5 301,-461.5 196,-461.5 196,-461.5 190,-461.5 184,-455.5 184,-449.5 184,-449.5 184,-427.5 184,-427.5 184,-421.5 190,-415.5 196,-415.5"/>
<text text-anchor="middle" x="197" y="-446.3" font-family="Times,serif" font-size="14.00">4</text>
<polyline fill="none" stroke="black" points="210,-438.5 210,-461.5 "/>
<text text-anchor="middle" x="229" y="-446.3" font-family="Times,serif" font-size="14.00">OP</text>
<polyline fill="none" stroke="black" points="248,-438.5 248,-461.5 "/>
<text text-anchor="middle" x="280.5" y="-446.3" font-family="Times,serif" font-size="14.00">size=3</text>
<polyline fill="none" stroke="black" points="184,-438.5 313,-438.5 "/>
<text text-anchor="middle" x="248.5" y="-423.3" font-family="Times,serif" font-size="14.00">/</text>
</g>
<!-- node3&#45;&gt;node4 -->
<g id="edge6" class="edge">
<title>node3&#45;&gt;node4</title>
<path fill="none" stroke="red" d="M299.1,-498.37C289.72,-489.35 279.4,-478.79 270.5,-469.12"/>
<polygon fill="red" stroke="red" points="273,-466.68 263.7,-461.61 267.81,-471.37 273,-466.68"/>
</g>
<!-- node7 -->
<g id="node7" class="node">
<title>node7</title>
<path fill="peachpuff" stroke="black" d="M347.5,-415.5C347.5,-415.5 461.5,-415.5 461.5,-415.5 467.5,-415.5 473.5,-421.5 473.5,-427.5 473.5,-427.5 473.5,-449.5 473.5,-449.5 473.5,-455.5 467.5,-461.5 461.5,-461.5 461.5,-461.5 347.5,-461.5 347.5,-461.5 341.5,-461.5 335.5,-455.5 335.5,-449.5 335.5,-449.5 335.5,-427.5 335.5,-427.5 335.5,-421.5 341.5,-415.5 347.5,-415.5"/>
<text text-anchor="middle" x="348.5" y="-446.3" font-family="Times,serif" font-size="14.00">7</text>
<polyline fill="none" stroke="black" points="361.5,-438.5 361.5,-461.5 "/>
<text text-anchor="middle" x="380.5" y="-446.3" font-family="Times,serif" font-size="14.00">OP</text>
<polyline fill="none" stroke="black" points="399.5,-438.5 399.5,-461.5 "/>
<text text-anchor="middle" x="436.5" y="-446.3" font-family="Times,serif" font-size="14.00">size=21</text>
<polyline fill="none" stroke="black" points="335.5,-438.5 473.5,-438.5 "/>
<text text-anchor="middle" x="404.5" y="-423.3" font-family="Times,serif" font-size="14.00">^</text>
</g>
<!-- node3&#45;&gt;node7 -->
<g id="edge12" class="edge">
<title>node3&#45;&gt;node7</title>
<path fill="none" stroke="green" d="M341.72,-498.37C349.79,-489.26 359.93,-478.58 369.74,-468.83"/>
<polygon fill="green" stroke="green" points="372.42,-471.1 377.12,-461.61 367.53,-466.1 372.42,-471.1"/>
</g>
<!-- node4&#45;&gt;node3 -->
<g id="edge7" class="edge">
<title>node4&#45;&gt;node3</title>
<path fill="none" stroke="blue" d="M275.88,-461.61C285.25,-470.62 295.57,-481.18 304.48,-490.85"/>
<polygon fill="blue" stroke="blue" points="301.97,-493.3 311.28,-498.37 307.16,-488.6 301.97,-493.3"/>
</g>
<!-- node5 -->
<g id="node5" class="node">
<title>node5</title>
<path fill="pink" stroke="black" d="M23.5,-332.5C23.5,-332.5 145.5,-332.5 145.5,-332.5 151.5,-332.5 157.5,-338.5 157.5,-344.5 157.5,-344.5 157.5,-366.5 157.5,-366.5 157.5,-372.5 151.5,-378.5 145.5,-378.5 145.5,-378.5 23.5,-378.5 23.5,-378.5 17.5,-378.5 11.5,-372.5 11.5,-366.5 11.5,-366.5 11.5,-344.5 11.5,-344.5 11.5,-338.5 17.5,-332.5 23.5,-332.5"/>
<text text-anchor="middle" x="24.5" y="-363.3" font-family="Times,serif" font-size="14.00">5</text>
<polyline fill="none" stroke="black" points="37.5,-355.5 37.5,-378.5 "/>
<text text-anchor="middle" x="65" y="-363.3" font-family="Times,serif" font-size="14.00">NUM</text>
<polyline fill="none" stroke="black" points="92.5,-355.5 92.5,-378.5 "/>
<text text-anchor="middle" x="125" y="-363.3" font-family="Times,serif" font-size="14.00">size=1</text>
<polyline fill="none" stroke="black" points="11.5,-355.5 157.5,-355.5 "/>
<text text-anchor="middle" x="84.5" y="-340.3" font-family="Times,serif" font-size="14.00">25</text>
</g>
<!-- node4&#45;&gt;node5 -->
<g id="edge8" class="edge">
<title>node4&#45;&gt;node5</title>
<path fill="none" stroke="red" d="M197.6,-415.37C176.77,-405.46 152.83,-393.68 132.33,-383.28"/>
<polygon fill="red" stroke="red" points="133.67,-380.03 123.17,-378.61 130.49,-386.27 133.67,-380.03"/>
</g>
<!-- node6 -->
<g id="node6" class="node">
<title>node6</title>
<path fill="pink" stroke="black" d="M187.5,-332.5C187.5,-332.5 309.5,-332.5 309.5,-332.5 315.5,-332.5 321.5,-338.5 321.5,-344.5 321.5,-344.5 321.5,-366.5 321.5,-366.5 321.5,-372.5 315.5,-378.5 309.5,-378.5 309.5,-378.5 187.5,-378.5 187.5,-378.5 181.5,-378.5 175.5,-372.5 175.5,-366.5 175.5,-366.5 175.5,-344.5 175.5,-344.5 175.5,-338.5 181.5,-332.5 187.5,-332.5"/>
<text text-anchor="middle" x="188.5" y="-363.3" font-family="Times,serif" font-size="14.00">6</text>
<polyline fill="none" stroke="black" points="201.5,-355.5 201.5,-378.5 "/>
<text text-anchor="middle" x="229" y="-363.3" font-family="Times,serif" font-size="14.00">NUM</text>
<polyline fill="none" stroke="black" points="256.5,-355.5 256.5,-378.5 "/>
<text text-anchor="middle" x="289" y="-363.3" font-family="Times,serif" font-size="14.00">size=1</text>
<polyline fill="none" stroke="black" points="175.5,-355.5 321.5,-355.5 "/>
<text text-anchor="middle" x="248.5" y="-340.3" font-family="Times,serif" font-size="14.00">10</text>
</g>
<!-- node4&#45;&gt;node6 -->
<g id="edge10" class="edge">
<title>node4&#45;&gt;node6</title>
<path fill="none" stroke="green" d="M242.41,-415.37C241.78,-407.15 241.6,-397.66 241.88,-388.73"/>
<polygon fill="green" stroke="green" points="245.38,-388.78 242.41,-378.61 238.39,-388.41 245.38,-388.78"/>
</g>
<!-- node5&#45;&gt;node4 -->
<g id="edge9" class="edge">
<title>node5&#45;&gt;node4</title>
<path fill="none" stroke="blue" d="M135.35,-378.61C156.17,-388.51 180.11,-400.29 200.62,-410.69"/>
<polygon fill="blue" stroke="blue" points="199.28,-413.94 209.78,-415.37 202.46,-407.7 199.28,-413.94"/>
</g>
<!-- node6&#45;&gt;node4 -->
<g id="edge11" class="edge">
<title>node6&#45;&gt;node4</title>
<path fill="none" stroke="blue" d="M254.59,-378.61C255.22,-386.82 255.4,-396.31 255.12,-405.25"/>
<polygon fill="blue" stroke="blue" points="251.62,-405.2 254.59,-415.37 258.61,-405.56 251.62,-405.2"/>
</g>
<!-- node7&#45;&gt;node3 -->
<g id="edge13" class="edge">
<title>node7&#45;&gt;node3</title>
<path fill="none" stroke="blue" d="M389.3,-461.61C381.24,-470.71 371.09,-481.39 361.29,-491.14"/>
<polygon fill="blue" stroke="blue" points="358.6,-488.87 353.9,-498.37 363.5,-493.87 358.6,-488.87"/>
</g>
<!-- node8 -->
<g id="node8" class="node">
<title>node8</title>
<path fill="peachpuff" stroke="black" d="M352,-332.5C352,-332.5 457,-332.5 457,-332.5 463,-332.5 469,-338.5 469,-344.5 469,-344.5 469,-366.5 469,-366.5 469,-372.5 463,-378.5 457,-378.5 457,-378.5 352,-378.5 352,-378.5 346,-378.5 340,-372.5 340,-366.5 340,-366.5 340,-344.5 340,-344.5 340,-338.5 346,-332.5 352,-332.5"/>
<text text-anchor="middle" x="353" y="-363.3" font-family="Times,serif" font-size="14.00">8</text>
<polyline fill="none" stroke="black" points="366,-355.5 366,-378.5 "/>
<text text-anchor="middle" x="385" y="-363.3" font-family="Times,serif" font-size="14.00">OP</text>
<polyline fill="none" stroke="black" points="404,-355.5 404,-378.5 "/>
<text text-anchor="middle" x="436.5" y="-363.3" font-family="Times,serif" font-size="14.00">size=9</text>
<polyline fill="none" stroke="black" points="340,-355.5 469,-355.5 "/>
<text text-anchor="middle" x="404.5" y="-340.3" font-family="Times,serif" font-size="14.00">+</text>
</g>
<!-- node7&#45;&gt;node8 -->
<g id="edge14" class="edge">
<title>node7&#45;&gt;node8</title>
<path fill="none" stroke="red" d="M398.41,-415.37C397.78,-407.15 397.6,-397.66 397.88,-388.73"/>
<polygon fill="red" stroke="red" points="401.38,-388.78 398.41,-378.61 394.39,-388.41 401.38,-388.78"/>
</g>
<!-- node17 -->
<g id="node17" class="node">
<title>node17</title>
<path fill="peachpuff" stroke="black" d="M509,-332.5C509,-332.5 632,-332.5 632,-332.5 638,-332.5 644,-338.5 644,-344.5 644,-344.5 644,-366.5 644,-366.5 644,-372.5 638,-378.5 632,-378.5 632,-378.5 509,-378.5 509,-378.5 503,-378.5 497,-372.5 497,-366.5 497,-366.5 497,-344.5 497,-344.5 497,-338.5 503,-332.5 509,-332.5"/>
<text text-anchor="middle" x="514.5" y="-363.3" font-family="Times,serif" font-size="14.00">17</text>
<polyline fill="none" stroke="black" points="532,-355.5 532,-378.5 "/>
<text text-anchor="middle" x="551" y="-363.3" font-family="Times,serif" font-size="14.00">OP</text>
<polyline fill="none" stroke="black" points="570,-355.5 570,-378.5 "/>
<text text-anchor="middle" x="607" y="-363.3" font-family="Times,serif" font-size="14.00">size=11</text>
<polyline fill="none" stroke="black" points="497,-355.5 644,-355.5 "/>
<text text-anchor="middle" x="570.5" y="-340.3" font-family="Times,serif" font-size="14.00">^</text>
</g>
<!-- node7&#45;&gt;node17 -->
<g id="edge32" class="edge">
<title>node7&#45;&gt;node17</title>
<path fill="none" stroke="green" d="M443.77,-415.37C463.49,-405.37 487.78,-393.47 509.82,-383"/>
<polygon fill="green" stroke="green" points="511.56,-386.05 519.11,-378.61 508.57,-379.72 511.56,-386.05"/>
</g>
<!-- node8&#45;&gt;node7 -->
<g id="edge15" class="edge">
<title>node8&#45;&gt;node7</title>
<path fill="none" stroke="blue" d="M410.59,-378.61C411.22,-386.82 411.4,-396.31 411.12,-405.25"/>
<polygon fill="blue" stroke="blue" points="407.62,-405.2 410.59,-415.37 414.61,-405.56 407.62,-405.2"/>
</g>
<!-- node9 -->
<g id="node9" class="node">
<title>node9</title>
<path fill="peachpuff" stroke="black" d="M190,-249.5C190,-249.5 295,-249.5 295,-249.5 301,-249.5 307,-255.5 307,-261.5 307,-261.5 307,-283.5 307,-283.5 307,-289.5 301,-295.5 295,-295.5 295,-295.5 190,-295.5 190,-295.5 184,-295.5 178,-289.5 178,-283.5 178,-283.5 178,-261.5 178,-261.5 178,-255.5 184,-249.5 190,-249.5"/>
<text text-anchor="middle" x="191" y="-280.3" font-family="Times,serif" font-size="14.00">9</text>
<polyline fill="none" stroke="black" points="204,-272.5 204,-295.5 "/>
<text text-anchor="middle" x="223" y="-280.3" font-family="Times,serif" font-size="14.00">OP</text>
<polyline fill="none" stroke="black" points="242,-272.5 242,-295.5 "/>
<text text-anchor="middle" x="274.5" y="-280.3" font-family="Times,serif" font-size="14.00">size=7</text>
<polyline fill="none" stroke="black" points="178,-272.5 307,-272.5 "/>
<text text-anchor="middle" x="242.5" y="-257.3" font-family="Times,serif" font-size="14.00">*</text>
</g>
<!-- node8&#45;&gt;node9 -->
<g id="edge16" class="edge">
<title>node8&#45;&gt;node9</title>
<path fill="none" stroke="red" d="M354.14,-332.37C333.56,-322.46 309.91,-310.68 289.66,-300.28"/>
<polygon fill="red" stroke="red" points="291.12,-297.09 280.62,-295.61 287.9,-303.31 291.12,-297.09"/>
</g>
<!-- node16 -->
<g id="node16" class="node">
<title>node16</title>
<path fill="pink" stroke="black" d="M339,-249.5C339,-249.5 470,-249.5 470,-249.5 476,-249.5 482,-255.5 482,-261.5 482,-261.5 482,-283.5 482,-283.5 482,-289.5 476,-295.5 470,-295.5 470,-295.5 339,-295.5 339,-295.5 333,-295.5 327,-289.5 327,-283.5 327,-283.5 327,-261.5 327,-261.5 327,-255.5 333,-249.5 339,-249.5"/>
<text text-anchor="middle" x="344.5" y="-280.3" font-family="Times,serif" font-size="14.00">16</text>
<polyline fill="none" stroke="black" points="362,-272.5 362,-295.5 "/>
<text text-anchor="middle" x="389.5" y="-280.3" font-family="Times,serif" font-size="14.00">NUM</text>
<polyline fill="none" stroke="black" points="417,-272.5 417,-295.5 "/>
<text text-anchor="middle" x="449.5" y="-280.3" font-family="Times,serif" font-size="14.00">size=1</text>
<polyline fill="none" stroke="black" points="327,-272.5 482,-272.5 "/>
<text text-anchor="middle" x="404.5" y="-257.3" font-family="Times,serif" font-size="14.00">1</text>
</g>
<!-- node8&#45;&gt;node16 -->
<g id="edge30" class="edge">
<title>node8&#45;&gt;node16</title>
<path fill="none" stroke="green" d="M398.41,-332.37C397.78,-324.15 397.6,-314.66 397.88,-305.73"/>
<polygon fill="green" stroke="green" points="401.38,-305.78 398.41,-295.61 394.39,-305.41 401.38,-305.78"/>
</g>
<!-- node9&#45;&gt;node8 -->
<g id="edge17" class="edge">
<title>node9&#45;&gt;node8</title>
<path fill="none" stroke="blue" d="M292.8,-295.61C313.38,-305.51 337.03,-317.29 357.28,-327.69"/>
<polygon fill="blue" stroke="blue" points="355.83,-330.88 366.32,-332.37 359.05,-324.67 355.83,-330.88"/>
</g>
<!-- node10 -->
<g id="node10" class="node">
<title>node10</title>
<path fill="pink" stroke="black" d="M12,-166.5C12,-166.5 143,-166.5 143,-166.5 149,-166.5 155,-172.5 155,-178.5 155,-178.5 155,-200.5 155,-200.5 155,-206.5 149,-212.5 143,-212.5 143,-212.5 12,-212.5 12,-212.5 6,-212.5 0,-206.5 0,-200.5 0,-200.5 0,-178.5 0,-178.5 0,-172.5 6,-166.5 12,-166.5"/>
<text text-anchor="middle" x="17.5" y="-197.3" font-family="Times,serif" font-size="14.00">10</text>
<polyline fill="none" stroke="black" points="35,-189.5 35,-212.5 "/>
<text text-anchor="middle" x="62.5" y="-197.3" font-family="Times,serif" font-size="14.00">NUM</text>
<polyline fill="none" stroke="black" points="90,-189.5 90,-212.5 "/>
<text text-anchor="middle" x="122.5" y="-197.3" font-family="Times,serif" font-size="14.00">size=1</text>
<polyline fill="none" stroke="black" points="0,-189.5 155,-189.5 "/>
<text text-anchor="middle" x="77.5" y="-174.3" font-family="Times,serif" font-size="14.00">3</text>
</g>
<!-- node9&#45;&gt;node10 -->
<g id="edge18" class="edge">
<title>node9&#45;&gt;node10</title>
<path fill="none" stroke="red" d="M191.32,-249.37C170.28,-239.41 146.07,-227.58 125.38,-217.14"/>
<polygon fill="red" stroke="red" points="126.95,-214.01 116.44,-212.61 123.78,-220.25 126.95,-214.01"/>
</g>
<!-- node11 -->
<g id="node11" class="node">
<title>node11</title>
<path fill="peachpuff" stroke="black" d="M185.5,-166.5C185.5,-166.5 299.5,-166.5 299.5,-166.5 305.5,-166.5 311.5,-172.5 311.5,-178.5 311.5,-178.5 311.5,-200.5 311.5,-200.5 311.5,-206.5 305.5,-212.5 299.5,-212.5 299.5,-212.5 185.5,-212.5 185.5,-212.5 179.5,-212.5 173.5,-206.5 173.5,-200.5 173.5,-200.5 173.5,-178.5 173.5,-178.5 173.5,-172.5 179.5,-166.5 185.5,-166.5"/>
<text text-anchor="middle" x="191" y="-197.3" font-family="Times,serif" font-size="14.00">11</text>
<polyline fill="none" stroke="black" points="208.5,-189.5 208.5,-212.5 "/>
<text text-anchor="middle" x="227.5" y="-197.3" font-family="Times,serif" font-size="14.00">OP</text>
<polyline fill="none" stroke="black" points="246.5,-189.5 246.5,-212.5 "/>
<text text-anchor="middle" x="279" y="-197.3" font-family="Times,serif" font-size="14.00">size=5</text>
<polyline fill="none" stroke="black" points="173.5,-189.5 311.5,-189.5 "/>
<text text-anchor="middle" x="242.5" y="-174.3" font-family="Times,serif" font-size="14.00">&#45;</text>
</g>
<!-- node9&#45;&gt;node11 -->
<g id="edge20" class="edge">
<title>node9&#45;&gt;node11</title>
<path fill="none" stroke="green" d="M236.41,-249.37C235.78,-241.15 235.6,-231.66 235.88,-222.73"/>
<polygon fill="green" stroke="green" points="239.38,-222.78 236.41,-212.61 232.39,-222.41 239.38,-222.78"/>
</g>
<!-- node10&#45;&gt;node9 -->
<g id="edge19" class="edge">
<title>node10&#45;&gt;node9</title>
<path fill="none" stroke="blue" d="M128.62,-212.61C149.66,-222.56 173.87,-234.39 194.57,-244.83"/>
<polygon fill="blue" stroke="blue" points="193,-247.96 203.5,-249.37 196.17,-241.72 193,-247.96"/>
</g>
<!-- node11&#45;&gt;node9 -->
<g id="edge21" class="edge">
<title>node11&#45;&gt;node9</title>
<path fill="none" stroke="blue" d="M248.59,-212.61C249.22,-220.82 249.4,-230.31 249.12,-239.25"/>
<polygon fill="blue" stroke="blue" points="245.62,-239.2 248.59,-249.37 252.61,-239.56 245.62,-239.2"/>
</g>
<!-- node12 -->
<g id="node12" class="node">
<title>node12</title>
<path fill="pink" stroke="black" d="M12,-83.5C12,-83.5 143,-83.5 143,-83.5 149,-83.5 155,-89.5 155,-95.5 155,-95.5 155,-117.5 155,-117.5 155,-123.5 149,-129.5 143,-129.5 143,-129.5 12,-129.5 12,-129.5 6,-129.5 0,-123.5 0,-117.5 0,-117.5 0,-95.5 0,-95.5 0,-89.5 6,-83.5 12,-83.5"/>
<text text-anchor="middle" x="17.5" y="-114.3" font-family="Times,serif" font-size="14.00">12</text>
<polyline fill="none" stroke="black" points="35,-106.5 35,-129.5 "/>
<text text-anchor="middle" x="62.5" y="-114.3" font-family="Times,serif" font-size="14.00">NUM</text>
<polyline fill="none" stroke="black" points="90,-106.5 90,-129.5 "/>
<text text-anchor="middle" x="122.5" y="-114.3" font-family="Times,serif" font-size="14.00">size=1</text>
<polyline fill="none" stroke="black" points="0,-106.5 155,-106.5 "/>
<text text-anchor="middle" x="77.5" y="-91.3" font-family="Times,serif" font-size="14.00">2,5</text>
</g>
<!-- node11&#45;&gt;node12 -->
<g id="edge22" class="edge">
<title>node11&#45;&gt;node12</title>
<path fill="none" stroke="red" d="M191.32,-166.37C170.28,-156.41 146.07,-144.58 125.38,-134.14"/>
<polygon fill="red" stroke="red" points="126.95,-131.01 116.44,-129.61 123.78,-137.25 126.95,-131.01"/>
</g>
<!-- node13 -->
<g id="node13" class="node">
<title>node13</title>
<path fill="peachpuff" stroke="black" d="M185.5,-83.5C185.5,-83.5 299.5,-83.5 299.5,-83.5 305.5,-83.5 311.5,-89.5 311.5,-95.5 311.5,-95.5 311.5,-117.5 311.5,-117.5 311.5,-123.5 305.5,-129.5 299.5,-129.5 299.5,-129.5 185.5,-129.5 185.5,-129.5 179.5,-129.5 173.5,-123.5 173.5,-117.5 173.5,-117.5 173.5,-95.5 173.5,-95.5 173.5,-89.5 179.5,-83.5 185.5,-83.5"/>
<text text-anchor="middle" x="191" y="-114.3" font-family="Times,serif" font-size="14.00">13</text>
<polyline fill="none" stroke="black" points="208.5,-106.5 208.5,-129.5 "/>
<text text-anchor="middle" x="227.5" y="-114.3" font-family="Times,serif" font-size="14.00">OP</text>
<polyline fill="none" stroke="black" points="246.5,-106.5 246.5,-129.5 "/>
<text text-anchor="middle" x="279" y="-114.3" font-family="Times,serif" font-size="14.00">size=3</text>
<polyline fill="none" stroke="black" points="173.5,-106.5 311.5,-106.5 "/>
<text text-anchor="middle" x="242.5" y="-91.3" font-family="Times,serif" font-size="14.00">/</text>
</g>
<!-- node11&#45;&gt;node13 -->
<g id="edge24" class="edge">
<title>node11&#45;&gt;node13</title>
<path fill="none" stroke="green" d="M236.41,-166.37C235.78,-158.15 235.6,-148.66 235.88,-139.73"/>
<polygon fill="green" stroke="green" points="239.38,-139.78 236.41,-129.61 232.39,-139.41 239.38,-139.78"/>
</g>
<!-- node12&#45;&gt;node11 -->
<g id="edge23" class="edge">
<title>node12&#45;&gt;node11</title>
<path fill="none" stroke="blue" d="M128.62,-129.61C149.66,-139.56 173.87,-151.39 194.57,-161.83"/>
<polygon fill="blue" stroke="blue" points="193,-164.96 203.5,-166.37 196.17,-158.72 193,-164.96"/>
</g>
<!-- node13&#45;&gt;node11 -->
<g id="edge25" class="edge">
<title>node13&#45;&gt;node11</title>
<path fill="none" stroke="blue" d="M248.59,-129.61C249.22,-137.82 249.4,-147.31 249.12,-156.25"/>
<polygon fill="blue" stroke="blue" points="245.62,-156.2 248.59,-166.37 252.61,-156.56 245.62,-156.2"/>
</g>
<!-- node14 -->
<g id="node14" class="node">
<title>node14</title>
<path fill="pink" stroke="black" d="M91,-0.5C91,-0.5 222,-0.5 222,-0.5 228,-0.5 234,-6.5 234,-12.5 234,-12.5 234,-34.5 234,-34.5 234,-40.5 228,-46.5 222,-46.5 222,-46.5 91,-46.5 91,-46.5 85,-46.5 79,-40.5 79,-34.5 79,-34.5 79,-12.5 79,-12.5 79,-6.5 85,-0.5 91,-0.5"/>
<text text-anchor="middle" x="96.5" y="-31.3" font-family="Times,serif" font-size="14.00">14</text>
<polyline fill="none" stroke="black" points="114,-23.5 114,-46.5 "/>
<text text-anchor="middle" x="141.5" y="-31.3" font-family="Times,serif" font-size="14.00">NUM</text>
<polyline fill="none" stroke="black" points="169,-23.5 169,-46.5 "/>
<text text-anchor="middle" x="201.5" y="-31.3" font-family="Times,serif" font-size="14.00">size=1</text>
<polyline fill="none" stroke="black" points="79,-23.5 234,-23.5 "/>
<text text-anchor="middle" x="156.5" y="-8.3" font-family="Times,serif" font-size="14.00">0,1</text>
</g>
<!-- node13&#45;&gt;node14 -->
<g id="edge26" class="edge">
<title>node13&#45;&gt;node14</title>
<path fill="none" stroke="red" d="M212.91,-83.37C202.54,-74.26 191.06,-63.58 181.13,-53.83"/>
<polygon fill="red" stroke="red" points="183.43,-51.19 173.88,-46.61 178.49,-56.15 183.43,-51.19"/>
</g>
<!-- node15 -->
<g id="node15" class="node">
<title>node15</title>
<path fill="pink" stroke="black" d="M264,-0.5C264,-0.5 395,-0.5 395,-0.5 401,-0.5 407,-6.5 407,-12.5 407,-12.5 407,-34.5 407,-34.5 407,-40.5 401,-46.5 395,-46.5 395,-46.5 264,-46.5 264,-46.5 258,-46.5 252,-40.5 252,-34.5 252,-34.5 252,-12.5 252,-12.5 252,-6.5 258,-0.5 264,-0.5"/>
<text text-anchor="middle" x="269.5" y="-31.3" font-family="Times,serif" font-size="14.00">15</text>
<polyline fill="none" stroke="black" points="287,-23.5 287,-46.5 "/>
<text text-anchor="middle" x="314.5" y="-31.3" font-family="Times,serif" font-size="14.00">NUM</text>
<polyline fill="none" stroke="black" points="342,-23.5 342,-46.5 "/>
<text text-anchor="middle" x="374.5" y="-31.3" font-family="Times,serif" font-size="14.00">size=1</text>
<polyline fill="none" stroke="black" points="252,-23.5 407,-23.5 "/>
<text text-anchor="middle" x="329.5" y="-8.3" font-family="Times,serif" font-size="14.00">2</text>
</g>
<!-- node13&#45;&gt;node15 -->
<g id="edge28" class="edge">
<title>node13&#45;&gt;node15</title>
<path fill="none" stroke="green" d="M260.18,-83.37C269.44,-74.08 281.04,-63.16 292.12,-53.26"/>
<polygon fill="green" stroke="green" points="294.48,-55.84 299.67,-46.61 289.85,-50.59 294.48,-55.84"/>
</g>
<!-- node14&#45;&gt;node13 -->
<g id="edge27" class="edge">
<title>node14&#45;&gt;node13</title>
<path fill="none" stroke="blue" d="M186.06,-46.61C196.43,-55.71 207.91,-66.39 217.84,-76.14"/>
<polygon fill="blue" stroke="blue" points="215.54,-78.78 225.09,-83.37 220.48,-73.83 215.54,-78.78"/>
</g>
<!-- node15&#45;&gt;node13 -->
<g id="edge29" class="edge">
<title>node15&#45;&gt;node13</title>
<path fill="none" stroke="blue" d="M311.84,-46.61C302.59,-55.89 291,-66.81 279.92,-76.71"/>
<polygon fill="blue" stroke="blue" points="277.55,-74.13 272.36,-83.37 282.18,-79.38 277.55,-74.13"/>
</g>
<!-- node16&#45;&gt;node8 -->
<g id="edge31" class="edge">
<title>node16&#45;&gt;node8</title>
<path fill="none" stroke="blue" d="M410.59,-295.61C411.22,-303.82 411.4,-313.31 411.12,-322.25"/>
<polygon fill="blue" stroke="blue" points="407.62,-322.2 410.59,-332.37 414.61,-322.56 407.62,-322.2"/>
</g>
<!-- node17&#45;&gt;node7 -->
<g id="edge33" class="edge">
<title>node17&#45;&gt;node7</title>
<path fill="none" stroke="blue" d="M531.28,-378.61C511.57,-388.6 487.28,-400.5 465.24,-410.97"/>
<polygon fill="blue" stroke="blue" points="463.5,-407.93 455.95,-415.37 466.49,-414.26 463.5,-407.93"/>
</g>
<!-- node18 -->
<g id="node18" class="node">
<title>node18</title>
<path fill="peachpuff" stroke="black" d="M513.5,-249.5C513.5,-249.5 627.5,-249.5 627.5,-249.5 633.5,-249.5 639.5,-255.5 639.5,-261.5 639.5,-261.5 639.5,-283.5 639.5,-283.5 639.5,-289.5 633.5,-295.5 627.5,-295.5 627.5,-295.5 513.5,-295.5 513.5,-295.5 507.5,-295.5 501.5,-289.5 501.5,-283.5 501.5,-283.5 501.5,-261.5 501.5,-261.5 501.5,-255.5 507.5,-249.5 513.5,-249.5"/>
<text text-anchor="middle" x="519" y="-280.3" font-family="Times,serif" font-size="14.00">18</text>
<polyline fill="none" stroke="black" points="536.5,-272.5 536.5,-295.5 "/>
<text text-anchor="middle" x="555.5" y="-280.3" font-family="Times,serif" font-size="14.00">OP</text>
<polyline fill="none" stroke="black" points="574.5,-272.5 574.5,-295.5 "/>
<text text-anchor="middle" x="607" y="-280.3" font-family="Times,serif" font-size="14.00">size=5</text>
<polyline fill="none" stroke="black" points="501.5,-272.5 639.5,-272.5 "/>
<text text-anchor="middle" x="570.5" y="-257.3" font-family="Times,serif" font-size="14.00">/</text>
</g>
<!-- node17&#45;&gt;node18 -->
<g id="edge34" class="edge">
<title>node17&#45;&gt;node18</title>
<path fill="none" stroke="red" d="M564.41,-332.37C563.78,-324.15 563.6,-314.66 563.88,-305.73"/>
<polygon fill="red" stroke="red" points="567.38,-305.78 564.41,-295.61 560.39,-305.41 567.38,-305.78"/>
</g>
<!-- node23 -->
<g id="node23" class="node">
<title>node23</title>
<path fill="peachpuff" stroke="black" d="M688.5,-249.5C688.5,-249.5 802.5,-249.5 802.5,-249.5 808.5,-249.5 814.5,-255.5 814.5,-261.5 814.5,-261.5 814.5,-283.5 814.5,-283.5 814.5,-289.5 808.5,-295.5 802.5,-295.5 802.5,-295.5 688.5,-295.5 688.5,-295.5 682.5,-295.5 676.5,-289.5 676.5,-283.5 676.5,-283.5 676.5,-261.5 676.5,-261.5 676.5,-255.5 682.5,-249.5 688.5,-249.5"/>
<text text-anchor="middle" x="694" y="-280.3" font-family="Times,serif" font-size="14.00">23</text>
<polyline fill="none" stroke="black" points="711.5,-272.5 711.5,-295.5 "/>
<text text-anchor="middle" x="730.5" y="-280.3" font-family="Times,serif" font-size="14.00">OP</text>
<polyline fill="none" stroke="black" points="749.5,-272.5 749.5,-295.5 "/>
<text text-anchor="middle" x="782" y="-280.3" font-family="Times,serif" font-size="14.00">size=5</text>
<polyline fill="none" stroke="black" points="676.5,-272.5 814.5,-272.5 "/>
<text text-anchor="middle" x="745.5" y="-257.3" font-family="Times,serif" font-size="14.00">^</text>
</g>
<!-- node17&#45;&gt;node23 -->
<g id="edge44" class="edge">
<title>node17&#45;&gt;node23</title>
<path fill="none" stroke="green" d="M612.23,-332.37C633.25,-322.28 659.13,-310.26 682.49,-299.72"/>
<polygon fill="green" stroke="green" points="683.96,-302.9 691.65,-295.61 681.09,-296.51 683.96,-302.9"/>
</g>
<!-- node18&#45;&gt;node17 -->
<g id="edge35" class="edge">
<title>node18&#45;&gt;node17</title>
<path fill="none" stroke="blue" d="M576.59,-295.61C577.22,-303.82 577.4,-313.31 577.12,-322.25"/>
<polygon fill="blue" stroke="blue" points="573.62,-322.2 576.59,-332.37 580.61,-322.56 573.62,-322.2"/>
</g>
<!-- node19 -->
<g id="node19" class="node">
<title>node19</title>
<path fill="peachpuff" stroke="black" d="M350.5,-166.5C350.5,-166.5 464.5,-166.5 464.5,-166.5 470.5,-166.5 476.5,-172.5 476.5,-178.5 476.5,-178.5 476.5,-200.5 476.5,-200.5 476.5,-206.5 470.5,-212.5 464.5,-212.5 464.5,-212.5 350.5,-212.5 350.5,-212.5 344.5,-212.5 338.5,-206.5 338.5,-200.5 338.5,-200.5 338.5,-178.5 338.5,-178.5 338.5,-172.5 344.5,-166.5 350.5,-166.5"/>
<text text-anchor="middle" x="356" y="-197.3" font-family="Times,serif" font-size="14.00">19</text>
<polyline fill="none" stroke="black" points="373.5,-189.5 373.5,-212.5 "/>
<text text-anchor="middle" x="392.5" y="-197.3" font-family="Times,serif" font-size="14.00">OP</text>
<polyline fill="none" stroke="black" points="411.5,-189.5 411.5,-212.5 "/>
<text text-anchor="middle" x="444" y="-197.3" font-family="Times,serif" font-size="14.00">size=3</text>
<polyline fill="none" stroke="black" points="338.5,-189.5 476.5,-189.5 "/>
<text text-anchor="middle" x="407.5" y="-174.3" font-family="Times,serif" font-size="14.00">*</text>
</g>
<!-- node18&#45;&gt;node19 -->
<g id="edge36" class="edge">
<title>node18&#45;&gt;node19</title>
<path fill="none" stroke="red" d="M519.87,-249.37C499.16,-239.46 475.37,-227.68 454.99,-217.28"/>
<polygon fill="red" stroke="red" points="456.39,-214.06 445.9,-212.61 453.19,-220.29 456.39,-214.06"/>
</g>
<!-- node22 -->
<g id="node22" class="node">
<title>node22</title>
<path fill="pink" stroke="black" d="M507,-166.5C507,-166.5 638,-166.5 638,-166.5 644,-166.5 650,-172.5 650,-178.5 650,-178.5 650,-200.5 650,-200.5 650,-206.5 644,-212.5 638,-212.5 638,-212.5 507,-212.5 507,-212.5 501,-212.5 495,-206.5 495,-200.5 495,-200.5 495,-178.5 495,-178.5 495,-172.5 501,-166.5 507,-166.5"/>
<text text-anchor="middle" x="512.5" y="-197.3" font-family="Times,serif" font-size="14.00">22</text>
<polyline fill="none" stroke="black" points="530,-189.5 530,-212.5 "/>
<text text-anchor="middle" x="557.5" y="-197.3" font-family="Times,serif" font-size="14.00">NUM</text>
<polyline fill="none" stroke="black" points="585,-189.5 585,-212.5 "/>
<text text-anchor="middle" x="617.5" y="-197.3" font-family="Times,serif" font-size="14.00">size=1</text>
<polyline fill="none" stroke="black" points="495,-189.5 650,-189.5 "/>
<text text-anchor="middle" x="572.5" y="-174.3" font-family="Times,serif" font-size="14.00">7</text>
</g>
<!-- node18&#45;&gt;node22 -->
<g id="edge42" class="edge">
<title>node18&#45;&gt;node22</title>
<path fill="none" stroke="green" d="M564.96,-249.37C564.53,-241.15 564.58,-231.66 565.08,-222.73"/>
<polygon fill="green" stroke="green" points="568.58,-222.85 565.87,-212.61 561.6,-222.31 568.58,-222.85"/>
</g>
<!-- node19&#45;&gt;node18 -->
<g id="edge37" class="edge">
<title>node19&#45;&gt;node18</title>
<path fill="none" stroke="blue" d="M458.08,-212.61C478.78,-222.51 502.57,-234.29 522.95,-244.69"/>
<polygon fill="blue" stroke="blue" points="521.56,-247.91 532.05,-249.37 524.75,-241.68 521.56,-247.91"/>
</g>
<!-- node20 -->
<g id="node20" class="node">
<title>node20</title>
<path fill="pink" stroke="black" d="M342,-83.5C342,-83.5 473,-83.5 473,-83.5 479,-83.5 485,-89.5 485,-95.5 485,-95.5 485,-117.5 485,-117.5 485,-123.5 479,-129.5 473,-129.5 473,-129.5 342,-129.5 342,-129.5 336,-129.5 330,-123.5 330,-117.5 330,-117.5 330,-95.5 330,-95.5 330,-89.5 336,-83.5 342,-83.5"/>
<text text-anchor="middle" x="347.5" y="-114.3" font-family="Times,serif" font-size="14.00">20</text>
<polyline fill="none" stroke="black" points="365,-106.5 365,-129.5 "/>
<text text-anchor="middle" x="392.5" y="-114.3" font-family="Times,serif" font-size="14.00">NUM</text>
<polyline fill="none" stroke="black" points="420,-106.5 420,-129.5 "/>
<text text-anchor="middle" x="452.5" y="-114.3" font-family="Times,serif" font-size="14.00">size=1</text>
<polyline fill="none" stroke="black" points="330,-106.5 485,-106.5 "/>
<text text-anchor="middle" x="407.5" y="-91.3" font-family="Times,serif" font-size="14.00">2</text>
</g>
<!-- node19&#45;&gt;node20 -->
<g id="edge38" class="edge">
<title>node19&#45;&gt;node20</title>
<path fill="none" stroke="red" d="M401.41,-166.37C400.78,-158.15 400.6,-148.66 400.88,-139.73"/>
<polygon fill="red" stroke="red" points="404.38,-139.78 401.41,-129.61 397.39,-139.41 404.38,-139.78"/>
</g>
<!-- node21 -->
<g id="node21" class="node">
<title>node21</title>
<path fill="pink" stroke="black" d="M515,-83.5C515,-83.5 646,-83.5 646,-83.5 652,-83.5 658,-89.5 658,-95.5 658,-95.5 658,-117.5 658,-117.5 658,-123.5 652,-129.5 646,-129.5 646,-129.5 515,-129.5 515,-129.5 509,-129.5 503,-123.5 503,-117.5 503,-117.5 503,-95.5 503,-95.5 503,-89.5 509,-83.5 515,-83.5"/>
<text text-anchor="middle" x="520.5" y="-114.3" font-family="Times,serif" font-size="14.00">21</text>
<polyline fill="none" stroke="black" points="538,-106.5 538,-129.5 "/>
<text text-anchor="middle" x="565.5" y="-114.3" font-family="Times,serif" font-size="14.00">NUM</text>
<polyline fill="none" stroke="black" points="593,-106.5 593,-129.5 "/>
<text text-anchor="middle" x="625.5" y="-114.3" font-family="Times,serif" font-size="14.00">size=1</text>
<polyline fill="none" stroke="black" points="503,-106.5 658,-106.5 "/>
<text text-anchor="middle" x="580.5" y="-91.3" font-family="Times,serif" font-size="14.00">16</text>
</g>
<!-- node19&#45;&gt;node21 -->
<g id="edge40" class="edge">
<title>node19&#45;&gt;node21</title>
<path fill="none" stroke="green" d="M448.68,-166.37C469.36,-156.32 494.81,-144.36 517.84,-133.86"/>
<polygon fill="green" stroke="green" points="519.54,-136.93 527.2,-129.61 516.64,-130.56 519.54,-136.93"/>
</g>
<!-- node20&#45;&gt;node19 -->
<g id="edge39" class="edge">
<title>node20&#45;&gt;node19</title>
<path fill="none" stroke="blue" d="M413.59,-129.61C414.22,-137.82 414.4,-147.31 414.12,-156.25"/>
<polygon fill="blue" stroke="blue" points="410.62,-156.2 413.59,-166.37 417.61,-156.56 410.62,-156.2"/>
</g>
<!-- node21&#45;&gt;node19 -->
<g id="edge41" class="edge">
<title>node21&#45;&gt;node19</title>
<path fill="none" stroke="blue" d="M539.37,-129.61C518.7,-139.65 493.26,-151.61 470.23,-162.11"/>
<polygon fill="blue" stroke="blue" points="468.52,-159.04 460.86,-166.37 471.42,-165.42 468.52,-159.04"/>
</g>
<!-- node22&#45;&gt;node18 -->
<g id="edge43" class="edge">
<title>node22&#45;&gt;node18</title>
<path fill="none" stroke="blue" d="M578.04,-212.61C578.47,-220.82 578.42,-230.31 577.92,-239.25"/>
<polygon fill="blue" stroke="blue" points="574.42,-239.13 577.14,-249.37 581.4,-239.67 574.42,-239.13"/>
</g>
<!-- node23&#45;&gt;node17 -->
<g id="edge45" class="edge">
<title>node23&#45;&gt;node17</title>
<path fill="none" stroke="blue" d="M703.83,-295.61C682.81,-305.69 656.94,-317.71 633.57,-328.25"/>
<polygon fill="blue" stroke="blue" points="632.1,-325.08 624.41,-332.37 634.97,-331.46 632.1,-325.08"/>
</g>
<!-- node24 -->
<g id="node24" class="node">
<title>node24</title>
<path fill="pink" stroke="black" d="M680,-166.5C680,-166.5 811,-166.5 811,-166.5 817,-166.5 823,-172.5 823,-178.5 823,-178.5 823,-200.5 823,-200.5 823,-206.5 817,-212.5 811,-212.5 811,-212.5 680,-212.5 680,-212.5 674,-212.5 668,-206.5 668,-200.5 668,-200.5 668,-178.5 668,-178.5 668,-172.5 674,-166.5 680,-166.5"/>
<text text-anchor="middle" x="685.5" y="-197.3" font-family="Times,serif" font-size="14.00">24</text>
<polyline fill="none" stroke="black" points="703,-189.5 703,-212.5 "/>
<text text-anchor="middle" x="730.5" y="-197.3" font-family="Times,serif" font-size="14.00">NUM</text>
<polyline fill="none" stroke="black" points="758,-189.5 758,-212.5 "/>
<text text-anchor="middle" x="790.5" y="-197.3" font-family="Times,serif" font-size="14.00">size=1</text>
<polyline fill="none" stroke="black" points="668,-189.5 823,-189.5 "/>
<text text-anchor="middle" x="745.5" y="-174.3" font-family="Times,serif" font-size="14.00">4</text>
</g>
<!-- node23&#45;&gt;node24 -->
<g id="edge46" class="edge">
<title>node23&#45;&gt;node24</title>
<path fill="none" stroke="red" d="M739.41,-249.37C738.78,-241.15 738.6,-231.66 738.88,-222.73"/>
<polygon fill="red" stroke="red" points="742.38,-222.78 739.41,-212.61 735.39,-222.41 742.38,-222.78"/>
</g>
<!-- node25 -->
<g id="node25" class="node">
<title>node25</title>
<path fill="peachpuff" stroke="black" d="M853.5,-166.5C853.5,-166.5 967.5,-166.5 967.5,-166.5 973.5,-166.5 979.5,-172.5 979.5,-178.5 979.5,-178.5 979.5,-200.5 979.5,-200.5 979.5,-206.5 973.5,-212.5 967.5,-212.5 967.5,-212.5 853.5,-212.5 853.5,-212.5 847.5,-212.5 841.5,-206.5 841.5,-200.5 841.5,-200.5 841.5,-178.5 841.5,-178.5 841.5,-172.5 847.5,-166.5 853.5,-166.5"/>
<text text-anchor="middle" x="859" y="-197.3" font-family="Times,serif" font-size="14.00">25</text>
<polyline fill="none" stroke="black" points="876.5,-189.5 876.5,-212.5 "/>
<text text-anchor="middle" x="895.5" y="-197.3" font-family="Times,serif" font-size="14.00">OP</text>
<polyline fill="none" stroke="black" points="914.5,-189.5 914.5,-212.5 "/>
<text text-anchor="middle" x="947" y="-197.3" font-family="Times,serif" font-size="14.00">size=3</text>
<polyline fill="none" stroke="black" points="841.5,-189.5 979.5,-189.5 "/>
<text text-anchor="middle" x="910.5" y="-174.3" font-family="Times,serif" font-size="14.00">^</text>
</g>
<!-- node23&#45;&gt;node25 -->
<g id="edge48" class="edge">
<title>node23&#45;&gt;node25</title>
<path fill="none" stroke="green" d="M784.5,-249.37C804.1,-239.37 828.24,-227.47 850.14,-217"/>
<polygon fill="green" stroke="green" points="851.85,-220.06 859.38,-212.61 848.84,-213.74 851.85,-220.06"/>
</g>
<!-- node24&#45;&gt;node23 -->
<g id="edge47" class="edge">
<title>node24&#45;&gt;node23</title>
<path fill="none" stroke="blue" d="M751.59,-212.61C752.22,-220.82 752.4,-230.31 752.12,-239.25"/>
<polygon fill="blue" stroke="blue" points="748.62,-239.2 751.59,-249.37 755.61,-239.56 748.62,-239.2"/>
</g>
<!-- node25&#45;&gt;node23 -->
<g id="edge49" class="edge">
<title>node25&#45;&gt;node23</title>
<path fill="none" stroke="blue" d="M871.56,-212.61C851.96,-222.6 827.83,-234.5 805.91,-244.97"/>
<polygon fill="blue" stroke="blue" points="804.21,-241.91 796.68,-249.37 807.21,-248.23 804.21,-241.91"/>
</g>
<!-- node26 -->
<g id="node26" class="node">
<title>node26</title>
<path fill="pink" stroke="black" d="M766,-83.5C766,-83.5 897,-83.5 897,-83.5 903,-83.5 909,-89.5 909,-95.5 909,-95.5 909,-117.5 909,-117.5 909,-123.5 903,-129.5 897,-129.5 897,-129.5 766,-129.5 766,-129.5 760,-129.5 754,-123.5 754,-117.5 754,-117.5 754,-95.5 754,-95.5 754,-89.5 760,-83.5 766,-83.5"/>
<text text-anchor="middle" x="771.5" y="-114.3" font-family="Times,serif" font-size="14.00">26</text>
<polyline fill="none" stroke="black" points="789,-106.5 789,-129.5 "/>
<text text-anchor="middle" x="816.5" y="-114.3" font-family="Times,serif" font-size="14.00">NUM</text>
<polyline fill="none" stroke="black" points="844,-106.5 844,-129.5 "/>
<text text-anchor="middle" x="876.5" y="-114.3" font-family="Times,serif" font-size="14.00">size=1</text>
<polyline fill="none" stroke="black" points="754,-106.5 909,-106.5 "/>
<text text-anchor="middle" x="831.5" y="-91.3" font-family="Times,serif" font-size="14.00">1</text>
</g>
<!-- node25&#45;&gt;node26 -->
<g id="edge50" class="edge">
<title>node25&#45;&gt;node26</title>
<path fill="none" stroke="red" d="M882.82,-166.37C873.33,-157.35 862.89,-146.79 853.86,-137.12"/>
<polygon fill="red" stroke="red" points="856.31,-134.61 846.97,-129.61 851.15,-139.34 856.31,-134.61"/>
</g>
<!-- node27 -->
<g id="node27" class="node">
<title>node27</title>
<path fill="pink" stroke="black" d="M939,-83.5C939,-83.5 1070,-83.5 1070,-83.5 1076,-83.5 1082,-89.5 1082,-95.5 1082,-95.5 1082,-117.5 1082,-117.5 1082,-123.5 1076,-129.5 1070,-129.5 1070,-129.5 939,-129.5 939,-129.5 933,-129.5 927,-123.5 927,-117.5 927,-117.5 927,-95.5 927,-95.5 927,-89.5 933,-83.5 939,-83.5"/>
<text text-anchor="middle" x="944.5" y="-114.3" font-family="Times,serif" font-size="14.00">27</text>
<polyline fill="none" stroke="black" points="962,-106.5 962,-129.5 "/>
<text text-anchor="middle" x="989.5" y="-114.3" font-family="Times,serif" font-size="14.00">NUM</text>
<polyline fill="none" stroke="black" points="1017,-106.5 1017,-129.5 "/>
<text text-anchor="middle" x="1049.5" y="-114.3" font-family="Times,serif" font-size="14.00">size=1</text>
<polyline fill="none" stroke="black" points="927,-106.5 1082,-106.5 "/>
<text text-anchor="middle" x="1004.5" y="-91.3" font-family="Times,serif" font-size="14.00">1,512</text>
</g>
<!-- node25&#45;&gt;node27 -->
<g id="edge52" class="edge">
<title>node25&#45;&gt;node27</title>
<path fill="none" stroke="green" d="M930.1,-166.37C940.25,-156.99 952.94,-145.95 964.97,-135.98"/>
<polygon fill="green" stroke="green" points="967.24,-138.65 972.76,-129.61 962.8,-133.23 967.24,-138.65"/>
</g>
<!-- node26&#45;&gt;node25 -->
<g id="edge51" class="edge">
<title>node26&#45;&gt;node25</title>
<path fill="none" stroke="blue" d="M859.15,-129.61C868.64,-138.62 879.08,-149.18 888.11,-158.85"/>
<polygon fill="blue" stroke="blue" points="885.67,-161.36 895,-166.37 890.83,-156.63 885.67,-161.36"/>
</g>
<!-- node27&#45;&gt;node25 -->
<g id="edge53" class="edge">
<title>node27&#45;&gt;node25</title>
<path fill="none" stroke="blue" d="M984.93,-129.61C974.78,-138.98 962.1,-150.02 950.06,-159.99"/>
<polygon fill="blue" stroke="blue" points="947.8,-157.32 942.28,-166.37 952.23,-162.74 947.8,-157.32"/>
</g>
<!-- node28&#45;&gt;node2 -->
<g id="edge55" class="edge">
<title>node28&#45;&gt;node2</title>
<path fill="none" stroke="blue" d="M470.75,-544.61C462.38,-553.8 451.86,-564.6 441.72,-574.42"/>
<polygon fill="blue" stroke="blue" points="439.27,-571.93 434.45,-581.37 444.1,-576.99 439.27,-571.93"/>
</g>
<!-- node29&#45;&gt;node1 -->
<g id="edge57" class="edge">
<title>node29&#45;&gt;node1</title>
<path fill="none" stroke="blue" d="M550.75,-627.61C542.38,-636.8 531.86,-647.6 521.72,-657.42"/>
<polygon fill="blue" stroke="blue" points="519.27,-654.93 514.45,-664.37 524.1,-659.99 519.27,-654.93"/>
</g>
</g>
</svg>
