<?xml version="1.0" encoding="UTF-8" standalone="no"?>
<!DOCTYPE svg PUBLIC "-//W3C//DTD SVG 1.1//EN"
 "http://www.w3.org/Graphics/SVG/1.1/DTD/svg11.dtd">
<!-- Generated by graphviz version 2.43.0 (0)
 -->
<!-- Title: %3 Pages: 1 -->
<svg width="1744pt" height="802pt"
 viewBox="0.00 0.00 1743.50 802.00" xmlns="http://www.w3.org/2000/svg" xmlns:xlink="http://www.w3.org/1999/xlink">
<g id="graph0" class="graph" transform="scale(1 1) rotate(0) translate(4 798)">
<title>%3</title>
<polygon fill="white" stroke="transparent" points="-4,4 -4,-798 1739.5,-798 1739.5,4 -4,4"/>
<!-- node1 -->
<g id="node1" class="node">
<title>node1</title>
<path fill="peachpuff" stroke="black" d="M1190,-747.5C1190,-747.5 1304,-747.5 1304,-747.5 1310,-747.5 1316,-753.5 1316,-759.5 1316,-759.5 1316,-781.5 1316,-781.5 1316,-787.5 1310,-793.5 1304,-793.5 1304,-793.5 1190,-793.5 1190,-793.5 1184,-793.5 1178,-787.5 1178,-781.5 1178,-781.5 1178,-759.5 1178,-759.5 1178,-753.5 1184,-747.5 1190,-747.5"/>
<text text-anchor="middle" x="1191" y="-778.3" font-family="Times,serif" font-size="14.00">1</text>
<polyline fill="none" stroke="black" points="1204,-770.5 1204,-793.5 "/>
<text text-anchor="middle" x="1223" y="-778.3" font-family="Times,serif" font-size="14.00">OP</text>
<polyline fill="none" stroke="black" points="1242,-770.5 1242,-793.5 "/>
<text text-anchor="middle" x="1279" y="-778.3" font-family="Times,serif" font-size="14.00">size=44</text>
<polyline fill="none" stroke="black" points="1178,-770.5 1316,-770.5 "/>
<text text-anchor="middle" x="1247" y="-755.3" font-family="Times,serif" font-size="14.00">+</text>
</g>
<!-- node1&#45;&gt;node1 -->
<g id="edge1" class="edge">
<title>node1&#45;&gt;node1</title>
<path fill="none" stroke="blue" d="M1316.27,-784.52C1326.83,-782.38 1334,-777.71 1334,-770.5 1334,-765.77 1330.91,-762.13 1325.81,-759.58"/>
<polygon fill="blue" stroke="blue" points="1326.87,-756.25 1316.27,-756.48 1324.7,-762.9 1326.87,-756.25"/>
</g>
<!-- node2 -->
<g id="node2" class="node">
<title>node2</title>
<path fill="peachpuff" stroke="black" d="M1110,-664.5C1110,-664.5 1224,-664.5 1224,-664.5 1230,-664.5 1236,-670.5 1236,-676.5 1236,-676.5 1236,-698.5 1236,-698.5 1236,-704.5 1230,-710.5 1224,-710.5 1224,-710.5 1110,-710.5 1110,-710.5 1104,-710.5 1098,-704.5 1098,-698.5 1098,-698.5 1098,-676.5 1098,-676.5 1098,-670.5 1104,-664.5 1110,-664.5"/>
<text text-anchor="middle" x="1111" y="-695.3" font-family="Times,serif" font-size="14.00">2</text>
<polyline fill="none" stroke="black" points="1124,-687.5 1124,-710.5 "/>
<text text-anchor="middle" x="1143" y="-695.3" font-family="Times,serif" font-size="14.00">OP</text>
<polyline fill="none" stroke="black" points="1162,-687.5 1162,-710.5 "/>
<text text-anchor="middle" x="1199" y="-695.3" font-family="Times,serif" font-size="14.00">size=37</text>
<polyline fill="none" stroke="black" points="1098,-687.5 1236,-687.5 "/>
<text text-anchor="middle" x="1167" y="-672.3" font-family="Times,serif" font-size="14.00">+</text>
</g>
<!-- node1&#45;&gt;node2 -->
<g id="edge2" class="edge">
<title>node1&#45;&gt;node2</title>
<path fill="none" stroke="red" d="M1219.05,-747.37C1209.45,-738.35 1198.87,-727.79 1189.73,-718.12"/>
<polygon fill="red" stroke="red" points="1192.12,-715.55 1182.75,-710.61 1186.99,-720.32 1192.12,-715.55"/>
</g>
<!-- node39 -->
<g id="node39" class="node">
<title>node39</title>
<path fill="peachpuff" stroke="black" d="M1270,-664.5C1270,-664.5 1384,-664.5 1384,-664.5 1390,-664.5 1396,-670.5 1396,-676.5 1396,-676.5 1396,-698.5 1396,-698.5 1396,-704.5 1390,-710.5 1384,-710.5 1384,-710.5 1270,-710.5 1270,-710.5 1264,-710.5 1258,-704.5 1258,-698.5 1258,-698.5 1258,-676.5 1258,-676.5 1258,-670.5 1264,-664.5 1270,-664.5"/>
<text text-anchor="middle" x="1275.5" y="-695.3" font-family="Times,serif" font-size="14.00">39</text>
<polyline fill="none" stroke="black" points="1293,-687.5 1293,-710.5 "/>
<text text-anchor="middle" x="1312" y="-695.3" font-family="Times,serif" font-size="14.00">OP</text>
<polyline fill="none" stroke="black" points="1331,-687.5 1331,-710.5 "/>
<text text-anchor="middle" x="1363.5" y="-695.3" font-family="Times,serif" font-size="14.00">size=6</text>
<polyline fill="none" stroke="black" points="1258,-687.5 1396,-687.5 "/>
<text text-anchor="middle" x="1327" y="-672.3" font-family="Times,serif" font-size="14.00">^</text>
</g>
<!-- node1&#45;&gt;node39 -->
<g id="edge76" class="edge">
<title>node1&#45;&gt;node39</title>
<path fill="none" stroke="green" d="M1262.77,-747.37C1271.15,-738.17 1281.67,-727.37 1291.81,-717.55"/>
<polygon fill="green" stroke="green" points="1294.26,-720.04 1299.08,-710.61 1289.43,-714.98 1294.26,-720.04"/>
</g>
<!-- node2&#45;&gt;node1 -->
<g id="edge3" class="edge">
<title>node2&#45;&gt;node1</title>
<path fill="none" stroke="blue" d="M1194.92,-710.61C1204.52,-719.62 1215.1,-730.18 1224.25,-739.85"/>
<polygon fill="blue" stroke="blue" points="1221.86,-742.42 1231.23,-747.37 1226.99,-737.66 1221.86,-742.42"/>
</g>
<!-- node3 -->
<g id="node3" class="node">
<title>node3</title>
<path fill="peachpuff" stroke="black" d="M950,-581.5C950,-581.5 1064,-581.5 1064,-581.5 1070,-581.5 1076,-587.5 1076,-593.5 1076,-593.5 1076,-615.5 1076,-615.5 1076,-621.5 1070,-627.5 1064,-627.5 1064,-627.5 950,-627.5 950,-627.5 944,-627.5 938,-621.5 938,-615.5 938,-615.5 938,-593.5 938,-593.5 938,-587.5 944,-581.5 950,-581.5"/>
<text text-anchor="middle" x="951" y="-612.3" font-family="Times,serif" font-size="14.00">3</text>
<polyline fill="none" stroke="black" points="964,-604.5 964,-627.5 "/>
<text text-anchor="middle" x="983" y="-612.3" font-family="Times,serif" font-size="14.00">OP</text>
<polyline fill="none" stroke="black" points="1002,-604.5 1002,-627.5 "/>
<text text-anchor="middle" x="1039" y="-612.3" font-family="Times,serif" font-size="14.00">size=35</text>
<polyline fill="none" stroke="black" points="938,-604.5 1076,-604.5 "/>
<text text-anchor="middle" x="1007" y="-589.3" font-family="Times,serif" font-size="14.00">&#45;</text>
</g>
<!-- node2&#45;&gt;node3 -->
<g id="edge4" class="edge">
<title>node2&#45;&gt;node3</title>
<path fill="none" stroke="red" d="M1117.19,-664.37C1096.85,-654.46 1073.49,-642.68 1053.5,-632.28"/>
<polygon fill="red" stroke="red" points="1055.06,-629.14 1044.58,-627.61 1051.82,-635.35 1055.06,-629.14"/>
</g>
<!-- node38 -->
<g id="node38" class="node">
<title>node38</title>
<path fill="lightyellow" stroke="black" d="M1106,-581.5C1106,-581.5 1228,-581.5 1228,-581.5 1234,-581.5 1240,-587.5 1240,-593.5 1240,-593.5 1240,-615.5 1240,-615.5 1240,-621.5 1234,-627.5 1228,-627.5 1228,-627.5 1106,-627.5 1106,-627.5 1100,-627.5 1094,-621.5 1094,-615.5 1094,-615.5 1094,-593.5 1094,-593.5 1094,-587.5 1100,-581.5 1106,-581.5"/>
<text text-anchor="middle" x="1111.5" y="-612.3" font-family="Times,serif" font-size="14.00">38</text>
<polyline fill="none" stroke="black" points="1129,-604.5 1129,-627.5 "/>
<text text-anchor="middle" x="1152" y="-612.3" font-family="Times,serif" font-size="14.00">VAR</text>
<polyline fill="none" stroke="black" points="1175,-604.5 1175,-627.5 "/>
<text text-anchor="middle" x="1207.5" y="-612.3" font-family="Times,serif" font-size="14.00">size=1</text>
<polyline fill="none" stroke="black" points="1094,-604.5 1240,-604.5 "/>
<text text-anchor="middle" x="1167" y="-589.3" font-family="Times,serif" font-size="14.00">x</text>
</g>
<!-- node2&#45;&gt;node38 -->
<g id="edge74" class="edge">
<title>node2&#45;&gt;node38</title>
<path fill="none" stroke="green" d="M1160.91,-664.37C1160.28,-656.15 1160.1,-646.66 1160.38,-637.73"/>
<polygon fill="green" stroke="green" points="1163.88,-637.78 1160.91,-627.61 1156.89,-637.41 1163.88,-637.78"/>
</g>
<!-- node3&#45;&gt;node2 -->
<g id="edge5" class="edge">
<title>node3&#45;&gt;node2</title>
<path fill="none" stroke="blue" d="M1056.76,-627.61C1077.09,-637.51 1100.45,-649.29 1120.44,-659.69"/>
<polygon fill="blue" stroke="blue" points="1118.89,-662.83 1129.37,-664.37 1122.13,-656.63 1118.89,-662.83"/>
</g>
<!-- node4 -->
<g id="node4" class="node">
<title>node4</title>
<path fill="peachpuff" stroke="black" d="M827,-498.5C827,-498.5 941,-498.5 941,-498.5 947,-498.5 953,-504.5 953,-510.5 953,-510.5 953,-532.5 953,-532.5 953,-538.5 947,-544.5 941,-544.5 941,-544.5 827,-544.5 827,-544.5 821,-544.5 815,-538.5 815,-532.5 815,-532.5 815,-510.5 815,-510.5 815,-504.5 821,-498.5 827,-498.5"/>
<text text-anchor="middle" x="828" y="-529.3" font-family="Times,serif" font-size="14.00">4</text>
<polyline fill="none" stroke="black" points="841,-521.5 841,-544.5 "/>
<text text-anchor="middle" x="860" y="-529.3" font-family="Times,serif" font-size="14.00">OP</text>
<polyline fill="none" stroke="black" points="879,-521.5 879,-544.5 "/>
<text text-anchor="middle" x="916" y="-529.3" font-family="Times,serif" font-size="14.00">size=33</text>
<polyline fill="none" stroke="black" points="815,-521.5 953,-521.5 "/>
<text text-anchor="middle" x="884" y="-506.3" font-family="Times,serif" font-size="14.00">*</text>
</g>
<!-- node3&#45;&gt;node4 -->
<g id="edge6" class="edge">
<title>node3&#45;&gt;node4</title>
<path fill="none" stroke="red" d="M967.3,-581.37C952.06,-571.81 934.8,-560.53 919.93,-550.41"/>
<polygon fill="red" stroke="red" points="921.71,-547.38 911.48,-544.61 917.74,-553.15 921.71,-547.38"/>
</g>
<!-- node37 -->
<g id="node37" class="node">
<title>node37</title>
<path fill="lightyellow" stroke="black" d="M983,-498.5C983,-498.5 1105,-498.5 1105,-498.5 1111,-498.5 1117,-504.5 1117,-510.5 1117,-510.5 1117,-532.5 1117,-532.5 1117,-538.5 1111,-544.5 1105,-544.5 1105,-544.5 983,-544.5 983,-544.5 977,-544.5 971,-538.5 971,-532.5 971,-532.5 971,-510.5 971,-510.5 971,-504.5 977,-498.5 983,-498.5"/>
<text text-anchor="middle" x="988.5" y="-529.3" font-family="Times,serif" font-size="14.00">37</text>
<polyline fill="none" stroke="black" points="1006,-521.5 1006,-544.5 "/>
<text text-anchor="middle" x="1029" y="-529.3" font-family="Times,serif" font-size="14.00">VAR</text>
<polyline fill="none" stroke="black" points="1052,-521.5 1052,-544.5 "/>
<text text-anchor="middle" x="1084.5" y="-529.3" font-family="Times,serif" font-size="14.00">size=1</text>
<polyline fill="none" stroke="black" points="971,-521.5 1117,-521.5 "/>
<text text-anchor="middle" x="1044" y="-506.3" font-family="Times,serif" font-size="14.00">x</text>
</g>
<!-- node3&#45;&gt;node37 -->
<g id="edge72" class="edge">
<title>node3&#45;&gt;node37</title>
<path fill="none" stroke="green" d="M1011.02,-581.37C1014.28,-572.79 1018.66,-562.83 1023.23,-553.56"/>
<polygon fill="green" stroke="green" points="1026.37,-555.1 1027.81,-544.61 1020.14,-551.91 1026.37,-555.1"/>
</g>
<!-- node4&#45;&gt;node3 -->
<g id="edge7" class="edge">
<title>node4&#45;&gt;node3</title>
<path fill="none" stroke="blue" d="M923.66,-544.61C938.9,-554.16 956.15,-565.44 971.03,-575.56"/>
<polygon fill="blue" stroke="blue" points="969.26,-578.59 979.48,-581.37 973.22,-572.82 969.26,-578.59"/>
</g>
<!-- node5 -->
<g id="node5" class="node">
<title>node5</title>
<path fill="peachpuff" stroke="black" d="M423,-415.5C423,-415.5 537,-415.5 537,-415.5 543,-415.5 549,-421.5 549,-427.5 549,-427.5 549,-449.5 549,-449.5 549,-455.5 543,-461.5 537,-461.5 537,-461.5 423,-461.5 423,-461.5 417,-461.5 411,-455.5 411,-449.5 411,-449.5 411,-427.5 411,-427.5 411,-421.5 417,-415.5 423,-415.5"/>
<text text-anchor="middle" x="424" y="-446.3" font-family="Times,serif" font-size="14.00">5</text>
<polyline fill="none" stroke="black" points="437,-438.5 437,-461.5 "/>
<text text-anchor="middle" x="456" y="-446.3" font-family="Times,serif" font-size="14.00">OP</text>
<polyline fill="none" stroke="black" points="475,-438.5 475,-461.5 "/>
<text text-anchor="middle" x="512" y="-446.3" font-family="Times,serif" font-size="14.00">size=11</text>
<polyline fill="none" stroke="black" points="411,-438.5 549,-438.5 "/>
<text text-anchor="middle" x="480" y="-423.3" font-family="Times,serif" font-size="14.00">/</text>
</g>
<!-- node4&#45;&gt;node5 -->
<g id="edge8" class="edge">
<title>node4&#45;&gt;node5</title>
<path fill="none" stroke="red" d="M814.9,-507.67C743.88,-493.83 633.58,-471.75 559.12,-456.49"/>
<polygon fill="red" stroke="red" points="559.82,-453.06 549.32,-454.48 558.41,-459.92 559.82,-453.06"/>
</g>
<!-- node16 -->
<g id="node16" class="node">
<title>node16</title>
<path fill="peachpuff" stroke="black" d="M897.5,-415.5C897.5,-415.5 1020.5,-415.5 1020.5,-415.5 1026.5,-415.5 1032.5,-421.5 1032.5,-427.5 1032.5,-427.5 1032.5,-449.5 1032.5,-449.5 1032.5,-455.5 1026.5,-461.5 1020.5,-461.5 1020.5,-461.5 897.5,-461.5 897.5,-461.5 891.5,-461.5 885.5,-455.5 885.5,-449.5 885.5,-449.5 885.5,-427.5 885.5,-427.5 885.5,-421.5 891.5,-415.5 897.5,-415.5"/>
<text text-anchor="middle" x="903" y="-446.3" font-family="Times,serif" font-size="14.00">16</text>
<polyline fill="none" stroke="black" points="920.5,-438.5 920.5,-461.5 "/>
<text text-anchor="middle" x="939.5" y="-446.3" font-family="Times,serif" font-size="14.00">OP</text>
<polyline fill="none" stroke="black" points="958.5,-438.5 958.5,-461.5 "/>
<text text-anchor="middle" x="995.5" y="-446.3" font-family="Times,serif" font-size="14.00">size=21</text>
<polyline fill="none" stroke="black" points="885.5,-438.5 1032.5,-438.5 "/>
<text text-anchor="middle" x="959" y="-423.3" font-family="Times,serif" font-size="14.00">^</text>
</g>
<!-- node4&#45;&gt;node16 -->
<g id="edge30" class="edge">
<title>node4&#45;&gt;node16</title>
<path fill="none" stroke="green" d="M898.4,-498.37C906.14,-489.26 915.88,-478.58 925.32,-468.83"/>
<polygon fill="green" stroke="green" points="927.92,-471.19 932.44,-461.61 922.93,-466.27 927.92,-471.19"/>
</g>
<!-- node5&#45;&gt;node4 -->
<g id="edge9" class="edge">
<title>node5&#45;&gt;node4</title>
<path fill="none" stroke="blue" d="M549.25,-452.36C620.3,-466.2 730.59,-488.28 805.01,-503.54"/>
<polygon fill="blue" stroke="blue" points="804.31,-506.97 814.81,-505.55 805.71,-500.11 804.31,-506.97"/>
</g>
<!-- node6 -->
<g id="node6" class="node">
<title>node6</title>
<path fill="peachpuff" stroke="black" d="M176.5,-332.5C176.5,-332.5 281.5,-332.5 281.5,-332.5 287.5,-332.5 293.5,-338.5 293.5,-344.5 293.5,-344.5 293.5,-366.5 293.5,-366.5 293.5,-372.5 287.5,-378.5 281.5,-378.5 281.5,-378.5 176.5,-378.5 176.5,-378.5 170.5,-378.5 164.5,-372.5 164.5,-366.5 164.5,-366.5 164.5,-344.5 164.5,-344.5 164.5,-338.5 170.5,-332.5 176.5,-332.5"/>
<text text-anchor="middle" x="177.5" y="-363.3" font-family="Times,serif" font-size="14.00">6</text>
<polyline fill="none" stroke="black" points="190.5,-355.5 190.5,-378.5 "/>
<text text-anchor="middle" x="209.5" y="-363.3" font-family="Times,serif" font-size="14.00">OP</text>
<polyline fill="none" stroke="black" points="228.5,-355.5 228.5,-378.5 "/>
<text text-anchor="middle" x="261" y="-363.3" font-family="Times,serif" font-size="14.00">size=4</text>
<polyline fill="none" stroke="black" points="164.5,-355.5 293.5,-355.5 "/>
<text text-anchor="middle" x="229" y="-340.3" font-family="Times,serif" font-size="14.00">*</text>
</g>
<!-- node5&#45;&gt;node6 -->
<g id="edge10" class="edge">
<title>node5&#45;&gt;node6</title>
<path fill="none" stroke="red" d="M410.71,-417.06C376.6,-406.35 335.53,-393.14 301.05,-381.79"/>
<polygon fill="red" stroke="red" points="302.11,-378.45 291.52,-378.64 299.92,-385.1 302.11,-378.45"/>
</g>
<!-- node10 -->
<g id="node10" class="node">
<title>node10</title>
<path fill="peachpuff" stroke="black" d="M423,-332.5C423,-332.5 537,-332.5 537,-332.5 543,-332.5 549,-338.5 549,-344.5 549,-344.5 549,-366.5 549,-366.5 549,-372.5 543,-378.5 537,-378.5 537,-378.5 423,-378.5 423,-378.5 417,-378.5 411,-372.5 411,-366.5 411,-366.5 411,-344.5 411,-344.5 411,-338.5 417,-332.5 423,-332.5"/>
<text text-anchor="middle" x="428.5" y="-363.3" font-family="Times,serif" font-size="14.00">10</text>
<polyline fill="none" stroke="black" points="446,-355.5 446,-378.5 "/>
<text text-anchor="middle" x="465" y="-363.3" font-family="Times,serif" font-size="14.00">OP</text>
<polyline fill="none" stroke="black" points="484,-355.5 484,-378.5 "/>
<text text-anchor="middle" x="516.5" y="-363.3" font-family="Times,serif" font-size="14.00">size=6</text>
<polyline fill="none" stroke="black" points="411,-355.5 549,-355.5 "/>
<text text-anchor="middle" x="480" y="-340.3" font-family="Times,serif" font-size="14.00">log</text>
</g>
<!-- node5&#45;&gt;node10 -->
<g id="edge18" class="edge">
<title>node5&#45;&gt;node10</title>
<path fill="none" stroke="green" d="M473.91,-415.37C473.28,-407.15 473.1,-397.66 473.38,-388.73"/>
<polygon fill="green" stroke="green" points="476.88,-388.78 473.91,-378.61 469.89,-388.41 476.88,-388.78"/>
</g>
<!-- node6&#45;&gt;node5 -->
<g id="edge11" class="edge">
<title>node6&#45;&gt;node5</title>
<path fill="none" stroke="blue" d="M293.68,-375.5C328.78,-386.48 372.21,-400.45 408.33,-412.34"/>
<polygon fill="blue" stroke="blue" points="407.23,-415.66 417.83,-415.47 409.43,-409.02 407.23,-415.66"/>
</g>
<!-- node7 -->
<g id="node7" class="node">
<title>node7</title>
<path fill="peachpuff" stroke="black" d="M20.5,-249.5C20.5,-249.5 125.5,-249.5 125.5,-249.5 131.5,-249.5 137.5,-255.5 137.5,-261.5 137.5,-261.5 137.5,-283.5 137.5,-283.5 137.5,-289.5 131.5,-295.5 125.5,-295.5 125.5,-295.5 20.5,-295.5 20.5,-295.5 14.5,-295.5 8.5,-289.5 8.5,-283.5 8.5,-283.5 8.5,-261.5 8.5,-261.5 8.5,-255.5 14.5,-249.5 20.5,-249.5"/>
<text text-anchor="middle" x="21.5" y="-280.3" font-family="Times,serif" font-size="14.00">7</text>
<polyline fill="none" stroke="black" points="34.5,-272.5 34.5,-295.5 "/>
<text text-anchor="middle" x="53.5" y="-280.3" font-family="Times,serif" font-size="14.00">OP</text>
<polyline fill="none" stroke="black" points="72.5,-272.5 72.5,-295.5 "/>
<text text-anchor="middle" x="105" y="-280.3" font-family="Times,serif" font-size="14.00">size=2</text>
<polyline fill="none" stroke="black" points="8.5,-272.5 137.5,-272.5 "/>
<text text-anchor="middle" x="73" y="-257.3" font-family="Times,serif" font-size="14.00">cos</text>
</g>
<!-- node6&#45;&gt;node7 -->
<g id="edge12" class="edge">
<title>node6&#45;&gt;node7</title>
<path fill="none" stroke="red" d="M180.28,-332.37C160.52,-322.5 137.86,-310.79 118.44,-300.42"/>
<polygon fill="red" stroke="red" points="119.95,-297.26 109.49,-295.61 116.64,-303.42 119.95,-297.26"/>
</g>
<!-- node9 -->
<g id="node9" class="node">
<title>node9</title>
<path fill="pink" stroke="black" d="M168,-249.5C168,-249.5 290,-249.5 290,-249.5 296,-249.5 302,-255.5 302,-261.5 302,-261.5 302,-283.5 302,-283.5 302,-289.5 296,-295.5 290,-295.5 290,-295.5 168,-295.5 168,-295.5 162,-295.5 156,-289.5 156,-283.5 156,-283.5 156,-261.5 156,-261.5 156,-255.5 162,-249.5 168,-249.5"/>
<text text-anchor="middle" x="169" y="-280.3" font-family="Times,serif" font-size="14.00">9</text>
<polyline fill="none" stroke="black" points="182,-272.5 182,-295.5 "/>
<text text-anchor="middle" x="209.5" y="-280.3" font-family="Times,serif" font-size="14.00">NUM</text>
<polyline fill="none" stroke="black" points="237,-272.5 237,-295.5 "/>
<text text-anchor="middle" x="269.5" y="-280.3" font-family="Times,serif" font-size="14.00">size=1</text>
<polyline fill="none" stroke="black" points="156,-272.5 302,-272.5 "/>
<text text-anchor="middle" x="229" y="-257.3" font-family="Times,serif" font-size="14.00">10</text>
</g>
<!-- node6&#45;&gt;node9 -->
<g id="edge16" class="edge">
<title>node6&#45;&gt;node9</title>
<path fill="none" stroke="green" d="M222.91,-332.37C222.28,-324.15 222.1,-314.66 222.38,-305.73"/>
<polygon fill="green" stroke="green" points="225.88,-305.78 222.91,-295.61 218.89,-305.41 225.88,-305.78"/>
</g>
<!-- node7&#45;&gt;node6 -->
<g id="edge13" class="edge">
<title>node7&#45;&gt;node6</title>
<path fill="none" stroke="blue" d="M121.66,-295.61C141.42,-305.47 164.08,-317.18 183.5,-327.55"/>
<polygon fill="blue" stroke="blue" points="182,-330.72 192.46,-332.37 185.31,-324.55 182,-330.72"/>
</g>
<!-- node8 -->
<g id="node8" class="node">
<title>node8</title>
<path fill="pink" stroke="black" d="M12,-166.5C12,-166.5 134,-166.5 134,-166.5 140,-166.5 146,-172.5 146,-178.5 146,-178.5 146,-200.5 146,-200.5 146,-206.5 140,-212.5 134,-212.5 134,-212.5 12,-212.5 12,-212.5 6,-212.5 0,-206.5 0,-200.5 0,-200.5 0,-178.5 0,-178.5 0,-172.5 6,-166.5 12,-166.5"/>
<text text-anchor="middle" x="13" y="-197.3" font-family="Times,serif" font-size="14.00">8</text>
<polyline fill="none" stroke="black" points="26,-189.5 26,-212.5 "/>
<text text-anchor="middle" x="53.5" y="-197.3" font-family="Times,serif" font-size="14.00">NUM</text>
<polyline fill="none" stroke="black" points="81,-189.5 81,-212.5 "/>
<text text-anchor="middle" x="113.5" y="-197.3" font-family="Times,serif" font-size="14.00">size=1</text>
<polyline fill="none" stroke="black" points="0,-189.5 146,-189.5 "/>
<text text-anchor="middle" x="73" y="-174.3" font-family="Times,serif" font-size="14.00">25</text>
</g>
<!-- node7&#45;&gt;node8 -->
<g id="edge14" class="edge">
<title>node7&#45;&gt;node8</title>
<path fill="none" stroke="red" d="M66.91,-249.37C66.28,-241.15 66.1,-231.66 66.38,-222.73"/>
<polygon fill="red" stroke="red" points="69.88,-222.78 66.91,-212.61 62.89,-222.41 69.88,-222.78"/>
</g>
<!-- node8&#45;&gt;node7 -->
<g id="edge15" class="edge">
<title>node8&#45;&gt;node7</title>
<path fill="none" stroke="blue" d="M79.09,-212.61C79.72,-220.82 79.9,-230.31 79.62,-239.25"/>
<polygon fill="blue" stroke="blue" points="76.12,-239.2 79.09,-249.37 83.11,-239.56 76.12,-239.2"/>
</g>
<!-- node9&#45;&gt;node6 -->
<g id="edge17" class="edge">
<title>node9&#45;&gt;node6</title>
<path fill="none" stroke="blue" d="M235.09,-295.61C235.72,-303.82 235.9,-313.31 235.62,-322.25"/>
<polygon fill="blue" stroke="blue" points="232.12,-322.2 235.09,-332.37 239.11,-322.56 232.12,-322.2"/>
</g>
<!-- node10&#45;&gt;node5 -->
<g id="edge19" class="edge">
<title>node10&#45;&gt;node5</title>
<path fill="none" stroke="blue" d="M486.09,-378.61C486.72,-386.82 486.9,-396.31 486.62,-405.25"/>
<polygon fill="blue" stroke="blue" points="483.12,-405.2 486.09,-415.37 490.11,-405.56 483.12,-405.2"/>
</g>
<!-- node11 -->
<g id="node11" class="node">
<title>node11</title>
<path fill="pink" stroke="black" d="M332.5,-249.5C332.5,-249.5 463.5,-249.5 463.5,-249.5 469.5,-249.5 475.5,-255.5 475.5,-261.5 475.5,-261.5 475.5,-283.5 475.5,-283.5 475.5,-289.5 469.5,-295.5 463.5,-295.5 463.5,-295.5 332.5,-295.5 332.5,-295.5 326.5,-295.5 320.5,-289.5 320.5,-283.5 320.5,-283.5 320.5,-261.5 320.5,-261.5 320.5,-255.5 326.5,-249.5 332.5,-249.5"/>
<text text-anchor="middle" x="338" y="-280.3" font-family="Times,serif" font-size="14.00">11</text>
<polyline fill="none" stroke="black" points="355.5,-272.5 355.5,-295.5 "/>
<text text-anchor="middle" x="383" y="-280.3" font-family="Times,serif" font-size="14.00">NUM</text>
<polyline fill="none" stroke="black" points="410.5,-272.5 410.5,-295.5 "/>
<text text-anchor="middle" x="443" y="-280.3" font-family="Times,serif" font-size="14.00">size=1</text>
<polyline fill="none" stroke="black" points="320.5,-272.5 475.5,-272.5 "/>
<text text-anchor="middle" x="398" y="-257.3" font-family="Times,serif" font-size="14.00">10</text>
</g>
<!-- node10&#45;&gt;node11 -->
<g id="edge20" class="edge">
<title>node10&#45;&gt;node11</title>
<path fill="none" stroke="red" d="M451.5,-332.37C441.68,-323.35 430.84,-312.79 421.46,-303.12"/>
<polygon fill="red" stroke="red" points="423.73,-300.43 414.29,-295.61 418.66,-305.26 423.73,-300.43"/>
</g>
<!-- node12 -->
<g id="node12" class="node">
<title>node12</title>
<path fill="peachpuff" stroke="black" d="M506,-249.5C506,-249.5 620,-249.5 620,-249.5 626,-249.5 632,-255.5 632,-261.5 632,-261.5 632,-283.5 632,-283.5 632,-289.5 626,-295.5 620,-295.5 620,-295.5 506,-295.5 506,-295.5 500,-295.5 494,-289.5 494,-283.5 494,-283.5 494,-261.5 494,-261.5 494,-255.5 500,-249.5 506,-249.5"/>
<text text-anchor="middle" x="511.5" y="-280.3" font-family="Times,serif" font-size="14.00">12</text>
<polyline fill="none" stroke="black" points="529,-272.5 529,-295.5 "/>
<text text-anchor="middle" x="548" y="-280.3" font-family="Times,serif" font-size="14.00">OP</text>
<polyline fill="none" stroke="black" points="567,-272.5 567,-295.5 "/>
<text text-anchor="middle" x="599.5" y="-280.3" font-family="Times,serif" font-size="14.00">size=4</text>
<polyline fill="none" stroke="black" points="494,-272.5 632,-272.5 "/>
<text text-anchor="middle" x="563" y="-257.3" font-family="Times,serif" font-size="14.00">*</text>
</g>
<!-- node10&#45;&gt;node12 -->
<g id="edge22" class="edge">
<title>node10&#45;&gt;node12</title>
<path fill="none" stroke="green" d="M496.59,-332.37C505.31,-323.17 516.23,-312.37 526.73,-302.55"/>
<polygon fill="green" stroke="green" points="529.28,-304.96 534.26,-295.61 524.53,-299.81 529.28,-304.96"/>
</g>
<!-- node11&#45;&gt;node10 -->
<g id="edge21" class="edge">
<title>node11&#45;&gt;node10</title>
<path fill="none" stroke="blue" d="M426.47,-295.61C436.29,-304.62 447.13,-315.18 456.51,-324.85"/>
<polygon fill="blue" stroke="blue" points="454.25,-327.55 463.68,-332.37 459.31,-322.71 454.25,-327.55"/>
</g>
<!-- node12&#45;&gt;node10 -->
<g id="edge23" class="edge">
<title>node12&#45;&gt;node10</title>
<path fill="none" stroke="blue" d="M546.44,-295.61C537.72,-304.8 526.8,-315.6 516.3,-325.42"/>
<polygon fill="blue" stroke="blue" points="513.75,-323.01 508.77,-332.37 518.5,-328.16 513.75,-323.01"/>
</g>
<!-- node13 -->
<g id="node13" class="node">
<title>node13</title>
<path fill="pink" stroke="black" d="M332.5,-166.5C332.5,-166.5 463.5,-166.5 463.5,-166.5 469.5,-166.5 475.5,-172.5 475.5,-178.5 475.5,-178.5 475.5,-200.5 475.5,-200.5 475.5,-206.5 469.5,-212.5 463.5,-212.5 463.5,-212.5 332.5,-212.5 332.5,-212.5 326.5,-212.5 320.5,-206.5 320.5,-200.5 320.5,-200.5 320.5,-178.5 320.5,-178.5 320.5,-172.5 326.5,-166.5 332.5,-166.5"/>
<text text-anchor="middle" x="338" y="-197.3" font-family="Times,serif" font-size="14.00">13</text>
<polyline fill="none" stroke="black" points="355.5,-189.5 355.5,-212.5 "/>
<text text-anchor="middle" x="383" y="-197.3" font-family="Times,serif" font-size="14.00">NUM</text>
<polyline fill="none" stroke="black" points="410.5,-189.5 410.5,-212.5 "/>
<text text-anchor="middle" x="443" y="-197.3" font-family="Times,serif" font-size="14.00">size=1</text>
<polyline fill="none" stroke="black" points="320.5,-189.5 475.5,-189.5 "/>
<text text-anchor="middle" x="398" y="-174.3" font-family="Times,serif" font-size="14.00">2</text>
</g>
<!-- node12&#45;&gt;node13 -->
<g id="edge24" class="edge">
<title>node12&#45;&gt;node13</title>
<path fill="none" stroke="red" d="M511.82,-249.37C490.78,-239.41 466.57,-227.58 445.88,-217.14"/>
<polygon fill="red" stroke="red" points="447.45,-214.01 436.94,-212.61 444.28,-220.25 447.45,-214.01"/>
</g>
<!-- node14 -->
<g id="node14" class="node">
<title>node14</title>
<path fill="peachpuff" stroke="black" d="M506,-166.5C506,-166.5 620,-166.5 620,-166.5 626,-166.5 632,-172.5 632,-178.5 632,-178.5 632,-200.5 632,-200.5 632,-206.5 626,-212.5 620,-212.5 620,-212.5 506,-212.5 506,-212.5 500,-212.5 494,-206.5 494,-200.5 494,-200.5 494,-178.5 494,-178.5 494,-172.5 500,-166.5 506,-166.5"/>
<text text-anchor="middle" x="511.5" y="-197.3" font-family="Times,serif" font-size="14.00">14</text>
<polyline fill="none" stroke="black" points="529,-189.5 529,-212.5 "/>
<text text-anchor="middle" x="548" y="-197.3" font-family="Times,serif" font-size="14.00">OP</text>
<polyline fill="none" stroke="black" points="567,-189.5 567,-212.5 "/>
<text text-anchor="middle" x="599.5" y="-197.3" font-family="Times,serif" font-size="14.00">size=2</text>
<polyline fill="none" stroke="black" points="494,-189.5 632,-189.5 "/>
<text text-anchor="middle" x="563" y="-174.3" font-family="Times,serif" font-size="14.00">arccos</text>
</g>
<!-- node12&#45;&gt;node14 -->
<g id="edge26" class="edge">
<title>node12&#45;&gt;node14</title>
<path fill="none" stroke="green" d="M556.91,-249.37C556.28,-241.15 556.1,-231.66 556.38,-222.73"/>
<polygon fill="green" stroke="green" points="559.88,-222.78 556.91,-212.61 552.89,-222.41 559.88,-222.78"/>
</g>
<!-- node13&#45;&gt;node12 -->
<g id="edge25" class="edge">
<title>node13&#45;&gt;node12</title>
<path fill="none" stroke="blue" d="M449.12,-212.61C470.16,-222.56 494.37,-234.39 515.07,-244.83"/>
<polygon fill="blue" stroke="blue" points="513.5,-247.96 524,-249.37 516.67,-241.72 513.5,-247.96"/>
</g>
<!-- node14&#45;&gt;node12 -->
<g id="edge27" class="edge">
<title>node14&#45;&gt;node12</title>
<path fill="none" stroke="blue" d="M569.09,-212.61C569.72,-220.82 569.9,-230.31 569.62,-239.25"/>
<polygon fill="blue" stroke="blue" points="566.12,-239.2 569.09,-249.37 573.11,-239.56 566.12,-239.2"/>
</g>
<!-- node15 -->
<g id="node15" class="node">
<title>node15</title>
<path fill="lightyellow" stroke="black" d="M501,-83.5C501,-83.5 623,-83.5 623,-83.5 629,-83.5 635,-89.5 635,-95.5 635,-95.5 635,-117.5 635,-117.5 635,-123.5 629,-129.5 623,-129.5 623,-129.5 501,-129.5 501,-129.5 495,-129.5 489,-123.5 489,-117.5 489,-117.5 489,-95.5 489,-95.5 489,-89.5 495,-83.5 501,-83.5"/>
<text text-anchor="middle" x="506.5" y="-114.3" font-family="Times,serif" font-size="14.00">15</text>
<polyline fill="none" stroke="black" points="524,-106.5 524,-129.5 "/>
<text text-anchor="middle" x="547" y="-114.3" font-family="Times,serif" font-size="14.00">VAR</text>
<polyline fill="none" stroke="black" points="570,-106.5 570,-129.5 "/>
<text text-anchor="middle" x="602.5" y="-114.3" font-family="Times,serif" font-size="14.00">size=1</text>
<polyline fill="none" stroke="black" points="489,-106.5 635,-106.5 "/>
<text text-anchor="middle" x="562" y="-91.3" font-family="Times,serif" font-size="14.00">x</text>
</g>
<!-- node14&#45;&gt;node15 -->
<g id="edge28" class="edge">
<title>node14&#45;&gt;node15</title>
<path fill="none" stroke="red" d="M556.64,-166.37C555.9,-158.15 555.61,-148.66 555.77,-139.73"/>
<polygon fill="red" stroke="red" points="559.28,-139.74 556.18,-129.61 552.28,-139.46 559.28,-139.74"/>
</g>
<!-- node15&#45;&gt;node14 -->
<g id="edge29" class="edge">
<title>node15&#45;&gt;node14</title>
<path fill="none" stroke="blue" d="M568.36,-129.61C569.1,-137.82 569.39,-147.31 569.23,-156.25"/>
<polygon fill="blue" stroke="blue" points="565.72,-156.23 568.82,-166.37 572.72,-156.52 565.72,-156.23"/>
</g>
<!-- node16&#45;&gt;node4 -->
<g id="edge31" class="edge">
<title>node16&#45;&gt;node4</title>
<path fill="none" stroke="blue" d="M944.62,-461.61C936.89,-470.71 927.15,-481.39 917.71,-491.14"/>
<polygon fill="blue" stroke="blue" points="915.11,-488.79 910.58,-498.37 920.1,-493.7 915.11,-488.79"/>
</g>
<!-- node17 -->
<g id="node17" class="node">
<title>node17</title>
<path fill="peachpuff" stroke="black" d="M902,-332.5C902,-332.5 1016,-332.5 1016,-332.5 1022,-332.5 1028,-338.5 1028,-344.5 1028,-344.5 1028,-366.5 1028,-366.5 1028,-372.5 1022,-378.5 1016,-378.5 1016,-378.5 902,-378.5 902,-378.5 896,-378.5 890,-372.5 890,-366.5 890,-366.5 890,-344.5 890,-344.5 890,-338.5 896,-332.5 902,-332.5"/>
<text text-anchor="middle" x="907.5" y="-363.3" font-family="Times,serif" font-size="14.00">17</text>
<polyline fill="none" stroke="black" points="925,-355.5 925,-378.5 "/>
<text text-anchor="middle" x="944" y="-363.3" font-family="Times,serif" font-size="14.00">OP</text>
<polyline fill="none" stroke="black" points="963,-355.5 963,-378.5 "/>
<text text-anchor="middle" x="995.5" y="-363.3" font-family="Times,serif" font-size="14.00">size=9</text>
<polyline fill="none" stroke="black" points="890,-355.5 1028,-355.5 "/>
<text text-anchor="middle" x="959" y="-340.3" font-family="Times,serif" font-size="14.00">+</text>
</g>
<!-- node16&#45;&gt;node17 -->
<g id="edge32" class="edge">
<title>node16&#45;&gt;node17</title>
<path fill="none" stroke="red" d="M952.91,-415.37C952.28,-407.15 952.1,-397.66 952.38,-388.73"/>
<polygon fill="red" stroke="red" points="955.88,-388.78 952.91,-378.61 948.89,-388.41 955.88,-388.78"/>
</g>
<!-- node26 -->
<g id="node26" class="node">
<title>node26</title>
<path fill="peachpuff" stroke="black" d="M1081.5,-332.5C1081.5,-332.5 1204.5,-332.5 1204.5,-332.5 1210.5,-332.5 1216.5,-338.5 1216.5,-344.5 1216.5,-344.5 1216.5,-366.5 1216.5,-366.5 1216.5,-372.5 1210.5,-378.5 1204.5,-378.5 1204.5,-378.5 1081.5,-378.5 1081.5,-378.5 1075.5,-378.5 1069.5,-372.5 1069.5,-366.5 1069.5,-366.5 1069.5,-344.5 1069.5,-344.5 1069.5,-338.5 1075.5,-332.5 1081.5,-332.5"/>
<text text-anchor="middle" x="1087" y="-363.3" font-family="Times,serif" font-size="14.00">26</text>
<polyline fill="none" stroke="black" points="1104.5,-355.5 1104.5,-378.5 "/>
<text text-anchor="middle" x="1123.5" y="-363.3" font-family="Times,serif" font-size="14.00">OP</text>
<polyline fill="none" stroke="black" points="1142.5,-355.5 1142.5,-378.5 "/>
<text text-anchor="middle" x="1179.5" y="-363.3" font-family="Times,serif" font-size="14.00">size=11</text>
<polyline fill="none" stroke="black" points="1069.5,-355.5 1216.5,-355.5 "/>
<text text-anchor="middle" x="1143" y="-340.3" font-family="Times,serif" font-size="14.00">^</text>
</g>
<!-- node16&#45;&gt;node26 -->
<g id="edge50" class="edge">
<title>node16&#45;&gt;node26</title>
<path fill="none" stroke="green" d="M1003.19,-415.37C1025.43,-405.23 1052.79,-393.15 1077.41,-382.58"/>
<polygon fill="green" stroke="green" points="1078.87,-385.76 1086.69,-378.61 1076.12,-379.32 1078.87,-385.76"/>
</g>
<!-- node17&#45;&gt;node16 -->
<g id="edge33" class="edge">
<title>node17&#45;&gt;node16</title>
<path fill="none" stroke="blue" d="M965.09,-378.61C965.72,-386.82 965.9,-396.31 965.62,-405.25"/>
<polygon fill="blue" stroke="blue" points="962.12,-405.2 965.09,-415.37 969.11,-405.56 962.12,-405.2"/>
</g>
<!-- node18 -->
<g id="node18" class="node">
<title>node18</title>
<path fill="peachpuff" stroke="black" d="M756,-249.5C756,-249.5 870,-249.5 870,-249.5 876,-249.5 882,-255.5 882,-261.5 882,-261.5 882,-283.5 882,-283.5 882,-289.5 876,-295.5 870,-295.5 870,-295.5 756,-295.5 756,-295.5 750,-295.5 744,-289.5 744,-283.5 744,-283.5 744,-261.5 744,-261.5 744,-255.5 750,-249.5 756,-249.5"/>
<text text-anchor="middle" x="761.5" y="-280.3" font-family="Times,serif" font-size="14.00">18</text>
<polyline fill="none" stroke="black" points="779,-272.5 779,-295.5 "/>
<text text-anchor="middle" x="798" y="-280.3" font-family="Times,serif" font-size="14.00">OP</text>
<polyline fill="none" stroke="black" points="817,-272.5 817,-295.5 "/>
<text text-anchor="middle" x="849.5" y="-280.3" font-family="Times,serif" font-size="14.00">size=7</text>
<polyline fill="none" stroke="black" points="744,-272.5 882,-272.5 "/>
<text text-anchor="middle" x="813" y="-257.3" font-family="Times,serif" font-size="14.00">*</text>
</g>
<!-- node17&#45;&gt;node18 -->
<g id="edge34" class="edge">
<title>node17&#45;&gt;node18</title>
<path fill="none" stroke="red" d="M913.01,-332.37C894.72,-322.63 873.83,-311.11 855.86,-300.84"/>
<polygon fill="red" stroke="red" points="857.17,-297.56 846.76,-295.61 853.68,-303.63 857.17,-297.56"/>
</g>
<!-- node25 -->
<g id="node25" class="node">
<title>node25</title>
<path fill="pink" stroke="black" d="M912.5,-249.5C912.5,-249.5 1043.5,-249.5 1043.5,-249.5 1049.5,-249.5 1055.5,-255.5 1055.5,-261.5 1055.5,-261.5 1055.5,-283.5 1055.5,-283.5 1055.5,-289.5 1049.5,-295.5 1043.5,-295.5 1043.5,-295.5 912.5,-295.5 912.5,-295.5 906.5,-295.5 900.5,-289.5 900.5,-283.5 900.5,-283.5 900.5,-261.5 900.5,-261.5 900.5,-255.5 906.5,-249.5 912.5,-249.5"/>
<text text-anchor="middle" x="918" y="-280.3" font-family="Times,serif" font-size="14.00">25</text>
<polyline fill="none" stroke="black" points="935.5,-272.5 935.5,-295.5 "/>
<text text-anchor="middle" x="963" y="-280.3" font-family="Times,serif" font-size="14.00">NUM</text>
<polyline fill="none" stroke="black" points="990.5,-272.5 990.5,-295.5 "/>
<text text-anchor="middle" x="1023" y="-280.3" font-family="Times,serif" font-size="14.00">size=1</text>
<polyline fill="none" stroke="black" points="900.5,-272.5 1055.5,-272.5 "/>
<text text-anchor="middle" x="978" y="-257.3" font-family="Times,serif" font-size="14.00">1</text>
</g>
<!-- node17&#45;&gt;node25 -->
<g id="edge48" class="edge">
<title>node17&#45;&gt;node25</title>
<path fill="none" stroke="green" d="M958.1,-332.37C959.41,-324.06 961.49,-314.45 963.9,-305.43"/>
<polygon fill="green" stroke="green" points="967.32,-306.18 966.73,-295.61 960.59,-304.25 967.32,-306.18"/>
</g>
<!-- node18&#45;&gt;node17 -->
<g id="edge35" class="edge">
<title>node18&#45;&gt;node17</title>
<path fill="none" stroke="blue" d="M858.94,-295.61C877.22,-305.34 898.11,-316.86 916.09,-327.13"/>
<polygon fill="blue" stroke="blue" points="914.78,-330.41 925.2,-332.37 918.27,-324.35 914.78,-330.41"/>
</g>
<!-- node19 -->
<g id="node19" class="node">
<title>node19</title>
<path fill="pink" stroke="black" d="M664.5,-166.5C664.5,-166.5 795.5,-166.5 795.5,-166.5 801.5,-166.5 807.5,-172.5 807.5,-178.5 807.5,-178.5 807.5,-200.5 807.5,-200.5 807.5,-206.5 801.5,-212.5 795.5,-212.5 795.5,-212.5 664.5,-212.5 664.5,-212.5 658.5,-212.5 652.5,-206.5 652.5,-200.5 652.5,-200.5 652.5,-178.5 652.5,-178.5 652.5,-172.5 658.5,-166.5 664.5,-166.5"/>
<text text-anchor="middle" x="670" y="-197.3" font-family="Times,serif" font-size="14.00">19</text>
<polyline fill="none" stroke="black" points="687.5,-189.5 687.5,-212.5 "/>
<text text-anchor="middle" x="715" y="-197.3" font-family="Times,serif" font-size="14.00">NUM</text>
<polyline fill="none" stroke="black" points="742.5,-189.5 742.5,-212.5 "/>
<text text-anchor="middle" x="775" y="-197.3" font-family="Times,serif" font-size="14.00">size=1</text>
<polyline fill="none" stroke="black" points="652.5,-189.5 807.5,-189.5 "/>
<text text-anchor="middle" x="730" y="-174.3" font-family="Times,serif" font-size="14.00">3</text>
</g>
<!-- node18&#45;&gt;node19 -->
<g id="edge36" class="edge">
<title>node18&#45;&gt;node19</title>
<path fill="none" stroke="red" d="M784.23,-249.37C774.2,-240.26 763.11,-229.58 753.54,-219.83"/>
<polygon fill="red" stroke="red" points="756.03,-217.37 746.56,-212.61 750.99,-222.23 756.03,-217.37"/>
</g>
<!-- node20 -->
<g id="node20" class="node">
<title>node20</title>
<path fill="peachpuff" stroke="black" d="M838,-166.5C838,-166.5 952,-166.5 952,-166.5 958,-166.5 964,-172.5 964,-178.5 964,-178.5 964,-200.5 964,-200.5 964,-206.5 958,-212.5 952,-212.5 952,-212.5 838,-212.5 838,-212.5 832,-212.5 826,-206.5 826,-200.5 826,-200.5 826,-178.5 826,-178.5 826,-172.5 832,-166.5 838,-166.5"/>
<text text-anchor="middle" x="843.5" y="-197.3" font-family="Times,serif" font-size="14.00">20</text>
<polyline fill="none" stroke="black" points="861,-189.5 861,-212.5 "/>
<text text-anchor="middle" x="880" y="-197.3" font-family="Times,serif" font-size="14.00">OP</text>
<polyline fill="none" stroke="black" points="899,-189.5 899,-212.5 "/>
<text text-anchor="middle" x="931.5" y="-197.3" font-family="Times,serif" font-size="14.00">size=5</text>
<polyline fill="none" stroke="black" points="826,-189.5 964,-189.5 "/>
<text text-anchor="middle" x="895" y="-174.3" font-family="Times,serif" font-size="14.00">&#45;</text>
</g>
<!-- node18&#45;&gt;node20 -->
<g id="edge38" class="edge">
<title>node18&#45;&gt;node20</title>
<path fill="none" stroke="green" d="M829.32,-249.37C837.92,-240.17 848.71,-229.37 859.09,-219.55"/>
<polygon fill="green" stroke="green" points="861.61,-221.99 866.53,-212.61 856.83,-216.87 861.61,-221.99"/>
</g>
<!-- node19&#45;&gt;node18 -->
<g id="edge37" class="edge">
<title>node19&#45;&gt;node18</title>
<path fill="none" stroke="blue" d="M758.74,-212.61C768.77,-221.71 779.86,-232.39 789.43,-242.14"/>
<polygon fill="blue" stroke="blue" points="786.95,-244.6 796.41,-249.37 791.98,-239.74 786.95,-244.6"/>
</g>
<!-- node20&#45;&gt;node18 -->
<g id="edge39" class="edge">
<title>node20&#45;&gt;node18</title>
<path fill="none" stroke="blue" d="M878.71,-212.61C870.11,-221.8 859.32,-232.6 848.94,-242.42"/>
<polygon fill="blue" stroke="blue" points="846.42,-239.99 841.5,-249.37 851.2,-245.1 846.42,-239.99"/>
</g>
<!-- node21 -->
<g id="node21" class="node">
<title>node21</title>
<path fill="pink" stroke="black" d="M665.5,-83.5C665.5,-83.5 796.5,-83.5 796.5,-83.5 802.5,-83.5 808.5,-89.5 808.5,-95.5 808.5,-95.5 808.5,-117.5 808.5,-117.5 808.5,-123.5 802.5,-129.5 796.5,-129.5 796.5,-129.5 665.5,-129.5 665.5,-129.5 659.5,-129.5 653.5,-123.5 653.5,-117.5 653.5,-117.5 653.5,-95.5 653.5,-95.5 653.5,-89.5 659.5,-83.5 665.5,-83.5"/>
<text text-anchor="middle" x="671" y="-114.3" font-family="Times,serif" font-size="14.00">21</text>
<polyline fill="none" stroke="black" points="688.5,-106.5 688.5,-129.5 "/>
<text text-anchor="middle" x="716" y="-114.3" font-family="Times,serif" font-size="14.00">NUM</text>
<polyline fill="none" stroke="black" points="743.5,-106.5 743.5,-129.5 "/>
<text text-anchor="middle" x="776" y="-114.3" font-family="Times,serif" font-size="14.00">size=1</text>
<polyline fill="none" stroke="black" points="653.5,-106.5 808.5,-106.5 "/>
<text text-anchor="middle" x="731" y="-91.3" font-family="Times,serif" font-size="14.00">2,5</text>
</g>
<!-- node20&#45;&gt;node21 -->
<g id="edge40" class="edge">
<title>node20&#45;&gt;node21</title>
<path fill="none" stroke="red" d="M844.1,-166.37C823.27,-156.46 799.33,-144.68 778.83,-134.28"/>
<polygon fill="red" stroke="red" points="780.17,-131.03 769.67,-129.61 776.99,-137.27 780.17,-131.03"/>
</g>
<!-- node22 -->
<g id="node22" class="node">
<title>node22</title>
<path fill="peachpuff" stroke="black" d="M839,-83.5C839,-83.5 953,-83.5 953,-83.5 959,-83.5 965,-89.5 965,-95.5 965,-95.5 965,-117.5 965,-117.5 965,-123.5 959,-129.5 953,-129.5 953,-129.5 839,-129.5 839,-129.5 833,-129.5 827,-123.5 827,-117.5 827,-117.5 827,-95.5 827,-95.5 827,-89.5 833,-83.5 839,-83.5"/>
<text text-anchor="middle" x="844.5" y="-114.3" font-family="Times,serif" font-size="14.00">22</text>
<polyline fill="none" stroke="black" points="862,-106.5 862,-129.5 "/>
<text text-anchor="middle" x="881" y="-114.3" font-family="Times,serif" font-size="14.00">OP</text>
<polyline fill="none" stroke="black" points="900,-106.5 900,-129.5 "/>
<text text-anchor="middle" x="932.5" y="-114.3" font-family="Times,serif" font-size="14.00">size=3</text>
<polyline fill="none" stroke="black" points="827,-106.5 965,-106.5 "/>
<text text-anchor="middle" x="896" y="-91.3" font-family="Times,serif" font-size="14.00">/</text>
</g>
<!-- node20&#45;&gt;node22 -->
<g id="edge42" class="edge">
<title>node20&#45;&gt;node22</title>
<path fill="none" stroke="green" d="M889.18,-166.37C888.65,-158.15 888.59,-148.66 888.98,-139.73"/>
<polygon fill="green" stroke="green" points="892.48,-139.81 889.64,-129.61 885.5,-139.36 892.48,-139.81"/>
</g>
<!-- node21&#45;&gt;node20 -->
<g id="edge41" class="edge">
<title>node21&#45;&gt;node20</title>
<path fill="none" stroke="blue" d="M781.85,-129.61C802.67,-139.51 826.61,-151.29 847.12,-161.69"/>
<polygon fill="blue" stroke="blue" points="845.78,-164.94 856.28,-166.37 848.96,-158.7 845.78,-164.94"/>
</g>
<!-- node22&#45;&gt;node20 -->
<g id="edge43" class="edge">
<title>node22&#45;&gt;node20</title>
<path fill="none" stroke="blue" d="M901.82,-129.61C902.35,-137.82 902.41,-147.31 902.02,-156.25"/>
<polygon fill="blue" stroke="blue" points="898.52,-156.16 901.36,-166.37 905.51,-156.61 898.52,-156.16"/>
</g>
<!-- node23 -->
<g id="node23" class="node">
<title>node23</title>
<path fill="pink" stroke="black" d="M744.5,-0.5C744.5,-0.5 875.5,-0.5 875.5,-0.5 881.5,-0.5 887.5,-6.5 887.5,-12.5 887.5,-12.5 887.5,-34.5 887.5,-34.5 887.5,-40.5 881.5,-46.5 875.5,-46.5 875.5,-46.5 744.5,-46.5 744.5,-46.5 738.5,-46.5 732.5,-40.5 732.5,-34.5 732.5,-34.5 732.5,-12.5 732.5,-12.5 732.5,-6.5 738.5,-0.5 744.5,-0.5"/>
<text text-anchor="middle" x="750" y="-31.3" font-family="Times,serif" font-size="14.00">23</text>
<polyline fill="none" stroke="black" points="767.5,-23.5 767.5,-46.5 "/>
<text text-anchor="middle" x="795" y="-31.3" font-family="Times,serif" font-size="14.00">NUM</text>
<polyline fill="none" stroke="black" points="822.5,-23.5 822.5,-46.5 "/>
<text text-anchor="middle" x="855" y="-31.3" font-family="Times,serif" font-size="14.00">size=1</text>
<polyline fill="none" stroke="black" points="732.5,-23.5 887.5,-23.5 "/>
<text text-anchor="middle" x="810" y="-8.3" font-family="Times,serif" font-size="14.00">0,1</text>
</g>
<!-- node22&#45;&gt;node23 -->
<g id="edge44" class="edge">
<title>node22&#45;&gt;node23</title>
<path fill="none" stroke="red" d="M866.41,-83.37C856.04,-74.26 844.56,-63.58 834.63,-53.83"/>
<polygon fill="red" stroke="red" points="836.93,-51.19 827.38,-46.61 831.99,-56.15 836.93,-51.19"/>
</g>
<!-- node24 -->
<g id="node24" class="node">
<title>node24</title>
<path fill="pink" stroke="black" d="M917.5,-0.5C917.5,-0.5 1048.5,-0.5 1048.5,-0.5 1054.5,-0.5 1060.5,-6.5 1060.5,-12.5 1060.5,-12.5 1060.5,-34.5 1060.5,-34.5 1060.5,-40.5 1054.5,-46.5 1048.5,-46.5 1048.5,-46.5 917.5,-46.5 917.5,-46.5 911.5,-46.5 905.5,-40.5 905.5,-34.5 905.5,-34.5 905.5,-12.5 905.5,-12.5 905.5,-6.5 911.5,-0.5 917.5,-0.5"/>
<text text-anchor="middle" x="923" y="-31.3" font-family="Times,serif" font-size="14.00">24</text>
<polyline fill="none" stroke="black" points="940.5,-23.5 940.5,-46.5 "/>
<text text-anchor="middle" x="968" y="-31.3" font-family="Times,serif" font-size="14.00">NUM</text>
<polyline fill="none" stroke="black" points="995.5,-23.5 995.5,-46.5 "/>
<text text-anchor="middle" x="1028" y="-31.3" font-family="Times,serif" font-size="14.00">size=1</text>
<polyline fill="none" stroke="black" points="905.5,-23.5 1060.5,-23.5 "/>
<text text-anchor="middle" x="983" y="-8.3" font-family="Times,serif" font-size="14.00">2</text>
</g>
<!-- node22&#45;&gt;node24 -->
<g id="edge46" class="edge">
<title>node22&#45;&gt;node24</title>
<path fill="none" stroke="green" d="M913.68,-83.37C922.94,-74.08 934.54,-63.16 945.62,-53.26"/>
<polygon fill="green" stroke="green" points="947.98,-55.84 953.17,-46.61 943.35,-50.59 947.98,-55.84"/>
</g>
<!-- node23&#45;&gt;node22 -->
<g id="edge45" class="edge">
<title>node23&#45;&gt;node22</title>
<path fill="none" stroke="blue" d="M839.56,-46.61C849.93,-55.71 861.41,-66.39 871.34,-76.14"/>
<polygon fill="blue" stroke="blue" points="869.04,-78.78 878.59,-83.37 873.98,-73.83 869.04,-78.78"/>
</g>
<!-- node24&#45;&gt;node22 -->
<g id="edge47" class="edge">
<title>node24&#45;&gt;node22</title>
<path fill="none" stroke="blue" d="M965.34,-46.61C956.09,-55.89 944.5,-66.81 933.42,-76.71"/>
<polygon fill="blue" stroke="blue" points="931.05,-74.13 925.86,-83.37 935.68,-79.38 931.05,-74.13"/>
</g>
<!-- node25&#45;&gt;node17 -->
<g id="edge49" class="edge">
<title>node25&#45;&gt;node17</title>
<path fill="none" stroke="blue" d="M978.9,-295.61C977.6,-303.91 975.52,-313.52 973.11,-322.54"/>
<polygon fill="blue" stroke="blue" points="969.69,-321.79 970.28,-332.37 976.41,-323.72 969.69,-321.79"/>
</g>
<!-- node26&#45;&gt;node16 -->
<g id="edge51" class="edge">
<title>node26&#45;&gt;node16</title>
<path fill="none" stroke="blue" d="M1099.06,-378.52C1076.73,-388.7 1049.2,-400.86 1024.45,-411.48"/>
<polygon fill="blue" stroke="blue" points="1022.94,-408.32 1015.12,-415.47 1025.69,-414.76 1022.94,-408.32"/>
</g>
<!-- node27 -->
<g id="node27" class="node">
<title>node27</title>
<path fill="peachpuff" stroke="black" d="M1086,-249.5C1086,-249.5 1200,-249.5 1200,-249.5 1206,-249.5 1212,-255.5 1212,-261.5 1212,-261.5 1212,-283.5 1212,-283.5 1212,-289.5 1206,-295.5 1200,-295.5 1200,-295.5 1086,-295.5 1086,-295.5 1080,-295.5 1074,-289.5 1074,-283.5 1074,-283.5 1074,-261.5 1074,-261.5 1074,-255.5 1080,-249.5 1086,-249.5"/>
<text text-anchor="middle" x="1091.5" y="-280.3" font-family="Times,serif" font-size="14.00">27</text>
<polyline fill="none" stroke="black" points="1109,-272.5 1109,-295.5 "/>
<text text-anchor="middle" x="1128" y="-280.3" font-family="Times,serif" font-size="14.00">OP</text>
<polyline fill="none" stroke="black" points="1147,-272.5 1147,-295.5 "/>
<text text-anchor="middle" x="1179.5" y="-280.3" font-family="Times,serif" font-size="14.00">size=5</text>
<polyline fill="none" stroke="black" points="1074,-272.5 1212,-272.5 "/>
<text text-anchor="middle" x="1143" y="-257.3" font-family="Times,serif" font-size="14.00">/</text>
</g>
<!-- node26&#45;&gt;node27 -->
<g id="edge52" class="edge">
<title>node26&#45;&gt;node27</title>
<path fill="none" stroke="red" d="M1136.91,-332.37C1136.28,-324.15 1136.1,-314.66 1136.38,-305.73"/>
<polygon fill="red" stroke="red" points="1139.88,-305.78 1136.91,-295.61 1132.89,-305.41 1139.88,-305.78"/>
</g>
<!-- node32 -->
<g id="node32" class="node">
<title>node32</title>
<path fill="peachpuff" stroke="black" d="M1342,-249.5C1342,-249.5 1456,-249.5 1456,-249.5 1462,-249.5 1468,-255.5 1468,-261.5 1468,-261.5 1468,-283.5 1468,-283.5 1468,-289.5 1462,-295.5 1456,-295.5 1456,-295.5 1342,-295.5 1342,-295.5 1336,-295.5 1330,-289.5 1330,-283.5 1330,-283.5 1330,-261.5 1330,-261.5 1330,-255.5 1336,-249.5 1342,-249.5"/>
<text text-anchor="middle" x="1347.5" y="-280.3" font-family="Times,serif" font-size="14.00">32</text>
<polyline fill="none" stroke="black" points="1365,-272.5 1365,-295.5 "/>
<text text-anchor="middle" x="1384" y="-280.3" font-family="Times,serif" font-size="14.00">OP</text>
<polyline fill="none" stroke="black" points="1403,-272.5 1403,-295.5 "/>
<text text-anchor="middle" x="1435.5" y="-280.3" font-family="Times,serif" font-size="14.00">size=5</text>
<polyline fill="none" stroke="black" points="1330,-272.5 1468,-272.5 "/>
<text text-anchor="middle" x="1399" y="-257.3" font-family="Times,serif" font-size="14.00">^</text>
</g>
<!-- node26&#45;&gt;node32 -->
<g id="edge62" class="edge">
<title>node26&#45;&gt;node32</title>
<path fill="none" stroke="green" d="M1206.53,-332.47C1240.87,-321.34 1283.54,-307.82 1320,-296.55"/>
<polygon fill="green" stroke="green" points="1321.09,-299.87 1329.62,-293.58 1319.03,-293.18 1321.09,-299.87"/>
</g>
<!-- node27&#45;&gt;node26 -->
<g id="edge53" class="edge">
<title>node27&#45;&gt;node26</title>
<path fill="none" stroke="blue" d="M1149.09,-295.61C1149.72,-303.82 1149.9,-313.31 1149.62,-322.25"/>
<polygon fill="blue" stroke="blue" points="1146.12,-322.2 1149.09,-332.37 1153.11,-322.56 1146.12,-322.2"/>
</g>
<!-- node28 -->
<g id="node28" class="node">
<title>node28</title>
<path fill="peachpuff" stroke="black" d="M1004,-166.5C1004,-166.5 1118,-166.5 1118,-166.5 1124,-166.5 1130,-172.5 1130,-178.5 1130,-178.5 1130,-200.5 1130,-200.5 1130,-206.5 1124,-212.5 1118,-212.5 1118,-212.5 1004,-212.5 1004,-212.5 998,-212.5 992,-206.5 992,-200.5 992,-200.5 992,-178.5 992,-178.5 992,-172.5 998,-166.5 1004,-166.5"/>
<text text-anchor="middle" x="1009.5" y="-197.3" font-family="Times,serif" font-size="14.00">28</text>
<polyline fill="none" stroke="black" points="1027,-189.5 1027,-212.5 "/>
<text text-anchor="middle" x="1046" y="-197.3" font-family="Times,serif" font-size="14.00">OP</text>
<polyline fill="none" stroke="black" points="1065,-189.5 1065,-212.5 "/>
<text text-anchor="middle" x="1097.5" y="-197.3" font-family="Times,serif" font-size="14.00">size=3</text>
<polyline fill="none" stroke="black" points="992,-189.5 1130,-189.5 "/>
<text text-anchor="middle" x="1061" y="-174.3" font-family="Times,serif" font-size="14.00">*</text>
</g>
<!-- node27&#45;&gt;node28 -->
<g id="edge54" class="edge">
<title>node27&#45;&gt;node28</title>
<path fill="none" stroke="red" d="M1114.5,-249.37C1104.68,-240.35 1093.84,-229.79 1084.46,-220.12"/>
<polygon fill="red" stroke="red" points="1086.73,-217.43 1077.29,-212.61 1081.66,-222.26 1086.73,-217.43"/>
</g>
<!-- node31 -->
<g id="node31" class="node">
<title>node31</title>
<path fill="pink" stroke="black" d="M1160.5,-166.5C1160.5,-166.5 1291.5,-166.5 1291.5,-166.5 1297.5,-166.5 1303.5,-172.5 1303.5,-178.5 1303.5,-178.5 1303.5,-200.5 1303.5,-200.5 1303.5,-206.5 1297.5,-212.5 1291.5,-212.5 1291.5,-212.5 1160.5,-212.5 1160.5,-212.5 1154.5,-212.5 1148.5,-206.5 1148.5,-200.5 1148.5,-200.5 1148.5,-178.5 1148.5,-178.5 1148.5,-172.5 1154.5,-166.5 1160.5,-166.5"/>
<text text-anchor="middle" x="1166" y="-197.3" font-family="Times,serif" font-size="14.00">31</text>
<polyline fill="none" stroke="black" points="1183.5,-189.5 1183.5,-212.5 "/>
<text text-anchor="middle" x="1211" y="-197.3" font-family="Times,serif" font-size="14.00">NUM</text>
<polyline fill="none" stroke="black" points="1238.5,-189.5 1238.5,-212.5 "/>
<text text-anchor="middle" x="1271" y="-197.3" font-family="Times,serif" font-size="14.00">size=1</text>
<polyline fill="none" stroke="black" points="1148.5,-189.5 1303.5,-189.5 "/>
<text text-anchor="middle" x="1226" y="-174.3" font-family="Times,serif" font-size="14.00">7</text>
</g>
<!-- node27&#45;&gt;node31 -->
<g id="edge60" class="edge">
<title>node27&#45;&gt;node31</title>
<path fill="none" stroke="green" d="M1159.59,-249.37C1168.31,-240.17 1179.23,-229.37 1189.73,-219.55"/>
<polygon fill="green" stroke="green" points="1192.28,-221.96 1197.26,-212.61 1187.53,-216.81 1192.28,-221.96"/>
</g>
<!-- node28&#45;&gt;node27 -->
<g id="edge55" class="edge">
<title>node28&#45;&gt;node27</title>
<path fill="none" stroke="blue" d="M1089.47,-212.61C1099.29,-221.62 1110.13,-232.18 1119.51,-241.85"/>
<polygon fill="blue" stroke="blue" points="1117.25,-244.55 1126.68,-249.37 1122.31,-239.71 1117.25,-244.55"/>
</g>
<!-- node29 -->
<g id="node29" class="node">
<title>node29</title>
<path fill="pink" stroke="black" d="M995.5,-83.5C995.5,-83.5 1126.5,-83.5 1126.5,-83.5 1132.5,-83.5 1138.5,-89.5 1138.5,-95.5 1138.5,-95.5 1138.5,-117.5 1138.5,-117.5 1138.5,-123.5 1132.5,-129.5 1126.5,-129.5 1126.5,-129.5 995.5,-129.5 995.5,-129.5 989.5,-129.5 983.5,-123.5 983.5,-117.5 983.5,-117.5 983.5,-95.5 983.5,-95.5 983.5,-89.5 989.5,-83.5 995.5,-83.5"/>
<text text-anchor="middle" x="1001" y="-114.3" font-family="Times,serif" font-size="14.00">29</text>
<polyline fill="none" stroke="black" points="1018.5,-106.5 1018.5,-129.5 "/>
<text text-anchor="middle" x="1046" y="-114.3" font-family="Times,serif" font-size="14.00">NUM</text>
<polyline fill="none" stroke="black" points="1073.5,-106.5 1073.5,-129.5 "/>
<text text-anchor="middle" x="1106" y="-114.3" font-family="Times,serif" font-size="14.00">size=1</text>
<polyline fill="none" stroke="black" points="983.5,-106.5 1138.5,-106.5 "/>
<text text-anchor="middle" x="1061" y="-91.3" font-family="Times,serif" font-size="14.00">2</text>
</g>
<!-- node28&#45;&gt;node29 -->
<g id="edge56" class="edge">
<title>node28&#45;&gt;node29</title>
<path fill="none" stroke="red" d="M1054.91,-166.37C1054.28,-158.15 1054.1,-148.66 1054.38,-139.73"/>
<polygon fill="red" stroke="red" points="1057.88,-139.78 1054.91,-129.61 1050.89,-139.41 1057.88,-139.78"/>
</g>
<!-- node30 -->
<g id="node30" class="node">
<title>node30</title>
<path fill="pink" stroke="black" d="M1168.5,-83.5C1168.5,-83.5 1299.5,-83.5 1299.5,-83.5 1305.5,-83.5 1311.5,-89.5 1311.5,-95.5 1311.5,-95.5 1311.5,-117.5 1311.5,-117.5 1311.5,-123.5 1305.5,-129.5 1299.5,-129.5 1299.5,-129.5 1168.5,-129.5 1168.5,-129.5 1162.5,-129.5 1156.5,-123.5 1156.5,-117.5 1156.5,-117.5 1156.5,-95.5 1156.5,-95.5 1156.5,-89.5 1162.5,-83.5 1168.5,-83.5"/>
<text text-anchor="middle" x="1174" y="-114.3" font-family="Times,serif" font-size="14.00">30</text>
<polyline fill="none" stroke="black" points="1191.5,-106.5 1191.5,-129.5 "/>
<text text-anchor="middle" x="1219" y="-114.3" font-family="Times,serif" font-size="14.00">NUM</text>
<polyline fill="none" stroke="black" points="1246.5,-106.5 1246.5,-129.5 "/>
<text text-anchor="middle" x="1279" y="-114.3" font-family="Times,serif" font-size="14.00">size=1</text>
<polyline fill="none" stroke="black" points="1156.5,-106.5 1311.5,-106.5 "/>
<text text-anchor="middle" x="1234" y="-91.3" font-family="Times,serif" font-size="14.00">16</text>
</g>
<!-- node28&#45;&gt;node30 -->
<g id="edge58" class="edge">
<title>node28&#45;&gt;node30</title>
<path fill="none" stroke="green" d="M1102.18,-166.37C1122.86,-156.32 1148.31,-144.36 1171.34,-133.86"/>
<polygon fill="green" stroke="green" points="1173.04,-136.93 1180.7,-129.61 1170.14,-130.56 1173.04,-136.93"/>
</g>
<!-- node29&#45;&gt;node28 -->
<g id="edge57" class="edge">
<title>node29&#45;&gt;node28</title>
<path fill="none" stroke="blue" d="M1067.09,-129.61C1067.72,-137.82 1067.9,-147.31 1067.62,-156.25"/>
<polygon fill="blue" stroke="blue" points="1064.12,-156.2 1067.09,-166.37 1071.11,-156.56 1064.12,-156.2"/>
</g>
<!-- node30&#45;&gt;node28 -->
<g id="edge59" class="edge">
<title>node30&#45;&gt;node28</title>
<path fill="none" stroke="blue" d="M1192.87,-129.61C1172.2,-139.65 1146.76,-151.61 1123.73,-162.11"/>
<polygon fill="blue" stroke="blue" points="1122.02,-159.04 1114.36,-166.37 1124.92,-165.42 1122.02,-159.04"/>
</g>
<!-- node31&#45;&gt;node27 -->
<g id="edge61" class="edge">
<title>node31&#45;&gt;node27</title>
<path fill="none" stroke="blue" d="M1209.44,-212.61C1200.72,-221.8 1189.8,-232.6 1179.3,-242.42"/>
<polygon fill="blue" stroke="blue" points="1176.75,-240.01 1171.77,-249.37 1181.5,-245.16 1176.75,-240.01"/>
</g>
<!-- node32&#45;&gt;node26 -->
<g id="edge63" class="edge">
<title>node32&#45;&gt;node26</title>
<path fill="none" stroke="blue" d="M1335.32,-295.57C1302.4,-306.25 1261.85,-319.1 1226.46,-330.07"/>
<polygon fill="blue" stroke="blue" points="1225.15,-326.81 1216.63,-333.11 1227.22,-333.5 1225.15,-326.81"/>
</g>
<!-- node33 -->
<g id="node33" class="node">
<title>node33</title>
<path fill="pink" stroke="black" d="M1333.5,-166.5C1333.5,-166.5 1464.5,-166.5 1464.5,-166.5 1470.5,-166.5 1476.5,-172.5 1476.5,-178.5 1476.5,-178.5 1476.5,-200.5 1476.5,-200.5 1476.5,-206.5 1470.5,-212.5 1464.5,-212.5 1464.5,-212.5 1333.5,-212.5 1333.5,-212.5 1327.5,-212.5 1321.5,-206.5 1321.5,-200.5 1321.5,-200.5 1321.5,-178.5 1321.5,-178.5 1321.5,-172.5 1327.5,-166.5 1333.5,-166.5"/>
<text text-anchor="middle" x="1339" y="-197.3" font-family="Times,serif" font-size="14.00">33</text>
<polyline fill="none" stroke="black" points="1356.5,-189.5 1356.5,-212.5 "/>
<text text-anchor="middle" x="1384" y="-197.3" font-family="Times,serif" font-size="14.00">NUM</text>
<polyline fill="none" stroke="black" points="1411.5,-189.5 1411.5,-212.5 "/>
<text text-anchor="middle" x="1444" y="-197.3" font-family="Times,serif" font-size="14.00">size=1</text>
<polyline fill="none" stroke="black" points="1321.5,-189.5 1476.5,-189.5 "/>
<text text-anchor="middle" x="1399" y="-174.3" font-family="Times,serif" font-size="14.00">4</text>
</g>
<!-- node32&#45;&gt;node33 -->
<g id="edge64" class="edge">
<title>node32&#45;&gt;node33</title>
<path fill="none" stroke="red" d="M1392.91,-249.37C1392.28,-241.15 1392.1,-231.66 1392.38,-222.73"/>
<polygon fill="red" stroke="red" points="1395.88,-222.78 1392.91,-212.61 1388.89,-222.41 1395.88,-222.78"/>
</g>
<!-- node34 -->
<g id="node34" class="node">
<title>node34</title>
<path fill="peachpuff" stroke="black" d="M1507,-166.5C1507,-166.5 1621,-166.5 1621,-166.5 1627,-166.5 1633,-172.5 1633,-178.5 1633,-178.5 1633,-200.5 1633,-200.5 1633,-206.5 1627,-212.5 1621,-212.5 1621,-212.5 1507,-212.5 1507,-212.5 1501,-212.5 1495,-206.5 1495,-200.5 1495,-200.5 1495,-178.5 1495,-178.5 1495,-172.5 1501,-166.5 1507,-166.5"/>
<text text-anchor="middle" x="1512.5" y="-197.3" font-family="Times,serif" font-size="14.00">34</text>
<polyline fill="none" stroke="black" points="1530,-189.5 1530,-212.5 "/>
<text text-anchor="middle" x="1549" y="-197.3" font-family="Times,serif" font-size="14.00">OP</text>
<polyline fill="none" stroke="black" points="1568,-189.5 1568,-212.5 "/>
<text text-anchor="middle" x="1600.5" y="-197.3" font-family="Times,serif" font-size="14.00">size=3</text>
<polyline fill="none" stroke="black" points="1495,-189.5 1633,-189.5 "/>
<text text-anchor="middle" x="1564" y="-174.3" font-family="Times,serif" font-size="14.00">^</text>
</g>
<!-- node32&#45;&gt;node34 -->
<g id="edge66" class="edge">
<title>node32&#45;&gt;node34</title>
<path fill="none" stroke="green" d="M1438,-249.37C1457.6,-239.37 1481.74,-227.47 1503.64,-217"/>
<polygon fill="green" stroke="green" points="1505.35,-220.06 1512.88,-212.61 1502.34,-213.74 1505.35,-220.06"/>
</g>
<!-- node33&#45;&gt;node32 -->
<g id="edge65" class="edge">
<title>node33&#45;&gt;node32</title>
<path fill="none" stroke="blue" d="M1405.09,-212.61C1405.72,-220.82 1405.9,-230.31 1405.62,-239.25"/>
<polygon fill="blue" stroke="blue" points="1402.12,-239.2 1405.09,-249.37 1409.11,-239.56 1402.12,-239.2"/>
</g>
<!-- node34&#45;&gt;node32 -->
<g id="edge67" class="edge">
<title>node34&#45;&gt;node32</title>
<path fill="none" stroke="blue" d="M1525.06,-212.61C1505.46,-222.6 1481.33,-234.5 1459.41,-244.97"/>
<polygon fill="blue" stroke="blue" points="1457.71,-241.91 1450.18,-249.37 1460.71,-248.23 1457.71,-241.91"/>
</g>
<!-- node35 -->
<g id="node35" class="node">
<title>node35</title>
<path fill="pink" stroke="black" d="M1419.5,-83.5C1419.5,-83.5 1550.5,-83.5 1550.5,-83.5 1556.5,-83.5 1562.5,-89.5 1562.5,-95.5 1562.5,-95.5 1562.5,-117.5 1562.5,-117.5 1562.5,-123.5 1556.5,-129.5 1550.5,-129.5 1550.5,-129.5 1419.5,-129.5 1419.5,-129.5 1413.5,-129.5 1407.5,-123.5 1407.5,-117.5 1407.5,-117.5 1407.5,-95.5 1407.5,-95.5 1407.5,-89.5 1413.5,-83.5 1419.5,-83.5"/>
<text text-anchor="middle" x="1425" y="-114.3" font-family="Times,serif" font-size="14.00">35</text>
<polyline fill="none" stroke="black" points="1442.5,-106.5 1442.5,-129.5 "/>
<text text-anchor="middle" x="1470" y="-114.3" font-family="Times,serif" font-size="14.00">NUM</text>
<polyline fill="none" stroke="black" points="1497.5,-106.5 1497.5,-129.5 "/>
<text text-anchor="middle" x="1530" y="-114.3" font-family="Times,serif" font-size="14.00">size=1</text>
<polyline fill="none" stroke="black" points="1407.5,-106.5 1562.5,-106.5 "/>
<text text-anchor="middle" x="1485" y="-91.3" font-family="Times,serif" font-size="14.00">1</text>
</g>
<!-- node34&#45;&gt;node35 -->
<g id="edge68" class="edge">
<title>node34&#45;&gt;node35</title>
<path fill="none" stroke="red" d="M1536.32,-166.37C1526.83,-157.35 1516.39,-146.79 1507.36,-137.12"/>
<polygon fill="red" stroke="red" points="1509.81,-134.61 1500.47,-129.61 1504.65,-139.34 1509.81,-134.61"/>
</g>
<!-- node36 -->
<g id="node36" class="node">
<title>node36</title>
<path fill="pink" stroke="black" d="M1592.5,-83.5C1592.5,-83.5 1723.5,-83.5 1723.5,-83.5 1729.5,-83.5 1735.5,-89.5 1735.5,-95.5 1735.5,-95.5 1735.5,-117.5 1735.5,-117.5 1735.5,-123.5 1729.5,-129.5 1723.5,-129.5 1723.5,-129.5 1592.5,-129.5 1592.5,-129.5 1586.5,-129.5 1580.5,-123.5 1580.5,-117.5 1580.5,-117.5 1580.5,-95.5 1580.5,-95.5 1580.5,-89.5 1586.5,-83.5 1592.5,-83.5"/>
<text text-anchor="middle" x="1598" y="-114.3" font-family="Times,serif" font-size="14.00">36</text>
<polyline fill="none" stroke="black" points="1615.5,-106.5 1615.5,-129.5 "/>
<text text-anchor="middle" x="1643" y="-114.3" font-family="Times,serif" font-size="14.00">NUM</text>
<polyline fill="none" stroke="black" points="1670.5,-106.5 1670.5,-129.5 "/>
<text text-anchor="middle" x="1703" y="-114.3" font-family="Times,serif" font-size="14.00">size=1</text>
<polyline fill="none" stroke="black" points="1580.5,-106.5 1735.5,-106.5 "/>
<text text-anchor="middle" x="1658" y="-91.3" font-family="Times,serif" font-size="14.00">1,512</text>
</g>
<!-- node34&#45;&gt;node36 -->
<g id="edge70" class="edge">
<title>node34&#45;&gt;node36</title>
<path fill="none" stroke="green" d="M1583.6,-166.37C1593.75,-156.99 1606.44,-145.95 1618.47,-135.98"/>
<polygon fill="green" stroke="green" points="1620.74,-138.65 1626.26,-129.61 1616.3,-133.23 1620.74,-138.65"/>
</g>
<!-- node35&#45;&gt;node34 -->
<g id="edge69" class="edge">
<title>node35&#45;&gt;node34</title>
<path fill="none" stroke="blue" d="M1512.65,-129.61C1522.14,-138.62 1532.58,-149.18 1541.61,-158.85"/>
<polygon fill="blue" stroke="blue" points="1539.17,-161.36 1548.5,-166.37 1544.33,-156.63 1539.17,-161.36"/>
</g>
<!-- node36&#45;&gt;node34 -->
<g id="edge71" class="edge">
<title>node36&#45;&gt;node34</title>
<path fill="none" stroke="blue" d="M1638.43,-129.61C1628.28,-138.98 1615.6,-150.02 1603.56,-159.99"/>
<polygon fill="blue" stroke="blue" points="1601.3,-157.32 1595.78,-166.37 1605.73,-162.74 1601.3,-157.32"/>
</g>
<!-- node37&#45;&gt;node3 -->
<g id="edge73" class="edge">
<title>node37&#45;&gt;node3</title>
<path fill="none" stroke="blue" d="M1039.99,-544.61C1036.74,-553.18 1032.35,-563.14 1027.79,-572.41"/>
<polygon fill="blue" stroke="blue" points="1024.64,-570.87 1023.2,-581.37 1030.87,-574.06 1024.64,-570.87"/>
</g>
<!-- node38&#45;&gt;node2 -->
<g id="edge75" class="edge">
<title>node38&#45;&gt;node2</title>
<path fill="none" stroke="blue" d="M1173.09,-627.61C1173.72,-635.82 1173.9,-645.31 1173.62,-654.25"/>
<polygon fill="blue" stroke="blue" points="1170.12,-654.2 1173.09,-664.37 1177.11,-654.56 1170.12,-654.2"/>
</g>
<!-- node39&#45;&gt;node1 -->
<g id="edge77" class="edge">
<title>node39&#45;&gt;node1</title>
<path fill="none" stroke="blue" d="M1311.25,-710.61C1302.88,-719.8 1292.36,-730.6 1282.22,-740.42"/>
<polygon fill="blue" stroke="blue" points="1279.77,-737.93 1274.95,-747.37 1284.6,-742.99 1279.77,-737.93"/>
</g>
<!-- node40 -->
<g id="node40" class="node">
<title>node40</title>
<path fill="peachpuff" stroke="black" d="M1270,-581.5C1270,-581.5 1384,-581.5 1384,-581.5 1390,-581.5 1396,-587.5 1396,-593.5 1396,-593.5 1396,-615.5 1396,-615.5 1396,-621.5 1390,-627.5 1384,-627.5 1384,-627.5 1270,-627.5 1270,-627.5 1264,-627.5 1258,-621.5 1258,-615.5 1258,-615.5 1258,-593.5 1258,-593.5 1258,-587.5 1264,-581.5 1270,-581.5"/>
<text text-anchor="middle" x="1275.5" y="-612.3" font-family="Times,serif" font-size="14.00">40</text>
<polyline fill="none" stroke="black" points="1293,-604.5 1293,-627.5 "/>
<text text-anchor="middle" x="1312" y="-612.3" font-family="Times,serif" font-size="14.00">OP</text>
<polyline fill="none" stroke="black" points="1331,-604.5 1331,-627.5 "/>
<text text-anchor="middle" x="1363.5" y="-612.3" font-family="Times,serif" font-size="14.00">size=4</text>
<polyline fill="none" stroke="black" points="1258,-604.5 1396,-604.5 "/>
<text text-anchor="middle" x="1327" y="-589.3" font-family="Times,serif" font-size="14.00">arccos</text>
</g>
<!-- node39&#45;&gt;node40 -->
<g id="edge78" class="edge">
<title>node39&#45;&gt;node40</title>
<path fill="none" stroke="red" d="M1320.91,-664.37C1320.28,-656.15 1320.1,-646.66 1320.38,-637.73"/>
<polygon fill="red" stroke="red" points="1323.88,-637.78 1320.91,-627.61 1316.89,-637.41 1323.88,-637.78"/>
</g>
<!-- node44 -->
<g id="node44" class="node">
<title>node44</title>
<path fill="lightyellow" stroke="black" d="M1426,-581.5C1426,-581.5 1548,-581.5 1548,-581.5 1554,-581.5 1560,-587.5 1560,-593.5 1560,-593.5 1560,-615.5 1560,-615.5 1560,-621.5 1554,-627.5 1548,-627.5 1548,-627.5 1426,-627.5 1426,-627.5 1420,-627.5 1414,-621.5 1414,-615.5 1414,-615.5 1414,-593.5 1414,-593.5 1414,-587.5 1420,-581.5 1426,-581.5"/>
<text text-anchor="middle" x="1431.5" y="-612.3" font-family="Times,serif" font-size="14.00">44</text>
<polyline fill="none" stroke="black" points="1449,-604.5 1449,-627.5 "/>
<text text-anchor="middle" x="1472" y="-612.3" font-family="Times,serif" font-size="14.00">VAR</text>
<polyline fill="none" stroke="black" points="1495,-604.5 1495,-627.5 "/>
<text text-anchor="middle" x="1527.5" y="-612.3" font-family="Times,serif" font-size="14.00">size=1</text>
<polyline fill="none" stroke="black" points="1414,-604.5 1560,-604.5 "/>
<text text-anchor="middle" x="1487" y="-589.3" font-family="Times,serif" font-size="14.00">x</text>
</g>
<!-- node39&#45;&gt;node44 -->
<g id="edge86" class="edge">
<title>node39&#45;&gt;node44</title>
<path fill="none" stroke="green" d="M1364.63,-664.37C1383.53,-654.41 1406.81,-642.58 1428,-632.14"/>
<polygon fill="green" stroke="green" points="1429.8,-635.15 1437.24,-627.61 1426.72,-628.86 1429.8,-635.15"/>
</g>
<!-- node40&#45;&gt;node39 -->
<g id="edge79" class="edge">
<title>node40&#45;&gt;node39</title>
<path fill="none" stroke="blue" d="M1333.09,-627.61C1333.72,-635.82 1333.9,-645.31 1333.62,-654.25"/>
<polygon fill="blue" stroke="blue" points="1330.12,-654.2 1333.09,-664.37 1337.11,-654.56 1330.12,-654.2"/>
</g>
<!-- node41 -->
<g id="node41" class="node">
<title>node41</title>
<path fill="peachpuff" stroke="black" d="M1270,-498.5C1270,-498.5 1384,-498.5 1384,-498.5 1390,-498.5 1396,-504.5 1396,-510.5 1396,-510.5 1396,-532.5 1396,-532.5 1396,-538.5 1390,-544.5 1384,-544.5 1384,-544.5 1270,-544.5 1270,-544.5 1264,-544.5 1258,-538.5 1258,-532.5 1258,-532.5 1258,-510.5 1258,-510.5 1258,-504.5 1264,-498.5 1270,-498.5"/>
<text text-anchor="middle" x="1275.5" y="-529.3" font-family="Times,serif" font-size="14.00">41</text>
<polyline fill="none" stroke="black" points="1293,-521.5 1293,-544.5 "/>
<text text-anchor="middle" x="1312" y="-529.3" font-family="Times,serif" font-size="14.00">OP</text>
<polyline fill="none" stroke="black" points="1331,-521.5 1331,-544.5 "/>
<text text-anchor="middle" x="1363.5" y="-529.3" font-family="Times,serif" font-size="14.00">size=3</text>
<polyline fill="none" stroke="black" points="1258,-521.5 1396,-521.5 "/>
<text text-anchor="middle" x="1327" y="-506.3" font-family="Times,serif" font-size="14.00">cos</text>
</g>
<!-- node40&#45;&gt;node41 -->
<g id="edge80" class="edge">
<title>node40&#45;&gt;node41</title>
<path fill="none" stroke="red" d="M1320.91,-581.37C1320.28,-573.15 1320.1,-563.66 1320.38,-554.73"/>
<polygon fill="red" stroke="red" points="1323.88,-554.78 1320.91,-544.61 1316.89,-554.41 1323.88,-554.78"/>
</g>
<!-- node41&#45;&gt;node40 -->
<g id="edge81" class="edge">
<title>node41&#45;&gt;node40</title>
<path fill="none" stroke="blue" d="M1333.09,-544.61C1333.72,-552.82 1333.9,-562.31 1333.62,-571.25"/>
<polygon fill="blue" stroke="blue" points="1330.12,-571.2 1333.09,-581.37 1337.11,-571.56 1330.12,-571.2"/>
</g>
<!-- node42 -->
<g id="node42" class="node">
<title>node42</title>
<path fill="peachpuff" stroke="black" d="M1270,-415.5C1270,-415.5 1384,-415.5 1384,-415.5 1390,-415.5 1396,-421.5 1396,-427.5 1396,-427.5 1396,-449.5 1396,-449.5 1396,-455.5 1390,-461.5 1384,-461.5 1384,-461.5 1270,-461.5 1270,-461.5 1264,-461.5 1258,-455.5 1258,-449.5 1258,-449.5 1258,-427.5 1258,-427.5 1258,-421.5 1264,-415.5 1270,-415.5"/>
<text text-anchor="middle" x="1275.5" y="-446.3" font-family="Times,serif" font-size="14.00">42</text>
<polyline fill="none" stroke="black" points="1293,-438.5 1293,-461.5 "/>
<text text-anchor="middle" x="1312" y="-446.3" font-family="Times,serif" font-size="14.00">OP</text>
<polyline fill="none" stroke="black" points="1331,-438.5 1331,-461.5 "/>
<text text-anchor="middle" x="1363.5" y="-446.3" font-family="Times,serif" font-size="14.00">size=2</text>
<polyline fill="none" stroke="black" points="1258,-438.5 1396,-438.5 "/>
<text text-anchor="middle" x="1327" y="-423.3" font-family="Times,serif" font-size="14.00">sh</text>
</g>
<!-- node41&#45;&gt;node42 -->
<g id="edge82" class="edge">
<title>node41&#45;&gt;node42</title>
<path fill="none" stroke="red" d="M1320.91,-498.37C1320.28,-490.15 1320.1,-480.66 1320.38,-471.73"/>
<polygon fill="red" stroke="red" points="1323.88,-471.78 1320.91,-461.61 1316.89,-471.41 1323.88,-471.78"/>
</g>
<!-- node42&#45;&gt;node41 -->
<g id="edge83" class="edge">
<title>node42&#45;&gt;node41</title>
<path fill="none" stroke="blue" d="M1333.09,-461.61C1333.72,-469.82 1333.9,-479.31 1333.62,-488.25"/>
<polygon fill="blue" stroke="blue" points="1330.12,-488.2 1333.09,-498.37 1337.11,-488.56 1330.12,-488.2"/>
</g>
<!-- node43 -->
<g id="node43" class="node">
<title>node43</title>
<path fill="lightyellow" stroke="black" d="M1266,-332.5C1266,-332.5 1388,-332.5 1388,-332.5 1394,-332.5 1400,-338.5 1400,-344.5 1400,-344.5 1400,-366.5 1400,-366.5 1400,-372.5 1394,-378.5 1388,-378.5 1388,-378.5 1266,-378.5 1266,-378.5 1260,-378.5 1254,-372.5 1254,-366.5 1254,-366.5 1254,-344.5 1254,-344.5 1254,-338.5 1260,-332.5 1266,-332.5"/>
<text text-anchor="middle" x="1271.5" y="-363.3" font-family="Times,serif" font-size="14.00">43</text>
<polyline fill="none" stroke="black" points="1289,-355.5 1289,-378.5 "/>
<text text-anchor="middle" x="1312" y="-363.3" font-family="Times,serif" font-size="14.00">VAR</text>
<polyline fill="none" stroke="black" points="1335,-355.5 1335,-378.5 "/>
<text text-anchor="middle" x="1367.5" y="-363.3" font-family="Times,serif" font-size="14.00">size=1</text>
<polyline fill="none" stroke="black" points="1254,-355.5 1400,-355.5 "/>
<text text-anchor="middle" x="1327" y="-340.3" font-family="Times,serif" font-size="14.00">x</text>
</g>
<!-- node42&#45;&gt;node43 -->
<g id="edge84" class="edge">
<title>node42&#45;&gt;node43</title>
<path fill="none" stroke="red" d="M1320.91,-415.37C1320.28,-407.15 1320.1,-397.66 1320.38,-388.73"/>
<polygon fill="red" stroke="red" points="1323.88,-388.78 1320.91,-378.61 1316.89,-388.41 1323.88,-388.78"/>
</g>
<!-- node43&#45;&gt;node42 -->
<g id="edge85" class="edge">
<title>node43&#45;&gt;node42</title>
<path fill="none" stroke="blue" d="M1333.09,-378.61C1333.72,-386.82 1333.9,-396.31 1333.62,-405.25"/>
<polygon fill="blue" stroke="blue" points="1330.12,-405.2 1333.09,-415.37 1337.11,-405.56 1330.12,-405.2"/>
</g>
<!-- node44&#45;&gt;node39 -->
<g id="edge87" class="edge">
<title>node44&#45;&gt;node39</title>
<path fill="none" stroke="blue" d="M1449.42,-627.61C1430.53,-637.56 1407.25,-649.39 1386.06,-659.83"/>
<polygon fill="blue" stroke="blue" points="1384.25,-656.82 1376.81,-664.37 1387.33,-663.11 1384.25,-656.82"/>
</g>
</g>
</svg>
