<?xml version="1.0" encoding="UTF-8" standalone="no"?>
<!DOCTYPE svg PUBLIC "-//W3C//DTD SVG 1.1//EN"
 "http://www.w3.org/Graphics/SVG/1.1/DTD/svg11.dtd">
<!-- Generated by graphviz version 2.43.0 (0)
 -->
<!-- Title: %3 Pages: 1 -->
<svg width="378pt" height="221pt"
 viewBox="0.00 0.00 377.50 221.00" xmlns="http://www.w3.org/2000/svg" xmlns:xlink="http://www.w3.org/1999/xlink">
<g id="graph0" class="graph" transform="scale(1 1) rotate(0) translate(4 217)">
<title>%3</title>
<polygon fill="white" stroke="transparent" points="-4,4 -4,-217 373.5,-217 373.5,4 -4,4"/>
<!-- node1 -->
<g id="node1" class="node">
<title>node1</title>
<path fill="peachpuff" stroke="black" d="M160,-166.5C160,-166.5 200,-166.5 200,-166.5 206,-166.5 212,-172.5 212,-178.5 212,-178.5 212,-200.5 212,-200.5 212,-206.5 206,-212.5 200,-212.5 200,-212.5 160,-212.5 160,-212.5 154,-212.5 148,-206.5 148,-200.5 148,-200.5 148,-178.5 148,-178.5 148,-172.5 154,-166.5 160,-166.5"/>
<text text-anchor="middle" x="161" y="-197.3" font-family="Times,serif" font-size="14.00">1</text>
<polyline fill="none" stroke="black" points="174,-189.5 174,-212.5 "/>
<text text-anchor="middle" x="193" y="-197.3" font-family="Times,serif" font-size="14.00">OP</text>
<polyline fill="none" stroke="black" points="148,-189.5 212,-189.5 "/>
<text text-anchor="middle" x="180" y="-174.3" font-family="Times,serif" font-size="14.00">/</text>
</g>
<!-- node1&#45;&gt;node1 -->
<g id="edge1" class="edge">
<title>node1&#45;&gt;node1</title>
<path fill="none" stroke="blue" d="M212.22,-204.86C222.18,-204.55 230,-199.43 230,-189.5 230,-183.29 226.95,-178.97 222.22,-176.52"/>
<polygon fill="blue" stroke="blue" points="222.76,-173.05 212.22,-174.14 221.14,-179.86 222.76,-173.05"/>
</g>
<!-- node2 -->
<g id="node2" class="node">
<title>node2</title>
<path fill="peachpuff" stroke="black" d="M111,-83.5C111,-83.5 151,-83.5 151,-83.5 157,-83.5 163,-89.5 163,-95.5 163,-95.5 163,-117.5 163,-117.5 163,-123.5 157,-129.5 151,-129.5 151,-129.5 111,-129.5 111,-129.5 105,-129.5 99,-123.5 99,-117.5 99,-117.5 99,-95.5 99,-95.5 99,-89.5 105,-83.5 111,-83.5"/>
<text text-anchor="middle" x="112" y="-114.3" font-family="Times,serif" font-size="14.00">2</text>
<polyline fill="none" stroke="black" points="125,-106.5 125,-129.5 "/>
<text text-anchor="middle" x="144" y="-114.3" font-family="Times,serif" font-size="14.00">OP</text>
<polyline fill="none" stroke="black" points="99,-106.5 163,-106.5 "/>
<text text-anchor="middle" x="131" y="-91.3" font-family="Times,serif" font-size="14.00">*</text>
</g>
<!-- node1&#45;&gt;node2 -->
<g id="edge2" class="edge">
<title>node1&#45;&gt;node2</title>
<path fill="none" stroke="red" d="M160.52,-166.37C154.67,-157.79 148.48,-147.83 143.21,-138.56"/>
<polygon fill="red" stroke="red" points="146.17,-136.68 138.28,-129.61 140.03,-140.06 146.17,-136.68"/>
</g>
<!-- node5 -->
<g id="node5" class="node">
<title>node5</title>
<path fill="peachpuff" stroke="black" d="M210,-83.5C210,-83.5 250,-83.5 250,-83.5 256,-83.5 262,-89.5 262,-95.5 262,-95.5 262,-117.5 262,-117.5 262,-123.5 256,-129.5 250,-129.5 250,-129.5 210,-129.5 210,-129.5 204,-129.5 198,-123.5 198,-117.5 198,-117.5 198,-95.5 198,-95.5 198,-89.5 204,-83.5 210,-83.5"/>
<text text-anchor="middle" x="211" y="-114.3" font-family="Times,serif" font-size="14.00">5</text>
<polyline fill="none" stroke="black" points="224,-106.5 224,-129.5 "/>
<text text-anchor="middle" x="243" y="-114.3" font-family="Times,serif" font-size="14.00">OP</text>
<polyline fill="none" stroke="black" points="198,-106.5 262,-106.5 "/>
<text text-anchor="middle" x="230" y="-91.3" font-family="Times,serif" font-size="14.00">&#45;</text>
</g>
<!-- node1&#45;&gt;node5 -->
<g id="edge8" class="edge">
<title>node1&#45;&gt;node5</title>
<path fill="none" stroke="green" d="M187.57,-166.37C192.3,-157.62 198.44,-147.41 204.62,-137.99"/>
<polygon fill="green" stroke="green" points="207.58,-139.86 210.27,-129.61 201.77,-135.94 207.58,-139.86"/>
</g>
<!-- node2&#45;&gt;node1 -->
<g id="edge3" class="edge">
<title>node2&#45;&gt;node1</title>
<path fill="none" stroke="blue" d="M150.46,-129.61C156.31,-138.18 162.5,-148.14 167.78,-157.41"/>
<polygon fill="blue" stroke="blue" points="164.82,-159.29 172.7,-166.37 170.95,-155.92 164.82,-159.29"/>
</g>
<!-- node3 -->
<g id="node3" class="node">
<title>node3</title>
<path fill="lightyellow" stroke="black" d="M12,-0.5C12,-0.5 60,-0.5 60,-0.5 66,-0.5 72,-6.5 72,-12.5 72,-12.5 72,-34.5 72,-34.5 72,-40.5 66,-46.5 60,-46.5 60,-46.5 12,-46.5 12,-46.5 6,-46.5 0,-40.5 0,-34.5 0,-34.5 0,-12.5 0,-12.5 0,-6.5 6,-0.5 12,-0.5"/>
<text text-anchor="middle" x="13" y="-31.3" font-family="Times,serif" font-size="14.00">3</text>
<polyline fill="none" stroke="black" points="26,-23.5 26,-46.5 "/>
<text text-anchor="middle" x="49" y="-31.3" font-family="Times,serif" font-size="14.00">VAR</text>
<polyline fill="none" stroke="black" points="0,-23.5 72,-23.5 "/>
<text text-anchor="middle" x="36" y="-8.3" font-family="Times,serif" font-size="14.00">x</text>
</g>
<!-- node2&#45;&gt;node3 -->
<g id="edge4" class="edge">
<title>node2&#45;&gt;node3</title>
<path fill="none" stroke="red" d="M98.95,-83.37C87.46,-74.17 74.65,-63.37 63.56,-53.55"/>
<polygon fill="red" stroke="red" points="65.62,-50.69 55.84,-46.61 60.94,-55.89 65.62,-50.69"/>
</g>
<!-- node4 -->
<g id="node4" class="node">
<title>node4</title>
<path fill="pink" stroke="black" d="M102.5,-0.5C102.5,-0.5 159.5,-0.5 159.5,-0.5 165.5,-0.5 171.5,-6.5 171.5,-12.5 171.5,-12.5 171.5,-34.5 171.5,-34.5 171.5,-40.5 165.5,-46.5 159.5,-46.5 159.5,-46.5 102.5,-46.5 102.5,-46.5 96.5,-46.5 90.5,-40.5 90.5,-34.5 90.5,-34.5 90.5,-12.5 90.5,-12.5 90.5,-6.5 96.5,-0.5 102.5,-0.5"/>
<text text-anchor="middle" x="103.5" y="-31.3" font-family="Times,serif" font-size="14.00">4</text>
<polyline fill="none" stroke="black" points="116.5,-23.5 116.5,-46.5 "/>
<text text-anchor="middle" x="144" y="-31.3" font-family="Times,serif" font-size="14.00">NUM</text>
<polyline fill="none" stroke="black" points="90.5,-23.5 171.5,-23.5 "/>
<text text-anchor="middle" x="131" y="-8.3" font-family="Times,serif" font-size="14.00">3</text>
</g>
<!-- node2&#45;&gt;node4 -->
<g id="edge6" class="edge">
<title>node2&#45;&gt;node4</title>
<path fill="none" stroke="green" d="M124.91,-83.37C124.28,-75.15 124.1,-65.66 124.38,-56.73"/>
<polygon fill="green" stroke="green" points="127.88,-56.78 124.91,-46.61 120.89,-56.41 127.88,-56.78"/>
</g>
<!-- node3&#45;&gt;node2 -->
<g id="edge5" class="edge">
<title>node3&#45;&gt;node2</title>
<path fill="none" stroke="blue" d="M68.02,-46.61C79.51,-55.8 92.31,-66.6 103.4,-76.42"/>
<polygon fill="blue" stroke="blue" points="101.35,-79.29 111.13,-83.37 106.03,-74.08 101.35,-79.29"/>
</g>
<!-- node4&#45;&gt;node2 -->
<g id="edge7" class="edge">
<title>node4&#45;&gt;node2</title>
<path fill="none" stroke="blue" d="M137.09,-46.61C137.72,-54.82 137.9,-64.31 137.62,-73.25"/>
<polygon fill="blue" stroke="blue" points="134.12,-73.2 137.09,-83.37 141.11,-73.56 134.12,-73.2"/>
</g>
<!-- node5&#45;&gt;node1 -->
<g id="edge9" class="edge">
<title>node5&#45;&gt;node1</title>
<path fill="none" stroke="blue" d="M222.44,-129.61C217.72,-138.35 211.58,-148.56 205.4,-157.99"/>
<polygon fill="blue" stroke="blue" points="202.44,-156.12 199.75,-166.37 208.24,-160.03 202.44,-156.12"/>
</g>
<!-- node6 -->
<g id="node6" class="node">
<title>node6</title>
<path fill="pink" stroke="black" d="M201.5,-0.5C201.5,-0.5 258.5,-0.5 258.5,-0.5 264.5,-0.5 270.5,-6.5 270.5,-12.5 270.5,-12.5 270.5,-34.5 270.5,-34.5 270.5,-40.5 264.5,-46.5 258.5,-46.5 258.5,-46.5 201.5,-46.5 201.5,-46.5 195.5,-46.5 189.5,-40.5 189.5,-34.5 189.5,-34.5 189.5,-12.5 189.5,-12.5 189.5,-6.5 195.5,-0.5 201.5,-0.5"/>
<text text-anchor="middle" x="202.5" y="-31.3" font-family="Times,serif" font-size="14.00">6</text>
<polyline fill="none" stroke="black" points="215.5,-23.5 215.5,-46.5 "/>
<text text-anchor="middle" x="243" y="-31.3" font-family="Times,serif" font-size="14.00">NUM</text>
<polyline fill="none" stroke="black" points="189.5,-23.5 270.5,-23.5 "/>
<text text-anchor="middle" x="230" y="-8.3" font-family="Times,serif" font-size="14.00">1000</text>
</g>
<!-- node5&#45;&gt;node6 -->
<g id="edge10" class="edge">
<title>node5&#45;&gt;node6</title>
<path fill="none" stroke="red" d="M223.91,-83.37C223.28,-75.15 223.1,-65.66 223.38,-56.73"/>
<polygon fill="red" stroke="red" points="226.88,-56.78 223.91,-46.61 219.89,-56.41 226.88,-56.78"/>
</g>
<!-- node7 -->
<g id="node7" class="node">
<title>node7</title>
<path fill="pink" stroke="black" d="M300.5,-0.5C300.5,-0.5 357.5,-0.5 357.5,-0.5 363.5,-0.5 369.5,-6.5 369.5,-12.5 369.5,-12.5 369.5,-34.5 369.5,-34.5 369.5,-40.5 363.5,-46.5 357.5,-46.5 357.5,-46.5 300.5,-46.5 300.5,-46.5 294.5,-46.5 288.5,-40.5 288.5,-34.5 288.5,-34.5 288.5,-12.5 288.5,-12.5 288.5,-6.5 294.5,-0.5 300.5,-0.5"/>
<text text-anchor="middle" x="301.5" y="-31.3" font-family="Times,serif" font-size="14.00">7</text>
<polyline fill="none" stroke="black" points="314.5,-23.5 314.5,-46.5 "/>
<text text-anchor="middle" x="342" y="-31.3" font-family="Times,serif" font-size="14.00">NUM</text>
<polyline fill="none" stroke="black" points="288.5,-23.5 369.5,-23.5 "/>
<text text-anchor="middle" x="329" y="-8.3" font-family="Times,serif" font-size="14.00">7</text>
</g>
<!-- node5&#45;&gt;node7 -->
<g id="edge12" class="edge">
<title>node5&#45;&gt;node7</title>
<path fill="none" stroke="green" d="M250.96,-83.37C261.7,-73.99 275.06,-62.95 287.72,-52.98"/>
<polygon fill="green" stroke="green" points="290.15,-55.51 295.89,-46.61 285.85,-49.99 290.15,-55.51"/>
</g>
<!-- node6&#45;&gt;node5 -->
<g id="edge11" class="edge">
<title>node6&#45;&gt;node5</title>
<path fill="none" stroke="blue" d="M236.09,-46.61C236.72,-54.82 236.9,-64.31 236.62,-73.25"/>
<polygon fill="blue" stroke="blue" points="233.12,-73.2 236.09,-83.37 240.11,-73.56 233.12,-73.2"/>
</g>
<!-- node7&#45;&gt;node5 -->
<g id="edge13" class="edge">
<title>node7&#45;&gt;node5</title>
<path fill="none" stroke="blue" d="M307.88,-46.77C296.8,-56.44 282.94,-67.87 269.97,-78.06"/>
<polygon fill="blue" stroke="blue" points="267.79,-75.32 262.03,-84.22 272.08,-80.85 267.79,-75.32"/>
</g>
</g>
</svg>
