<?xml version="1.0" encoding="UTF-8" standalone="no"?>
<!DOCTYPE svg PUBLIC "-//W3C//DTD SVG 1.1//EN"
 "http://www.w3.org/Graphics/SVG/1.1/DTD/svg11.dtd">
<!-- Generated by graphviz version 2.43.0 (0)
 -->
<!-- Title: %3 Pages: 1 -->
<svg width="2569pt" height="636pt"
 viewBox="0.00 0.00 2568.50 636.00" xmlns="http://www.w3.org/2000/svg" xmlns:xlink="http://www.w3.org/1999/xlink">
<g id="graph0" class="graph" transform="scale(1 1) rotate(0) translate(4 632)">
<title>%3</title>
<polygon fill="white" stroke="transparent" points="-4,4 -4,-632 2564.5,-632 2564.5,4 -4,4"/>
<!-- node1 -->
<g id="node1" class="node">
<title>node1</title>
<path fill="peachpuff" stroke="black" d="M1308,-581.5C1308,-581.5 1422,-581.5 1422,-581.5 1428,-581.5 1434,-587.5 1434,-593.5 1434,-593.5 1434,-615.5 1434,-615.5 1434,-621.5 1428,-627.5 1422,-627.5 1422,-627.5 1308,-627.5 1308,-627.5 1302,-627.5 1296,-621.5 1296,-615.5 1296,-615.5 1296,-593.5 1296,-593.5 1296,-587.5 1302,-581.5 1308,-581.5"/>
<text text-anchor="middle" x="1309" y="-612.3" font-family="Times,serif" font-size="14.00">1</text>
<polyline fill="none" stroke="black" points="1322,-604.5 1322,-627.5 "/>
<text text-anchor="middle" x="1341" y="-612.3" font-family="Times,serif" font-size="14.00">OP</text>
<polyline fill="none" stroke="black" points="1360,-604.5 1360,-627.5 "/>
<text text-anchor="middle" x="1397" y="-612.3" font-family="Times,serif" font-size="14.00">size=55</text>
<polyline fill="none" stroke="black" points="1296,-604.5 1434,-604.5 "/>
<text text-anchor="middle" x="1365" y="-589.3" font-family="Times,serif" font-size="14.00">+</text>
</g>
<!-- node1&#45;&gt;node1 -->
<g id="edge1" class="edge">
<title>node1&#45;&gt;node1</title>
<path fill="none" stroke="blue" d="M1434.27,-618.52C1444.83,-616.38 1452,-611.71 1452,-604.5 1452,-599.77 1448.91,-596.13 1443.81,-593.58"/>
<polygon fill="blue" stroke="blue" points="1444.87,-590.25 1434.27,-590.48 1442.7,-596.9 1444.87,-590.25"/>
</g>
<!-- node2 -->
<g id="node2" class="node">
<title>node2</title>
<path fill="peachpuff" stroke="black" d="M1094,-498.5C1094,-498.5 1208,-498.5 1208,-498.5 1214,-498.5 1220,-504.5 1220,-510.5 1220,-510.5 1220,-532.5 1220,-532.5 1220,-538.5 1214,-544.5 1208,-544.5 1208,-544.5 1094,-544.5 1094,-544.5 1088,-544.5 1082,-538.5 1082,-532.5 1082,-532.5 1082,-510.5 1082,-510.5 1082,-504.5 1088,-498.5 1094,-498.5"/>
<text text-anchor="middle" x="1095" y="-529.3" font-family="Times,serif" font-size="14.00">2</text>
<polyline fill="none" stroke="black" points="1108,-521.5 1108,-544.5 "/>
<text text-anchor="middle" x="1127" y="-529.3" font-family="Times,serif" font-size="14.00">OP</text>
<polyline fill="none" stroke="black" points="1146,-521.5 1146,-544.5 "/>
<text text-anchor="middle" x="1183" y="-529.3" font-family="Times,serif" font-size="14.00">size=27</text>
<polyline fill="none" stroke="black" points="1082,-521.5 1220,-521.5 "/>
<text text-anchor="middle" x="1151" y="-506.3" font-family="Times,serif" font-size="14.00">+</text>
</g>
<!-- node1&#45;&gt;node2 -->
<g id="edge2" class="edge">
<title>node1&#45;&gt;node2</title>
<path fill="none" stroke="red" d="M1300.72,-581.47C1272.8,-571.21 1240.27,-558.92 1212.65,-548.23"/>
<polygon fill="red" stroke="red" points="1213.69,-544.88 1203.1,-544.52 1211.15,-551.41 1213.69,-544.88"/>
</g>
<!-- node29 -->
<g id="node29" class="node">
<title>node29</title>
<path fill="peachpuff" stroke="black" d="M1513.5,-498.5C1513.5,-498.5 1636.5,-498.5 1636.5,-498.5 1642.5,-498.5 1648.5,-504.5 1648.5,-510.5 1648.5,-510.5 1648.5,-532.5 1648.5,-532.5 1648.5,-538.5 1642.5,-544.5 1636.5,-544.5 1636.5,-544.5 1513.5,-544.5 1513.5,-544.5 1507.5,-544.5 1501.5,-538.5 1501.5,-532.5 1501.5,-532.5 1501.5,-510.5 1501.5,-510.5 1501.5,-504.5 1507.5,-498.5 1513.5,-498.5"/>
<text text-anchor="middle" x="1519" y="-529.3" font-family="Times,serif" font-size="14.00">29</text>
<polyline fill="none" stroke="black" points="1536.5,-521.5 1536.5,-544.5 "/>
<text text-anchor="middle" x="1555.5" y="-529.3" font-family="Times,serif" font-size="14.00">OP</text>
<polyline fill="none" stroke="black" points="1574.5,-521.5 1574.5,-544.5 "/>
<text text-anchor="middle" x="1611.5" y="-529.3" font-family="Times,serif" font-size="14.00">size=27</text>
<polyline fill="none" stroke="black" points="1501.5,-521.5 1648.5,-521.5 "/>
<text text-anchor="middle" x="1575" y="-506.3" font-family="Times,serif" font-size="14.00">*</text>
</g>
<!-- node1&#45;&gt;node29 -->
<g id="edge56" class="edge">
<title>node1&#45;&gt;node29</title>
<path fill="none" stroke="green" d="M1416.02,-581.47C1441.96,-571.16 1473.88,-558.82 1502.32,-548.09"/>
<polygon fill="green" stroke="green" points="1503.69,-551.32 1511.82,-544.52 1501.23,-544.76 1503.69,-551.32"/>
</g>
<!-- node2&#45;&gt;node1 -->
<g id="edge3" class="edge">
<title>node2&#45;&gt;node1</title>
<path fill="none" stroke="blue" d="M1215.26,-544.52C1243.18,-554.79 1275.72,-567.07 1303.34,-577.76"/>
<polygon fill="blue" stroke="blue" points="1302.3,-581.11 1312.89,-581.47 1304.83,-574.59 1302.3,-581.11"/>
</g>
<!-- node3 -->
<g id="node3" class="node">
<title>node3</title>
<path fill="peachpuff" stroke="black" d="M505,-415.5C505,-415.5 619,-415.5 619,-415.5 625,-415.5 631,-421.5 631,-427.5 631,-427.5 631,-449.5 631,-449.5 631,-455.5 625,-461.5 619,-461.5 619,-461.5 505,-461.5 505,-461.5 499,-461.5 493,-455.5 493,-449.5 493,-449.5 493,-427.5 493,-427.5 493,-421.5 499,-415.5 505,-415.5"/>
<text text-anchor="middle" x="506" y="-446.3" font-family="Times,serif" font-size="14.00">3</text>
<polyline fill="none" stroke="black" points="519,-438.5 519,-461.5 "/>
<text text-anchor="middle" x="538" y="-446.3" font-family="Times,serif" font-size="14.00">OP</text>
<polyline fill="none" stroke="black" points="557,-438.5 557,-461.5 "/>
<text text-anchor="middle" x="594" y="-446.3" font-family="Times,serif" font-size="14.00">size=13</text>
<polyline fill="none" stroke="black" points="493,-438.5 631,-438.5 "/>
<text text-anchor="middle" x="562" y="-423.3" font-family="Times,serif" font-size="14.00">*</text>
</g>
<!-- node2&#45;&gt;node3 -->
<g id="edge4" class="edge">
<title>node2&#45;&gt;node3</title>
<path fill="none" stroke="red" d="M1081.86,-511.6C971.88,-496.88 757.85,-467.47 641.63,-451.13"/>
<polygon fill="red" stroke="red" points="641.77,-447.61 631.38,-449.68 640.8,-454.54 641.77,-447.61"/>
</g>
<!-- node16 -->
<g id="node16" class="node">
<title>node16</title>
<path fill="peachpuff" stroke="black" d="M1089.5,-415.5C1089.5,-415.5 1212.5,-415.5 1212.5,-415.5 1218.5,-415.5 1224.5,-421.5 1224.5,-427.5 1224.5,-427.5 1224.5,-449.5 1224.5,-449.5 1224.5,-455.5 1218.5,-461.5 1212.5,-461.5 1212.5,-461.5 1089.5,-461.5 1089.5,-461.5 1083.5,-461.5 1077.5,-455.5 1077.5,-449.5 1077.5,-449.5 1077.5,-427.5 1077.5,-427.5 1077.5,-421.5 1083.5,-415.5 1089.5,-415.5"/>
<text text-anchor="middle" x="1095" y="-446.3" font-family="Times,serif" font-size="14.00">16</text>
<polyline fill="none" stroke="black" points="1112.5,-438.5 1112.5,-461.5 "/>
<text text-anchor="middle" x="1131.5" y="-446.3" font-family="Times,serif" font-size="14.00">OP</text>
<polyline fill="none" stroke="black" points="1150.5,-438.5 1150.5,-461.5 "/>
<text text-anchor="middle" x="1187.5" y="-446.3" font-family="Times,serif" font-size="14.00">size=13</text>
<polyline fill="none" stroke="black" points="1077.5,-438.5 1224.5,-438.5 "/>
<text text-anchor="middle" x="1151" y="-423.3" font-family="Times,serif" font-size="14.00">*</text>
</g>
<!-- node2&#45;&gt;node16 -->
<g id="edge30" class="edge">
<title>node2&#45;&gt;node16</title>
<path fill="none" stroke="green" d="M1144.91,-498.37C1144.28,-490.15 1144.1,-480.66 1144.38,-471.73"/>
<polygon fill="green" stroke="green" points="1147.88,-471.78 1144.91,-461.61 1140.89,-471.41 1147.88,-471.78"/>
</g>
<!-- node3&#45;&gt;node2 -->
<g id="edge5" class="edge">
<title>node3&#45;&gt;node2</title>
<path fill="none" stroke="blue" d="M631.17,-448.4C741.27,-463.14 955.57,-492.59 1071.71,-508.92"/>
<polygon fill="blue" stroke="blue" points="1071.56,-512.44 1081.95,-510.36 1072.53,-505.5 1071.56,-512.44"/>
</g>
<!-- node4 -->
<g id="node4" class="node">
<title>node4</title>
<path fill="pink" stroke="black" d="M341,-332.5C341,-332.5 463,-332.5 463,-332.5 469,-332.5 475,-338.5 475,-344.5 475,-344.5 475,-366.5 475,-366.5 475,-372.5 469,-378.5 463,-378.5 463,-378.5 341,-378.5 341,-378.5 335,-378.5 329,-372.5 329,-366.5 329,-366.5 329,-344.5 329,-344.5 329,-338.5 335,-332.5 341,-332.5"/>
<text text-anchor="middle" x="342" y="-363.3" font-family="Times,serif" font-size="14.00">4</text>
<polyline fill="none" stroke="black" points="355,-355.5 355,-378.5 "/>
<text text-anchor="middle" x="382.5" y="-363.3" font-family="Times,serif" font-size="14.00">NUM</text>
<polyline fill="none" stroke="black" points="410,-355.5 410,-378.5 "/>
<text text-anchor="middle" x="442.5" y="-363.3" font-family="Times,serif" font-size="14.00">size=1</text>
<polyline fill="none" stroke="black" points="329,-355.5 475,-355.5 "/>
<text text-anchor="middle" x="402" y="-340.3" font-family="Times,serif" font-size="14.00">1</text>
</g>
<!-- node3&#45;&gt;node4 -->
<g id="edge6" class="edge">
<title>node3&#45;&gt;node4</title>
<path fill="none" stroke="red" d="M512.19,-415.37C491.85,-405.46 468.49,-393.68 448.5,-383.28"/>
<polygon fill="red" stroke="red" points="450.06,-380.14 439.58,-378.61 446.82,-386.35 450.06,-380.14"/>
</g>
<!-- node5 -->
<g id="node5" class="node">
<title>node5</title>
<path fill="peachpuff" stroke="black" d="M505,-332.5C505,-332.5 619,-332.5 619,-332.5 625,-332.5 631,-338.5 631,-344.5 631,-344.5 631,-366.5 631,-366.5 631,-372.5 625,-378.5 619,-378.5 619,-378.5 505,-378.5 505,-378.5 499,-378.5 493,-372.5 493,-366.5 493,-366.5 493,-344.5 493,-344.5 493,-338.5 499,-332.5 505,-332.5"/>
<text text-anchor="middle" x="506" y="-363.3" font-family="Times,serif" font-size="14.00">5</text>
<polyline fill="none" stroke="black" points="519,-355.5 519,-378.5 "/>
<text text-anchor="middle" x="538" y="-363.3" font-family="Times,serif" font-size="14.00">OP</text>
<polyline fill="none" stroke="black" points="557,-355.5 557,-378.5 "/>
<text text-anchor="middle" x="594" y="-363.3" font-family="Times,serif" font-size="14.00">size=11</text>
<polyline fill="none" stroke="black" points="493,-355.5 631,-355.5 "/>
<text text-anchor="middle" x="562" y="-340.3" font-family="Times,serif" font-size="14.00">*</text>
</g>
<!-- node3&#45;&gt;node5 -->
<g id="edge8" class="edge">
<title>node3&#45;&gt;node5</title>
<path fill="none" stroke="green" d="M555.91,-415.37C555.28,-407.15 555.1,-397.66 555.38,-388.73"/>
<polygon fill="green" stroke="green" points="558.88,-388.78 555.91,-378.61 551.89,-388.41 558.88,-388.78"/>
</g>
<!-- node4&#45;&gt;node3 -->
<g id="edge7" class="edge">
<title>node4&#45;&gt;node3</title>
<path fill="none" stroke="blue" d="M451.76,-378.61C472.09,-388.51 495.45,-400.29 515.44,-410.69"/>
<polygon fill="blue" stroke="blue" points="513.89,-413.83 524.37,-415.37 517.13,-407.63 513.89,-413.83"/>
</g>
<!-- node5&#45;&gt;node3 -->
<g id="edge9" class="edge">
<title>node5&#45;&gt;node3</title>
<path fill="none" stroke="blue" d="M568.09,-378.61C568.72,-386.82 568.9,-396.31 568.62,-405.25"/>
<polygon fill="blue" stroke="blue" points="565.12,-405.2 568.09,-415.37 572.11,-405.56 565.12,-405.2"/>
</g>
<!-- node6 -->
<g id="node6" class="node">
<title>node6</title>
<path fill="peachpuff" stroke="black" d="M258.5,-249.5C258.5,-249.5 363.5,-249.5 363.5,-249.5 369.5,-249.5 375.5,-255.5 375.5,-261.5 375.5,-261.5 375.5,-283.5 375.5,-283.5 375.5,-289.5 369.5,-295.5 363.5,-295.5 363.5,-295.5 258.5,-295.5 258.5,-295.5 252.5,-295.5 246.5,-289.5 246.5,-283.5 246.5,-283.5 246.5,-261.5 246.5,-261.5 246.5,-255.5 252.5,-249.5 258.5,-249.5"/>
<text text-anchor="middle" x="259.5" y="-280.3" font-family="Times,serif" font-size="14.00">6</text>
<polyline fill="none" stroke="black" points="272.5,-272.5 272.5,-295.5 "/>
<text text-anchor="middle" x="291.5" y="-280.3" font-family="Times,serif" font-size="14.00">OP</text>
<polyline fill="none" stroke="black" points="310.5,-272.5 310.5,-295.5 "/>
<text text-anchor="middle" x="343" y="-280.3" font-family="Times,serif" font-size="14.00">size=5</text>
<polyline fill="none" stroke="black" points="246.5,-272.5 375.5,-272.5 "/>
<text text-anchor="middle" x="311" y="-257.3" font-family="Times,serif" font-size="14.00">^</text>
</g>
<!-- node5&#45;&gt;node6 -->
<g id="edge10" class="edge">
<title>node5&#45;&gt;node6</title>
<path fill="none" stroke="red" d="M492.71,-334.06C458.6,-323.35 417.53,-310.14 383.05,-298.79"/>
<polygon fill="red" stroke="red" points="384.11,-295.45 373.52,-295.64 381.92,-302.1 384.11,-295.45"/>
</g>
<!-- node11 -->
<g id="node11" class="node">
<title>node11</title>
<path fill="peachpuff" stroke="black" d="M505,-249.5C505,-249.5 619,-249.5 619,-249.5 625,-249.5 631,-255.5 631,-261.5 631,-261.5 631,-283.5 631,-283.5 631,-289.5 625,-295.5 619,-295.5 619,-295.5 505,-295.5 505,-295.5 499,-295.5 493,-289.5 493,-283.5 493,-283.5 493,-261.5 493,-261.5 493,-255.5 499,-249.5 505,-249.5"/>
<text text-anchor="middle" x="510.5" y="-280.3" font-family="Times,serif" font-size="14.00">11</text>
<polyline fill="none" stroke="black" points="528,-272.5 528,-295.5 "/>
<text text-anchor="middle" x="547" y="-280.3" font-family="Times,serif" font-size="14.00">OP</text>
<polyline fill="none" stroke="black" points="566,-272.5 566,-295.5 "/>
<text text-anchor="middle" x="598.5" y="-280.3" font-family="Times,serif" font-size="14.00">size=5</text>
<polyline fill="none" stroke="black" points="493,-272.5 631,-272.5 "/>
<text text-anchor="middle" x="562" y="-257.3" font-family="Times,serif" font-size="14.00">log</text>
</g>
<!-- node5&#45;&gt;node11 -->
<g id="edge20" class="edge">
<title>node5&#45;&gt;node11</title>
<path fill="none" stroke="green" d="M555.91,-332.37C555.28,-324.15 555.1,-314.66 555.38,-305.73"/>
<polygon fill="green" stroke="green" points="558.88,-305.78 555.91,-295.61 551.89,-305.41 558.88,-305.78"/>
</g>
<!-- node6&#45;&gt;node5 -->
<g id="edge11" class="edge">
<title>node6&#45;&gt;node5</title>
<path fill="none" stroke="blue" d="M375.68,-292.5C410.78,-303.48 454.21,-317.45 490.33,-329.34"/>
<polygon fill="blue" stroke="blue" points="489.23,-332.66 499.83,-332.47 491.43,-326.02 489.23,-332.66"/>
</g>
<!-- node7 -->
<g id="node7" class="node">
<title>node7</title>
<path fill="peachpuff" stroke="black" d="M102.5,-166.5C102.5,-166.5 207.5,-166.5 207.5,-166.5 213.5,-166.5 219.5,-172.5 219.5,-178.5 219.5,-178.5 219.5,-200.5 219.5,-200.5 219.5,-206.5 213.5,-212.5 207.5,-212.5 207.5,-212.5 102.5,-212.5 102.5,-212.5 96.5,-212.5 90.5,-206.5 90.5,-200.5 90.5,-200.5 90.5,-178.5 90.5,-178.5 90.5,-172.5 96.5,-166.5 102.5,-166.5"/>
<text text-anchor="middle" x="103.5" y="-197.3" font-family="Times,serif" font-size="14.00">7</text>
<polyline fill="none" stroke="black" points="116.5,-189.5 116.5,-212.5 "/>
<text text-anchor="middle" x="135.5" y="-197.3" font-family="Times,serif" font-size="14.00">OP</text>
<polyline fill="none" stroke="black" points="154.5,-189.5 154.5,-212.5 "/>
<text text-anchor="middle" x="187" y="-197.3" font-family="Times,serif" font-size="14.00">size=3</text>
<polyline fill="none" stroke="black" points="90.5,-189.5 219.5,-189.5 "/>
<text text-anchor="middle" x="155" y="-174.3" font-family="Times,serif" font-size="14.00">&#45;</text>
</g>
<!-- node6&#45;&gt;node7 -->
<g id="edge12" class="edge">
<title>node6&#45;&gt;node7</title>
<path fill="none" stroke="red" d="M262.28,-249.37C242.52,-239.5 219.86,-227.79 200.44,-217.42"/>
<polygon fill="red" stroke="red" points="201.95,-214.26 191.49,-212.61 198.64,-220.42 201.95,-214.26"/>
</g>
<!-- node10 -->
<g id="node10" class="node">
<title>node10</title>
<path fill="lightyellow" stroke="black" d="M250,-166.5C250,-166.5 372,-166.5 372,-166.5 378,-166.5 384,-172.5 384,-178.5 384,-178.5 384,-200.5 384,-200.5 384,-206.5 378,-212.5 372,-212.5 372,-212.5 250,-212.5 250,-212.5 244,-212.5 238,-206.5 238,-200.5 238,-200.5 238,-178.5 238,-178.5 238,-172.5 244,-166.5 250,-166.5"/>
<text text-anchor="middle" x="255.5" y="-197.3" font-family="Times,serif" font-size="14.00">10</text>
<polyline fill="none" stroke="black" points="273,-189.5 273,-212.5 "/>
<text text-anchor="middle" x="296" y="-197.3" font-family="Times,serif" font-size="14.00">VAR</text>
<polyline fill="none" stroke="black" points="319,-189.5 319,-212.5 "/>
<text text-anchor="middle" x="351.5" y="-197.3" font-family="Times,serif" font-size="14.00">size=1</text>
<polyline fill="none" stroke="black" points="238,-189.5 384,-189.5 "/>
<text text-anchor="middle" x="311" y="-174.3" font-family="Times,serif" font-size="14.00">x</text>
</g>
<!-- node6&#45;&gt;node10 -->
<g id="edge18" class="edge">
<title>node6&#45;&gt;node10</title>
<path fill="none" stroke="green" d="M304.91,-249.37C304.28,-241.15 304.1,-231.66 304.38,-222.73"/>
<polygon fill="green" stroke="green" points="307.88,-222.78 304.91,-212.61 300.89,-222.41 307.88,-222.78"/>
</g>
<!-- node7&#45;&gt;node6 -->
<g id="edge13" class="edge">
<title>node7&#45;&gt;node6</title>
<path fill="none" stroke="blue" d="M203.66,-212.61C223.42,-222.47 246.08,-234.18 265.5,-244.55"/>
<polygon fill="blue" stroke="blue" points="264,-247.72 274.46,-249.37 267.31,-241.55 264,-247.72"/>
</g>
<!-- node8 -->
<g id="node8" class="node">
<title>node8</title>
<path fill="pink" stroke="black" d="M12,-83.5C12,-83.5 134,-83.5 134,-83.5 140,-83.5 146,-89.5 146,-95.5 146,-95.5 146,-117.5 146,-117.5 146,-123.5 140,-129.5 134,-129.5 134,-129.5 12,-129.5 12,-129.5 6,-129.5 0,-123.5 0,-117.5 0,-117.5 0,-95.5 0,-95.5 0,-89.5 6,-83.5 12,-83.5"/>
<text text-anchor="middle" x="13" y="-114.3" font-family="Times,serif" font-size="14.00">8</text>
<polyline fill="none" stroke="black" points="26,-106.5 26,-129.5 "/>
<text text-anchor="middle" x="53.5" y="-114.3" font-family="Times,serif" font-size="14.00">NUM</text>
<polyline fill="none" stroke="black" points="81,-106.5 81,-129.5 "/>
<text text-anchor="middle" x="113.5" y="-114.3" font-family="Times,serif" font-size="14.00">size=1</text>
<polyline fill="none" stroke="black" points="0,-106.5 146,-106.5 "/>
<text text-anchor="middle" x="73" y="-91.3" font-family="Times,serif" font-size="14.00">1000</text>
</g>
<!-- node7&#45;&gt;node8 -->
<g id="edge14" class="edge">
<title>node7&#45;&gt;node8</title>
<path fill="none" stroke="red" d="M126.5,-166.37C116.68,-157.35 105.84,-146.79 96.46,-137.12"/>
<polygon fill="red" stroke="red" points="98.73,-134.43 89.29,-129.61 93.66,-139.26 98.73,-134.43"/>
</g>
<!-- node9 -->
<g id="node9" class="node">
<title>node9</title>
<path fill="pink" stroke="black" d="M176,-83.5C176,-83.5 298,-83.5 298,-83.5 304,-83.5 310,-89.5 310,-95.5 310,-95.5 310,-117.5 310,-117.5 310,-123.5 304,-129.5 298,-129.5 298,-129.5 176,-129.5 176,-129.5 170,-129.5 164,-123.5 164,-117.5 164,-117.5 164,-95.5 164,-95.5 164,-89.5 170,-83.5 176,-83.5"/>
<text text-anchor="middle" x="177" y="-114.3" font-family="Times,serif" font-size="14.00">9</text>
<polyline fill="none" stroke="black" points="190,-106.5 190,-129.5 "/>
<text text-anchor="middle" x="217.5" y="-114.3" font-family="Times,serif" font-size="14.00">NUM</text>
<polyline fill="none" stroke="black" points="245,-106.5 245,-129.5 "/>
<text text-anchor="middle" x="277.5" y="-114.3" font-family="Times,serif" font-size="14.00">size=1</text>
<polyline fill="none" stroke="black" points="164,-106.5 310,-106.5 "/>
<text text-anchor="middle" x="237" y="-91.3" font-family="Times,serif" font-size="14.00">7</text>
</g>
<!-- node7&#45;&gt;node9 -->
<g id="edge16" class="edge">
<title>node7&#45;&gt;node9</title>
<path fill="none" stroke="green" d="M171.32,-166.37C179.92,-157.17 190.71,-146.37 201.09,-136.55"/>
<polygon fill="green" stroke="green" points="203.61,-138.99 208.53,-129.61 198.83,-133.87 203.61,-138.99"/>
</g>
<!-- node8&#45;&gt;node7 -->
<g id="edge15" class="edge">
<title>node8&#45;&gt;node7</title>
<path fill="none" stroke="blue" d="M101.47,-129.61C111.29,-138.62 122.13,-149.18 131.51,-158.85"/>
<polygon fill="blue" stroke="blue" points="129.25,-161.55 138.68,-166.37 134.31,-156.71 129.25,-161.55"/>
</g>
<!-- node9&#45;&gt;node7 -->
<g id="edge17" class="edge">
<title>node9&#45;&gt;node7</title>
<path fill="none" stroke="blue" d="M220.71,-129.61C212.11,-138.8 201.32,-149.6 190.94,-159.42"/>
<polygon fill="blue" stroke="blue" points="188.42,-156.99 183.5,-166.37 193.2,-162.1 188.42,-156.99"/>
</g>
<!-- node10&#45;&gt;node6 -->
<g id="edge19" class="edge">
<title>node10&#45;&gt;node6</title>
<path fill="none" stroke="blue" d="M317.09,-212.61C317.72,-220.82 317.9,-230.31 317.62,-239.25"/>
<polygon fill="blue" stroke="blue" points="314.12,-239.2 317.09,-249.37 321.11,-239.56 314.12,-239.2"/>
</g>
<!-- node11&#45;&gt;node5 -->
<g id="edge21" class="edge">
<title>node11&#45;&gt;node5</title>
<path fill="none" stroke="blue" d="M568.09,-295.61C568.72,-303.82 568.9,-313.31 568.62,-322.25"/>
<polygon fill="blue" stroke="blue" points="565.12,-322.2 568.09,-332.37 572.11,-322.56 565.12,-322.2"/>
</g>
<!-- node12 -->
<g id="node12" class="node">
<title>node12</title>
<path fill="pink" stroke="black" d="M414.5,-166.5C414.5,-166.5 545.5,-166.5 545.5,-166.5 551.5,-166.5 557.5,-172.5 557.5,-178.5 557.5,-178.5 557.5,-200.5 557.5,-200.5 557.5,-206.5 551.5,-212.5 545.5,-212.5 545.5,-212.5 414.5,-212.5 414.5,-212.5 408.5,-212.5 402.5,-206.5 402.5,-200.5 402.5,-200.5 402.5,-178.5 402.5,-178.5 402.5,-172.5 408.5,-166.5 414.5,-166.5"/>
<text text-anchor="middle" x="420" y="-197.3" font-family="Times,serif" font-size="14.00">12</text>
<polyline fill="none" stroke="black" points="437.5,-189.5 437.5,-212.5 "/>
<text text-anchor="middle" x="465" y="-197.3" font-family="Times,serif" font-size="14.00">NUM</text>
<polyline fill="none" stroke="black" points="492.5,-189.5 492.5,-212.5 "/>
<text text-anchor="middle" x="525" y="-197.3" font-family="Times,serif" font-size="14.00">size=1</text>
<polyline fill="none" stroke="black" points="402.5,-189.5 557.5,-189.5 "/>
<text text-anchor="middle" x="480" y="-174.3" font-family="Times,serif" font-size="14.00">233685185</text>
</g>
<!-- node11&#45;&gt;node12 -->
<g id="edge22" class="edge">
<title>node11&#45;&gt;node12</title>
<path fill="none" stroke="red" d="M533.5,-249.37C523.68,-240.35 512.84,-229.79 503.46,-220.12"/>
<polygon fill="red" stroke="red" points="505.73,-217.43 496.29,-212.61 500.66,-222.26 505.73,-217.43"/>
</g>
<!-- node13 -->
<g id="node13" class="node">
<title>node13</title>
<path fill="peachpuff" stroke="black" d="M588,-166.5C588,-166.5 702,-166.5 702,-166.5 708,-166.5 714,-172.5 714,-178.5 714,-178.5 714,-200.5 714,-200.5 714,-206.5 708,-212.5 702,-212.5 702,-212.5 588,-212.5 588,-212.5 582,-212.5 576,-206.5 576,-200.5 576,-200.5 576,-178.5 576,-178.5 576,-172.5 582,-166.5 588,-166.5"/>
<text text-anchor="middle" x="593.5" y="-197.3" font-family="Times,serif" font-size="14.00">13</text>
<polyline fill="none" stroke="black" points="611,-189.5 611,-212.5 "/>
<text text-anchor="middle" x="630" y="-197.3" font-family="Times,serif" font-size="14.00">OP</text>
<polyline fill="none" stroke="black" points="649,-189.5 649,-212.5 "/>
<text text-anchor="middle" x="681.5" y="-197.3" font-family="Times,serif" font-size="14.00">size=3</text>
<polyline fill="none" stroke="black" points="576,-189.5 714,-189.5 "/>
<text text-anchor="middle" x="645" y="-174.3" font-family="Times,serif" font-size="14.00">&#45;</text>
</g>
<!-- node11&#45;&gt;node13 -->
<g id="edge24" class="edge">
<title>node11&#45;&gt;node13</title>
<path fill="none" stroke="green" d="M578.59,-249.37C587.31,-240.17 598.23,-229.37 608.73,-219.55"/>
<polygon fill="green" stroke="green" points="611.28,-221.96 616.26,-212.61 606.53,-216.81 611.28,-221.96"/>
</g>
<!-- node12&#45;&gt;node11 -->
<g id="edge23" class="edge">
<title>node12&#45;&gt;node11</title>
<path fill="none" stroke="blue" d="M508.47,-212.61C518.29,-221.62 529.13,-232.18 538.51,-241.85"/>
<polygon fill="blue" stroke="blue" points="536.25,-244.55 545.68,-249.37 541.31,-239.71 536.25,-244.55"/>
</g>
<!-- node13&#45;&gt;node11 -->
<g id="edge25" class="edge">
<title>node13&#45;&gt;node11</title>
<path fill="none" stroke="blue" d="M628.44,-212.61C619.72,-221.8 608.8,-232.6 598.3,-242.42"/>
<polygon fill="blue" stroke="blue" points="595.75,-240.01 590.77,-249.37 600.5,-245.16 595.75,-240.01"/>
</g>
<!-- node14 -->
<g id="node14" class="node">
<title>node14</title>
<path fill="pink" stroke="black" d="M493.5,-83.5C493.5,-83.5 624.5,-83.5 624.5,-83.5 630.5,-83.5 636.5,-89.5 636.5,-95.5 636.5,-95.5 636.5,-117.5 636.5,-117.5 636.5,-123.5 630.5,-129.5 624.5,-129.5 624.5,-129.5 493.5,-129.5 493.5,-129.5 487.5,-129.5 481.5,-123.5 481.5,-117.5 481.5,-117.5 481.5,-95.5 481.5,-95.5 481.5,-89.5 487.5,-83.5 493.5,-83.5"/>
<text text-anchor="middle" x="499" y="-114.3" font-family="Times,serif" font-size="14.00">14</text>
<polyline fill="none" stroke="black" points="516.5,-106.5 516.5,-129.5 "/>
<text text-anchor="middle" x="544" y="-114.3" font-family="Times,serif" font-size="14.00">NUM</text>
<polyline fill="none" stroke="black" points="571.5,-106.5 571.5,-129.5 "/>
<text text-anchor="middle" x="604" y="-114.3" font-family="Times,serif" font-size="14.00">size=1</text>
<polyline fill="none" stroke="black" points="481.5,-106.5 636.5,-106.5 "/>
<text text-anchor="middle" x="559" y="-91.3" font-family="Times,serif" font-size="14.00">1000</text>
</g>
<!-- node13&#45;&gt;node14 -->
<g id="edge26" class="edge">
<title>node13&#45;&gt;node14</title>
<path fill="none" stroke="red" d="M615.41,-166.37C605.04,-157.26 593.56,-146.58 583.63,-136.83"/>
<polygon fill="red" stroke="red" points="585.93,-134.19 576.38,-129.61 580.99,-139.15 585.93,-134.19"/>
</g>
<!-- node15 -->
<g id="node15" class="node">
<title>node15</title>
<path fill="pink" stroke="black" d="M666.5,-83.5C666.5,-83.5 797.5,-83.5 797.5,-83.5 803.5,-83.5 809.5,-89.5 809.5,-95.5 809.5,-95.5 809.5,-117.5 809.5,-117.5 809.5,-123.5 803.5,-129.5 797.5,-129.5 797.5,-129.5 666.5,-129.5 666.5,-129.5 660.5,-129.5 654.5,-123.5 654.5,-117.5 654.5,-117.5 654.5,-95.5 654.5,-95.5 654.5,-89.5 660.5,-83.5 666.5,-83.5"/>
<text text-anchor="middle" x="672" y="-114.3" font-family="Times,serif" font-size="14.00">15</text>
<polyline fill="none" stroke="black" points="689.5,-106.5 689.5,-129.5 "/>
<text text-anchor="middle" x="717" y="-114.3" font-family="Times,serif" font-size="14.00">NUM</text>
<polyline fill="none" stroke="black" points="744.5,-106.5 744.5,-129.5 "/>
<text text-anchor="middle" x="777" y="-114.3" font-family="Times,serif" font-size="14.00">size=1</text>
<polyline fill="none" stroke="black" points="654.5,-106.5 809.5,-106.5 "/>
<text text-anchor="middle" x="732" y="-91.3" font-family="Times,serif" font-size="14.00">7</text>
</g>
<!-- node13&#45;&gt;node15 -->
<g id="edge28" class="edge">
<title>node13&#45;&gt;node15</title>
<path fill="none" stroke="green" d="M662.68,-166.37C671.94,-157.08 683.54,-146.16 694.62,-136.26"/>
<polygon fill="green" stroke="green" points="696.98,-138.84 702.17,-129.61 692.35,-133.59 696.98,-138.84"/>
</g>
<!-- node14&#45;&gt;node13 -->
<g id="edge27" class="edge">
<title>node14&#45;&gt;node13</title>
<path fill="none" stroke="blue" d="M588.56,-129.61C598.93,-138.71 610.41,-149.39 620.34,-159.14"/>
<polygon fill="blue" stroke="blue" points="618.04,-161.78 627.59,-166.37 622.98,-156.83 618.04,-161.78"/>
</g>
<!-- node15&#45;&gt;node13 -->
<g id="edge29" class="edge">
<title>node15&#45;&gt;node13</title>
<path fill="none" stroke="blue" d="M714.34,-129.61C705.09,-138.89 693.5,-149.81 682.42,-159.71"/>
<polygon fill="blue" stroke="blue" points="680.05,-157.13 674.86,-166.37 684.68,-162.38 680.05,-157.13"/>
</g>
<!-- node16&#45;&gt;node2 -->
<g id="edge31" class="edge">
<title>node16&#45;&gt;node2</title>
<path fill="none" stroke="blue" d="M1157.09,-461.61C1157.72,-469.82 1157.9,-479.31 1157.62,-488.25"/>
<polygon fill="blue" stroke="blue" points="1154.12,-488.2 1157.09,-498.37 1161.11,-488.56 1154.12,-488.2"/>
</g>
<!-- node17 -->
<g id="node17" class="node">
<title>node17</title>
<path fill="peachpuff" stroke="black" d="M1005.5,-332.5C1005.5,-332.5 1128.5,-332.5 1128.5,-332.5 1134.5,-332.5 1140.5,-338.5 1140.5,-344.5 1140.5,-344.5 1140.5,-366.5 1140.5,-366.5 1140.5,-372.5 1134.5,-378.5 1128.5,-378.5 1128.5,-378.5 1005.5,-378.5 1005.5,-378.5 999.5,-378.5 993.5,-372.5 993.5,-366.5 993.5,-366.5 993.5,-344.5 993.5,-344.5 993.5,-338.5 999.5,-332.5 1005.5,-332.5"/>
<text text-anchor="middle" x="1011" y="-363.3" font-family="Times,serif" font-size="14.00">17</text>
<polyline fill="none" stroke="black" points="1028.5,-355.5 1028.5,-378.5 "/>
<text text-anchor="middle" x="1047.5" y="-363.3" font-family="Times,serif" font-size="14.00">OP</text>
<polyline fill="none" stroke="black" points="1066.5,-355.5 1066.5,-378.5 "/>
<text text-anchor="middle" x="1103.5" y="-363.3" font-family="Times,serif" font-size="14.00">size=11</text>
<polyline fill="none" stroke="black" points="993.5,-355.5 1140.5,-355.5 "/>
<text text-anchor="middle" x="1067" y="-340.3" font-family="Times,serif" font-size="14.00">*</text>
</g>
<!-- node16&#45;&gt;node17 -->
<g id="edge32" class="edge">
<title>node16&#45;&gt;node17</title>
<path fill="none" stroke="red" d="M1121.96,-415.37C1111.81,-406.26 1100.59,-395.58 1090.9,-385.83"/>
<polygon fill="red" stroke="red" points="1093.33,-383.31 1083.84,-378.61 1088.33,-388.2 1093.33,-383.31"/>
</g>
<!-- node28 -->
<g id="node28" class="node">
<title>node28</title>
<path fill="pink" stroke="black" d="M1170.5,-332.5C1170.5,-332.5 1301.5,-332.5 1301.5,-332.5 1307.5,-332.5 1313.5,-338.5 1313.5,-344.5 1313.5,-344.5 1313.5,-366.5 1313.5,-366.5 1313.5,-372.5 1307.5,-378.5 1301.5,-378.5 1301.5,-378.5 1170.5,-378.5 1170.5,-378.5 1164.5,-378.5 1158.5,-372.5 1158.5,-366.5 1158.5,-366.5 1158.5,-344.5 1158.5,-344.5 1158.5,-338.5 1164.5,-332.5 1170.5,-332.5"/>
<text text-anchor="middle" x="1176" y="-363.3" font-family="Times,serif" font-size="14.00">28</text>
<polyline fill="none" stroke="black" points="1193.5,-355.5 1193.5,-378.5 "/>
<text text-anchor="middle" x="1221" y="-363.3" font-family="Times,serif" font-size="14.00">NUM</text>
<polyline fill="none" stroke="black" points="1248.5,-355.5 1248.5,-378.5 "/>
<text text-anchor="middle" x="1281" y="-363.3" font-family="Times,serif" font-size="14.00">size=1</text>
<polyline fill="none" stroke="black" points="1158.5,-355.5 1313.5,-355.5 "/>
<text text-anchor="middle" x="1236" y="-340.3" font-family="Times,serif" font-size="14.00">1</text>
</g>
<!-- node16&#45;&gt;node28 -->
<g id="edge54" class="edge">
<title>node16&#45;&gt;node28</title>
<path fill="none" stroke="green" d="M1168.14,-415.37C1177.08,-406.17 1188.27,-395.37 1199.01,-385.55"/>
<polygon fill="green" stroke="green" points="1201.63,-387.9 1206.71,-378.61 1196.94,-382.7 1201.63,-387.9"/>
</g>
<!-- node17&#45;&gt;node16 -->
<g id="edge33" class="edge">
<title>node17&#45;&gt;node16</title>
<path fill="none" stroke="blue" d="M1096.01,-378.61C1106.16,-387.71 1117.38,-398.39 1127.07,-408.14"/>
<polygon fill="blue" stroke="blue" points="1124.64,-410.66 1134.14,-415.37 1129.65,-405.77 1124.64,-410.66"/>
</g>
<!-- node18 -->
<g id="node18" class="node">
<title>node18</title>
<path fill="peachpuff" stroke="black" d="M926,-249.5C926,-249.5 1040,-249.5 1040,-249.5 1046,-249.5 1052,-255.5 1052,-261.5 1052,-261.5 1052,-283.5 1052,-283.5 1052,-289.5 1046,-295.5 1040,-295.5 1040,-295.5 926,-295.5 926,-295.5 920,-295.5 914,-289.5 914,-283.5 914,-283.5 914,-261.5 914,-261.5 914,-255.5 920,-249.5 926,-249.5"/>
<text text-anchor="middle" x="931.5" y="-280.3" font-family="Times,serif" font-size="14.00">18</text>
<polyline fill="none" stroke="black" points="949,-272.5 949,-295.5 "/>
<text text-anchor="middle" x="968" y="-280.3" font-family="Times,serif" font-size="14.00">OP</text>
<polyline fill="none" stroke="black" points="987,-272.5 987,-295.5 "/>
<text text-anchor="middle" x="1019.5" y="-280.3" font-family="Times,serif" font-size="14.00">size=3</text>
<polyline fill="none" stroke="black" points="914,-272.5 1052,-272.5 "/>
<text text-anchor="middle" x="983" y="-257.3" font-family="Times,serif" font-size="14.00">&#45;</text>
</g>
<!-- node17&#45;&gt;node18 -->
<g id="edge34" class="edge">
<title>node17&#45;&gt;node18</title>
<path fill="none" stroke="red" d="M1037.96,-332.37C1027.81,-323.26 1016.59,-312.58 1006.9,-302.83"/>
<polygon fill="red" stroke="red" points="1009.33,-300.31 999.84,-295.61 1004.33,-305.2 1009.33,-300.31"/>
</g>
<!-- node21 -->
<g id="node21" class="node">
<title>node21</title>
<path fill="peachpuff" stroke="black" d="M1095,-249.5C1095,-249.5 1209,-249.5 1209,-249.5 1215,-249.5 1221,-255.5 1221,-261.5 1221,-261.5 1221,-283.5 1221,-283.5 1221,-289.5 1215,-295.5 1209,-295.5 1209,-295.5 1095,-295.5 1095,-295.5 1089,-295.5 1083,-289.5 1083,-283.5 1083,-283.5 1083,-261.5 1083,-261.5 1083,-255.5 1089,-249.5 1095,-249.5"/>
<text text-anchor="middle" x="1100.5" y="-280.3" font-family="Times,serif" font-size="14.00">21</text>
<polyline fill="none" stroke="black" points="1118,-272.5 1118,-295.5 "/>
<text text-anchor="middle" x="1137" y="-280.3" font-family="Times,serif" font-size="14.00">OP</text>
<polyline fill="none" stroke="black" points="1156,-272.5 1156,-295.5 "/>
<text text-anchor="middle" x="1188.5" y="-280.3" font-family="Times,serif" font-size="14.00">size=7</text>
<polyline fill="none" stroke="black" points="1083,-272.5 1221,-272.5 "/>
<text text-anchor="middle" x="1152" y="-257.3" font-family="Times,serif" font-size="14.00">^</text>
</g>
<!-- node17&#45;&gt;node21 -->
<g id="edge40" class="edge">
<title>node17&#45;&gt;node21</title>
<path fill="none" stroke="green" d="M1084.14,-332.37C1093.08,-323.17 1104.27,-312.37 1115.01,-302.55"/>
<polygon fill="green" stroke="green" points="1117.63,-304.9 1122.71,-295.61 1112.94,-299.7 1117.63,-304.9"/>
</g>
<!-- node18&#45;&gt;node17 -->
<g id="edge35" class="edge">
<title>node18&#45;&gt;node17</title>
<path fill="none" stroke="blue" d="M1012.01,-295.61C1022.16,-304.71 1033.38,-315.39 1043.07,-325.14"/>
<polygon fill="blue" stroke="blue" points="1040.64,-327.66 1050.14,-332.37 1045.65,-322.77 1040.64,-327.66"/>
</g>
<!-- node19 -->
<g id="node19" class="node">
<title>node19</title>
<path fill="pink" stroke="black" d="M744.5,-166.5C744.5,-166.5 875.5,-166.5 875.5,-166.5 881.5,-166.5 887.5,-172.5 887.5,-178.5 887.5,-178.5 887.5,-200.5 887.5,-200.5 887.5,-206.5 881.5,-212.5 875.5,-212.5 875.5,-212.5 744.5,-212.5 744.5,-212.5 738.5,-212.5 732.5,-206.5 732.5,-200.5 732.5,-200.5 732.5,-178.5 732.5,-178.5 732.5,-172.5 738.5,-166.5 744.5,-166.5"/>
<text text-anchor="middle" x="750" y="-197.3" font-family="Times,serif" font-size="14.00">19</text>
<polyline fill="none" stroke="black" points="767.5,-189.5 767.5,-212.5 "/>
<text text-anchor="middle" x="795" y="-197.3" font-family="Times,serif" font-size="14.00">NUM</text>
<polyline fill="none" stroke="black" points="822.5,-189.5 822.5,-212.5 "/>
<text text-anchor="middle" x="855" y="-197.3" font-family="Times,serif" font-size="14.00">size=1</text>
<polyline fill="none" stroke="black" points="732.5,-189.5 887.5,-189.5 "/>
<text text-anchor="middle" x="810" y="-174.3" font-family="Times,serif" font-size="14.00">1000</text>
</g>
<!-- node18&#45;&gt;node19 -->
<g id="edge36" class="edge">
<title>node18&#45;&gt;node19</title>
<path fill="none" stroke="red" d="M929.64,-249.37C907.51,-239.37 882,-227.47 860.22,-217"/>
<polygon fill="red" stroke="red" points="861.65,-213.81 851.13,-212.61 858.61,-220.11 861.65,-213.81"/>
</g>
<!-- node20 -->
<g id="node20" class="node">
<title>node20</title>
<path fill="pink" stroke="black" d="M917.5,-166.5C917.5,-166.5 1048.5,-166.5 1048.5,-166.5 1054.5,-166.5 1060.5,-172.5 1060.5,-178.5 1060.5,-178.5 1060.5,-200.5 1060.5,-200.5 1060.5,-206.5 1054.5,-212.5 1048.5,-212.5 1048.5,-212.5 917.5,-212.5 917.5,-212.5 911.5,-212.5 905.5,-206.5 905.5,-200.5 905.5,-200.5 905.5,-178.5 905.5,-178.5 905.5,-172.5 911.5,-166.5 917.5,-166.5"/>
<text text-anchor="middle" x="923" y="-197.3" font-family="Times,serif" font-size="14.00">20</text>
<polyline fill="none" stroke="black" points="940.5,-189.5 940.5,-212.5 "/>
<text text-anchor="middle" x="968" y="-197.3" font-family="Times,serif" font-size="14.00">NUM</text>
<polyline fill="none" stroke="black" points="995.5,-189.5 995.5,-212.5 "/>
<text text-anchor="middle" x="1028" y="-197.3" font-family="Times,serif" font-size="14.00">size=1</text>
<polyline fill="none" stroke="black" points="905.5,-189.5 1060.5,-189.5 "/>
<text text-anchor="middle" x="983" y="-174.3" font-family="Times,serif" font-size="14.00">7</text>
</g>
<!-- node18&#45;&gt;node20 -->
<g id="edge38" class="edge">
<title>node18&#45;&gt;node20</title>
<path fill="none" stroke="green" d="M976.91,-249.37C976.28,-241.15 976.1,-231.66 976.38,-222.73"/>
<polygon fill="green" stroke="green" points="979.88,-222.78 976.91,-212.61 972.89,-222.41 979.88,-222.78"/>
</g>
<!-- node19&#45;&gt;node18 -->
<g id="edge37" class="edge">
<title>node19&#45;&gt;node18</title>
<path fill="none" stroke="blue" d="M863.3,-212.61C885.43,-222.6 910.93,-234.5 932.73,-244.97"/>
<polygon fill="blue" stroke="blue" points="931.29,-248.17 941.82,-249.37 934.34,-241.87 931.29,-248.17"/>
</g>
<!-- node20&#45;&gt;node18 -->
<g id="edge39" class="edge">
<title>node20&#45;&gt;node18</title>
<path fill="none" stroke="blue" d="M989.09,-212.61C989.72,-220.82 989.9,-230.31 989.62,-239.25"/>
<polygon fill="blue" stroke="blue" points="986.12,-239.2 989.09,-249.37 993.11,-239.56 986.12,-239.2"/>
</g>
<!-- node21&#45;&gt;node17 -->
<g id="edge41" class="edge">
<title>node21&#45;&gt;node17</title>
<path fill="none" stroke="blue" d="M1134.89,-295.61C1125.95,-304.8 1114.76,-315.6 1104.02,-325.42"/>
<polygon fill="blue" stroke="blue" points="1101.4,-323.07 1096.32,-332.37 1106.09,-328.27 1101.4,-323.07"/>
</g>
<!-- node22 -->
<g id="node22" class="node">
<title>node22</title>
<path fill="lightyellow" stroke="black" d="M1091,-166.5C1091,-166.5 1213,-166.5 1213,-166.5 1219,-166.5 1225,-172.5 1225,-178.5 1225,-178.5 1225,-200.5 1225,-200.5 1225,-206.5 1219,-212.5 1213,-212.5 1213,-212.5 1091,-212.5 1091,-212.5 1085,-212.5 1079,-206.5 1079,-200.5 1079,-200.5 1079,-178.5 1079,-178.5 1079,-172.5 1085,-166.5 1091,-166.5"/>
<text text-anchor="middle" x="1096.5" y="-197.3" font-family="Times,serif" font-size="14.00">22</text>
<polyline fill="none" stroke="black" points="1114,-189.5 1114,-212.5 "/>
<text text-anchor="middle" x="1137" y="-197.3" font-family="Times,serif" font-size="14.00">VAR</text>
<polyline fill="none" stroke="black" points="1160,-189.5 1160,-212.5 "/>
<text text-anchor="middle" x="1192.5" y="-197.3" font-family="Times,serif" font-size="14.00">size=1</text>
<polyline fill="none" stroke="black" points="1079,-189.5 1225,-189.5 "/>
<text text-anchor="middle" x="1152" y="-174.3" font-family="Times,serif" font-size="14.00">x</text>
</g>
<!-- node21&#45;&gt;node22 -->
<g id="edge42" class="edge">
<title>node21&#45;&gt;node22</title>
<path fill="none" stroke="red" d="M1145.91,-249.37C1145.28,-241.15 1145.1,-231.66 1145.38,-222.73"/>
<polygon fill="red" stroke="red" points="1148.88,-222.78 1145.91,-212.61 1141.89,-222.41 1148.88,-222.78"/>
</g>
<!-- node23 -->
<g id="node23" class="node">
<title>node23</title>
<path fill="peachpuff" stroke="black" d="M1255,-166.5C1255,-166.5 1369,-166.5 1369,-166.5 1375,-166.5 1381,-172.5 1381,-178.5 1381,-178.5 1381,-200.5 1381,-200.5 1381,-206.5 1375,-212.5 1369,-212.5 1369,-212.5 1255,-212.5 1255,-212.5 1249,-212.5 1243,-206.5 1243,-200.5 1243,-200.5 1243,-178.5 1243,-178.5 1243,-172.5 1249,-166.5 1255,-166.5"/>
<text text-anchor="middle" x="1260.5" y="-197.3" font-family="Times,serif" font-size="14.00">23</text>
<polyline fill="none" stroke="black" points="1278,-189.5 1278,-212.5 "/>
<text text-anchor="middle" x="1297" y="-197.3" font-family="Times,serif" font-size="14.00">OP</text>
<polyline fill="none" stroke="black" points="1316,-189.5 1316,-212.5 "/>
<text text-anchor="middle" x="1348.5" y="-197.3" font-family="Times,serif" font-size="14.00">size=5</text>
<polyline fill="none" stroke="black" points="1243,-189.5 1381,-189.5 "/>
<text text-anchor="middle" x="1312" y="-174.3" font-family="Times,serif" font-size="14.00">&#45;</text>
</g>
<!-- node21&#45;&gt;node23 -->
<g id="edge44" class="edge">
<title>node21&#45;&gt;node23</title>
<path fill="none" stroke="green" d="M1189.63,-249.37C1208.53,-239.41 1231.81,-227.58 1253,-217.14"/>
<polygon fill="green" stroke="green" points="1254.8,-220.15 1262.24,-212.61 1251.72,-213.86 1254.8,-220.15"/>
</g>
<!-- node22&#45;&gt;node21 -->
<g id="edge43" class="edge">
<title>node22&#45;&gt;node21</title>
<path fill="none" stroke="blue" d="M1158.09,-212.61C1158.72,-220.82 1158.9,-230.31 1158.62,-239.25"/>
<polygon fill="blue" stroke="blue" points="1155.12,-239.2 1158.09,-249.37 1162.11,-239.56 1155.12,-239.2"/>
</g>
<!-- node23&#45;&gt;node21 -->
<g id="edge45" class="edge">
<title>node23&#45;&gt;node21</title>
<path fill="none" stroke="blue" d="M1274.42,-212.61C1255.53,-222.56 1232.25,-234.39 1211.06,-244.83"/>
<polygon fill="blue" stroke="blue" points="1209.25,-241.82 1201.81,-249.37 1212.33,-248.11 1209.25,-241.82"/>
</g>
<!-- node24 -->
<g id="node24" class="node">
<title>node24</title>
<path fill="peachpuff" stroke="black" d="M1172,-83.5C1172,-83.5 1286,-83.5 1286,-83.5 1292,-83.5 1298,-89.5 1298,-95.5 1298,-95.5 1298,-117.5 1298,-117.5 1298,-123.5 1292,-129.5 1286,-129.5 1286,-129.5 1172,-129.5 1172,-129.5 1166,-129.5 1160,-123.5 1160,-117.5 1160,-117.5 1160,-95.5 1160,-95.5 1160,-89.5 1166,-83.5 1172,-83.5"/>
<text text-anchor="middle" x="1177.5" y="-114.3" font-family="Times,serif" font-size="14.00">24</text>
<polyline fill="none" stroke="black" points="1195,-106.5 1195,-129.5 "/>
<text text-anchor="middle" x="1214" y="-114.3" font-family="Times,serif" font-size="14.00">OP</text>
<polyline fill="none" stroke="black" points="1233,-106.5 1233,-129.5 "/>
<text text-anchor="middle" x="1265.5" y="-114.3" font-family="Times,serif" font-size="14.00">size=3</text>
<polyline fill="none" stroke="black" points="1160,-106.5 1298,-106.5 "/>
<text text-anchor="middle" x="1229" y="-91.3" font-family="Times,serif" font-size="14.00">&#45;</text>
</g>
<!-- node23&#45;&gt;node24 -->
<g id="edge46" class="edge">
<title>node23&#45;&gt;node24</title>
<path fill="none" stroke="red" d="M1283.23,-166.37C1273.2,-157.26 1262.11,-146.58 1252.54,-136.83"/>
<polygon fill="red" stroke="red" points="1255.03,-134.37 1245.56,-129.61 1249.99,-139.23 1255.03,-134.37"/>
</g>
<!-- node27 -->
<g id="node27" class="node">
<title>node27</title>
<path fill="pink" stroke="black" d="M1328.5,-83.5C1328.5,-83.5 1459.5,-83.5 1459.5,-83.5 1465.5,-83.5 1471.5,-89.5 1471.5,-95.5 1471.5,-95.5 1471.5,-117.5 1471.5,-117.5 1471.5,-123.5 1465.5,-129.5 1459.5,-129.5 1459.5,-129.5 1328.5,-129.5 1328.5,-129.5 1322.5,-129.5 1316.5,-123.5 1316.5,-117.5 1316.5,-117.5 1316.5,-95.5 1316.5,-95.5 1316.5,-89.5 1322.5,-83.5 1328.5,-83.5"/>
<text text-anchor="middle" x="1334" y="-114.3" font-family="Times,serif" font-size="14.00">27</text>
<polyline fill="none" stroke="black" points="1351.5,-106.5 1351.5,-129.5 "/>
<text text-anchor="middle" x="1379" y="-114.3" font-family="Times,serif" font-size="14.00">NUM</text>
<polyline fill="none" stroke="black" points="1406.5,-106.5 1406.5,-129.5 "/>
<text text-anchor="middle" x="1439" y="-114.3" font-family="Times,serif" font-size="14.00">size=1</text>
<polyline fill="none" stroke="black" points="1316.5,-106.5 1471.5,-106.5 "/>
<text text-anchor="middle" x="1394" y="-91.3" font-family="Times,serif" font-size="14.00">1</text>
</g>
<!-- node23&#45;&gt;node27 -->
<g id="edge52" class="edge">
<title>node23&#45;&gt;node27</title>
<path fill="none" stroke="green" d="M1328.32,-166.37C1336.92,-157.17 1347.71,-146.37 1358.09,-136.55"/>
<polygon fill="green" stroke="green" points="1360.61,-138.99 1365.53,-129.61 1355.83,-133.87 1360.61,-138.99"/>
</g>
<!-- node24&#45;&gt;node23 -->
<g id="edge47" class="edge">
<title>node24&#45;&gt;node23</title>
<path fill="none" stroke="blue" d="M1257.74,-129.61C1267.77,-138.71 1278.86,-149.39 1288.43,-159.14"/>
<polygon fill="blue" stroke="blue" points="1285.95,-161.6 1295.41,-166.37 1290.98,-156.74 1285.95,-161.6"/>
</g>
<!-- node25 -->
<g id="node25" class="node">
<title>node25</title>
<path fill="pink" stroke="black" d="M1076.5,-0.5C1076.5,-0.5 1207.5,-0.5 1207.5,-0.5 1213.5,-0.5 1219.5,-6.5 1219.5,-12.5 1219.5,-12.5 1219.5,-34.5 1219.5,-34.5 1219.5,-40.5 1213.5,-46.5 1207.5,-46.5 1207.5,-46.5 1076.5,-46.5 1076.5,-46.5 1070.5,-46.5 1064.5,-40.5 1064.5,-34.5 1064.5,-34.5 1064.5,-12.5 1064.5,-12.5 1064.5,-6.5 1070.5,-0.5 1076.5,-0.5"/>
<text text-anchor="middle" x="1082" y="-31.3" font-family="Times,serif" font-size="14.00">25</text>
<polyline fill="none" stroke="black" points="1099.5,-23.5 1099.5,-46.5 "/>
<text text-anchor="middle" x="1127" y="-31.3" font-family="Times,serif" font-size="14.00">NUM</text>
<polyline fill="none" stroke="black" points="1154.5,-23.5 1154.5,-46.5 "/>
<text text-anchor="middle" x="1187" y="-31.3" font-family="Times,serif" font-size="14.00">size=1</text>
<polyline fill="none" stroke="black" points="1064.5,-23.5 1219.5,-23.5 "/>
<text text-anchor="middle" x="1142" y="-8.3" font-family="Times,serif" font-size="14.00">1000</text>
</g>
<!-- node24&#45;&gt;node25 -->
<g id="edge48" class="edge">
<title>node24&#45;&gt;node25</title>
<path fill="none" stroke="red" d="M1199.14,-83.37C1188.65,-74.26 1177.04,-63.58 1166.99,-53.83"/>
<polygon fill="red" stroke="red" points="1169.24,-51.13 1159.66,-46.61 1164.32,-56.12 1169.24,-51.13"/>
</g>
<!-- node26 -->
<g id="node26" class="node">
<title>node26</title>
<path fill="pink" stroke="black" d="M1249.5,-0.5C1249.5,-0.5 1380.5,-0.5 1380.5,-0.5 1386.5,-0.5 1392.5,-6.5 1392.5,-12.5 1392.5,-12.5 1392.5,-34.5 1392.5,-34.5 1392.5,-40.5 1386.5,-46.5 1380.5,-46.5 1380.5,-46.5 1249.5,-46.5 1249.5,-46.5 1243.5,-46.5 1237.5,-40.5 1237.5,-34.5 1237.5,-34.5 1237.5,-12.5 1237.5,-12.5 1237.5,-6.5 1243.5,-0.5 1249.5,-0.5"/>
<text text-anchor="middle" x="1255" y="-31.3" font-family="Times,serif" font-size="14.00">26</text>
<polyline fill="none" stroke="black" points="1272.5,-23.5 1272.5,-46.5 "/>
<text text-anchor="middle" x="1300" y="-31.3" font-family="Times,serif" font-size="14.00">NUM</text>
<polyline fill="none" stroke="black" points="1327.5,-23.5 1327.5,-46.5 "/>
<text text-anchor="middle" x="1360" y="-31.3" font-family="Times,serif" font-size="14.00">size=1</text>
<polyline fill="none" stroke="black" points="1237.5,-23.5 1392.5,-23.5 "/>
<text text-anchor="middle" x="1315" y="-8.3" font-family="Times,serif" font-size="14.00">7</text>
</g>
<!-- node24&#45;&gt;node26 -->
<g id="edge50" class="edge">
<title>node24&#45;&gt;node26</title>
<path fill="none" stroke="green" d="M1246.41,-83.37C1255.55,-74.08 1267.02,-63.16 1277.97,-53.26"/>
<polygon fill="green" stroke="green" points="1280.3,-55.87 1285.44,-46.61 1275.65,-50.65 1280.3,-55.87"/>
</g>
<!-- node25&#45;&gt;node24 -->
<g id="edge49" class="edge">
<title>node25&#45;&gt;node24</title>
<path fill="none" stroke="blue" d="M1171.83,-46.61C1182.31,-55.71 1193.93,-66.39 1203.98,-76.14"/>
<polygon fill="blue" stroke="blue" points="1201.74,-78.84 1211.32,-83.37 1206.65,-73.85 1201.74,-78.84"/>
</g>
<!-- node26&#45;&gt;node24 -->
<g id="edge51" class="edge">
<title>node26&#45;&gt;node24</title>
<path fill="none" stroke="blue" d="M1297.62,-46.61C1288.48,-55.89 1277.02,-66.81 1266.06,-76.71"/>
<polygon fill="blue" stroke="blue" points="1263.73,-74.1 1258.59,-83.37 1268.38,-79.33 1263.73,-74.1"/>
</g>
<!-- node27&#45;&gt;node23 -->
<g id="edge53" class="edge">
<title>node27&#45;&gt;node23</title>
<path fill="none" stroke="blue" d="M1377.71,-129.61C1369.11,-138.8 1358.32,-149.6 1347.94,-159.42"/>
<polygon fill="blue" stroke="blue" points="1345.42,-156.99 1340.5,-166.37 1350.2,-162.1 1345.42,-156.99"/>
</g>
<!-- node28&#45;&gt;node16 -->
<g id="edge55" class="edge">
<title>node28&#45;&gt;node16</title>
<path fill="none" stroke="blue" d="M1218.89,-378.61C1209.95,-387.8 1198.76,-398.6 1188.02,-408.42"/>
<polygon fill="blue" stroke="blue" points="1185.4,-406.07 1180.32,-415.37 1190.09,-411.27 1185.4,-406.07"/>
</g>
<!-- node29&#45;&gt;node1 -->
<g id="edge57" class="edge">
<title>node29&#45;&gt;node1</title>
<path fill="none" stroke="blue" d="M1523.99,-544.52C1498.05,-554.83 1466.13,-567.18 1437.69,-577.9"/>
<polygon fill="blue" stroke="blue" points="1436.32,-574.68 1428.19,-581.47 1438.78,-581.23 1436.32,-574.68"/>
</g>
<!-- node30 -->
<g id="node30" class="node">
<title>node30</title>
<path fill="peachpuff" stroke="black" d="M1513.5,-415.5C1513.5,-415.5 1636.5,-415.5 1636.5,-415.5 1642.5,-415.5 1648.5,-421.5 1648.5,-427.5 1648.5,-427.5 1648.5,-449.5 1648.5,-449.5 1648.5,-455.5 1642.5,-461.5 1636.5,-461.5 1636.5,-461.5 1513.5,-461.5 1513.5,-461.5 1507.5,-461.5 1501.5,-455.5 1501.5,-449.5 1501.5,-449.5 1501.5,-427.5 1501.5,-427.5 1501.5,-421.5 1507.5,-415.5 1513.5,-415.5"/>
<text text-anchor="middle" x="1519" y="-446.3" font-family="Times,serif" font-size="14.00">30</text>
<polyline fill="none" stroke="black" points="1536.5,-438.5 1536.5,-461.5 "/>
<text text-anchor="middle" x="1555.5" y="-446.3" font-family="Times,serif" font-size="14.00">OP</text>
<polyline fill="none" stroke="black" points="1574.5,-438.5 1574.5,-461.5 "/>
<text text-anchor="middle" x="1611.5" y="-446.3" font-family="Times,serif" font-size="14.00">size=15</text>
<polyline fill="none" stroke="black" points="1501.5,-438.5 1648.5,-438.5 "/>
<text text-anchor="middle" x="1575" y="-423.3" font-family="Times,serif" font-size="14.00">+</text>
</g>
<!-- node29&#45;&gt;node30 -->
<g id="edge58" class="edge">
<title>node29&#45;&gt;node30</title>
<path fill="none" stroke="red" d="M1568.91,-498.37C1568.28,-490.15 1568.1,-480.66 1568.38,-471.73"/>
<polygon fill="red" stroke="red" points="1571.88,-471.78 1568.91,-461.61 1564.89,-471.41 1571.88,-471.78"/>
</g>
<!-- node45 -->
<g id="node45" class="node">
<title>node45</title>
<path fill="peachpuff" stroke="black" d="M2000.5,-415.5C2000.5,-415.5 2123.5,-415.5 2123.5,-415.5 2129.5,-415.5 2135.5,-421.5 2135.5,-427.5 2135.5,-427.5 2135.5,-449.5 2135.5,-449.5 2135.5,-455.5 2129.5,-461.5 2123.5,-461.5 2123.5,-461.5 2000.5,-461.5 2000.5,-461.5 1994.5,-461.5 1988.5,-455.5 1988.5,-449.5 1988.5,-449.5 1988.5,-427.5 1988.5,-427.5 1988.5,-421.5 1994.5,-415.5 2000.5,-415.5"/>
<text text-anchor="middle" x="2006" y="-446.3" font-family="Times,serif" font-size="14.00">45</text>
<polyline fill="none" stroke="black" points="2023.5,-438.5 2023.5,-461.5 "/>
<text text-anchor="middle" x="2042.5" y="-446.3" font-family="Times,serif" font-size="14.00">OP</text>
<polyline fill="none" stroke="black" points="2061.5,-438.5 2061.5,-461.5 "/>
<text text-anchor="middle" x="2098.5" y="-446.3" font-family="Times,serif" font-size="14.00">size=11</text>
<polyline fill="none" stroke="black" points="1988.5,-438.5 2135.5,-438.5 "/>
<text text-anchor="middle" x="2062" y="-423.3" font-family="Times,serif" font-size="14.00">*</text>
</g>
<!-- node29&#45;&gt;node45 -->
<g id="edge88" class="edge">
<title>node29&#45;&gt;node45</title>
<path fill="none" stroke="green" d="M1648.66,-507.4C1737.27,-492.3 1885.55,-467.64 1978.38,-452.56"/>
<polygon fill="green" stroke="green" points="1978.99,-456 1988.3,-450.95 1977.87,-449.09 1978.99,-456"/>
</g>
<!-- node30&#45;&gt;node29 -->
<g id="edge59" class="edge">
<title>node30&#45;&gt;node29</title>
<path fill="none" stroke="blue" d="M1581.09,-461.61C1581.72,-469.82 1581.9,-479.31 1581.62,-488.25"/>
<polygon fill="blue" stroke="blue" points="1578.12,-488.2 1581.09,-498.37 1585.11,-488.56 1578.12,-488.2"/>
</g>
<!-- node31 -->
<g id="node31" class="node">
<title>node31</title>
<path fill="peachpuff" stroke="black" d="M1438,-332.5C1438,-332.5 1552,-332.5 1552,-332.5 1558,-332.5 1564,-338.5 1564,-344.5 1564,-344.5 1564,-366.5 1564,-366.5 1564,-372.5 1558,-378.5 1552,-378.5 1552,-378.5 1438,-378.5 1438,-378.5 1432,-378.5 1426,-372.5 1426,-366.5 1426,-366.5 1426,-344.5 1426,-344.5 1426,-338.5 1432,-332.5 1438,-332.5"/>
<text text-anchor="middle" x="1443.5" y="-363.3" font-family="Times,serif" font-size="14.00">31</text>
<polyline fill="none" stroke="black" points="1461,-355.5 1461,-378.5 "/>
<text text-anchor="middle" x="1480" y="-363.3" font-family="Times,serif" font-size="14.00">OP</text>
<polyline fill="none" stroke="black" points="1499,-355.5 1499,-378.5 "/>
<text text-anchor="middle" x="1531.5" y="-363.3" font-family="Times,serif" font-size="14.00">size=5</text>
<polyline fill="none" stroke="black" points="1426,-355.5 1564,-355.5 "/>
<text text-anchor="middle" x="1495" y="-340.3" font-family="Times,serif" font-size="14.00">*</text>
</g>
<!-- node30&#45;&gt;node31 -->
<g id="edge60" class="edge">
<title>node30&#45;&gt;node31</title>
<path fill="none" stroke="red" d="M1547.05,-415.37C1537.45,-406.35 1526.87,-395.79 1517.73,-386.12"/>
<polygon fill="red" stroke="red" points="1520.12,-383.55 1510.75,-378.61 1514.99,-388.32 1520.12,-383.55"/>
</g>
<!-- node36 -->
<g id="node36" class="node">
<title>node36</title>
<path fill="peachpuff" stroke="black" d="M1598,-332.5C1598,-332.5 1712,-332.5 1712,-332.5 1718,-332.5 1724,-338.5 1724,-344.5 1724,-344.5 1724,-366.5 1724,-366.5 1724,-372.5 1718,-378.5 1712,-378.5 1712,-378.5 1598,-378.5 1598,-378.5 1592,-378.5 1586,-372.5 1586,-366.5 1586,-366.5 1586,-344.5 1586,-344.5 1586,-338.5 1592,-332.5 1598,-332.5"/>
<text text-anchor="middle" x="1603.5" y="-363.3" font-family="Times,serif" font-size="14.00">36</text>
<polyline fill="none" stroke="black" points="1621,-355.5 1621,-378.5 "/>
<text text-anchor="middle" x="1640" y="-363.3" font-family="Times,serif" font-size="14.00">OP</text>
<polyline fill="none" stroke="black" points="1659,-355.5 1659,-378.5 "/>
<text text-anchor="middle" x="1691.5" y="-363.3" font-family="Times,serif" font-size="14.00">size=9</text>
<polyline fill="none" stroke="black" points="1586,-355.5 1724,-355.5 "/>
<text text-anchor="middle" x="1655" y="-340.3" font-family="Times,serif" font-size="14.00">*</text>
</g>
<!-- node30&#45;&gt;node36 -->
<g id="edge70" class="edge">
<title>node30&#45;&gt;node36</title>
<path fill="none" stroke="green" d="M1590.77,-415.37C1599.15,-406.17 1609.67,-395.37 1619.81,-385.55"/>
<polygon fill="green" stroke="green" points="1622.26,-388.04 1627.08,-378.61 1617.43,-382.98 1622.26,-388.04"/>
</g>
<!-- node31&#45;&gt;node30 -->
<g id="edge61" class="edge">
<title>node31&#45;&gt;node30</title>
<path fill="none" stroke="blue" d="M1522.92,-378.61C1532.52,-387.62 1543.1,-398.18 1552.25,-407.85"/>
<polygon fill="blue" stroke="blue" points="1549.86,-410.42 1559.23,-415.37 1554.99,-405.66 1549.86,-410.42"/>
</g>
<!-- node32 -->
<g id="node32" class="node">
<title>node32</title>
<path fill="pink" stroke="black" d="M1264.5,-249.5C1264.5,-249.5 1395.5,-249.5 1395.5,-249.5 1401.5,-249.5 1407.5,-255.5 1407.5,-261.5 1407.5,-261.5 1407.5,-283.5 1407.5,-283.5 1407.5,-289.5 1401.5,-295.5 1395.5,-295.5 1395.5,-295.5 1264.5,-295.5 1264.5,-295.5 1258.5,-295.5 1252.5,-289.5 1252.5,-283.5 1252.5,-283.5 1252.5,-261.5 1252.5,-261.5 1252.5,-255.5 1258.5,-249.5 1264.5,-249.5"/>
<text text-anchor="middle" x="1270" y="-280.3" font-family="Times,serif" font-size="14.00">32</text>
<polyline fill="none" stroke="black" points="1287.5,-272.5 1287.5,-295.5 "/>
<text text-anchor="middle" x="1315" y="-280.3" font-family="Times,serif" font-size="14.00">NUM</text>
<polyline fill="none" stroke="black" points="1342.5,-272.5 1342.5,-295.5 "/>
<text text-anchor="middle" x="1375" y="-280.3" font-family="Times,serif" font-size="14.00">size=1</text>
<polyline fill="none" stroke="black" points="1252.5,-272.5 1407.5,-272.5 "/>
<text text-anchor="middle" x="1330" y="-257.3" font-family="Times,serif" font-size="14.00">1</text>
</g>
<!-- node31&#45;&gt;node32 -->
<g id="edge62" class="edge">
<title>node31&#45;&gt;node32</title>
<path fill="none" stroke="red" d="M1443.82,-332.37C1422.78,-322.41 1398.57,-310.58 1377.88,-300.14"/>
<polygon fill="red" stroke="red" points="1379.45,-297.01 1368.94,-295.61 1376.28,-303.25 1379.45,-297.01"/>
</g>
<!-- node33 -->
<g id="node33" class="node">
<title>node33</title>
<path fill="peachpuff" stroke="black" d="M1438,-249.5C1438,-249.5 1552,-249.5 1552,-249.5 1558,-249.5 1564,-255.5 1564,-261.5 1564,-261.5 1564,-283.5 1564,-283.5 1564,-289.5 1558,-295.5 1552,-295.5 1552,-295.5 1438,-295.5 1438,-295.5 1432,-295.5 1426,-289.5 1426,-283.5 1426,-283.5 1426,-261.5 1426,-261.5 1426,-255.5 1432,-249.5 1438,-249.5"/>
<text text-anchor="middle" x="1443.5" y="-280.3" font-family="Times,serif" font-size="14.00">33</text>
<polyline fill="none" stroke="black" points="1461,-272.5 1461,-295.5 "/>
<text text-anchor="middle" x="1480" y="-280.3" font-family="Times,serif" font-size="14.00">OP</text>
<polyline fill="none" stroke="black" points="1499,-272.5 1499,-295.5 "/>
<text text-anchor="middle" x="1531.5" y="-280.3" font-family="Times,serif" font-size="14.00">size=3</text>
<polyline fill="none" stroke="black" points="1426,-272.5 1564,-272.5 "/>
<text text-anchor="middle" x="1495" y="-257.3" font-family="Times,serif" font-size="14.00">log</text>
</g>
<!-- node31&#45;&gt;node33 -->
<g id="edge64" class="edge">
<title>node31&#45;&gt;node33</title>
<path fill="none" stroke="green" d="M1488.91,-332.37C1488.28,-324.15 1488.1,-314.66 1488.38,-305.73"/>
<polygon fill="green" stroke="green" points="1491.88,-305.78 1488.91,-295.61 1484.89,-305.41 1491.88,-305.78"/>
</g>
<!-- node32&#45;&gt;node31 -->
<g id="edge63" class="edge">
<title>node32&#45;&gt;node31</title>
<path fill="none" stroke="blue" d="M1381.12,-295.61C1402.16,-305.56 1426.37,-317.39 1447.07,-327.83"/>
<polygon fill="blue" stroke="blue" points="1445.5,-330.96 1456,-332.37 1448.67,-324.72 1445.5,-330.96"/>
</g>
<!-- node33&#45;&gt;node31 -->
<g id="edge65" class="edge">
<title>node33&#45;&gt;node31</title>
<path fill="none" stroke="blue" d="M1501.09,-295.61C1501.72,-303.82 1501.9,-313.31 1501.62,-322.25"/>
<polygon fill="blue" stroke="blue" points="1498.12,-322.2 1501.09,-332.37 1505.11,-322.56 1498.12,-322.2"/>
</g>
<!-- node34 -->
<g id="node34" class="node">
<title>node34</title>
<path fill="pink" stroke="black" d="M1411.5,-166.5C1411.5,-166.5 1542.5,-166.5 1542.5,-166.5 1548.5,-166.5 1554.5,-172.5 1554.5,-178.5 1554.5,-178.5 1554.5,-200.5 1554.5,-200.5 1554.5,-206.5 1548.5,-212.5 1542.5,-212.5 1542.5,-212.5 1411.5,-212.5 1411.5,-212.5 1405.5,-212.5 1399.5,-206.5 1399.5,-200.5 1399.5,-200.5 1399.5,-178.5 1399.5,-178.5 1399.5,-172.5 1405.5,-166.5 1411.5,-166.5"/>
<text text-anchor="middle" x="1417" y="-197.3" font-family="Times,serif" font-size="14.00">34</text>
<polyline fill="none" stroke="black" points="1434.5,-189.5 1434.5,-212.5 "/>
<text text-anchor="middle" x="1462" y="-197.3" font-family="Times,serif" font-size="14.00">NUM</text>
<polyline fill="none" stroke="black" points="1489.5,-189.5 1489.5,-212.5 "/>
<text text-anchor="middle" x="1522" y="-197.3" font-family="Times,serif" font-size="14.00">size=1</text>
<polyline fill="none" stroke="black" points="1399.5,-189.5 1554.5,-189.5 "/>
<text text-anchor="middle" x="1477" y="-174.3" font-family="Times,serif" font-size="14.00">233685185</text>
</g>
<!-- node33&#45;&gt;node34 -->
<g id="edge66" class="edge">
<title>node33&#45;&gt;node34</title>
<path fill="none" stroke="red" d="M1483.99,-249.37C1481.53,-241.15 1479.25,-231.66 1477.54,-222.73"/>
<polygon fill="red" stroke="red" points="1480.95,-221.88 1475.82,-212.61 1474.04,-223.05 1480.95,-221.88"/>
</g>
<!-- node35 -->
<g id="node35" class="node">
<title>node35</title>
<path fill="lightyellow" stroke="black" d="M1585,-166.5C1585,-166.5 1707,-166.5 1707,-166.5 1713,-166.5 1719,-172.5 1719,-178.5 1719,-178.5 1719,-200.5 1719,-200.5 1719,-206.5 1713,-212.5 1707,-212.5 1707,-212.5 1585,-212.5 1585,-212.5 1579,-212.5 1573,-206.5 1573,-200.5 1573,-200.5 1573,-178.5 1573,-178.5 1573,-172.5 1579,-166.5 1585,-166.5"/>
<text text-anchor="middle" x="1590.5" y="-197.3" font-family="Times,serif" font-size="14.00">35</text>
<polyline fill="none" stroke="black" points="1608,-189.5 1608,-212.5 "/>
<text text-anchor="middle" x="1631" y="-197.3" font-family="Times,serif" font-size="14.00">VAR</text>
<polyline fill="none" stroke="black" points="1654,-189.5 1654,-212.5 "/>
<text text-anchor="middle" x="1686.5" y="-197.3" font-family="Times,serif" font-size="14.00">size=1</text>
<polyline fill="none" stroke="black" points="1573,-189.5 1719,-189.5 "/>
<text text-anchor="middle" x="1646" y="-174.3" font-family="Times,serif" font-size="14.00">x</text>
</g>
<!-- node33&#45;&gt;node35 -->
<g id="edge68" class="edge">
<title>node33&#45;&gt;node35</title>
<path fill="none" stroke="green" d="M1530.17,-249.37C1547.88,-239.46 1569.73,-227.68 1589.69,-217.28"/>
<polygon fill="green" stroke="green" points="1591.43,-220.32 1598.7,-212.61 1588.21,-214.1 1591.43,-220.32"/>
</g>
<!-- node34&#45;&gt;node33 -->
<g id="edge67" class="edge">
<title>node34&#45;&gt;node33</title>
<path fill="none" stroke="blue" d="M1488,-212.61C1490.46,-220.82 1492.75,-230.31 1494.46,-239.25"/>
<polygon fill="blue" stroke="blue" points="1491.05,-240.09 1496.17,-249.37 1497.95,-238.92 1491.05,-240.09"/>
</g>
<!-- node35&#45;&gt;node33 -->
<g id="edge69" class="edge">
<title>node35&#45;&gt;node33</title>
<path fill="none" stroke="blue" d="M1610.88,-212.61C1593.17,-222.51 1571.33,-234.29 1551.37,-244.69"/>
<polygon fill="blue" stroke="blue" points="1549.62,-241.66 1542.35,-249.37 1552.84,-247.87 1549.62,-241.66"/>
</g>
<!-- node36&#45;&gt;node30 -->
<g id="edge71" class="edge">
<title>node36&#45;&gt;node30</title>
<path fill="none" stroke="blue" d="M1639.25,-378.61C1630.88,-387.8 1620.36,-398.6 1610.22,-408.42"/>
<polygon fill="blue" stroke="blue" points="1607.77,-405.93 1602.95,-415.37 1612.6,-410.99 1607.77,-405.93"/>
</g>
<!-- node37 -->
<g id="node37" class="node">
<title>node37</title>
<path fill="lightyellow" stroke="black" d="M1594,-249.5C1594,-249.5 1716,-249.5 1716,-249.5 1722,-249.5 1728,-255.5 1728,-261.5 1728,-261.5 1728,-283.5 1728,-283.5 1728,-289.5 1722,-295.5 1716,-295.5 1716,-295.5 1594,-295.5 1594,-295.5 1588,-295.5 1582,-289.5 1582,-283.5 1582,-283.5 1582,-261.5 1582,-261.5 1582,-255.5 1588,-249.5 1594,-249.5"/>
<text text-anchor="middle" x="1599.5" y="-280.3" font-family="Times,serif" font-size="14.00">37</text>
<polyline fill="none" stroke="black" points="1617,-272.5 1617,-295.5 "/>
<text text-anchor="middle" x="1640" y="-280.3" font-family="Times,serif" font-size="14.00">VAR</text>
<polyline fill="none" stroke="black" points="1663,-272.5 1663,-295.5 "/>
<text text-anchor="middle" x="1695.5" y="-280.3" font-family="Times,serif" font-size="14.00">size=1</text>
<polyline fill="none" stroke="black" points="1582,-272.5 1728,-272.5 "/>
<text text-anchor="middle" x="1655" y="-257.3" font-family="Times,serif" font-size="14.00">x</text>
</g>
<!-- node36&#45;&gt;node37 -->
<g id="edge72" class="edge">
<title>node36&#45;&gt;node37</title>
<path fill="none" stroke="red" d="M1648.91,-332.37C1648.28,-324.15 1648.1,-314.66 1648.38,-305.73"/>
<polygon fill="red" stroke="red" points="1651.88,-305.78 1648.91,-295.61 1644.89,-305.41 1651.88,-305.78"/>
</g>
<!-- node38 -->
<g id="node38" class="node">
<title>node38</title>
<path fill="peachpuff" stroke="black" d="M1758,-249.5C1758,-249.5 1872,-249.5 1872,-249.5 1878,-249.5 1884,-255.5 1884,-261.5 1884,-261.5 1884,-283.5 1884,-283.5 1884,-289.5 1878,-295.5 1872,-295.5 1872,-295.5 1758,-295.5 1758,-295.5 1752,-295.5 1746,-289.5 1746,-283.5 1746,-283.5 1746,-261.5 1746,-261.5 1746,-255.5 1752,-249.5 1758,-249.5"/>
<text text-anchor="middle" x="1763.5" y="-280.3" font-family="Times,serif" font-size="14.00">38</text>
<polyline fill="none" stroke="black" points="1781,-272.5 1781,-295.5 "/>
<text text-anchor="middle" x="1800" y="-280.3" font-family="Times,serif" font-size="14.00">OP</text>
<polyline fill="none" stroke="black" points="1819,-272.5 1819,-295.5 "/>
<text text-anchor="middle" x="1851.5" y="-280.3" font-family="Times,serif" font-size="14.00">size=7</text>
<polyline fill="none" stroke="black" points="1746,-272.5 1884,-272.5 "/>
<text text-anchor="middle" x="1815" y="-257.3" font-family="Times,serif" font-size="14.00">/</text>
</g>
<!-- node36&#45;&gt;node38 -->
<g id="edge74" class="edge">
<title>node36&#45;&gt;node38</title>
<path fill="none" stroke="green" d="M1692.63,-332.37C1711.53,-322.41 1734.81,-310.58 1756,-300.14"/>
<polygon fill="green" stroke="green" points="1757.8,-303.15 1765.24,-295.61 1754.72,-296.86 1757.8,-303.15"/>
</g>
<!-- node37&#45;&gt;node36 -->
<g id="edge73" class="edge">
<title>node37&#45;&gt;node36</title>
<path fill="none" stroke="blue" d="M1661.09,-295.61C1661.72,-303.82 1661.9,-313.31 1661.62,-322.25"/>
<polygon fill="blue" stroke="blue" points="1658.12,-322.2 1661.09,-332.37 1665.11,-322.56 1658.12,-322.2"/>
</g>
<!-- node38&#45;&gt;node36 -->
<g id="edge75" class="edge">
<title>node38&#45;&gt;node36</title>
<path fill="none" stroke="blue" d="M1777.42,-295.61C1758.53,-305.56 1735.25,-317.39 1714.06,-327.83"/>
<polygon fill="blue" stroke="blue" points="1712.25,-324.82 1704.81,-332.37 1715.33,-331.11 1712.25,-324.82"/>
</g>
<!-- node39 -->
<g id="node39" class="node">
<title>node39</title>
<path fill="pink" stroke="black" d="M1749.5,-166.5C1749.5,-166.5 1880.5,-166.5 1880.5,-166.5 1886.5,-166.5 1892.5,-172.5 1892.5,-178.5 1892.5,-178.5 1892.5,-200.5 1892.5,-200.5 1892.5,-206.5 1886.5,-212.5 1880.5,-212.5 1880.5,-212.5 1749.5,-212.5 1749.5,-212.5 1743.5,-212.5 1737.5,-206.5 1737.5,-200.5 1737.5,-200.5 1737.5,-178.5 1737.5,-178.5 1737.5,-172.5 1743.5,-166.5 1749.5,-166.5"/>
<text text-anchor="middle" x="1755" y="-197.3" font-family="Times,serif" font-size="14.00">39</text>
<polyline fill="none" stroke="black" points="1772.5,-189.5 1772.5,-212.5 "/>
<text text-anchor="middle" x="1800" y="-197.3" font-family="Times,serif" font-size="14.00">NUM</text>
<polyline fill="none" stroke="black" points="1827.5,-189.5 1827.5,-212.5 "/>
<text text-anchor="middle" x="1860" y="-197.3" font-family="Times,serif" font-size="14.00">size=1</text>
<polyline fill="none" stroke="black" points="1737.5,-189.5 1892.5,-189.5 "/>
<text text-anchor="middle" x="1815" y="-174.3" font-family="Times,serif" font-size="14.00">1</text>
</g>
<!-- node38&#45;&gt;node39 -->
<g id="edge76" class="edge">
<title>node38&#45;&gt;node39</title>
<path fill="none" stroke="red" d="M1808.91,-249.37C1808.28,-241.15 1808.1,-231.66 1808.38,-222.73"/>
<polygon fill="red" stroke="red" points="1811.88,-222.78 1808.91,-212.61 1804.89,-222.41 1811.88,-222.78"/>
</g>
<!-- node40 -->
<g id="node40" class="node">
<title>node40</title>
<path fill="peachpuff" stroke="black" d="M1923,-166.5C1923,-166.5 2037,-166.5 2037,-166.5 2043,-166.5 2049,-172.5 2049,-178.5 2049,-178.5 2049,-200.5 2049,-200.5 2049,-206.5 2043,-212.5 2037,-212.5 2037,-212.5 1923,-212.5 1923,-212.5 1917,-212.5 1911,-206.5 1911,-200.5 1911,-200.5 1911,-178.5 1911,-178.5 1911,-172.5 1917,-166.5 1923,-166.5"/>
<text text-anchor="middle" x="1928.5" y="-197.3" font-family="Times,serif" font-size="14.00">40</text>
<polyline fill="none" stroke="black" points="1946,-189.5 1946,-212.5 "/>
<text text-anchor="middle" x="1965" y="-197.3" font-family="Times,serif" font-size="14.00">OP</text>
<polyline fill="none" stroke="black" points="1984,-189.5 1984,-212.5 "/>
<text text-anchor="middle" x="2016.5" y="-197.3" font-family="Times,serif" font-size="14.00">size=5</text>
<polyline fill="none" stroke="black" points="1911,-189.5 2049,-189.5 "/>
<text text-anchor="middle" x="1980" y="-174.3" font-family="Times,serif" font-size="14.00">*</text>
</g>
<!-- node38&#45;&gt;node40 -->
<g id="edge78" class="edge">
<title>node38&#45;&gt;node40</title>
<path fill="none" stroke="green" d="M1854,-249.37C1873.6,-239.37 1897.74,-227.47 1919.64,-217"/>
<polygon fill="green" stroke="green" points="1921.35,-220.06 1928.88,-212.61 1918.34,-213.74 1921.35,-220.06"/>
</g>
<!-- node39&#45;&gt;node38 -->
<g id="edge77" class="edge">
<title>node39&#45;&gt;node38</title>
<path fill="none" stroke="blue" d="M1821.09,-212.61C1821.72,-220.82 1821.9,-230.31 1821.62,-239.25"/>
<polygon fill="blue" stroke="blue" points="1818.12,-239.2 1821.09,-249.37 1825.11,-239.56 1818.12,-239.2"/>
</g>
<!-- node40&#45;&gt;node38 -->
<g id="edge79" class="edge">
<title>node40&#45;&gt;node38</title>
<path fill="none" stroke="blue" d="M1941.06,-212.61C1921.46,-222.6 1897.33,-234.5 1875.41,-244.97"/>
<polygon fill="blue" stroke="blue" points="1873.71,-241.91 1866.18,-249.37 1876.71,-248.23 1873.71,-241.91"/>
</g>
<!-- node41 -->
<g id="node41" class="node">
<title>node41</title>
<path fill="peachpuff" stroke="black" d="M1802,-83.5C1802,-83.5 1916,-83.5 1916,-83.5 1922,-83.5 1928,-89.5 1928,-95.5 1928,-95.5 1928,-117.5 1928,-117.5 1928,-123.5 1922,-129.5 1916,-129.5 1916,-129.5 1802,-129.5 1802,-129.5 1796,-129.5 1790,-123.5 1790,-117.5 1790,-117.5 1790,-95.5 1790,-95.5 1790,-89.5 1796,-83.5 1802,-83.5"/>
<text text-anchor="middle" x="1807.5" y="-114.3" font-family="Times,serif" font-size="14.00">41</text>
<polyline fill="none" stroke="black" points="1825,-106.5 1825,-129.5 "/>
<text text-anchor="middle" x="1844" y="-114.3" font-family="Times,serif" font-size="14.00">OP</text>
<polyline fill="none" stroke="black" points="1863,-106.5 1863,-129.5 "/>
<text text-anchor="middle" x="1895.5" y="-114.3" font-family="Times,serif" font-size="14.00">size=3</text>
<polyline fill="none" stroke="black" points="1790,-106.5 1928,-106.5 "/>
<text text-anchor="middle" x="1859" y="-91.3" font-family="Times,serif" font-size="14.00">log</text>
</g>
<!-- node40&#45;&gt;node41 -->
<g id="edge80" class="edge">
<title>node40&#45;&gt;node41</title>
<path fill="none" stroke="red" d="M1940.85,-166.37C1925.84,-156.81 1908.86,-145.53 1894.24,-135.41"/>
<polygon fill="red" stroke="red" points="1896.14,-132.46 1885.94,-129.61 1892.13,-138.2 1896.14,-132.46"/>
</g>
<!-- node44 -->
<g id="node44" class="node">
<title>node44</title>
<path fill="lightyellow" stroke="black" d="M1958,-83.5C1958,-83.5 2080,-83.5 2080,-83.5 2086,-83.5 2092,-89.5 2092,-95.5 2092,-95.5 2092,-117.5 2092,-117.5 2092,-123.5 2086,-129.5 2080,-129.5 2080,-129.5 1958,-129.5 1958,-129.5 1952,-129.5 1946,-123.5 1946,-117.5 1946,-117.5 1946,-95.5 1946,-95.5 1946,-89.5 1952,-83.5 1958,-83.5"/>
<text text-anchor="middle" x="1963.5" y="-114.3" font-family="Times,serif" font-size="14.00">44</text>
<polyline fill="none" stroke="black" points="1981,-106.5 1981,-129.5 "/>
<text text-anchor="middle" x="2004" y="-114.3" font-family="Times,serif" font-size="14.00">VAR</text>
<polyline fill="none" stroke="black" points="2027,-106.5 2027,-129.5 "/>
<text text-anchor="middle" x="2059.5" y="-114.3" font-family="Times,serif" font-size="14.00">size=1</text>
<polyline fill="none" stroke="black" points="1946,-106.5 2092,-106.5 "/>
<text text-anchor="middle" x="2019" y="-91.3" font-family="Times,serif" font-size="14.00">x</text>
</g>
<!-- node40&#45;&gt;node44 -->
<g id="edge86" class="edge">
<title>node40&#45;&gt;node44</title>
<path fill="none" stroke="green" d="M1984.57,-166.37C1988.03,-157.79 1992.67,-147.83 1997.46,-138.56"/>
<polygon fill="green" stroke="green" points="2000.62,-140.07 2002.27,-129.61 1994.45,-136.76 2000.62,-140.07"/>
</g>
<!-- node41&#45;&gt;node40 -->
<g id="edge81" class="edge">
<title>node41&#45;&gt;node40</title>
<path fill="none" stroke="blue" d="M1898.11,-129.61C1913.12,-139.16 1930.09,-150.44 1944.72,-160.56"/>
<polygon fill="blue" stroke="blue" points="1942.82,-163.51 1953.03,-166.37 1946.83,-157.77 1942.82,-163.51"/>
</g>
<!-- node42 -->
<g id="node42" class="node">
<title>node42</title>
<path fill="pink" stroke="black" d="M1706.5,-0.5C1706.5,-0.5 1837.5,-0.5 1837.5,-0.5 1843.5,-0.5 1849.5,-6.5 1849.5,-12.5 1849.5,-12.5 1849.5,-34.5 1849.5,-34.5 1849.5,-40.5 1843.5,-46.5 1837.5,-46.5 1837.5,-46.5 1706.5,-46.5 1706.5,-46.5 1700.5,-46.5 1694.5,-40.5 1694.5,-34.5 1694.5,-34.5 1694.5,-12.5 1694.5,-12.5 1694.5,-6.5 1700.5,-0.5 1706.5,-0.5"/>
<text text-anchor="middle" x="1712" y="-31.3" font-family="Times,serif" font-size="14.00">42</text>
<polyline fill="none" stroke="black" points="1729.5,-23.5 1729.5,-46.5 "/>
<text text-anchor="middle" x="1757" y="-31.3" font-family="Times,serif" font-size="14.00">NUM</text>
<polyline fill="none" stroke="black" points="1784.5,-23.5 1784.5,-46.5 "/>
<text text-anchor="middle" x="1817" y="-31.3" font-family="Times,serif" font-size="14.00">size=1</text>
<polyline fill="none" stroke="black" points="1694.5,-23.5 1849.5,-23.5 "/>
<text text-anchor="middle" x="1772" y="-8.3" font-family="Times,serif" font-size="14.00">233685185</text>
</g>
<!-- node41&#45;&gt;node42 -->
<g id="edge82" class="edge">
<title>node41&#45;&gt;node42</title>
<path fill="none" stroke="red" d="M1829.14,-83.37C1818.65,-74.26 1807.04,-63.58 1796.99,-53.83"/>
<polygon fill="red" stroke="red" points="1799.24,-51.13 1789.66,-46.61 1794.32,-56.12 1799.24,-51.13"/>
</g>
<!-- node43 -->
<g id="node43" class="node">
<title>node43</title>
<path fill="pink" stroke="black" d="M1879.5,-0.5C1879.5,-0.5 2010.5,-0.5 2010.5,-0.5 2016.5,-0.5 2022.5,-6.5 2022.5,-12.5 2022.5,-12.5 2022.5,-34.5 2022.5,-34.5 2022.5,-40.5 2016.5,-46.5 2010.5,-46.5 2010.5,-46.5 1879.5,-46.5 1879.5,-46.5 1873.5,-46.5 1867.5,-40.5 1867.5,-34.5 1867.5,-34.5 1867.5,-12.5 1867.5,-12.5 1867.5,-6.5 1873.5,-0.5 1879.5,-0.5"/>
<text text-anchor="middle" x="1885" y="-31.3" font-family="Times,serif" font-size="14.00">43</text>
<polyline fill="none" stroke="black" points="1902.5,-23.5 1902.5,-46.5 "/>
<text text-anchor="middle" x="1930" y="-31.3" font-family="Times,serif" font-size="14.00">NUM</text>
<polyline fill="none" stroke="black" points="1957.5,-23.5 1957.5,-46.5 "/>
<text text-anchor="middle" x="1990" y="-31.3" font-family="Times,serif" font-size="14.00">size=1</text>
<polyline fill="none" stroke="black" points="1867.5,-23.5 2022.5,-23.5 "/>
<text text-anchor="middle" x="1945" y="-8.3" font-family="Times,serif" font-size="14.00">233685185</text>
</g>
<!-- node41&#45;&gt;node43 -->
<g id="edge84" class="edge">
<title>node41&#45;&gt;node43</title>
<path fill="none" stroke="green" d="M1876.41,-83.37C1885.55,-74.08 1897.02,-63.16 1907.97,-53.26"/>
<polygon fill="green" stroke="green" points="1910.3,-55.87 1915.44,-46.61 1905.65,-50.65 1910.3,-55.87"/>
</g>
<!-- node42&#45;&gt;node41 -->
<g id="edge83" class="edge">
<title>node42&#45;&gt;node41</title>
<path fill="none" stroke="blue" d="M1801.83,-46.61C1812.31,-55.71 1823.93,-66.39 1833.98,-76.14"/>
<polygon fill="blue" stroke="blue" points="1831.74,-78.84 1841.32,-83.37 1836.65,-73.85 1831.74,-78.84"/>
</g>
<!-- node43&#45;&gt;node41 -->
<g id="edge85" class="edge">
<title>node43&#45;&gt;node41</title>
<path fill="none" stroke="blue" d="M1927.62,-46.61C1918.48,-55.89 1907.02,-66.81 1896.06,-76.71"/>
<polygon fill="blue" stroke="blue" points="1893.73,-74.1 1888.59,-83.37 1898.38,-79.33 1893.73,-74.1"/>
</g>
<!-- node44&#45;&gt;node40 -->
<g id="edge87" class="edge">
<title>node44&#45;&gt;node40</title>
<path fill="none" stroke="blue" d="M2014.44,-129.61C2010.98,-138.18 2006.35,-148.14 2001.56,-157.41"/>
<polygon fill="blue" stroke="blue" points="1998.39,-155.9 1996.75,-166.37 2004.56,-159.21 1998.39,-155.9"/>
</g>
<!-- node45&#45;&gt;node29 -->
<g id="edge89" class="edge">
<title>node45&#45;&gt;node29</title>
<path fill="none" stroke="blue" d="M1988.25,-452.62C1899.6,-467.72 1751.32,-492.39 1658.53,-507.46"/>
<polygon fill="blue" stroke="blue" points="1657.93,-504.01 1648.62,-509.07 1659.05,-510.92 1657.93,-504.01"/>
</g>
<!-- node46 -->
<g id="node46" class="node">
<title>node46</title>
<path fill="peachpuff" stroke="black" d="M2005,-332.5C2005,-332.5 2119,-332.5 2119,-332.5 2125,-332.5 2131,-338.5 2131,-344.5 2131,-344.5 2131,-366.5 2131,-366.5 2131,-372.5 2125,-378.5 2119,-378.5 2119,-378.5 2005,-378.5 2005,-378.5 1999,-378.5 1993,-372.5 1993,-366.5 1993,-366.5 1993,-344.5 1993,-344.5 1993,-338.5 1999,-332.5 2005,-332.5"/>
<text text-anchor="middle" x="2010.5" y="-363.3" font-family="Times,serif" font-size="14.00">46</text>
<polyline fill="none" stroke="black" points="2028,-355.5 2028,-378.5 "/>
<text text-anchor="middle" x="2047" y="-363.3" font-family="Times,serif" font-size="14.00">OP</text>
<polyline fill="none" stroke="black" points="2066,-355.5 2066,-378.5 "/>
<text text-anchor="middle" x="2098.5" y="-363.3" font-family="Times,serif" font-size="14.00">size=7</text>
<polyline fill="none" stroke="black" points="1993,-355.5 2131,-355.5 "/>
<text text-anchor="middle" x="2062" y="-340.3" font-family="Times,serif" font-size="14.00">^</text>
</g>
<!-- node45&#45;&gt;node46 -->
<g id="edge90" class="edge">
<title>node45&#45;&gt;node46</title>
<path fill="none" stroke="red" d="M2055.91,-415.37C2055.28,-407.15 2055.1,-397.66 2055.38,-388.73"/>
<polygon fill="red" stroke="red" points="2058.88,-388.78 2055.91,-378.61 2051.89,-388.41 2058.88,-388.78"/>
</g>
<!-- node53 -->
<g id="node53" class="node">
<title>node53</title>
<path fill="peachpuff" stroke="black" d="M2253,-332.5C2253,-332.5 2367,-332.5 2367,-332.5 2373,-332.5 2379,-338.5 2379,-344.5 2379,-344.5 2379,-366.5 2379,-366.5 2379,-372.5 2373,-378.5 2367,-378.5 2367,-378.5 2253,-378.5 2253,-378.5 2247,-378.5 2241,-372.5 2241,-366.5 2241,-366.5 2241,-344.5 2241,-344.5 2241,-338.5 2247,-332.5 2253,-332.5"/>
<text text-anchor="middle" x="2258.5" y="-363.3" font-family="Times,serif" font-size="14.00">53</text>
<polyline fill="none" stroke="black" points="2276,-355.5 2276,-378.5 "/>
<text text-anchor="middle" x="2295" y="-363.3" font-family="Times,serif" font-size="14.00">OP</text>
<polyline fill="none" stroke="black" points="2314,-355.5 2314,-378.5 "/>
<text text-anchor="middle" x="2346.5" y="-363.3" font-family="Times,serif" font-size="14.00">size=3</text>
<polyline fill="none" stroke="black" points="2241,-355.5 2379,-355.5 "/>
<text text-anchor="middle" x="2310" y="-340.3" font-family="Times,serif" font-size="14.00">log</text>
</g>
<!-- node45&#45;&gt;node53 -->
<g id="edge104" class="edge">
<title>node45&#45;&gt;node53</title>
<path fill="none" stroke="green" d="M2123.36,-415.47C2155.94,-404.55 2196.31,-391.35 2231.19,-380.21"/>
<polygon fill="green" stroke="green" points="2232.4,-383.5 2240.87,-377.13 2230.28,-376.83 2232.4,-383.5"/>
</g>
<!-- node46&#45;&gt;node45 -->
<g id="edge91" class="edge">
<title>node46&#45;&gt;node45</title>
<path fill="none" stroke="blue" d="M2068.09,-378.61C2068.72,-386.82 2068.9,-396.31 2068.62,-405.25"/>
<polygon fill="blue" stroke="blue" points="2065.12,-405.2 2068.09,-415.37 2072.11,-405.56 2065.12,-405.2"/>
</g>
<!-- node47 -->
<g id="node47" class="node">
<title>node47</title>
<path fill="pink" stroke="black" d="M1914.5,-249.5C1914.5,-249.5 2045.5,-249.5 2045.5,-249.5 2051.5,-249.5 2057.5,-255.5 2057.5,-261.5 2057.5,-261.5 2057.5,-283.5 2057.5,-283.5 2057.5,-289.5 2051.5,-295.5 2045.5,-295.5 2045.5,-295.5 1914.5,-295.5 1914.5,-295.5 1908.5,-295.5 1902.5,-289.5 1902.5,-283.5 1902.5,-283.5 1902.5,-261.5 1902.5,-261.5 1902.5,-255.5 1908.5,-249.5 1914.5,-249.5"/>
<text text-anchor="middle" x="1920" y="-280.3" font-family="Times,serif" font-size="14.00">47</text>
<polyline fill="none" stroke="black" points="1937.5,-272.5 1937.5,-295.5 "/>
<text text-anchor="middle" x="1965" y="-280.3" font-family="Times,serif" font-size="14.00">NUM</text>
<polyline fill="none" stroke="black" points="1992.5,-272.5 1992.5,-295.5 "/>
<text text-anchor="middle" x="2025" y="-280.3" font-family="Times,serif" font-size="14.00">size=1</text>
<polyline fill="none" stroke="black" points="1902.5,-272.5 2057.5,-272.5 "/>
<text text-anchor="middle" x="1980" y="-257.3" font-family="Times,serif" font-size="14.00">233685185</text>
</g>
<!-- node46&#45;&gt;node47 -->
<g id="edge92" class="edge">
<title>node46&#45;&gt;node47</title>
<path fill="none" stroke="red" d="M2033.5,-332.37C2023.68,-323.35 2012.84,-312.79 2003.46,-303.12"/>
<polygon fill="red" stroke="red" points="2005.73,-300.43 1996.29,-295.61 2000.66,-305.26 2005.73,-300.43"/>
</g>
<!-- node48 -->
<g id="node48" class="node">
<title>node48</title>
<path fill="peachpuff" stroke="black" d="M2088,-249.5C2088,-249.5 2202,-249.5 2202,-249.5 2208,-249.5 2214,-255.5 2214,-261.5 2214,-261.5 2214,-283.5 2214,-283.5 2214,-289.5 2208,-295.5 2202,-295.5 2202,-295.5 2088,-295.5 2088,-295.5 2082,-295.5 2076,-289.5 2076,-283.5 2076,-283.5 2076,-261.5 2076,-261.5 2076,-255.5 2082,-249.5 2088,-249.5"/>
<text text-anchor="middle" x="2093.5" y="-280.3" font-family="Times,serif" font-size="14.00">48</text>
<polyline fill="none" stroke="black" points="2111,-272.5 2111,-295.5 "/>
<text text-anchor="middle" x="2130" y="-280.3" font-family="Times,serif" font-size="14.00">OP</text>
<polyline fill="none" stroke="black" points="2149,-272.5 2149,-295.5 "/>
<text text-anchor="middle" x="2181.5" y="-280.3" font-family="Times,serif" font-size="14.00">size=5</text>
<polyline fill="none" stroke="black" points="2076,-272.5 2214,-272.5 "/>
<text text-anchor="middle" x="2145" y="-257.3" font-family="Times,serif" font-size="14.00">*</text>
</g>
<!-- node46&#45;&gt;node48 -->
<g id="edge94" class="edge">
<title>node46&#45;&gt;node48</title>
<path fill="none" stroke="green" d="M2078.59,-332.37C2087.31,-323.17 2098.23,-312.37 2108.73,-302.55"/>
<polygon fill="green" stroke="green" points="2111.28,-304.96 2116.26,-295.61 2106.53,-299.81 2111.28,-304.96"/>
</g>
<!-- node47&#45;&gt;node46 -->
<g id="edge93" class="edge">
<title>node47&#45;&gt;node46</title>
<path fill="none" stroke="blue" d="M2008.47,-295.61C2018.29,-304.62 2029.13,-315.18 2038.51,-324.85"/>
<polygon fill="blue" stroke="blue" points="2036.25,-327.55 2045.68,-332.37 2041.31,-322.71 2036.25,-327.55"/>
</g>
<!-- node48&#45;&gt;node46 -->
<g id="edge95" class="edge">
<title>node48&#45;&gt;node46</title>
<path fill="none" stroke="blue" d="M2128.44,-295.61C2119.72,-304.8 2108.8,-315.6 2098.3,-325.42"/>
<polygon fill="blue" stroke="blue" points="2095.75,-323.01 2090.77,-332.37 2100.5,-328.16 2095.75,-323.01"/>
</g>
<!-- node49 -->
<g id="node49" class="node">
<title>node49</title>
<path fill="lightyellow" stroke="black" d="M2082,-166.5C2082,-166.5 2204,-166.5 2204,-166.5 2210,-166.5 2216,-172.5 2216,-178.5 2216,-178.5 2216,-200.5 2216,-200.5 2216,-206.5 2210,-212.5 2204,-212.5 2204,-212.5 2082,-212.5 2082,-212.5 2076,-212.5 2070,-206.5 2070,-200.5 2070,-200.5 2070,-178.5 2070,-178.5 2070,-172.5 2076,-166.5 2082,-166.5"/>
<text text-anchor="middle" x="2087.5" y="-197.3" font-family="Times,serif" font-size="14.00">49</text>
<polyline fill="none" stroke="black" points="2105,-189.5 2105,-212.5 "/>
<text text-anchor="middle" x="2128" y="-197.3" font-family="Times,serif" font-size="14.00">VAR</text>
<polyline fill="none" stroke="black" points="2151,-189.5 2151,-212.5 "/>
<text text-anchor="middle" x="2183.5" y="-197.3" font-family="Times,serif" font-size="14.00">size=1</text>
<polyline fill="none" stroke="black" points="2070,-189.5 2216,-189.5 "/>
<text text-anchor="middle" x="2143" y="-174.3" font-family="Times,serif" font-size="14.00">x</text>
</g>
<!-- node48&#45;&gt;node49 -->
<g id="edge96" class="edge">
<title>node48&#45;&gt;node49</title>
<path fill="none" stroke="red" d="M2138.36,-249.37C2137.53,-241.15 2137.12,-231.66 2137.17,-222.73"/>
<polygon fill="red" stroke="red" points="2140.67,-222.7 2137.46,-212.61 2133.68,-222.5 2140.67,-222.7"/>
</g>
<!-- node50 -->
<g id="node50" class="node">
<title>node50</title>
<path fill="peachpuff" stroke="black" d="M2246,-166.5C2246,-166.5 2360,-166.5 2360,-166.5 2366,-166.5 2372,-172.5 2372,-178.5 2372,-178.5 2372,-200.5 2372,-200.5 2372,-206.5 2366,-212.5 2360,-212.5 2360,-212.5 2246,-212.5 2246,-212.5 2240,-212.5 2234,-206.5 2234,-200.5 2234,-200.5 2234,-178.5 2234,-178.5 2234,-172.5 2240,-166.5 2246,-166.5"/>
<text text-anchor="middle" x="2251.5" y="-197.3" font-family="Times,serif" font-size="14.00">50</text>
<polyline fill="none" stroke="black" points="2269,-189.5 2269,-212.5 "/>
<text text-anchor="middle" x="2288" y="-197.3" font-family="Times,serif" font-size="14.00">OP</text>
<polyline fill="none" stroke="black" points="2307,-189.5 2307,-212.5 "/>
<text text-anchor="middle" x="2339.5" y="-197.3" font-family="Times,serif" font-size="14.00">size=3</text>
<polyline fill="none" stroke="black" points="2234,-189.5 2372,-189.5 "/>
<text text-anchor="middle" x="2303" y="-174.3" font-family="Times,serif" font-size="14.00">log</text>
</g>
<!-- node48&#45;&gt;node50 -->
<g id="edge98" class="edge">
<title>node48&#45;&gt;node50</title>
<path fill="none" stroke="green" d="M2182.08,-249.37C2200.74,-239.41 2223.72,-227.58 2244.65,-217.14"/>
<polygon fill="green" stroke="green" points="2246.39,-220.19 2253.79,-212.61 2243.28,-213.91 2246.39,-220.19"/>
</g>
<!-- node49&#45;&gt;node48 -->
<g id="edge97" class="edge">
<title>node49&#45;&gt;node48</title>
<path fill="none" stroke="blue" d="M2149.63,-212.61C2150.47,-220.82 2150.88,-230.31 2150.83,-239.25"/>
<polygon fill="blue" stroke="blue" points="2147.33,-239.27 2150.54,-249.37 2154.32,-239.47 2147.33,-239.27"/>
</g>
<!-- node50&#45;&gt;node48 -->
<g id="edge99" class="edge">
<title>node50&#45;&gt;node48</title>
<path fill="none" stroke="blue" d="M2265.97,-212.61C2247.32,-222.56 2224.34,-234.39 2203.4,-244.83"/>
<polygon fill="blue" stroke="blue" points="2201.67,-241.79 2194.27,-249.37 2204.78,-248.06 2201.67,-241.79"/>
</g>
<!-- node51 -->
<g id="node51" class="node">
<title>node51</title>
<path fill="pink" stroke="black" d="M2200.5,-83.5C2200.5,-83.5 2331.5,-83.5 2331.5,-83.5 2337.5,-83.5 2343.5,-89.5 2343.5,-95.5 2343.5,-95.5 2343.5,-117.5 2343.5,-117.5 2343.5,-123.5 2337.5,-129.5 2331.5,-129.5 2331.5,-129.5 2200.5,-129.5 2200.5,-129.5 2194.5,-129.5 2188.5,-123.5 2188.5,-117.5 2188.5,-117.5 2188.5,-95.5 2188.5,-95.5 2188.5,-89.5 2194.5,-83.5 2200.5,-83.5"/>
<text text-anchor="middle" x="2206" y="-114.3" font-family="Times,serif" font-size="14.00">51</text>
<polyline fill="none" stroke="black" points="2223.5,-106.5 2223.5,-129.5 "/>
<text text-anchor="middle" x="2251" y="-114.3" font-family="Times,serif" font-size="14.00">NUM</text>
<polyline fill="none" stroke="black" points="2278.5,-106.5 2278.5,-129.5 "/>
<text text-anchor="middle" x="2311" y="-114.3" font-family="Times,serif" font-size="14.00">size=1</text>
<polyline fill="none" stroke="black" points="2188.5,-106.5 2343.5,-106.5 "/>
<text text-anchor="middle" x="2266" y="-91.3" font-family="Times,serif" font-size="14.00">233685185</text>
</g>
<!-- node50&#45;&gt;node51 -->
<g id="edge100" class="edge">
<title>node50&#45;&gt;node51</title>
<path fill="none" stroke="red" d="M2286.8,-166.37C2282.32,-157.97 2277.7,-148.24 2273.85,-139.14"/>
<polygon fill="red" stroke="red" points="2276.99,-137.58 2270.01,-129.61 2270.5,-140.19 2276.99,-137.58"/>
</g>
<!-- node52 -->
<g id="node52" class="node">
<title>node52</title>
<path fill="lightyellow" stroke="black" d="M2374,-83.5C2374,-83.5 2496,-83.5 2496,-83.5 2502,-83.5 2508,-89.5 2508,-95.5 2508,-95.5 2508,-117.5 2508,-117.5 2508,-123.5 2502,-129.5 2496,-129.5 2496,-129.5 2374,-129.5 2374,-129.5 2368,-129.5 2362,-123.5 2362,-117.5 2362,-117.5 2362,-95.5 2362,-95.5 2362,-89.5 2368,-83.5 2374,-83.5"/>
<text text-anchor="middle" x="2379.5" y="-114.3" font-family="Times,serif" font-size="14.00">52</text>
<polyline fill="none" stroke="black" points="2397,-106.5 2397,-129.5 "/>
<text text-anchor="middle" x="2420" y="-114.3" font-family="Times,serif" font-size="14.00">VAR</text>
<polyline fill="none" stroke="black" points="2443,-106.5 2443,-129.5 "/>
<text text-anchor="middle" x="2475.5" y="-114.3" font-family="Times,serif" font-size="14.00">size=1</text>
<polyline fill="none" stroke="black" points="2362,-106.5 2508,-106.5 "/>
<text text-anchor="middle" x="2435" y="-91.3" font-family="Times,serif" font-size="14.00">x</text>
</g>
<!-- node50&#45;&gt;node52 -->
<g id="edge102" class="edge">
<title>node50&#45;&gt;node52</title>
<path fill="none" stroke="green" d="M2332.98,-166.37C2348.09,-156.63 2366.77,-145.11 2384.02,-134.84"/>
<polygon fill="green" stroke="green" points="2386.05,-137.71 2392.89,-129.61 2382.49,-131.68 2386.05,-137.71"/>
</g>
<!-- node51&#45;&gt;node50 -->
<g id="edge101" class="edge">
<title>node51&#45;&gt;node50</title>
<path fill="none" stroke="blue" d="M2282.19,-129.61C2286.67,-138 2291.28,-147.73 2295.14,-156.83"/>
<polygon fill="blue" stroke="blue" points="2292,-158.4 2298.98,-166.37 2298.49,-155.78 2292,-158.4"/>
</g>
<!-- node52&#45;&gt;node50 -->
<g id="edge103" class="edge">
<title>node52&#45;&gt;node50</title>
<path fill="none" stroke="blue" d="M2405.06,-129.61C2389.96,-139.34 2371.28,-150.86 2354.03,-161.13"/>
<polygon fill="blue" stroke="blue" points="2351.99,-158.27 2345.16,-166.37 2355.55,-164.3 2351.99,-158.27"/>
</g>
<!-- node53&#45;&gt;node45 -->
<g id="edge105" class="edge">
<title>node53&#45;&gt;node45</title>
<path fill="none" stroke="blue" d="M2248.66,-378.52C2217.48,-388.97 2179.18,-401.5 2145.39,-412.32"/>
<polygon fill="blue" stroke="blue" points="2143.98,-409.1 2135.52,-415.47 2146.11,-415.76 2143.98,-409.1"/>
</g>
<!-- node54 -->
<g id="node54" class="node">
<title>node54</title>
<path fill="pink" stroke="black" d="M2244.5,-249.5C2244.5,-249.5 2375.5,-249.5 2375.5,-249.5 2381.5,-249.5 2387.5,-255.5 2387.5,-261.5 2387.5,-261.5 2387.5,-283.5 2387.5,-283.5 2387.5,-289.5 2381.5,-295.5 2375.5,-295.5 2375.5,-295.5 2244.5,-295.5 2244.5,-295.5 2238.5,-295.5 2232.5,-289.5 2232.5,-283.5 2232.5,-283.5 2232.5,-261.5 2232.5,-261.5 2232.5,-255.5 2238.5,-249.5 2244.5,-249.5"/>
<text text-anchor="middle" x="2250" y="-280.3" font-family="Times,serif" font-size="14.00">54</text>
<polyline fill="none" stroke="black" points="2267.5,-272.5 2267.5,-295.5 "/>
<text text-anchor="middle" x="2295" y="-280.3" font-family="Times,serif" font-size="14.00">NUM</text>
<polyline fill="none" stroke="black" points="2322.5,-272.5 2322.5,-295.5 "/>
<text text-anchor="middle" x="2355" y="-280.3" font-family="Times,serif" font-size="14.00">size=1</text>
<polyline fill="none" stroke="black" points="2232.5,-272.5 2387.5,-272.5 "/>
<text text-anchor="middle" x="2310" y="-257.3" font-family="Times,serif" font-size="14.00">233685185</text>
</g>
<!-- node53&#45;&gt;node54 -->
<g id="edge106" class="edge">
<title>node53&#45;&gt;node54</title>
<path fill="none" stroke="red" d="M2303.91,-332.37C2303.28,-324.15 2303.1,-314.66 2303.38,-305.73"/>
<polygon fill="red" stroke="red" points="2306.88,-305.78 2303.91,-295.61 2299.89,-305.41 2306.88,-305.78"/>
</g>
<!-- node55 -->
<g id="node55" class="node">
<title>node55</title>
<path fill="pink" stroke="black" d="M2417.5,-249.5C2417.5,-249.5 2548.5,-249.5 2548.5,-249.5 2554.5,-249.5 2560.5,-255.5 2560.5,-261.5 2560.5,-261.5 2560.5,-283.5 2560.5,-283.5 2560.5,-289.5 2554.5,-295.5 2548.5,-295.5 2548.5,-295.5 2417.5,-295.5 2417.5,-295.5 2411.5,-295.5 2405.5,-289.5 2405.5,-283.5 2405.5,-283.5 2405.5,-261.5 2405.5,-261.5 2405.5,-255.5 2411.5,-249.5 2417.5,-249.5"/>
<text text-anchor="middle" x="2423" y="-280.3" font-family="Times,serif" font-size="14.00">55</text>
<polyline fill="none" stroke="black" points="2440.5,-272.5 2440.5,-295.5 "/>
<text text-anchor="middle" x="2468" y="-280.3" font-family="Times,serif" font-size="14.00">NUM</text>
<polyline fill="none" stroke="black" points="2495.5,-272.5 2495.5,-295.5 "/>
<text text-anchor="middle" x="2528" y="-280.3" font-family="Times,serif" font-size="14.00">size=1</text>
<polyline fill="none" stroke="black" points="2405.5,-272.5 2560.5,-272.5 "/>
<text text-anchor="middle" x="2483" y="-257.3" font-family="Times,serif" font-size="14.00">233685185</text>
</g>
<!-- node53&#45;&gt;node55 -->
<g id="edge108" class="edge">
<title>node53&#45;&gt;node55</title>
<path fill="none" stroke="green" d="M2351.18,-332.37C2371.86,-322.32 2397.31,-310.36 2420.34,-299.86"/>
<polygon fill="green" stroke="green" points="2422.04,-302.93 2429.7,-295.61 2419.14,-296.56 2422.04,-302.93"/>
</g>
<!-- node54&#45;&gt;node53 -->
<g id="edge107" class="edge">
<title>node54&#45;&gt;node53</title>
<path fill="none" stroke="blue" d="M2316.09,-295.61C2316.72,-303.82 2316.9,-313.31 2316.62,-322.25"/>
<polygon fill="blue" stroke="blue" points="2313.12,-322.2 2316.09,-332.37 2320.11,-322.56 2313.12,-322.2"/>
</g>
<!-- node55&#45;&gt;node53 -->
<g id="edge109" class="edge">
<title>node55&#45;&gt;node53</title>
<path fill="none" stroke="blue" d="M2441.87,-295.61C2421.2,-305.65 2395.76,-317.61 2372.73,-328.11"/>
<polygon fill="blue" stroke="blue" points="2371.02,-325.04 2363.36,-332.37 2373.92,-331.42 2371.02,-325.04"/>
</g>
</g>
</svg>
