<?xml version="1.0" encoding="UTF-8" standalone="no"?>
<!DOCTYPE svg PUBLIC "-//W3C//DTD SVG 1.1//EN"
 "http://www.w3.org/Graphics/SVG/1.1/DTD/svg11.dtd">
<!-- Generated by graphviz version 2.43.0 (0)
 -->
<!-- Title: %3 Pages: 1 -->
<svg width="1656pt" height="470pt"
 viewBox="0.00 0.00 1655.50 470.00" xmlns="http://www.w3.org/2000/svg" xmlns:xlink="http://www.w3.org/1999/xlink">
<g id="graph0" class="graph" transform="scale(1 1) rotate(0) translate(4 466)">
<title>%3</title>
<polygon fill="white" stroke="transparent" points="-4,4 -4,-466 1651.5,-466 1651.5,4 -4,4"/>
<!-- node1 -->
<g id="node1" class="node">
<title>node1</title>
<path fill="peachpuff" stroke="black" d="M1253,-415.5C1253,-415.5 1367,-415.5 1367,-415.5 1373,-415.5 1379,-421.5 1379,-427.5 1379,-427.5 1379,-449.5 1379,-449.5 1379,-455.5 1373,-461.5 1367,-461.5 1367,-461.5 1253,-461.5 1253,-461.5 1247,-461.5 1241,-455.5 1241,-449.5 1241,-449.5 1241,-427.5 1241,-427.5 1241,-421.5 1247,-415.5 1253,-415.5"/>
<text text-anchor="middle" x="1254" y="-446.3" font-family="Times,serif" font-size="14.00">1</text>
<polyline fill="none" stroke="black" points="1267,-438.5 1267,-461.5 "/>
<text text-anchor="middle" x="1286" y="-446.3" font-family="Times,serif" font-size="14.00">OP</text>
<polyline fill="none" stroke="black" points="1305,-438.5 1305,-461.5 "/>
<text text-anchor="middle" x="1342" y="-446.3" font-family="Times,serif" font-size="14.00">size=25</text>
<polyline fill="none" stroke="black" points="1241,-438.5 1379,-438.5 "/>
<text text-anchor="middle" x="1310" y="-423.3" font-family="Times,serif" font-size="14.00">/</text>
</g>
<!-- node1&#45;&gt;node1 -->
<g id="edge1" class="edge">
<title>node1&#45;&gt;node1</title>
<path fill="none" stroke="blue" d="M1379.27,-452.52C1389.83,-450.38 1397,-445.71 1397,-438.5 1397,-433.77 1393.91,-430.13 1388.81,-427.58"/>
<polygon fill="blue" stroke="blue" points="1389.87,-424.25 1379.27,-424.48 1387.7,-430.9 1389.87,-424.25"/>
</g>
<!-- node2 -->
<g id="node2" class="node">
<title>node2</title>
<path fill="peachpuff" stroke="black" d="M1093,-332.5C1093,-332.5 1207,-332.5 1207,-332.5 1213,-332.5 1219,-338.5 1219,-344.5 1219,-344.5 1219,-366.5 1219,-366.5 1219,-372.5 1213,-378.5 1207,-378.5 1207,-378.5 1093,-378.5 1093,-378.5 1087,-378.5 1081,-372.5 1081,-366.5 1081,-366.5 1081,-344.5 1081,-344.5 1081,-338.5 1087,-332.5 1093,-332.5"/>
<text text-anchor="middle" x="1094" y="-363.3" font-family="Times,serif" font-size="14.00">2</text>
<polyline fill="none" stroke="black" points="1107,-355.5 1107,-378.5 "/>
<text text-anchor="middle" x="1126" y="-363.3" font-family="Times,serif" font-size="14.00">OP</text>
<polyline fill="none" stroke="black" points="1145,-355.5 1145,-378.5 "/>
<text text-anchor="middle" x="1182" y="-363.3" font-family="Times,serif" font-size="14.00">size=19</text>
<polyline fill="none" stroke="black" points="1081,-355.5 1219,-355.5 "/>
<text text-anchor="middle" x="1150" y="-340.3" font-family="Times,serif" font-size="14.00">&#45;</text>
</g>
<!-- node1&#45;&gt;node2 -->
<g id="edge2" class="edge">
<title>node1&#45;&gt;node2</title>
<path fill="none" stroke="red" d="M1260.19,-415.37C1239.85,-405.46 1216.49,-393.68 1196.5,-383.28"/>
<polygon fill="red" stroke="red" points="1198.06,-380.14 1187.58,-378.61 1194.82,-386.35 1198.06,-380.14"/>
</g>
<!-- node21 -->
<g id="node21" class="node">
<title>node21</title>
<path fill="peachpuff" stroke="black" d="M1340,-332.5C1340,-332.5 1454,-332.5 1454,-332.5 1460,-332.5 1466,-338.5 1466,-344.5 1466,-344.5 1466,-366.5 1466,-366.5 1466,-372.5 1460,-378.5 1454,-378.5 1454,-378.5 1340,-378.5 1340,-378.5 1334,-378.5 1328,-372.5 1328,-366.5 1328,-366.5 1328,-344.5 1328,-344.5 1328,-338.5 1334,-332.5 1340,-332.5"/>
<text text-anchor="middle" x="1345.5" y="-363.3" font-family="Times,serif" font-size="14.00">21</text>
<polyline fill="none" stroke="black" points="1363,-355.5 1363,-378.5 "/>
<text text-anchor="middle" x="1382" y="-363.3" font-family="Times,serif" font-size="14.00">OP</text>
<polyline fill="none" stroke="black" points="1401,-355.5 1401,-378.5 "/>
<text text-anchor="middle" x="1433.5" y="-363.3" font-family="Times,serif" font-size="14.00">size=5</text>
<polyline fill="none" stroke="black" points="1328,-355.5 1466,-355.5 "/>
<text text-anchor="middle" x="1397" y="-340.3" font-family="Times,serif" font-size="14.00">^</text>
</g>
<!-- node1&#45;&gt;node21 -->
<g id="edge40" class="edge">
<title>node1&#45;&gt;node21</title>
<path fill="none" stroke="green" d="M1327.68,-415.37C1336.94,-406.08 1348.54,-395.16 1359.62,-385.26"/>
<polygon fill="green" stroke="green" points="1361.98,-387.84 1367.17,-378.61 1357.35,-382.59 1361.98,-387.84"/>
</g>
<!-- node2&#45;&gt;node1 -->
<g id="edge3" class="edge">
<title>node2&#45;&gt;node1</title>
<path fill="none" stroke="blue" d="M1199.76,-378.61C1220.09,-388.51 1243.45,-400.29 1263.44,-410.69"/>
<polygon fill="blue" stroke="blue" points="1261.89,-413.83 1272.37,-415.37 1265.13,-407.63 1261.89,-413.83"/>
</g>
<!-- node3 -->
<g id="node3" class="node">
<title>node3</title>
<path fill="peachpuff" stroke="black" d="M587,-249.5C587,-249.5 701,-249.5 701,-249.5 707,-249.5 713,-255.5 713,-261.5 713,-261.5 713,-283.5 713,-283.5 713,-289.5 707,-295.5 701,-295.5 701,-295.5 587,-295.5 587,-295.5 581,-295.5 575,-289.5 575,-283.5 575,-283.5 575,-261.5 575,-261.5 575,-255.5 581,-249.5 587,-249.5"/>
<text text-anchor="middle" x="588" y="-280.3" font-family="Times,serif" font-size="14.00">3</text>
<polyline fill="none" stroke="black" points="601,-272.5 601,-295.5 "/>
<text text-anchor="middle" x="620" y="-280.3" font-family="Times,serif" font-size="14.00">OP</text>
<polyline fill="none" stroke="black" points="639,-272.5 639,-295.5 "/>
<text text-anchor="middle" x="676" y="-280.3" font-family="Times,serif" font-size="14.00">size=11</text>
<polyline fill="none" stroke="black" points="575,-272.5 713,-272.5 "/>
<text text-anchor="middle" x="644" y="-257.3" font-family="Times,serif" font-size="14.00">*</text>
</g>
<!-- node2&#45;&gt;node3 -->
<g id="edge4" class="edge">
<title>node2&#45;&gt;node3</title>
<path fill="none" stroke="red" d="M1080.98,-344.2C987.55,-329.66 821.42,-303.09 723.08,-286.99"/>
<polygon fill="red" stroke="red" points="723.63,-283.53 713.2,-285.37 722.5,-290.44 723.63,-283.53"/>
</g>
<!-- node14 -->
<g id="node14" class="node">
<title>node14</title>
<path fill="peachpuff" stroke="black" d="M1093,-249.5C1093,-249.5 1207,-249.5 1207,-249.5 1213,-249.5 1219,-255.5 1219,-261.5 1219,-261.5 1219,-283.5 1219,-283.5 1219,-289.5 1213,-295.5 1207,-295.5 1207,-295.5 1093,-295.5 1093,-295.5 1087,-295.5 1081,-289.5 1081,-283.5 1081,-283.5 1081,-261.5 1081,-261.5 1081,-255.5 1087,-249.5 1093,-249.5"/>
<text text-anchor="middle" x="1098.5" y="-280.3" font-family="Times,serif" font-size="14.00">14</text>
<polyline fill="none" stroke="black" points="1116,-272.5 1116,-295.5 "/>
<text text-anchor="middle" x="1135" y="-280.3" font-family="Times,serif" font-size="14.00">OP</text>
<polyline fill="none" stroke="black" points="1154,-272.5 1154,-295.5 "/>
<text text-anchor="middle" x="1186.5" y="-280.3" font-family="Times,serif" font-size="14.00">size=7</text>
<polyline fill="none" stroke="black" points="1081,-272.5 1219,-272.5 "/>
<text text-anchor="middle" x="1150" y="-257.3" font-family="Times,serif" font-size="14.00">*</text>
</g>
<!-- node2&#45;&gt;node14 -->
<g id="edge26" class="edge">
<title>node2&#45;&gt;node14</title>
<path fill="none" stroke="green" d="M1143.91,-332.37C1143.28,-324.15 1143.1,-314.66 1143.38,-305.73"/>
<polygon fill="green" stroke="green" points="1146.88,-305.78 1143.91,-295.61 1139.89,-305.41 1146.88,-305.78"/>
</g>
<!-- node3&#45;&gt;node2 -->
<g id="edge5" class="edge">
<title>node3&#45;&gt;node2</title>
<path fill="none" stroke="blue" d="M713.37,-283.85C806.87,-298.41 972.74,-324.94 1070.95,-341.02"/>
<polygon fill="blue" stroke="blue" points="1070.39,-344.47 1080.82,-342.64 1071.52,-337.56 1070.39,-344.47"/>
</g>
<!-- node4 -->
<g id="node4" class="node">
<title>node4</title>
<path fill="peachpuff" stroke="black" d="M344.5,-166.5C344.5,-166.5 449.5,-166.5 449.5,-166.5 455.5,-166.5 461.5,-172.5 461.5,-178.5 461.5,-178.5 461.5,-200.5 461.5,-200.5 461.5,-206.5 455.5,-212.5 449.5,-212.5 449.5,-212.5 344.5,-212.5 344.5,-212.5 338.5,-212.5 332.5,-206.5 332.5,-200.5 332.5,-200.5 332.5,-178.5 332.5,-178.5 332.5,-172.5 338.5,-166.5 344.5,-166.5"/>
<text text-anchor="middle" x="345.5" y="-197.3" font-family="Times,serif" font-size="14.00">4</text>
<polyline fill="none" stroke="black" points="358.5,-189.5 358.5,-212.5 "/>
<text text-anchor="middle" x="377.5" y="-197.3" font-family="Times,serif" font-size="14.00">OP</text>
<polyline fill="none" stroke="black" points="396.5,-189.5 396.5,-212.5 "/>
<text text-anchor="middle" x="429" y="-197.3" font-family="Times,serif" font-size="14.00">size=7</text>
<polyline fill="none" stroke="black" points="332.5,-189.5 461.5,-189.5 "/>
<text text-anchor="middle" x="397" y="-174.3" font-family="Times,serif" font-size="14.00">+</text>
</g>
<!-- node3&#45;&gt;node4 -->
<g id="edge6" class="edge">
<title>node3&#45;&gt;node4</title>
<path fill="none" stroke="red" d="M574.73,-250.75C541.44,-240.12 501.62,-227.1 468.09,-215.88"/>
<polygon fill="red" stroke="red" points="468.95,-212.48 458.36,-212.62 466.73,-219.12 468.95,-212.48"/>
</g>
<!-- node11 -->
<g id="node11" class="node">
<title>node11</title>
<path fill="peachpuff" stroke="black" d="M587,-166.5C587,-166.5 701,-166.5 701,-166.5 707,-166.5 713,-172.5 713,-178.5 713,-178.5 713,-200.5 713,-200.5 713,-206.5 707,-212.5 701,-212.5 701,-212.5 587,-212.5 587,-212.5 581,-212.5 575,-206.5 575,-200.5 575,-200.5 575,-178.5 575,-178.5 575,-172.5 581,-166.5 587,-166.5"/>
<text text-anchor="middle" x="592.5" y="-197.3" font-family="Times,serif" font-size="14.00">11</text>
<polyline fill="none" stroke="black" points="610,-189.5 610,-212.5 "/>
<text text-anchor="middle" x="629" y="-197.3" font-family="Times,serif" font-size="14.00">OP</text>
<polyline fill="none" stroke="black" points="648,-189.5 648,-212.5 "/>
<text text-anchor="middle" x="680.5" y="-197.3" font-family="Times,serif" font-size="14.00">size=3</text>
<polyline fill="none" stroke="black" points="575,-189.5 713,-189.5 "/>
<text text-anchor="middle" x="644" y="-174.3" font-family="Times,serif" font-size="14.00">&#45;</text>
</g>
<!-- node3&#45;&gt;node11 -->
<g id="edge20" class="edge">
<title>node3&#45;&gt;node11</title>
<path fill="none" stroke="green" d="M637.91,-249.37C637.28,-241.15 637.1,-231.66 637.38,-222.73"/>
<polygon fill="green" stroke="green" points="640.88,-222.78 637.91,-212.61 633.89,-222.41 640.88,-222.78"/>
</g>
<!-- node4&#45;&gt;node3 -->
<g id="edge7" class="edge">
<title>node4&#45;&gt;node3</title>
<path fill="none" stroke="blue" d="M461.59,-209.76C495.88,-220.67 538.03,-234.44 573.19,-246.21"/>
<polygon fill="blue" stroke="blue" points="572.32,-249.61 582.91,-249.47 574.55,-242.97 572.32,-249.61"/>
</g>
<!-- node5 -->
<g id="node5" class="node">
<title>node5</title>
<path fill="peachpuff" stroke="black" d="M184.5,-83.5C184.5,-83.5 289.5,-83.5 289.5,-83.5 295.5,-83.5 301.5,-89.5 301.5,-95.5 301.5,-95.5 301.5,-117.5 301.5,-117.5 301.5,-123.5 295.5,-129.5 289.5,-129.5 289.5,-129.5 184.5,-129.5 184.5,-129.5 178.5,-129.5 172.5,-123.5 172.5,-117.5 172.5,-117.5 172.5,-95.5 172.5,-95.5 172.5,-89.5 178.5,-83.5 184.5,-83.5"/>
<text text-anchor="middle" x="185.5" y="-114.3" font-family="Times,serif" font-size="14.00">5</text>
<polyline fill="none" stroke="black" points="198.5,-106.5 198.5,-129.5 "/>
<text text-anchor="middle" x="217.5" y="-114.3" font-family="Times,serif" font-size="14.00">OP</text>
<polyline fill="none" stroke="black" points="236.5,-106.5 236.5,-129.5 "/>
<text text-anchor="middle" x="269" y="-114.3" font-family="Times,serif" font-size="14.00">size=3</text>
<polyline fill="none" stroke="black" points="172.5,-106.5 301.5,-106.5 "/>
<text text-anchor="middle" x="237" y="-91.3" font-family="Times,serif" font-size="14.00">*</text>
</g>
<!-- node4&#45;&gt;node5 -->
<g id="edge8" class="edge">
<title>node4&#45;&gt;node5</title>
<path fill="none" stroke="red" d="M347.19,-166.37C326.85,-156.46 303.49,-144.68 283.5,-134.28"/>
<polygon fill="red" stroke="red" points="285.06,-131.14 274.58,-129.61 281.82,-137.35 285.06,-131.14"/>
</g>
<!-- node8 -->
<g id="node8" class="node">
<title>node8</title>
<path fill="peachpuff" stroke="black" d="M344.5,-83.5C344.5,-83.5 449.5,-83.5 449.5,-83.5 455.5,-83.5 461.5,-89.5 461.5,-95.5 461.5,-95.5 461.5,-117.5 461.5,-117.5 461.5,-123.5 455.5,-129.5 449.5,-129.5 449.5,-129.5 344.5,-129.5 344.5,-129.5 338.5,-129.5 332.5,-123.5 332.5,-117.5 332.5,-117.5 332.5,-95.5 332.5,-95.5 332.5,-89.5 338.5,-83.5 344.5,-83.5"/>
<text text-anchor="middle" x="345.5" y="-114.3" font-family="Times,serif" font-size="14.00">8</text>
<polyline fill="none" stroke="black" points="358.5,-106.5 358.5,-129.5 "/>
<text text-anchor="middle" x="377.5" y="-114.3" font-family="Times,serif" font-size="14.00">OP</text>
<polyline fill="none" stroke="black" points="396.5,-106.5 396.5,-129.5 "/>
<text text-anchor="middle" x="429" y="-114.3" font-family="Times,serif" font-size="14.00">size=3</text>
<polyline fill="none" stroke="black" points="332.5,-106.5 461.5,-106.5 "/>
<text text-anchor="middle" x="397" y="-91.3" font-family="Times,serif" font-size="14.00">*</text>
</g>
<!-- node4&#45;&gt;node8 -->
<g id="edge14" class="edge">
<title>node4&#45;&gt;node8</title>
<path fill="none" stroke="green" d="M390.91,-166.37C390.28,-158.15 390.1,-148.66 390.38,-139.73"/>
<polygon fill="green" stroke="green" points="393.88,-139.78 390.91,-129.61 386.89,-139.41 393.88,-139.78"/>
</g>
<!-- node5&#45;&gt;node4 -->
<g id="edge9" class="edge">
<title>node5&#45;&gt;node4</title>
<path fill="none" stroke="blue" d="M286.76,-129.61C307.09,-139.51 330.45,-151.29 350.44,-161.69"/>
<polygon fill="blue" stroke="blue" points="348.89,-164.83 359.37,-166.37 352.13,-158.63 348.89,-164.83"/>
</g>
<!-- node6 -->
<g id="node6" class="node">
<title>node6</title>
<path fill="pink" stroke="black" d="M12,-0.5C12,-0.5 134,-0.5 134,-0.5 140,-0.5 146,-6.5 146,-12.5 146,-12.5 146,-34.5 146,-34.5 146,-40.5 140,-46.5 134,-46.5 134,-46.5 12,-46.5 12,-46.5 6,-46.5 0,-40.5 0,-34.5 0,-34.5 0,-12.5 0,-12.5 0,-6.5 6,-0.5 12,-0.5"/>
<text text-anchor="middle" x="13" y="-31.3" font-family="Times,serif" font-size="14.00">6</text>
<polyline fill="none" stroke="black" points="26,-23.5 26,-46.5 "/>
<text text-anchor="middle" x="53.5" y="-31.3" font-family="Times,serif" font-size="14.00">NUM</text>
<polyline fill="none" stroke="black" points="81,-23.5 81,-46.5 "/>
<text text-anchor="middle" x="113.5" y="-31.3" font-family="Times,serif" font-size="14.00">size=1</text>
<polyline fill="none" stroke="black" points="0,-23.5 146,-23.5 "/>
<text text-anchor="middle" x="73" y="-8.3" font-family="Times,serif" font-size="14.00">1</text>
</g>
<!-- node5&#45;&gt;node6 -->
<g id="edge10" class="edge">
<title>node5&#45;&gt;node6</title>
<path fill="none" stroke="red" d="M186.1,-83.37C165.27,-73.46 141.33,-61.68 120.83,-51.28"/>
<polygon fill="red" stroke="red" points="122.17,-48.03 111.67,-46.61 118.99,-54.27 122.17,-48.03"/>
</g>
<!-- node7 -->
<g id="node7" class="node">
<title>node7</title>
<path fill="pink" stroke="black" d="M176,-0.5C176,-0.5 298,-0.5 298,-0.5 304,-0.5 310,-6.5 310,-12.5 310,-12.5 310,-34.5 310,-34.5 310,-40.5 304,-46.5 298,-46.5 298,-46.5 176,-46.5 176,-46.5 170,-46.5 164,-40.5 164,-34.5 164,-34.5 164,-12.5 164,-12.5 164,-6.5 170,-0.5 176,-0.5"/>
<text text-anchor="middle" x="177" y="-31.3" font-family="Times,serif" font-size="14.00">7</text>
<polyline fill="none" stroke="black" points="190,-23.5 190,-46.5 "/>
<text text-anchor="middle" x="217.5" y="-31.3" font-family="Times,serif" font-size="14.00">NUM</text>
<polyline fill="none" stroke="black" points="245,-23.5 245,-46.5 "/>
<text text-anchor="middle" x="277.5" y="-31.3" font-family="Times,serif" font-size="14.00">size=1</text>
<polyline fill="none" stroke="black" points="164,-23.5 310,-23.5 "/>
<text text-anchor="middle" x="237" y="-8.3" font-family="Times,serif" font-size="14.00">3</text>
</g>
<!-- node5&#45;&gt;node7 -->
<g id="edge12" class="edge">
<title>node5&#45;&gt;node7</title>
<path fill="none" stroke="green" d="M230.91,-83.37C230.28,-75.15 230.1,-65.66 230.38,-56.73"/>
<polygon fill="green" stroke="green" points="233.88,-56.78 230.91,-46.61 226.89,-56.41 233.88,-56.78"/>
</g>
<!-- node6&#45;&gt;node5 -->
<g id="edge11" class="edge">
<title>node6&#45;&gt;node5</title>
<path fill="none" stroke="blue" d="M123.85,-46.61C144.67,-56.51 168.61,-68.29 189.12,-78.69"/>
<polygon fill="blue" stroke="blue" points="187.78,-81.94 198.28,-83.37 190.96,-75.7 187.78,-81.94"/>
</g>
<!-- node7&#45;&gt;node5 -->
<g id="edge13" class="edge">
<title>node7&#45;&gt;node5</title>
<path fill="none" stroke="blue" d="M243.09,-46.61C243.72,-54.82 243.9,-64.31 243.62,-73.25"/>
<polygon fill="blue" stroke="blue" points="240.12,-73.2 243.09,-83.37 247.11,-73.56 240.12,-73.2"/>
</g>
<!-- node8&#45;&gt;node4 -->
<g id="edge15" class="edge">
<title>node8&#45;&gt;node4</title>
<path fill="none" stroke="blue" d="M403.09,-129.61C403.72,-137.82 403.9,-147.31 403.62,-156.25"/>
<polygon fill="blue" stroke="blue" points="400.12,-156.2 403.09,-166.37 407.11,-156.56 400.12,-156.2"/>
</g>
<!-- node9 -->
<g id="node9" class="node">
<title>node9</title>
<path fill="lightyellow" stroke="black" d="M340.5,-0.5C340.5,-0.5 453.5,-0.5 453.5,-0.5 459.5,-0.5 465.5,-6.5 465.5,-12.5 465.5,-12.5 465.5,-34.5 465.5,-34.5 465.5,-40.5 459.5,-46.5 453.5,-46.5 453.5,-46.5 340.5,-46.5 340.5,-46.5 334.5,-46.5 328.5,-40.5 328.5,-34.5 328.5,-34.5 328.5,-12.5 328.5,-12.5 328.5,-6.5 334.5,-0.5 340.5,-0.5"/>
<text text-anchor="middle" x="341.5" y="-31.3" font-family="Times,serif" font-size="14.00">9</text>
<polyline fill="none" stroke="black" points="354.5,-23.5 354.5,-46.5 "/>
<text text-anchor="middle" x="377.5" y="-31.3" font-family="Times,serif" font-size="14.00">VAR</text>
<polyline fill="none" stroke="black" points="400.5,-23.5 400.5,-46.5 "/>
<text text-anchor="middle" x="433" y="-31.3" font-family="Times,serif" font-size="14.00">size=1</text>
<polyline fill="none" stroke="black" points="328.5,-23.5 465.5,-23.5 "/>
<text text-anchor="middle" x="397" y="-8.3" font-family="Times,serif" font-size="14.00">x</text>
</g>
<!-- node8&#45;&gt;node9 -->
<g id="edge16" class="edge">
<title>node8&#45;&gt;node9</title>
<path fill="none" stroke="red" d="M390.91,-83.37C390.28,-75.15 390.1,-65.66 390.38,-56.73"/>
<polygon fill="red" stroke="red" points="393.88,-56.78 390.91,-46.61 386.89,-56.41 393.88,-56.78"/>
</g>
<!-- node10 -->
<g id="node10" class="node">
<title>node10</title>
<path fill="pink" stroke="black" d="M495.5,-0.5C495.5,-0.5 626.5,-0.5 626.5,-0.5 632.5,-0.5 638.5,-6.5 638.5,-12.5 638.5,-12.5 638.5,-34.5 638.5,-34.5 638.5,-40.5 632.5,-46.5 626.5,-46.5 626.5,-46.5 495.5,-46.5 495.5,-46.5 489.5,-46.5 483.5,-40.5 483.5,-34.5 483.5,-34.5 483.5,-12.5 483.5,-12.5 483.5,-6.5 489.5,-0.5 495.5,-0.5"/>
<text text-anchor="middle" x="501" y="-31.3" font-family="Times,serif" font-size="14.00">10</text>
<polyline fill="none" stroke="black" points="518.5,-23.5 518.5,-46.5 "/>
<text text-anchor="middle" x="546" y="-31.3" font-family="Times,serif" font-size="14.00">NUM</text>
<polyline fill="none" stroke="black" points="573.5,-23.5 573.5,-46.5 "/>
<text text-anchor="middle" x="606" y="-31.3" font-family="Times,serif" font-size="14.00">size=1</text>
<polyline fill="none" stroke="black" points="483.5,-23.5 638.5,-23.5 "/>
<text text-anchor="middle" x="561" y="-8.3" font-family="Times,serif" font-size="14.00">0</text>
</g>
<!-- node8&#45;&gt;node10 -->
<g id="edge18" class="edge">
<title>node8&#45;&gt;node10</title>
<path fill="none" stroke="green" d="M435.72,-83.37C455.2,-73.37 479.19,-61.47 500.97,-51"/>
<polygon fill="green" stroke="green" points="502.64,-54.08 510.15,-46.61 499.62,-47.76 502.64,-54.08"/>
</g>
<!-- node9&#45;&gt;node8 -->
<g id="edge17" class="edge">
<title>node9&#45;&gt;node8</title>
<path fill="none" stroke="blue" d="M403.09,-46.61C403.72,-54.82 403.9,-64.31 403.62,-73.25"/>
<polygon fill="blue" stroke="blue" points="400.12,-73.2 403.09,-83.37 407.11,-73.56 400.12,-73.2"/>
</g>
<!-- node10&#45;&gt;node8 -->
<g id="edge19" class="edge">
<title>node10&#45;&gt;node8</title>
<path fill="none" stroke="blue" d="M522.33,-46.61C502.86,-56.6 478.87,-68.5 457.09,-78.97"/>
<polygon fill="blue" stroke="blue" points="455.42,-75.89 447.9,-83.37 458.44,-82.21 455.42,-75.89"/>
</g>
<!-- node11&#45;&gt;node3 -->
<g id="edge21" class="edge">
<title>node11&#45;&gt;node3</title>
<path fill="none" stroke="blue" d="M650.09,-212.61C650.72,-220.82 650.9,-230.31 650.62,-239.25"/>
<polygon fill="blue" stroke="blue" points="647.12,-239.2 650.09,-249.37 654.11,-239.56 647.12,-239.2"/>
</g>
<!-- node12 -->
<g id="node12" class="node">
<title>node12</title>
<path fill="pink" stroke="black" d="M491.5,-83.5C491.5,-83.5 622.5,-83.5 622.5,-83.5 628.5,-83.5 634.5,-89.5 634.5,-95.5 634.5,-95.5 634.5,-117.5 634.5,-117.5 634.5,-123.5 628.5,-129.5 622.5,-129.5 622.5,-129.5 491.5,-129.5 491.5,-129.5 485.5,-129.5 479.5,-123.5 479.5,-117.5 479.5,-117.5 479.5,-95.5 479.5,-95.5 479.5,-89.5 485.5,-83.5 491.5,-83.5"/>
<text text-anchor="middle" x="497" y="-114.3" font-family="Times,serif" font-size="14.00">12</text>
<polyline fill="none" stroke="black" points="514.5,-106.5 514.5,-129.5 "/>
<text text-anchor="middle" x="542" y="-114.3" font-family="Times,serif" font-size="14.00">NUM</text>
<polyline fill="none" stroke="black" points="569.5,-106.5 569.5,-129.5 "/>
<text text-anchor="middle" x="602" y="-114.3" font-family="Times,serif" font-size="14.00">size=1</text>
<polyline fill="none" stroke="black" points="479.5,-106.5 634.5,-106.5 "/>
<text text-anchor="middle" x="557" y="-91.3" font-family="Times,serif" font-size="14.00">1000</text>
</g>
<!-- node11&#45;&gt;node12 -->
<g id="edge22" class="edge">
<title>node11&#45;&gt;node12</title>
<path fill="none" stroke="red" d="M614.14,-166.37C603.65,-157.26 592.04,-146.58 581.99,-136.83"/>
<polygon fill="red" stroke="red" points="584.24,-134.13 574.66,-129.61 579.32,-139.12 584.24,-134.13"/>
</g>
<!-- node13 -->
<g id="node13" class="node">
<title>node13</title>
<path fill="pink" stroke="black" d="M664.5,-83.5C664.5,-83.5 795.5,-83.5 795.5,-83.5 801.5,-83.5 807.5,-89.5 807.5,-95.5 807.5,-95.5 807.5,-117.5 807.5,-117.5 807.5,-123.5 801.5,-129.5 795.5,-129.5 795.5,-129.5 664.5,-129.5 664.5,-129.5 658.5,-129.5 652.5,-123.5 652.5,-117.5 652.5,-117.5 652.5,-95.5 652.5,-95.5 652.5,-89.5 658.5,-83.5 664.5,-83.5"/>
<text text-anchor="middle" x="670" y="-114.3" font-family="Times,serif" font-size="14.00">13</text>
<polyline fill="none" stroke="black" points="687.5,-106.5 687.5,-129.5 "/>
<text text-anchor="middle" x="715" y="-114.3" font-family="Times,serif" font-size="14.00">NUM</text>
<polyline fill="none" stroke="black" points="742.5,-106.5 742.5,-129.5 "/>
<text text-anchor="middle" x="775" y="-114.3" font-family="Times,serif" font-size="14.00">size=1</text>
<polyline fill="none" stroke="black" points="652.5,-106.5 807.5,-106.5 "/>
<text text-anchor="middle" x="730" y="-91.3" font-family="Times,serif" font-size="14.00">7</text>
</g>
<!-- node11&#45;&gt;node13 -->
<g id="edge24" class="edge">
<title>node11&#45;&gt;node13</title>
<path fill="none" stroke="green" d="M661.41,-166.37C670.55,-157.08 682.02,-146.16 692.97,-136.26"/>
<polygon fill="green" stroke="green" points="695.3,-138.87 700.44,-129.61 690.65,-133.65 695.3,-138.87"/>
</g>
<!-- node12&#45;&gt;node11 -->
<g id="edge23" class="edge">
<title>node12&#45;&gt;node11</title>
<path fill="none" stroke="blue" d="M586.83,-129.61C597.31,-138.71 608.93,-149.39 618.98,-159.14"/>
<polygon fill="blue" stroke="blue" points="616.74,-161.84 626.32,-166.37 621.65,-156.85 616.74,-161.84"/>
</g>
<!-- node13&#45;&gt;node11 -->
<g id="edge25" class="edge">
<title>node13&#45;&gt;node11</title>
<path fill="none" stroke="blue" d="M712.62,-129.61C703.48,-138.89 692.02,-149.81 681.06,-159.71"/>
<polygon fill="blue" stroke="blue" points="678.73,-157.1 673.59,-166.37 683.38,-162.33 678.73,-157.1"/>
</g>
<!-- node14&#45;&gt;node2 -->
<g id="edge27" class="edge">
<title>node14&#45;&gt;node2</title>
<path fill="none" stroke="blue" d="M1156.09,-295.61C1156.72,-303.82 1156.9,-313.31 1156.62,-322.25"/>
<polygon fill="blue" stroke="blue" points="1153.12,-322.2 1156.09,-332.37 1160.11,-322.56 1153.12,-322.2"/>
</g>
<!-- node15 -->
<g id="node15" class="node">
<title>node15</title>
<path fill="peachpuff" stroke="black" d="M1011,-166.5C1011,-166.5 1125,-166.5 1125,-166.5 1131,-166.5 1137,-172.5 1137,-178.5 1137,-178.5 1137,-200.5 1137,-200.5 1137,-206.5 1131,-212.5 1125,-212.5 1125,-212.5 1011,-212.5 1011,-212.5 1005,-212.5 999,-206.5 999,-200.5 999,-200.5 999,-178.5 999,-178.5 999,-172.5 1005,-166.5 1011,-166.5"/>
<text text-anchor="middle" x="1016.5" y="-197.3" font-family="Times,serif" font-size="14.00">15</text>
<polyline fill="none" stroke="black" points="1034,-189.5 1034,-212.5 "/>
<text text-anchor="middle" x="1053" y="-197.3" font-family="Times,serif" font-size="14.00">OP</text>
<polyline fill="none" stroke="black" points="1072,-189.5 1072,-212.5 "/>
<text text-anchor="middle" x="1104.5" y="-197.3" font-family="Times,serif" font-size="14.00">size=3</text>
<polyline fill="none" stroke="black" points="999,-189.5 1137,-189.5 "/>
<text text-anchor="middle" x="1068" y="-174.3" font-family="Times,serif" font-size="14.00">*</text>
</g>
<!-- node14&#45;&gt;node15 -->
<g id="edge28" class="edge">
<title>node14&#45;&gt;node15</title>
<path fill="none" stroke="red" d="M1121.5,-249.37C1111.68,-240.35 1100.84,-229.79 1091.46,-220.12"/>
<polygon fill="red" stroke="red" points="1093.73,-217.43 1084.29,-212.61 1088.66,-222.26 1093.73,-217.43"/>
</g>
<!-- node18 -->
<g id="node18" class="node">
<title>node18</title>
<path fill="peachpuff" stroke="black" d="M1175,-166.5C1175,-166.5 1289,-166.5 1289,-166.5 1295,-166.5 1301,-172.5 1301,-178.5 1301,-178.5 1301,-200.5 1301,-200.5 1301,-206.5 1295,-212.5 1289,-212.5 1289,-212.5 1175,-212.5 1175,-212.5 1169,-212.5 1163,-206.5 1163,-200.5 1163,-200.5 1163,-178.5 1163,-178.5 1163,-172.5 1169,-166.5 1175,-166.5"/>
<text text-anchor="middle" x="1180.5" y="-197.3" font-family="Times,serif" font-size="14.00">18</text>
<polyline fill="none" stroke="black" points="1198,-189.5 1198,-212.5 "/>
<text text-anchor="middle" x="1217" y="-197.3" font-family="Times,serif" font-size="14.00">OP</text>
<polyline fill="none" stroke="black" points="1236,-189.5 1236,-212.5 "/>
<text text-anchor="middle" x="1268.5" y="-197.3" font-family="Times,serif" font-size="14.00">size=3</text>
<polyline fill="none" stroke="black" points="1163,-189.5 1301,-189.5 "/>
<text text-anchor="middle" x="1232" y="-174.3" font-family="Times,serif" font-size="14.00">&#45;</text>
</g>
<!-- node14&#45;&gt;node18 -->
<g id="edge34" class="edge">
<title>node14&#45;&gt;node18</title>
<path fill="none" stroke="green" d="M1166.32,-249.37C1174.92,-240.17 1185.71,-229.37 1196.09,-219.55"/>
<polygon fill="green" stroke="green" points="1198.61,-221.99 1203.53,-212.61 1193.83,-216.87 1198.61,-221.99"/>
</g>
<!-- node15&#45;&gt;node14 -->
<g id="edge29" class="edge">
<title>node15&#45;&gt;node14</title>
<path fill="none" stroke="blue" d="M1096.47,-212.61C1106.29,-221.62 1117.13,-232.18 1126.51,-241.85"/>
<polygon fill="blue" stroke="blue" points="1124.25,-244.55 1133.68,-249.37 1129.31,-239.71 1124.25,-244.55"/>
</g>
<!-- node16 -->
<g id="node16" class="node">
<title>node16</title>
<path fill="lightyellow" stroke="black" d="M838,-83.5C838,-83.5 960,-83.5 960,-83.5 966,-83.5 972,-89.5 972,-95.5 972,-95.5 972,-117.5 972,-117.5 972,-123.5 966,-129.5 960,-129.5 960,-129.5 838,-129.5 838,-129.5 832,-129.5 826,-123.5 826,-117.5 826,-117.5 826,-95.5 826,-95.5 826,-89.5 832,-83.5 838,-83.5"/>
<text text-anchor="middle" x="843.5" y="-114.3" font-family="Times,serif" font-size="14.00">16</text>
<polyline fill="none" stroke="black" points="861,-106.5 861,-129.5 "/>
<text text-anchor="middle" x="884" y="-114.3" font-family="Times,serif" font-size="14.00">VAR</text>
<polyline fill="none" stroke="black" points="907,-106.5 907,-129.5 "/>
<text text-anchor="middle" x="939.5" y="-114.3" font-family="Times,serif" font-size="14.00">size=1</text>
<polyline fill="none" stroke="black" points="826,-106.5 972,-106.5 "/>
<text text-anchor="middle" x="899" y="-91.3" font-family="Times,serif" font-size="14.00">x</text>
</g>
<!-- node15&#45;&gt;node16 -->
<g id="edge30" class="edge">
<title>node15&#45;&gt;node16</title>
<path fill="none" stroke="red" d="M1015.73,-166.37C994.19,-156.41 969.4,-144.58 948.19,-134.14"/>
<polygon fill="red" stroke="red" points="949.55,-130.9 939.04,-129.61 946.45,-137.18 949.55,-130.9"/>
</g>
<!-- node17 -->
<g id="node17" class="node">
<title>node17</title>
<path fill="pink" stroke="black" d="M1002.5,-83.5C1002.5,-83.5 1133.5,-83.5 1133.5,-83.5 1139.5,-83.5 1145.5,-89.5 1145.5,-95.5 1145.5,-95.5 1145.5,-117.5 1145.5,-117.5 1145.5,-123.5 1139.5,-129.5 1133.5,-129.5 1133.5,-129.5 1002.5,-129.5 1002.5,-129.5 996.5,-129.5 990.5,-123.5 990.5,-117.5 990.5,-117.5 990.5,-95.5 990.5,-95.5 990.5,-89.5 996.5,-83.5 1002.5,-83.5"/>
<text text-anchor="middle" x="1008" y="-114.3" font-family="Times,serif" font-size="14.00">17</text>
<polyline fill="none" stroke="black" points="1025.5,-106.5 1025.5,-129.5 "/>
<text text-anchor="middle" x="1053" y="-114.3" font-family="Times,serif" font-size="14.00">NUM</text>
<polyline fill="none" stroke="black" points="1080.5,-106.5 1080.5,-129.5 "/>
<text text-anchor="middle" x="1113" y="-114.3" font-family="Times,serif" font-size="14.00">size=1</text>
<polyline fill="none" stroke="black" points="990.5,-106.5 1145.5,-106.5 "/>
<text text-anchor="middle" x="1068" y="-91.3" font-family="Times,serif" font-size="14.00">3</text>
</g>
<!-- node15&#45;&gt;node17 -->
<g id="edge32" class="edge">
<title>node15&#45;&gt;node17</title>
<path fill="none" stroke="green" d="M1061.91,-166.37C1061.28,-158.15 1061.1,-148.66 1061.38,-139.73"/>
<polygon fill="green" stroke="green" points="1064.88,-139.78 1061.91,-129.61 1057.89,-139.41 1064.88,-139.78"/>
</g>
<!-- node16&#45;&gt;node15 -->
<g id="edge31" class="edge">
<title>node16&#45;&gt;node15</title>
<path fill="none" stroke="blue" d="M951.21,-129.61C972.75,-139.56 997.54,-151.39 1018.75,-161.83"/>
<polygon fill="blue" stroke="blue" points="1017.4,-165.07 1027.91,-166.37 1020.5,-158.79 1017.4,-165.07"/>
</g>
<!-- node17&#45;&gt;node15 -->
<g id="edge33" class="edge">
<title>node17&#45;&gt;node15</title>
<path fill="none" stroke="blue" d="M1074.09,-129.61C1074.72,-137.82 1074.9,-147.31 1074.62,-156.25"/>
<polygon fill="blue" stroke="blue" points="1071.12,-156.2 1074.09,-166.37 1078.11,-156.56 1071.12,-156.2"/>
</g>
<!-- node18&#45;&gt;node14 -->
<g id="edge35" class="edge">
<title>node18&#45;&gt;node14</title>
<path fill="none" stroke="blue" d="M1215.71,-212.61C1207.11,-221.8 1196.32,-232.6 1185.94,-242.42"/>
<polygon fill="blue" stroke="blue" points="1183.42,-239.99 1178.5,-249.37 1188.2,-245.1 1183.42,-239.99"/>
</g>
<!-- node19 -->
<g id="node19" class="node">
<title>node19</title>
<path fill="pink" stroke="black" d="M1175.5,-83.5C1175.5,-83.5 1306.5,-83.5 1306.5,-83.5 1312.5,-83.5 1318.5,-89.5 1318.5,-95.5 1318.5,-95.5 1318.5,-117.5 1318.5,-117.5 1318.5,-123.5 1312.5,-129.5 1306.5,-129.5 1306.5,-129.5 1175.5,-129.5 1175.5,-129.5 1169.5,-129.5 1163.5,-123.5 1163.5,-117.5 1163.5,-117.5 1163.5,-95.5 1163.5,-95.5 1163.5,-89.5 1169.5,-83.5 1175.5,-83.5"/>
<text text-anchor="middle" x="1181" y="-114.3" font-family="Times,serif" font-size="14.00">19</text>
<polyline fill="none" stroke="black" points="1198.5,-106.5 1198.5,-129.5 "/>
<text text-anchor="middle" x="1226" y="-114.3" font-family="Times,serif" font-size="14.00">NUM</text>
<polyline fill="none" stroke="black" points="1253.5,-106.5 1253.5,-129.5 "/>
<text text-anchor="middle" x="1286" y="-114.3" font-family="Times,serif" font-size="14.00">size=1</text>
<polyline fill="none" stroke="black" points="1163.5,-106.5 1318.5,-106.5 "/>
<text text-anchor="middle" x="1241" y="-91.3" font-family="Times,serif" font-size="14.00">0</text>
</g>
<!-- node18&#45;&gt;node19 -->
<g id="edge36" class="edge">
<title>node18&#45;&gt;node19</title>
<path fill="none" stroke="red" d="M1228.37,-166.37C1228.65,-158.15 1229.53,-148.66 1230.8,-139.73"/>
<polygon fill="red" stroke="red" points="1234.29,-140.04 1232.45,-129.61 1227.38,-138.91 1234.29,-140.04"/>
</g>
<!-- node20 -->
<g id="node20" class="node">
<title>node20</title>
<path fill="pink" stroke="black" d="M1348.5,-83.5C1348.5,-83.5 1479.5,-83.5 1479.5,-83.5 1485.5,-83.5 1491.5,-89.5 1491.5,-95.5 1491.5,-95.5 1491.5,-117.5 1491.5,-117.5 1491.5,-123.5 1485.5,-129.5 1479.5,-129.5 1479.5,-129.5 1348.5,-129.5 1348.5,-129.5 1342.5,-129.5 1336.5,-123.5 1336.5,-117.5 1336.5,-117.5 1336.5,-95.5 1336.5,-95.5 1336.5,-89.5 1342.5,-83.5 1348.5,-83.5"/>
<text text-anchor="middle" x="1354" y="-114.3" font-family="Times,serif" font-size="14.00">20</text>
<polyline fill="none" stroke="black" points="1371.5,-106.5 1371.5,-129.5 "/>
<text text-anchor="middle" x="1399" y="-114.3" font-family="Times,serif" font-size="14.00">NUM</text>
<polyline fill="none" stroke="black" points="1426.5,-106.5 1426.5,-129.5 "/>
<text text-anchor="middle" x="1459" y="-114.3" font-family="Times,serif" font-size="14.00">size=1</text>
<polyline fill="none" stroke="black" points="1336.5,-106.5 1491.5,-106.5 "/>
<text text-anchor="middle" x="1414" y="-91.3" font-family="Times,serif" font-size="14.00">0</text>
</g>
<!-- node18&#45;&gt;node20 -->
<g id="edge38" class="edge">
<title>node18&#45;&gt;node20</title>
<path fill="none" stroke="green" d="M1275.64,-166.37C1297.63,-156.23 1324.69,-144.15 1349.05,-133.58"/>
<polygon fill="green" stroke="green" points="1350.45,-136.79 1358.24,-129.61 1347.67,-130.36 1350.45,-136.79"/>
</g>
<!-- node19&#45;&gt;node18 -->
<g id="edge37" class="edge">
<title>node19&#45;&gt;node18</title>
<path fill="none" stroke="blue" d="M1244.63,-129.61C1244.35,-137.82 1243.48,-147.31 1242.21,-156.25"/>
<polygon fill="blue" stroke="blue" points="1238.71,-155.93 1240.55,-166.37 1245.62,-157.06 1238.71,-155.93"/>
</g>
<!-- node20&#45;&gt;node18 -->
<g id="edge39" class="edge">
<title>node20&#45;&gt;node18</title>
<path fill="none" stroke="blue" d="M1370.42,-129.61C1348.43,-139.74 1321.38,-151.82 1297.01,-162.39"/>
<polygon fill="blue" stroke="blue" points="1295.61,-159.19 1287.82,-166.37 1298.39,-165.61 1295.61,-159.19"/>
</g>
<!-- node21&#45;&gt;node1 -->
<g id="edge41" class="edge">
<title>node21&#45;&gt;node1</title>
<path fill="none" stroke="blue" d="M1379.34,-378.61C1370.09,-387.89 1358.5,-398.81 1347.42,-408.71"/>
<polygon fill="blue" stroke="blue" points="1345.05,-406.13 1339.86,-415.37 1349.68,-411.38 1345.05,-406.13"/>
</g>
<!-- node22 -->
<g id="node22" class="node">
<title>node22</title>
<path fill="peachpuff" stroke="black" d="M1340,-249.5C1340,-249.5 1454,-249.5 1454,-249.5 1460,-249.5 1466,-255.5 1466,-261.5 1466,-261.5 1466,-283.5 1466,-283.5 1466,-289.5 1460,-295.5 1454,-295.5 1454,-295.5 1340,-295.5 1340,-295.5 1334,-295.5 1328,-289.5 1328,-283.5 1328,-283.5 1328,-261.5 1328,-261.5 1328,-255.5 1334,-249.5 1340,-249.5"/>
<text text-anchor="middle" x="1345.5" y="-280.3" font-family="Times,serif" font-size="14.00">22</text>
<polyline fill="none" stroke="black" points="1363,-272.5 1363,-295.5 "/>
<text text-anchor="middle" x="1382" y="-280.3" font-family="Times,serif" font-size="14.00">OP</text>
<polyline fill="none" stroke="black" points="1401,-272.5 1401,-295.5 "/>
<text text-anchor="middle" x="1433.5" y="-280.3" font-family="Times,serif" font-size="14.00">size=3</text>
<polyline fill="none" stroke="black" points="1328,-272.5 1466,-272.5 "/>
<text text-anchor="middle" x="1397" y="-257.3" font-family="Times,serif" font-size="14.00">&#45;</text>
</g>
<!-- node21&#45;&gt;node22 -->
<g id="edge42" class="edge">
<title>node21&#45;&gt;node22</title>
<path fill="none" stroke="red" d="M1390.91,-332.37C1390.28,-324.15 1390.1,-314.66 1390.38,-305.73"/>
<polygon fill="red" stroke="red" points="1393.88,-305.78 1390.91,-295.61 1386.89,-305.41 1393.88,-305.78"/>
</g>
<!-- node25 -->
<g id="node25" class="node">
<title>node25</title>
<path fill="pink" stroke="black" d="M1496.5,-249.5C1496.5,-249.5 1627.5,-249.5 1627.5,-249.5 1633.5,-249.5 1639.5,-255.5 1639.5,-261.5 1639.5,-261.5 1639.5,-283.5 1639.5,-283.5 1639.5,-289.5 1633.5,-295.5 1627.5,-295.5 1627.5,-295.5 1496.5,-295.5 1496.5,-295.5 1490.5,-295.5 1484.5,-289.5 1484.5,-283.5 1484.5,-283.5 1484.5,-261.5 1484.5,-261.5 1484.5,-255.5 1490.5,-249.5 1496.5,-249.5"/>
<text text-anchor="middle" x="1502" y="-280.3" font-family="Times,serif" font-size="14.00">25</text>
<polyline fill="none" stroke="black" points="1519.5,-272.5 1519.5,-295.5 "/>
<text text-anchor="middle" x="1547" y="-280.3" font-family="Times,serif" font-size="14.00">NUM</text>
<polyline fill="none" stroke="black" points="1574.5,-272.5 1574.5,-295.5 "/>
<text text-anchor="middle" x="1607" y="-280.3" font-family="Times,serif" font-size="14.00">size=1</text>
<polyline fill="none" stroke="black" points="1484.5,-272.5 1639.5,-272.5 "/>
<text text-anchor="middle" x="1562" y="-257.3" font-family="Times,serif" font-size="14.00">2</text>
</g>
<!-- node21&#45;&gt;node25 -->
<g id="edge48" class="edge">
<title>node21&#45;&gt;node25</title>
<path fill="none" stroke="green" d="M1436,-332.37C1455.6,-322.37 1479.74,-310.47 1501.64,-300"/>
<polygon fill="green" stroke="green" points="1503.35,-303.06 1510.88,-295.61 1500.34,-296.74 1503.35,-303.06"/>
</g>
<!-- node22&#45;&gt;node21 -->
<g id="edge43" class="edge">
<title>node22&#45;&gt;node21</title>
<path fill="none" stroke="blue" d="M1403.09,-295.61C1403.72,-303.82 1403.9,-313.31 1403.62,-322.25"/>
<polygon fill="blue" stroke="blue" points="1400.12,-322.2 1403.09,-332.37 1407.11,-322.56 1400.12,-322.2"/>
</g>
<!-- node23 -->
<g id="node23" class="node">
<title>node23</title>
<path fill="pink" stroke="black" d="M1331.5,-166.5C1331.5,-166.5 1462.5,-166.5 1462.5,-166.5 1468.5,-166.5 1474.5,-172.5 1474.5,-178.5 1474.5,-178.5 1474.5,-200.5 1474.5,-200.5 1474.5,-206.5 1468.5,-212.5 1462.5,-212.5 1462.5,-212.5 1331.5,-212.5 1331.5,-212.5 1325.5,-212.5 1319.5,-206.5 1319.5,-200.5 1319.5,-200.5 1319.5,-178.5 1319.5,-178.5 1319.5,-172.5 1325.5,-166.5 1331.5,-166.5"/>
<text text-anchor="middle" x="1337" y="-197.3" font-family="Times,serif" font-size="14.00">23</text>
<polyline fill="none" stroke="black" points="1354.5,-189.5 1354.5,-212.5 "/>
<text text-anchor="middle" x="1382" y="-197.3" font-family="Times,serif" font-size="14.00">NUM</text>
<polyline fill="none" stroke="black" points="1409.5,-189.5 1409.5,-212.5 "/>
<text text-anchor="middle" x="1442" y="-197.3" font-family="Times,serif" font-size="14.00">size=1</text>
<polyline fill="none" stroke="black" points="1319.5,-189.5 1474.5,-189.5 "/>
<text text-anchor="middle" x="1397" y="-174.3" font-family="Times,serif" font-size="14.00">1000</text>
</g>
<!-- node22&#45;&gt;node23 -->
<g id="edge44" class="edge">
<title>node22&#45;&gt;node23</title>
<path fill="none" stroke="red" d="M1390.91,-249.37C1390.28,-241.15 1390.1,-231.66 1390.38,-222.73"/>
<polygon fill="red" stroke="red" points="1393.88,-222.78 1390.91,-212.61 1386.89,-222.41 1393.88,-222.78"/>
</g>
<!-- node24 -->
<g id="node24" class="node">
<title>node24</title>
<path fill="pink" stroke="black" d="M1504.5,-166.5C1504.5,-166.5 1635.5,-166.5 1635.5,-166.5 1641.5,-166.5 1647.5,-172.5 1647.5,-178.5 1647.5,-178.5 1647.5,-200.5 1647.5,-200.5 1647.5,-206.5 1641.5,-212.5 1635.5,-212.5 1635.5,-212.5 1504.5,-212.5 1504.5,-212.5 1498.5,-212.5 1492.5,-206.5 1492.5,-200.5 1492.5,-200.5 1492.5,-178.5 1492.5,-178.5 1492.5,-172.5 1498.5,-166.5 1504.5,-166.5"/>
<text text-anchor="middle" x="1510" y="-197.3" font-family="Times,serif" font-size="14.00">24</text>
<polyline fill="none" stroke="black" points="1527.5,-189.5 1527.5,-212.5 "/>
<text text-anchor="middle" x="1555" y="-197.3" font-family="Times,serif" font-size="14.00">NUM</text>
<polyline fill="none" stroke="black" points="1582.5,-189.5 1582.5,-212.5 "/>
<text text-anchor="middle" x="1615" y="-197.3" font-family="Times,serif" font-size="14.00">size=1</text>
<polyline fill="none" stroke="black" points="1492.5,-189.5 1647.5,-189.5 "/>
<text text-anchor="middle" x="1570" y="-174.3" font-family="Times,serif" font-size="14.00">7</text>
</g>
<!-- node22&#45;&gt;node24 -->
<g id="edge46" class="edge">
<title>node22&#45;&gt;node24</title>
<path fill="none" stroke="green" d="M1438.18,-249.37C1458.86,-239.32 1484.31,-227.36 1507.34,-216.86"/>
<polygon fill="green" stroke="green" points="1509.04,-219.93 1516.7,-212.61 1506.14,-213.56 1509.04,-219.93"/>
</g>
<!-- node23&#45;&gt;node22 -->
<g id="edge45" class="edge">
<title>node23&#45;&gt;node22</title>
<path fill="none" stroke="blue" d="M1403.09,-212.61C1403.72,-220.82 1403.9,-230.31 1403.62,-239.25"/>
<polygon fill="blue" stroke="blue" points="1400.12,-239.2 1403.09,-249.37 1407.11,-239.56 1400.12,-239.2"/>
</g>
<!-- node24&#45;&gt;node22 -->
<g id="edge47" class="edge">
<title>node24&#45;&gt;node22</title>
<path fill="none" stroke="blue" d="M1528.87,-212.61C1508.2,-222.65 1482.76,-234.61 1459.73,-245.11"/>
<polygon fill="blue" stroke="blue" points="1458.02,-242.04 1450.36,-249.37 1460.92,-248.42 1458.02,-242.04"/>
</g>
<!-- node25&#45;&gt;node21 -->
<g id="edge49" class="edge">
<title>node25&#45;&gt;node21</title>
<path fill="none" stroke="blue" d="M1523.06,-295.61C1503.46,-305.6 1479.33,-317.5 1457.41,-327.97"/>
<polygon fill="blue" stroke="blue" points="1455.71,-324.91 1448.18,-332.37 1458.71,-331.23 1455.71,-324.91"/>
</g>
</g>
</svg>
