<?xml version="1.0" encoding="UTF-8" standalone="no"?>
<!DOCTYPE svg PUBLIC "-//W3C//DTD SVG 1.1//EN"
 "http://www.w3.org/Graphics/SVG/1.1/DTD/svg11.dtd">
<!-- Generated by graphviz version 2.43.0 (0)
 -->
<!-- Title: %3 Pages: 1 -->
<svg width="868pt" height="636pt"
 viewBox="0.00 0.00 867.50 636.00" xmlns="http://www.w3.org/2000/svg" xmlns:xlink="http://www.w3.org/1999/xlink">
<g id="graph0" class="graph" transform="scale(1 1) rotate(0) translate(4 632)">
<title>%3</title>
<polygon fill="white" stroke="transparent" points="-4,4 -4,-632 863.5,-632 863.5,4 -4,4"/>
<!-- node1 -->
<g id="node1" class="node">
<title>node1</title>
<path fill="peachpuff" stroke="black" d="M494,-581.5C494,-581.5 608,-581.5 608,-581.5 614,-581.5 620,-587.5 620,-593.5 620,-593.5 620,-615.5 620,-615.5 620,-621.5 614,-627.5 608,-627.5 608,-627.5 494,-627.5 494,-627.5 488,-627.5 482,-621.5 482,-615.5 482,-615.5 482,-593.5 482,-593.5 482,-587.5 488,-581.5 494,-581.5"/>
<text text-anchor="middle" x="495" y="-612.3" font-family="Times,serif" font-size="14.00">1</text>
<polyline fill="none" stroke="black" points="508,-604.5 508,-627.5 "/>
<text text-anchor="middle" x="527" y="-612.3" font-family="Times,serif" font-size="14.00">OP</text>
<polyline fill="none" stroke="black" points="546,-604.5 546,-627.5 "/>
<text text-anchor="middle" x="583" y="-612.3" font-family="Times,serif" font-size="14.00">size=21</text>
<polyline fill="none" stroke="black" points="482,-604.5 620,-604.5 "/>
<text text-anchor="middle" x="551" y="-589.3" font-family="Times,serif" font-size="14.00">^</text>
</g>
<!-- node1&#45;&gt;node1 -->
<g id="edge1" class="edge">
<title>node1&#45;&gt;node1</title>
<path fill="none" stroke="blue" d="M620.27,-618.52C630.83,-616.38 638,-611.71 638,-604.5 638,-599.77 634.91,-596.13 629.81,-593.58"/>
<polygon fill="blue" stroke="blue" points="630.87,-590.25 620.27,-590.48 628.7,-596.9 630.87,-590.25"/>
</g>
<!-- node2 -->
<g id="node2" class="node">
<title>node2</title>
<path fill="peachpuff" stroke="black" d="M416,-498.5C416,-498.5 530,-498.5 530,-498.5 536,-498.5 542,-504.5 542,-510.5 542,-510.5 542,-532.5 542,-532.5 542,-538.5 536,-544.5 530,-544.5 530,-544.5 416,-544.5 416,-544.5 410,-544.5 404,-538.5 404,-532.5 404,-532.5 404,-510.5 404,-510.5 404,-504.5 410,-498.5 416,-498.5"/>
<text text-anchor="middle" x="417" y="-529.3" font-family="Times,serif" font-size="14.00">2</text>
<polyline fill="none" stroke="black" points="430,-521.5 430,-544.5 "/>
<text text-anchor="middle" x="449" y="-529.3" font-family="Times,serif" font-size="14.00">OP</text>
<polyline fill="none" stroke="black" points="468,-521.5 468,-544.5 "/>
<text text-anchor="middle" x="505" y="-529.3" font-family="Times,serif" font-size="14.00">size=14</text>
<polyline fill="none" stroke="black" points="404,-521.5 542,-521.5 "/>
<text text-anchor="middle" x="473" y="-506.3" font-family="Times,serif" font-size="14.00">/</text>
</g>
<!-- node1&#45;&gt;node2 -->
<g id="edge2" class="edge">
<title>node1&#45;&gt;node2</title>
<path fill="none" stroke="red" d="M523.6,-581.37C514.22,-572.35 503.9,-561.79 495,-552.12"/>
<polygon fill="red" stroke="red" points="497.5,-549.68 488.2,-544.61 492.31,-554.37 497.5,-549.68"/>
</g>
<!-- node16 -->
<g id="node16" class="node">
<title>node16</title>
<path fill="peachpuff" stroke="black" d="M576,-498.5C576,-498.5 690,-498.5 690,-498.5 696,-498.5 702,-504.5 702,-510.5 702,-510.5 702,-532.5 702,-532.5 702,-538.5 696,-544.5 690,-544.5 690,-544.5 576,-544.5 576,-544.5 570,-544.5 564,-538.5 564,-532.5 564,-532.5 564,-510.5 564,-510.5 564,-504.5 570,-498.5 576,-498.5"/>
<text text-anchor="middle" x="581.5" y="-529.3" font-family="Times,serif" font-size="14.00">16</text>
<polyline fill="none" stroke="black" points="599,-521.5 599,-544.5 "/>
<text text-anchor="middle" x="618" y="-529.3" font-family="Times,serif" font-size="14.00">OP</text>
<polyline fill="none" stroke="black" points="637,-521.5 637,-544.5 "/>
<text text-anchor="middle" x="669.5" y="-529.3" font-family="Times,serif" font-size="14.00">size=6</text>
<polyline fill="none" stroke="black" points="564,-521.5 702,-521.5 "/>
<text text-anchor="middle" x="633" y="-506.3" font-family="Times,serif" font-size="14.00">arccos</text>
</g>
<!-- node1&#45;&gt;node16 -->
<g id="edge30" class="edge">
<title>node1&#45;&gt;node16</title>
<path fill="none" stroke="green" d="M567.32,-581.37C575.92,-572.17 586.71,-561.37 597.09,-551.55"/>
<polygon fill="green" stroke="green" points="599.61,-553.99 604.53,-544.61 594.83,-548.87 599.61,-553.99"/>
</g>
<!-- node2&#45;&gt;node1 -->
<g id="edge3" class="edge">
<title>node2&#45;&gt;node1</title>
<path fill="none" stroke="blue" d="M500.38,-544.61C509.75,-553.62 520.07,-564.18 528.98,-573.85"/>
<polygon fill="blue" stroke="blue" points="526.47,-576.3 535.78,-581.37 531.66,-571.6 526.47,-576.3"/>
</g>
<!-- node3 -->
<g id="node3" class="node">
<title>node3</title>
<path fill="peachpuff" stroke="black" d="M251,-415.5C251,-415.5 365,-415.5 365,-415.5 371,-415.5 377,-421.5 377,-427.5 377,-427.5 377,-449.5 377,-449.5 377,-455.5 371,-461.5 365,-461.5 365,-461.5 251,-461.5 251,-461.5 245,-461.5 239,-455.5 239,-449.5 239,-449.5 239,-427.5 239,-427.5 239,-421.5 245,-415.5 251,-415.5"/>
<text text-anchor="middle" x="252" y="-446.3" font-family="Times,serif" font-size="14.00">3</text>
<polyline fill="none" stroke="black" points="265,-438.5 265,-461.5 "/>
<text text-anchor="middle" x="284" y="-446.3" font-family="Times,serif" font-size="14.00">OP</text>
<polyline fill="none" stroke="black" points="303,-438.5 303,-461.5 "/>
<text text-anchor="middle" x="340" y="-446.3" font-family="Times,serif" font-size="14.00">size=12</text>
<polyline fill="none" stroke="black" points="239,-438.5 377,-438.5 "/>
<text text-anchor="middle" x="308" y="-423.3" font-family="Times,serif" font-size="14.00">tg</text>
</g>
<!-- node2&#45;&gt;node3 -->
<g id="edge4" class="edge">
<title>node2&#45;&gt;node3</title>
<path fill="none" stroke="red" d="M421.82,-498.37C400.78,-488.41 376.57,-476.58 355.88,-466.14"/>
<polygon fill="red" stroke="red" points="357.45,-463.01 346.94,-461.61 354.28,-469.25 357.45,-463.01"/>
</g>
<!-- node15 -->
<g id="node15" class="node">
<title>node15</title>
<path fill="pink" stroke="black" d="M407.5,-415.5C407.5,-415.5 538.5,-415.5 538.5,-415.5 544.5,-415.5 550.5,-421.5 550.5,-427.5 550.5,-427.5 550.5,-449.5 550.5,-449.5 550.5,-455.5 544.5,-461.5 538.5,-461.5 538.5,-461.5 407.5,-461.5 407.5,-461.5 401.5,-461.5 395.5,-455.5 395.5,-449.5 395.5,-449.5 395.5,-427.5 395.5,-427.5 395.5,-421.5 401.5,-415.5 407.5,-415.5"/>
<text text-anchor="middle" x="413" y="-446.3" font-family="Times,serif" font-size="14.00">15</text>
<polyline fill="none" stroke="black" points="430.5,-438.5 430.5,-461.5 "/>
<text text-anchor="middle" x="458" y="-446.3" font-family="Times,serif" font-size="14.00">NUM</text>
<polyline fill="none" stroke="black" points="485.5,-438.5 485.5,-461.5 "/>
<text text-anchor="middle" x="518" y="-446.3" font-family="Times,serif" font-size="14.00">size=1</text>
<polyline fill="none" stroke="black" points="395.5,-438.5 550.5,-438.5 "/>
<text text-anchor="middle" x="473" y="-423.3" font-family="Times,serif" font-size="14.00">7</text>
</g>
<!-- node2&#45;&gt;node15 -->
<g id="edge28" class="edge">
<title>node2&#45;&gt;node15</title>
<path fill="none" stroke="green" d="M466.91,-498.37C466.28,-490.15 466.1,-480.66 466.38,-471.73"/>
<polygon fill="green" stroke="green" points="469.88,-471.78 466.91,-461.61 462.89,-471.41 469.88,-471.78"/>
</g>
<!-- node3&#45;&gt;node2 -->
<g id="edge5" class="edge">
<title>node3&#45;&gt;node2</title>
<path fill="none" stroke="blue" d="M359.12,-461.61C380.16,-471.56 404.37,-483.39 425.07,-493.83"/>
<polygon fill="blue" stroke="blue" points="423.5,-496.96 434,-498.37 426.67,-490.72 423.5,-496.96"/>
</g>
<!-- node4 -->
<g id="node4" class="node">
<title>node4</title>
<path fill="peachpuff" stroke="black" d="M251,-332.5C251,-332.5 365,-332.5 365,-332.5 371,-332.5 377,-338.5 377,-344.5 377,-344.5 377,-366.5 377,-366.5 377,-372.5 371,-378.5 365,-378.5 365,-378.5 251,-378.5 251,-378.5 245,-378.5 239,-372.5 239,-366.5 239,-366.5 239,-344.5 239,-344.5 239,-338.5 245,-332.5 251,-332.5"/>
<text text-anchor="middle" x="252" y="-363.3" font-family="Times,serif" font-size="14.00">4</text>
<polyline fill="none" stroke="black" points="265,-355.5 265,-378.5 "/>
<text text-anchor="middle" x="284" y="-363.3" font-family="Times,serif" font-size="14.00">OP</text>
<polyline fill="none" stroke="black" points="303,-355.5 303,-378.5 "/>
<text text-anchor="middle" x="340" y="-363.3" font-family="Times,serif" font-size="14.00">size=11</text>
<polyline fill="none" stroke="black" points="239,-355.5 377,-355.5 "/>
<text text-anchor="middle" x="308" y="-340.3" font-family="Times,serif" font-size="14.00">^</text>
</g>
<!-- node3&#45;&gt;node4 -->
<g id="edge6" class="edge">
<title>node3&#45;&gt;node4</title>
<path fill="none" stroke="green" d="M301.91,-415.37C301.28,-407.15 301.1,-397.66 301.38,-388.73"/>
<polygon fill="green" stroke="green" points="304.88,-388.78 301.91,-378.61 297.89,-388.41 304.88,-388.78"/>
</g>
<!-- node4&#45;&gt;node3 -->
<g id="edge7" class="edge">
<title>node4&#45;&gt;node3</title>
<path fill="none" stroke="blue" d="M314.09,-378.61C314.72,-386.82 314.9,-396.31 314.62,-405.25"/>
<polygon fill="blue" stroke="blue" points="311.12,-405.2 314.09,-415.37 318.11,-405.56 311.12,-405.2"/>
</g>
<!-- node5 -->
<g id="node5" class="node">
<title>node5</title>
<path fill="peachpuff" stroke="black" d="M176.5,-249.5C176.5,-249.5 281.5,-249.5 281.5,-249.5 287.5,-249.5 293.5,-255.5 293.5,-261.5 293.5,-261.5 293.5,-283.5 293.5,-283.5 293.5,-289.5 287.5,-295.5 281.5,-295.5 281.5,-295.5 176.5,-295.5 176.5,-295.5 170.5,-295.5 164.5,-289.5 164.5,-283.5 164.5,-283.5 164.5,-261.5 164.5,-261.5 164.5,-255.5 170.5,-249.5 176.5,-249.5"/>
<text text-anchor="middle" x="177.5" y="-280.3" font-family="Times,serif" font-size="14.00">5</text>
<polyline fill="none" stroke="black" points="190.5,-272.5 190.5,-295.5 "/>
<text text-anchor="middle" x="209.5" y="-280.3" font-family="Times,serif" font-size="14.00">OP</text>
<polyline fill="none" stroke="black" points="228.5,-272.5 228.5,-295.5 "/>
<text text-anchor="middle" x="261" y="-280.3" font-family="Times,serif" font-size="14.00">size=7</text>
<polyline fill="none" stroke="black" points="164.5,-272.5 293.5,-272.5 "/>
<text text-anchor="middle" x="229" y="-257.3" font-family="Times,serif" font-size="14.00">&#45;</text>
</g>
<!-- node4&#45;&gt;node5 -->
<g id="edge8" class="edge">
<title>node4&#45;&gt;node5</title>
<path fill="none" stroke="red" d="M280.32,-332.37C270.83,-323.35 260.39,-312.79 251.36,-303.12"/>
<polygon fill="red" stroke="red" points="253.81,-300.61 244.47,-295.61 248.65,-305.34 253.81,-300.61"/>
</g>
<!-- node12 -->
<g id="node12" class="node">
<title>node12</title>
<path fill="peachpuff" stroke="black" d="M332,-249.5C332,-249.5 446,-249.5 446,-249.5 452,-249.5 458,-255.5 458,-261.5 458,-261.5 458,-283.5 458,-283.5 458,-289.5 452,-295.5 446,-295.5 446,-295.5 332,-295.5 332,-295.5 326,-295.5 320,-289.5 320,-283.5 320,-283.5 320,-261.5 320,-261.5 320,-255.5 326,-249.5 332,-249.5"/>
<text text-anchor="middle" x="337.5" y="-280.3" font-family="Times,serif" font-size="14.00">12</text>
<polyline fill="none" stroke="black" points="355,-272.5 355,-295.5 "/>
<text text-anchor="middle" x="374" y="-280.3" font-family="Times,serif" font-size="14.00">OP</text>
<polyline fill="none" stroke="black" points="393,-272.5 393,-295.5 "/>
<text text-anchor="middle" x="425.5" y="-280.3" font-family="Times,serif" font-size="14.00">size=3</text>
<polyline fill="none" stroke="black" points="320,-272.5 458,-272.5 "/>
<text text-anchor="middle" x="389" y="-257.3" font-family="Times,serif" font-size="14.00">/</text>
</g>
<!-- node4&#45;&gt;node12 -->
<g id="edge22" class="edge">
<title>node4&#45;&gt;node12</title>
<path fill="none" stroke="green" d="M324.04,-332.37C332.53,-323.17 343.19,-312.37 353.45,-302.55"/>
<polygon fill="green" stroke="green" points="355.93,-305.02 360.8,-295.61 351.13,-299.92 355.93,-305.02"/>
</g>
<!-- node5&#45;&gt;node4 -->
<g id="edge9" class="edge">
<title>node5&#45;&gt;node4</title>
<path fill="none" stroke="blue" d="M256.65,-295.61C266.14,-304.62 276.58,-315.18 285.61,-324.85"/>
<polygon fill="blue" stroke="blue" points="283.17,-327.36 292.5,-332.37 288.33,-322.63 283.17,-327.36"/>
</g>
<!-- node6 -->
<g id="node6" class="node">
<title>node6</title>
<path fill="pink" stroke="black" d="M12,-166.5C12,-166.5 134,-166.5 134,-166.5 140,-166.5 146,-172.5 146,-178.5 146,-178.5 146,-200.5 146,-200.5 146,-206.5 140,-212.5 134,-212.5 134,-212.5 12,-212.5 12,-212.5 6,-212.5 0,-206.5 0,-200.5 0,-200.5 0,-178.5 0,-178.5 0,-172.5 6,-166.5 12,-166.5"/>
<text text-anchor="middle" x="13" y="-197.3" font-family="Times,serif" font-size="14.00">6</text>
<polyline fill="none" stroke="black" points="26,-189.5 26,-212.5 "/>
<text text-anchor="middle" x="53.5" y="-197.3" font-family="Times,serif" font-size="14.00">NUM</text>
<polyline fill="none" stroke="black" points="81,-189.5 81,-212.5 "/>
<text text-anchor="middle" x="113.5" y="-197.3" font-family="Times,serif" font-size="14.00">size=1</text>
<polyline fill="none" stroke="black" points="0,-189.5 146,-189.5 "/>
<text text-anchor="middle" x="73" y="-174.3" font-family="Times,serif" font-size="14.00">1</text>
</g>
<!-- node5&#45;&gt;node6 -->
<g id="edge10" class="edge">
<title>node5&#45;&gt;node6</title>
<path fill="none" stroke="red" d="M180.28,-249.37C160.52,-239.5 137.86,-227.79 118.44,-217.42"/>
<polygon fill="red" stroke="red" points="119.95,-214.26 109.49,-212.61 116.64,-220.42 119.95,-214.26"/>
</g>
<!-- node7 -->
<g id="node7" class="node">
<title>node7</title>
<path fill="peachpuff" stroke="black" d="M176.5,-166.5C176.5,-166.5 281.5,-166.5 281.5,-166.5 287.5,-166.5 293.5,-172.5 293.5,-178.5 293.5,-178.5 293.5,-200.5 293.5,-200.5 293.5,-206.5 287.5,-212.5 281.5,-212.5 281.5,-212.5 176.5,-212.5 176.5,-212.5 170.5,-212.5 164.5,-206.5 164.5,-200.5 164.5,-200.5 164.5,-178.5 164.5,-178.5 164.5,-172.5 170.5,-166.5 176.5,-166.5"/>
<text text-anchor="middle" x="177.5" y="-197.3" font-family="Times,serif" font-size="14.00">7</text>
<polyline fill="none" stroke="black" points="190.5,-189.5 190.5,-212.5 "/>
<text text-anchor="middle" x="209.5" y="-197.3" font-family="Times,serif" font-size="14.00">OP</text>
<polyline fill="none" stroke="black" points="228.5,-189.5 228.5,-212.5 "/>
<text text-anchor="middle" x="261" y="-197.3" font-family="Times,serif" font-size="14.00">size=5</text>
<polyline fill="none" stroke="black" points="164.5,-189.5 293.5,-189.5 "/>
<text text-anchor="middle" x="229" y="-174.3" font-family="Times,serif" font-size="14.00">log</text>
</g>
<!-- node5&#45;&gt;node7 -->
<g id="edge12" class="edge">
<title>node5&#45;&gt;node7</title>
<path fill="none" stroke="green" d="M222.91,-249.37C222.28,-241.15 222.1,-231.66 222.38,-222.73"/>
<polygon fill="green" stroke="green" points="225.88,-222.78 222.91,-212.61 218.89,-222.41 225.88,-222.78"/>
</g>
<!-- node6&#45;&gt;node5 -->
<g id="edge11" class="edge">
<title>node6&#45;&gt;node5</title>
<path fill="none" stroke="blue" d="M121.66,-212.61C141.42,-222.47 164.08,-234.18 183.5,-244.55"/>
<polygon fill="blue" stroke="blue" points="182,-247.72 192.46,-249.37 185.31,-241.55 182,-247.72"/>
</g>
<!-- node7&#45;&gt;node5 -->
<g id="edge13" class="edge">
<title>node7&#45;&gt;node5</title>
<path fill="none" stroke="blue" d="M235.09,-212.61C235.72,-220.82 235.9,-230.31 235.62,-239.25"/>
<polygon fill="blue" stroke="blue" points="232.12,-239.2 235.09,-249.37 239.11,-239.56 232.12,-239.2"/>
</g>
<!-- node8 -->
<g id="node8" class="node">
<title>node8</title>
<path fill="pink" stroke="black" d="M90,-83.5C90,-83.5 212,-83.5 212,-83.5 218,-83.5 224,-89.5 224,-95.5 224,-95.5 224,-117.5 224,-117.5 224,-123.5 218,-129.5 212,-129.5 212,-129.5 90,-129.5 90,-129.5 84,-129.5 78,-123.5 78,-117.5 78,-117.5 78,-95.5 78,-95.5 78,-89.5 84,-83.5 90,-83.5"/>
<text text-anchor="middle" x="91" y="-114.3" font-family="Times,serif" font-size="14.00">8</text>
<polyline fill="none" stroke="black" points="104,-106.5 104,-129.5 "/>
<text text-anchor="middle" x="131.5" y="-114.3" font-family="Times,serif" font-size="14.00">NUM</text>
<polyline fill="none" stroke="black" points="159,-106.5 159,-129.5 "/>
<text text-anchor="middle" x="191.5" y="-114.3" font-family="Times,serif" font-size="14.00">size=1</text>
<polyline fill="none" stroke="black" points="78,-106.5 224,-106.5 "/>
<text text-anchor="middle" x="151" y="-91.3" font-family="Times,serif" font-size="14.00">3</text>
</g>
<!-- node7&#45;&gt;node8 -->
<g id="edge14" class="edge">
<title>node7&#45;&gt;node8</title>
<path fill="none" stroke="red" d="M201.6,-166.37C192.22,-157.35 181.9,-146.79 173,-137.12"/>
<polygon fill="red" stroke="red" points="175.5,-134.68 166.2,-129.61 170.31,-139.37 175.5,-134.68"/>
</g>
<!-- node9 -->
<g id="node9" class="node">
<title>node9</title>
<path fill="peachpuff" stroke="black" d="M254.5,-83.5C254.5,-83.5 359.5,-83.5 359.5,-83.5 365.5,-83.5 371.5,-89.5 371.5,-95.5 371.5,-95.5 371.5,-117.5 371.5,-117.5 371.5,-123.5 365.5,-129.5 359.5,-129.5 359.5,-129.5 254.5,-129.5 254.5,-129.5 248.5,-129.5 242.5,-123.5 242.5,-117.5 242.5,-117.5 242.5,-95.5 242.5,-95.5 242.5,-89.5 248.5,-83.5 254.5,-83.5"/>
<text text-anchor="middle" x="255.5" y="-114.3" font-family="Times,serif" font-size="14.00">9</text>
<polyline fill="none" stroke="black" points="268.5,-106.5 268.5,-129.5 "/>
<text text-anchor="middle" x="287.5" y="-114.3" font-family="Times,serif" font-size="14.00">OP</text>
<polyline fill="none" stroke="black" points="306.5,-106.5 306.5,-129.5 "/>
<text text-anchor="middle" x="339" y="-114.3" font-family="Times,serif" font-size="14.00">size=3</text>
<polyline fill="none" stroke="black" points="242.5,-106.5 371.5,-106.5 "/>
<text text-anchor="middle" x="307" y="-91.3" font-family="Times,serif" font-size="14.00">*</text>
</g>
<!-- node7&#45;&gt;node9 -->
<g id="edge16" class="edge">
<title>node7&#45;&gt;node9</title>
<path fill="none" stroke="green" d="M244.22,-166.37C252.29,-157.26 262.43,-146.58 272.24,-136.83"/>
<polygon fill="green" stroke="green" points="274.92,-139.1 279.62,-129.61 270.03,-134.1 274.92,-139.1"/>
</g>
<!-- node8&#45;&gt;node7 -->
<g id="edge15" class="edge">
<title>node8&#45;&gt;node7</title>
<path fill="none" stroke="blue" d="M178.38,-129.61C187.75,-138.62 198.07,-149.18 206.98,-158.85"/>
<polygon fill="blue" stroke="blue" points="204.47,-161.3 213.78,-166.37 209.66,-156.6 204.47,-161.3"/>
</g>
<!-- node9&#45;&gt;node7 -->
<g id="edge17" class="edge">
<title>node9&#45;&gt;node7</title>
<path fill="none" stroke="blue" d="M291.8,-129.61C283.74,-138.71 273.59,-149.39 263.79,-159.14"/>
<polygon fill="blue" stroke="blue" points="261.1,-156.87 256.4,-166.37 266,-161.87 261.1,-156.87"/>
</g>
<!-- node10 -->
<g id="node10" class="node">
<title>node10</title>
<path fill="pink" stroke="black" d="M157.5,-0.5C157.5,-0.5 288.5,-0.5 288.5,-0.5 294.5,-0.5 300.5,-6.5 300.5,-12.5 300.5,-12.5 300.5,-34.5 300.5,-34.5 300.5,-40.5 294.5,-46.5 288.5,-46.5 288.5,-46.5 157.5,-46.5 157.5,-46.5 151.5,-46.5 145.5,-40.5 145.5,-34.5 145.5,-34.5 145.5,-12.5 145.5,-12.5 145.5,-6.5 151.5,-0.5 157.5,-0.5"/>
<text text-anchor="middle" x="163" y="-31.3" font-family="Times,serif" font-size="14.00">10</text>
<polyline fill="none" stroke="black" points="180.5,-23.5 180.5,-46.5 "/>
<text text-anchor="middle" x="208" y="-31.3" font-family="Times,serif" font-size="14.00">NUM</text>
<polyline fill="none" stroke="black" points="235.5,-23.5 235.5,-46.5 "/>
<text text-anchor="middle" x="268" y="-31.3" font-family="Times,serif" font-size="14.00">size=1</text>
<polyline fill="none" stroke="black" points="145.5,-23.5 300.5,-23.5 "/>
<text text-anchor="middle" x="223" y="-8.3" font-family="Times,serif" font-size="14.00">2</text>
</g>
<!-- node9&#45;&gt;node10 -->
<g id="edge18" class="edge">
<title>node9&#45;&gt;node10</title>
<path fill="none" stroke="red" d="M277.96,-83.37C267.81,-74.26 256.59,-63.58 246.9,-53.83"/>
<polygon fill="red" stroke="red" points="249.33,-51.31 239.84,-46.61 244.33,-56.2 249.33,-51.31"/>
</g>
<!-- node11 -->
<g id="node11" class="node">
<title>node11</title>
<path fill="lightyellow" stroke="black" d="M331,-0.5C331,-0.5 453,-0.5 453,-0.5 459,-0.5 465,-6.5 465,-12.5 465,-12.5 465,-34.5 465,-34.5 465,-40.5 459,-46.5 453,-46.5 453,-46.5 331,-46.5 331,-46.5 325,-46.5 319,-40.5 319,-34.5 319,-34.5 319,-12.5 319,-12.5 319,-6.5 325,-0.5 331,-0.5"/>
<text text-anchor="middle" x="336.5" y="-31.3" font-family="Times,serif" font-size="14.00">11</text>
<polyline fill="none" stroke="black" points="354,-23.5 354,-46.5 "/>
<text text-anchor="middle" x="377" y="-31.3" font-family="Times,serif" font-size="14.00">VAR</text>
<polyline fill="none" stroke="black" points="400,-23.5 400,-46.5 "/>
<text text-anchor="middle" x="432.5" y="-31.3" font-family="Times,serif" font-size="14.00">size=1</text>
<polyline fill="none" stroke="black" points="319,-23.5 465,-23.5 "/>
<text text-anchor="middle" x="392" y="-8.3" font-family="Times,serif" font-size="14.00">x</text>
</g>
<!-- node9&#45;&gt;node11 -->
<g id="edge20" class="edge">
<title>node9&#45;&gt;node11</title>
<path fill="none" stroke="green" d="M324.14,-83.37C333.08,-74.17 344.27,-63.37 355.01,-53.55"/>
<polygon fill="green" stroke="green" points="357.63,-55.9 362.71,-46.61 352.94,-50.7 357.63,-55.9"/>
</g>
<!-- node10&#45;&gt;node9 -->
<g id="edge19" class="edge">
<title>node10&#45;&gt;node9</title>
<path fill="none" stroke="blue" d="M252.01,-46.61C262.16,-55.71 273.38,-66.39 283.07,-76.14"/>
<polygon fill="blue" stroke="blue" points="280.64,-78.66 290.14,-83.37 285.65,-73.77 280.64,-78.66"/>
</g>
<!-- node11&#45;&gt;node9 -->
<g id="edge21" class="edge">
<title>node11&#45;&gt;node9</title>
<path fill="none" stroke="blue" d="M374.89,-46.61C365.95,-55.8 354.76,-66.6 344.02,-76.42"/>
<polygon fill="blue" stroke="blue" points="341.4,-74.07 336.32,-83.37 346.09,-79.27 341.4,-74.07"/>
</g>
<!-- node12&#45;&gt;node4 -->
<g id="edge23" class="edge">
<title>node12&#45;&gt;node4</title>
<path fill="none" stroke="blue" d="M372.98,-295.61C364.5,-304.8 353.84,-315.6 343.58,-325.42"/>
<polygon fill="blue" stroke="blue" points="341.1,-322.96 336.22,-332.37 345.9,-328.05 341.1,-322.96"/>
</g>
<!-- node13 -->
<g id="node13" class="node">
<title>node13</title>
<path fill="pink" stroke="black" d="M323.5,-166.5C323.5,-166.5 454.5,-166.5 454.5,-166.5 460.5,-166.5 466.5,-172.5 466.5,-178.5 466.5,-178.5 466.5,-200.5 466.5,-200.5 466.5,-206.5 460.5,-212.5 454.5,-212.5 454.5,-212.5 323.5,-212.5 323.5,-212.5 317.5,-212.5 311.5,-206.5 311.5,-200.5 311.5,-200.5 311.5,-178.5 311.5,-178.5 311.5,-172.5 317.5,-166.5 323.5,-166.5"/>
<text text-anchor="middle" x="329" y="-197.3" font-family="Times,serif" font-size="14.00">13</text>
<polyline fill="none" stroke="black" points="346.5,-189.5 346.5,-212.5 "/>
<text text-anchor="middle" x="374" y="-197.3" font-family="Times,serif" font-size="14.00">NUM</text>
<polyline fill="none" stroke="black" points="401.5,-189.5 401.5,-212.5 "/>
<text text-anchor="middle" x="434" y="-197.3" font-family="Times,serif" font-size="14.00">size=1</text>
<polyline fill="none" stroke="black" points="311.5,-189.5 466.5,-189.5 "/>
<text text-anchor="middle" x="389" y="-174.3" font-family="Times,serif" font-size="14.00">1</text>
</g>
<!-- node12&#45;&gt;node13 -->
<g id="edge24" class="edge">
<title>node12&#45;&gt;node13</title>
<path fill="none" stroke="red" d="M382.91,-249.37C382.28,-241.15 382.1,-231.66 382.38,-222.73"/>
<polygon fill="red" stroke="red" points="385.88,-222.78 382.91,-212.61 378.89,-222.41 385.88,-222.78"/>
</g>
<!-- node14 -->
<g id="node14" class="node">
<title>node14</title>
<path fill="pink" stroke="black" d="M496.5,-166.5C496.5,-166.5 627.5,-166.5 627.5,-166.5 633.5,-166.5 639.5,-172.5 639.5,-178.5 639.5,-178.5 639.5,-200.5 639.5,-200.5 639.5,-206.5 633.5,-212.5 627.5,-212.5 627.5,-212.5 496.5,-212.5 496.5,-212.5 490.5,-212.5 484.5,-206.5 484.5,-200.5 484.5,-200.5 484.5,-178.5 484.5,-178.5 484.5,-172.5 490.5,-166.5 496.5,-166.5"/>
<text text-anchor="middle" x="502" y="-197.3" font-family="Times,serif" font-size="14.00">14</text>
<polyline fill="none" stroke="black" points="519.5,-189.5 519.5,-212.5 "/>
<text text-anchor="middle" x="547" y="-197.3" font-family="Times,serif" font-size="14.00">NUM</text>
<polyline fill="none" stroke="black" points="574.5,-189.5 574.5,-212.5 "/>
<text text-anchor="middle" x="607" y="-197.3" font-family="Times,serif" font-size="14.00">size=1</text>
<polyline fill="none" stroke="black" points="484.5,-189.5 639.5,-189.5 "/>
<text text-anchor="middle" x="562" y="-174.3" font-family="Times,serif" font-size="14.00">2</text>
</g>
<!-- node12&#45;&gt;node14 -->
<g id="edge26" class="edge">
<title>node12&#45;&gt;node14</title>
<path fill="none" stroke="green" d="M430.18,-249.37C450.86,-239.32 476.31,-227.36 499.34,-216.86"/>
<polygon fill="green" stroke="green" points="501.04,-219.93 508.7,-212.61 498.14,-213.56 501.04,-219.93"/>
</g>
<!-- node13&#45;&gt;node12 -->
<g id="edge25" class="edge">
<title>node13&#45;&gt;node12</title>
<path fill="none" stroke="blue" d="M395.09,-212.61C395.72,-220.82 395.9,-230.31 395.62,-239.25"/>
<polygon fill="blue" stroke="blue" points="392.12,-239.2 395.09,-249.37 399.11,-239.56 392.12,-239.2"/>
</g>
<!-- node14&#45;&gt;node12 -->
<g id="edge27" class="edge">
<title>node14&#45;&gt;node12</title>
<path fill="none" stroke="blue" d="M520.87,-212.61C500.2,-222.65 474.76,-234.61 451.73,-245.11"/>
<polygon fill="blue" stroke="blue" points="450.02,-242.04 442.36,-249.37 452.92,-248.42 450.02,-242.04"/>
</g>
<!-- node15&#45;&gt;node2 -->
<g id="edge29" class="edge">
<title>node15&#45;&gt;node2</title>
<path fill="none" stroke="blue" d="M479.09,-461.61C479.72,-469.82 479.9,-479.31 479.62,-488.25"/>
<polygon fill="blue" stroke="blue" points="476.12,-488.2 479.09,-498.37 483.11,-488.56 476.12,-488.2"/>
</g>
<!-- node16&#45;&gt;node1 -->
<g id="edge31" class="edge">
<title>node16&#45;&gt;node1</title>
<path fill="none" stroke="blue" d="M616.71,-544.61C608.11,-553.8 597.32,-564.6 586.94,-574.42"/>
<polygon fill="blue" stroke="blue" points="584.42,-571.99 579.5,-581.37 589.2,-577.1 584.42,-571.99"/>
</g>
<!-- node17 -->
<g id="node17" class="node">
<title>node17</title>
<path fill="peachpuff" stroke="black" d="M581,-415.5C581,-415.5 695,-415.5 695,-415.5 701,-415.5 707,-421.5 707,-427.5 707,-427.5 707,-449.5 707,-449.5 707,-455.5 701,-461.5 695,-461.5 695,-461.5 581,-461.5 581,-461.5 575,-461.5 569,-455.5 569,-449.5 569,-449.5 569,-427.5 569,-427.5 569,-421.5 575,-415.5 581,-415.5"/>
<text text-anchor="middle" x="586.5" y="-446.3" font-family="Times,serif" font-size="14.00">17</text>
<polyline fill="none" stroke="black" points="604,-438.5 604,-461.5 "/>
<text text-anchor="middle" x="623" y="-446.3" font-family="Times,serif" font-size="14.00">OP</text>
<polyline fill="none" stroke="black" points="642,-438.5 642,-461.5 "/>
<text text-anchor="middle" x="674.5" y="-446.3" font-family="Times,serif" font-size="14.00">size=5</text>
<polyline fill="none" stroke="black" points="569,-438.5 707,-438.5 "/>
<text text-anchor="middle" x="638" y="-423.3" font-family="Times,serif" font-size="14.00">*</text>
</g>
<!-- node16&#45;&gt;node17 -->
<g id="edge32" class="edge">
<title>node16&#45;&gt;node17</title>
<path fill="none" stroke="green" d="M628.28,-498.37C628.15,-490.15 628.56,-480.66 629.39,-471.73"/>
<polygon fill="green" stroke="green" points="632.89,-471.94 630.55,-461.61 625.93,-471.14 632.89,-471.94"/>
</g>
<!-- node17&#45;&gt;node16 -->
<g id="edge33" class="edge">
<title>node17&#45;&gt;node16</title>
<path fill="none" stroke="blue" d="M642.72,-461.61C642.85,-469.82 642.44,-479.31 641.62,-488.25"/>
<polygon fill="blue" stroke="blue" points="638.12,-488.03 640.46,-498.37 645.07,-488.83 638.12,-488.03"/>
</g>
<!-- node18 -->
<g id="node18" class="node">
<title>node18</title>
<path fill="pink" stroke="black" d="M447.5,-332.5C447.5,-332.5 578.5,-332.5 578.5,-332.5 584.5,-332.5 590.5,-338.5 590.5,-344.5 590.5,-344.5 590.5,-366.5 590.5,-366.5 590.5,-372.5 584.5,-378.5 578.5,-378.5 578.5,-378.5 447.5,-378.5 447.5,-378.5 441.5,-378.5 435.5,-372.5 435.5,-366.5 435.5,-366.5 435.5,-344.5 435.5,-344.5 435.5,-338.5 441.5,-332.5 447.5,-332.5"/>
<text text-anchor="middle" x="453" y="-363.3" font-family="Times,serif" font-size="14.00">18</text>
<polyline fill="none" stroke="black" points="470.5,-355.5 470.5,-378.5 "/>
<text text-anchor="middle" x="498" y="-363.3" font-family="Times,serif" font-size="14.00">NUM</text>
<polyline fill="none" stroke="black" points="525.5,-355.5 525.5,-378.5 "/>
<text text-anchor="middle" x="558" y="-363.3" font-family="Times,serif" font-size="14.00">size=1</text>
<polyline fill="none" stroke="black" points="435.5,-355.5 590.5,-355.5 "/>
<text text-anchor="middle" x="513" y="-340.3" font-family="Times,serif" font-size="14.00">2</text>
</g>
<!-- node17&#45;&gt;node18 -->
<g id="edge34" class="edge">
<title>node17&#45;&gt;node18</title>
<path fill="none" stroke="red" d="M597.75,-415.37C582.27,-405.81 564.74,-394.53 549.62,-384.41"/>
<polygon fill="red" stroke="red" points="551.27,-381.3 541.03,-378.61 547.36,-387.1 551.27,-381.3"/>
</g>
<!-- node19 -->
<g id="node19" class="node">
<title>node19</title>
<path fill="peachpuff" stroke="black" d="M621,-332.5C621,-332.5 735,-332.5 735,-332.5 741,-332.5 747,-338.5 747,-344.5 747,-344.5 747,-366.5 747,-366.5 747,-372.5 741,-378.5 735,-378.5 735,-378.5 621,-378.5 621,-378.5 615,-378.5 609,-372.5 609,-366.5 609,-366.5 609,-344.5 609,-344.5 609,-338.5 615,-332.5 621,-332.5"/>
<text text-anchor="middle" x="626.5" y="-363.3" font-family="Times,serif" font-size="14.00">19</text>
<polyline fill="none" stroke="black" points="644,-355.5 644,-378.5 "/>
<text text-anchor="middle" x="663" y="-363.3" font-family="Times,serif" font-size="14.00">OP</text>
<polyline fill="none" stroke="black" points="682,-355.5 682,-378.5 "/>
<text text-anchor="middle" x="714.5" y="-363.3" font-family="Times,serif" font-size="14.00">size=3</text>
<polyline fill="none" stroke="black" points="609,-355.5 747,-355.5 "/>
<text text-anchor="middle" x="678" y="-340.3" font-family="Times,serif" font-size="14.00">^</text>
</g>
<!-- node17&#45;&gt;node19 -->
<g id="edge36" class="edge">
<title>node17&#45;&gt;node19</title>
<path fill="none" stroke="green" d="M642.84,-415.37C646.41,-406.79 651.17,-396.83 656.08,-387.56"/>
<polygon fill="green" stroke="green" points="659.25,-389.06 660.99,-378.61 653.11,-385.69 659.25,-389.06"/>
</g>
<!-- node18&#45;&gt;node17 -->
<g id="edge35" class="edge">
<title>node18&#45;&gt;node17</title>
<path fill="none" stroke="blue" d="M553.2,-378.61C568.68,-388.16 586.21,-399.44 601.34,-409.56"/>
<polygon fill="blue" stroke="blue" points="599.69,-412.67 609.93,-415.37 603.61,-406.87 599.69,-412.67"/>
</g>
<!-- node19&#45;&gt;node17 -->
<g id="edge37" class="edge">
<title>node19&#45;&gt;node17</title>
<path fill="none" stroke="blue" d="M673.17,-378.61C669.6,-387.18 664.85,-397.14 659.94,-406.41"/>
<polygon fill="blue" stroke="blue" points="656.77,-404.92 655.02,-415.37 662.9,-408.29 656.77,-404.92"/>
</g>
<!-- node20 -->
<g id="node20" class="node">
<title>node20</title>
<path fill="lightyellow" stroke="black" d="M552,-249.5C552,-249.5 674,-249.5 674,-249.5 680,-249.5 686,-255.5 686,-261.5 686,-261.5 686,-283.5 686,-283.5 686,-289.5 680,-295.5 674,-295.5 674,-295.5 552,-295.5 552,-295.5 546,-295.5 540,-289.5 540,-283.5 540,-283.5 540,-261.5 540,-261.5 540,-255.5 546,-249.5 552,-249.5"/>
<text text-anchor="middle" x="557.5" y="-280.3" font-family="Times,serif" font-size="14.00">20</text>
<polyline fill="none" stroke="black" points="575,-272.5 575,-295.5 "/>
<text text-anchor="middle" x="598" y="-280.3" font-family="Times,serif" font-size="14.00">VAR</text>
<polyline fill="none" stroke="black" points="621,-272.5 621,-295.5 "/>
<text text-anchor="middle" x="653.5" y="-280.3" font-family="Times,serif" font-size="14.00">size=1</text>
<polyline fill="none" stroke="black" points="540,-272.5 686,-272.5 "/>
<text text-anchor="middle" x="613" y="-257.3" font-family="Times,serif" font-size="14.00">x</text>
</g>
<!-- node19&#45;&gt;node20 -->
<g id="edge38" class="edge">
<title>node19&#45;&gt;node20</title>
<path fill="none" stroke="red" d="M654.15,-332.37C646.37,-323.53 637.94,-313.21 630.68,-303.7"/>
<polygon fill="red" stroke="red" points="633.43,-301.53 624.65,-295.61 627.82,-305.72 633.43,-301.53"/>
</g>
<!-- node21 -->
<g id="node21" class="node">
<title>node21</title>
<path fill="pink" stroke="black" d="M716.5,-249.5C716.5,-249.5 847.5,-249.5 847.5,-249.5 853.5,-249.5 859.5,-255.5 859.5,-261.5 859.5,-261.5 859.5,-283.5 859.5,-283.5 859.5,-289.5 853.5,-295.5 847.5,-295.5 847.5,-295.5 716.5,-295.5 716.5,-295.5 710.5,-295.5 704.5,-289.5 704.5,-283.5 704.5,-283.5 704.5,-261.5 704.5,-261.5 704.5,-255.5 710.5,-249.5 716.5,-249.5"/>
<text text-anchor="middle" x="722" y="-280.3" font-family="Times,serif" font-size="14.00">21</text>
<polyline fill="none" stroke="black" points="739.5,-272.5 739.5,-295.5 "/>
<text text-anchor="middle" x="767" y="-280.3" font-family="Times,serif" font-size="14.00">NUM</text>
<polyline fill="none" stroke="black" points="794.5,-272.5 794.5,-295.5 "/>
<text text-anchor="middle" x="827" y="-280.3" font-family="Times,serif" font-size="14.00">size=1</text>
<polyline fill="none" stroke="black" points="704.5,-272.5 859.5,-272.5 "/>
<text text-anchor="middle" x="782" y="-257.3" font-family="Times,serif" font-size="14.00">2</text>
</g>
<!-- node19&#45;&gt;node21 -->
<g id="edge40" class="edge">
<title>node19&#45;&gt;node21</title>
<path fill="none" stroke="green" d="M700.33,-332.37C711.75,-322.9 725.96,-311.74 739.34,-301.69"/>
<polygon fill="green" stroke="green" points="741.59,-304.38 747.53,-295.61 737.41,-298.76 741.59,-304.38"/>
</g>
<!-- node20&#45;&gt;node19 -->
<g id="edge39" class="edge">
<title>node20&#45;&gt;node19</title>
<path fill="none" stroke="blue" d="M636.83,-295.61C644.6,-304.44 653.04,-314.76 660.3,-324.27"/>
<polygon fill="blue" stroke="blue" points="657.55,-326.44 666.33,-332.37 663.16,-322.26 657.55,-326.44"/>
</g>
<!-- node21&#45;&gt;node19 -->
<g id="edge41" class="edge">
<title>node21&#45;&gt;node19</title>
<path fill="none" stroke="blue" d="M759.7,-295.61C748.29,-305.07 734.08,-316.23 720.7,-326.28"/>
<polygon fill="blue" stroke="blue" points="718.45,-323.59 712.51,-332.37 722.62,-329.21 718.45,-323.59"/>
</g>
</g>
</svg>
