<?xml version="1.0" encoding="UTF-8" standalone="no"?>
<!DOCTYPE svg PUBLIC "-//W3C//DTD SVG 1.1//EN"
 "http://www.w3.org/Graphics/SVG/1.1/DTD/svg11.dtd">
<!-- Generated by graphviz version 2.43.0 (0)
 -->
<!-- Title: %3 Pages: 1 -->
<svg width="481pt" height="304pt"
 viewBox="0.00 0.00 481.00 304.00" xmlns="http://www.w3.org/2000/svg" xmlns:xlink="http://www.w3.org/1999/xlink">
<g id="graph0" class="graph" transform="scale(1 1) rotate(0) translate(4 300)">
<title>%3</title>
<polygon fill="white" stroke="transparent" points="-4,4 -4,-300 477,-300 477,4 -4,4"/>
<!-- node1 -->
<g id="node1" class="node">
<title>node1</title>
<path fill="peachpuff" stroke="black" d="M98.5,-249.5C98.5,-249.5 203.5,-249.5 203.5,-249.5 209.5,-249.5 215.5,-255.5 215.5,-261.5 215.5,-261.5 215.5,-283.5 215.5,-283.5 215.5,-289.5 209.5,-295.5 203.5,-295.5 203.5,-295.5 98.5,-295.5 98.5,-295.5 92.5,-295.5 86.5,-289.5 86.5,-283.5 86.5,-283.5 86.5,-261.5 86.5,-261.5 86.5,-255.5 92.5,-249.5 98.5,-249.5"/>
<text text-anchor="middle" x="99.5" y="-280.3" font-family="Times,serif" font-size="14.00">1</text>
<polyline fill="none" stroke="black" points="112.5,-272.5 112.5,-295.5 "/>
<text text-anchor="middle" x="131.5" y="-280.3" font-family="Times,serif" font-size="14.00">OP</text>
<polyline fill="none" stroke="black" points="150.5,-272.5 150.5,-295.5 "/>
<text text-anchor="middle" x="183" y="-280.3" font-family="Times,serif" font-size="14.00">size=5</text>
<polyline fill="none" stroke="black" points="86.5,-272.5 215.5,-272.5 "/>
<text text-anchor="middle" x="151" y="-257.3" font-family="Times,serif" font-size="14.00">^</text>
</g>
<!-- node1&#45;&gt;node1 -->
<g id="edge1" class="edge">
<title>node1&#45;&gt;node1</title>
<path fill="none" stroke="blue" d="M215.68,-286.73C226.24,-284.69 233.5,-279.95 233.5,-272.5 233.5,-267.61 230.37,-263.89 225.24,-261.33"/>
<polygon fill="blue" stroke="blue" points="226.27,-257.99 215.68,-258.27 224.14,-264.66 226.27,-257.99"/>
</g>
<!-- node2 -->
<g id="node2" class="node">
<title>node2</title>
<path fill="pink" stroke="black" d="M12,-166.5C12,-166.5 134,-166.5 134,-166.5 140,-166.5 146,-172.5 146,-178.5 146,-178.5 146,-200.5 146,-200.5 146,-206.5 140,-212.5 134,-212.5 134,-212.5 12,-212.5 12,-212.5 6,-212.5 0,-206.5 0,-200.5 0,-200.5 0,-178.5 0,-178.5 0,-172.5 6,-166.5 12,-166.5"/>
<text text-anchor="middle" x="13" y="-197.3" font-family="Times,serif" font-size="14.00">2</text>
<polyline fill="none" stroke="black" points="26,-189.5 26,-212.5 "/>
<text text-anchor="middle" x="53.5" y="-197.3" font-family="Times,serif" font-size="14.00">NUM</text>
<polyline fill="none" stroke="black" points="81,-189.5 81,-212.5 "/>
<text text-anchor="middle" x="113.5" y="-197.3" font-family="Times,serif" font-size="14.00">size=1</text>
<polyline fill="none" stroke="black" points="0,-189.5 146,-189.5 "/>
<text text-anchor="middle" x="73" y="-174.3" font-family="Times,serif" font-size="14.00">233685185</text>
</g>
<!-- node1&#45;&gt;node2 -->
<g id="edge2" class="edge">
<title>node1&#45;&gt;node2</title>
<path fill="none" stroke="red" d="M123.6,-249.37C114.22,-240.35 103.9,-229.79 95,-220.12"/>
<polygon fill="red" stroke="red" points="97.5,-217.68 88.2,-212.61 92.31,-222.37 97.5,-217.68"/>
</g>
<!-- node3 -->
<g id="node3" class="node">
<title>node3</title>
<path fill="peachpuff" stroke="black" d="M176.5,-166.5C176.5,-166.5 281.5,-166.5 281.5,-166.5 287.5,-166.5 293.5,-172.5 293.5,-178.5 293.5,-178.5 293.5,-200.5 293.5,-200.5 293.5,-206.5 287.5,-212.5 281.5,-212.5 281.5,-212.5 176.5,-212.5 176.5,-212.5 170.5,-212.5 164.5,-206.5 164.5,-200.5 164.5,-200.5 164.5,-178.5 164.5,-178.5 164.5,-172.5 170.5,-166.5 176.5,-166.5"/>
<text text-anchor="middle" x="177.5" y="-197.3" font-family="Times,serif" font-size="14.00">3</text>
<polyline fill="none" stroke="black" points="190.5,-189.5 190.5,-212.5 "/>
<text text-anchor="middle" x="209.5" y="-197.3" font-family="Times,serif" font-size="14.00">OP</text>
<polyline fill="none" stroke="black" points="228.5,-189.5 228.5,-212.5 "/>
<text text-anchor="middle" x="261" y="-197.3" font-family="Times,serif" font-size="14.00">size=3</text>
<polyline fill="none" stroke="black" points="164.5,-189.5 293.5,-189.5 "/>
<text text-anchor="middle" x="229" y="-174.3" font-family="Times,serif" font-size="14.00">*</text>
</g>
<!-- node1&#45;&gt;node3 -->
<g id="edge4" class="edge">
<title>node1&#45;&gt;node3</title>
<path fill="none" stroke="green" d="M166.22,-249.37C174.29,-240.26 184.43,-229.58 194.24,-219.83"/>
<polygon fill="green" stroke="green" points="196.92,-222.1 201.62,-212.61 192.03,-217.1 196.92,-222.1"/>
</g>
<!-- node2&#45;&gt;node1 -->
<g id="edge3" class="edge">
<title>node2&#45;&gt;node1</title>
<path fill="none" stroke="blue" d="M100.38,-212.61C109.75,-221.62 120.07,-232.18 128.98,-241.85"/>
<polygon fill="blue" stroke="blue" points="126.47,-244.3 135.78,-249.37 131.66,-239.6 126.47,-244.3"/>
</g>
<!-- node3&#45;&gt;node1 -->
<g id="edge5" class="edge">
<title>node3&#45;&gt;node1</title>
<path fill="none" stroke="blue" d="M213.8,-212.61C205.74,-221.71 195.59,-232.39 185.79,-242.14"/>
<polygon fill="blue" stroke="blue" points="183.1,-239.87 178.4,-249.37 188,-244.87 183.1,-239.87"/>
</g>
<!-- node4 -->
<g id="node4" class="node">
<title>node4</title>
<path fill="lightyellow" stroke="black" d="M96.5,-83.5C96.5,-83.5 209.5,-83.5 209.5,-83.5 215.5,-83.5 221.5,-89.5 221.5,-95.5 221.5,-95.5 221.5,-117.5 221.5,-117.5 221.5,-123.5 215.5,-129.5 209.5,-129.5 209.5,-129.5 96.5,-129.5 96.5,-129.5 90.5,-129.5 84.5,-123.5 84.5,-117.5 84.5,-117.5 84.5,-95.5 84.5,-95.5 84.5,-89.5 90.5,-83.5 96.5,-83.5"/>
<text text-anchor="middle" x="97.5" y="-114.3" font-family="Times,serif" font-size="14.00">4</text>
<polyline fill="none" stroke="black" points="110.5,-106.5 110.5,-129.5 "/>
<text text-anchor="middle" x="133.5" y="-114.3" font-family="Times,serif" font-size="14.00">VAR</text>
<polyline fill="none" stroke="black" points="156.5,-106.5 156.5,-129.5 "/>
<text text-anchor="middle" x="189" y="-114.3" font-family="Times,serif" font-size="14.00">size=1</text>
<polyline fill="none" stroke="black" points="84.5,-106.5 221.5,-106.5 "/>
<text text-anchor="middle" x="153" y="-91.3" font-family="Times,serif" font-size="14.00">x</text>
</g>
<!-- node3&#45;&gt;node4 -->
<g id="edge6" class="edge">
<title>node3&#45;&gt;node4</title>
<path fill="none" stroke="red" d="M202.14,-166.37C192.99,-157.35 182.93,-146.79 174.26,-137.12"/>
<polygon fill="red" stroke="red" points="176.89,-134.8 167.65,-129.61 171.63,-139.43 176.89,-134.8"/>
</g>
<!-- node5 -->
<g id="node5" class="node">
<title>node5</title>
<path fill="peachpuff" stroke="black" d="M251.5,-83.5C251.5,-83.5 356.5,-83.5 356.5,-83.5 362.5,-83.5 368.5,-89.5 368.5,-95.5 368.5,-95.5 368.5,-117.5 368.5,-117.5 368.5,-123.5 362.5,-129.5 356.5,-129.5 356.5,-129.5 251.5,-129.5 251.5,-129.5 245.5,-129.5 239.5,-123.5 239.5,-117.5 239.5,-117.5 239.5,-95.5 239.5,-95.5 239.5,-89.5 245.5,-83.5 251.5,-83.5"/>
<text text-anchor="middle" x="252.5" y="-114.3" font-family="Times,serif" font-size="14.00">5</text>
<polyline fill="none" stroke="black" points="265.5,-106.5 265.5,-129.5 "/>
<text text-anchor="middle" x="284.5" y="-114.3" font-family="Times,serif" font-size="14.00">OP</text>
<polyline fill="none" stroke="black" points="303.5,-106.5 303.5,-129.5 "/>
<text text-anchor="middle" x="336" y="-114.3" font-family="Times,serif" font-size="14.00">size=1</text>
<polyline fill="none" stroke="black" points="239.5,-106.5 368.5,-106.5 "/>
<text text-anchor="middle" x="304" y="-91.3" font-family="Times,serif" font-size="14.00">log</text>
</g>
<!-- node3&#45;&gt;node5 -->
<g id="edge8" class="edge">
<title>node3&#45;&gt;node5</title>
<path fill="none" stroke="green" d="M243.4,-166.37C251.14,-157.26 260.88,-146.58 270.32,-136.83"/>
<polygon fill="green" stroke="green" points="272.92,-139.19 277.44,-129.61 267.93,-134.27 272.92,-139.19"/>
</g>
<!-- node4&#45;&gt;node3 -->
<g id="edge7" class="edge">
<title>node4&#45;&gt;node3</title>
<path fill="none" stroke="blue" d="M179.83,-129.61C188.98,-138.62 199.04,-149.18 207.71,-158.85"/>
<polygon fill="blue" stroke="blue" points="205.09,-161.17 214.32,-166.37 210.35,-156.55 205.09,-161.17"/>
</g>
<!-- node5&#45;&gt;node3 -->
<g id="edge9" class="edge">
<title>node5&#45;&gt;node3</title>
<path fill="none" stroke="blue" d="M289.62,-129.61C281.89,-138.71 272.15,-149.39 262.71,-159.14"/>
<polygon fill="blue" stroke="blue" points="260.11,-156.79 255.58,-166.37 265.1,-161.7 260.11,-156.79"/>
</g>
<!-- node6 -->
<g id="node6" class="node">
<title>node6</title>
<path fill="pink" stroke="black" d="M243,-0.5C243,-0.5 365,-0.5 365,-0.5 371,-0.5 377,-6.5 377,-12.5 377,-12.5 377,-34.5 377,-34.5 377,-40.5 371,-46.5 365,-46.5 365,-46.5 243,-46.5 243,-46.5 237,-46.5 231,-40.5 231,-34.5 231,-34.5 231,-12.5 231,-12.5 231,-6.5 237,-0.5 243,-0.5"/>
<text text-anchor="middle" x="244" y="-31.3" font-family="Times,serif" font-size="14.00">6</text>
<polyline fill="none" stroke="black" points="257,-23.5 257,-46.5 "/>
<text text-anchor="middle" x="284.5" y="-31.3" font-family="Times,serif" font-size="14.00">NUM</text>
<polyline fill="none" stroke="black" points="312,-23.5 312,-46.5 "/>
<text text-anchor="middle" x="344.5" y="-31.3" font-family="Times,serif" font-size="14.00">size=1</text>
<polyline fill="none" stroke="black" points="231,-23.5 377,-23.5 "/>
<text text-anchor="middle" x="304" y="-8.3" font-family="Times,serif" font-size="14.00">233685185</text>
</g>
<!-- node5&#45;&gt;node6 -->
<g id="edge10" class="edge">
<title>node5&#45;&gt;node6</title>
<path fill="none" stroke="red" d="M297.91,-83.37C297.28,-75.15 297.1,-65.66 297.38,-56.73"/>
<polygon fill="red" stroke="red" points="300.88,-56.78 297.91,-46.61 293.89,-56.41 300.88,-56.78"/>
</g>
<!-- node7 -->
<g id="node7" class="node">
<title>node7</title>
<ellipse fill="lightgrey" stroke="black" cx="434" cy="-23.5" rx="38.99" ry="18"/>
<text text-anchor="middle" x="434" y="-19.8" font-family="Times,serif" font-size="14.00">node7</text>
</g>
<!-- node5&#45;&gt;node7 -->
<g id="edge12" class="edge">
<title>node5&#45;&gt;node7</title>
<path fill="none" stroke="green" d="M339.52,-83.37C359.38,-70.99 383.9,-55.72 402.98,-43.83"/>
<polygon fill="green" stroke="green" points="404.96,-46.72 411.6,-38.46 401.26,-40.78 404.96,-46.72"/>
</g>
<!-- node6&#45;&gt;node5 -->
<g id="edge11" class="edge">
<title>node6&#45;&gt;node5</title>
<path fill="none" stroke="blue" d="M310.09,-46.61C310.72,-54.82 310.9,-64.31 310.62,-73.25"/>
<polygon fill="blue" stroke="blue" points="307.12,-73.2 310.09,-83.37 314.11,-73.56 307.12,-73.2"/>
</g>
</g>
</svg>
