<?xml version="1.0" encoding="UTF-8" standalone="no"?>
<!DOCTYPE svg PUBLIC "-//W3C//DTD SVG 1.1//EN"
 "http://www.w3.org/Graphics/SVG/1.1/DTD/svg11.dtd">
<!-- Generated by graphviz version 2.43.0 (0)
 -->
<!-- Title: %3 Pages: 1 -->
<svg width="809pt" height="719pt"
 viewBox="0.00 0.00 808.50 719.00" xmlns="http://www.w3.org/2000/svg" xmlns:xlink="http://www.w3.org/1999/xlink">
<g id="graph0" class="graph" transform="scale(1 1) rotate(0) translate(4 715)">
<title>%3</title>
<polygon fill="white" stroke="transparent" points="-4,4 -4,-715 804.5,-715 804.5,4 -4,4"/>
<!-- node1 -->
<g id="node1" class="node">
<title>node1</title>
<path fill="peachpuff" stroke="black" d="M418,-664.5C418,-664.5 532,-664.5 532,-664.5 538,-664.5 544,-670.5 544,-676.5 544,-676.5 544,-698.5 544,-698.5 544,-704.5 538,-710.5 532,-710.5 532,-710.5 418,-710.5 418,-710.5 412,-710.5 406,-704.5 406,-698.5 406,-698.5 406,-676.5 406,-676.5 406,-670.5 412,-664.5 418,-664.5"/>
<text text-anchor="middle" x="419" y="-695.3" font-family="Times,serif" font-size="14.00">1</text>
<polyline fill="none" stroke="black" points="432,-687.5 432,-710.5 "/>
<text text-anchor="middle" x="451" y="-695.3" font-family="Times,serif" font-size="14.00">OP</text>
<polyline fill="none" stroke="black" points="470,-687.5 470,-710.5 "/>
<text text-anchor="middle" x="507" y="-695.3" font-family="Times,serif" font-size="14.00">size=25</text>
<polyline fill="none" stroke="black" points="406,-687.5 544,-687.5 "/>
<text text-anchor="middle" x="475" y="-672.3" font-family="Times,serif" font-size="14.00">+</text>
</g>
<!-- node1&#45;&gt;node1 -->
<g id="edge1" class="edge">
<title>node1&#45;&gt;node1</title>
<path fill="none" stroke="blue" d="M544.27,-701.52C554.83,-699.38 562,-694.71 562,-687.5 562,-682.77 558.91,-679.13 553.81,-676.58"/>
<polygon fill="blue" stroke="blue" points="554.87,-673.25 544.27,-673.48 552.7,-679.9 554.87,-673.25"/>
</g>
<!-- node2 -->
<g id="node2" class="node">
<title>node2</title>
<path fill="peachpuff" stroke="black" d="M338,-581.5C338,-581.5 452,-581.5 452,-581.5 458,-581.5 464,-587.5 464,-593.5 464,-593.5 464,-615.5 464,-615.5 464,-621.5 458,-627.5 452,-627.5 452,-627.5 338,-627.5 338,-627.5 332,-627.5 326,-621.5 326,-615.5 326,-615.5 326,-593.5 326,-593.5 326,-587.5 332,-581.5 338,-581.5"/>
<text text-anchor="middle" x="339" y="-612.3" font-family="Times,serif" font-size="14.00">2</text>
<polyline fill="none" stroke="black" points="352,-604.5 352,-627.5 "/>
<text text-anchor="middle" x="371" y="-612.3" font-family="Times,serif" font-size="14.00">OP</text>
<polyline fill="none" stroke="black" points="390,-604.5 390,-627.5 "/>
<text text-anchor="middle" x="427" y="-612.3" font-family="Times,serif" font-size="14.00">size=23</text>
<polyline fill="none" stroke="black" points="326,-604.5 464,-604.5 "/>
<text text-anchor="middle" x="395" y="-589.3" font-family="Times,serif" font-size="14.00">&#45;</text>
</g>
<!-- node1&#45;&gt;node2 -->
<g id="edge2" class="edge">
<title>node1&#45;&gt;node2</title>
<path fill="none" stroke="red" d="M447.05,-664.37C437.45,-655.35 426.87,-644.79 417.73,-635.12"/>
<polygon fill="red" stroke="red" points="420.12,-632.55 410.75,-627.61 414.99,-637.32 420.12,-632.55"/>
</g>
<!-- node25 -->
<g id="node25" class="node">
<title>node25</title>
<path fill="lightyellow" stroke="black" d="M494,-581.5C494,-581.5 616,-581.5 616,-581.5 622,-581.5 628,-587.5 628,-593.5 628,-593.5 628,-615.5 628,-615.5 628,-621.5 622,-627.5 616,-627.5 616,-627.5 494,-627.5 494,-627.5 488,-627.5 482,-621.5 482,-615.5 482,-615.5 482,-593.5 482,-593.5 482,-587.5 488,-581.5 494,-581.5"/>
<text text-anchor="middle" x="499.5" y="-612.3" font-family="Times,serif" font-size="14.00">25</text>
<polyline fill="none" stroke="black" points="517,-604.5 517,-627.5 "/>
<text text-anchor="middle" x="540" y="-612.3" font-family="Times,serif" font-size="14.00">VAR</text>
<polyline fill="none" stroke="black" points="563,-604.5 563,-627.5 "/>
<text text-anchor="middle" x="595.5" y="-612.3" font-family="Times,serif" font-size="14.00">size=1</text>
<polyline fill="none" stroke="black" points="482,-604.5 628,-604.5 "/>
<text text-anchor="middle" x="555" y="-589.3" font-family="Times,serif" font-size="14.00">x</text>
</g>
<!-- node1&#45;&gt;node25 -->
<g id="edge48" class="edge">
<title>node1&#45;&gt;node25</title>
<path fill="none" stroke="green" d="M490.77,-664.37C499.15,-655.17 509.67,-644.37 519.81,-634.55"/>
<polygon fill="green" stroke="green" points="522.26,-637.04 527.08,-627.61 517.43,-631.98 522.26,-637.04"/>
</g>
<!-- node2&#45;&gt;node1 -->
<g id="edge3" class="edge">
<title>node2&#45;&gt;node1</title>
<path fill="none" stroke="blue" d="M422.92,-627.61C432.52,-636.62 443.1,-647.18 452.25,-656.85"/>
<polygon fill="blue" stroke="blue" points="449.86,-659.42 459.23,-664.37 454.99,-654.66 449.86,-659.42"/>
</g>
<!-- node3 -->
<g id="node3" class="node">
<title>node3</title>
<path fill="peachpuff" stroke="black" d="M258,-498.5C258,-498.5 372,-498.5 372,-498.5 378,-498.5 384,-504.5 384,-510.5 384,-510.5 384,-532.5 384,-532.5 384,-538.5 378,-544.5 372,-544.5 372,-544.5 258,-544.5 258,-544.5 252,-544.5 246,-538.5 246,-532.5 246,-532.5 246,-510.5 246,-510.5 246,-504.5 252,-498.5 258,-498.5"/>
<text text-anchor="middle" x="259" y="-529.3" font-family="Times,serif" font-size="14.00">3</text>
<polyline fill="none" stroke="black" points="272,-521.5 272,-544.5 "/>
<text text-anchor="middle" x="291" y="-529.3" font-family="Times,serif" font-size="14.00">OP</text>
<polyline fill="none" stroke="black" points="310,-521.5 310,-544.5 "/>
<text text-anchor="middle" x="347" y="-529.3" font-family="Times,serif" font-size="14.00">size=21</text>
<polyline fill="none" stroke="black" points="246,-521.5 384,-521.5 "/>
<text text-anchor="middle" x="315" y="-506.3" font-family="Times,serif" font-size="14.00">*</text>
</g>
<!-- node2&#45;&gt;node3 -->
<g id="edge4" class="edge">
<title>node2&#45;&gt;node3</title>
<path fill="none" stroke="red" d="M367.05,-581.37C357.45,-572.35 346.87,-561.79 337.73,-552.12"/>
<polygon fill="red" stroke="red" points="340.12,-549.55 330.75,-544.61 334.99,-554.32 340.12,-549.55"/>
</g>
<!-- node24 -->
<g id="node24" class="node">
<title>node24</title>
<path fill="lightyellow" stroke="black" d="M414,-498.5C414,-498.5 536,-498.5 536,-498.5 542,-498.5 548,-504.5 548,-510.5 548,-510.5 548,-532.5 548,-532.5 548,-538.5 542,-544.5 536,-544.5 536,-544.5 414,-544.5 414,-544.5 408,-544.5 402,-538.5 402,-532.5 402,-532.5 402,-510.5 402,-510.5 402,-504.5 408,-498.5 414,-498.5"/>
<text text-anchor="middle" x="419.5" y="-529.3" font-family="Times,serif" font-size="14.00">24</text>
<polyline fill="none" stroke="black" points="437,-521.5 437,-544.5 "/>
<text text-anchor="middle" x="460" y="-529.3" font-family="Times,serif" font-size="14.00">VAR</text>
<polyline fill="none" stroke="black" points="483,-521.5 483,-544.5 "/>
<text text-anchor="middle" x="515.5" y="-529.3" font-family="Times,serif" font-size="14.00">size=1</text>
<polyline fill="none" stroke="black" points="402,-521.5 548,-521.5 "/>
<text text-anchor="middle" x="475" y="-506.3" font-family="Times,serif" font-size="14.00">x</text>
</g>
<!-- node2&#45;&gt;node24 -->
<g id="edge46" class="edge">
<title>node2&#45;&gt;node24</title>
<path fill="none" stroke="green" d="M410.77,-581.37C419.15,-572.17 429.67,-561.37 439.81,-551.55"/>
<polygon fill="green" stroke="green" points="442.26,-554.04 447.08,-544.61 437.43,-548.98 442.26,-554.04"/>
</g>
<!-- node3&#45;&gt;node2 -->
<g id="edge5" class="edge">
<title>node3&#45;&gt;node2</title>
<path fill="none" stroke="blue" d="M342.92,-544.61C352.52,-553.62 363.1,-564.18 372.25,-573.85"/>
<polygon fill="blue" stroke="blue" points="369.86,-576.42 379.23,-581.37 374.99,-571.66 369.86,-576.42"/>
</g>
<!-- node4 -->
<g id="node4" class="node">
<title>node4</title>
<path fill="peachpuff" stroke="black" d="M184.5,-415.5C184.5,-415.5 289.5,-415.5 289.5,-415.5 295.5,-415.5 301.5,-421.5 301.5,-427.5 301.5,-427.5 301.5,-449.5 301.5,-449.5 301.5,-455.5 295.5,-461.5 289.5,-461.5 289.5,-461.5 184.5,-461.5 184.5,-461.5 178.5,-461.5 172.5,-455.5 172.5,-449.5 172.5,-449.5 172.5,-427.5 172.5,-427.5 172.5,-421.5 178.5,-415.5 184.5,-415.5"/>
<text text-anchor="middle" x="185.5" y="-446.3" font-family="Times,serif" font-size="14.00">4</text>
<polyline fill="none" stroke="black" points="198.5,-438.5 198.5,-461.5 "/>
<text text-anchor="middle" x="217.5" y="-446.3" font-family="Times,serif" font-size="14.00">OP</text>
<polyline fill="none" stroke="black" points="236.5,-438.5 236.5,-461.5 "/>
<text text-anchor="middle" x="269" y="-446.3" font-family="Times,serif" font-size="14.00">size=3</text>
<polyline fill="none" stroke="black" points="172.5,-438.5 301.5,-438.5 "/>
<text text-anchor="middle" x="237" y="-423.3" font-family="Times,serif" font-size="14.00">/</text>
</g>
<!-- node3&#45;&gt;node4 -->
<g id="edge6" class="edge">
<title>node3&#45;&gt;node4</title>
<path fill="none" stroke="red" d="M287.6,-498.37C278.22,-489.35 267.9,-478.79 259,-469.12"/>
<polygon fill="red" stroke="red" points="261.5,-466.68 252.2,-461.61 256.31,-471.37 261.5,-466.68"/>
</g>
<!-- node7 -->
<g id="node7" class="node">
<title>node7</title>
<path fill="peachpuff" stroke="black" d="M336,-415.5C336,-415.5 450,-415.5 450,-415.5 456,-415.5 462,-421.5 462,-427.5 462,-427.5 462,-449.5 462,-449.5 462,-455.5 456,-461.5 450,-461.5 450,-461.5 336,-461.5 336,-461.5 330,-461.5 324,-455.5 324,-449.5 324,-449.5 324,-427.5 324,-427.5 324,-421.5 330,-415.5 336,-415.5"/>
<text text-anchor="middle" x="337" y="-446.3" font-family="Times,serif" font-size="14.00">7</text>
<polyline fill="none" stroke="black" points="350,-438.5 350,-461.5 "/>
<text text-anchor="middle" x="369" y="-446.3" font-family="Times,serif" font-size="14.00">OP</text>
<polyline fill="none" stroke="black" points="388,-438.5 388,-461.5 "/>
<text text-anchor="middle" x="425" y="-446.3" font-family="Times,serif" font-size="14.00">size=17</text>
<polyline fill="none" stroke="black" points="324,-438.5 462,-438.5 "/>
<text text-anchor="middle" x="393" y="-423.3" font-family="Times,serif" font-size="14.00">^</text>
</g>
<!-- node3&#45;&gt;node7 -->
<g id="edge12" class="edge">
<title>node3&#45;&gt;node7</title>
<path fill="none" stroke="green" d="M330.22,-498.37C338.29,-489.26 348.43,-478.58 358.24,-468.83"/>
<polygon fill="green" stroke="green" points="360.92,-471.1 365.62,-461.61 356.03,-466.1 360.92,-471.1"/>
</g>
<!-- node4&#45;&gt;node3 -->
<g id="edge7" class="edge">
<title>node4&#45;&gt;node3</title>
<path fill="none" stroke="blue" d="M264.38,-461.61C273.75,-470.62 284.07,-481.18 292.98,-490.85"/>
<polygon fill="blue" stroke="blue" points="290.47,-493.3 299.78,-498.37 295.66,-488.6 290.47,-493.3"/>
</g>
<!-- node5 -->
<g id="node5" class="node">
<title>node5</title>
<path fill="pink" stroke="black" d="M12,-332.5C12,-332.5 134,-332.5 134,-332.5 140,-332.5 146,-338.5 146,-344.5 146,-344.5 146,-366.5 146,-366.5 146,-372.5 140,-378.5 134,-378.5 134,-378.5 12,-378.5 12,-378.5 6,-378.5 0,-372.5 0,-366.5 0,-366.5 0,-344.5 0,-344.5 0,-338.5 6,-332.5 12,-332.5"/>
<text text-anchor="middle" x="13" y="-363.3" font-family="Times,serif" font-size="14.00">5</text>
<polyline fill="none" stroke="black" points="26,-355.5 26,-378.5 "/>
<text text-anchor="middle" x="53.5" y="-363.3" font-family="Times,serif" font-size="14.00">NUM</text>
<polyline fill="none" stroke="black" points="81,-355.5 81,-378.5 "/>
<text text-anchor="middle" x="113.5" y="-363.3" font-family="Times,serif" font-size="14.00">size=1</text>
<polyline fill="none" stroke="black" points="0,-355.5 146,-355.5 "/>
<text text-anchor="middle" x="73" y="-340.3" font-family="Times,serif" font-size="14.00">25</text>
</g>
<!-- node4&#45;&gt;node5 -->
<g id="edge8" class="edge">
<title>node4&#45;&gt;node5</title>
<path fill="none" stroke="red" d="M186.1,-415.37C165.27,-405.46 141.33,-393.68 120.83,-383.28"/>
<polygon fill="red" stroke="red" points="122.17,-380.03 111.67,-378.61 118.99,-386.27 122.17,-380.03"/>
</g>
<!-- node6 -->
<g id="node6" class="node">
<title>node6</title>
<path fill="pink" stroke="black" d="M176,-332.5C176,-332.5 298,-332.5 298,-332.5 304,-332.5 310,-338.5 310,-344.5 310,-344.5 310,-366.5 310,-366.5 310,-372.5 304,-378.5 298,-378.5 298,-378.5 176,-378.5 176,-378.5 170,-378.5 164,-372.5 164,-366.5 164,-366.5 164,-344.5 164,-344.5 164,-338.5 170,-332.5 176,-332.5"/>
<text text-anchor="middle" x="177" y="-363.3" font-family="Times,serif" font-size="14.00">6</text>
<polyline fill="none" stroke="black" points="190,-355.5 190,-378.5 "/>
<text text-anchor="middle" x="217.5" y="-363.3" font-family="Times,serif" font-size="14.00">NUM</text>
<polyline fill="none" stroke="black" points="245,-355.5 245,-378.5 "/>
<text text-anchor="middle" x="277.5" y="-363.3" font-family="Times,serif" font-size="14.00">size=1</text>
<polyline fill="none" stroke="black" points="164,-355.5 310,-355.5 "/>
<text text-anchor="middle" x="237" y="-340.3" font-family="Times,serif" font-size="14.00">10</text>
</g>
<!-- node4&#45;&gt;node6 -->
<g id="edge10" class="edge">
<title>node4&#45;&gt;node6</title>
<path fill="none" stroke="green" d="M230.91,-415.37C230.28,-407.15 230.1,-397.66 230.38,-388.73"/>
<polygon fill="green" stroke="green" points="233.88,-388.78 230.91,-378.61 226.89,-388.41 233.88,-388.78"/>
</g>
<!-- node5&#45;&gt;node4 -->
<g id="edge9" class="edge">
<title>node5&#45;&gt;node4</title>
<path fill="none" stroke="blue" d="M123.85,-378.61C144.67,-388.51 168.61,-400.29 189.12,-410.69"/>
<polygon fill="blue" stroke="blue" points="187.78,-413.94 198.28,-415.37 190.96,-407.7 187.78,-413.94"/>
</g>
<!-- node6&#45;&gt;node4 -->
<g id="edge11" class="edge">
<title>node6&#45;&gt;node4</title>
<path fill="none" stroke="blue" d="M243.09,-378.61C243.72,-386.82 243.9,-396.31 243.62,-405.25"/>
<polygon fill="blue" stroke="blue" points="240.12,-405.2 243.09,-415.37 247.11,-405.56 240.12,-405.2"/>
</g>
<!-- node7&#45;&gt;node3 -->
<g id="edge13" class="edge">
<title>node7&#45;&gt;node3</title>
<path fill="none" stroke="blue" d="M377.8,-461.61C369.74,-470.71 359.59,-481.39 349.79,-491.14"/>
<polygon fill="blue" stroke="blue" points="347.1,-488.87 342.4,-498.37 352,-493.87 347.1,-488.87"/>
</g>
<!-- node8 -->
<g id="node8" class="node">
<title>node8</title>
<path fill="peachpuff" stroke="black" d="M340.5,-332.5C340.5,-332.5 445.5,-332.5 445.5,-332.5 451.5,-332.5 457.5,-338.5 457.5,-344.5 457.5,-344.5 457.5,-366.5 457.5,-366.5 457.5,-372.5 451.5,-378.5 445.5,-378.5 445.5,-378.5 340.5,-378.5 340.5,-378.5 334.5,-378.5 328.5,-372.5 328.5,-366.5 328.5,-366.5 328.5,-344.5 328.5,-344.5 328.5,-338.5 334.5,-332.5 340.5,-332.5"/>
<text text-anchor="middle" x="341.5" y="-363.3" font-family="Times,serif" font-size="14.00">8</text>
<polyline fill="none" stroke="black" points="354.5,-355.5 354.5,-378.5 "/>
<text text-anchor="middle" x="373.5" y="-363.3" font-family="Times,serif" font-size="14.00">OP</text>
<polyline fill="none" stroke="black" points="392.5,-355.5 392.5,-378.5 "/>
<text text-anchor="middle" x="425" y="-363.3" font-family="Times,serif" font-size="14.00">size=9</text>
<polyline fill="none" stroke="black" points="328.5,-355.5 457.5,-355.5 "/>
<text text-anchor="middle" x="393" y="-340.3" font-family="Times,serif" font-size="14.00">+</text>
</g>
<!-- node7&#45;&gt;node8 -->
<g id="edge14" class="edge">
<title>node7&#45;&gt;node8</title>
<path fill="none" stroke="red" d="M386.91,-415.37C386.28,-407.15 386.1,-397.66 386.38,-388.73"/>
<polygon fill="red" stroke="red" points="389.88,-388.78 386.91,-378.61 382.89,-388.41 389.88,-388.78"/>
</g>
<!-- node17 -->
<g id="node17" class="node">
<title>node17</title>
<path fill="peachpuff" stroke="black" d="M501,-332.5C501,-332.5 615,-332.5 615,-332.5 621,-332.5 627,-338.5 627,-344.5 627,-344.5 627,-366.5 627,-366.5 627,-372.5 621,-378.5 615,-378.5 615,-378.5 501,-378.5 501,-378.5 495,-378.5 489,-372.5 489,-366.5 489,-366.5 489,-344.5 489,-344.5 489,-338.5 495,-332.5 501,-332.5"/>
<text text-anchor="middle" x="506.5" y="-363.3" font-family="Times,serif" font-size="14.00">17</text>
<polyline fill="none" stroke="black" points="524,-355.5 524,-378.5 "/>
<text text-anchor="middle" x="543" y="-363.3" font-family="Times,serif" font-size="14.00">OP</text>
<polyline fill="none" stroke="black" points="562,-355.5 562,-378.5 "/>
<text text-anchor="middle" x="594.5" y="-363.3" font-family="Times,serif" font-size="14.00">size=7</text>
<polyline fill="none" stroke="black" points="489,-355.5 627,-355.5 "/>
<text text-anchor="middle" x="558" y="-340.3" font-family="Times,serif" font-size="14.00">^</text>
</g>
<!-- node7&#45;&gt;node17 -->
<g id="edge32" class="edge">
<title>node7&#45;&gt;node17</title>
<path fill="none" stroke="green" d="M432,-415.37C451.6,-405.37 475.74,-393.47 497.64,-383"/>
<polygon fill="green" stroke="green" points="499.35,-386.06 506.88,-378.61 496.34,-379.74 499.35,-386.06"/>
</g>
<!-- node8&#45;&gt;node7 -->
<g id="edge15" class="edge">
<title>node8&#45;&gt;node7</title>
<path fill="none" stroke="blue" d="M399.09,-378.61C399.72,-386.82 399.9,-396.31 399.62,-405.25"/>
<polygon fill="blue" stroke="blue" points="396.12,-405.2 399.09,-415.37 403.11,-405.56 396.12,-405.2"/>
</g>
<!-- node9 -->
<g id="node9" class="node">
<title>node9</title>
<path fill="peachpuff" stroke="black" d="M180.5,-249.5C180.5,-249.5 285.5,-249.5 285.5,-249.5 291.5,-249.5 297.5,-255.5 297.5,-261.5 297.5,-261.5 297.5,-283.5 297.5,-283.5 297.5,-289.5 291.5,-295.5 285.5,-295.5 285.5,-295.5 180.5,-295.5 180.5,-295.5 174.5,-295.5 168.5,-289.5 168.5,-283.5 168.5,-283.5 168.5,-261.5 168.5,-261.5 168.5,-255.5 174.5,-249.5 180.5,-249.5"/>
<text text-anchor="middle" x="181.5" y="-280.3" font-family="Times,serif" font-size="14.00">9</text>
<polyline fill="none" stroke="black" points="194.5,-272.5 194.5,-295.5 "/>
<text text-anchor="middle" x="213.5" y="-280.3" font-family="Times,serif" font-size="14.00">OP</text>
<polyline fill="none" stroke="black" points="232.5,-272.5 232.5,-295.5 "/>
<text text-anchor="middle" x="265" y="-280.3" font-family="Times,serif" font-size="14.00">size=7</text>
<polyline fill="none" stroke="black" points="168.5,-272.5 297.5,-272.5 "/>
<text text-anchor="middle" x="233" y="-257.3" font-family="Times,serif" font-size="14.00">*</text>
</g>
<!-- node8&#45;&gt;node9 -->
<g id="edge16" class="edge">
<title>node8&#45;&gt;node9</title>
<path fill="none" stroke="red" d="M343.19,-332.37C322.85,-322.46 299.49,-310.68 279.5,-300.28"/>
<polygon fill="red" stroke="red" points="281.06,-297.14 270.58,-295.61 277.82,-303.35 281.06,-297.14"/>
</g>
<!-- node16 -->
<g id="node16" class="node">
<title>node16</title>
<path fill="pink" stroke="black" d="M327.5,-249.5C327.5,-249.5 458.5,-249.5 458.5,-249.5 464.5,-249.5 470.5,-255.5 470.5,-261.5 470.5,-261.5 470.5,-283.5 470.5,-283.5 470.5,-289.5 464.5,-295.5 458.5,-295.5 458.5,-295.5 327.5,-295.5 327.5,-295.5 321.5,-295.5 315.5,-289.5 315.5,-283.5 315.5,-283.5 315.5,-261.5 315.5,-261.5 315.5,-255.5 321.5,-249.5 327.5,-249.5"/>
<text text-anchor="middle" x="333" y="-280.3" font-family="Times,serif" font-size="14.00">16</text>
<polyline fill="none" stroke="black" points="350.5,-272.5 350.5,-295.5 "/>
<text text-anchor="middle" x="378" y="-280.3" font-family="Times,serif" font-size="14.00">NUM</text>
<polyline fill="none" stroke="black" points="405.5,-272.5 405.5,-295.5 "/>
<text text-anchor="middle" x="438" y="-280.3" font-family="Times,serif" font-size="14.00">size=1</text>
<polyline fill="none" stroke="black" points="315.5,-272.5 470.5,-272.5 "/>
<text text-anchor="middle" x="393" y="-257.3" font-family="Times,serif" font-size="14.00">1</text>
</g>
<!-- node8&#45;&gt;node16 -->
<g id="edge30" class="edge">
<title>node8&#45;&gt;node16</title>
<path fill="none" stroke="green" d="M386.91,-332.37C386.28,-324.15 386.1,-314.66 386.38,-305.73"/>
<polygon fill="green" stroke="green" points="389.88,-305.78 386.91,-295.61 382.89,-305.41 389.88,-305.78"/>
</g>
<!-- node9&#45;&gt;node8 -->
<g id="edge17" class="edge">
<title>node9&#45;&gt;node8</title>
<path fill="none" stroke="blue" d="M282.76,-295.61C303.09,-305.51 326.45,-317.29 346.44,-327.69"/>
<polygon fill="blue" stroke="blue" points="344.89,-330.83 355.37,-332.37 348.13,-324.63 344.89,-330.83"/>
</g>
<!-- node10 -->
<g id="node10" class="node">
<title>node10</title>
<path fill="pink" stroke="black" d="M42.5,-166.5C42.5,-166.5 173.5,-166.5 173.5,-166.5 179.5,-166.5 185.5,-172.5 185.5,-178.5 185.5,-178.5 185.5,-200.5 185.5,-200.5 185.5,-206.5 179.5,-212.5 173.5,-212.5 173.5,-212.5 42.5,-212.5 42.5,-212.5 36.5,-212.5 30.5,-206.5 30.5,-200.5 30.5,-200.5 30.5,-178.5 30.5,-178.5 30.5,-172.5 36.5,-166.5 42.5,-166.5"/>
<text text-anchor="middle" x="48" y="-197.3" font-family="Times,serif" font-size="14.00">10</text>
<polyline fill="none" stroke="black" points="65.5,-189.5 65.5,-212.5 "/>
<text text-anchor="middle" x="93" y="-197.3" font-family="Times,serif" font-size="14.00">NUM</text>
<polyline fill="none" stroke="black" points="120.5,-189.5 120.5,-212.5 "/>
<text text-anchor="middle" x="153" y="-197.3" font-family="Times,serif" font-size="14.00">size=1</text>
<polyline fill="none" stroke="black" points="30.5,-189.5 185.5,-189.5 "/>
<text text-anchor="middle" x="108" y="-174.3" font-family="Times,serif" font-size="14.00">3</text>
</g>
<!-- node9&#45;&gt;node10 -->
<g id="edge18" class="edge">
<title>node9&#45;&gt;node10</title>
<path fill="none" stroke="red" d="M192.75,-249.37C177.27,-239.81 159.74,-228.53 144.62,-218.41"/>
<polygon fill="red" stroke="red" points="146.27,-215.3 136.03,-212.61 142.36,-221.1 146.27,-215.3"/>
</g>
<!-- node11 -->
<g id="node11" class="node">
<title>node11</title>
<path fill="peachpuff" stroke="black" d="M216,-166.5C216,-166.5 330,-166.5 330,-166.5 336,-166.5 342,-172.5 342,-178.5 342,-178.5 342,-200.5 342,-200.5 342,-206.5 336,-212.5 330,-212.5 330,-212.5 216,-212.5 216,-212.5 210,-212.5 204,-206.5 204,-200.5 204,-200.5 204,-178.5 204,-178.5 204,-172.5 210,-166.5 216,-166.5"/>
<text text-anchor="middle" x="221.5" y="-197.3" font-family="Times,serif" font-size="14.00">11</text>
<polyline fill="none" stroke="black" points="239,-189.5 239,-212.5 "/>
<text text-anchor="middle" x="258" y="-197.3" font-family="Times,serif" font-size="14.00">OP</text>
<polyline fill="none" stroke="black" points="277,-189.5 277,-212.5 "/>
<text text-anchor="middle" x="309.5" y="-197.3" font-family="Times,serif" font-size="14.00">size=5</text>
<polyline fill="none" stroke="black" points="204,-189.5 342,-189.5 "/>
<text text-anchor="middle" x="273" y="-174.3" font-family="Times,serif" font-size="14.00">&#45;</text>
</g>
<!-- node9&#45;&gt;node11 -->
<g id="edge20" class="edge">
<title>node9&#45;&gt;node11</title>
<path fill="none" stroke="green" d="M237.84,-249.37C241.41,-240.79 246.17,-230.83 251.08,-221.56"/>
<polygon fill="green" stroke="green" points="254.25,-223.06 255.99,-212.61 248.11,-219.69 254.25,-223.06"/>
</g>
<!-- node10&#45;&gt;node9 -->
<g id="edge19" class="edge">
<title>node10&#45;&gt;node9</title>
<path fill="none" stroke="blue" d="M148.2,-212.61C163.68,-222.16 181.21,-233.44 196.34,-243.56"/>
<polygon fill="blue" stroke="blue" points="194.69,-246.67 204.93,-249.37 198.61,-240.87 194.69,-246.67"/>
</g>
<!-- node11&#45;&gt;node9 -->
<g id="edge21" class="edge">
<title>node11&#45;&gt;node9</title>
<path fill="none" stroke="blue" d="M268.17,-212.61C264.6,-221.18 259.85,-231.14 254.94,-240.41"/>
<polygon fill="blue" stroke="blue" points="251.77,-238.92 250.02,-249.37 257.9,-242.29 251.77,-238.92"/>
</g>
<!-- node12 -->
<g id="node12" class="node">
<title>node12</title>
<path fill="pink" stroke="black" d="M52.5,-83.5C52.5,-83.5 183.5,-83.5 183.5,-83.5 189.5,-83.5 195.5,-89.5 195.5,-95.5 195.5,-95.5 195.5,-117.5 195.5,-117.5 195.5,-123.5 189.5,-129.5 183.5,-129.5 183.5,-129.5 52.5,-129.5 52.5,-129.5 46.5,-129.5 40.5,-123.5 40.5,-117.5 40.5,-117.5 40.5,-95.5 40.5,-95.5 40.5,-89.5 46.5,-83.5 52.5,-83.5"/>
<text text-anchor="middle" x="58" y="-114.3" font-family="Times,serif" font-size="14.00">12</text>
<polyline fill="none" stroke="black" points="75.5,-106.5 75.5,-129.5 "/>
<text text-anchor="middle" x="103" y="-114.3" font-family="Times,serif" font-size="14.00">NUM</text>
<polyline fill="none" stroke="black" points="130.5,-106.5 130.5,-129.5 "/>
<text text-anchor="middle" x="163" y="-114.3" font-family="Times,serif" font-size="14.00">size=1</text>
<polyline fill="none" stroke="black" points="40.5,-106.5 195.5,-106.5 "/>
<text text-anchor="middle" x="118" y="-91.3" font-family="Times,serif" font-size="14.00">2,5</text>
</g>
<!-- node11&#45;&gt;node12 -->
<g id="edge22" class="edge">
<title>node11&#45;&gt;node12</title>
<path fill="none" stroke="red" d="M224.55,-166.37C204.91,-156.5 182.4,-144.79 163.11,-134.42"/>
<polygon fill="red" stroke="red" points="164.68,-131.29 154.21,-129.61 161.35,-137.44 164.68,-131.29"/>
</g>
<!-- node13 -->
<g id="node13" class="node">
<title>node13</title>
<path fill="peachpuff" stroke="black" d="M226,-83.5C226,-83.5 340,-83.5 340,-83.5 346,-83.5 352,-89.5 352,-95.5 352,-95.5 352,-117.5 352,-117.5 352,-123.5 346,-129.5 340,-129.5 340,-129.5 226,-129.5 226,-129.5 220,-129.5 214,-123.5 214,-117.5 214,-117.5 214,-95.5 214,-95.5 214,-89.5 220,-83.5 226,-83.5"/>
<text text-anchor="middle" x="231.5" y="-114.3" font-family="Times,serif" font-size="14.00">13</text>
<polyline fill="none" stroke="black" points="249,-106.5 249,-129.5 "/>
<text text-anchor="middle" x="268" y="-114.3" font-family="Times,serif" font-size="14.00">OP</text>
<polyline fill="none" stroke="black" points="287,-106.5 287,-129.5 "/>
<text text-anchor="middle" x="319.5" y="-114.3" font-family="Times,serif" font-size="14.00">size=3</text>
<polyline fill="none" stroke="black" points="214,-106.5 352,-106.5 "/>
<text text-anchor="middle" x="283" y="-91.3" font-family="Times,serif" font-size="14.00">/</text>
</g>
<!-- node11&#45;&gt;node13 -->
<g id="edge24" class="edge">
<title>node11&#45;&gt;node13</title>
<path fill="none" stroke="green" d="M269.64,-166.37C270.02,-158.15 271.02,-148.66 272.4,-139.73"/>
<polygon fill="green" stroke="green" points="275.89,-140.06 274.18,-129.61 269,-138.85 275.89,-140.06"/>
</g>
<!-- node12&#45;&gt;node11 -->
<g id="edge23" class="edge">
<title>node12&#45;&gt;node11</title>
<path fill="none" stroke="blue" d="M166.39,-129.61C186.03,-139.47 208.54,-151.18 227.84,-161.55"/>
<polygon fill="blue" stroke="blue" points="226.28,-164.69 236.74,-166.37 229.61,-158.53 226.28,-164.69"/>
</g>
<!-- node13&#45;&gt;node11 -->
<g id="edge25" class="edge">
<title>node13&#45;&gt;node11</title>
<path fill="none" stroke="blue" d="M286.36,-129.61C285.98,-137.82 284.99,-147.31 283.61,-156.25"/>
<polygon fill="blue" stroke="blue" points="280.11,-155.91 281.82,-166.37 287.01,-157.13 280.11,-155.91"/>
</g>
<!-- node14 -->
<g id="node14" class="node">
<title>node14</title>
<path fill="pink" stroke="black" d="M130.5,-0.5C130.5,-0.5 261.5,-0.5 261.5,-0.5 267.5,-0.5 273.5,-6.5 273.5,-12.5 273.5,-12.5 273.5,-34.5 273.5,-34.5 273.5,-40.5 267.5,-46.5 261.5,-46.5 261.5,-46.5 130.5,-46.5 130.5,-46.5 124.5,-46.5 118.5,-40.5 118.5,-34.5 118.5,-34.5 118.5,-12.5 118.5,-12.5 118.5,-6.5 124.5,-0.5 130.5,-0.5"/>
<text text-anchor="middle" x="136" y="-31.3" font-family="Times,serif" font-size="14.00">14</text>
<polyline fill="none" stroke="black" points="153.5,-23.5 153.5,-46.5 "/>
<text text-anchor="middle" x="181" y="-31.3" font-family="Times,serif" font-size="14.00">NUM</text>
<polyline fill="none" stroke="black" points="208.5,-23.5 208.5,-46.5 "/>
<text text-anchor="middle" x="241" y="-31.3" font-family="Times,serif" font-size="14.00">size=1</text>
<polyline fill="none" stroke="black" points="118.5,-23.5 273.5,-23.5 "/>
<text text-anchor="middle" x="196" y="-8.3" font-family="Times,serif" font-size="14.00">0,1</text>
</g>
<!-- node13&#45;&gt;node14 -->
<g id="edge26" class="edge">
<title>node13&#45;&gt;node14</title>
<path fill="none" stroke="red" d="M253.14,-83.37C242.65,-74.26 231.04,-63.58 220.99,-53.83"/>
<polygon fill="red" stroke="red" points="223.24,-51.13 213.66,-46.61 218.32,-56.12 223.24,-51.13"/>
</g>
<!-- node15 -->
<g id="node15" class="node">
<title>node15</title>
<path fill="pink" stroke="black" d="M303.5,-0.5C303.5,-0.5 434.5,-0.5 434.5,-0.5 440.5,-0.5 446.5,-6.5 446.5,-12.5 446.5,-12.5 446.5,-34.5 446.5,-34.5 446.5,-40.5 440.5,-46.5 434.5,-46.5 434.5,-46.5 303.5,-46.5 303.5,-46.5 297.5,-46.5 291.5,-40.5 291.5,-34.5 291.5,-34.5 291.5,-12.5 291.5,-12.5 291.5,-6.5 297.5,-0.5 303.5,-0.5"/>
<text text-anchor="middle" x="309" y="-31.3" font-family="Times,serif" font-size="14.00">15</text>
<polyline fill="none" stroke="black" points="326.5,-23.5 326.5,-46.5 "/>
<text text-anchor="middle" x="354" y="-31.3" font-family="Times,serif" font-size="14.00">NUM</text>
<polyline fill="none" stroke="black" points="381.5,-23.5 381.5,-46.5 "/>
<text text-anchor="middle" x="414" y="-31.3" font-family="Times,serif" font-size="14.00">size=1</text>
<polyline fill="none" stroke="black" points="291.5,-23.5 446.5,-23.5 "/>
<text text-anchor="middle" x="369" y="-8.3" font-family="Times,serif" font-size="14.00">2</text>
</g>
<!-- node13&#45;&gt;node15 -->
<g id="edge28" class="edge">
<title>node13&#45;&gt;node15</title>
<path fill="none" stroke="green" d="M300.41,-83.37C309.55,-74.08 321.02,-63.16 331.97,-53.26"/>
<polygon fill="green" stroke="green" points="334.3,-55.87 339.44,-46.61 329.65,-50.65 334.3,-55.87"/>
</g>
<!-- node14&#45;&gt;node13 -->
<g id="edge27" class="edge">
<title>node14&#45;&gt;node13</title>
<path fill="none" stroke="blue" d="M225.83,-46.61C236.31,-55.71 247.93,-66.39 257.98,-76.14"/>
<polygon fill="blue" stroke="blue" points="255.74,-78.84 265.32,-83.37 260.65,-73.85 255.74,-78.84"/>
</g>
<!-- node15&#45;&gt;node13 -->
<g id="edge29" class="edge">
<title>node15&#45;&gt;node13</title>
<path fill="none" stroke="blue" d="M351.62,-46.61C342.48,-55.89 331.02,-66.81 320.06,-76.71"/>
<polygon fill="blue" stroke="blue" points="317.73,-74.1 312.59,-83.37 322.38,-79.33 317.73,-74.1"/>
</g>
<!-- node16&#45;&gt;node8 -->
<g id="edge31" class="edge">
<title>node16&#45;&gt;node8</title>
<path fill="none" stroke="blue" d="M399.09,-295.61C399.72,-303.82 399.9,-313.31 399.62,-322.25"/>
<polygon fill="blue" stroke="blue" points="396.12,-322.2 399.09,-332.37 403.11,-322.56 396.12,-322.2"/>
</g>
<!-- node17&#45;&gt;node7 -->
<g id="edge33" class="edge">
<title>node17&#45;&gt;node7</title>
<path fill="none" stroke="blue" d="M519.06,-378.61C499.46,-388.6 475.33,-400.5 453.41,-410.97"/>
<polygon fill="blue" stroke="blue" points="451.71,-407.91 444.18,-415.37 454.71,-414.23 451.71,-407.91"/>
</g>
<!-- node18 -->
<g id="node18" class="node">
<title>node18</title>
<path fill="peachpuff" stroke="black" d="M501,-249.5C501,-249.5 615,-249.5 615,-249.5 621,-249.5 627,-255.5 627,-261.5 627,-261.5 627,-283.5 627,-283.5 627,-289.5 621,-295.5 615,-295.5 615,-295.5 501,-295.5 501,-295.5 495,-295.5 489,-289.5 489,-283.5 489,-283.5 489,-261.5 489,-261.5 489,-255.5 495,-249.5 501,-249.5"/>
<text text-anchor="middle" x="506.5" y="-280.3" font-family="Times,serif" font-size="14.00">18</text>
<polyline fill="none" stroke="black" points="524,-272.5 524,-295.5 "/>
<text text-anchor="middle" x="543" y="-280.3" font-family="Times,serif" font-size="14.00">OP</text>
<polyline fill="none" stroke="black" points="562,-272.5 562,-295.5 "/>
<text text-anchor="middle" x="594.5" y="-280.3" font-family="Times,serif" font-size="14.00">size=5</text>
<polyline fill="none" stroke="black" points="489,-272.5 627,-272.5 "/>
<text text-anchor="middle" x="558" y="-257.3" font-family="Times,serif" font-size="14.00">/</text>
</g>
<!-- node17&#45;&gt;node18 -->
<g id="edge34" class="edge">
<title>node17&#45;&gt;node18</title>
<path fill="none" stroke="red" d="M551.91,-332.37C551.28,-324.15 551.1,-314.66 551.38,-305.73"/>
<polygon fill="red" stroke="red" points="554.88,-305.78 551.91,-295.61 547.89,-305.41 554.88,-305.78"/>
</g>
<!-- node23 -->
<g id="node23" class="node">
<title>node23</title>
<path fill="pink" stroke="black" d="M657.5,-249.5C657.5,-249.5 788.5,-249.5 788.5,-249.5 794.5,-249.5 800.5,-255.5 800.5,-261.5 800.5,-261.5 800.5,-283.5 800.5,-283.5 800.5,-289.5 794.5,-295.5 788.5,-295.5 788.5,-295.5 657.5,-295.5 657.5,-295.5 651.5,-295.5 645.5,-289.5 645.5,-283.5 645.5,-283.5 645.5,-261.5 645.5,-261.5 645.5,-255.5 651.5,-249.5 657.5,-249.5"/>
<text text-anchor="middle" x="663" y="-280.3" font-family="Times,serif" font-size="14.00">23</text>
<polyline fill="none" stroke="black" points="680.5,-272.5 680.5,-295.5 "/>
<text text-anchor="middle" x="708" y="-280.3" font-family="Times,serif" font-size="14.00">NUM</text>
<polyline fill="none" stroke="black" points="735.5,-272.5 735.5,-295.5 "/>
<text text-anchor="middle" x="768" y="-280.3" font-family="Times,serif" font-size="14.00">size=1</text>
<polyline fill="none" stroke="black" points="645.5,-272.5 800.5,-272.5 "/>
<text text-anchor="middle" x="723" y="-257.3" font-family="Times,serif" font-size="14.00">4,512</text>
</g>
<!-- node17&#45;&gt;node23 -->
<g id="edge44" class="edge">
<title>node17&#45;&gt;node23</title>
<path fill="none" stroke="green" d="M597,-332.37C616.6,-322.37 640.74,-310.47 662.64,-300"/>
<polygon fill="green" stroke="green" points="664.35,-303.06 671.88,-295.61 661.34,-296.74 664.35,-303.06"/>
</g>
<!-- node18&#45;&gt;node17 -->
<g id="edge35" class="edge">
<title>node18&#45;&gt;node17</title>
<path fill="none" stroke="blue" d="M564.09,-295.61C564.72,-303.82 564.9,-313.31 564.62,-322.25"/>
<polygon fill="blue" stroke="blue" points="561.12,-322.2 564.09,-332.37 568.11,-322.56 561.12,-322.2"/>
</g>
<!-- node19 -->
<g id="node19" class="node">
<title>node19</title>
<path fill="peachpuff" stroke="black" d="M481,-166.5C481,-166.5 595,-166.5 595,-166.5 601,-166.5 607,-172.5 607,-178.5 607,-178.5 607,-200.5 607,-200.5 607,-206.5 601,-212.5 595,-212.5 595,-212.5 481,-212.5 481,-212.5 475,-212.5 469,-206.5 469,-200.5 469,-200.5 469,-178.5 469,-178.5 469,-172.5 475,-166.5 481,-166.5"/>
<text text-anchor="middle" x="486.5" y="-197.3" font-family="Times,serif" font-size="14.00">19</text>
<polyline fill="none" stroke="black" points="504,-189.5 504,-212.5 "/>
<text text-anchor="middle" x="523" y="-197.3" font-family="Times,serif" font-size="14.00">OP</text>
<polyline fill="none" stroke="black" points="542,-189.5 542,-212.5 "/>
<text text-anchor="middle" x="574.5" y="-197.3" font-family="Times,serif" font-size="14.00">size=3</text>
<polyline fill="none" stroke="black" points="469,-189.5 607,-189.5 "/>
<text text-anchor="middle" x="538" y="-174.3" font-family="Times,serif" font-size="14.00">*</text>
</g>
<!-- node18&#45;&gt;node19 -->
<g id="edge36" class="edge">
<title>node18&#45;&gt;node19</title>
<path fill="none" stroke="red" d="M546.44,-249.37C543.75,-241.06 541.21,-231.45 539.27,-222.43"/>
<polygon fill="red" stroke="red" points="542.71,-221.76 537.37,-212.61 535.83,-223.09 542.71,-221.76"/>
</g>
<!-- node22 -->
<g id="node22" class="node">
<title>node22</title>
<path fill="pink" stroke="black" d="M637.5,-166.5C637.5,-166.5 768.5,-166.5 768.5,-166.5 774.5,-166.5 780.5,-172.5 780.5,-178.5 780.5,-178.5 780.5,-200.5 780.5,-200.5 780.5,-206.5 774.5,-212.5 768.5,-212.5 768.5,-212.5 637.5,-212.5 637.5,-212.5 631.5,-212.5 625.5,-206.5 625.5,-200.5 625.5,-200.5 625.5,-178.5 625.5,-178.5 625.5,-172.5 631.5,-166.5 637.5,-166.5"/>
<text text-anchor="middle" x="643" y="-197.3" font-family="Times,serif" font-size="14.00">22</text>
<polyline fill="none" stroke="black" points="660.5,-189.5 660.5,-212.5 "/>
<text text-anchor="middle" x="688" y="-197.3" font-family="Times,serif" font-size="14.00">NUM</text>
<polyline fill="none" stroke="black" points="715.5,-189.5 715.5,-212.5 "/>
<text text-anchor="middle" x="748" y="-197.3" font-family="Times,serif" font-size="14.00">size=1</text>
<polyline fill="none" stroke="black" points="625.5,-189.5 780.5,-189.5 "/>
<text text-anchor="middle" x="703" y="-174.3" font-family="Times,serif" font-size="14.00">7</text>
</g>
<!-- node18&#45;&gt;node22 -->
<g id="edge42" class="edge">
<title>node18&#45;&gt;node22</title>
<path fill="none" stroke="green" d="M591.53,-249.37C608.43,-239.5 629.3,-227.79 648.41,-217.42"/>
<polygon fill="green" stroke="green" points="650.2,-220.43 657.34,-212.61 646.87,-214.27 650.2,-220.43"/>
</g>
<!-- node19&#45;&gt;node18 -->
<g id="edge37" class="edge">
<title>node19&#45;&gt;node18</title>
<path fill="none" stroke="blue" d="M549.55,-212.61C552.24,-220.91 554.79,-230.52 556.72,-239.54"/>
<polygon fill="blue" stroke="blue" points="553.29,-240.21 558.63,-249.37 560.16,-238.88 553.29,-240.21"/>
</g>
<!-- node20 -->
<g id="node20" class="node">
<title>node20</title>
<path fill="pink" stroke="black" d="M462.5,-83.5C462.5,-83.5 593.5,-83.5 593.5,-83.5 599.5,-83.5 605.5,-89.5 605.5,-95.5 605.5,-95.5 605.5,-117.5 605.5,-117.5 605.5,-123.5 599.5,-129.5 593.5,-129.5 593.5,-129.5 462.5,-129.5 462.5,-129.5 456.5,-129.5 450.5,-123.5 450.5,-117.5 450.5,-117.5 450.5,-95.5 450.5,-95.5 450.5,-89.5 456.5,-83.5 462.5,-83.5"/>
<text text-anchor="middle" x="468" y="-114.3" font-family="Times,serif" font-size="14.00">20</text>
<polyline fill="none" stroke="black" points="485.5,-106.5 485.5,-129.5 "/>
<text text-anchor="middle" x="513" y="-114.3" font-family="Times,serif" font-size="14.00">NUM</text>
<polyline fill="none" stroke="black" points="540.5,-106.5 540.5,-129.5 "/>
<text text-anchor="middle" x="573" y="-114.3" font-family="Times,serif" font-size="14.00">size=1</text>
<polyline fill="none" stroke="black" points="450.5,-106.5 605.5,-106.5 "/>
<text text-anchor="middle" x="528" y="-91.3" font-family="Times,serif" font-size="14.00">2</text>
</g>
<!-- node19&#45;&gt;node20 -->
<g id="edge38" class="edge">
<title>node19&#45;&gt;node20</title>
<path fill="none" stroke="red" d="M529.18,-166.37C527.53,-158.15 526.18,-148.66 525.36,-139.73"/>
<polygon fill="red" stroke="red" points="528.84,-139.34 524.64,-129.61 521.85,-139.83 528.84,-139.34"/>
</g>
<!-- node21 -->
<g id="node21" class="node">
<title>node21</title>
<path fill="pink" stroke="black" d="M635.5,-83.5C635.5,-83.5 766.5,-83.5 766.5,-83.5 772.5,-83.5 778.5,-89.5 778.5,-95.5 778.5,-95.5 778.5,-117.5 778.5,-117.5 778.5,-123.5 772.5,-129.5 766.5,-129.5 766.5,-129.5 635.5,-129.5 635.5,-129.5 629.5,-129.5 623.5,-123.5 623.5,-117.5 623.5,-117.5 623.5,-95.5 623.5,-95.5 623.5,-89.5 629.5,-83.5 635.5,-83.5"/>
<text text-anchor="middle" x="641" y="-114.3" font-family="Times,serif" font-size="14.00">21</text>
<polyline fill="none" stroke="black" points="658.5,-106.5 658.5,-129.5 "/>
<text text-anchor="middle" x="686" y="-114.3" font-family="Times,serif" font-size="14.00">NUM</text>
<polyline fill="none" stroke="black" points="713.5,-106.5 713.5,-129.5 "/>
<text text-anchor="middle" x="746" y="-114.3" font-family="Times,serif" font-size="14.00">size=1</text>
<polyline fill="none" stroke="black" points="623.5,-106.5 778.5,-106.5 "/>
<text text-anchor="middle" x="701" y="-91.3" font-family="Times,serif" font-size="14.00">16</text>
</g>
<!-- node19&#45;&gt;node21 -->
<g id="edge40" class="edge">
<title>node19&#45;&gt;node21</title>
<path fill="none" stroke="green" d="M576.45,-166.37C595.8,-156.37 619.65,-144.47 641.3,-134"/>
<polygon fill="green" stroke="green" points="642.93,-137.1 650.42,-129.61 639.9,-130.79 642.93,-137.1"/>
</g>
<!-- node20&#45;&gt;node19 -->
<g id="edge39" class="edge">
<title>node20&#45;&gt;node19</title>
<path fill="none" stroke="blue" d="M536.82,-129.61C538.47,-137.82 539.82,-147.31 540.64,-156.25"/>
<polygon fill="blue" stroke="blue" points="537.16,-156.64 541.36,-166.37 544.14,-156.14 537.16,-156.64"/>
</g>
<!-- node21&#45;&gt;node19 -->
<g id="edge41" class="edge">
<title>node21&#45;&gt;node19</title>
<path fill="none" stroke="blue" d="M662.6,-129.61C643.26,-139.6 619.41,-151.5 597.76,-161.97"/>
<polygon fill="blue" stroke="blue" points="596.12,-158.88 588.63,-166.37 599.16,-165.18 596.12,-158.88"/>
</g>
<!-- node22&#45;&gt;node18 -->
<g id="edge43" class="edge">
<title>node22&#45;&gt;node18</title>
<path fill="none" stroke="blue" d="M669.51,-212.61C652.62,-222.47 631.76,-234.18 612.64,-244.55"/>
<polygon fill="blue" stroke="blue" points="610.85,-241.54 603.71,-249.37 614.18,-247.7 610.85,-241.54"/>
</g>
<!-- node23&#45;&gt;node17 -->
<g id="edge45" class="edge">
<title>node23&#45;&gt;node17</title>
<path fill="none" stroke="blue" d="M684.06,-295.61C664.46,-305.6 640.33,-317.5 618.41,-327.97"/>
<polygon fill="blue" stroke="blue" points="616.71,-324.91 609.18,-332.37 619.71,-331.23 616.71,-324.91"/>
</g>
<!-- node24&#45;&gt;node2 -->
<g id="edge47" class="edge">
<title>node24&#45;&gt;node2</title>
<path fill="none" stroke="blue" d="M459.25,-544.61C450.88,-553.8 440.36,-564.6 430.22,-574.42"/>
<polygon fill="blue" stroke="blue" points="427.77,-571.93 422.95,-581.37 432.6,-576.99 427.77,-571.93"/>
</g>
<!-- node25&#45;&gt;node1 -->
<g id="edge49" class="edge">
<title>node25&#45;&gt;node1</title>
<path fill="none" stroke="blue" d="M539.25,-627.61C530.88,-636.8 520.36,-647.6 510.22,-657.42"/>
<polygon fill="blue" stroke="blue" points="507.77,-654.93 502.95,-664.37 512.6,-659.99 507.77,-654.93"/>
</g>
</g>
</svg>
