<?xml version="1.0" encoding="UTF-8" standalone="no"?>
<!DOCTYPE svg PUBLIC "-//W3C//DTD SVG 1.1//EN"
 "http://www.w3.org/Graphics/SVG/1.1/DTD/svg11.dtd">
<!-- Generated by graphviz version 2.43.0 (0)
 -->
<!-- Title: %3 Pages: 1 -->
<svg width="318pt" height="304pt"
 viewBox="0.00 0.00 318.00 304.00" xmlns="http://www.w3.org/2000/svg" xmlns:xlink="http://www.w3.org/1999/xlink">
<g id="graph0" class="graph" transform="scale(1 1) rotate(0) translate(4 300)">
<title>%3</title>
<polygon fill="white" stroke="transparent" points="-4,4 -4,-300 314,-300 314,4 -4,4"/>
<!-- node1 -->
<g id="node1" class="node">
<title>node1</title>
<path fill="peachpuff" stroke="black" d="M102.5,-249.5C102.5,-249.5 207.5,-249.5 207.5,-249.5 213.5,-249.5 219.5,-255.5 219.5,-261.5 219.5,-261.5 219.5,-283.5 219.5,-283.5 219.5,-289.5 213.5,-295.5 207.5,-295.5 207.5,-295.5 102.5,-295.5 102.5,-295.5 96.5,-295.5 90.5,-289.5 90.5,-283.5 90.5,-283.5 90.5,-261.5 90.5,-261.5 90.5,-255.5 96.5,-249.5 102.5,-249.5"/>
<text text-anchor="middle" x="103.5" y="-280.3" font-family="Times,serif" font-size="14.00">1</text>
<polyline fill="none" stroke="black" points="116.5,-272.5 116.5,-295.5 "/>
<text text-anchor="middle" x="135.5" y="-280.3" font-family="Times,serif" font-size="14.00">OP</text>
<polyline fill="none" stroke="black" points="154.5,-272.5 154.5,-295.5 "/>
<text text-anchor="middle" x="187" y="-280.3" font-family="Times,serif" font-size="14.00">size=5</text>
<polyline fill="none" stroke="black" points="90.5,-272.5 219.5,-272.5 "/>
<text text-anchor="middle" x="155" y="-257.3" font-family="Times,serif" font-size="14.00">*</text>
</g>
<!-- node1&#45;&gt;node1 -->
<g id="edge1" class="edge">
<title>node1&#45;&gt;node1</title>
<path fill="none" stroke="blue" d="M219.68,-286.73C230.24,-284.69 237.5,-279.95 237.5,-272.5 237.5,-267.61 234.37,-263.89 229.24,-261.33"/>
<polygon fill="blue" stroke="blue" points="230.27,-257.99 219.68,-258.27 228.14,-264.66 230.27,-257.99"/>
</g>
<!-- node2 -->
<g id="node2" class="node">
<title>node2</title>
<path fill="peachpuff" stroke="black" d="M102.5,-166.5C102.5,-166.5 207.5,-166.5 207.5,-166.5 213.5,-166.5 219.5,-172.5 219.5,-178.5 219.5,-178.5 219.5,-200.5 219.5,-200.5 219.5,-206.5 213.5,-212.5 207.5,-212.5 207.5,-212.5 102.5,-212.5 102.5,-212.5 96.5,-212.5 90.5,-206.5 90.5,-200.5 90.5,-200.5 90.5,-178.5 90.5,-178.5 90.5,-172.5 96.5,-166.5 102.5,-166.5"/>
<text text-anchor="middle" x="103.5" y="-197.3" font-family="Times,serif" font-size="14.00">2</text>
<polyline fill="none" stroke="black" points="116.5,-189.5 116.5,-212.5 "/>
<text text-anchor="middle" x="135.5" y="-197.3" font-family="Times,serif" font-size="14.00">OP</text>
<polyline fill="none" stroke="black" points="154.5,-189.5 154.5,-212.5 "/>
<text text-anchor="middle" x="187" y="-197.3" font-family="Times,serif" font-size="14.00">size=4</text>
<polyline fill="none" stroke="black" points="90.5,-189.5 219.5,-189.5 "/>
<text text-anchor="middle" x="155" y="-174.3" font-family="Times,serif" font-size="14.00">*</text>
</g>
<!-- node1&#45;&gt;node2 -->
<g id="edge2" class="edge">
<title>node1&#45;&gt;node2</title>
<path fill="none" stroke="red" d="M148.91,-249.37C148.28,-241.15 148.1,-231.66 148.38,-222.73"/>
<polygon fill="red" stroke="red" points="151.88,-222.78 148.91,-212.61 144.89,-222.41 151.88,-222.78"/>
</g>
<!-- node2&#45;&gt;node1 -->
<g id="edge3" class="edge">
<title>node2&#45;&gt;node1</title>
<path fill="none" stroke="blue" d="M161.09,-212.61C161.72,-220.82 161.9,-230.31 161.62,-239.25"/>
<polygon fill="blue" stroke="blue" points="158.12,-239.2 161.09,-249.37 165.11,-239.56 158.12,-239.2"/>
</g>
<!-- node3 -->
<g id="node3" class="node">
<title>node3</title>
<path fill="peachpuff" stroke="black" d="M102.5,-83.5C102.5,-83.5 207.5,-83.5 207.5,-83.5 213.5,-83.5 219.5,-89.5 219.5,-95.5 219.5,-95.5 219.5,-117.5 219.5,-117.5 219.5,-123.5 213.5,-129.5 207.5,-129.5 207.5,-129.5 102.5,-129.5 102.5,-129.5 96.5,-129.5 90.5,-123.5 90.5,-117.5 90.5,-117.5 90.5,-95.5 90.5,-95.5 90.5,-89.5 96.5,-83.5 102.5,-83.5"/>
<text text-anchor="middle" x="103.5" y="-114.3" font-family="Times,serif" font-size="14.00">3</text>
<polyline fill="none" stroke="black" points="116.5,-106.5 116.5,-129.5 "/>
<text text-anchor="middle" x="135.5" y="-114.3" font-family="Times,serif" font-size="14.00">OP</text>
<polyline fill="none" stroke="black" points="154.5,-106.5 154.5,-129.5 "/>
<text text-anchor="middle" x="187" y="-114.3" font-family="Times,serif" font-size="14.00">size=3</text>
<polyline fill="none" stroke="black" points="90.5,-106.5 219.5,-106.5 "/>
<text text-anchor="middle" x="155" y="-91.3" font-family="Times,serif" font-size="14.00">*</text>
</g>
<!-- node2&#45;&gt;node3 -->
<g id="edge4" class="edge">
<title>node2&#45;&gt;node3</title>
<path fill="none" stroke="red" d="M148.91,-166.37C148.28,-158.15 148.1,-148.66 148.38,-139.73"/>
<polygon fill="red" stroke="red" points="151.88,-139.78 148.91,-129.61 144.89,-139.41 151.88,-139.78"/>
</g>
<!-- node3&#45;&gt;node2 -->
<g id="edge5" class="edge">
<title>node3&#45;&gt;node2</title>
<path fill="none" stroke="blue" d="M161.09,-129.61C161.72,-137.82 161.9,-147.31 161.62,-156.25"/>
<polygon fill="blue" stroke="blue" points="158.12,-156.2 161.09,-166.37 165.11,-156.56 158.12,-156.2"/>
</g>
<!-- node4 -->
<g id="node4" class="node">
<title>node4</title>
<path fill="pink" stroke="black" d="M12,-0.5C12,-0.5 134,-0.5 134,-0.5 140,-0.5 146,-6.5 146,-12.5 146,-12.5 146,-34.5 146,-34.5 146,-40.5 140,-46.5 134,-46.5 134,-46.5 12,-46.5 12,-46.5 6,-46.5 0,-40.5 0,-34.5 0,-34.5 0,-12.5 0,-12.5 0,-6.5 6,-0.5 12,-0.5"/>
<text text-anchor="middle" x="13" y="-31.3" font-family="Times,serif" font-size="14.00">4</text>
<polyline fill="none" stroke="black" points="26,-23.5 26,-46.5 "/>
<text text-anchor="middle" x="53.5" y="-31.3" font-family="Times,serif" font-size="14.00">NUM</text>
<polyline fill="none" stroke="black" points="81,-23.5 81,-46.5 "/>
<text text-anchor="middle" x="113.5" y="-31.3" font-family="Times,serif" font-size="14.00">size=1</text>
<polyline fill="none" stroke="black" points="0,-23.5 146,-23.5 "/>
<text text-anchor="middle" x="73" y="-8.3" font-family="Times,serif" font-size="14.00">25</text>
</g>
<!-- node3&#45;&gt;node4 -->
<g id="edge6" class="edge">
<title>node3&#45;&gt;node4</title>
<path fill="none" stroke="red" d="M126.5,-83.37C116.68,-74.35 105.84,-63.79 96.46,-54.12"/>
<polygon fill="red" stroke="red" points="98.73,-51.43 89.29,-46.61 93.66,-56.26 98.73,-51.43"/>
</g>
<!-- node5 -->
<g id="node5" class="node">
<title>node5</title>
<path fill="pink" stroke="black" d="M176,-0.5C176,-0.5 298,-0.5 298,-0.5 304,-0.5 310,-6.5 310,-12.5 310,-12.5 310,-34.5 310,-34.5 310,-40.5 304,-46.5 298,-46.5 298,-46.5 176,-46.5 176,-46.5 170,-46.5 164,-40.5 164,-34.5 164,-34.5 164,-12.5 164,-12.5 164,-6.5 170,-0.5 176,-0.5"/>
<text text-anchor="middle" x="177" y="-31.3" font-family="Times,serif" font-size="14.00">5</text>
<polyline fill="none" stroke="black" points="190,-23.5 190,-46.5 "/>
<text text-anchor="middle" x="217.5" y="-31.3" font-family="Times,serif" font-size="14.00">NUM</text>
<polyline fill="none" stroke="black" points="245,-23.5 245,-46.5 "/>
<text text-anchor="middle" x="277.5" y="-31.3" font-family="Times,serif" font-size="14.00">size=1</text>
<polyline fill="none" stroke="black" points="164,-23.5 310,-23.5 "/>
<text text-anchor="middle" x="237" y="-8.3" font-family="Times,serif" font-size="14.00">10</text>
</g>
<!-- node3&#45;&gt;node5 -->
<g id="edge8" class="edge">
<title>node3&#45;&gt;node5</title>
<path fill="none" stroke="green" d="M171.32,-83.37C179.92,-74.17 190.71,-63.37 201.09,-53.55"/>
<polygon fill="green" stroke="green" points="203.61,-55.99 208.53,-46.61 198.83,-50.87 203.61,-55.99"/>
</g>
<!-- node4&#45;&gt;node3 -->
<g id="edge7" class="edge">
<title>node4&#45;&gt;node3</title>
<path fill="none" stroke="blue" d="M101.47,-46.61C111.29,-55.62 122.13,-66.18 131.51,-75.85"/>
<polygon fill="blue" stroke="blue" points="129.25,-78.55 138.68,-83.37 134.31,-73.71 129.25,-78.55"/>
</g>
<!-- node5&#45;&gt;node3 -->
<g id="edge9" class="edge">
<title>node5&#45;&gt;node3</title>
<path fill="none" stroke="blue" d="M220.71,-46.61C212.11,-55.8 201.32,-66.6 190.94,-76.42"/>
<polygon fill="blue" stroke="blue" points="188.42,-73.99 183.5,-83.37 193.2,-79.1 188.42,-73.99"/>
</g>
</g>
</svg>
